<svg xmlns="http://www.w3.org/2000/svg" width="190" height="177.436" viewBox="0 0 190 177.436">
  <g id="Grupo_142013" data-name="Grupo 142013" transform="translate(-50.111 -107.338)">
    <rect id="Rectángulo_42042" data-name="Rectángulo 42042" width="10.394" height="0.135" transform="translate(90.866 271.72)" fill="#ececec"/>
    <rect id="Rectángulo_42043" data-name="Rectángulo 42043" width="3.43" height="0.135" transform="translate(157.42 265.222)" fill="#ececec"/>
    <g id="Grupo_142000" data-name="Grupo 142000" transform="translate(81.582 107.338)">
      <rect id="Rectángulo_42044" data-name="Rectángulo 42044" width="144.41" height="51.507" transform="translate(1.324)" fill="#e1e1e1"/>
      <rect id="Rectángulo_42045" data-name="Rectángulo 42045" width="144.41" height="51.507" fill="#f0f0f0"/>
      <rect id="Rectángulo_42046" data-name="Rectángulo 42046" width="42.842" height="135.745" transform="translate(140.077 4.332) rotate(90)" fill="#fafafa"/>
      <circle id="Elipse_5449" data-name="Elipse 5449" cx="12.847" cy="12.847" r="12.847" transform="translate(59.358 12.907)" fill="#f0f0f0"/>
      <path id="Trazado_214534" data-name="Trazado 214534" d="M156.915,158.181l9-42.842h19.857l-9,42.842Z" transform="translate(-130.547 -111.006)" fill="#fff"/>
      <path id="Trazado_214535" data-name="Trazado 214535" d="M209.053,158.181l9-42.842h9.928l-9,42.842Z" transform="translate(-154.45 -111.006)" fill="#fff"/>
      <path id="Trazado_214536" data-name="Trazado 214536" d="M320.994,158.181l9-42.842h9.928l-9,42.842Z" transform="translate(-205.77 -111.006)" fill="#fff"/>
    </g>
    <ellipse id="_Path_" data-name="&lt;Path&gt;" cx="95" cy="5.523" rx="95" ry="5.523" transform="translate(50.111 273.727)" fill="#f5f5f5"/>
    <path id="Trazado_214537" data-name="Trazado 214537" d="M276.888,219.644H159.861a2.155,2.155,0,0,1-2.168-2.294l3.941-71.747a2.46,2.46,0,0,1,2.42-2.293H281.081a2.154,2.154,0,0,1,2.168,2.293l-3.941,71.747A2.46,2.46,0,0,1,276.888,219.644Z" transform="translate(-49.32 -16.491)" fill="#1a2e35"/>
    <path id="Trazado_214538" data-name="Trazado 214538" d="M271.821,152.654H260.51a6.437,6.437,0,0,1-6.482-6.848l.115-2.093a7.122,7.122,0,0,1,7.01-6.636h11.3a6.444,6.444,0,0,1,6.489,6.855l-.115,2.086A7.122,7.122,0,0,1,271.821,152.654Z" transform="translate(-93.481 -13.634)"/>
    <path id="Trazado_214539" data-name="Trazado 214539" d="M294.394,292.585H290.77l-9.978-152.556h3.625Z" transform="translate(-105.756 -14.987)"/>
    <path id="Trazado_214540" data-name="Trazado 214540" d="M255.674,292.585H259.3l9.978-152.556h-3.624Z" transform="translate(-94.241 -14.987)"/>
    <path id="Trazado_214541" data-name="Trazado 214541" d="M275.737,219.644H158.71a2.155,2.155,0,0,1-2.168-2.294l3.941-71.747a2.46,2.46,0,0,1,2.42-2.293H279.93A2.155,2.155,0,0,1,282.1,145.6l-3.941,71.747A2.46,2.46,0,0,1,275.737,219.644Z" transform="translate(-48.792 -16.491)" fill="#f0f8ff"/>
    <path id="Trazado_214542" data-name="Trazado 214542" d="M162.51,219.306a1.717,1.717,0,0,1-1.731-1.832l3.75-68.274a1.961,1.961,0,0,1,1.933-1.832H280.016a1.717,1.717,0,0,1,1.731,1.832L278,217.475a1.961,1.961,0,0,1-1.932,1.832Z" transform="translate(-50.735 -18.352)" fill="#1b3f5e"/>
    <path id="Trazado_214543" data-name="Trazado 214543" d="M280.809,185.569H246.629a1.457,1.457,0,0,1-1.471-1.556l1.707-31.077a.206.206,0,0,0-.207-.22.236.236,0,0,0-.232.22l-1.707,31.077a1.664,1.664,0,0,1-1.642,1.556h-35.52a1.457,1.457,0,0,1-1.471-1.556l1.707-31.077a.206.206,0,0,0-.208-.22.235.235,0,0,0-.232.22l-1.707,31.077A1.664,1.664,0,0,1,204,185.569H169.823a.235.235,0,0,0-.232.22.206.206,0,0,0,.208.22h34.181a1.458,1.458,0,0,1,1.471,1.556l-1.708,31.077a.206.206,0,0,0,.208.22.235.235,0,0,0,.232-.22l1.707-31.077a1.665,1.665,0,0,1,1.642-1.556h35.521a1.458,1.458,0,0,1,1.471,1.556l-1.708,31.077a.206.206,0,0,0,.208.22.235.235,0,0,0,.232-.22l1.707-31.077a1.664,1.664,0,0,1,1.641-1.556h34.181a.234.234,0,0,0,.232-.22A.206.206,0,0,0,280.809,185.569Z" transform="translate(-54.776 -20.804)" fill="#fff" opacity="0.1"/>
    <g id="Grupo_142001" data-name="Grupo 142001" transform="translate(155.035 136.354)">
      <path id="Trazado_214544" data-name="Trazado 214544" d="M259.782,163.117H246.052l-.767,13.963,13.709.366Z" transform="translate(-244.513 -161.926)" fill="#1a2e35" opacity="0.4"/>
      <path id="Trazado_214545" data-name="Trazado 214545" d="M257.639,175.838l-13.78-.672a120.737,120.737,0,0,0,1.433-14.249l13.861.672A120.779,120.779,0,0,1,257.639,175.838Z" transform="translate(-243.859 -160.918)" fill="#fff59d"/>
    </g>
    <g id="Grupo_142002" data-name="Grupo 142002" transform="translate(172.566 146.355)">
      <path id="Trazado_214546" data-name="Trazado 214546" d="M290.979,180.342l-13.747,1.048.3,13.923,13.755-.683Z" transform="translate(-276.69 -179.824)" fill="#1a2e35" opacity="0.4"/>
      <path id="Trazado_214547" data-name="Trazado 214547" d="M290.082,193.649l-13.85.385a119.008,119.008,0,0,0,.344-14.256l13.93-.392A119.446,119.446,0,0,1,290.082,193.649Z" transform="translate(-276.232 -179.386)" fill="#fff59d"/>
    </g>
    <g id="Grupo_142003" data-name="Grupo 142003" transform="translate(117.715 169.365)">
      <path id="Trazado_214548" data-name="Trazado 214548" d="M205.1,226.415l-25.345-.968-2.275,22.547,25.286,1.56Z" transform="translate(-176.105 -223.513)" fill="#1a2e35" opacity="0.4"/>
      <path id="Trazado_214549" data-name="Trazado 214549" d="M200.342,246.9l-25.4-2.059a172.109,172.109,0,0,0,3.522-22.962l25.546,2.064A172.4,172.4,0,0,1,200.342,246.9Z" transform="translate(-174.945 -221.875)" fill="#fff59d"/>
    </g>
    <g id="Grupo_142004" data-name="Grupo 142004" transform="translate(118.239 137.842)" opacity="0.3" style="mix-blend-mode: multiply;isolation: isolate">
      <path id="Trazado_214550" data-name="Trazado 214550" d="M179.162,166.523h0a1.342,1.342,0,0,1-1.35-1.429h0a1.532,1.532,0,0,1,1.507-1.429h0a1.343,1.343,0,0,1,1.351,1.429h0A1.533,1.533,0,0,1,179.162,166.523Z" transform="translate(-176.783 -163.665)" fill="#1a2e35"/>
      <path id="Trazado_214551" data-name="Trazado 214551" d="M205.63,166.523H188.044a1.342,1.342,0,0,1-1.351-1.429h0a1.533,1.533,0,0,1,1.508-1.429h17.586a1.342,1.342,0,0,1,1.35,1.429h0A1.532,1.532,0,0,1,205.63,166.523Z" transform="translate(-180.854 -163.665)" fill="#1a2e35" opacity="0.8"/>
      <path id="Trazado_214552" data-name="Trazado 214552" d="M178.53,178.03h0a1.342,1.342,0,0,1-1.351-1.429h0a1.533,1.533,0,0,1,1.508-1.429h0a1.342,1.342,0,0,1,1.351,1.429h0A1.533,1.533,0,0,1,178.53,178.03Z" transform="translate(-176.493 -168.94)" fill="#1a2e35"/>
      <path id="Trazado_214553" data-name="Trazado 214553" d="M208.112,178.03h-20.7a1.342,1.342,0,0,1-1.351-1.429h0a1.532,1.532,0,0,1,1.507-1.429h20.7a1.342,1.342,0,0,1,1.351,1.429h0A1.532,1.532,0,0,1,208.112,178.03Z" transform="translate(-180.564 -168.94)" fill="#1a2e35" opacity="0.8"/>
      <path id="Trazado_214554" data-name="Trazado 214554" d="M177.9,189.537h0a1.343,1.343,0,0,1-1.351-1.429h0a1.533,1.533,0,0,1,1.508-1.429h0a1.342,1.342,0,0,1,1.35,1.429h0A1.532,1.532,0,0,1,177.9,189.537Z" transform="translate(-176.203 -174.216)" fill="#1a2e35"/>
      <path id="Trazado_214555" data-name="Trazado 214555" d="M196.855,189.537H186.78a1.342,1.342,0,0,1-1.351-1.429h0a1.532,1.532,0,0,1,1.507-1.429h10.075a1.342,1.342,0,0,1,1.351,1.429h0A1.533,1.533,0,0,1,196.855,189.537Z" transform="translate(-180.275 -174.216)" fill="#1a2e35" opacity="0.8"/>
      <path id="Trazado_214556" data-name="Trazado 214556" d="M214.084,201.043H204.008a1.342,1.342,0,0,1-1.35-1.429h0a1.532,1.532,0,0,1,1.507-1.429h10.075a1.342,1.342,0,0,1,1.351,1.429h0A1.532,1.532,0,0,1,214.084,201.043Z" transform="translate(-188.173 -179.491)" fill="#1a2e35" opacity="0.8"/>
      <path id="Trazado_214557" data-name="Trazado 214557" d="M177.266,201.043h0a1.342,1.342,0,0,1-1.351-1.429h0a1.533,1.533,0,0,1,1.508-1.429h0a1.342,1.342,0,0,1,1.35,1.429h0A1.532,1.532,0,0,1,177.266,201.043Z" transform="translate(-175.913 -179.491)" fill="#1a2e35"/>
      <path id="Trazado_214558" data-name="Trazado 214558" d="M190.8,201.043h-4.654a1.342,1.342,0,0,1-1.35-1.429h0a1.533,1.533,0,0,1,1.507-1.429h4.654a1.342,1.342,0,0,1,1.35,1.429h0A1.532,1.532,0,0,1,190.8,201.043Z" transform="translate(-179.985 -179.491)" fill="#1a2e35" opacity="0.8"/>
    </g>
    <g id="Grupo_142006" data-name="Grupo 142006" transform="translate(151.581 171.122)">
      <path id="Trazado_214559" data-name="Trazado 214559" d="M252.578,237.7h-6.819l-.937,17.063h6.819Z" transform="translate(-240.847 -230.887)" fill="#fff59d"/>
      <path id="Trazado_214560" data-name="Trazado 214560" d="M271.842,244.2h-6.819l-.744,13.546H271.1Z" transform="translate(-249.767 -233.865)" fill="#fff59d"/>
      <path id="Trazado_214561" data-name="Trazado 214561" d="M291.8,227.419h-6.819l-1.243,22.632h6.819Z" transform="translate(-258.687 -226.173)" fill="#fff59d"/>
      <g id="Grupo_142005" data-name="Grupo 142005" transform="translate(0 0)">
        <path id="Trazado_214562" data-name="Trazado 214562" d="M243.912,244.043q-1.013,0-2.044-.053a11.587,11.587,0,0,1-4.126-.836.44.44,0,0,1,.361-.8,10.776,10.776,0,0,0,3.81.76c8.182.421,15.347-1.711,22.558-6.706a25.11,25.11,0,0,0,5.864-5.685.44.44,0,0,1,.724.5,25.637,25.637,0,0,1-6.087,5.909C258.2,241.821,251.456,244.043,243.912,244.043Z" transform="translate(-237.482 -227.6)" fill="#fff"/>
        <path id="Trazado_214563" data-name="Trazado 214563" d="M296.211,231.608A.44.44,0,0,1,295.8,231a7.739,7.739,0,0,0,.379-4.736,29.663,29.663,0,0,1-5.448,2.892.44.44,0,1,1-.329-.816,28.846,28.846,0,0,0,5.776-3.143.439.439,0,0,1,.669.219,8.557,8.557,0,0,1-.234,5.92A.44.44,0,0,1,296.211,231.608Z" transform="translate(-261.619 -225.118)" fill="#fff"/>
      </g>
    </g>
    <g id="Grupo_142008" data-name="Grupo 142008" transform="translate(195.185 136.134)">
      <path id="Trazado_214564" data-name="Trazado 214564" d="M344.9,185.168H319.529A1.518,1.518,0,0,1,318,183.55l1.178-21.445a1.706,1.706,0,0,1,1.681-1.593h25.368a1.518,1.518,0,0,1,1.529,1.617l-1.178,21.446A1.7,1.7,0,0,1,344.9,185.168ZM320.86,160.952a1.26,1.26,0,0,0-1.242,1.177l-1.178,21.446a1.078,1.078,0,0,0,1.09,1.153H344.9a1.26,1.26,0,0,0,1.242-1.177l1.178-21.445a1.077,1.077,0,0,0-1.09-1.153Z" transform="translate(-317.998 -160.512)" fill="#fff59d"/>
      <path id="Trazado_214565" data-name="Trazado 214565" d="M348.1,171.5H319.958a.22.22,0,0,1,0-.44H348.1a.22.22,0,0,1,0,.44Z" transform="translate(-318.796 -165.349)" fill="#fff59d"/>
      <path id="Trazado_214566" data-name="Trazado 214566" d="M330.35,190h-.012a.22.22,0,0,1-.207-.231l1.016-18.5a.218.218,0,0,1,.232-.207.22.22,0,0,1,.207.232l-1.016,18.5A.22.22,0,0,1,330.35,190Z" transform="translate(-323.56 -165.349)" fill="#fff59d"/>
      <g id="Grupo_142007" data-name="Grupo 142007" transform="translate(9.828 7.912)">
        <path id="Trazado_214567" data-name="Trazado 214567" d="M353.033,175.562H337.757a.22.22,0,0,1,0-.44h15.277a.22.22,0,0,1,0,.44Z" transform="translate(-336.784 -175.122)" fill="#fff59d"/>
        <path id="Trazado_214568" data-name="Trazado 214568" d="M350.607,180.543H337.483a.22.22,0,0,1,0-.44h13.123a.22.22,0,1,1,0,.44Z" transform="translate(-336.659 -177.406)" fill="#fff59d"/>
        <path id="Trazado_214569" data-name="Trazado 214569" d="M344.839,185.684H337.2a.22.22,0,1,1,0-.44h7.639a.22.22,0,0,1,0,.44Z" transform="translate(-336.529 -179.762)" fill="#fff59d"/>
        <path id="Trazado_214570" data-name="Trazado 214570" d="M345.974,195.717H336.65a.22.22,0,0,1,0-.44h9.324a.22.22,0,1,1,0,.44Z" transform="translate(-336.277 -184.362)" fill="#fff59d"/>
        <path id="Trazado_214571" data-name="Trazado 214571" d="M344.005,200.858h-7.638a.22.22,0,1,1,0-.44h7.638a.22.22,0,1,1,0,.44Z" transform="translate(-336.147 -186.719)" fill="#fff59d"/>
        <path id="Trazado_214572" data-name="Trazado 214572" d="M356.657,200.858h-2.448a.22.22,0,0,1,0-.44h2.448a.22.22,0,1,1,0,.44Z" transform="translate(-344.327 -186.719)" fill="#fff59d"/>
        <path id="Trazado_214573" data-name="Trazado 214573" d="M351.232,190.665h-14.3a.22.22,0,0,1,0-.44h14.3a.22.22,0,1,1,0,.44Z" transform="translate(-336.404 -182.046)" fill="#fff59d"/>
      </g>
    </g>
    <path id="Trazado_214574" data-name="Trazado 214574" d="M330.509,245.808c-3.314,0-6.03-.98-7.716-2.8-1.8-1.944-2.547-5-2.05-8.391a10.135,10.135,0,0,1,6.471-8.517,15.5,15.5,0,0,1,13.12.177,6,6,0,0,1,3.32,3.362.44.44,0,0,1-.839.264,5.18,5.18,0,0,0-2.876-2.84,14.618,14.618,0,0,0-12.368-.159,9.264,9.264,0,0,0-5.959,7.842c-.459,3.124.206,5.918,1.824,7.666,2.25,2.431,5.975,2.6,8,2.494a13.591,13.591,0,0,0,9.1-3.694c2.469-2.543,3.162-6.346,1.61-8.848a2.765,2.765,0,0,0-1.9-1.406.44.44,0,0,1,.087-.875,3.52,3.52,0,0,1,2.557,1.818c1.758,2.834,1.015,7.1-1.726,9.924a14.458,14.458,0,0,1-9.681,3.96Q330.988,245.808,330.509,245.808Z" transform="translate(-124.003 -53.819)" fill="#fff59d"/>
    <path id="Trazado_214575" data-name="Trazado 214575" d="M120.611,176.321l-1.562,2.721-1.53,2.78c-1.008,1.856-1.971,3.729-2.85,5.61-.438.943-.854,1.882-1.234,2.826l-.07.171a.215.215,0,0,1-.023.041.4.4,0,0,0-.047.075.991.991,0,0,0-.073.155,1.073,1.073,0,0,0,.065.607,6.016,6.016,0,0,0,1.3,1.977,23.525,23.525,0,0,0,2.115,2l-1.269,2.7a13.334,13.334,0,0,1-1.75-.619,13.509,13.509,0,0,1-1.653-.848,9.377,9.377,0,0,1-3.052-2.831,6.293,6.293,0,0,1-.955-2.47,5.622,5.622,0,0,1-.029-1.472,5.048,5.048,0,0,1,.124-.722l.089-.352.067-.214c.348-1.107.709-2.2,1.131-3.26.823-2.126,1.75-4.18,2.762-6.179.505-1,1.029-1.989,1.581-2.962s1.1-1.928,1.731-2.917Z" transform="translate(-26.522 -30.171)" fill="#ffc3bd"/>
    <path id="Trazado_214576" data-name="Trazado 214576" d="M121.108,212.841l2.845-.739.164,4.594a4.631,4.631,0,0,1-3.589-1.031Z" transform="translate(-32.282 -48.029)" fill="#ffc3bd"/>
    <path id="Trazado_214577" data-name="Trazado 214577" d="M130.885,210.672l-.642,4.033-3.227,1.335-.163-4.594Z" transform="translate(-35.183 -47.373)" fill="#ffc3bd"/>
    <path id="Trazado_214578" data-name="Trazado 214578" d="M156.018,138.479c.064.315.283.536.488.494s.321-.331.257-.645-.283-.536-.488-.494S155.954,138.164,156.018,138.479Z" transform="translate(-48.545 -13.978)" fill="#1a2e35"/>
    <path id="Trazado_214579" data-name="Trazado 214579" d="M156.5,140.029a11.478,11.478,0,0,0,2.049,2.384A1.851,1.851,0,0,1,157.1,143Z" transform="translate(-48.775 -14.987)" fill="#ff847f"/>
    <path id="Trazado_214580" data-name="Trazado 214580" d="M153.092,135.43a.188.188,0,0,1-.139-.316,1.869,1.869,0,0,1,1.6-.624.189.189,0,0,1-.062.372h0a1.493,1.493,0,0,0-1.265.507A.188.188,0,0,1,153.092,135.43Z" transform="translate(-47.125 -12.442)" fill="#1a2e35"/>
    <path id="Trazado_214581" data-name="Trazado 214581" d="M138.733,147.2c.571,2.91,1.14,8.243-.9,10.185,0,0,.8,2.953,6.2,2.953,5.947,0,2.842-2.952,2.842-2.952-3.245-.775-3.162-3.183-2.6-5.445Z" transform="translate(-40.218 -18.273)" fill="#ffc3bd"/>
    <path id="Trazado_214582" data-name="Trazado 214582" d="M135.242,164.806c-.435-.809-.914-1.734.076-2.024,1.09-.319,8.089-.91,10.145-.312-.632,1.124.438,2.505.438,2.505Z" transform="translate(-38.797 -25.158)" fill="#1a2e35"/>
    <path id="Trazado_214583" data-name="Trazado 214583" d="M102.255,416.84a1.281,1.281,0,0,0,.99-.054.384.384,0,0,0,.091-.438.438.438,0,0,0-.243-.277c-.537-.256-1.771.247-1.824.269a.094.094,0,0,0-.058.084.092.092,0,0,0,.053.087A4.974,4.974,0,0,0,102.255,416.84Zm.647-.636a.532.532,0,0,1,.111.036.255.255,0,0,1,.143.161c.05.17-.012.223-.033.241-.214.182-1.008.014-1.568-.21A3.1,3.1,0,0,1,102.9,416.2Z" transform="translate(-23.427 -141.506)" fill="#007cff"/>
    <path id="Trazado_214584" data-name="Trazado 214584" d="M101.286,415.6a.1.1,0,0,0,.046,0c.45-.132,1.412-.815,1.424-1.266a.307.307,0,0,0-.241-.3.514.514,0,0,0-.418.033c-.532.272-.868,1.373-.882,1.42a.094.094,0,0,0,.023.093A.091.091,0,0,0,101.286,415.6Zm1.126-1.406a.287.287,0,0,1,.041.011c.116.041.115.1.114.122-.006.266-.642.8-1.107,1.02a2.269,2.269,0,0,1,.723-1.119A.333.333,0,0,1,102.412,414.2Z" transform="translate(-23.427 -140.59)" fill="#007cff"/>
    <path id="Trazado_214585" data-name="Trazado 214585" d="M156.28,417.974c.511,0,1-.07,1.169-.3a.357.357,0,0,0-.008-.412.469.469,0,0,0-.3-.22c-.662-.18-2.052.612-2.111.646a.094.094,0,0,0,.028.174A6.945,6.945,0,0,0,156.28,417.974Zm.631-.772a.682.682,0,0,1,.182.022.284.284,0,0,1,.185.132c.067.117.042.175.018.208-.185.257-1.191.263-1.931.159A4.252,4.252,0,0,1,156.911,417.2Z" transform="translate(-48.079 -141.973)" fill="#007cff"/>
    <path id="Trazado_214586" data-name="Trazado 214586" d="M155.077,417.058a.089.089,0,0,0,.039-.009c.48-.216,1.431-1.076,1.359-1.526-.017-.106-.092-.237-.351-.263a.685.685,0,0,0-.523.161,2.69,2.69,0,0,0-.618,1.533.094.094,0,0,0,.039.086A.093.093,0,0,0,155.077,417.058Zm.971-1.613a.505.505,0,0,1,.056,0c.17.017.181.084.184.106.043.27-.6.946-1.093,1.241a2.207,2.207,0,0,1,.525-1.227A.5.5,0,0,1,156.048,415.445Z" transform="translate(-48.079 -141.166)" fill="#007cff"/>
    <path id="Trazado_214587" data-name="Trazado 214587" d="M147.079,410.609h3.978l.4-9.213h-3.978Z" transform="translate(-44.455 -134.812)" fill="#ffc3bd"/>
    <path id="Trazado_214588" data-name="Trazado 214588" d="M93.16,407.743l3.888.842,3.9-8.581-3.888-.842Z" transform="translate(-19.736 -133.787)" fill="#ffc3bd"/>
    <path id="Trazado_214589" data-name="Trazado 214589" d="M95.674,415.034l-4.369-.946a.346.346,0,0,0-.388.194l-1.516,3.29a.585.585,0,0,0,.42.814c1.53.3,2.291.375,4.212.791,1.182.256,3.85.905,5.482,1.259,1.6.345,2.195-1.214,1.558-1.506-2.854-1.3-4.046-2.452-4.819-3.522A.966.966,0,0,0,95.674,415.034Z" transform="translate(-17.988 -140.627)" fill="#1b3f5e"/>
    <path id="Trazado_214590" data-name="Trazado 214590" d="M149.735,417.558h-4.344a.347.347,0,0,0-.339.272l-.786,3.536a.579.579,0,0,0,.572.707c1.567-.027,3.832-.118,5.8-.118,2.3,0,4.292.126,6.994.126,1.633,0,2.087-1.651,1.4-1.8-3.112-.681-5.654-.754-8.343-2.412A1.847,1.847,0,0,0,149.735,417.558Z" transform="translate(-43.159 -142.221)" fill="#1b3f5e"/>
    <g id="Grupo_142009" data-name="Grupo 142009" transform="translate(83.692 139.901)">
      <path id="Trazado_214591" data-name="Trazado 214591" d="M118.924,167.574c-3.729.855-6.8,10.374-6.8,10.374l7.488,5.707a16.345,16.345,0,0,0,3.971-7.353C124.862,171.314,122.737,166.7,118.924,167.574Z" transform="translate(-112.121 -167.467)" fill="#007cff"/>
      <path id="Trazado_214592" data-name="Trazado 214592" d="M118.924,167.574c-3.729.855-6.8,10.374-6.8,10.374l7.488,5.707a16.345,16.345,0,0,0,3.971-7.353C124.862,171.314,122.737,166.7,118.924,167.574Z" transform="translate(-112.121 -167.467)" fill="#d84318"/>
    </g>
    <path id="Trazado_214593" data-name="Trazado 214593" d="M128.178,180.591c-2.026,2-2.687,5.654-2.843,8.827l.33.255a16.355,16.355,0,0,0,3.975-7.354c.076-.3.141-.6.195-.888Z" transform="translate(-34.487 -33.583)" opacity="0.2"/>
    <g id="Grupo_142010" data-name="Grupo 142010" transform="translate(90.495 138.976)">
      <path id="Trazado_214594" data-name="Trazado 214594" d="M146.971,167s4.234,4.783.236,34.387H125.928c-.147-3.266,1.906-19.2-1.245-34.592a55.588,55.588,0,0,1,7.124-.9,78.089,78.089,0,0,1,9.045,0A39.933,39.933,0,0,1,146.971,167Z" transform="translate(-124.683 -165.759)" fill="#007cff"/>
      <path id="Trazado_214595" data-name="Trazado 214595" d="M146.971,167s4.234,4.783.236,34.387H125.928c-.147-3.266,1.906-19.2-1.245-34.592a55.588,55.588,0,0,1,7.124-.9,78.089,78.089,0,0,1,9.045,0A39.933,39.933,0,0,1,146.971,167Z" transform="translate(-124.683 -165.759)" fill="#d84318"/>
    </g>
    <path id="Trazado_214596" data-name="Trazado 214596" d="M165.1,184.692l-.081-.07-4.836,1.158c-.276,3.271,3.087,7.181,4.82,8.968A92.839,92.839,0,0,0,165.1,184.692Z" transform="translate(-50.454 -35.431)" opacity="0.2"/>
    <g id="Grupo_142011" data-name="Grupo 142011" transform="translate(75.312 265.376)">
      <path id="Trazado_214597" data-name="Trazado 214597" d="M151.614,401.4l-.2,4.749h-3.98l.2-4.749Z" transform="translate(-119.928 -400.19)" opacity="0.2"/>
      <path id="Trazado_214598" data-name="Trazado 214598" d="M98.66,399.166l3.89.842-2.014,4.423-3.89-.842Z" transform="translate(-96.646 -399.166)" opacity="0.2"/>
    </g>
    <path id="Trazado_214599" data-name="Trazado 214599" d="M136.252,135.942c1.022,3.814,1.427,6.1,3.78,7.683,3.54,2.386,7.948-.352,8.086-4.395.124-3.638-1.568-9.264-5.661-10.032A5.385,5.385,0,0,0,136.252,135.942Z" transform="translate(-39.404 -9.976)" fill="#ffc3bd"/>
    <path id="Trazado_214600" data-name="Trazado 214600" d="M134.344,139.478c1.621.928,7.533-2.173,6.319-6.874,0,0,2.252-2.708,2-5.7s-2.306-4.128-4.488-3.486c-1.924.565-1.868,1.619-1.868,1.619s-9.091,1.071-7.151,4.766C125.454,133.84,132.321,138.32,134.344,139.478Z" transform="translate(-35.744 -7.294)" fill="#1a2e35"/>
    <path id="Trazado_214601" data-name="Trazado 214601" d="M128.282,134.956s-1.083-1.874-2.662-.825A4.049,4.049,0,0,1,128.282,134.956Z" transform="translate(-34.617 -12.137)" fill="#1a2e35"/>
    <path id="Trazado_214602" data-name="Trazado 214602" d="M153.534,128.638s1.982-4.473-1.107-5.913A7.648,7.648,0,0,1,153.534,128.638Z" transform="translate(-46.907 -7.054)" fill="#1a2e35"/>
    <path id="Trazado_214603" data-name="Trazado 214603" d="M148.339,140.437a4.46,4.46,0,0,0,1.605,2.374c1.035.771,1.809.012,1.735-1.159-.066-1.054-.685-2.726-1.827-3.039C148.728,138.305,148.043,139.292,148.339,140.437Z" transform="translate(-45.001 -14.312)" fill="#ffc3bd"/>
    <path id="Trazado_214604" data-name="Trazado 214604" d="M125.768,231.541s-4.515,30.4-6.994,41.794c-2.714,12.473-17.269,53.742-17.269,53.742l-7.121-1.542s10.177-33.63,12.455-51.068c1.75-13.395,5.2-42.925,5.2-42.925Z" transform="translate(-20.297 -56.941)" fill="#1b3f5e"/>
    <path id="Trazado_214605" data-name="Trazado 214605" d="M102.777,402.235c.031.007-1.327,2.576-1.327,2.576l-8.012-1.735.675-2.409Z" transform="translate(-19.863 -134.477)" fill="#d84318"/>
    <path id="Trazado_214606" data-name="Trazado 214606" d="M143.314,251.511c-5.221,1.024-4.668,20.492-4.04,30.505,1.506-7.078,3.71-20.7,5.215-30.365A1.784,1.784,0,0,0,143.314,251.511Z" transform="translate(-40.697 -66.078)" opacity="0.3"/>
    <path id="Trazado_214607" data-name="Trazado 214607" d="M154.434,231.541s.548,29.746.115,41.878c-.45,12.619-4.858,53.939-4.858,53.939h-6.74s-.247-40.582-.547-52.975c-.327-13.511-1.958-42.841-1.958-42.841Z" transform="translate(-41.414 -56.941)" fill="#1b3f5e"/>
    <path id="Trazado_214608" data-name="Trazado 214608" d="M223.091,192.817h-13.73l-.767,13.963,13.709.366Z" transform="translate(-72.657 -39.188)" fill="#1a2e35" opacity="0.4"/>
    <path id="Trazado_214609" data-name="Trazado 214609" d="M210.4,196.082l-13.75-1.7a119.206,119.206,0,0,0,2.479-14.043l13.831,1.7A119.308,119.308,0,0,1,210.4,196.082Z" transform="translate(-67.18 -33.469)" fill="#fff59d"/>
    <path id="Trazado_214610" data-name="Trazado 214610" d="M152.462,403.515c.031,0-.38,2.8-.38,2.8h-8.2l-.222-2.5Z" transform="translate(-42.889 -135.783)" fill="#d84318"/>
    <path id="Trazado_214611" data-name="Trazado 214611" d="M165.073,174.745c.611.953,1.309,2.023,2,3.011s1.418,1.993,2.166,2.952a40.5,40.5,0,0,0,4.74,5.29c.419.387.848.745,1.28,1.076l.325.245a1.056,1.056,0,0,0-.191-.066c-.141-.027-.21,0-.172.017a1.819,1.819,0,0,0,.891-.205,10.434,10.434,0,0,0,1.37-.711,47.476,47.476,0,0,0,5.72-4.433l2.324,1.877a27.617,27.617,0,0,1-5.208,6.353,12.817,12.817,0,0,1-1.861,1.37,7.271,7.271,0,0,1-2.732,1.014,4.805,4.805,0,0,1-2.071-.175,4.666,4.666,0,0,1-1.052-.486l-.47-.3q-.93-.6-1.77-1.266a39.249,39.249,0,0,1-5.832-5.855c-.849-1.05-1.672-2.111-2.434-3.214s-1.5-2.181-2.214-3.422Z" transform="translate(-50.327 -30.903)" fill="#ffc3bd"/>
    <g id="Grupo_142012" data-name="Grupo 142012" transform="translate(106.815 140.055)">
      <path id="Trazado_214612" data-name="Trazado 214612" d="M154.934,173.928c-1.272,5.334,8.379,10.557,8.379,10.557l6.268-7.344a52.066,52.066,0,0,0-6.4-7.732C158.792,165.2,155.9,169.867,154.934,173.928Z" transform="translate(-154.819 -167.752)" fill="#007cff"/>
      <path id="Trazado_214613" data-name="Trazado 214613" d="M154.934,173.928c-1.272,5.334,8.379,10.557,8.379,10.557l6.268-7.344a52.066,52.066,0,0,0-6.4-7.732C158.792,165.2,155.9,169.867,154.934,173.928Z" transform="translate(-154.819 -167.752)" fill="#d84318"/>
    </g>
    <path id="Trazado_214614" data-name="Trazado 214614" d="M201.784,186.025l1.479-4.751,3.894,1.94s-.568,3.466-3.4,4.068Z" transform="translate(-69.535 -33.896)" fill="#ffc3bd"/>
    <path id="Trazado_214615" data-name="Trazado 214615" d="M206.077,178.842l3.512.967-1.18,2.291-3.894-1.94Z" transform="translate(-70.787 -32.781)" fill="#ffc3bd"/>
  </g>
</svg>
