<svg xmlns="http://www.w3.org/2000/svg" xmlns:xlink="http://www.w3.org/1999/xlink" width="100" height="132.144" viewBox="0 0 100 132.144">
  <defs>
    <clipPath id="clip-path">
      <path id="Trazado_216948" data-name="Trazado 216948" d="M545.126,366.716,522.077,393.6l-.783,5.4s3.466,1.831,1.9,2.259-4.249-.321-4.36-1.216-.67-9.262.112-9.476,2.684-.548,2.684-.548l13.922-25.975Z" transform="translate(-518.537 -364.047)" fill="#de8075"/>
    </clipPath>
    <clipPath id="clip-path-2">
      <path id="Trazado_216951" data-name="Trazado 216951" d="M552.916,316.392s-9.331,5.167-9.527,14.351c-.689,32.108-18.542,41.733-18.542,41.733s6.137,6.089,9.611,5.716c0,0,34.964-25.122,25.31-56.912C557.531,313.917,552.916,316.392,552.916,316.392Z" transform="translate(-524.846 -315.992)" fill="#d84318"/>
    </clipPath>
    <clipPath id="clip-path-3">
      <path id="Trazado_216955" data-name="Trazado 216955" d="M590.611,351.741l17.072,31.444s7.819-1.079,7.657-.1c0,0-7.924,4.655-8.307,4s-1.454-3.1-1.454-3.1l-22.858-29Z" transform="translate(-582.721 -351.741)" fill="#de8075"/>
    </clipPath>
    <clipPath id="clip-path-4">
      <path id="Trazado_216959" data-name="Trazado 216959" d="M559.052,277.5v8.738l-6.292-2.8,1.748-8.389Z" transform="translate(-552.76 -275.052)" fill="#de8075"/>
    </clipPath>
  </defs>
  <g id="Grupo_143969" data-name="Grupo 143969" transform="translate(-515.874 -263.434)">
    <path id="Trazado_216944" data-name="Trazado 216944" d="M560.211,288.68l1.876,2.571,10.526,11s11.156,4.586,17.057,4.383l-.609,1.538s-13.3,1.03-18.457-2.671c0,0-11.529-7.512-15.732-15.246S560.211,288.68,560.211,288.68Z" transform="translate(-2.189 -1.323)" fill="#de8075"/>
    <g id="Grupo_143953" data-name="Grupo 143953" transform="translate(518.384 358.239)">
      <path id="Trazado_216945" data-name="Trazado 216945" d="M545.126,366.716,522.077,393.6l-.783,5.4s3.466,1.831,1.9,2.259-4.249-.321-4.36-1.216-.67-9.262.112-9.476,2.684-.548,2.684-.548l13.922-25.975Z" transform="translate(-518.537 -364.047)" fill="#de8075"/>
      <g id="Grupo_143952" data-name="Grupo 143952" transform="translate(0)" clip-path="url(#clip-path)">
        <path id="Trazado_216946" data-name="Trazado 216946" d="M521.86,396.819l.112-1.7s-1.342-.374-1.005-1.576,1.118-2.713-.559-3.181-3.69,4.156-3.69,4.156l.223,5.68,1.117,2.473,4.7,1.31,2.013-2.032Z" transform="translate(-518.432 -365.564)" fill="#0b2c54"/>
        <path id="Trazado_216947" data-name="Trazado 216947" d="M527.706,376.473c.267.473,2.15,6.578,5.478,7.506s-1.837-8.408-2.948-8.357A7.124,7.124,0,0,0,527.706,376.473Z" transform="translate(-519.067 -364.715)" fill="#de8075" opacity="0.28" style="mix-blend-mode: multiply;isolation: isolate"/>
      </g>
    </g>
    <g id="Grupo_143955" data-name="Grupo 143955" transform="translate(524.328 312.959)">
      <path id="Trazado_216949" data-name="Trazado 216949" d="M552.916,316.392s-9.331,5.167-9.527,14.351c-.689,32.108-18.542,41.733-18.542,41.733s6.137,6.089,9.611,5.716c0,0,34.964-25.122,25.31-56.912C557.531,313.917,552.916,316.392,552.916,316.392Z" transform="translate(-524.846 -315.992)" fill="#d84318"/>
      <g id="Grupo_143954" data-name="Grupo 143954" transform="translate(0)" clip-path="url(#clip-path-2)">
        <path id="Trazado_216950" data-name="Trazado 216950" d="M550.326,334.162s-1.492,5.3,9.279,15.409,10.771-10.6,10.771-10.6S555.3,326.87,550.326,334.162Z" transform="translate(-526.313 -316.906)" fill="#b58684" opacity="0.53" style="mix-blend-mode: multiply;isolation: isolate"/>
      </g>
    </g>
    <g id="Grupo_143957" data-name="Grupo 143957" transform="translate(578.862 346.644)">
      <path id="Trazado_216952" data-name="Trazado 216952" d="M590.611,351.741l17.072,31.444s7.819-1.079,7.657-.1c0,0-7.924,4.655-8.307,4s-1.454-3.1-1.454-3.1l-22.858-29Z" transform="translate(-582.721 -351.741)" fill="#de8075"/>
      <g id="Grupo_143956" data-name="Grupo 143956" transform="translate(0)" clip-path="url(#clip-path-3)">
        <path id="Trazado_216953" data-name="Trazado 216953" d="M606.57,386.42s.9-.969,1.558-.476S609.191,384,609.191,384l8.831-1.233-.541,4.71-11.452,3.652Z" transform="translate(-584.066 -353.532)" fill="#0b2c54"/>
        <path id="Trazado_216954" data-name="Trazado 216954" d="M596.081,373.6s6.235-.421,6.5-3.415-6.767-.482-6.767-.482l-1.047,3.046Z" transform="translate(-583.417 -352.721)" fill="#de8075" opacity="0.28" style="mix-blend-mode: multiply;isolation: isolate"/>
      </g>
    </g>
    <path id="Trazado_216956" data-name="Trazado 216956" d="M546.628,324.642s-1.732,10.614,6.628,14.416c29.227,13.294,35.372,32.34,35.372,32.34s8.014-3.237,9.041-6.576c0,0-9.294-42.027-42.307-45.693C547.715,318.28,546.628,324.642,546.628,324.642Z" transform="translate(-1.767 -3.21)" fill="#d84318"/>
    <g id="Grupo_143959" data-name="Grupo 143959" transform="translate(550.631 274.381)">
      <path id="Trazado_216957" data-name="Trazado 216957" d="M559.052,277.5v8.738l-6.292-2.8,1.748-8.389Z" transform="translate(-552.76 -275.052)" fill="#de8075"/>
      <g id="Grupo_143958" data-name="Grupo 143958" transform="translate(0)" clip-path="url(#clip-path-4)">
        <path id="Trazado_216958" data-name="Trazado 216958" d="M556.1,277.649s1.4,4.544,4.893,3.844-1.748-3.844-1.748-3.844Z" transform="translate(-552.953 -275.202)" fill="#f9a7a9" opacity="0.23" style="mix-blend-mode: multiply;isolation: isolate"/>
      </g>
    </g>
    <g id="Grupo_143960" data-name="Grupo 143960" transform="translate(546.444 281.993)">
      <path id="Trazado_216960" data-name="Trazado 216960" d="M558.8,286.618s3.146,5.825,5.243,7.923.7,8.739-1.048,11.185-1.748,11.885-1.748,11.885h0a3.459,3.459,0,0,1-2.21,1.461,3.4,3.4,0,0,0-.92.323c-.889.459-1.919-.2-2.933-1a6.914,6.914,0,0,0-4.424-1.479h0s.7-11.186-1.4-16.079-1.019-15.605,3.175-17.7Z" transform="translate(-548.317 -283.13)" fill="#fff59d"/>
    </g>
    <path id="Trazado_216961" data-name="Trazado 216961" d="M558.595,264.664s6.991,9.088,3.5,13.282-11.186-4.544-11.186-4.544S552.3,264.315,558.595,264.664Z" transform="translate(-2.022 -0.07)" fill="#de8075"/>
    <path id="Trazado_216962" data-name="Trazado 216962" d="M550.214,295.994l-2.836,1.445-12.529,8.652s-6.3,10.289-7.029,16.147l-1.422-.844s1.089-13.3,5.56-17.8c0,0,9.244-10.193,17.544-13.119S550.214,295.994,550.214,295.994Z" transform="translate(-0.607 -1.525)" fill="#de8075"/>
    <path id="Trazado_216963" data-name="Trazado 216963" d="M559.1,263.556c-1.51-.56-3.094.977-3.094.977-5.663-3.245-9.6,2.734-8.7,6.5s.835,5.461-4.941,5.607-5.014,2.718-4.308,6.985-5.713,2.4-6.573,7.8,10.612,17.263,19.962,7.294c3.971-4.233,5.18-15.714,2.976-22.379-.214-.646-1.226-2.848-.791-3.3,2.1-2.191.58-5.2.758-5.677a1.577,1.577,0,0,1,2.069-.949c1.565-1.136,3.31,1.778,3.31,1.778S560.61,264.116,559.1,263.556Z" transform="translate(-0.898 0)"/>
    <path id="Trazado_216964" data-name="Trazado 216964" d="M555.84,272.8c.407.767.323,1.609-.188,1.882s-1.256-.13-1.664-.9-.323-1.609.188-1.881S555.432,272.033,555.84,272.8Z" transform="translate(-2.185 -0.484)" fill="#de8075"/>
    <g id="Grupo_143963" data-name="Grupo 143963" transform="translate(515.874 320.935)">
      <g id="Grupo_143961" data-name="Grupo 143961" transform="translate(6.652)">
        <path id="Trazado_216965" data-name="Trazado 216965" d="M523.046,333.4a.119.119,0,0,1-.112-.132,26.866,26.866,0,0,1,.2-3.02,9.748,9.748,0,0,1,1.615-4.883,2.257,2.257,0,0,1,1.89-.909,3.092,3.092,0,0,1,2.5,1.314c1.269,1.764,1.25,5.023,1.052,8.009a.124.124,0,0,1-.12.128h0a.125.125,0,0,1-.1-.142c.2-2.93.218-6.121-1-7.812a2.865,2.865,0,0,0-2.343-1.226,2.06,2.06,0,0,0-1.723.83c-1.64,1.973-1.739,6.84-1.743,7.7a.13.13,0,0,1-.108.139Z" transform="translate(-522.934 -324.457)" fill="#2b2b2b"/>
      </g>
      <path id="Trazado_216966" data-name="Trazado 216966" d="M533.841,356.009a17.463,17.463,0,0,0,2.572.7l.778,1.748-2.813.495Z" transform="translate(-516.911 -326.279)" fill="#fa3174"/>
      <path id="Trazado_216967" data-name="Trazado 216967" d="M536.512,332.525l.8-1.179-.09,25.686-1.5-.966-1.312,1.461Z" transform="translate(-516.944 -324.855)" fill="#1b3f5e"/>
      <path id="Trazado_216968" data-name="Trazado 216968" d="M518.134,329.689l18.111,1.561-2.9,26.18-17.468-1.387Z" transform="translate(-515.874 -324.759)" fill="#1b3f5e"/>
      <path id="Trazado_216969" data-name="Trazado 216969" d="M523.1,334.19c-.146.025-.281-.135-.3-.357s.08-.423.225-.448.281.134.3.356S523.246,334.163,523.1,334.19Z" transform="translate(-516.274 -324.973)" fill="#1b3f5e"/>
      <path id="Trazado_216970" data-name="Trazado 216970" d="M530.475,334.872c-.146,0-.261-.182-.256-.406s.128-.407.274-.408.261.182.256.407S530.621,334.872,530.475,334.872Z" transform="translate(-516.702 -325.012)" fill="#1b3f5e"/>
      <g id="Grupo_143962" data-name="Grupo 143962" transform="translate(6.652)">
        <path id="Trazado_216971" data-name="Trazado 216971" d="M523.046,333.4a.119.119,0,0,1-.112-.132,26.866,26.866,0,0,1,.2-3.02,9.748,9.748,0,0,1,1.615-4.883,2.257,2.257,0,0,1,1.89-.909,3.092,3.092,0,0,1,2.5,1.314c1.269,1.764,1.25,5.023,1.052,8.009a.124.124,0,0,1-.12.128h0a.125.125,0,0,1-.1-.142c.2-2.93.218-6.121-1-7.812a2.865,2.865,0,0,0-2.343-1.226,2.06,2.06,0,0,0-1.723.83c-1.64,1.973-1.739,6.84-1.743,7.7a.13.13,0,0,1-.108.139Z" transform="translate(-522.934 -324.457)" fill="#2b2b2b"/>
      </g>
    </g>
    <g id="Grupo_143964" data-name="Grupo 143964" transform="translate(518.422 321.349)">
      <path id="Trazado_216972" data-name="Trazado 216972" d="M524.364,333.289a.119.119,0,0,1-.142-.091,19.009,19.009,0,0,1-.331-2.624,7.342,7.342,0,0,1,.838-4.487,2.6,2.6,0,0,1,1.836-1.138,3.7,3.7,0,0,1,2.874.653c1.656,1.271,2.218,4.066,2.54,6.662a.118.118,0,0,1-.1.132h0a.118.118,0,0,1-.132-.1c-.316-2.547-.861-5.284-2.449-6.5a3.423,3.423,0,0,0-2.7-.606,2.368,2.368,0,0,0-1.675,1.037c-1.381,2-.619,6.187-.469,6.93a.118.118,0,0,1-.09.139Z" transform="translate(-518.883 -324.897)" fill="#f7b978"/>
      <path id="Trazado_216973" data-name="Trazado 216973" d="M539.736,350.653a22.644,22.644,0,0,0,2.845.111l1.134,1.35-2.886.955Z" transform="translate(-519.799 -326.384)" fill="#f7b978"/>
      <path id="Trazado_216974" data-name="Trazado 216974" d="M538.522,330l.639-1.162,4.484,22.018-1.76-.543-1.127,1.5Z" transform="translate(-519.729 -325.125)" fill="#1b3f5e"/>
      <path id="Trazado_216975" data-name="Trazado 216975" d="M518.578,330.929l19.432-2.092,1.6,22.974-18.721,2.12Z" transform="translate(-518.578 -325.125)" fill="#fff59d"/>
      <path id="Trazado_216976" data-name="Trazado 216976" d="M524.491,333.994a.365.365,0,1,1,.158-.427A.326.326,0,0,1,524.491,333.994Z" transform="translate(-518.896 -325.383)" fill="#f7b978"/>
      <path id="Trazado_216977" data-name="Trazado 216977" d="M532.412,333.183a.365.365,0,1,1,.218-.4A.327.327,0,0,1,532.412,333.183Z" transform="translate(-519.356 -325.335)" fill="#f7b978"/>
      <path id="Trazado_216978" data-name="Trazado 216978" d="M524.364,333.289a.119.119,0,0,1-.142-.091,19.009,19.009,0,0,1-.331-2.624,7.342,7.342,0,0,1,.838-4.487,2.6,2.6,0,0,1,1.836-1.138,3.7,3.7,0,0,1,2.874.653c1.656,1.271,2.218,4.066,2.54,6.662a.118.118,0,0,1-.1.132h0a.118.118,0,0,1-.132-.1c-.316-2.547-.861-5.284-2.449-6.5a3.423,3.423,0,0,0-2.7-.606,2.368,2.368,0,0,0-1.675,1.037c-1.381,2-.619,6.187-.469,6.93a.118.118,0,0,1-.09.139Z" transform="translate(-518.883 -324.897)" fill="#f7b978"/>
    </g>
    <g id="Grupo_143967" data-name="Grupo 143967" transform="translate(583.719 302.852)">
      <g id="Grupo_143965" data-name="Grupo 143965" transform="translate(1.697 1.402)">
        <path id="Trazado_216979" data-name="Trazado 216979" d="M594.01,316.532a.12.12,0,0,1-.172-.017,26.847,26.847,0,0,1-1.945-2.318,9.743,9.743,0,0,1-2.209-4.645,2.256,2.256,0,0,1,.737-1.965,3.09,3.09,0,0,1,2.711-.775c2.137.4,4.377,2.765,6.3,5.06a.125.125,0,0,1,0,.175h0a.124.124,0,0,1-.171-.033c-1.885-2.252-4.075-4.574-6.123-4.955a2.867,2.867,0,0,0-2.539.734,2.061,2.061,0,0,0-.672,1.792c.179,2.558,3.472,6.144,4.067,6.772a.129.129,0,0,1,.017.174Z" transform="translate(-589.676 -306.754)" fill="#2b2b2b"/>
      </g>
      <path id="Trazado_216980" data-name="Trazado 216980" d="M617.32,325.533a17.438,17.438,0,0,0,2.341-1.274l1.771.726-1.69,2.3Z" transform="translate(-589.575 -306.363)" fill="#fa3174"/>
      <path id="Trazado_216981" data-name="Trazado 216981" d="M603.143,306.674l-.235-1.407L620.6,323.888l-1.752.339.062,1.962Z" transform="translate(-588.743 -305.266)" fill="#d84318"/>
      <path id="Trazado_216982" data-name="Trazado 216982" d="M587.875,316.658l14.165-11.392,16,20.924-13.58,11.074Z" transform="translate(-587.875 -305.266)" fill="#d84318"/>
      <path id="Trazado_216983" data-name="Trazado 216983" d="M594.483,317.255c-.088.12-.3.1-.465-.049s-.235-.361-.147-.481.295-.1.464.05S594.57,317.136,594.483,317.255Z" transform="translate(-588.219 -305.923)" fill="#1b3f5e"/>
      <path id="Trazado_216984" data-name="Trazado 216984" d="M600.284,312.651c-.106.1-.314.049-.465-.117s-.189-.383-.084-.484.314-.049.466.117S600.389,312.549,600.284,312.651Z" transform="translate(-588.556 -305.655)" fill="#1b3f5e"/>
      <g id="Grupo_143966" data-name="Grupo 143966" transform="translate(1.697 1.402)">
        <path id="Trazado_216985" data-name="Trazado 216985" d="M594.01,316.532a.12.12,0,0,1-.172-.017,26.847,26.847,0,0,1-1.945-2.318,9.743,9.743,0,0,1-2.209-4.645,2.256,2.256,0,0,1,.737-1.965,3.09,3.09,0,0,1,2.711-.775c2.137.4,4.377,2.765,6.3,5.06a.125.125,0,0,1,0,.175h0a.124.124,0,0,1-.171-.033c-1.885-2.252-4.075-4.574-6.123-4.955a2.867,2.867,0,0,0-2.539.734,2.061,2.061,0,0,0-.672,1.792c.179,2.558,3.472,6.144,4.067,6.772a.129.129,0,0,1,.017.174Z" transform="translate(-589.676 -306.754)" fill="#2b2b2b"/>
      </g>
    </g>
    <g id="Grupo_143968" data-name="Grupo 143968" transform="translate(584.818 300.031)">
      <path id="Trazado_216986" data-name="Trazado 216986" d="M594.851,315.54a.118.118,0,0,1-.166.032,18.843,18.843,0,0,1-2.052-1.668,7.34,7.34,0,0,1-2.5-3.821,2.6,2.6,0,0,1,.541-2.092,3.7,3.7,0,0,1,2.528-1.515c2.076-.227,4.414,1.4,6.44,3.058a.118.118,0,0,1,.017.167h0a.118.118,0,0,1-.167.017c-1.988-1.622-4.276-3.223-6.265-3.006a3.428,3.428,0,0,0-2.367,1.427,2.366,2.366,0,0,0-.493,1.907c.384,2.4,3.83,4.9,4.451,5.331a.118.118,0,0,1,.03.163Z" transform="translate(-589.102 -302.514)" fill="#f7b978"/>
      <path id="Trazado_216987" data-name="Trazado 216987" d="M617.877,317.55a22.639,22.639,0,0,0,2.132-1.886l1.753.191-1.425,2.686Z" transform="translate(-590.706 -303.046)" fill="#4db2ba"/>
      <path id="Trazado_216988" data-name="Trazado 216988" d="M602.749,303.554l-.342-1.281,18.462,12.809-1.647.824.222,1.862Z" transform="translate(-589.813 -302.273)" fill="#1b3f5e"/>
      <path id="Trazado_216989" data-name="Trazado 216989" d="M589.041,317.218l12.595-14.945,17.037,15.5-12.062,14.473Z" transform="translate(-589.041 -302.273)" fill="#f0f8ff"/>
      <path id="Trazado_216990" data-name="Trazado 216990" d="M595.351,316.152a.365.365,0,1,1-.181-.418A.326.326,0,0,1,595.351,316.152Z" transform="translate(-589.368 -303.047)" fill="#f7b978"/>
      <path id="Trazado_216991" data-name="Trazado 216991" d="M600.514,310.09a.364.364,0,1,1-.12-.439A.326.326,0,0,1,600.514,310.09Z" transform="translate(-589.668 -302.694)" fill="#f7b978"/>
      <path id="Trazado_216992" data-name="Trazado 216992" d="M594.851,315.54a.118.118,0,0,1-.166.032,18.843,18.843,0,0,1-2.052-1.668,7.34,7.34,0,0,1-2.5-3.821,2.6,2.6,0,0,1,.541-2.092,3.7,3.7,0,0,1,2.528-1.515c2.076-.227,4.414,1.4,6.44,3.058a.118.118,0,0,1,.017.167h0a.118.118,0,0,1-.167.017c-1.988-1.622-4.276-3.223-6.265-3.006a3.428,3.428,0,0,0-2.367,1.427,2.366,2.366,0,0,0-.493,1.907c.384,2.4,3.83,4.9,4.451,5.331a.118.118,0,0,1,.03.163Z" transform="translate(-589.102 -302.514)" fill="#f7b978"/>
    </g>
    <path id="Trazado_216993" data-name="Trazado 216993" d="M526.343,323.4s-1.925,1.492-.8,2.154a3.689,3.689,0,0,0,2.786,0l-.557-1.565S526.674,323.066,526.343,323.4Z" transform="translate(-0.538 -3.457)" fill="#de8075"/>
    <path id="Trazado_216994" data-name="Trazado 216994" d="M590.7,309.672c.165,0,0,.5.662-.5a3.616,3.616,0,0,0,.662-1.822s-1.325-1.326-1.988-.5-.951,1.4-.31,1.86A4.188,4.188,0,0,1,590.7,309.672Z" transform="translate(-4.242 -2.491)" fill="#de8075"/>
  </g>
</svg>
