<svg xmlns="http://www.w3.org/2000/svg" width="714.503" height="329.767" viewBox="0 0 714.503 329.767">
  <g id="Grupo_144997" data-name="Grupo 144997" transform="translate(-129.75 -224.903)">
    <g id="Grupo_144509" data-name="Grupo 144509" transform="translate(134.946 331.535)">
      <path id="Trazado_217514" data-name="Trazado 217514" d="M282.338,359.991H184.077l-49.131,85.1,49.131,85.1h98.261l49.131-85.1Z" transform="translate(-134.946 -359.991)" fill="#fff59d" stroke="#1b3f5e" stroke-miterlimit="10" stroke-width="9"/>
      <g id="Grupo_144508" data-name="Grupo 144508" transform="translate(25.484 55.043)">
        <text id="ABASTECIMIENTO" transform="translate(63.036 13)" font-size="14" font-family="Roboto-Bold, Roboto" font-weight="700"><tspan x="-59.1" y="0">ABASTECIMIENTO</tspan></text>
        <text id="Proveedores_Materias_Primas_e_Insumos_y_Bienes" data-name="Proveedores Materias Primas e Insumos y Bienes" transform="translate(0 26.522)" font-size="17" font-family="Roboto-Regular, Roboto"><tspan x="25.442" y="16">Proveedores </tspan><tspan x="4.038" y="36.4">Materias Primas e </tspan></text>
      </g>
    </g>
    <g id="Grupo_144511" data-name="Grupo 144511" transform="translate(304.142 229.403)">
      <path id="Trazado_217515" data-name="Trazado 217515" d="M498.675,229.4H400.413l-49.131,85.1,49.131,85.1h98.261l49.131-85.1Z" transform="translate(-351.283 -229.403)" fill="#1b3f5e" stroke="#fff59d" stroke-miterlimit="10" stroke-width="9"/>
      <g id="Grupo_144510" data-name="Grupo 144510" transform="translate(25.484 54.261)">
        <text id="TRANSFORMACIÓN" transform="translate(62.343 13)" fill="#fff" font-size="14" font-family="Roboto-Bold, Roboto" font-weight="700"><tspan x="-63.116" y="0">TRANSFORMACIÓN</tspan></text>
        <text id="Etapas_de_proceso_interno_para_fabricar_y_distribuir_internamente" data-name="Etapas de proceso interno para fabricar y distribuir internamente" transform="translate(0 26.522)" fill="#fff" font-size="17" font-family="Roboto-Regular, Roboto"><tspan x="2.673" y="16">Etapas de proceso </tspan><tspan x="27.5" y="36.4">interno para </tspan></text>
      </g>
    </g>
    <path id="Trazado_217516" data-name="Trazado 217516" d="M931.347,229.611H833.086l-49.131,85.1,49.131,85.1h98.261l49.131-85.1Z" transform="translate(-141.421 -0.045)" fill="#fff59d" stroke="#1b3f5e" stroke-miterlimit="10" stroke-width="9"/>
    <g id="Grupo_144512" data-name="Grupo 144512" transform="translate(668.019 254.889)">
      <text id="GESTION_DE_ENTREGA" data-name="GESTION 
DE ENTREGA" transform="translate(65.37 13)" font-size="14" font-family="Roboto-Bold, Roboto" font-weight="700"><tspan x="-30.898" y="0">GESTION </tspan><tspan x="-41.224" y="17">DE ENTREGA</tspan></text>
      <text id="Esta_comuesta_por_la_entrega_del_bien_por_propios_medios_o_combenios_empresas_de_transporte" data-name="Esta comuesta por la entrega del bien por propios medios o combenios empresas de transporte" transform="translate(0 42.164)" font-size="17" font-family="Roboto-Regular, Roboto"><tspan x="1.743" y="16">Esta comuesta por </tspan><tspan x="3.731" y="36.4">la entrega del bien </tspan><tspan x="29.708" y="56.8">por propios </tspan><tspan x="37.785" y="77.2">medios o </tspan></text>
    </g>
    <g id="Grupo_144514" data-name="Grupo 144514" transform="translate(473.338 331.535)">
      <path id="Trazado_217517" data-name="Trazado 217517" d="M715.011,359.991H616.75l-49.131,85.1,49.131,85.1h98.261l49.131-85.1Z" transform="translate(-567.619 -359.991)" fill="#1b3f5e" stroke="#fff59d" stroke-miterlimit="10" stroke-width="9"/>
      <g id="Grupo_144513" data-name="Grupo 144513" transform="translate(25.484 34.708)">
        <text id="GESTION_E_INVENTARIO" data-name="GESTION 
E INVENTARIO" transform="translate(64.896 13)" fill="#fff" font-size="14" font-family="Roboto-Bold, Roboto" font-weight="700"><tspan x="-30.898" y="0">GESTION </tspan><tspan x="-45.992" y="17">E INVENTARIO</tspan></text>
        <text id="Almacenamiento_y_gestion_de_logistica_interna" data-name="Almacenamiento y gestion de logistica interna" transform="translate(0 49.985)" fill="#fff" font-size="17" font-family="Roboto-Regular, Roboto"><tspan x="2.457" y="16">Almacenamiento y </tspan><tspan x="33.344" y="36.4">gestion de </tspan></text>
      </g>
    </g>
    <text id="ESLABON_EXTERNO" data-name="ESLABON EXTERNO" transform="translate(223.721 550.67)" fill="#1b3f5e" font-size="16" font-family="Roboto-Bold, Roboto" font-weight="700"><tspan x="-72.785" y="0">ESLABON EXTERNO</tspan></text>
    <text id="ESLABON_EXTERNO-2" data-name="ESLABON EXTERNO" transform="translate(731.309 550.67)" fill="#1b3f5e" font-size="16" font-family="Roboto-Bold, Roboto" font-weight="700"><tspan x="-72.785" y="0">ESLABON EXTERNO</tspan></text>
    <text id="ESLABON_INTERNO" data-name="ESLABON INTERNO" transform="translate(477.862 550.67)" fill="#1b3f5e" font-size="16" font-family="Roboto-Bold, Roboto" font-weight="700"><tspan x="-71.07" y="0">ESLABON INTERNO</tspan></text>
  </g>
</svg>
