<svg xmlns="http://www.w3.org/2000/svg" width="122.767" height="122.767" viewBox="0 0 122.767 122.767">
  <g id="Grupo_144503" data-name="Grupo 144503" transform="translate(6 6)">
    <ellipse id="Elipse_5579" data-name="Elipse 5579" cx="55.384" cy="55.384" rx="55.384" ry="55.384" transform="translate(0 0)" fill="#1b3f5e" stroke="#fff59d" stroke-miterlimit="10" stroke-width="12"/>
    <g id="Grupo_144502" data-name="Grupo 144502" transform="translate(29.531 26.049)">
      <path id="Trazado_217511" data-name="Trazado 217511" d="M575,399.777a.119.119,0,0,0-.04.078l-.125.172,0-.01c-.42.625-.151,1.317-.173,1.977-.008.24.235.109.364.046.866-.424,1.715-.861,1.832-1.987a4.252,4.252,0,0,1,.209-.73.127.127,0,0,0,.014-.09l.138-.151a1.282,1.282,0,0,1,.677-.1c.2.227.436.441.318.8-.035.1-.112.252-.008.314.159.094.273-.057.382-.16l.27-.138,0,0c.363-.208.851-.271,1-.734.581-1.759,1.144-3.525,1.713-5.288l-.008.009.141-.245a.7.7,0,0,1,1.074.25c.012.067.025.134.037.2l-.047.266-1.334,3.924.127.087c.554-.445,1.413-.47,1.684-1.3q.7-2.123,1.381-4.25v0l.224-.235c.819-.13,1,.126.83,1.161a20.515,20.515,0,0,0-.925,2.774c.443-.249.771-.417,1.082-.612.241-.15.543-.227.644-.555.287-.93.587-1.858.882-2.786.016-.105.032-.21.049-.315a.367.367,0,0,0,.289-.137c.733.006.845.1.93.8a6.875,6.875,0,0,0-.567,1.605,2.626,2.626,0,0,0,2.141-2.4l.083-.228.258-.247a.181.181,0,0,0,.1-.014c.669.081.779.221.779,1.045l1.585-.91c.1-.06.219-.139.17-.271a4.43,4.43,0,0,1,.179-2.68l-.006,0,.158-.12.076-.112.144-.245a3.759,3.759,0,0,1,2.433-1.28,3.463,3.463,0,0,1,3.412,2.021,3.394,3.394,0,0,1-.859,3.964c-.129.119-.264.231-.4.347a3.474,3.474,0,0,1-4.313-.526.263.263,0,0,0-.363-.062,14.005,14.005,0,0,0-1.622,1.011c.5.126.736.4.7.857l-.084.154a1.011,1.011,0,0,1-1.205.118c-1.116-.466-1.875.2-2.795.782.5.107.888.2,1.283.275.368.068.742.109.962.472q.017.2.034.392c-.02.068-.04.135-.06.2l-.34.238a8.071,8.071,0,0,1-2.3-.442c-1.137-.389-1.946.118-2.839.778,1.032.216,1.988.422,2.947.614a1.131,1.131,0,0,1,.787.459.766.766,0,0,1-.478.829c-1.265-.254-2.559-.413-3.786-.788a2.831,2.831,0,0,0-2.671.719c.122.2.315.172.478.207,1.128.239,2.256.48,3.387.7.525.1.815.358.708.928a.064.064,0,0,0,0,.067l-.125.171,0-.013a1.48,1.48,0,0,1-.857.042c-1.506-.329-3.039-.556-4.521-.97-1.061-.3-1.637.367-2.547.848.563.109.9.245.989.678l-.018.239a.231.231,0,0,0-.015.116l.013-.007-.139.125-.336.215c-.228.062-.41-.1-.62-.126-.553-.067-1.1-.414-1.647-.219a9.3,9.3,0,0,0-1.376.773c-.207.118-.247.2-.018.363a2.774,2.774,0,0,0,3.071.507l.6-.074c.614.5.64.789.052,1.23-.265.2-.237.339,0,.478a2.4,2.4,0,0,0,2,.486c1.486-.406,3.017-.645,4.527-.966.346-.074.662-.109.9.218.257.357.013.621-.176.894l-4.425.914a2.625,2.625,0,0,0,3.007.71c.991-.2,1.983-.4,2.973-.612.336-.071.665-.128.908.191s.1.623-.1.906l-3.567.743c.478.279.838.471,1.178.693a1,1,0,0,0,1.1.123q1.171-.223,2.344-.444c.333-.062.663-.1.893.234.245.357.024.619-.177.887l-2.042.412a5.076,5.076,0,0,0,1.329.678l0-.014.127.122c.211.227.476.147.72.109.309-.048.61-.149.919-.2.4-.063.829-.114,1,.371s-.2.689-.676.888c.608.355,1.146.693,1.708.985.254.132.363-.18.515-.3A3.362,3.362,0,0,1,599,414a3.4,3.4,0,0,1,.474,3.887c-.113.207-.235.408-.352.613a.978.978,0,0,0-.353.383v0a1.653,1.653,0,0,0-.68.473.233.233,0,0,0-.256.127v0a5.513,5.513,0,0,1-1.856.195,3.423,3.423,0,0,1-2.849-4.148c.03-.164.154-.354-.057-.478a12.552,12.552,0,0,0-1.685-.933c.061.637-.081.936-.453.989-.484.069-.651-.257-.763-.643a2.8,2.8,0,0,1-.145-.448c-.131-1.156-1.14-1.327-1.925-1.766a8.553,8.553,0,0,0,.372,1.315.987.987,0,0,1,0,.955l-.3.157a.73.73,0,0,1-.813-.607,12.737,12.737,0,0,1-.569-1.794c-.181-1.168-1.075-1.528-2.076-2.023l1.014,2.99c.023.193.047.387.07.58l-.268.352-.19.046c-.478.021-.691-.249-.825-.675-.34-1.086-.8-2.143-1.042-3.249-.25-1.121-1.082-1.47-2.05-1.925.143.448.251.8.365,1.145.312.951.631,1.9.936,2.852a.641.641,0,0,1-.154.757.593.593,0,0,1-.665.069.835.835,0,0,1-.373-.574c-.492-1.49-1.054-2.963-1.458-4.477-.277-1.039-1.128-1.207-1.927-1.7a2.791,2.791,0,0,0,.05.35.594.594,0,0,1-.384.85c-.425.134-.659-.137-.785-.513-.118-.353-.219-.713-.345-1.064-.1-.269-.121-.579-.422-.744-.43-.235-.852-.487-1.274-.736-.215-.127-.347-.164-.36.174-.041,1.03-.09,2.054.905,2.741a1.39,1.39,0,0,1,.238.26c.415.488.39.738-.111,1.179-.454.162-.629-.241-.9-.443-.05-.044-.094-.061-.108.029a5.448,5.448,0,0,0-.012.749c.045.4-.16.853.209,1.2.024.17.16.265.263.38q1.606,1.8,3.215,3.592c.473.531.424.834-.175,1.218-.466.083-.651-.3-.89-.562-.838-.919-1.658-1.854-2.484-2.784l-.135.056c.086.671-.278,1.408.214,2.006.745.906,1.569,1.746,2.359,2.614.148.181.289.368.446.544.462.518.446.748-.1,1.206-.387.082-.616-.152-.844-.409-.651-.735-1.31-1.465-2.087-2.332,0,.558-.008.924,0,1.288.009.305-.078.631.178.891.617.626,1.127,1.353,1.8,1.924.333.38.526.775.125,1.231a.917.917,0,0,1-1.072-.376,4.285,4.285,0,0,0-.97-.994c-.181,1.132-.171,2.132.866,2.8a.378.378,0,0,0,.228.256l.122.139a.838.838,0,0,1-.354.906c-.327.074-.583-.109-.912-.327,0,.644,0,1.2,0,1.75,0,.156,0,.319.2.363a3.582,3.582,0,0,1,2.445,2.342,3.4,3.4,0,0,1-1.39,3.92l-.119.108,0-.011a3.554,3.554,0,0,1-3.525-.063c-1.54-.95-2-2.573-1.285-4.514l-.016,0,.164-.241.774-.957.237-.12c.345-.13.688-.262,1.032-.389.135-.05.249-.107.249-.278,0-.608,0-1.216,0-1.87-.906.513-1.264.307-1.27-.633l-.01.006.148-.122.091-.1a2.649,2.649,0,0,0,.971-3.031c-.4.44-.744.836-1.106,1.221-.184.2-.362.43-.691.354-.257-.251-.564-.48-.419-.915l1.01-1.167a2.844,2.844,0,0,0,1.177-3.275,16.04,16.04,0,0,0-1.432,1.706l.013.011-.167.12-.882.813c-.681-.127-.757-.237-.708-1.039l-.008,0,.123-.123-.006.006.124-.124v.007a5.333,5.333,0,0,0,1.06-1.133l.121-.172-.007.008.151-.122.088-.107c.079-.064.15-.132.123-.249l-.006.007c.108.024.16-.04.2-.124a.252.252,0,0,0,.039-.1,2.681,2.681,0,0,0,1.172-3.226l-1.535,1.787-1.535,1.6a.635.635,0,0,1-.77-.375.667.667,0,0,1,.232-.782,3.52,3.52,0,0,0,.249-.323.064.064,0,0,0,.057-.064l.164-.174.077-.083a.266.266,0,0,0,.12-.272l-.006.006c.085,0,.126-.038.123-.123v.006c.16,0,.224-.1.24-.24l0,0,.16-.115a14.531,14.531,0,0,0,1.488-1.653,2.621,2.621,0,0,0,.97-3c-.318.215-.551.637-1.018.381-.338-.186-.343-.493-.293-.819l.12-.171a2.868,2.868,0,0,0,1.271-2.978c-.029-.148.086-.394-.225-.365a3.054,3.054,0,0,0-1.814,1.627c-.308.488-.212,1.184-.784,1.537-.728-.093-.774-.164-.759-1.155-1.133.373-1.592.764-1.768,1.506a5.317,5.317,0,0,0-.4,1.182l-.144.472a.344.344,0,0,0-.035.111l-.089.33-.174.5c-.233.665-.475,1.326-.7,1.994a.865.865,0,0,1-.544.642c-.5-.027-.78-.254-.681-.79a4.341,4.341,0,0,1,.171-.562q.564-1.723,1.131-3.445c-.859.377-1.739.6-1.985,1.7-.264,1.182-.738,2.316-1.1,3.477a1.521,1.521,0,0,1-.345.535l-.137.034c-.715-.1-.885-.345-.67-1.023.3-.946.62-1.885.969-2.94-.995.491-1.9.826-2.064,2.012a10.829,10.829,0,0,1-.556,1.794.964.964,0,0,1-.5.614c-.711-.087-.882-.345-.671-1.018a7.969,7.969,0,0,0,.425-1.5,10.207,10.207,0,0,1-.9.5,1.621,1.621,0,0,0-1.016,1.254,2.169,2.169,0,0,1-.5,1.175l-.03.017c-.765,0-.885-.123-.913-1.015-.508.293-.993.584-1.491.853a.4.4,0,0,0-.2.541,3.5,3.5,0,0,1,.044,1.515l-.284.836a4.282,4.282,0,0,1-1.3,1.386l-.123.146,0-.007c-.188.048-.378.085-.562.145a3.41,3.41,0,0,1-4.5-3.613c.045-.476.305-.885.356-1.353h-.008l.156-.122a3.517,3.517,0,0,1,4.91-.945c.231.184.382.632.709.5a17.469,17.469,0,0,0,1.8-1.007c-.6-.135-.88-.385-.73-.866s.544-.431.929-.35a1.837,1.837,0,0,1,.343.078c1.092.469,1.834-.214,2.715-.786-.611-.134-1.126-.247-1.641-.361-.425-.095-.692-.335-.568-.791.118-.433.48-.468.858-.391a11.342,11.342,0,0,1,1.834.4c1.117.433,1.909-.123,2.818-.77-1.062-.221-2.03-.432-3-.623-.523-.1-.823-.35-.72-.926a1.232,1.232,0,0,1,.565-.369c1.248.26,2.526.424,3.736.806,1.12.354,1.839-.2,2.737-.8-1.375-.29-2.636-.567-3.9-.815a1.032,1.032,0,0,1-.917-.705l-.01,0,.117-.245a.949.949,0,0,1,1-.278c1.308.237,2.587.621,3.913.756,1.181.651,2.125.159,3.1-.646-.651-.089-1.011-.366-.924-1.008l0,.012.462-.321.37-.013a4.893,4.893,0,0,0,1.277.308l.116.017c.441.172.736-.131,1.063-.328.259-.135.518-.273.78-.4s.29-.238.017-.431a2.852,2.852,0,0,0-2.933-.548,2.931,2.931,0,0,1-.692.113l-.225-.09-.237-.331-.02-.228c.065-.5.553-.516,1-.758-.758-.233-1.186-.873-1.935-.857l-.354.083-.958.208a1.2,1.2,0,0,0-.585.118c-1.086.214-2.179.4-3.257.651a.777.777,0,0,1-1.082-.623l-.013.007.107-.123a.176.176,0,0,0,.023-.1l.225-.256.239-.089,4.263-.838c-.961-.647-1.71-1.178-2.824-.813a28.95,28.95,0,0,1-3.272.7c-.717.145-.92-.009-.993-.734l.137-.223a2.011,2.011,0,0,1,.768-.267c.92-.183,1.836-.382,2.821-.59a2.841,2.841,0,0,0-2.994-.732,9.072,9.072,0,0,1-1.488.32c-.717.146-.864.065-1.151-.628.011-.036.02-.073.028-.11.614-.62,1.5-.455,2.308-.8a9.375,9.375,0,0,1-.888-.533,1.657,1.657,0,0,0-1.654-.245,3.608,3.608,0,0,1-.808.155.536.536,0,0,1-.63-.41.587.587,0,0,1,.331-.734c.09-.046.253.019.267-.186-.4-.235-.81-.458-1.2-.719a.692.692,0,0,0-1,.064,3.389,3.389,0,0,1-5.51-1.791,4.048,4.048,0,0,1,.28-2.47l-.006,0a.222.222,0,0,0,.123-.244l-.009.008.147-.125a3.437,3.437,0,0,1,6.145,2.676c-.083.4-.012.624.359.789a4.926,4.926,0,0,0,1.271.567c0-.394.109-.745.538-.822s.63.218.752.586.248.7.372,1.051c.277.813,1.12.824,1.745,1.346a14.928,14.928,0,0,1-.522-2.168c.56-.619.945-.548,1.234.224.059.159.138.312.207.467l.134.364-.006-.011c.008.1.021.195.123.247h-.012a2.675,2.675,0,0,0,2.166,2.655c-.32-.964-.617-1.892-.941-2.81a1.2,1.2,0,0,1-.044-.8l.01-.018.162-.216c.565-.175.872.063,1.039.6s.386,1.095.581,1.642c.074.57.391,1.077.473,1.633.17,1.149,1.076,1.47,2.054,1.956-.323-.985-.622-1.85-.887-2.724a5.769,5.769,0,0,1-.483-1.809c.491-.543.706-.544,1.194,0l.11.125h-.013a2.183,2.183,0,0,0,.054.4c.454,1.4.956,2.776,1.357,4.186a1.768,1.768,0,0,0,1.21,1.294,1,1,0,0,0,.715.343,1.553,1.553,0,0,1-.116-.693.693.693,0,0,1,1.023-.351,2.5,2.5,0,0,1,.4,1.034c.176,1.268,1.218,1.583,2.169,2.108.078-1.189.226-2.3-.866-3.094a1.143,1.143,0,0,1-.541-.874l.15-.366c.5-.385.857-.039,1.291.372a8.257,8.257,0,0,1,.006-.918,2.028,2.028,0,0,0-.655-1.777c-1.048-1.086-2.014-2.251-3.03-3.369a1.033,1.033,0,0,1-.309-.9l0,.012c.574-.45.74-.445,1.228.094.8.887,1.593,1.786,2.4,2.673.091.1.137.3.371.233a6.71,6.71,0,0,1,.006-.88,1.893,1.893,0,0,0-.641-1.669c-.808-.827-1.549-1.72-2.328-2.575a1.01,1.01,0,0,1-.326-.953l.123-.179c.444-.274.768-.09,1.073.258.65.743,1.313,1.476,2.092,2.348a10.35,10.35,0,0,1,.006-1.1,1.739,1.739,0,0,0-.6-1.559c-.5-.49-.942-1.049-1.417-1.571a.972.972,0,0,1-.317-.789c.434-.506.752-.52,1.2-.039.347.371.682.754,1.041,1.152a2.687,2.687,0,0,0-.875-2.979.955.955,0,0,1-.312-.957h-.016l.132-.126a.927.927,0,0,1,1.154.282c0-.631-.027-1.117.008-1.6.032-.427-.129-.607-.536-.746a3.378,3.378,0,0,1-2.089-4.338,1.178,1.178,0,0,0,.157-.56l-.006,0,.156-.121c1.35-1.761,3.333-2.146,4.927-.957a3.406,3.406,0,0,1,.183,5.392c-.1.089-.209.174-.314.261l-.124.135,0-.008c-1.425.5-1.141.151-1.137,1.526a.725.725,0,0,0,.018.115c0,.091,0,.182,0,.274-.011.16-.114.368.055.459.115.062.191-.144.284-.228.332,0,.692-.055.852.343a.722.722,0,0,1-.3.878,2.79,2.79,0,0,0-.821,2.928c.368-.413.707-.777,1.027-1.158.278-.331.592-.477.959-.181.382.308.261.666-.007.976-.447.518-.9,1.034-1.381,1.52a1.863,1.863,0,0,0-.658,1.663,6.05,6.05,0,0,1,0,.879c-.006.03-.011.06-.017.09l.088-.021q.982-1.089,1.963-2.18c.294-.329.615-.625,1.04-.24s.176.73-.123,1.063c-.89.993-1.763,2-2.66,2.984-.485.532-.31,1.158-.233,1.731.046.34.345.111.482-.035.507-.544,1-1.1,1.5-1.656.275-.306.551-.611.824-.918s.61-.4.914-.085a.645.645,0,0,1-.047.948q-1.018,1.141-2.036,2.282a6.846,6.846,0,0,1-.826.915,2.583,2.583,0,0,0-.8,2.757c.47-.322.958-.658,1.327.084,0,.107,0,.215,0,.323l-.167.328-.347.394a.738.738,0,0,0-.352.381Z" transform="translate(-548.179 -373.975)" fill="#fcfbfc"/>
    </g>
  </g>
</svg>
