<svg xmlns="http://www.w3.org/2000/svg" width="122.767" height="122.767" viewBox="0 0 122.767 122.767">
  <g id="Grupo_145097" data-name="Grupo 145097" transform="translate(-959 -1137.493)">
    <g id="Grupo_144504" data-name="Grupo 144504" transform="translate(965 1143.492)">
      <ellipse id="Elipse_5580" data-name="Elipse 5580" cx="55.384" cy="55.384" rx="55.384" ry="55.384" transform="translate(0 0)" fill="#1b3f5e" stroke="#fff59d" stroke-miterlimit="10" stroke-width="12"/>
      <path id="Trazado_217512" data-name="Trazado 217512" d="M754.032,399.779a8.717,8.717,0,0,1-.008-3.054c.125-.074.146-.158.023-.254,0-.085,0-.17.005-.254.014-.014.043-.032.04-.041a.611.611,0,0,0-.048-.092,13.084,13.084,0,0,1,3.964-7.332,13.048,13.048,0,0,1,20.169,2.792c.214.358.42.721.676,1.161a22.493,22.493,0,0,1,1.722-2.646A13.116,13.116,0,0,1,787,385.74a12.736,12.736,0,0,1,8.372.308,12.393,12.393,0,0,1,6.952,6.246,12.583,12.583,0,0,1,1.458,6.26,12.287,12.287,0,0,1-3.322,8.324c-4.249,4.324-8.568,8.58-12.861,12.86q-4.03,4.016-8.071,8.02c-.533.53-.743.531-1.3-.023-6.5-6.452-12.97-12.925-19.5-19.34a16.419,16.419,0,0,1-3.506-4.465,10.317,10.317,0,0,1-1.184-3.9C754.163,399.945,754.158,399.86,754.032,399.779Z" transform="translate(-723.462 -351.282)" fill="#fff"/>
    </g>
  </g>
</svg>
