<svg xmlns="http://www.w3.org/2000/svg" width="122.767" height="122.767" viewBox="0 0 122.767 122.767">
  <g id="Grupo_145098" data-name="Grupo 145098" transform="translate(-1158.999 -1137.493)">
    <g id="Grupo_144505" data-name="Grupo 144505" transform="translate(1165 1143.492)">
      <ellipse id="Elipse_5581" data-name="Elipse 5581" cx="55.384" cy="55.384" rx="55.384" ry="55.384" transform="translate(-0.001 0)" fill="#1b3f5e" stroke="#fff59d" stroke-miterlimit="10" stroke-width="12"/>
      <path id="Trazado_217513" data-name="Trazado 217513" d="M993.9,414.042a6.123,6.123,0,0,0-.359-2.13,4.483,4.483,0,0,0-1.132-1.662,8.467,8.467,0,0,0-2.014-1.367,22.3,22.3,0,0,0-3.006-1.213,58.571,58.571,0,0,1-5.543-2.187,18.5,18.5,0,0,1-4.275-2.66,10.876,10.876,0,0,1-2.777-3.55,12.286,12.286,0,0,1-.19-9.34,10.34,10.34,0,0,1,2.453-3.539,12.885,12.885,0,0,1,3.843-2.469,17.216,17.216,0,0,1,5.033-1.24l-.053-6.169,4.966-.043.053,6.256a15.445,15.445,0,0,1,4.854,1.371,11.657,11.657,0,0,1,6.1,6.737,15.532,15.532,0,0,1,.867,5.2l-8.969.077a7.559,7.559,0,0,0-1.581-5.161,5.25,5.25,0,0,0-4.128-1.68,6.664,6.664,0,0,0-2.4.41,4.521,4.521,0,0,0-1.651,1.081,4.206,4.206,0,0,0-.948,1.609,6.191,6.191,0,0,0-.293,1.992,5.677,5.677,0,0,0,.326,1.928,4.2,4.2,0,0,0,1.085,1.591,8.485,8.485,0,0,0,2.029,1.366,28.684,28.684,0,0,0,3.131,1.314q3.019,1.1,5.5,2.259a18.712,18.712,0,0,1,4.259,2.688,10.51,10.51,0,0,1,3.8,8.4,11.228,11.228,0,0,1-.845,4.563,10.192,10.192,0,0,1-2.468,3.509,12.461,12.461,0,0,1-3.874,2.4,18.581,18.581,0,0,1-5.064,1.2l.049,5.737-4.935.043-.049-5.708a20.854,20.854,0,0,1-4.991-1.081,13.2,13.2,0,0,1-4.289-2.457,11.8,11.8,0,0,1-3.015-4.082,14.387,14.387,0,0,1-1.169-5.929l8.97-.078a8.847,8.847,0,0,0,.6,3.411,5.723,5.723,0,0,0,1.555,2.178,5.556,5.556,0,0,0,2.2,1.134,9.49,9.49,0,0,0,2.5.31,7.93,7.93,0,0,0,2.557-.4,5.289,5.289,0,0,0,1.837-1.054,4.221,4.221,0,0,0,1.1-1.581A5.151,5.151,0,0,0,993.9,414.042Z" transform="translate(-932.055 -348.675)" fill="#fff"/>
    </g>
  </g>
</svg>
