<svg xmlns="http://www.w3.org/2000/svg" xmlns:xlink="http://www.w3.org/1999/xlink" width="1240" height="773" viewBox="0 0 1240 773">
  <defs>
    <linearGradient id="linear-gradient" x1="0.5" x2="0.5" y2="1" gradientUnits="objectBoundingBox">
      <stop offset="0" stop-color="#f0f8ff"/>
      <stop offset="1" stop-color="#fff"/>
    </linearGradient>
  </defs>
  <g id="Grupo_145041" data-name="Grupo 145041" transform="translate(6453 10492)">
    <g id="Grupo_141999" data-name="Grupo 141999" transform="translate(-6633 -11633)">
      <g id="Grupo_141998" data-name="Grupo 141998">
        <rect id="Rect치ngulo_41974" data-name="Rect치ngulo 41974" width="773" height="295" transform="translate(180 1914) rotate(-90)" opacity="0.798" fill="url(#linear-gradient)"/>
        <rect id="Rect치ngulo_41975" data-name="Rect치ngulo 41975" width="773" height="295" transform="translate(1420 1141) rotate(90)" opacity="0.798" fill="url(#linear-gradient)"/>
        <g id="Grupo_141785" data-name="Grupo 141785" transform="translate(-48.863 1141.161)">
          <path id="Trazado_114975" data-name="Trazado 114975" d="M812.618,386.057h-43.4l32.891,69.9-32.891,69.9h43.4l32.891-69.9Z" transform="translate(-540.358 -386.057)" fill="#f0f8ff"/>
          <path id="Trazado_114976" data-name="Trazado 114976" d="M828.9,386.057h-43.4l32.89,69.9-32.89,69.9h43.4l32.89-69.9Z" transform="translate(-475.715 -386.057)" fill="#f0f8ff"/>
          <path id="Trazado_114977" data-name="Trazado 114977" d="M845.189,386.057h-43.4l32.89,69.9-32.89,69.9h43.4l32.89-69.9Z" transform="translate(-411.072 -386.057)" fill="#f0f8ff"/>
          <path id="Trazado_114978" data-name="Trazado 114978" d="M861.475,386.058h-43.4l32.89,69.9-32.89,69.9h43.4l32.89-69.9Z" transform="translate(-346.429 -386.057)" fill="#f0f8ff"/>
          <path id="Trazado_114979" data-name="Trazado 114979" d="M877.76,386.058h-43.4l32.89,69.9-32.89,69.9h43.4l32.89-69.9Z" transform="translate(-281.786 -386.057)" fill="#f0f8ff"/>
        </g>
        <g id="Grupo_141786" data-name="Grupo 141786" transform="translate(1020 1774.034)">
          <path id="Trazado_114975-2" data-name="Trazado 114975" d="M802.111,525.862h43.4l-32.891-69.9,32.891-69.9h-43.4l-32.891,69.9Z" transform="translate(-445.509 -386.058)" fill="#f0f8ff"/>
          <path id="Trazado_114976-2" data-name="Trazado 114976" d="M818.4,525.862h43.4l-32.89-69.9,32.89-69.9H818.4l-32.89,69.9Z" transform="translate(-542.722 -386.058)" fill="#f0f8ff"/>
          <path id="Trazado_114977-2" data-name="Trazado 114977" d="M834.681,525.862h43.4l-32.89-69.9,32.89-69.9h-43.4l-32.89,69.9Z" transform="translate(-639.935 -386.058)" fill="#f0f8ff"/>
          <path id="Trazado_114978-2" data-name="Trazado 114978" d="M850.967,525.862h43.4l-32.89-69.9,32.89-69.9h-43.4l-32.89,69.9Z" transform="translate(-737.149 -386.058)" fill="#f0f8ff"/>
          <path id="Trazado_114979-2" data-name="Trazado 114979" d="M867.251,525.862h43.4l-32.89-69.9,32.89-69.9h-43.4l-32.89,69.9Z" transform="translate(-834.362 -386.058)" fill="#f0f8ff"/>
        </g>
      </g>
    </g>
  </g>
</svg>
