<svg xmlns="http://www.w3.org/2000/svg" xmlns:xlink="http://www.w3.org/1999/xlink" width="1240" height="650" viewBox="0 0 1240 650">
  <defs>
    <linearGradient id="linear-gradient" x1="0.5" x2="0.5" y2="1" gradientUnits="objectBoundingBox">
      <stop offset="0" stop-color="#f0f8ff"/>
      <stop offset="1" stop-color="#fff"/>
    </linearGradient>
  </defs>
  <g id="Grupo_145035" data-name="Grupo 145035" transform="translate(-180 -846)">
    <g id="Grupo_145034" data-name="Grupo 145034">
      <g id="Grupo_142026" data-name="Grupo 142026" transform="translate(0 -550)">
        <g id="Grupo_141999" data-name="Grupo 141999" transform="translate(180 1396)">
          <g id="Grupo_141998" data-name="Grupo 141998" transform="translate(0 0)">
            <rect id="Rectángulo_41974" data-name="Rectángulo 41974" width="650" height="295" transform="translate(0 650) rotate(-90)" opacity="0.798" fill="url(#linear-gradient)"/>
            <rect id="Rectángulo_41975" data-name="Rectángulo 41975" width="650" height="295" transform="translate(1240) rotate(90)" opacity="0.798" fill="url(#linear-gradient)"/>
            <g id="Grupo_141785" data-name="Grupo 141785" transform="translate(0 0.161)">
              <path id="Trazado_114975" data-name="Trazado 114975" d="M812.618,386.057h-43.4l32.891,69.9-32.891,69.9h43.4l32.891-69.9Z" transform="translate(-769.221 -386.057)" fill="#f0f8ff"/>
              <path id="Trazado_114976" data-name="Trazado 114976" d="M828.9,386.057h-43.4l32.89,69.9-32.89,69.9h43.4l32.89-69.9Z" transform="translate(-704.578 -386.057)" fill="#f0f8ff"/>
              <path id="Trazado_114977" data-name="Trazado 114977" d="M845.189,386.057h-43.4l32.89,69.9-32.89,69.9h43.4l32.89-69.9Z" transform="translate(-639.935 -386.057)" fill="#f0f8ff"/>
              <path id="Trazado_114978" data-name="Trazado 114978" d="M861.475,386.058h-43.4l32.89,69.9-32.89,69.9h43.4l32.89-69.9Z" transform="translate(-575.292 -386.058)" fill="#f0f8ff"/>
              <path id="Trazado_114979" data-name="Trazado 114979" d="M877.76,386.058h-43.4l32.89,69.9-32.89,69.9h43.4l32.89-69.9Z" transform="translate(-510.649 -386.058)" fill="#f0f8ff"/>
            </g>
            <g id="Grupo_141786" data-name="Grupo 141786" transform="translate(840 510.034)">
              <path id="Trazado_114975-2" data-name="Trazado 114975" d="M802.111,525.862h43.4l-32.891-69.9,32.891-69.9h-43.4l-32.891,69.9Z" transform="translate(-445.509 -386.057)" fill="#f0f8ff"/>
              <path id="Trazado_114976-2" data-name="Trazado 114976" d="M818.4,525.862h43.4l-32.89-69.9,32.89-69.9H818.4l-32.89,69.9Z" transform="translate(-542.722 -386.057)" fill="#f0f8ff"/>
              <path id="Trazado_114977-2" data-name="Trazado 114977" d="M834.681,525.862h43.4l-32.89-69.9,32.89-69.9h-43.4l-32.89,69.9Z" transform="translate(-639.935 -386.057)" fill="#f0f8ff"/>
              <path id="Trazado_114978-2" data-name="Trazado 114978" d="M850.967,525.862h43.4l-32.89-69.9,32.89-69.9h-43.4l-32.89,69.9Z" transform="translate(-737.149 -386.057)" fill="#f0f8ff"/>
              <path id="Trazado_114979-2" data-name="Trazado 114979" d="M867.251,525.862h43.4l-32.89-69.9,32.89-69.9h-43.4l-32.89,69.9Z" transform="translate(-834.362 -386.057)" fill="#f0f8ff"/>
            </g>
          </g>
        </g>
      </g>
      <circle id="Elipse_5450" data-name="Elipse 5450" cx="91.727" cy="91.727" r="91.727" transform="translate(390 1221.955)" fill="#1b3f5e" stroke="#dcf8ff" stroke-miterlimit="10" stroke-width="4"/>
      <rect id="Rectángulo_42055" data-name="Rectángulo 42055" width="225.789" height="62.719" rx="19.286" transform="translate(611.085 999.301)" fill="#f0f8ff"/>
      <rect id="Rectángulo_42056" data-name="Rectángulo 42056" width="225.789" height="62.719" rx="19.286" transform="translate(611.085 913.848)" fill="#fff59d"/>
      <rect id="Rectángulo_42057" data-name="Rectángulo 42057" width="344.85" height="106.792" rx="19.286" transform="translate(865.15 866)" fill="#fff59d"/>
      <rect id="Rectángulo_42058" data-name="Rectángulo 42058" width="344.85" height="95.792" rx="19.286" transform="translate(865.15 981.877)" fill="#f0f8ff"/>
      <rect id="Rectángulo_42059" data-name="Rectángulo 42059" width="344.85" height="122.792" rx="19.286" transform="translate(865.15 1088.531)" fill="#d84318"/>
      <text id="Usado_para_estructuración_de_ideas_inmediatas_internas_de_una_organización_usando_información_disponibl_dentro_de_la_misma_empresa." data-name="Usado para estructuración de ideas inmediatas internas de una organización, usando información disponibl dentro de la misma empresa." transform="translate(894.889 878.568)" font-size="16" font-family="Roboto-Regular, Roboto"><tspan x="13.917" y="15">Usado para estructuración de ideas </tspan><tspan x="43.378" y="33">inmediatas internas de una </tspan><tspan x="18.96" y="51">organización, usando información </tspan><tspan x="1.589" y="69">disponibl dentro de la misma empresa.</tspan></text>
      <text id="Se_usa_para_pronosticar_aspectos_puntuales_de_condiciones_de_mercado_entre_seis_meses_y_tres_años._Se_usan_datos_micro_y_macroeconómicos." data-name="Se usa para pronosticar aspectos puntuales de condiciones de mercado entre seis meses y tres años. Se usan datos micro y macroeconómicos." transform="translate(894.889 990.633)" font-size="16" font-family="Roboto-Regular, Roboto"><tspan x="20.82" y="15">Se usa para pronosticar aspectos </tspan><tspan x="4.554" y="33">puntuales de condiciones de mercado </tspan><tspan x="6.144" y="51">entre seis meses y tres años. Se usan </tspan><tspan x="20.765" y="69">datos micro y macroeconómicos.</tspan></text>
      <rect id="Rectángulo_42060" data-name="Rectángulo 42060" width="344.85" height="73.792" rx="19.286" transform="translate(865.15 1229.842)" fill="#fff59d"/>
      <rect id="Rectángulo_42061" data-name="Rectángulo 42061" width="344.85" height="95.792" rx="19.286" transform="translate(865.15 1312.721)" fill="#f0f8ff"/>
      <text id="Emplean_datos_previos_como_herramienta_de_predicción." data-name="Emplean datos previos como herramienta de predicción." transform="translate(898.025 1248.691)" font-size="16" font-family="Roboto-Regular, Roboto"><tspan x="36.394" y="15">Emplean datos previos como </tspan><tspan x="44.804" y="33">herramienta de predicción.</tspan></text>
      <text id="Busca_descifrar_situaciones_variables:_volatilidades_contracciones_económicas_condiciones_de_apertura_entre_otras." data-name="Busca descifrar situaciones variables: volatilidades, contracciones económicas, condiciones de apertura, entre otras." transform="translate(898.025 1328.951)" font-size="16" font-family="Roboto-Regular, Roboto"><tspan x="5.355" y="15">Busca descifrar situaciones variables: </tspan><tspan x="40.816" y="33">volatilidades, contracciones </tspan><tspan x="5.144" y="51">económicas, condiciones de apertura, </tspan></text>
      <text id="Es_requerida_por_la_alta_dirección_para_el_análisis_situacional_de_condiciones_de_mercado_para_la_venta_de_productos._Está_soportada_en_datos_macroeconómicos_y_sectoriales." data-name="Es requerida por la alta dirección para el análisis situacional de condiciones de mercado para la venta de productos.
 Está soportada en datos macroeconómicos y sectoriales." transform="translate(886.788 1103.58)" fill="#fff" font-size="16" font-family="Roboto-Regular, Roboto"><tspan x="8.826" y="15">Es requerida por la alta dirección para el </tspan><tspan x="16.248" y="33">análisis situacional de condiciones de </tspan><tspan x="21.045" y="51">mercado para la venta de productos.</tspan><tspan x="62.022" y="69" xml:space="preserve"> Está soportada en datos </tspan><tspan x="35.447" y="87">macroeconómicos y sectoriales.</tspan></text>
      <text id="Corto_plazo" data-name="Corto plazo" transform="translate(675.701 949.77)" font-size="18" font-family="Roboto-Regular, Roboto"><tspan x="0" y="0">Corto plazo</tspan></text>
      <text id="Mediano_plazo" data-name="Mediano plazo" transform="translate(675.206 1035.225)" font-size="18" font-family="Roboto-Regular, Roboto"><tspan x="0" y="0">Mediano plazo</tspan></text>
      <rect id="Rectángulo_42062" data-name="Rectángulo 42062" width="225.789" height="62.719" rx="19.286" transform="translate(611.085 1325.049)" fill="#f0f8ff"/>
      <rect id="Rectángulo_42063" data-name="Rectángulo 42063" width="225.789" height="62.719" rx="19.286" transform="translate(611.085 1239.594)" fill="#fff59d"/>
      <rect id="Rectángulo_42064" data-name="Rectángulo 42064" width="225.789" height="62.719" rx="19.286" transform="translate(611.085 1084.756)" fill="#d84318"/>
      <text id="Largo_plazo" data-name="Largo plazo" transform="translate(675.207 1120.58)" fill="#fff" font-size="18" font-family="Roboto-Regular, Roboto"><tspan x="0" y="0">Largo plazo</tspan></text>
      <text id="Pronósticos_cuantitativo" data-name="Pronósticos 
cuantitativo" transform="translate(720.902 1265.691)" font-size="18" font-family="Roboto-Regular, Roboto"><tspan x="-50.344" y="0">Pronósticos </tspan><tspan x="-47.043" y="22">cuantitativo</tspan></text>
      <text id="Pronósticos_causales" data-name="Pronósticos 
causales" transform="translate(721.795 1351.146)" font-size="18" font-family="Roboto-Regular, Roboto"><tspan x="-50.344" y="0">Pronósticos </tspan><tspan x="-35.697" y="22">causales</tspan></text>
      <g id="Grupo_142027" data-name="Grupo 142027" transform="translate(619.447 924.301)">
        <circle id="Elipse_5451" data-name="Elipse 5451" cx="20.906" cy="20.906" r="20.906" fill="#1b3f5e"/>
        <path id="Trazado_214616" data-name="Trazado 214616" d="M224.071,124.826l8.1,8.493,9.8-20.122" transform="translate(-213.618 -103.266)" fill="none" stroke="#fff" stroke-linecap="round" stroke-miterlimit="10" stroke-width="1"/>
      </g>
      <g id="Grupo_142028" data-name="Grupo 142028" transform="translate(619.447 1009.754)">
        <circle id="Elipse_5452" data-name="Elipse 5452" cx="20.906" cy="20.906" r="20.906" fill="#1b3f5e"/>
        <path id="Trazado_214617" data-name="Trazado 214617" d="M224.071,177.379l8.1,8.493,9.8-20.122" transform="translate(-213.618 -155.819)" fill="none" stroke="#fff" stroke-linecap="round" stroke-miterlimit="10" stroke-width="1"/>
      </g>
      <g id="Grupo_142029" data-name="Grupo 142029" transform="translate(619.447 1095.209)">
        <circle id="Elipse_5453" data-name="Elipse 5453" cx="20.906" cy="20.906" r="20.906" fill="#1b3f5e"/>
        <path id="Trazado_214618" data-name="Trazado 214618" d="M224.071,229.933l8.1,8.493,9.8-20.122" transform="translate(-213.618 -208.373)" fill="none" stroke="#fff" stroke-linecap="round" stroke-miterlimit="10" stroke-width="1"/>
      </g>
      <g id="Grupo_142030" data-name="Grupo 142030" transform="translate(619.447 1249.916)">
        <circle id="Elipse_5454" data-name="Elipse 5454" cx="20.906" cy="20.906" r="20.906" fill="#1b3f5e"/>
        <path id="Trazado_214619" data-name="Trazado 214619" d="M224.071,325.076l8.1,8.493,9.8-20.122" transform="translate(-213.618 -303.516)" fill="none" stroke="#fff" stroke-linecap="round" stroke-miterlimit="10" stroke-width="1"/>
      </g>
      <g id="Grupo_142031" data-name="Grupo 142031" transform="translate(619.447 1336.33)">
        <circle id="Elipse_5455" data-name="Elipse 5455" cx="20.906" cy="20.906" r="20.906" transform="translate(0 0)" fill="#1b3f5e"/>
        <path id="Trazado_214620" data-name="Trazado 214620" d="M224.071,378.218l8.1,8.493,9.8-20.122" transform="translate(-213.618 -356.659)" fill="none" stroke="#fff" stroke-linecap="round" stroke-miterlimit="10" stroke-width="1"/>
      </g>
      <g id="Grupo_142032" data-name="Grupo 142032" transform="translate(390 939.719)">
        <circle id="Elipse_5456" data-name="Elipse 5456" cx="91.727" cy="91.727" r="91.727" fill="#1b3f5e" stroke="#dcf8ff" stroke-miterlimit="10" stroke-width="4"/>
        <text id="Línea_detiempo" data-name="Línea detiempo" transform="translate(86.492 131.333)" fill="#fff" font-size="18" font-family="Roboto-Bold, Roboto" font-weight="700"><tspan x="-62.486" y="0">Línea detiempo</tspan></text>
      </g>
      <text id="Intensidad_del_uso_de_datos" data-name="Intensidad 
del uso de datos" transform="translate(482.185 1334.18)" fill="#fff" font-size="18" font-family="Roboto-Bold, Roboto" font-weight="700"><tspan x="-44.833" y="0">Intensidad </tspan><tspan x="-66.256" y="23">del uso de datos</tspan></text>
      <g id="Grupo_142033" data-name="Grupo 142033" transform="translate(443.742 1248.9)">
        <rect id="Rectángulo_42065" data-name="Rectángulo 42065" width="16.558" height="26.37" transform="translate(0 34.955)" fill="none" stroke="#fff" stroke-miterlimit="10" stroke-width="1"/>
        <rect id="Rectángulo_42066" data-name="Rectángulo 42066" width="16.558" height="26.37" transform="translate(0 34.955)" fill="none" stroke="#fff" stroke-miterlimit="10" stroke-width="1"/>
        <rect id="Rectángulo_42067" data-name="Rectángulo 42067" width="16.558" height="37.408" transform="translate(17.171 23.917)" fill="none" stroke="#fff" stroke-miterlimit="10" stroke-width="1"/>
        <rect id="Rectángulo_42068" data-name="Rectángulo 42068" width="16.558" height="37.408" transform="translate(17.171 23.917)" fill="none" stroke="#fff" stroke-miterlimit="10" stroke-width="1"/>
        <rect id="Rectángulo_42069" data-name="Rectángulo 42069" width="16.558" height="50.9" transform="translate(34.342 10.425)" fill="none" stroke="#fff" stroke-miterlimit="10" stroke-width="1"/>
        <rect id="Rectángulo_42070" data-name="Rectángulo 42070" width="16.558" height="50.9" transform="translate(34.342 10.425)" fill="none" stroke="#fff" stroke-miterlimit="10" stroke-width="1"/>
        <rect id="Rectángulo_42071" data-name="Rectángulo 42071" width="16.558" height="61.325" transform="translate(51.513)" fill="none" stroke="#fff" stroke-miterlimit="10" stroke-width="1"/>
        <rect id="Rectángulo_42072" data-name="Rectángulo 42072" width="16.558" height="61.325" transform="translate(51.513)" fill="none" stroke="#fff" stroke-miterlimit="10" stroke-width="1"/>
      </g>
      <rect id="Rectángulo_42073" data-name="Rectángulo 42073" width="31.949" height="15.006" rx="0.982" transform="translate(425.657 980.197)" fill="none" stroke="#fff" stroke-miterlimit="10" stroke-width="1"/>
      <rect id="Rectángulo_42074" data-name="Rectángulo 42074" width="31.949" height="15.006" rx="0.982" transform="translate(458.563 960.857)" fill="none" stroke="#fff" stroke-miterlimit="10" stroke-width="1"/>
      <rect id="Rectángulo_42075" data-name="Rectángulo 42075" width="31.949" height="15.006" rx="0.982" transform="translate(477.616 1018.227)" fill="none" stroke="#fff" stroke-miterlimit="10" stroke-width="1"/>
      <rect id="Rectángulo_42076" data-name="Rectángulo 42076" width="31.949" height="15.006" rx="0.982" transform="translate(514.89 1027.734)" fill="none" stroke="#fff" stroke-miterlimit="10" stroke-width="1"/>
      <rect id="Rectángulo_42077" data-name="Rectángulo 42077" width="126.484" height="2.091" transform="translate(420.489 1005.574)" fill="#fff"/>
      <g id="Grupo_142035" data-name="Grupo 142035" transform="translate(440.467 996.588)">
        <g id="Grupo_142034" data-name="Grupo 142034" transform="translate(0.889 2.242)">
          <rect id="Rectángulo_42078" data-name="Rectángulo 42078" width="0.552" height="7.729" fill="#fff"/>
        </g>
        <g id="Polígono_26" data-name="Polígono 26">
          <path id="Trazado_214621" data-name="Trazado 214621" d="M108.686,151.545l1.215,2.39-2.329.049Z" transform="translate(-107.572 -151.545)" fill="#fff"/>
        </g>
      </g>
      <g id="Grupo_142037" data-name="Grupo 142037" transform="translate(473.918 980.326)">
        <g id="Grupo_142036" data-name="Grupo 142036" transform="translate(0.888 2.242)">
          <rect id="Rectángulo_42079" data-name="Rectángulo 42079" width="0.552" height="23.99" fill="#fff"/>
        </g>
        <g id="Polígono_26-2" data-name="Polígono 26" transform="translate(0)">
          <path id="Trazado_214622" data-name="Trazado 214622" d="M129.256,141.545l1.216,2.39-2.329.049Z" transform="translate(-128.144 -141.545)" fill="#fff"/>
        </g>
      </g>
      <g id="Grupo_142039" data-name="Grupo 142039" transform="translate(492.907 1006.459)">
        <g id="Grupo_142038" data-name="Grupo 142038" transform="translate(0.889)">
          <rect id="Rectángulo_42080" data-name="Rectángulo 42080" width="0.552" height="7.729" fill="#fff"/>
        </g>
        <g id="Polígono_26-3" data-name="Polígono 26" transform="translate(0 7.532)">
          <path id="Trazado_214623" data-name="Trazado 214623" d="M140.936,164.689l1.215-2.39-2.329-.05Z" transform="translate(-139.822 -162.248)" fill="#fff"/>
        </g>
      </g>
      <g id="Grupo_142041" data-name="Grupo 142041" transform="translate(526.358 1006.459)">
        <g id="Grupo_142040" data-name="Grupo 142040" transform="translate(0.888)">
          <rect id="Rectángulo_42081" data-name="Rectángulo 42081" width="0.552" height="17.486" fill="#fff"/>
        </g>
        <g id="Polígono_26-4" data-name="Polígono 26" transform="translate(0 17.288)">
          <path id="Trazado_214624" data-name="Trazado 214624" d="M161.506,170.689l1.216-2.39-2.329-.05Z" transform="translate(-160.394 -168.248)" fill="#fff"/>
        </g>
      </g>
      <g id="Grupo_142042" data-name="Grupo 142042" transform="translate(464.218 965.068)">
        <line id="Línea_192" data-name="Línea 192" x2="20.645" fill="none" stroke="#fff" stroke-linecap="round" stroke-miterlimit="10" stroke-width="1"/>
        <line id="Línea_193" data-name="Línea 193" x2="15.767" transform="translate(0 3.252)" fill="none" stroke="#fff" stroke-linecap="round" stroke-miterlimit="10" stroke-width="1"/>
        <line id="Línea_194" data-name="Línea 194" x2="9.263" transform="translate(0 6.504)" fill="none" stroke="#fff" stroke-linecap="round" stroke-miterlimit="10" stroke-width="1"/>
      </g>
      <g id="Grupo_142043" data-name="Grupo 142043" transform="translate(431.159 984.014)">
        <line id="Línea_195" data-name="Línea 195" x2="20.645" fill="none" stroke="#fff" stroke-linecap="round" stroke-miterlimit="10" stroke-width="1"/>
        <line id="Línea_196" data-name="Línea 196" x2="15.767" transform="translate(0 3.252)" fill="none" stroke="#fff" stroke-linecap="round" stroke-miterlimit="10" stroke-width="1"/>
        <line id="Línea_197" data-name="Línea 197" x2="9.263" transform="translate(0 6.504)" fill="none" stroke="#fff" stroke-linecap="round" stroke-miterlimit="10" stroke-width="1"/>
      </g>
      <g id="Grupo_142044" data-name="Grupo 142044" transform="translate(483.556 1021.645)">
        <line id="Línea_198" data-name="Línea 198" x2="20.645" transform="translate(0)" fill="none" stroke="#fff" stroke-linecap="round" stroke-miterlimit="10" stroke-width="1"/>
        <line id="Línea_199" data-name="Línea 199" x2="15.767" transform="translate(0 3.252)" fill="none" stroke="#fff" stroke-linecap="round" stroke-miterlimit="10" stroke-width="1"/>
        <line id="Línea_200" data-name="Línea 200" x2="9.263" transform="translate(0 6.504)" fill="none" stroke="#fff" stroke-linecap="round" stroke-miterlimit="10" stroke-width="1"/>
      </g>
      <g id="Grupo_142045" data-name="Grupo 142045" transform="translate(520.795 1031.576)">
        <line id="Línea_201" data-name="Línea 201" x2="20.645" transform="translate(0)" fill="none" stroke="#fff" stroke-linecap="round" stroke-miterlimit="10" stroke-width="1"/>
        <line id="Línea_202" data-name="Línea 202" x2="15.767" transform="translate(0 3.252)" fill="none" stroke="#fff" stroke-linecap="round" stroke-miterlimit="10" stroke-width="1"/>
        <line id="Línea_203" data-name="Línea 203" x2="9.263" transform="translate(0 6.504)" fill="none" stroke="#fff" stroke-linecap="round" stroke-miterlimit="10" stroke-width="1"/>
      </g>
    </g>
  </g>
</svg>
