<svg xmlns="http://www.w3.org/2000/svg" width="348.755" height="354.439" viewBox="0 0 348.755 354.439">
  <g id="Grupo_142117" data-name="Grupo 142117" transform="translate(-994.714 -903.753)">
    <g id="Grupo_142116" data-name="Grupo 142116" transform="translate(994.714 903.753)">
      <ellipse id="Elipse_5457" data-name="Elipse 5457" cx="174.377" cy="100.677" rx="174.377" ry="100.677" transform="translate(0 153.085)" fill="#f0f8ff"/>
      <ellipse id="Elipse_5458" data-name="Elipse 5458" cx="35.708" cy="20.616" rx="35.708" ry="20.616" transform="translate(112.9 198.439)" fill="#f0f8ff"/>
      <path id="Trazado_214625" data-name="Trazado 214625" d="M468.288,346.994c19.2,11.084,19.2,29.054,0,40.138s-50.323,11.085-69.521,0-19.2-29.054,0-40.139S449.09,335.91,468.288,346.994Z" transform="translate(-181.927 -69.237)" fill="#fff59d"/>
      <path id="Trazado_214626" data-name="Trazado 214626" d="M278.855,270.088l100.814,58.2a2.639,2.639,0,0,1,0,4.571l-59.5,34.35a8.107,8.107,0,0,1-8.106,0L211.254,309.008a2.639,2.639,0,0,1,0-4.571l59.5-34.349A8.1,8.1,0,0,1,278.855,270.088Z" transform="translate(-171.784 -65.185)" fill="#f0f8ff"/>
      <path id="Trazado_214627" data-name="Trazado 214627" d="M239.178,316.095l69.88,41.546a1.658,1.658,0,0,1,0,2.873l-37.4,21.594a5.093,5.093,0,0,1-5.1,0l-69.88-41.545a1.659,1.659,0,0,1,0-2.874l37.4-21.594A5.093,5.093,0,0,1,239.178,316.095Z" transform="translate(-170.965 -67.884)" fill="#e1e1e1"/>
      <path id="Trazado_214628" data-name="Trazado 214628" d="M378.121,225.517l119.961,69.206a5.6,5.6,0,0,0,5.6,0l7.53-4.348a1.935,1.935,0,0,0,0-3.353L391.321,217.857a5.741,5.741,0,0,0-5.742,0l-7.459,4.307A1.936,1.936,0,0,0,378.121,225.517Z" transform="translate(-181.507 -62.167)" fill="#e1e1e1"/>
      <path id="Trazado_214629" data-name="Trazado 214629" d="M387.588,212.44l116.539,67.283a2.741,2.741,0,0,0,4.111-2.373V123.859a7.462,7.462,0,0,0-3.732-6.464L393.153,53.1a3.71,3.71,0,0,0-5.565,3.213Z" transform="translate(-182.114 -52.602)" fill="#d168cb"/>
      <path id="Trazado_214630" data-name="Trazado 214630" d="M387.588,212.44l116.539,67.283a2.741,2.741,0,0,0,4.111-2.373V123.859a7.462,7.462,0,0,0-3.732-6.464L393.153,53.1a3.71,3.71,0,0,0-5.565,3.213Z" transform="translate(-182.114 -52.602)" fill="#1b3f5e"/>
      <g id="Grupo_142054" data-name="Grupo 142054" transform="translate(198.335 8.562)">
        <path id="Trazado_214631" data-name="Trazado 214631" d="M391.086,220.156l106.862,61.7V125.874l-106.862-61.7Z" transform="translate(-380.652 -61.837)" fill="#d168cb"/>
        <path id="Trazado_214632" data-name="Trazado 214632" d="M391.086,220.156l106.862,61.7V125.874l-106.862-61.7Z" transform="translate(-380.652 -61.837)" fill="#afafaf"/>
        <g id="Grupo_142053" data-name="Grupo 142053" transform="translate(0 2.34)">
          <path id="Trazado_214633" data-name="Trazado 214633" d="M380.008,207.7,486.87,269.4,497.3,125.874l-106.862-61.7Z" transform="translate(-380.008 -64.177)" fill="#d168cb"/>
          <path id="Trazado_214634" data-name="Trazado 214634" d="M380.008,207.7,486.87,269.4,497.3,125.874l-106.862-61.7Z" transform="translate(-380.008 -64.177)" fill="#f0f8ff"/>
        </g>
        <path id="Trazado_214635" data-name="Trazado 214635" d="M391.086,64.032l106.862,61.7L502,123.39l-106.862-61.7Z" transform="translate(-380.652 -61.693)" fill="#d168cb"/>
        <path id="Trazado_214636" data-name="Trazado 214636" d="M391.086,64.032l106.862,61.7L502,123.39l-106.862-61.7Z" transform="translate(-380.652 -61.693)" fill="#afafaf"/>
        <path id="Trazado_214637" data-name="Trazado 214637" d="M508.6,127.2V282.586l-4.052,2.931V129.538Z" transform="translate(-387.25 -65.502)" fill="#d168cb"/>
        <path id="Trazado_214638" data-name="Trazado 214638" d="M508.6,127.2V282.586l-4.052,2.931V129.538Z" transform="translate(-387.25 -65.502)" fill="#d168cb"/>
        <path id="Trazado_214639" data-name="Trazado 214639" d="M508.6,127.2V282.586l-4.052,2.931V129.538Z" transform="translate(-387.25 -65.502)" fill="#afafaf"/>
      </g>
      <g id="Grupo_142063" data-name="Grupo 142063" transform="translate(215.013 47.51)">
        <g id="Grupo_142057" data-name="Grupo 142057" transform="translate(6.353)">
          <g id="Grupo_142055" data-name="Grupo 142055" transform="translate(60.634 30.206)">
            <path id="Trazado_214640" data-name="Trazado 214640" d="M473.088,150.243a1.052,1.052,0,0,1-.276-.037,1.072,1.072,0,0,1-.721-.64l-3.177-7.978a1.073,1.073,0,1,1,1.993-.794l2.643,6.637,15.207-12.082a1.073,1.073,0,0,1,1.336,1.68l-16.337,12.98A1.077,1.077,0,0,1,473.088,150.243Z" transform="translate(-468.838 -135.117)" fill="#d84318"/>
          </g>
          <g id="Grupo_142056" data-name="Grupo 142056">
            <path id="Trazado_214641" data-name="Trazado 214641" d="M451.622,131.169a1.062,1.062,0,0,1-.535-.144l-44.994-25.977a1.073,1.073,0,0,1,1.073-1.858l44.994,25.977a1.073,1.073,0,0,1-.538,2Z" transform="translate(-404.524 -103.045)" fill="#d84318"/>
            <path id="Trazado_214642" data-name="Trazado 214642" d="M450.527,140.97a1.065,1.065,0,0,1-.536-.144L405,114.848a1.073,1.073,0,1,1,1.073-1.858l44.993,25.977a1.073,1.073,0,0,1-.537,2Z" transform="translate(-404.461 -103.615)" fill="#d84318"/>
          </g>
          <path id="Trazado_214643" data-name="Trazado 214643" d="M479.8,161.621a2.859,2.859,0,0,1-1.387-.36l-13.912-7.7a5.916,5.916,0,0,1-3.028-5.676l1.326-15.509a2.866,2.866,0,0,1,4.289-2.238l14.632,8.448a4.3,4.3,0,0,1,2.129,4.015l-1.19,16.358a2.869,2.869,0,0,1-2.859,2.66ZM465.662,131.9a.755.755,0,0,0-.338.083.713.713,0,0,0-.384.577l-1.326,15.509a3.771,3.771,0,0,0,1.928,3.616l13.912,7.7a.72.72,0,0,0,1.068-.577l1.19-16.358a2.147,2.147,0,0,0-1.061-2h0L466.018,132A.706.706,0,0,0,465.662,131.9Z" transform="translate(-407.775 -104.598)" fill="#d84318"/>
        </g>
        <g id="Grupo_142060" data-name="Grupo 142060" transform="translate(3.176 38.22)">
          <g id="Grupo_142058" data-name="Grupo 142058">
            <path id="Trazado_214644" data-name="Trazado 214644" d="M448.25,171.749a1.066,1.066,0,0,1-.536-.144l-44.993-25.977a1.073,1.073,0,1,1,1.073-1.858l44.993,25.977a1.073,1.073,0,0,1-.537,2Z" transform="translate(-401.152 -143.625)" fill="#d84318"/>
            <path id="Trazado_214645" data-name="Trazado 214645" d="M447.155,181.55a1.063,1.063,0,0,1-.536-.144l-44.994-25.977a1.073,1.073,0,0,1,1.073-1.858l44.994,25.977a1.073,1.073,0,0,1-.537,2Z" transform="translate(-401.088 -144.195)" fill="#d84318"/>
          </g>
          <path id="Trazado_214646" data-name="Trazado 214646" d="M476.43,202.2a2.87,2.87,0,0,1-1.387-.36l-13.912-7.7a5.918,5.918,0,0,1-3.028-5.676l1.327-15.509a2.865,2.865,0,0,1,4.288-2.238l14.632,8.447h0a4.305,4.305,0,0,1,2.129,4.016l-1.189,16.358a2.871,2.871,0,0,1-2.859,2.66ZM462.289,172.48a.743.743,0,0,0-.337.083.711.711,0,0,0-.384.577l-1.327,15.51a3.77,3.77,0,0,0,1.928,3.614l13.913,7.7a.72.72,0,0,0,1.068-.578l1.189-16.357a2.147,2.147,0,0,0-1.061-2l-14.633-8.447A.7.7,0,0,0,462.289,172.48Z" transform="translate(-404.402 -145.178)" fill="#d84318"/>
          <g id="Grupo_142059" data-name="Grupo 142059" transform="translate(61.007 29.849)">
            <path id="Trazado_214647" data-name="Trazado 214647" d="M470.112,190.443a1.057,1.057,0,0,1-.276-.036,1.072,1.072,0,0,1-.721-.64l-3.177-7.978a1.073,1.073,0,0,1,1.994-.794l2.642,6.637,15.208-12.082a1.073,1.073,0,0,1,1.335,1.68l-16.337,12.98A1.076,1.076,0,0,1,470.112,190.443Z" transform="translate(-465.862 -175.317)" fill="#d84318"/>
          </g>
        </g>
        <g id="Grupo_142062" data-name="Grupo 142062" transform="translate(0 76.44)">
          <g id="Grupo_142061" data-name="Grupo 142061">
            <path id="Trazado_214648" data-name="Trazado 214648" d="M444.877,212.329a1.062,1.062,0,0,1-.535-.144l-44.994-25.977a1.073,1.073,0,1,1,1.073-1.858l44.994,25.977a1.073,1.073,0,0,1-.538,2Z" transform="translate(-397.779 -184.205)" fill="#d84318"/>
            <path id="Trazado_214649" data-name="Trazado 214649" d="M443.782,222.13a1.065,1.065,0,0,1-.536-.144l-44.993-25.977a1.073,1.073,0,1,1,1.073-1.858l44.993,25.977a1.073,1.073,0,0,1-.537,2Z" transform="translate(-397.716 -184.775)" fill="#d84318"/>
          </g>
          <path id="Trazado_214650" data-name="Trazado 214650" d="M473.057,242.781a2.866,2.866,0,0,1-1.386-.36l-13.913-7.7a5.916,5.916,0,0,1-3.027-5.675l1.325-15.51a2.867,2.867,0,0,1,4.29-2.238l14.632,8.447h0a4.307,4.307,0,0,1,2.127,4.016l-1.19,16.358a2.869,2.869,0,0,1-2.859,2.66Zm-14.141-29.721a.751.751,0,0,0-.337.083.715.715,0,0,0-.385.577l-1.325,15.51a3.768,3.768,0,0,0,1.927,3.614l13.913,7.7a.721.721,0,0,0,1.068-.577l1.19-16.358a2.149,2.149,0,0,0-1.061-2l-14.633-8.447A.7.7,0,0,0,458.916,213.059Z" transform="translate(-401.03 -185.758)" fill="#d84318"/>
        </g>
      </g>
      <path id="Trazado_214651" data-name="Trazado 214651" d="M470.217,117.233a4.633,4.633,0,0,1-2.28-.6l-19.208-10.823a1.075,1.075,0,0,1-.468-.532,12.206,12.206,0,0,0-4.724-5.832c-.8-.461-2.767-1.365-3.846.165a1.073,1.073,0,0,1-1.4.316l-16.463-9.277a6.076,6.076,0,0,1-3.088-5.286V73.615a6.687,6.687,0,0,1,3.881-6.059,1.073,1.073,0,0,1,.987.047l53.059,30.833a1.073,1.073,0,0,1-.109,1.91,2.831,2.831,0,0,0-1.7,2.594v9.644a4.658,4.658,0,0,1-4.642,4.65ZM450.1,104.116l18.888,10.643a2.5,2.5,0,0,0,3.724-2.176v-9.644a4.975,4.975,0,0,1,1.427-3.489l-51.1-29.693a4.539,4.539,0,0,0-2.16,3.857V85.36a3.927,3.927,0,0,0,2,3.416l15.717,8.856c1.486-1.316,3.743-1.361,6.015-.049A14.117,14.117,0,0,1,450.1,104.116Z" transform="translate(-183.925 -53.466)" fill="#d84318"/>
      <g id="Grupo_142064" data-name="Grupo 142064" transform="translate(109.782 103.46)">
        <path id="Trazado_214652" data-name="Trazado 214652" d="M332.318,250.35l-9.187,56.057a1.749,1.749,0,0,1-1.725,1.466h0a1.748,1.748,0,0,1-1.738-1.942l6.444-57.831Z" transform="translate(-287.946 -167.43)" fill="#1a2e35"/>
        <path id="Trazado_214653" data-name="Trazado 214653" d="M298.65,230.333l-9.187,56.056a1.749,1.749,0,0,1-1.725,1.466h0A1.75,1.75,0,0,1,286,285.913l6.445-57.831Z" transform="translate(-285.988 -166.266)" fill="#1a2e35"/>
        <path id="Trazado_214654" data-name="Trazado 214654" d="M348.073,236.571l9.065,48.307a1.473,1.473,0,0,0,2.9-.485l-6.7-44.772Z" transform="translate(-289.598 -166.759)" fill="#1a2e35"/>
        <path id="Trazado_214655" data-name="Trazado 214655" d="M314.025,217.439l9.014,48.009a1.473,1.473,0,0,0,2.906-.486L319.3,220.48Z" transform="translate(-287.619 -165.647)" fill="#1a2e35"/>
        <path id="Trazado_214656" data-name="Trazado 214656" d="M315.14,210.63a12.868,12.868,0,0,0,7.588-10.483c1.462-14.709,6.642-45.02,24.2-34.93,21.668,12.454,13.91,48.619,10.76,60.216a15.628,15.628,0,0,1-3.982,6.926c-3.914,3.944-12.019,10.734-25.8,16.515a8.084,8.084,0,0,1-5.338.318c-6.847-1.951-24.738-7.942-33.658-19.347a3.117,3.117,0,0,1,.515-4.36C293.033,222.615,301.2,216.846,315.14,210.63Z" transform="translate(-286.12 -162.493)" fill="#d168cb"/>
        <path id="Trazado_214657" data-name="Trazado 214657" d="M315.14,210.63a12.868,12.868,0,0,0,7.588-10.483c1.462-14.709,6.642-45.02,24.2-34.93,21.668,12.454,13.91,48.619,10.76,60.216a15.628,15.628,0,0,1-3.982,6.926c-3.914,3.944-12.019,10.734-25.8,16.515a8.084,8.084,0,0,1-5.338.318c-6.847-1.951-24.738-7.942-33.658-19.347a3.117,3.117,0,0,1,.515-4.36C293.033,222.615,301.2,216.846,315.14,210.63Z" transform="translate(-286.12 -162.493)" fill="#1b3f5e"/>
        <path id="Trazado_214658" data-name="Trazado 214658" d="M288.26,227.727a3.1,3.1,0,0,0,.646,2.077c.476.608.982,1.2,1.506,1.776h0q.43.475.88.934l.018.019q.445.455.908.9l.026.025q.463.442.942.87l.024.022q.483.431.98.85l.013.01a67.134,67.134,0,0,0,16.686,9.812l.021.009q.513.218,1.016.425l.106.043q.472.194.935.378l.163.065q.441.175.872.341l.2.076c.275.1.545.207.814.307l.236.088c.252.093.5.186.75.274l.271.1.693.246.287.1.642.22.307.1c.2.067.392.132.583.195l.331.107c.175.057.351.115.521.169l.352.111.452.142.38.117.381.117.465.138.236.07.657.19a8.084,8.084,0,0,0,5.338-.318c13.782-5.781,21.887-12.572,25.8-16.515a15.628,15.628,0,0,0,3.982-6.926c3.15-11.6,10.909-47.762-10.76-60.216-.384-.221-.76-.415-1.132-.6-.082-.04-.163-.08-.244-.118-.366-.173-.728-.332-1.083-.468-.035-.014-.069-.024-.1-.038q-.511-.192-1.007-.335l-.153-.045q-.534-.148-1.05-.242l-.088-.014a9.931,9.931,0,0,0-2.077-.146l-.039,0a8.789,8.789,0,0,0-1.969.305h0a12.914,12.914,0,0,1,11.877.948c21.667,12.454,13.91,48.619,10.76,60.216l-.533,1.992a18.848,18.848,0,0,1-6.763,10.107l-5.622,4.3v0A88.429,88.429,0,0,1,327.923,252.3a8.1,8.1,0,0,1-5.353.329c-6.844-1.95-24.742-7.94-33.663-19.348a3.054,3.054,0,0,1-.641-1.7h-.014v-3.862Z" transform="translate(-286.12 -162.449)" fill="#d168cb"/>
        <path id="Trazado_214659" data-name="Trazado 214659" d="M288.26,227.727a3.1,3.1,0,0,0,.646,2.077c.476.608.982,1.2,1.506,1.776h0q.43.475.88.934l.018.019q.445.455.908.9l.026.025q.463.442.942.87l.024.022q.483.431.98.85l.013.01a67.134,67.134,0,0,0,16.686,9.812l.021.009q.513.218,1.016.425l.106.043q.472.194.935.378l.163.065q.441.175.872.341l.2.076c.275.1.545.207.814.307l.236.088c.252.093.5.186.75.274l.271.1.693.246.287.1.642.22.307.1c.2.067.392.132.583.195l.331.107c.175.057.351.115.521.169l.352.111.452.142.38.117.381.117.465.138.236.07.657.19a8.084,8.084,0,0,0,5.338-.318c13.782-5.781,21.887-12.572,25.8-16.515a15.628,15.628,0,0,0,3.982-6.926c3.15-11.6,10.909-47.762-10.76-60.216-.384-.221-.76-.415-1.132-.6-.082-.04-.163-.08-.244-.118-.366-.173-.728-.332-1.083-.468-.035-.014-.069-.024-.1-.038q-.511-.192-1.007-.335l-.153-.045q-.534-.148-1.05-.242l-.088-.014a9.931,9.931,0,0,0-2.077-.146l-.039,0a8.789,8.789,0,0,0-1.969.305h0a12.914,12.914,0,0,1,11.877.948c21.667,12.454,13.91,48.619,10.76,60.216l-.533,1.992a18.848,18.848,0,0,1-6.763,10.107l-5.622,4.3v0A88.429,88.429,0,0,1,327.923,252.3a8.1,8.1,0,0,1-5.353.329c-6.844-1.95-24.742-7.94-33.663-19.348a3.054,3.054,0,0,1-.641-1.7h-.014v-3.862Z" transform="translate(-286.12 -162.449)" fill="#636363"/>
      </g>
      <g id="Grupo_142081" data-name="Grupo 142081" transform="translate(44.601 104.649)">
        <g id="Grupo_142070" data-name="Grupo 142070" transform="translate(0 30.053)">
          <g id="Grupo_142065" data-name="Grupo 142065" transform="translate(95.059 100.572)">
            <path id="Trazado_214660" data-name="Trazado 214660" d="M318.463,368.586a3.983,3.983,0,0,0,3.606,0,1.1,1.1,0,0,0,0-2.082,3.983,3.983,0,0,0-3.606,0A1.1,1.1,0,0,0,318.463,368.586Z" transform="translate(-317.711 -306.103)" fill="#2b454e"/>
            <rect id="Rectángulo_42090" data-name="Rectángulo 42090" width="5.1" height="61.385" transform="translate(5.1 61.385) rotate(180)" fill="#1b3f5e"/>
          </g>
          <g id="Grupo_142066" data-name="Grupo 142066" transform="translate(153.047 66.521)">
            <path id="Trazado_214661" data-name="Trazado 214661" d="M380.031,332.434a3.988,3.988,0,0,0,3.606,0,1.1,1.1,0,0,0,0-2.082,3.983,3.983,0,0,0-3.606,0A1.1,1.1,0,0,0,380.031,332.434Z" transform="translate(-379.279 -269.95)" fill="#1a2e35"/>
            <rect id="Rectángulo_42091" data-name="Rectángulo 42091" width="5.1" height="61.385" transform="translate(5.1 61.385) rotate(180)" fill="#1b3f5e"/>
          </g>
          <g id="Grupo_142067" data-name="Grupo 142067" transform="translate(0 45.497)">
            <path id="Trazado_214662" data-name="Trazado 214662" d="M217.535,310.111a3.983,3.983,0,0,0,3.606,0,1.1,1.1,0,0,0,0-2.081,3.983,3.983,0,0,0-3.606,0A1.1,1.1,0,0,0,217.535,310.111Z" transform="translate(-216.784 -247.628)" fill="#2b454e"/>
            <rect id="Rectángulo_42092" data-name="Rectángulo 42092" width="5.1" height="61.385" transform="translate(5.1 61.385) rotate(180)" fill="#1b3f5e"/>
          </g>
          <g id="Grupo_142068" data-name="Grupo 142068" transform="translate(62.416 9.315)">
            <path id="Trazado_214663" data-name="Trazado 214663" d="M283.728,260.807a3.577,3.577,0,0,0,3.234,0,.986.986,0,0,0,0-1.868,3.571,3.571,0,0,0-3.234,0A.986.986,0,0,0,283.728,260.807Z" transform="translate(-283.053 -208.594)" fill="#375a64"/>
            <rect id="Rectángulo_42093" data-name="Rectángulo 42093" width="4.575" height="51.228" transform="translate(4.575 51.228) rotate(180)" fill="#375a64"/>
          </g>
          <g id="Grupo_142069" data-name="Grupo 142069">
            <path id="Trazado_214664" data-name="Trazado 214664" d="M380.961,255.451v12.213l-60.547,34.957V290.408Z" transform="translate(-222.809 -199.099)" fill="#1b3f5e"/>
            <path id="Trazado_214665" data-name="Trazado 214665" d="M216.783,232.735l97.605,56.352V301.3l-97.605-56.352Z" transform="translate(-216.783 -197.778)" fill="#1b3f5e"/>
            <path id="Trazado_214666" data-name="Trazado 214666" d="M277.33,195.62l97.605,56.352-60.547,34.957-97.605-56.352Z" transform="translate(-216.783 -195.62)" fill="#1b3f5e"/>
            <path id="Trazado_214667" data-name="Trazado 214667" d="M278.6,257.766,233.7,231.846a.706.706,0,0,1,0-1.224l8.642-4.99a.708.708,0,0,1,.707,0l44.893,25.92a.707.707,0,0,1,0,1.224l-8.643,4.99A.706.706,0,0,1,278.6,257.766Z" transform="translate(-217.747 -197.36)" opacity="0.2"/>
          </g>
        </g>
        <g id="Grupo_142074" data-name="Grupo 142074" transform="translate(77.459 61.949)">
          <g id="Grupo_142072" data-name="Grupo 142072" transform="translate(0 11.416)">
            <path id="Trazado_214668" data-name="Trazado 214668" d="M325.4,279.331l-26.185-15.247a.392.392,0,0,1-.008-.673l29.056-17.886Z" transform="translate(-299.024 -241.834)" fill="#d168cb"/>
            <path id="Trazado_214669" data-name="Trazado 214669" d="M325.4,279.331l-26.185-15.247a.392.392,0,0,1-.008-.673l29.056-17.886Z" transform="translate(-299.024 -241.834)" fill="#d84318"/>
            <path id="Trazado_214670" data-name="Trazado 214670" d="M327.032,279.9l29.2-16.9v-7.683l-29.2,16.833Z" transform="translate(-300.652 -242.403)" fill="#d168cb"/>
            <path id="Trazado_214671" data-name="Trazado 214671" d="M327.032,279.9l29.2-16.9v-7.683l-29.2,16.833Z" transform="translate(-300.652 -242.403)" fill="#1b3f5e"/>
            <g id="Grupo_142071" data-name="Grupo 142071" transform="translate(32.062 17.911)">
              <path id="Trazado_214672" data-name="Trazado 214672" d="M351.185,264.491l-11.529,6.656c-.767.443-1.388-.027-1.388-1.049h0a3.325,3.325,0,0,1,1.388-2.652l11.529-6.656c.767-.443,1.388.027,1.388,1.049h0A3.325,3.325,0,0,1,351.185,264.491Z" transform="translate(-333.367 -260.623)" fill="#e7e7e7"/>
              <path id="Trazado_214673" data-name="Trazado 214673" d="M336.271,271.65a3.543,3.543,0,0,1-1.6,2.777c-.885.511-1.6.1-1.6-.925a3.541,3.541,0,0,1,1.6-2.777C335.553,270.214,336.271,270.628,336.271,271.65Z" transform="translate(-333.065 -261.198)" fill="#e7e7e7"/>
            </g>
            <path id="Trazado_214674" data-name="Trazado 214674" d="M325.408,271.35l-26.082-12.257a.392.392,0,0,1-.034-.692l27.976-16.638a1.107,1.107,0,0,1,1.052-.044l26.282,12.8Z" transform="translate(-299.028 -241.606)" fill="#d84318"/>
            <path id="Trazado_214675" data-name="Trazado 214675" d="M301.123,261.01v3.3l21.609,12.223v-5.364Z" transform="translate(-299.146 -242.734)" fill="#f5f5f5"/>
            <path id="Trazado_214676" data-name="Trazado 214676" d="M324.065,277.156l2.794-1.746v-2.3l-2.794-1.313Z" transform="translate(-300.48 -243.361)" fill="#e1e1e1"/>
          </g>
          <g id="Grupo_142073" data-name="Grupo 142073" transform="translate(0.072)">
            <path id="Trazado_214677" data-name="Trazado 214677" d="M299.1,256.271V247.75h47.611c.163,0,5.273,2.665,7.534,3.847a.65.65,0,0,1,.017,1.142l-28.213,15.953a1.406,1.406,0,0,1-1.3.04Z" transform="translate(-299.1 -230.547)" fill="#d168cb"/>
            <path id="Trazado_214678" data-name="Trazado 214678" d="M299.1,256.271V247.75h47.611c.163,0,5.273,2.665,7.534,3.847a.65.65,0,0,1,.017,1.142l-28.213,15.953a1.406,1.406,0,0,1-1.3.04Z" transform="translate(-299.1 -230.547)" fill="#d84318"/>
            <path id="Trazado_214679" data-name="Trazado 214679" d="M327.032,266.705l27.013-15.191v-3.3l-27.013,14.37Z" transform="translate(-300.724 -230.574)" fill="#e1e1e1"/>
            <path id="Trazado_214680" data-name="Trazado 214680" d="M299.1,256.271l7.064-4.133L299.1,247.75Z" transform="translate(-299.1 -230.547)" fill="#d168cb"/>
            <path id="Trazado_214681" data-name="Trazado 214681" d="M299.1,256.271l7.064-4.133L299.1,247.75Z" transform="translate(-299.1 -230.547)" fill="#fff59d"/>
            <path id="Trazado_214682" data-name="Trazado 214682" d="M303.836,250.692v4.7l21.847,11.455v-4.121Z" transform="translate(-299.375 -230.718)" fill="#f5f5f5"/>
            <path id="Trazado_214683" data-name="Trazado 214683" d="M299.1,246.688l25.4,15.139a1.893,1.893,0,0,0,1.845.051l28-14.667a.65.65,0,0,0,.042-1.116l-25.558-16.61Z" transform="translate(-299.1 -229.485)" fill="#d84318"/>
          </g>
        </g>
        <g id="Grupo_142080" data-name="Grupo 142080" transform="translate(16.464)">
          <g id="Grupo_142075" data-name="Grupo 142075" transform="translate(34.71 46.46)">
            <path id="Trazado_214684" data-name="Trazado 214684" d="M309.605,228.782v1.756l-11.246,6.348V235.13Z" transform="translate(-272.701 -213.955)" fill="#d168cb"/>
            <path id="Trazado_214685" data-name="Trazado 214685" d="M309.605,228.782v1.756l-11.246,6.348V235.13Z" transform="translate(-272.701 -213.955)" fill="#fff59d"/>
            <path id="Trazado_214686" data-name="Trazado 214686" d="M271.117,219.779l25.658,14.827v1.756l-25.658-14.827Z" transform="translate(-271.117 -213.432)" fill="#d168cb"/>
            <path id="Trazado_214687" data-name="Trazado 214687" d="M271.117,219.779l25.658,14.827v1.756l-25.658-14.827Z" transform="translate(-271.117 -213.432)" fill="#fff59d"/>
            <path id="Trazado_214688" data-name="Trazado 214688" d="M282.363,213.04l25.658,14.827-11.246,6.348-25.658-14.827Z" transform="translate(-271.117 -213.04)" fill="#d168cb"/>
            <path id="Trazado_214689" data-name="Trazado 214689" d="M282.363,213.04l25.658,14.827-11.246,6.348-25.658-14.827Z" transform="translate(-271.117 -213.04)" fill="#d84318"/>
          </g>
          <g id="Grupo_142079" data-name="Grupo 142079">
            <g id="Grupo_142078" data-name="Grupo 142078">
              <path id="Trazado_214690" data-name="Trazado 214690" d="M288.441,246.158l1.149.665v2.1a4.088,4.088,0,0,0,2.095-.576l.09-.054a2.271,2.271,0,0,0,1.048-1.441,1.328,1.328,0,0,0,.062-.4v-2.862Z" transform="translate(-237.414 -168.357)" fill="#e1e1e1"/>
              <g id="Grupo_142076" data-name="Grupo 142076">
                <path id="Trazado_214691" data-name="Trazado 214691" d="M235.374,164.342l.09-.054a4.094,4.094,0,0,1,2.1-.576h0a1.3,1.3,0,0,1,.672.177l49.5,28.466a4,4,0,0,1,2,3.468v43.126l-4.445,2.565-47.024-27.034a4,4,0,0,1-2-3.468V166.295h-2A2.274,2.274,0,0,1,235.374,164.342Z" transform="translate(-234.264 -163.712)" fill="#636363"/>
              </g>
              <path id="Trazado_214692" data-name="Trazado 214692" d="M292.357,195.9a4.022,4.022,0,0,1,.426,1.8v43.125l-4.445,2.566-1.663-.96V199.416Z" transform="translate(-237.312 -165.583)" fill="#e1e1e1"/>
              <path id="Trazado_214693" data-name="Trazado 214693" d="M287.735,242.912v2.862a1.311,1.311,0,0,1-1.967,1.136l-49.5-28.466a4,4,0,0,1-2-3.468v-2.936Z" transform="translate(-234.264 -166.522)" fill="#f0f0f0"/>
              <g id="Grupo_142077" data-name="Grupo 142077" transform="translate(0 1.155)">
                <path id="Trazado_214694" data-name="Trazado 214694" d="M234.264,166.251a1.311,1.311,0,0,1,1.967-1.135l49.5,28.466a4,4,0,0,1,2,3.468v43.124L234.264,209.3" transform="translate(-234.264 -164.938)" fill="#f0f8ff"/>
              </g>
            </g>
            <path id="Trazado_214695" data-name="Trazado 214695" d="M263.938,219.379l-9.429-4.768,2.3-1.571,9.083,4.78Z" transform="translate(-235.441 -166.58)" fill="#1b3f5e"/>
            <path id="Trazado_214696" data-name="Trazado 214696" d="M254.169,214.708l-5.456,21.679a1.57,1.57,0,0,0,.753,1.753l11.277,6.345s3.5-24.68,2.855-25.008Z" transform="translate(-235.101 -166.677)" fill="#1b3f5e"/>
            <path id="Trazado_214697" data-name="Trazado 214697" d="M267.515,241.02l-3.879-2.349-.747,5.264Z" transform="translate(-235.928 -168.071)" fill="#f0f0f0"/>
            <path id="Trazado_214698" data-name="Trazado 214698" d="M264.3,219.675l-3.5,23.817a1.129,1.129,0,0,0,1.749,1.1l4.478-3.033a1.192,1.192,0,0,0,.524-.987v-.46a.345.345,0,0,0-.541-.284l-4.244,2.913,3.5-24.625Z" transform="translate(-235.806 -166.875)" fill="#1b3f5e"/>
            <path id="Trazado_214699" data-name="Trazado 214699" d="M263.856,206.507c0,2.085-1.465,2.931-3.271,1.888a7.23,7.23,0,0,1-3.272-5.666c0-2.086,1.465-2.932,3.272-1.888A7.231,7.231,0,0,1,263.856,206.507Z" transform="translate(-235.604 -165.845)" fill="#1b3f5e"/>
          </g>
        </g>
      </g>
      <g id="Grupo_142086" data-name="Grupo 142086" transform="translate(29.656 233.268)">
        <path id="Trazado_214700" data-name="Trazado 214700" d="M223.685,330.585l30-17.182-23.822-13.131-28.946,17.042Z" transform="translate(-200.915 -300.272)" fill="#fff"/>
        <g id="Grupo_142082" data-name="Grupo 142082" transform="translate(6.12 2.971)">
          <path id="Trazado_214701" data-name="Trazado 214701" d="M225.1,328.751a.262.262,0,0,1-.134-.036l-17.421-10.154a.265.265,0,1,1,.267-.459l17.421,10.153a.266.266,0,0,1-.134.5Z" transform="translate(-207.413 -304.278)" fill="#e1e1e1"/>
          <path id="Trazado_214702" data-name="Trazado 214702" d="M228.136,326.911a.261.261,0,0,1-.133-.037l-17.421-10.153a.265.265,0,1,1,.267-.459l17.421,10.152a.266.266,0,0,1-.134.5Z" transform="translate(-207.589 -304.171)" fill="#e1e1e1"/>
          <path id="Trazado_214703" data-name="Trazado 214703" d="M231.089,325.154a.258.258,0,0,1-.134-.037l-17.421-10.152a.265.265,0,1,1,.267-.459l17.421,10.152a.266.266,0,0,1-.134.5Z" transform="translate(-207.761 -304.069)" fill="#e1e1e1"/>
          <path id="Trazado_214704" data-name="Trazado 214704" d="M234.127,323.314a.262.262,0,0,1-.134-.037l-17.421-10.152a.266.266,0,0,1,.267-.46l17.421,10.153a.266.266,0,0,1-.133.5Z" transform="translate(-207.938 -303.962)" fill="#e1e1e1"/>
          <path id="Trazado_214705" data-name="Trazado 214705" d="M237.164,321.473a.259.259,0,0,1-.134-.037L219.61,311.284a.267.267,0,0,1-.1-.364.264.264,0,0,1,.364-.1L237.3,320.978a.266.266,0,0,1-.134.5Z" transform="translate(-208.114 -303.855)" fill="#e1e1e1"/>
          <path id="Trazado_214706" data-name="Trazado 214706" d="M240.2,319.633a.263.263,0,0,1-.134-.037l-17.421-10.152a.266.266,0,0,1,.267-.46l17.421,10.153a.266.266,0,0,1-.134.5Z" transform="translate(-208.291 -303.748)" fill="#e1e1e1"/>
          <path id="Trazado_214707" data-name="Trazado 214707" d="M243.238,317.792a.258.258,0,0,1-.134-.037L225.685,307.6a.265.265,0,1,1,.267-.459L243.372,317.3a.266.266,0,0,1-.134.5Z" transform="translate(-208.467 -303.641)" fill="#e1e1e1"/>
          <path id="Trazado_214708" data-name="Trazado 214708" d="M246.276,315.952a.262.262,0,0,1-.134-.037l-17.421-10.152a.266.266,0,0,1,.268-.46l17.421,10.153a.266.266,0,0,1-.134.5Z" transform="translate(-208.644 -303.534)" fill="#e1e1e1"/>
          <path id="Trazado_214709" data-name="Trazado 214709" d="M249.312,314.111a.262.262,0,0,1-.133-.037l-17.421-10.152a.266.266,0,0,1,.267-.46l17.421,10.153a.266.266,0,0,1-.134.5Z" transform="translate(-208.821 -303.427)" fill="#e1e1e1"/>
        </g>
        <path id="Trazado_214710" data-name="Trazado 214710" d="M201.006,318.276l22.769,13.271v20.395l-22.769-12.572Z" transform="translate(-200.92 -301.319)" fill="#fafafa"/>
        <path id="Trazado_214711" data-name="Trazado 214711" d="M225.181,331.3l30-17.182v20.161l-30,17.416Z" transform="translate(-202.326 -301.077)" fill="#e7e7e7"/>
        <path id="Trazado_214712" data-name="Trazado 214712" d="M219.98,334.283l4.9,2.855,10.593-6.067-10.593,7.617Z" transform="translate(-202.024 -302.063)" fill="#e1e1e1"/>
        <path id="Trazado_214713" data-name="Trazado 214713" d="M219.98,341.985l4.9,2.855,5.984-3.427-5.984,4.977Z" transform="translate(-202.024 -302.664)" fill="#e1e1e1"/>
        <g id="Grupo_142083" data-name="Grupo 142083" transform="translate(25.702 29.599)">
          <path id="Trazado_214714" data-name="Trazado 214714" d="M228.2,338.333l3.746,1.114,2.861-4.332Z" transform="translate(-228.204 -331.897)" fill="#e1e1e1"/>
          <path id="Trazado_214715" data-name="Trazado 214715" d="M228.2,338.134l11.3-6.436-5.65,6.436Z" transform="translate(-228.204 -331.698)" fill="#fff"/>
        </g>
        <g id="Grupo_142084" data-name="Grupo 142084" transform="translate(42.613 17.653)">
          <path id="Trazado_214716" data-name="Trazado 214716" d="M246.159,323.71l2.651.789,2.025-3.066Z" transform="translate(-246.159 -319.155)" fill="#e1e1e1"/>
          <path id="Trazado_214717" data-name="Trazado 214717" d="M246.159,323.569l8-4.555-4,4.555Z" transform="translate(-246.159 -319.014)" fill="#fff"/>
        </g>
        <g id="Grupo_142085" data-name="Grupo 142085" transform="translate(36.892 32.817)">
          <path id="Trazado_214718" data-name="Trazado 214718" d="M240.085,339.81l2.651.789,2.024-3.066Z" transform="translate(-240.085 -335.255)" fill="#e1e1e1"/>
          <path id="Trazado_214719" data-name="Trazado 214719" d="M240.085,339.669l8-4.555-4,4.555Z" transform="translate(-240.085 -335.114)" fill="#fff"/>
        </g>
      </g>
      <g id="Grupo_142102" data-name="Grupo 142102" transform="translate(72.48 211.242)">
        <g id="Grupo_142088" data-name="Grupo 142088" transform="translate(0 61.711)">
          <path id="Trazado_214720" data-name="Trazado 214720" d="M272.762,380.131l-26.184-15.247a.392.392,0,0,1-.008-.672l29.057-17.886Z" transform="translate(-246.383 -342.634)" fill="#d168cb"/>
          <path id="Trazado_214721" data-name="Trazado 214721" d="M272.762,380.131l-26.184-15.247a.392.392,0,0,1-.008-.672l29.057-17.886Z" transform="translate(-246.383 -342.634)" fill="#1b3f5e"/>
          <path id="Trazado_214722" data-name="Trazado 214722" d="M274.391,380.7l29.2-16.9v-7.683l-29.2,16.833Z" transform="translate(-248.012 -343.203)" fill="#d168cb"/>
          <path id="Trazado_214723" data-name="Trazado 214723" d="M274.391,380.7l29.2-16.9v-7.683l-29.2,16.833Z" transform="translate(-248.012 -343.203)" fill="#d84318"/>
          <g id="Grupo_142087" data-name="Grupo 142087" transform="translate(32.063 17.911)">
            <path id="Trazado_214724" data-name="Trazado 214724" d="M298.544,365.291l-11.529,6.656c-.767.443-1.387-.027-1.387-1.049h0a3.324,3.324,0,0,1,1.387-2.652l11.529-6.656c.767-.443,1.388.027,1.388,1.049h0A3.325,3.325,0,0,1,298.544,365.291Z" transform="translate(-280.727 -361.423)" fill="#e7e7e7"/>
            <path id="Trazado_214725" data-name="Trazado 214725" d="M283.63,372.45a3.543,3.543,0,0,1-1.6,2.777c-.885.511-1.6.1-1.6-.926a3.54,3.54,0,0,1,1.6-2.776C282.912,371.014,283.63,371.428,283.63,372.45Z" transform="translate(-280.425 -361.998)" fill="#e7e7e7"/>
          </g>
          <path id="Trazado_214726" data-name="Trazado 214726" d="M272.767,372.15l-26.082-12.258a.392.392,0,0,1-.034-.691l27.976-16.638a1.108,1.108,0,0,1,1.053-.044l26.282,12.8Z" transform="translate(-246.387 -342.406)" fill="#d84318"/>
          <path id="Trazado_214727" data-name="Trazado 214727" d="M248.482,361.81v3.3l21.609,12.223v-5.364Z" transform="translate(-246.505 -343.534)" fill="#f5f5f5"/>
          <path id="Trazado_214728" data-name="Trazado 214728" d="M271.425,377.956l2.794-1.746v-2.3l-2.794-1.313Z" transform="translate(-247.839 -344.161)" fill="#e1e1e1"/>
        </g>
        <g id="Grupo_142089" data-name="Grupo 142089" transform="translate(0.072 50.295)">
          <path id="Trazado_214729" data-name="Trazado 214729" d="M246.46,357.071V348.55h47.61c.163,0,5.273,2.664,7.534,3.847a.649.649,0,0,1,.017,1.142L273.407,369.49a1.4,1.4,0,0,1-1.3.041Z" transform="translate(-246.46 -331.347)" fill="#d168cb"/>
          <path id="Trazado_214730" data-name="Trazado 214730" d="M246.46,357.071V348.55h47.61c.163,0,5.273,2.664,7.534,3.847a.649.649,0,0,1,.017,1.142L273.407,369.49a1.4,1.4,0,0,1-1.3.041Z" transform="translate(-246.46 -331.347)" fill="#1b3f5e"/>
          <path id="Trazado_214731" data-name="Trazado 214731" d="M274.391,367.505,301.4,352.314v-3.3l-27.013,14.37Z" transform="translate(-248.084 -331.374)" fill="#e1e1e1"/>
          <path id="Trazado_214732" data-name="Trazado 214732" d="M246.46,357.071l7.064-4.133-7.064-4.388Z" transform="translate(-246.46 -331.347)" fill="#d168cb"/>
          <path id="Trazado_214733" data-name="Trazado 214733" d="M246.46,357.071l7.064-4.133-7.064-4.388Z" transform="translate(-246.46 -331.347)" fill="#1b3f5e"/>
          <path id="Trazado_214734" data-name="Trazado 214734" d="M251.2,351.492v4.7l21.847,11.455v-4.121Z" transform="translate(-246.735 -331.518)" fill="#f5f5f5"/>
          <path id="Trazado_214735" data-name="Trazado 214735" d="M246.46,347.488l25.4,15.139a1.89,1.89,0,0,0,1.845.05l28-14.667a.651.651,0,0,0,.042-1.116l-25.558-16.61Z" transform="translate(-246.46 -330.285)" fill="#d84318"/>
        </g>
        <g id="Grupo_142091" data-name="Grupo 142091" transform="translate(0 42.49)">
          <path id="Trazado_214736" data-name="Trazado 214736" d="M272.762,359.723l-26.184-15.247a.392.392,0,0,1-.008-.673l29.057-17.886Z" transform="translate(-246.383 -322.226)" fill="#d168cb"/>
          <path id="Trazado_214737" data-name="Trazado 214737" d="M272.762,359.723l-26.184-15.247a.392.392,0,0,1-.008-.673l29.057-17.886Z" transform="translate(-246.383 -322.226)" fill="#1b3f5e"/>
          <path id="Trazado_214738" data-name="Trazado 214738" d="M274.391,360.292l29.2-16.9v-7.683l-29.2,16.833Z" transform="translate(-248.012 -322.795)" fill="#d168cb"/>
          <path id="Trazado_214739" data-name="Trazado 214739" d="M274.391,360.292l29.2-16.9v-7.683l-29.2,16.833Z" transform="translate(-248.012 -322.795)" fill="#d84318"/>
          <g id="Grupo_142090" data-name="Grupo 142090" transform="translate(32.063 17.911)">
            <path id="Trazado_214740" data-name="Trazado 214740" d="M298.544,344.883l-11.529,6.656c-.767.443-1.387-.027-1.387-1.049h0a3.324,3.324,0,0,1,1.387-2.652l11.529-6.656c.767-.443,1.388.027,1.388,1.049h0A3.325,3.325,0,0,1,298.544,344.883Z" transform="translate(-280.727 -341.015)" fill="#e7e7e7"/>
            <path id="Trazado_214741" data-name="Trazado 214741" d="M283.63,352.042a3.543,3.543,0,0,1-1.6,2.777c-.885.511-1.6.1-1.6-.926a3.54,3.54,0,0,1,1.6-2.776C282.912,350.606,283.63,351.02,283.63,352.042Z" transform="translate(-280.425 -341.59)" fill="#e7e7e7"/>
          </g>
          <path id="Trazado_214742" data-name="Trazado 214742" d="M272.767,351.742l-26.082-12.257a.392.392,0,0,1-.034-.692l27.976-16.639a1.111,1.111,0,0,1,1.053-.043l26.282,12.8Z" transform="translate(-246.387 -321.998)" fill="#d84318"/>
          <path id="Trazado_214743" data-name="Trazado 214743" d="M248.482,341.4v3.3l21.609,12.223v-5.364Z" transform="translate(-246.505 -323.126)" fill="#f5f5f5"/>
          <path id="Trazado_214744" data-name="Trazado 214744" d="M271.425,357.548l2.794-1.746v-2.3l-2.794-1.313Z" transform="translate(-247.839 -323.753)" fill="#e1e1e1"/>
        </g>
        <g id="Grupo_142092" data-name="Grupo 142092" transform="translate(0.108 30.514)">
          <path id="Trazado_214745" data-name="Trazado 214745" d="M246.5,336.07v-8.522h47.61c.163,0,5.274,2.665,7.534,3.847a.65.65,0,0,1,.018,1.142l-28.213,15.952a1.4,1.4,0,0,1-1.3.04Z" transform="translate(-246.498 -310.345)" fill="#d168cb"/>
          <path id="Trazado_214746" data-name="Trazado 214746" d="M246.5,336.07v-8.522h47.61c.163,0,5.274,2.665,7.534,3.847a.65.65,0,0,1,.018,1.142l-28.213,15.952a1.4,1.4,0,0,1-1.3.04Z" transform="translate(-246.498 -310.345)" fill="#1b3f5e"/>
          <path id="Trazado_214747" data-name="Trazado 214747" d="M274.429,346.5l27.013-15.191v-3.3l-27.013,14.37Z" transform="translate(-248.122 -310.372)" fill="#e1e1e1"/>
          <path id="Trazado_214748" data-name="Trazado 214748" d="M246.5,336.07l7.064-4.133-7.064-4.389Z" transform="translate(-246.498 -310.345)" fill="#d168cb"/>
          <path id="Trazado_214749" data-name="Trazado 214749" d="M246.5,336.07l7.064-4.133-7.064-4.389Z" transform="translate(-246.498 -310.345)" fill="#1b3f5e"/>
          <path id="Trazado_214750" data-name="Trazado 214750" d="M251.233,330.49v4.7l21.847,11.455v-4.121Z" transform="translate(-246.773 -310.516)" fill="#f5f5f5"/>
          <path id="Trazado_214751" data-name="Trazado 214751" d="M246.5,326.486l25.4,15.139a1.893,1.893,0,0,0,1.845.051l28-14.667a.65.65,0,0,0,.042-1.116l-25.558-16.61Z" transform="translate(-246.498 -309.283)" fill="#d84318"/>
        </g>
        <g id="Grupo_142094" data-name="Grupo 142094" transform="translate(0.036 22.709)">
          <path id="Trazado_214752" data-name="Trazado 214752" d="M272.8,338.721l-26.184-15.246a.393.393,0,0,1-.008-.673l29.057-17.886Z" transform="translate(-246.421 -301.224)" fill="#d168cb"/>
          <path id="Trazado_214753" data-name="Trazado 214753" d="M272.8,338.721l-26.184-15.246a.393.393,0,0,1-.008-.673l29.057-17.886Z" transform="translate(-246.421 -301.224)" fill="#1b3f5e"/>
          <path id="Trazado_214754" data-name="Trazado 214754" d="M274.429,339.29l29.2-16.9V314.7l-29.2,16.833Z" transform="translate(-248.05 -301.794)" fill="#d168cb"/>
          <path id="Trazado_214755" data-name="Trazado 214755" d="M274.429,339.29l29.2-16.9V314.7l-29.2,16.833Z" transform="translate(-248.05 -301.794)" fill="#d84318"/>
          <g id="Grupo_142093" data-name="Grupo 142093" transform="translate(32.063 17.911)">
            <path id="Trazado_214756" data-name="Trazado 214756" d="M298.582,323.881l-11.529,6.657c-.767.443-1.388-.027-1.388-1.05h0a3.325,3.325,0,0,1,1.388-2.652l11.529-6.656c.766-.443,1.387.027,1.387,1.049h0A3.325,3.325,0,0,1,298.582,323.881Z" transform="translate(-280.765 -320.013)" fill="#e7e7e7"/>
            <path id="Trazado_214757" data-name="Trazado 214757" d="M283.669,331.041a3.541,3.541,0,0,1-1.6,2.776c-.885.511-1.6.1-1.6-.925a3.543,3.543,0,0,1,1.6-2.777C282.951,329.6,283.669,330.018,283.669,331.041Z" transform="translate(-280.463 -320.588)" fill="#e7e7e7"/>
          </g>
          <path id="Trazado_214758" data-name="Trazado 214758" d="M272.8,330.74l-26.082-12.257a.392.392,0,0,1-.034-.692l27.977-16.638a1.109,1.109,0,0,1,1.052-.044L302,313.907Z" transform="translate(-246.425 -300.996)" fill="#d84318"/>
          <path id="Trazado_214759" data-name="Trazado 214759" d="M248.521,320.4v3.3l21.608,12.223v-5.364Z" transform="translate(-246.543 -302.125)" fill="#f5f5f5"/>
          <path id="Trazado_214760" data-name="Trazado 214760" d="M271.463,336.546l2.794-1.746v-2.3l-2.794-1.313Z" transform="translate(-247.877 -302.752)" fill="#e1e1e1"/>
        </g>
        <g id="Grupo_142101" data-name="Grupo 142101" transform="translate(2.916)">
          <path id="Trazado_214761" data-name="Trazado 214761" d="M272.248,307.2l30-17.182-23.822-13.131-28.946,17.042Z" transform="translate(-249.479 -276.885)" fill="#fafafa"/>
          <g id="Grupo_142095" data-name="Grupo 142095" transform="translate(6.12 2.971)">
            <path id="Trazado_214762" data-name="Trazado 214762" d="M273.662,305.365a.262.262,0,0,1-.133-.037l-17.421-10.153a.265.265,0,1,1,.267-.459L273.8,304.869a.266.266,0,0,1-.134.5Z" transform="translate(-255.976 -280.891)" fill="#e1e1e1"/>
            <path id="Trazado_214763" data-name="Trazado 214763" d="M276.7,303.524a.265.265,0,0,1-.134-.037l-17.421-10.152a.266.266,0,0,1,.267-.46l17.421,10.153a.266.266,0,0,1-.134.5Z" transform="translate(-256.153 -280.784)" fill="#e1e1e1"/>
            <path id="Trazado_214764" data-name="Trazado 214764" d="M279.653,301.768a.262.262,0,0,1-.134-.037L262.1,291.578a.265.265,0,1,1,.267-.459l17.42,10.152a.266.266,0,0,1-.133.5Z" transform="translate(-256.324 -280.682)" fill="#e1e1e1"/>
            <path id="Trazado_214765" data-name="Trazado 214765" d="M282.69,299.927a.268.268,0,0,1-.134-.037l-17.421-10.152a.265.265,0,1,1,.267-.459l17.421,10.152a.266.266,0,0,1-.134.5Z" transform="translate(-256.501 -280.575)" fill="#e1e1e1"/>
            <path id="Trazado_214766" data-name="Trazado 214766" d="M285.728,298.086a.261.261,0,0,1-.134-.036L268.174,287.9a.265.265,0,1,1,.267-.459l17.42,10.152a.265.265,0,0,1-.133.5Z" transform="translate(-256.678 -280.468)" fill="#e1e1e1"/>
            <path id="Trazado_214767" data-name="Trazado 214767" d="M288.764,296.246a.259.259,0,0,1-.134-.037l-17.42-10.152a.266.266,0,1,1,.267-.46L288.9,295.751a.266.266,0,0,1-.134.5Z" transform="translate(-256.854 -280.361)" fill="#e1e1e1"/>
            <path id="Trazado_214768" data-name="Trazado 214768" d="M291.8,294.405a.262.262,0,0,1-.134-.036l-17.421-10.153a.265.265,0,1,1,.268-.459l17.421,10.152a.266.266,0,0,1-.134.5Z" transform="translate(-257.031 -280.254)" fill="#e1e1e1"/>
            <path id="Trazado_214769" data-name="Trazado 214769" d="M294.839,292.565a.262.262,0,0,1-.133-.037l-17.421-10.152a.266.266,0,1,1,.267-.46l17.421,10.153a.266.266,0,0,1-.134.5Z" transform="translate(-257.207 -280.147)" fill="#e1e1e1"/>
            <path id="Trazado_214770" data-name="Trazado 214770" d="M297.876,290.724a.267.267,0,0,1-.134-.036l-17.421-10.153a.265.265,0,1,1,.268-.459l17.421,10.152a.266.266,0,0,1-.134.5Z" transform="translate(-257.384 -280.04)" fill="#e1e1e1"/>
          </g>
          <path id="Trazado_214771" data-name="Trazado 214771" d="M249.57,294.889l22.77,13.271v20.395l-22.77-12.572Z" transform="translate(-249.484 -277.932)" fill="#f0f0f0"/>
          <path id="Trazado_214772" data-name="Trazado 214772" d="M273.745,307.918l30-17.182V310.9l-30,17.416Z" transform="translate(-250.89 -277.691)" fill="#e7e7e7"/>
          <path id="Trazado_214773" data-name="Trazado 214773" d="M268.544,310.9l4.9,2.855,10.593-6.067L273.442,315.3Z" transform="translate(-250.587 -278.676)" fill="#e1e1e1"/>
          <path id="Trazado_214774" data-name="Trazado 214774" d="M268.544,318.6l4.9,2.855,5.983-3.427L273.442,323Z" transform="translate(-250.587 -279.277)" fill="#e1e1e1"/>
          <g id="Grupo_142096" data-name="Grupo 142096" transform="translate(25.703 29.599)">
            <path id="Trazado_214775" data-name="Trazado 214775" d="M276.768,314.946l3.745,1.114,2.861-4.332Z" transform="translate(-276.768 -308.51)" fill="#e1e1e1"/>
            <path id="Trazado_214776" data-name="Trazado 214776" d="M276.768,314.747l11.3-6.436-5.65,6.436Z" transform="translate(-276.768 -308.311)" fill="#fff"/>
          </g>
          <g id="Grupo_142097" data-name="Grupo 142097" transform="translate(42.613 17.653)">
            <path id="Trazado_214777" data-name="Trazado 214777" d="M294.723,300.323l2.651.789,2.025-3.066Z" transform="translate(-294.723 -295.768)" fill="#e1e1e1"/>
            <path id="Trazado_214778" data-name="Trazado 214778" d="M294.723,300.182l8-4.555-4,4.555Z" transform="translate(-294.723 -295.628)" fill="#fff"/>
          </g>
          <g id="Grupo_142098" data-name="Grupo 142098" transform="translate(36.892 32.817)">
            <path id="Trazado_214779" data-name="Trazado 214779" d="M288.648,316.423l2.651.789,2.024-3.066Z" transform="translate(-288.648 -311.868)" fill="#e1e1e1"/>
            <path id="Trazado_214780" data-name="Trazado 214780" d="M288.648,316.283l8-4.555-4,4.555Z" transform="translate(-288.648 -311.728)" fill="#fff"/>
          </g>
          <g id="Grupo_142099" data-name="Grupo 142099" transform="translate(2.387 34.663)">
            <path id="Trazado_214781" data-name="Trazado 214781" d="M258.037,317.136l-1.947.579-1.487-2.252Z" transform="translate(-252.164 -313.791)" fill="#e1e1e1"/>
            <path id="Trazado_214782" data-name="Trazado 214782" d="M257.886,317.033l-5.874-3.345,2.937,3.345Z" transform="translate(-252.013 -313.688)" fill="#fff"/>
          </g>
          <g id="Grupo_142100" data-name="Grupo 142100" transform="translate(7.901 25.445)">
            <path id="Trazado_214783" data-name="Trazado 214783" d="M266.07,308.6l-2.651.789-2.025-3.066Z" transform="translate(-258.073 -304.042)" fill="#e1e1e1"/>
            <path id="Trazado_214784" data-name="Trazado 214784" d="M265.865,308.456l-8-4.555,4,4.555Z" transform="translate(-257.867 -303.902)" fill="#fff"/>
          </g>
        </g>
      </g>
      <g id="Grupo_142115" data-name="Grupo 142115" transform="translate(191.632 119.351)">
        <path id="Trazado_214785" data-name="Trazado 214785" d="M464.22,352.388l-2.549-1.065.664-3.091Z" transform="translate(-378.053 -189.143)" fill="#2b454e"/>
        <path id="Trazado_214786" data-name="Trazado 214786" d="M467.125,343.82l1.083,4.854-3.946,3.457-1.886-4.156Z" transform="translate(-378.094 -188.887)" fill="#375a64"/>
        <path id="Trazado_214787" data-name="Trazado 214787" d="M455.34,338.234a30.192,30.192,0,0,0-1.607,6.217,15.666,15.666,0,0,1-4.016,8.032c-1.851,1.71-5.169,5.646.585,6.356,5.946.734,10.94-4.19,11.009-6.915s.807-4.869,2.27-6.146c1.565-1.367,2.654-2.515,2.654-2.515s-2.65-9.522-4.922-8.987S455.34,338.234,455.34,338.234Z" transform="translate(-377.204 -188.33)" fill="#1a2e35"/>
        <g id="Grupo_142103" data-name="Grupo 142103" transform="translate(37.314 67.557)">
          <path id="Trazado_214788" data-name="Trazado 214788" d="M455.632,324.083c-1.71-2.58-3.644-5.626-5.2-8.427-3.667-6.6-9.22-17.078-14.668-19.173V252.01l-20.919-.961s-6.844,24.376,2.9,43.968c6.981,14.035,22.132,28.66,30.165,35.827C450.416,330.433,455,329.011,455.632,324.083Z" transform="translate(-412.509 -251.049)" fill="#636363"/>
          <path id="Trazado_214789" data-name="Trazado 214789" d="M462.045,334.727s-1.909-2.638-4.228-6.135c-.637,4.928-5.216,6.35-7.724,6.761,3.18,2.837,5.247,4.509,5.247,4.509S462.151,340.8,462.045,334.727Z" transform="translate(-414.694 -255.558)" fill="#a65958"/>
        </g>
        <path id="Trazado_214790" data-name="Trazado 214790" d="M417.159,293.648l5.61-27.669s-4.19-2.444-4.19-8.905c0,0-.524,6.234,2.3,10.739l-4.826,23.129C416.391,291.851,416.764,292.751,417.159,293.648Z" transform="translate(-375.401 -183.843)" fill="#2b454e"/>
        <path id="Trazado_214791" data-name="Trazado 214791" d="M436.705,299.189v-1.6l-2.671,1.708-4.872,7.543-.455,5.917c1.917,2.362,3.913,4.653,5.912,6.827l.393-9.706,3.672-9.578A8.852,8.852,0,0,0,436.705,299.189Z" transform="translate(-376.136 -186.198)" fill="#2b454e"/>
        <path id="Trazado_214792" data-name="Trazado 214792" d="M417.4,278.6" transform="translate(-375.479 -185.094)" fill="#375a64"/>
        <g id="Grupo_142104" data-name="Grupo 142104" transform="translate(22.651 170.666)">
          <path id="Trazado_214793" data-name="Trazado 214793" d="M416.609,376.963l-2.584-1.467,2.584-3.423Z" transform="translate(-397.934 -361.196)" fill="#2b454e"/>
          <path id="Trazado_214794" data-name="Trazado 214794" d="M420.527,370.294v4.33l-3.758,2.235V371.97Z" transform="translate(-398.094 -361.092)" fill="#375a64"/>
          <path id="Trazado_214795" data-name="Trazado 214795" d="M411.216,360.546s-1.467-.6-2.864,4.5-7.194,8.382-8.66,9.289-5.378,4.61,0,6.5,12.153-.908,13.76-4.121,2.418-5.169,5.923-6.985v-6.5a2.828,2.828,0,0,0-2.152-2.374C416.385,360.646,411.216,360.546,411.216,360.546Z" transform="translate(-396.941 -360.524)" fill="#1a2e35"/>
        </g>
        <g id="Grupo_142105" data-name="Grupo 142105" transform="translate(36.001 65.898)">
          <path id="Trazado_214796" data-name="Trazado 214796" d="M441.891,250.947l-23.573-1.659v7.333c0,6.461,4.19,8.905,4.19,8.905L415.377,300.7a39.933,39.933,0,0,0-.7,5.134l-3.093,44.094a8.941,8.941,0,0,0,8.64,1.754c1.6-4.912,4.335-13.119,7.556-22.088,3.887-10.82,4.061-18.323,3.908-21.377a6.981,6.981,0,0,1,.555-3.128c1.288-2.979,4.412-10.216,9.646-22.43C451.631,259.93,441.891,250.947,441.891,250.947Z" transform="translate(-411.141 -249.288)" fill="#636363"/>
          <path id="Trazado_214797" data-name="Trazado 214797" d="M411.559,356.14l-.445,6.329a4.722,4.722,0,0,0,7.561.157s.555-1.765,1.523-4.733A8.941,8.941,0,0,1,411.559,356.14Z" transform="translate(-411.114 -255.501)" fill="#a65958"/>
        </g>
        <g id="Grupo_142109" data-name="Grupo 142109" transform="translate(31.06)">
          <g id="Grupo_142106" data-name="Grupo 142106" transform="translate(0 33.612)">
            <path id="Trazado_214798" data-name="Trazado 214798" d="M420.333,215.009s-6.581.251-8.882,5.085-5.583,14.584-5.583,14.584l8.826,1.983Z" transform="translate(-405.868 -215.009)" fill="#d168cb"/>
            <path id="Trazado_214799" data-name="Trazado 214799" d="M420.333,215.009s-6.581.251-8.882,5.085-5.583,14.584-5.583,14.584l8.826,1.983Z" transform="translate(-405.868 -215.009)" fill="#fff59d"/>
          </g>
          <path id="Trazado_214800" data-name="Trazado 214800" d="M434.7,216l7.146,1.24V233.3l-2.235,8.521s.419,4.61,2.235,7.124c0,0-12.712,9.639-27.1,0,0,0,.559-8.382.559-10.756,0,0-4.871-2.934-4.392-7.4S420.625,215,420.625,215l5.072-.067Z" transform="translate(-406.16 -181.393)" fill="#d168cb"/>
          <path id="Trazado_214801" data-name="Trazado 214801" d="M434.7,216l7.146,1.24V233.3l-2.235,8.521s.419,4.61,2.235,7.124c0,0-12.712,9.639-27.1,0,0,0,.559-8.382.559-10.756,0,0-4.871-2.934-4.392-7.4S420.625,215,420.625,215l5.072-.067Z" transform="translate(-406.16 -181.393)" fill="#fff59d"/>
          <path id="Trazado_214802" data-name="Trazado 214802" d="M422.428,181.131s-6.167-2.141-7.671,4.176,3.134,12.448-3.838,14.546c0,0,4.1,3.412,7.71-2.96l3.077,12.968s-.012.707-1.079,1.248c0,0,17.546,3.9,20.9-4.851a3.736,3.736,0,0,1,.767,3.845s5.172-2.1,3.718-8.79c0,0,4.09-.119,5.063-3.445,0,0-6.544.312-6.5-6.909.046-8.339-4.343-7.133-4.343-7.133S434.836,175.844,422.428,181.131Z" transform="translate(-406.162 -179.322)" fill="#1a2e35"/>
          <g id="Grupo_142107" data-name="Grupo 142107" transform="translate(9.756 2.399)">
            <path id="Trazado_214803" data-name="Trazado 214803" d="M426.4,208.706v5.57s-5,8.624-3.019,9.181c3.729,1.048,12.027-8.119,12.027-8.119V203.56Z" transform="translate(-416.615 -183.13)" fill="#a55959"/>
            <path id="Trazado_214804" data-name="Trazado 214804" d="M435.514,201.464l0,.323c-2.007,7.917-7.224,9.643-8.909,10.046l-.061-12.256,8.712-.041Z" transform="translate(-416.826 -182.896)" fill="#803535"/>
            <path id="Trazado_214805" data-name="Trazado 214805" d="M426.577,182.861a11.069,11.069,0,0,0-10.345,11.473c-.1,8.767,1.239,15.453,5.783,15.732s14.7-3.827,15.173-15.2S429.821,182.594,426.577,182.861Z" transform="translate(-416.226 -181.924)" fill="#a55959"/>
            <path id="Trazado_214806" data-name="Trazado 214806" d="M422.567,198.782l.08,5.147-3.028-.879Z" transform="translate(-416.423 -182.852)" fill="#803535"/>
            <path id="Trazado_214807" data-name="Trazado 214807" d="M427.423,198.572a1.049,1.049,0,1,1-1.063-1.034A1.049,1.049,0,0,1,427.423,198.572Z" transform="translate(-416.755 -182.78)" fill="#1a2e35"/>
            <path id="Trazado_214808" data-name="Trazado 214808" d="M420.089,197.9a1.048,1.048,0,1,1-1.063-1.034A1.048,1.048,0,0,1,420.089,197.9Z" transform="translate(-416.329 -182.741)" fill="#1a2e35"/>
            <path id="Trazado_214809" data-name="Trazado 214809" d="M417.712,195.572l2.033-1.246s-.8-.807-1.576-.305A1.432,1.432,0,0,0,417.712,195.572Z" transform="translate(-416.309 -182.566)" fill="#d168cb"/>
            <path id="Trazado_214810" data-name="Trazado 214810" d="M417.712,195.572l2.033-1.246s-.8-.807-1.576-.305A1.432,1.432,0,0,0,417.712,195.572Z" transform="translate(-416.309 -182.566)" fill="#1a2e35"/>
            <path id="Trazado_214811" data-name="Trazado 214811" d="M432.256,197.186s-.206,3.69,1.92,3.69h4.163v-7.036c0-7.889-5.985-16.132-18.72-9.615C419.619,184.225,419,194.757,432.256,197.186Z" transform="translate(-416.423 -181.869)" fill="#1a2e35"/>
            <path id="Trazado_214812" data-name="Trazado 214812" d="M435.052,201.346a5.362,5.362,0,0,1,.46-2.337,2.473,2.473,0,0,1,2.164-1.659c2.479-.043,2.79,2.347,2.747,3.2a5.085,5.085,0,0,1-5.3,4.679Z" transform="translate(-417.321 -182.769)" fill="#a55959"/>
            <path id="Trazado_214813" data-name="Trazado 214813" d="M425.573,205.925a.864.864,0,1,1-.865-.865A.864.864,0,0,1,425.573,205.925Z" transform="translate(-416.669 -183.217)" fill="#803535"/>
          </g>
          <g id="Grupo_142108" data-name="Grupo 142108" transform="translate(27.204 35.847)">
            <path id="Trazado_214814" data-name="Trazado 214814" d="M443.238,217.382s-5.867,2.13-3.3,12.4,5.029,18.858,5.029,18.858l-10.214,6.129s3.719,1.781,2.881,8.33c0,0,13.357-3.3,16.448-5.553s2.043-8.8,1.309-12.415-4.19-18.282-4.714-20.273S448.587,218.309,443.238,217.382Z" transform="translate(-434.752 -217.382)" fill="#d168cb"/>
            <path id="Trazado_214815" data-name="Trazado 214815" d="M443.238,217.382s-5.867,2.13-3.3,12.4,5.029,18.858,5.029,18.858l-10.214,6.129s3.719,1.781,2.881,8.33c0,0,13.357-3.3,16.448-5.553s2.043-8.8,1.309-12.415-4.19-18.282-4.714-20.273S448.587,218.309,443.238,217.382Z" transform="translate(-434.752 -217.382)" fill="#fff59d"/>
            <path id="Trazado_214816" data-name="Trazado 214816" d="M445.57,250.471a9.294,9.294,0,0,1,5.762,1.415,8.255,8.255,0,0,0-6.2-2.966Z" transform="translate(-435.356 -219.216)" fill="#d168cb"/>
          </g>
        </g>
        <g id="Grupo_142111" data-name="Grupo 142111" transform="translate(0 54.227)">
          <path id="Trazado_214817" data-name="Trazado 214817" d="M399.27,274.62l-26.184-15.246a.392.392,0,0,1-.008-.672l29.057-17.886Z" transform="translate(-372.891 -237.124)" fill="#d168cb"/>
          <path id="Trazado_214818" data-name="Trazado 214818" d="M399.27,274.62l-26.184-15.246a.392.392,0,0,1-.008-.672l29.057-17.886Z" transform="translate(-372.891 -237.124)" fill="#fff59d"/>
          <path id="Trazado_214819" data-name="Trazado 214819" d="M400.9,275.19l29.2-16.9V250.6l-29.2,16.833Z" transform="translate(-374.52 -237.693)" fill="#d168cb"/>
          <path id="Trazado_214820" data-name="Trazado 214820" d="M400.9,275.19l29.2-16.9V250.6l-29.2,16.833Z" transform="translate(-374.52 -237.693)" fill="#1b3f5e"/>
          <g id="Grupo_142110" data-name="Grupo 142110" transform="translate(32.063 17.911)">
            <path id="Trazado_214821" data-name="Trazado 214821" d="M425.052,259.781l-11.529,6.656c-.767.443-1.387-.027-1.387-1.049h0a3.324,3.324,0,0,1,1.387-2.652l11.529-6.656c.767-.443,1.388.027,1.388,1.049h0A3.325,3.325,0,0,1,425.052,259.781Z" transform="translate(-407.235 -255.913)" fill="#e7e7e7"/>
            <path id="Trazado_214822" data-name="Trazado 214822" d="M410.138,266.94a3.543,3.543,0,0,1-1.6,2.777c-.884.511-1.6.1-1.6-.926a3.543,3.543,0,0,1,1.6-2.776C409.42,265.5,410.138,265.918,410.138,266.94Z" transform="translate(-406.933 -256.488)" fill="#e7e7e7"/>
          </g>
          <path id="Trazado_214823" data-name="Trazado 214823" d="M399.275,266.64l-26.082-12.258a.392.392,0,0,1-.034-.691l27.976-16.639a1.111,1.111,0,0,1,1.053-.043l26.282,12.8Z" transform="translate(-372.895 -236.896)" fill="#d84318"/>
          <path id="Trazado_214824" data-name="Trazado 214824" d="M374.99,256.3v3.3L396.6,271.819v-5.364Z" transform="translate(-373.013 -238.024)" fill="#f5f5f5"/>
          <path id="Trazado_214825" data-name="Trazado 214825" d="M397.933,272.446l2.794-1.746v-2.3l-2.794-1.313Z" transform="translate(-374.347 -238.651)" fill="#e1e1e1"/>
        </g>
        <path id="Trazado_214826" data-name="Trazado 214826" d="M436.349,265.4s-11.42,2.462-12.52,2.724-6.6,1.99-11.157.995l11.262-6.495s-5.751-1.4-4.924-3.2c.315-.681,11-.315,11-.315l3.458-2.043S439.6,257.86,436.349,265.4Z" transform="translate(-375.204 -183.843)" fill="#a65958"/>
        <g id="Grupo_142112" data-name="Grupo 142112" transform="translate(0.072 42.81)">
          <path id="Trazado_214827" data-name="Trazado 214827" d="M372.968,251.561V243.04h47.61c.163,0,5.273,2.665,7.534,3.847a.649.649,0,0,1,.017,1.142L399.915,263.98a1.4,1.4,0,0,1-1.3.041Z" transform="translate(-372.968 -225.837)" fill="#d168cb"/>
          <path id="Trazado_214828" data-name="Trazado 214828" d="M372.968,251.561V243.04h47.61c.163,0,5.273,2.665,7.534,3.847a.649.649,0,0,1,.017,1.142L399.915,263.98a1.4,1.4,0,0,1-1.3.041Z" transform="translate(-372.968 -225.837)" fill="#1b3f5e"/>
          <path id="Trazado_214829" data-name="Trazado 214829" d="M400.9,262,427.912,246.8v-3.3L400.9,257.874Z" transform="translate(-374.592 -225.864)" fill="#e1e1e1"/>
          <path id="Trazado_214830" data-name="Trazado 214830" d="M372.968,251.561l7.064-4.133-7.064-4.389Z" transform="translate(-372.968 -225.837)" fill="#d168cb"/>
          <path id="Trazado_214831" data-name="Trazado 214831" d="M372.968,251.561l7.064-4.133-7.064-4.389Z" transform="translate(-372.968 -225.837)" fill="#fff59d"/>
          <path id="Trazado_214832" data-name="Trazado 214832" d="M377.7,245.982v4.7l21.847,11.455v-4.121Z" transform="translate(-373.243 -226.008)" fill="#f5f5f5"/>
          <path id="Trazado_214833" data-name="Trazado 214833" d="M372.968,241.978l25.4,15.139a1.893,1.893,0,0,0,1.845.051l28-14.667a.651.651,0,0,0,.042-1.116L402.7,224.775Z" transform="translate(-372.968 -224.775)" fill="#d84318"/>
        </g>
        <g id="Grupo_142114" data-name="Grupo 142114" transform="translate(0 35.005)">
          <path id="Trazado_214834" data-name="Trazado 214834" d="M399.27,254.213l-26.184-15.247a.392.392,0,0,1-.008-.673l29.057-17.886Z" transform="translate(-372.891 -216.716)" fill="#d168cb"/>
          <path id="Trazado_214835" data-name="Trazado 214835" d="M399.27,254.213l-26.184-15.247a.392.392,0,0,1-.008-.673l29.057-17.886Z" transform="translate(-372.891 -216.716)" fill="#fff59d"/>
          <path id="Trazado_214836" data-name="Trazado 214836" d="M400.9,254.782l29.2-16.9V230.2l-29.2,16.833Z" transform="translate(-374.52 -217.285)" fill="#d168cb"/>
          <path id="Trazado_214837" data-name="Trazado 214837" d="M400.9,254.782l29.2-16.9V230.2l-29.2,16.833Z" transform="translate(-374.52 -217.285)" fill="#1b3f5e"/>
          <g id="Grupo_142113" data-name="Grupo 142113" transform="translate(32.063 17.911)">
            <path id="Trazado_214838" data-name="Trazado 214838" d="M425.052,239.373l-11.529,6.656c-.767.443-1.387-.027-1.387-1.049h0a3.324,3.324,0,0,1,1.387-2.652l11.529-6.656c.767-.443,1.388.027,1.388,1.049h0A3.325,3.325,0,0,1,425.052,239.373Z" transform="translate(-407.235 -235.505)" fill="#e7e7e7"/>
            <path id="Trazado_214839" data-name="Trazado 214839" d="M410.138,246.532a3.543,3.543,0,0,1-1.6,2.777c-.884.511-1.6.1-1.6-.926a3.543,3.543,0,0,1,1.6-2.776C409.42,245.1,410.138,245.51,410.138,246.532Z" transform="translate(-406.933 -236.08)" fill="#e7e7e7"/>
          </g>
          <path id="Trazado_214840" data-name="Trazado 214840" d="M399.275,246.232l-26.082-12.258a.392.392,0,0,1-.034-.691l27.976-16.638a1.108,1.108,0,0,1,1.053-.044l26.282,12.8Z" transform="translate(-372.895 -216.488)" fill="#d84318"/>
          <path id="Trazado_214841" data-name="Trazado 214841" d="M374.99,235.892v3.3L396.6,251.411v-5.364Z" transform="translate(-373.013 -217.616)" fill="#f5f5f5"/>
          <path id="Trazado_214842" data-name="Trazado 214842" d="M397.933,252.038l2.794-1.746v-2.3l-2.794-1.313Z" transform="translate(-374.347 -218.243)" fill="#e1e1e1"/>
        </g>
      </g>
    </g>
  </g>
</svg>
