<svg xmlns="http://www.w3.org/2000/svg" xmlns:xlink="http://www.w3.org/1999/xlink" width="366.48" height="415.503" viewBox="0 0 366.48 415.503">
  <defs>
    <linearGradient id="linear-gradient" x1="0.04" y1="0.5" x2="1.095" y2="0.5" gradientUnits="objectBoundingBox">
      <stop offset="0.056" stop-color="#200041"/>
      <stop offset="0.258" stop-color="#210143"/>
      <stop offset="0.357" stop-color="#25084a"/>
      <stop offset="0.434" stop-color="#2c1357"/>
      <stop offset="0.47" stop-color="#311b61"/>
      <stop offset="0.482" stop-color="#351f65"/>
      <stop offset="0.495" stop-color="#422c72"/>
      <stop offset="0.509" stop-color="#574188"/>
      <stop offset="0.523" stop-color="#755fa6"/>
      <stop offset="0.53" stop-color="#8770b8"/>
      <stop offset="0.537" stop-color="#7d66ae"/>
      <stop offset="0.562" stop-color="#5c458c"/>
      <stop offset="0.586" stop-color="#442e74"/>
      <stop offset="0.608" stop-color="#351f66"/>
      <stop offset="0.626" stop-color="#311b61"/>
      <stop offset="0.672" stop-color="#2a1054"/>
      <stop offset="0.749" stop-color="#220446"/>
      <stop offset="0.813" stop-color="#200041"/>
      <stop offset="1" stop-color="#200041"/>
    </linearGradient>
    <linearGradient id="linear-gradient-3" x1="0.322" y1="0.682" x2="0.8" y2="0.233" gradientUnits="objectBoundingBox">
      <stop offset="0" stop-color="#311b61"/>
      <stop offset="0.203" stop-color="#290e52"/>
      <stop offset="0.495" stop-color="#200041"/>
      <stop offset="1" stop-color="#0f001f"/>
    </linearGradient>
    <linearGradient id="linear-gradient-4" x1="0.425" y1="0.643" x2="0.553" y2="0.278" gradientUnits="objectBoundingBox">
      <stop offset="0" stop-color="#fff"/>
      <stop offset="1"/>
    </linearGradient>
    <radialGradient id="radial-gradient" cx="0.579" cy="0.722" r="1.054" gradientTransform="translate(0.322) scale(0.356 1)" gradientUnits="objectBoundingBox">
      <stop offset="0" stop-color="#af8afc"/>
      <stop offset="1" stop-color="#10054d"/>
    </radialGradient>
    <radialGradient id="radial-gradient-2" cx="0.5" cy="0.5" r="0.436" gradientTransform="matrix(1.033, -0.38, 0.496, 1.081, 3.116, 3.653)" gradientUnits="objectBoundingBox">
      <stop offset="0" stop-color="#d84318"/>
      <stop offset="0.063" stop-color="#bc3a14"/>
      <stop offset="0.19" stop-color="#8b2b0f"/>
      <stop offset="0.321" stop-color="#601d0a"/>
      <stop offset="0.452" stop-color="#3d1306"/>
      <stop offset="0.585" stop-color="#220a03"/>
      <stop offset="0.719" stop-color="#0f0401"/>
      <stop offset="0.856" stop-color="#030100"/>
      <stop offset="1"/>
    </radialGradient>
    <radialGradient id="radial-gradient-3" cx="0.973" cy="0.472" r="0.103" gradientTransform="translate(-0.201) scale(1.403 1)" xlink:href="#radial-gradient"/>
    <radialGradient id="radial-gradient-4" cx="0.5" cy="0.5" r="0.5" gradientTransform="translate(0)" gradientUnits="objectBoundingBox">
      <stop offset="0.086" stop-color="#d84318"/>
      <stop offset="0.096" stop-color="#b8332a"/>
      <stop offset="0.126" stop-color="#5b0663"/>
      <stop offset="0.149" stop-color="#500557"/>
      <stop offset="0.214" stop-color="#37033c"/>
      <stop offset="0.288" stop-color="#230226"/>
      <stop offset="0.374" stop-color="#130114"/>
      <stop offset="0.479" stop-color="#080008"/>
      <stop offset="0.624" stop-color="#010001"/>
      <stop offset="1"/>
    </radialGradient>
    <radialGradient id="radial-gradient-5" cx="0.621" cy="0.442" r="1.087" gradientTransform="translate(0.328) scale(0.344 1)" gradientUnits="objectBoundingBox">
      <stop offset="0" stop-color="#fa45c1"/>
      <stop offset="0.205" stop-color="#cb389d"/>
      <stop offset="0.668" stop-color="#571843"/>
      <stop offset="1"/>
    </radialGradient>
    <linearGradient id="linear-gradient-5" x1="-83.199" y1="1.015" x2="-83.729" y2="0.013" gradientUnits="objectBoundingBox">
      <stop offset="0" stop-color="#1e1f21"/>
      <stop offset="0.076" stop-color="#2c2d30"/>
      <stop offset="0.223" stop-color="#505358"/>
      <stop offset="0.268" stop-color="#5d6066"/>
      <stop offset="0.606" stop-color="#37383c"/>
    </linearGradient>
    <linearGradient id="linear-gradient-6" x1="-98.855" y1="0.5" x2="-97.855" y2="0.5" gradientUnits="objectBoundingBox">
      <stop offset="0" stop-color="#484b4f"/>
      <stop offset="1" stop-color="#1e1f21"/>
    </linearGradient>
    <linearGradient id="linear-gradient-7" x1="-211.953" y1="0.5" x2="-210.953" y2="0.5" gradientUnits="objectBoundingBox">
      <stop offset="0" stop-color="#d4d1d8"/>
      <stop offset="0.855" stop-color="#a5a5b8"/>
      <stop offset="1" stop-color="#9d9eb3"/>
    </linearGradient>
    <radialGradient id="radial-gradient-6" cx="0.5" cy="0.5" r="0.473" gradientTransform="matrix(-1.126, 0, 0, 1, -247.966, 0)" xlink:href="#linear-gradient-4"/>
    <linearGradient id="linear-gradient-8" x1="-91.813" y1="1.016" x2="-92.343" y2="0.013" xlink:href="#linear-gradient-5"/>
    <linearGradient id="linear-gradient-9" x1="-108.951" y1="0.5" x2="-107.951" y2="0.5" xlink:href="#linear-gradient-6"/>
    <linearGradient id="linear-gradient-10" x1="-233.597" y1="0.5" x2="-232.597" y2="0.5" xlink:href="#linear-gradient-7"/>
    <radialGradient id="radial-gradient-7" cx="0.5" cy="0.5" r="0.473" gradientTransform="matrix(-1.126, 0, 0, 1, -273.452, 0)" xlink:href="#linear-gradient-4"/>
    <linearGradient id="linear-gradient-11" x1="-74.787" y1="1.015" x2="-75.317" y2="0.013" xlink:href="#linear-gradient-5"/>
    <linearGradient id="linear-gradient-12" x1="-88.98" y1="0.5" x2="-87.98" y2="0.5" xlink:href="#linear-gradient-6"/>
    <linearGradient id="linear-gradient-13" x1="-190.842" y1="0.5" x2="-189.842" y2="0.5" xlink:href="#linear-gradient-7"/>
    <radialGradient id="radial-gradient-8" cx="0.5" cy="0.5" r="0.473" gradientTransform="matrix(-1.125, 0, 0, 1, -223.051, 0)" xlink:href="#linear-gradient-4"/>
    <linearGradient id="linear-gradient-14" y1="0.5" x2="1" y2="0.5" gradientUnits="objectBoundingBox">
      <stop offset="0.025" stop-color="#c7bcd6"/>
      <stop offset="0.297" stop-color="#e2e1e5"/>
      <stop offset="0.333" stop-color="#e6e7e8"/>
      <stop offset="0.427" stop-color="#dcd9e2"/>
      <stop offset="0.591" stop-color="#d0c9db"/>
      <stop offset="0.772" stop-color="#c9bfd7"/>
      <stop offset="1" stop-color="#c7bcd6"/>
    </linearGradient>
    <linearGradient id="linear-gradient-27" x1="-83.651" y1="0.904" x2="-84.263" y2="0.029" xlink:href="#linear-gradient-5"/>
    <linearGradient id="linear-gradient-28" x1="-99.421" y1="0.5" x2="-98.421" y2="0.5" xlink:href="#linear-gradient-6"/>
    <linearGradient id="linear-gradient-29" x1="-213.179" y1="0.5" x2="-212.179" y2="0.5" xlink:href="#linear-gradient-7"/>
    <radialGradient id="radial-gradient-9" cx="0.5" cy="0.5" r="0.424" gradientTransform="matrix(-1.514, 0, 0, 1, -294.985, 0)" xlink:href="#linear-gradient-4"/>
    <linearGradient id="linear-gradient-30" x1="-74.994" y1="0.904" x2="-75.606" y2="0.029" xlink:href="#linear-gradient-5"/>
    <linearGradient id="linear-gradient-31" x1="-89.284" y1="0.5" x2="-88.284" y2="0.5" xlink:href="#linear-gradient-6"/>
    <linearGradient id="linear-gradient-32" x1="-191.381" y1="0.5" x2="-190.381" y2="0.5" xlink:href="#linear-gradient-7"/>
    <radialGradient id="radial-gradient-10" cx="0.5" cy="0.5" r="0.424" gradientTransform="matrix(-1.514, 0, 0, 1, -264.583, 0)" xlink:href="#linear-gradient-4"/>
    <linearGradient id="linear-gradient-33" x1="0.742" y1="0.487" x2="0.29" y2="0.511" xlink:href="#linear-gradient-14"/>
    <linearGradient id="linear-gradient-34" x1="0.754" y1="0.486" x2="0.247" y2="0.514" xlink:href="#linear-gradient-14"/>
    <linearGradient id="linear-gradient-35" x1="0.754" y1="0.486" x2="0.246" y2="0.514" xlink:href="#linear-gradient-14"/>
    <linearGradient id="linear-gradient-36" x1="0.753" y1="0.486" x2="0.247" y2="0.514" xlink:href="#linear-gradient-14"/>
    <linearGradient id="linear-gradient-37" x1="0.753" y1="0.486" x2="0.246" y2="0.514" xlink:href="#linear-gradient-14"/>
    <linearGradient id="linear-gradient-38" x1="0.754" y1="0.486" x2="0.246" y2="0.514" xlink:href="#linear-gradient-14"/>
    <linearGradient id="linear-gradient-40" x1="0.753" y1="0.486" x2="0.247" y2="0.514" xlink:href="#linear-gradient-14"/>
    <linearGradient id="linear-gradient-41" x1="0.753" y1="0.486" x2="0.247" y2="0.514" xlink:href="#linear-gradient-14"/>
    <linearGradient id="linear-gradient-42" x1="0.482" y1="0.327" x2="0.517" y2="0.671" xlink:href="#linear-gradient-14"/>
    <linearGradient id="linear-gradient-43" x1="0.482" y1="0.323" x2="0.518" y2="0.677" xlink:href="#linear-gradient-14"/>
    <linearGradient id="linear-gradient-44" x1="0.449" y1="0.494" x2="0.55" y2="0.506" xlink:href="#linear-gradient-14"/>
    <linearGradient id="linear-gradient-45" x1="0.482" y1="0.323" x2="0.518" y2="0.677" xlink:href="#linear-gradient-14"/>
    <linearGradient id="linear-gradient-46" x1="0.482" y1="0.323" x2="0.518" y2="0.677" xlink:href="#linear-gradient-14"/>
    <linearGradient id="linear-gradient-47" x1="0.482" y1="0.323" x2="0.518" y2="0.677" xlink:href="#linear-gradient-14"/>
    <linearGradient id="linear-gradient-49" x1="0.449" y1="0.494" x2="0.551" y2="0.506" xlink:href="#linear-gradient-14"/>
    <linearGradient id="linear-gradient-50" x1="-83.161" y1="0.904" x2="-83.773" y2="0.029" xlink:href="#linear-gradient-5"/>
    <radialGradient id="radial-gradient-11" cx="0.5" cy="0.5" r="0.424" gradientTransform="matrix(-1.514, 0, 0, 1, -293.283, 0)" xlink:href="#linear-gradient-4"/>
    <linearGradient id="linear-gradient-53" x1="-91.823" y1="0.904" x2="-92.435" y2="0.029" xlink:href="#linear-gradient-5"/>
    <linearGradient id="linear-gradient-54" x1="-109.001" y1="0.5" x2="-108.001" y2="0.5" xlink:href="#linear-gradient-6"/>
    <linearGradient id="linear-gradient-55" x1="-233.633" y1="0.5" x2="-232.633" y2="0.5" xlink:href="#linear-gradient-7"/>
    <radialGradient id="radial-gradient-12" cx="0.5" cy="0.5" r="0.424" gradientTransform="matrix(-1.514, 0, 0, 1, -323.492, 0)" xlink:href="#linear-gradient-4"/>
    <linearGradient id="linear-gradient-57" x1="0.159" y1="0.53" x2="4.51" y2="0.142" gradientUnits="objectBoundingBox">
      <stop offset="0.025" stop-color="#b82cb4"/>
      <stop offset="1" stop-color="#d644bf"/>
    </linearGradient>
    <radialGradient id="radial-gradient-13" cx="0.5" cy="0.5" r="0.424" gradientTransform="matrix(-1.514, 0, 0, 1, -717.357, 0)" xlink:href="#linear-gradient-4"/>
    <linearGradient id="linear-gradient-58" x1="-0.813" y1="0.041" x2="0.547" y2="0.8" gradientUnits="objectBoundingBox">
      <stop offset="0.035" stop-color="#138bbd"/>
      <stop offset="0.226" stop-color="#169ac6"/>
      <stop offset="0.595" stop-color="#1ec2df"/>
      <stop offset="1" stop-color="#2af6ff"/>
    </linearGradient>
    <radialGradient id="radial-gradient-14" cx="0.5" cy="0.5" r="0.403" gradientTransform="translate(-0.416) scale(1.833 1)" gradientUnits="objectBoundingBox">
      <stop offset="0" stop-color="#102538"/>
      <stop offset="1" stop-color="#1b3f5e"/>
    </radialGradient>
    <radialGradient id="radial-gradient-15" cx="0.5" r="0.403" xlink:href="#radial-gradient-14"/>
    <radialGradient id="radial-gradient-16" cx="0.5" r="0.403" xlink:href="#radial-gradient-14"/>
    <radialGradient id="radial-gradient-17" cx="0.5" r="0.403" xlink:href="#radial-gradient-14"/>
    <radialGradient id="radial-gradient-19" cx="0.5" r="0.403" xlink:href="#radial-gradient-14"/>
    <radialGradient id="radial-gradient-20" cx="0.5" r="0.403" xlink:href="#radial-gradient-14"/>
  </defs>
  <g id="Grupo_145037" data-name="Grupo 145037" transform="translate(12226.059 12601.899)">
    <g id="Grupo_145035" data-name="Grupo 145035" transform="translate(-13192.333 -12707.117)">
      <g id="Grupo_144976" data-name="Grupo 144976">
        <g id="Grupo_129345" data-name="Grupo 129345" transform="translate(152.73 72.81)">
          <path id="Trazado_189392" data-name="Trazado 189392" d="M991.6,447.911h9.264l-7.021-14.922,7.021-14.922H991.6l-7.021,14.922Z" fill="#fff59d"/>
          <path id="Trazado_189393" data-name="Trazado 189393" d="M975.317,447.911h9.264l-7.021-14.922,7.021-14.922h-9.264L968.3,432.989Z" fill="#fff59d"/>
          <path id="Trazado_189394" data-name="Trazado 189394" d="M959.032,447.911H968.3l-7.021-14.922,7.021-14.922h-9.264l-7.021,14.922Z" fill="#fff59d"/>
          <path id="Trazado_189395" data-name="Trazado 189395" d="M942.746,447.911h9.264l-7.021-14.922,7.021-14.922h-9.264l-7.021,14.922Z" fill="#fff59d"/>
          <path id="Trazado_189396" data-name="Trazado 189396" d="M926.461,447.911h9.264L928.7,432.989l7.021-14.922h-9.264l-7.021,14.922Z" fill="#fff59d"/>
          <path id="Trazado_189397" data-name="Trazado 189397" d="M910.176,447.911h9.264l-7.021-14.922,7.021-14.922h-9.264l-7.021,14.922Z" fill="#fff59d"/>
          <path id="Trazado_189398" data-name="Trazado 189398" d="M893.891,447.911h9.264l-7.021-14.922,7.021-14.922h-9.264l-7.021,14.922Z" fill="#fff59d"/>
          <path id="Trazado_189399" data-name="Trazado 189399" d="M877.606,447.911h9.264l-7.021-14.922,7.021-14.922h-9.264l-7.021,14.922Z" fill="#fff59d"/>
        </g>
        <path id="Trazado_189408" data-name="Trazado 189408" d="M827.167,316.219a6.311,6.311,0,1,1-6.312-6.311A6.312,6.312,0,0,1,827.167,316.219Z" transform="translate(152.73 72.81)" fill="none" stroke="#1b3f5e" stroke-linecap="round" stroke-miterlimit="10" stroke-width="2"/>
        <g id="Grupo_144973" data-name="Grupo 144973">
          <g id="Grupo_144972" data-name="Grupo 144972" transform="translate(596.366 -104.735)">
            <path id="Trazado_217982" data-name="Trazado 217982" d="M766.544,681.5c0,2.076-1.507,4.264-4.468,5.974l-42.8,40.849c-5.415,3.126-13.606,3.466-18.294.758l-77.866-45.223c-2.266-1.308-3.288-3.091-3.14-4.935a2.452,2.452,0,0,0-.025.324c0,.054,0,5.828,0,5.882.033,1.69,1.075,3.3,3.164,4.5l77.866,45.222c4.689,2.707,12.879,2.367,18.294-.759l42.8-40.848c3.005-1.735,4.524-3.964,4.479-6.066C766.546,686.827,766.607,682.951,766.544,681.5Z" transform="translate(-89.042 -192.963)" opacity="0.2" fill="url(#linear-gradient)"/>
            <g id="Grupo_144920" data-name="Grupo 144920" transform="translate(524.373 441.591)" opacity="0.2">
              <path id="Trazado_217983" data-name="Trazado 217983" d="M704.213,702.109a22.473,22.473,0,0,1-11.214-2.7l-77.865-45.222c-4.089-2.362-6.433-6.1-6.433-10.249,0-4.552,2.824-8.792,7.748-11.633l68.334-26.287a27.622,27.622,0,0,1,13.618-3.461,22.459,22.459,0,0,1,11.212,2.7l52.331,30.66c4.088,2.359,6.433,6.1,6.433,10.248,0,4.551-2.824,8.791-7.746,11.634l-42.8,40.85A27.613,27.613,0,0,1,704.213,702.109Z" transform="translate(-608.701 -602.553)" opacity="0"/>
              <path id="Trazado_217984" data-name="Trazado 217984" d="M617.176,633.254l68.334-26.287a27.024,27.024,0,0,1,13.556-3.367,25.608,25.608,0,0,1,5.91.757,21.864,21.864,0,0,1,5.185,2.1l50.5,29.586c.048.028,1.508.889,1.544.921a10.865,10.865,0,0,1,5.6,10.186c-.224,4.131-3.34,8.729-7.815,11.314l-42.028,40.111a27.023,27.023,0,0,1-13.289,3.381,21.926,21.926,0,0,1-10.947-2.622l-77.865-45.223c-3.928-2.268-6.153-5.831-6.134-9.777C609.747,640.016,612.451,635.981,617.176,633.254Z" transform="translate(-609.131 -602.991)" opacity="0.091"/>
              <path id="Trazado_217985" data-name="Trazado 217985" d="M617.9,634.2l68.334-26.287a26.441,26.441,0,0,1,13.494-3.274,22.637,22.637,0,0,1,10.978,3l50.225,29.426c.1.056,1.457.863,1.529.928a9.951,9.951,0,0,1,4.771,10.124c-.409,3.7-3.856,8.668-7.884,10.995L718.1,698.492a26.436,26.436,0,0,1-12.962,3.3,21.376,21.376,0,0,1-10.68-2.542l-77.865-45.223c-3.768-2.175-5.873-5.565-5.834-9.306C610.793,640.647,613.377,636.816,617.9,634.2Z" transform="translate(-609.561 -603.427)" opacity="0.182"/>
              <path id="Trazado_217986" data-name="Trazado 217986" d="M618.629,635.153l68.335-26.286a25.862,25.862,0,0,1,13.432-3.18,24.868,24.868,0,0,1,5.8.939,29.01,29.01,0,0,1,5.062,2.212L761.209,638.1c.145.084,1.405.839,1.513.935,3.819,2.47,4.6,6.122,3.94,10.063-.55,3.264-4.372,8.607-7.952,10.674l-40.482,38.636a25.849,25.849,0,0,1-12.634,3.222,20.82,20.82,0,0,1-10.414-2.463l-77.865-45.222c-3.607-2.083-5.592-5.3-5.535-8.835C611.839,641.276,614.3,637.65,618.629,635.153Z" transform="translate(-609.991 -603.861)" opacity="0.273"/>
              <path id="Trazado_217987" data-name="Trazado 217987" d="M619.356,636.1l68.335-26.287a25.313,25.313,0,0,1,13.371-3.086,24.479,24.479,0,0,1,5.744,1.031,34.355,34.355,0,0,1,5,2.269l49.678,29.105c.193.112,1.354.814,1.5.942,3.729,2.508,4.855,6.351,3.109,10,0,2.9-4.888,8.545-8.021,10.354l-39.709,37.9a25.261,25.261,0,0,1-12.306,3.142,20.27,20.27,0,0,1-10.147-2.383l-77.865-45.222c-3.445-1.99-5.311-5.034-5.235-8.363C612.884,641.9,615.228,638.481,619.356,636.1Z" transform="translate(-610.42 -604.293)" opacity="0.364"/>
              <path id="Trazado_217988" data-name="Trazado 217988" d="M620.083,637.043l68.334-26.286a24.754,24.754,0,0,1,13.309-2.992,24.077,24.077,0,0,1,5.688,1.122,41.76,41.76,0,0,1,4.938,2.328l49.4,28.945c.242.139,1.3.789,1.483.949,3.639,2.544,4.461,6.415,2.278,9.94,0,2.483-5.4,8.484-8.09,10.034l-38.936,37.161a24.676,24.676,0,0,1-11.979,3.062,19.727,19.727,0,0,1-9.881-2.3L618.768,653.78c-3.284-1.9-5.03-4.768-4.935-7.892C613.929,642.528,616.153,639.312,620.083,637.043Z" transform="translate(-610.85 -604.722)" opacity="0.455"/>
              <path id="Trazado_217989" data-name="Trazado 217989" d="M620.808,637.987,689.143,611.7a24.21,24.21,0,0,1,13.247-2.9,23.632,23.632,0,0,1,5.633,1.214A52.37,52.37,0,0,1,712.9,612.4l49.131,28.784a16.569,16.569,0,0,1,1.468.958c3.55,2.581,4.067,6.478,1.448,9.877,0,2.069-5.921,8.422-8.159,9.715l-38.163,36.423a24.094,24.094,0,0,1-11.651,2.982,19.168,19.168,0,0,1-9.614-2.223l-77.865-45.222c-3.124-1.8-4.75-4.5-4.636-7.421C614.974,643.152,617.078,640.14,620.808,637.987Z" transform="translate(-611.279 -605.151)" opacity="0.545"/>
              <path id="Trazado_217990" data-name="Trazado 217990" d="M621.534,638.927l68.335-26.286a23.684,23.684,0,0,1,13.186-2.8,23.245,23.245,0,0,1,5.578,1.3c.681.227,4.249,2.117,4.815,2.444L762.3,642.21a14,14,0,0,1,1.453.964c3.46,2.618,3.672,6.542.616,9.816,0,1.655-6.437,8.36-8.227,9.395l-37.39,35.685a23.506,23.506,0,0,1-11.323,2.9,18.617,18.617,0,0,1-9.348-2.144L620.22,653.606c-2.963-1.711-4.47-4.236-4.336-6.949C616.019,643.773,618,640.966,621.534,638.927Z" transform="translate(-611.707 -605.577)" opacity="0.636"/>
              <path id="Trazado_217991" data-name="Trazado 217991" d="M622.259,639.866l68.335-26.286a23.173,23.173,0,0,1,13.124-2.71,22.844,22.844,0,0,1,5.522,1.4c.509.177,4.328,2.257,4.753,2.5l48.584,28.464a12.107,12.107,0,0,1,1.437.972c3.37,2.655,3.279,6.606-.214,9.754,0,1.241-6.954,8.3-8.3,9.074L718.887,697.98a22.926,22.926,0,0,1-11,2.823,18.064,18.064,0,0,1-9.081-2.064l-77.866-45.222c-2.8-1.618-4.189-3.971-4.037-6.478C617.063,644.393,618.927,641.79,622.259,639.866Z" transform="translate(-612.135 -606.002)" opacity="0.727"/>
              <path id="Trazado_217992" data-name="Trazado 217992" d="M622.983,640.8l68.335-26.286A22.661,22.661,0,0,1,704.38,611.9a22.427,22.427,0,0,1,5.466,1.487c.338.123,4.408,2.4,4.691,2.56l48.31,28.3a10.557,10.557,0,0,1,1.423.979c3.28,2.692,2.884,6.67-1.045,9.693,0,.827-7.47,8.238-8.365,8.754l-35.843,34.21a22.343,22.343,0,0,1-10.668,2.743,17.516,17.516,0,0,1-8.815-1.985l-77.866-45.222c-2.641-1.526-3.908-3.706-3.737-6.007C618.106,645.011,619.849,642.613,622.983,640.8Z" transform="translate(-612.562 -606.425)" opacity="0.818"/>
              <path id="Trazado_217993" data-name="Trazado 217993" d="M623.707,641.739l68.335-26.285a20.129,20.129,0,0,1,18.411-.944c.168.064,4.488,2.537,4.63,2.618l48.037,28.143a9.415,9.415,0,0,1,1.407.987c3.191,2.729,2.49,6.733-1.875,9.63,0,.414-7.986,8.177-8.434,8.435L719.146,697.8a21.756,21.756,0,0,1-10.34,2.663,16.968,16.968,0,0,1-8.548-1.9l-77.866-45.222c-2.48-1.432-3.628-3.439-3.438-5.536C619.148,645.628,620.772,643.434,623.707,641.739Z" transform="translate(-612.989 -606.846)" opacity="0.909"/>
              <path id="Trazado_217994" data-name="Trazado 217994" d="M700.981,698.46l-77.866-45.222c-4.688-2.707-4.1-7.436,1.314-10.563l68.335-26.285c5.415-3.127,13.605-3.467,18.294-.759L763.39,646.29c4.689,2.707,4.1,7.436-1.314,10.562l-42.8,40.849C713.86,700.826,705.67,701.167,700.981,698.46Z" transform="translate(-613.415 -607.266)"/>
            </g>
            <path id="Trazado_217995" data-name="Trazado 217995" d="M700.981,698.272l-77.866-45.221c-2.089-1.207-3.131-2.815-3.164-4.5,0-.054,0-5.829,0-5.882.038-2.053,1.555,1.512,4.479-.177L692.765,616.2c5.415-3.126,13.605-3.466,18.294-.759L763.39,646.1c1.566.9,2.7-2.932,3.107-1.712.134.407.049,5.787.058,6.21.045,2.1-1.473,4.33-4.479,6.064l-42.8,40.849C713.861,700.64,705.67,700.98,700.981,698.272Z" transform="translate(-89.042 -165.598)" fill="url(#linear-gradient)"/>
            <path id="Trazado_217996" data-name="Trazado 217996" d="M700.981,688.335l-77.866-45.222c-4.688-2.707-4.1-7.437,1.314-10.562l68.335-26.286c5.415-3.126,13.605-3.465,18.294-.759l52.331,30.66c4.689,2.708,4.1,7.437-1.314,10.562l-42.8,40.848C713.86,690.7,705.67,691.043,700.981,688.335Z" transform="translate(-89.041 -161.434)" fill="url(#linear-gradient-3)"/>
            <path id="Trazado_217997" data-name="Trazado 217997" d="M791.074,636.165l-52.331-30.66c-4.689-2.706-12.88-2.368-18.294.759l-34.428,13.244a8.622,8.622,0,0,0,1.069.737l77.865,45.222a13.147,13.147,0,0,0,3.724,1.38l21.081-20.12C795.176,643.6,795.763,638.872,791.074,636.165Z" transform="translate(-116.726 -161.434)" opacity="0.818" fill="url(#linear-gradient-4)" style="mix-blend-mode: multiply;isolation: isolate"/>
            <path id="Trazado_217998" data-name="Trazado 217998" d="M762.076,670.484l-42.8,40.848c-5.415,3.126-13.606,3.465-18.294.758l-77.866-45.222a5.607,5.607,0,0,1-3.129-4.155c-.245,1.916.78,3.779,3.129,5.136l77.866,45.222c4.689,2.708,12.879,2.368,18.294-.759l42.8-40.848c3.169-1.829,4.671-4.206,4.444-6.407C766.278,666.965,764.779,668.924,762.076,670.484Z" transform="translate(-89.042 -186.17)" opacity="0.6" fill="url(#radial-gradient)" style="mix-blend-mode: screen;isolation: isolate"/>
            <path id="Trazado_217999" data-name="Trazado 217999" d="M783.311,730.608c5.385,13.1.661,27.467-10.555,32.076S748.082,760.4,742.7,747.3s-.66-27.469,10.555-32.077S777.924,717.5,783.311,730.608Z" transform="translate(-139.541 -207.572)" fill="url(#radial-gradient-2)" style="mix-blend-mode: color-dodge;isolation: isolate"/>
            <path id="Trazado_218000" data-name="Trazado 218000" d="M783.832,529.074,592.6,418.578c-9.776-5.645-17.7-20.789-17.7-33.824V238.5c0-13.035,7.926-19.026,17.7-13.381l191.232,110.5c9.777,5.644,17.7,20.788,17.7,33.823V515.691C801.534,528.727,793.61,534.719,783.832,529.074Z" transform="translate(-70.164 -1.923)" fill="#f0f8ff"/>
            <path id="Trazado_218001" data-name="Trazado 218001" d="M793.284,527.12,604.746,418.2c-7.868-5-12.735-14.992-12.735-25.217V245.766a3.139,3.139,0,0,1,4.726-2.7c.245.141.437.254.556.322L786.029,352.451c9.366,5.4,12.734,14.992,12.734,25.215v146.75a3.388,3.388,0,0,1-5.067,2.94Z" transform="translate(-77.335 -10.15)" fill="#1b3f5e"/>
            <path id="Trazado_218002" data-name="Trazado 218002" d="M786.029,352.451,597.293,243.387c-.119-.068-.311-.181-.556-.322a3.139,3.139,0,0,0-4.726,2.7V392.98c0,10.224,4.867,20.215,12.735,25.217L793.284,527.12l.413.236a3.388,3.388,0,0,0,5.067-2.94V377.666C798.764,367.443,795.4,357.849,786.029,352.451Zm10.744,171.965a1.406,1.406,0,0,1-1.4,1.4,1.368,1.368,0,0,1-.687-.188L605.74,416.474c-7.1-4.517-11.74-13.755-11.74-23.494V245.767a1.156,1.156,0,0,1,1.156-1.15,1.135,1.135,0,0,1,.576.162l189.3,109.392c9.7,5.594,11.74,15.864,11.74,23.5Z" transform="translate(-77.335 -10.15)" fill="#bcbec0" style="mix-blend-mode: multiply;isolation: isolate"/>
            <path id="Trazado_218003" data-name="Trazado 218003" d="M793.669,331.027,602.438,220.53c-3.868-2.233-7.446-2.645-10.359-1.52-.37.143-5.307,2.765-5.654,2.957-.01.006-.017.012-.025.016,3.024-1.47,6.85-1.2,11.02,1.213l191.232,110.5c9.777,5.644,17.7,20.788,17.7,33.823V513.768c0,8.136-3.089,13.526-7.786,15.058a2.928,2.928,0,0,0,1.551-.528c.224-.129,5.58-3.151,5.794-3.3,3.363-2.354,5.457-7.194,5.457-13.893V364.851C811.372,351.815,803.445,336.672,793.669,331.027Z" transform="translate(-74.983 0)" fill="#fff59d"/>
            <path id="Trazado_218004" data-name="Trazado 218004" d="M790.372,334.9,599.141,224.4c-4.009-2.314-7.695-2.644-10.662-1.362a13.078,13.078,0,0,1,8.538,2l191.232,110.5c9.776,5.645,17.7,20.788,17.7,33.824V515.611c0,7.69-2.771,12.9-7.039,14.745,5.461-.866,9.163-6.477,9.163-15.382V368.722C808.075,355.686,800.15,340.542,790.372,334.9Z" transform="translate(-75.855 -1.63)" opacity="0.6" fill="url(#radial-gradient-3)" style="mix-blend-mode: screen;isolation: isolate"/>
            <path id="Trazado_218005" data-name="Trazado 218005" d="M781.952,781.859a15.8,15.8,0,1,1-15.8-15.8A15.8,15.8,0,0,1,781.952,781.859Z" transform="translate(-143.679 -229.473)" fill="url(#radial-gradient-4)" style="mix-blend-mode: screen;isolation: isolate"/>
            <path id="Trazado_218006" data-name="Trazado 218006" d="M711.017,759.588a16.729,16.729,0,0,1-8.206-1.887l-77.865-45.222.529-.912,77.863,45.222c4.521,2.61,12.451,2.281,17.713-.728l42.755-40.8.727.762-42.9,40.922A21.8,21.8,0,0,1,711.017,759.588Z" transform="translate(-91.134 -206.641)" fill="url(#radial-gradient-5)" style="mix-blend-mode: color-dodge;isolation: isolate"/>
            <path id="Trazado_218007" data-name="Trazado 218007" d="M602.309,715.73A23.736,23.736,0,0,1,590.367,736.3l-3.8,2.17-72.815-42.081.988-.568a29.36,29.36,0,0,0,14.689-25.39V669.9c0-10.648-5.6-8.611-5.6,0v.532a23.746,23.746,0,0,1-11.879,20.534l-95.988,55.191a11.42,11.42,0,0,0,.024,19.812l54.237,30.993a25.467,25.467,0,0,0,25.165.007l97.754-55.8a29.352,29.352,0,0,0,14.769-25.437C607.912,705.364,602.309,707.348,602.309,715.73ZM546.925,730.7l-7.437,4.366-23.372-13.505,7.44-4.367Zm-20.591-15.135,7.44-4.369L557.142,724.7l-7.439,4.366Zm-51.086,29.988,7.437-4.367,23.371,13.506-7.438,4.367Zm20.592,15.135-7.442,4.368-23.367-13.506,7.438-4.368Zm-10.376-21.133,7.436-4.367,23.374,13.507-7.44,4.366Zm10.216-6,7.44-4.368,23.373,13.507-7.442,4.368Zm10.219-6,7.439-4.367,23.37,13.506-7.44,4.367Zm7.43-7.609-20.22-11.686,7.516-4.321,20.143,11.641Zm-2.776,1.63-7.441,4.369L482.786,714.2l7.518-4.323Zm-10.218,6-7.441,4.366L472.46,720.133l7.517-4.322Zm-10.217,6-7.441,4.369-20.536-11.87,7.516-4.323Zm-10.217,6-7.442,4.368-20.644-11.932,7.517-4.323Zm-10.217,6-7.44,4.366-20.752-11.992,7.518-4.323Zm-10.218,6-7.44,4.367-20.858-12.055,7.516-4.322Zm2.788,1.612,23.37,13.5-7.441,4.368-23.368-13.506Zm26.158,15.116,22.812,13.184-7.542,4.307-22.711-13.124Zm2.778-1.631,7.44-4.366,22.958,13.267-7.546,4.307Zm10.216-6,7.438-4.366,23.1,13.35-7.542,4.307Zm10.219-6,7.437-4.367L542.3,763.735l-7.544,4.306Zm10.215-6,7.442-4.368,23.387,13.516-7.544,4.309Zm10.218-6,7.442-4.368,23.533,13.6-7.545,4.308Zm10.217-6,7.44-4.367,23.678,13.685-7.545,4.306Zm10.218-6,7.44-4.367,23.822,13.767-7.545,4.307Zm-21.506-21.1-7.44,4.368-20.112-11.624L510.95,698ZM492.608,792.1a19.834,19.834,0,0,1-19.605,0l-54.235-30.992a5.816,5.816,0,0,1-.012-10.091l9.6-5.523,72.5,41.9Z" transform="translate(-1.169 -186.147)" fill="#c7bcd6" opacity="0.2"/>
            <g id="Grupo_144921" data-name="Grupo 144921" transform="translate(496.446 602.789)" opacity="0.2">
              <path id="Trazado_218008" data-name="Trazado 218008" d="M578.416,886.605c0-2.565,2.369-2.585.919-3.441-.038-.023-4.772-2.641-4.811-2.664-1.475-.8-3.489-.651-5.711.632-4.517,2.608-8.18,8.925-8.18,14.109,0,.859,3.343,1.451,4.766,2.319Z" transform="translate(-560.633 -880.008)" fill="url(#linear-gradient-5)"/>
              <path id="Trazado_218009" data-name="Trazado 218009" d="M585.147,890.425c0-5.185-3.661-7.273-8.18-4.665s-8.179,8.926-8.179,14.109Z" transform="translate(-564.05 -881.947)" fill="url(#linear-gradient-6)"/>
              <path id="Trazado_218010" data-name="Trazado 218010" d="M583.932,896.988c0-2.418-1.709-3.392-3.816-2.175a8.408,8.408,0,0,0-3.814,6.58Z" transform="translate(-567.198 -885.992)" fill="url(#linear-gradient-7)"/>
              <path id="Trazado_218011" data-name="Trazado 218011" d="M568.114,899.532c0-5.184,3.66-11.5,8.18-14.109,2.164-1.251,4.13-1.42,5.595-.688a6.445,6.445,0,0,0-4.89.963c-4.516,2.608-8.178,8.925-8.178,14.108Z" transform="translate(-563.768 -881.807)" fill="url(#radial-gradient-6)" style="mix-blend-mode: screen;isolation: isolate"/>
            </g>
            <g id="Grupo_144922" data-name="Grupo 144922" transform="translate(579.081 553.067)" opacity="0.2">
              <path id="Trazado_218012" data-name="Trazado 218012" d="M720.649,801.024c0-2.564,2.371-2.584.917-3.44-.041-.024-4.769-2.641-4.811-2.664-1.473-.8-3.488-.651-5.707.631-4.521,2.61-8.183,8.926-8.183,14.109,0,.86,3.345,1.451,4.766,2.319Z" transform="translate(-702.865 -794.427)" fill="url(#linear-gradient-8)"/>
              <path id="Trazado_218013" data-name="Trazado 218013" d="M727.38,804.843c0-5.185-3.664-7.272-8.181-4.665s-8.178,8.927-8.178,14.111Z" transform="translate(-706.283 -796.366)" fill="url(#linear-gradient-9)"/>
              <path id="Trazado_218014" data-name="Trazado 218014" d="M726.16,811.408c0-2.418-1.705-3.392-3.815-2.176a8.411,8.411,0,0,0-3.815,6.581Z" transform="translate(-709.429 -800.411)" fill="url(#linear-gradient-10)"/>
              <path id="Trazado_218015" data-name="Trazado 218015" d="M710.348,813.951c0-5.183,3.658-11.5,8.179-14.108,2.164-1.252,4.132-1.42,5.6-.687a6.435,6.435,0,0,0-4.893.961c-4.515,2.609-8.179,8.925-8.179,14.109Z" transform="translate(-706 -796.226)" fill="url(#radial-gradient-7)" style="mix-blend-mode: screen;isolation: isolate"/>
            </g>
            <g id="Grupo_144923" data-name="Grupo 144923" transform="translate(415.911 557.035)" opacity="0.2">
              <path id="Trazado_218016" data-name="Trazado 218016" d="M439.8,807.854c0-2.563,2.371-2.583.919-3.44-.041-.024-4.77-2.641-4.812-2.666-1.474-.8-3.488-.651-5.711.633-4.517,2.608-8.181,8.926-8.181,14.109,0,.86,3.346,1.451,4.768,2.319Z" transform="translate(-422.015 -801.257)" fill="url(#linear-gradient-11)"/>
              <path id="Trazado_218017" data-name="Trazado 218017" d="M446.531,811.673c0-5.184-3.664-7.272-8.18-4.663s-8.184,8.924-8.184,14.108Z" transform="translate(-425.431 -803.197)" fill="url(#linear-gradient-12)"/>
              <path id="Trazado_218018" data-name="Trazado 218018" d="M445.315,818.238c0-2.417-1.708-3.392-3.814-2.174a8.391,8.391,0,0,0-3.816,6.58Z" transform="translate(-428.581 -807.241)" fill="url(#linear-gradient-13)"/>
              <path id="Trazado_218019" data-name="Trazado 218019" d="M429.494,820.781c0-5.183,3.665-11.5,8.181-14.108,2.164-1.25,4.134-1.419,5.6-.688a6.44,6.44,0,0,0-4.89.963c-4.518,2.608-8.18,8.925-8.18,14.109Z" transform="translate(-425.149 -803.057)" fill="url(#radial-gradient-8)" style="mix-blend-mode: screen;isolation: isolate"/>
            </g>
            <g id="Grupo_144924" data-name="Grupo 144924" transform="translate(423.945 482.54)" opacity="0.2">
              <path id="Trazado_218020" data-name="Trazado 218020" d="M511.734,801.237a19.2,19.2,0,0,0,9.587-2.312l117.07-70.949c3.5-2.018,5.5-5.212,5.5-8.764,0-3.891-2.414-7.517-6.623-9.946L579.647,676A23.631,23.631,0,0,0,568,673.036a19.221,19.221,0,0,0-9.59,2.312L441.343,746.3c-3.5,2.019-5.5,5.213-5.5,8.764,0,3.889,2.413,7.515,6.623,9.948l57.622,33.269A23.621,23.621,0,0,0,511.734,801.237Z" transform="translate(-435.844 -673.036)" opacity="0"/>
              <path id="Trazado_218021" data-name="Trazado 218021" d="M556.666,678.227,441.784,747.762c-3.455,2-5.3,5.15-5.134,8.6a9.817,9.817,0,0,0,1.133,4.025,14.938,14.938,0,0,0,5.615,5.493l56.4,32.563a24.657,24.657,0,0,0,11.318,3.114,19.227,19.227,0,0,0,9.45-1.9c.256.011,7.661-4.372,7.843-4.477l107.727-65.2c3.479-2.008,5.3-5.192,5.083-8.652a10.161,10.161,0,0,0-.609-2.8c-.882-2.471-3.385-5.1-6.229-6.745l-56.8-32.8a22.693,22.693,0,0,0-2.491-1.227,24.162,24.162,0,0,0-8.963-1.769A18.8,18.8,0,0,0,556.666,678.227Z" transform="translate(-436.178 -674.273)" opacity="0.091"/>
              <path id="Trazado_218022" data-name="Trazado 218022" d="M554.905,681.107l-112.7,68.122c-3.414,1.972-5.1,5.084-4.769,8.43a10.118,10.118,0,0,0,1.281,3.833,16.514,16.514,0,0,0,5.593,5.256L499.493,798.6c2.707,1.562,7.554,3.267,10.992,3.267a19.261,19.261,0,0,0,9.313-1.491c.512.02,7.451-3.975,7.814-4.185l106.256-64.22c3.463-2,5.092-5.168,4.665-8.54a11.2,11.2,0,0,0-.752-2.668c-.862-2.2-3.742-4.995-6.3-6.472L575.5,681.972a25.4,25.4,0,0,0-2.448-1.224,23.806,23.806,0,0,0-8.815-1.808A18.367,18.367,0,0,0,554.905,681.107Z" transform="translate(-436.496 -675.509)" opacity="0.182"/>
              <path id="Trazado_218023" data-name="Trazado 218023" d="M553.129,683.986,442.621,750.7c-3.374,1.949-4.9,5.017-4.4,8.262a10.583,10.583,0,0,0,1.428,3.642,18.588,18.588,0,0,0,5.572,5.018l53.955,31.151c2.406,1.389,7.609,3.421,10.664,3.421a19.275,19.275,0,0,0,9.177-1.082c.769.031,7.241-3.577,7.786-3.891l104.785-63.241c3.446-1.99,4.894-5.142,4.248-8.429a12.773,12.773,0,0,0-.894-2.538c-.828-1.929-4.1-4.886-6.375-6.2L573.4,684.959c-.582-.335-1.765-.948-2.405-1.219a23.453,23.453,0,0,0-8.668-1.848A17.957,17.957,0,0,0,553.129,683.986Z" transform="translate(-436.8 -676.745)" opacity="0.273"/>
              <path id="Trazado_218024" data-name="Trazado 218024" d="M551.338,686.865l-108.322,65.3c-3.333,1.926-4.7,4.949-4.038,8.095a11.269,11.269,0,0,0,1.576,3.45c.819,1.343,3.877,3.814,5.55,4.78l52.733,30.445c2.105,1.215,7.664,3.574,10.338,3.574a19.284,19.284,0,0,0,9.04-.672c1.025.041,7.031-3.179,7.757-3.6l103.314-62.262c3.43-1.98,4.7-5.113,3.83-8.317a15.4,15.4,0,0,0-1.036-2.408c-.78-1.663-4.457-4.777-6.448-5.927l-54.343-31.376c-.509-.294-1.8-.976-2.362-1.217a23.123,23.123,0,0,0-8.521-1.886A17.532,17.532,0,0,0,551.338,686.865Z" transform="translate(-437.089 -677.981)" opacity="0.364"/>
              <path id="Trazado_218025" data-name="Trazado 218025" d="M549.532,689.742,443.4,753.625c-3.293,1.9-4.515,4.881-3.673,7.927a12.3,12.3,0,0,0,1.723,3.259c.733,1.132,4.095,3.714,5.529,4.543l51.51,29.739c1.8,1.042,7.718,3.727,10.01,3.727a19.258,19.258,0,0,0,8.9-.262c1.282.051,6.821-2.781,7.729-3.306l101.843-61.282c3.413-1.971,4.517-5.085,3.412-8.206a20.108,20.108,0,0,0-1.178-2.277c-.716-1.4-4.813-4.669-6.52-5.654l-53.524-30.9c-.436-.252-1.842-1-2.319-1.213a22.774,22.774,0,0,0-8.373-1.926A17.118,17.118,0,0,0,549.532,689.742Z" transform="translate(-437.362 -679.216)" opacity="0.455"/>
              <path id="Trazado_218026" data-name="Trazado 218026" d="M547.71,692.619,443.761,755.09c-3.252,1.879-4.331,4.813-3.308,7.761a13.858,13.858,0,0,0,1.87,3.066,30.809,30.809,0,0,0,5.508,4.306l50.287,29.034c1.5.868,7.774,3.88,9.684,3.88a19.175,19.175,0,0,0,8.767.147c1.538.062,6.611-2.383,7.7-3.012l100.372-60.3c3.4-1.961,4.339-5.058,2.994-8.094a8.834,8.834,0,0,0-1.32-2.147c-.4-1.248-5.171-4.56-6.593-5.381l-52.7-30.43c-.364-.21-1.879-1.032-2.276-1.209a22.434,22.434,0,0,0-8.225-1.966A16.712,16.712,0,0,0,547.71,692.619Z" transform="translate(-437.619 -680.449)" opacity="0.545"/>
              <path id="Trazado_218027" data-name="Trazado 218027" d="M545.874,695.5,444.111,756.553c-3.212,1.856-4.152,4.747-2.942,7.594a8.587,8.587,0,0,0,2.017,2.875c.392.809,4.53,3.516,5.486,4.068l49.066,28.328c1.2.694,7.829,4.034,9.356,4.034a19.057,19.057,0,0,0,8.63.557c1.795.071,6.4-1.986,7.672-2.72l98.9-59.324c3.381-1.952,4.169-5.034,2.577-7.982a8.993,8.993,0,0,0-1.463-2.016c-.324-1-5.528-4.452-6.666-5.108L564.86,696.9c-.291-.168-1.917-1.062-2.233-1.205a22.1,22.1,0,0,0-8.078-2.006A16.3,16.3,0,0,0,545.874,695.5Z" transform="translate(-437.862 -681.683)" opacity="0.636"/>
              <path id="Trazado_218028" data-name="Trazado 218028" d="M544.023,698.372l-99.575,59.644c-3.172,1.833-3.979,4.683-2.578,7.426a8.717,8.717,0,0,0,2.165,2.684c.294.607,4.748,3.416,5.465,3.831l47.843,27.622c.9.521,7.884,4.187,9.03,4.187a18.87,18.87,0,0,0,8.493.967c2.052.082,6.192-1.587,7.644-2.427l97.43-58.344c3.364-1.942,4.006-5.017,2.159-7.871a9.2,9.2,0,0,0-1.605-1.886c-.243-.749-5.885-4.343-6.738-4.835l-51.065-29.483c-.218-.126-1.953-1.092-2.19-1.2a21.753,21.753,0,0,0-7.93-2.045A15.9,15.9,0,0,0,544.023,698.372Z" transform="translate(-438.092 -682.916)" opacity="0.727"/>
              <path id="Trazado_218029" data-name="Trazado 218029" d="M542.16,701.247l-97.389,58.231c-3.132,1.81-3.811,4.625-2.212,7.259a8.924,8.924,0,0,0,2.312,2.492c.2.4,4.965,3.317,5.443,3.593l46.621,26.916c.6.347,7.939,4.341,8.7,4.341a18.636,18.636,0,0,0,8.356,1.376,17.873,17.873,0,0,0,7.616-2.134l95.958-57.365c3.348-1.932,3.848-5.006,1.742-7.759a9.587,9.587,0,0,0-1.748-1.756c-.162-.5-6.242-4.234-6.811-4.562L560.5,702.87c-.145-.084-1.99-1.123-2.147-1.2a21.411,21.411,0,0,0-7.782-2.085A15.5,15.5,0,0,0,542.16,701.247Z" transform="translate(-438.308 -684.148)" opacity="0.818"/>
              <path id="Trazado_218030" data-name="Trazado 218030" d="M540.286,704.123l-95.2,56.818c-3.091,1.786-3.647,4.572-1.847,7.091a9.245,9.245,0,0,0,2.459,2.3c.1.2,5.183,3.218,5.422,3.356l45.4,26.21c.3.173,7.994,4.493,8.376,4.493a18.323,18.323,0,0,0,8.219,1.786,15.9,15.9,0,0,0,7.587-1.841l94.488-56.385c3.331-1.924,3.7-5,1.323-7.648a10.015,10.015,0,0,0-1.889-1.626c-.081-.249-6.6-4.125-6.884-4.289l-49.427-28.536c-.073-.042-2.025-1.156-2.1-1.194a21.073,21.073,0,0,0-7.635-2.124A15.1,15.1,0,0,0,540.286,704.123Z" transform="translate(-438.513 -685.38)" opacity="0.909"/>
              <path id="Trazado_218031" data-name="Trazado 218031" d="M519.777,805.351l93.016-55.407c4.009-2.315,3.505-6.358-1.125-9.031l-57.625-33.269c-4.63-2.674-11.632-2.964-15.641-.648L445.386,762.4c-4.009,2.316-3.505,6.36,1.125,9.032L504.135,804.7C508.765,807.376,515.768,807.667,519.777,805.351Z" transform="translate(-438.708 -686.611)"/>
            </g>
            <rect id="Rectángulo_42898" data-name="Rectángulo 42898" width="2.802" height="89.251" transform="translate(546.679 350.63) rotate(-60.214)" fill="#c7bcd6"/>
            <path id="Trazado_218032" data-name="Trazado 218032" d="M412.98,551.89l-1.41-2.422,130.9-76.338L619.614,517.1l-1.386,2.434-75.741-43.172Z" transform="translate(-1.728 -106.733)" fill="#c7bcd6"/>
            <rect id="Rectángulo_42899" data-name="Rectángulo 42899" width="2.802" height="39.94" transform="translate(532.574 343.875)" fill="url(#linear-gradient-14)"/>
            <g id="Grupo_144925" data-name="Grupo 144925" transform="translate(409.274 351.487)">
              <rect id="Rectángulo_42900" data-name="Rectángulo 42900" width="2.803" height="51.406" transform="translate(0 73.859)" fill="url(#linear-gradient-14)"/>
              <rect id="Rectángulo_42901" data-name="Rectángulo 42901" width="2.802" height="51.928" transform="translate(10.308 67.144)" fill="url(#linear-gradient-14)"/>
              <rect id="Rectángulo_42902" data-name="Rectángulo 42902" width="2.803" height="52.449" transform="translate(20.617 60.43)" fill="url(#linear-gradient-14)"/>
              <rect id="Rectángulo_42903" data-name="Rectángulo 42903" width="2.803" height="52.969" transform="translate(30.927 53.715)" fill="url(#linear-gradient-14)"/>
              <rect id="Rectángulo_42904" data-name="Rectángulo 42904" width="2.803" height="53.492" transform="translate(41.233 47.001)" fill="url(#linear-gradient-14)"/>
              <rect id="Rectángulo_42905" data-name="Rectángulo 42905" width="2.801" height="54.012" transform="translate(51.543 40.287)" fill="url(#linear-gradient-14)"/>
              <rect id="Rectángulo_42906" data-name="Rectángulo 42906" width="2.801" height="54.532" transform="translate(61.851 33.572)" fill="url(#linear-gradient-14)"/>
              <rect id="Rectángulo_42907" data-name="Rectángulo 42907" width="2.801" height="55.055" transform="translate(72.161 26.858)" fill="url(#linear-gradient-14)"/>
              <rect id="Rectángulo_42908" data-name="Rectángulo 42908" width="2.8" height="55.575" transform="translate(82.47 20.144)" fill="url(#linear-gradient-14)"/>
              <rect id="Rectángulo_42909" data-name="Rectángulo 42909" width="2.803" height="56.098" transform="translate(92.777 13.428)" fill="url(#linear-gradient-14)"/>
              <rect id="Rectángulo_42910" data-name="Rectángulo 42910" width="2.804" height="56.619" transform="translate(103.087 6.714)" fill="url(#linear-gradient-14)"/>
              <rect id="Rectángulo_42911" data-name="Rectángulo 42911" width="2.803" height="57.138" transform="translate(113.394 0)" fill="url(#linear-gradient-14)"/>
            </g>
            <g id="Grupo_144926" data-name="Grupo 144926" transform="translate(501.245 489.733)">
              <path id="Trazado_218033" data-name="Trazado 218033" d="M568.893,700.649c0,2.531.876,4.325,2.3,5.193.041.027,4.486,2.6,4.53,2.624,1.477.825.532-1.05,2.778-2.346,4.515-2.609,8.179-8.925,8.179-14.11,0-2.562,2.371-2.583.917-3.439-.041-.024-4.77-2.641-4.811-2.664-1.474-.8-3.488-.651-5.708.63C572.556,689.147,568.893,695.465,568.893,700.649Z" transform="translate(-568.893 -685.416)" fill="url(#linear-gradient-27)"/>
              <path id="Trazado_218034" data-name="Trazado 218034" d="M577.049,705.276c0,5.184,3.664,7.272,8.179,4.665s8.183-8.925,8.183-14.109-3.665-7.272-8.183-4.664S577.049,700.093,577.049,705.276Z" transform="translate(-572.31 -687.356)" fill="url(#linear-gradient-28)"/>
              <path id="Trazado_218035" data-name="Trazado 218035" d="M584.559,706.8c0,2.419,1.71,3.392,3.816,2.176a8.4,8.4,0,0,0,3.815-6.58c0-2.417-1.705-3.392-3.815-2.176A8.413,8.413,0,0,0,584.559,706.8Z" transform="translate(-575.457 -691.4)" fill="url(#linear-gradient-29)"/>
              <path id="Trazado_218036" data-name="Trazado 218036" d="M584.557,690.831c2.167-1.25,4.132-1.419,5.6-.687a6.429,6.429,0,0,0-4.888.961c-4.521,2.608-8.184,8.926-8.184,14.11,0,2.7.995,4.555,2.586,5.35-2-.558-3.29-2.544-3.29-5.625C576.378,699.756,580.036,693.439,584.557,690.831Z" transform="translate(-572.029 -687.215)" fill="url(#radial-gradient-9)" style="mix-blend-mode: screen;isolation: isolate"/>
            </g>
            <path id="Trazado_218037" data-name="Trazado 218037" d="M581.189,675.318V694.81l-2.166,1.337-17.2-9.491Z" transform="translate(-64.686 -191.452)" fill="#d84318"/>
            <g id="Grupo_144927" data-name="Grupo 144927" transform="translate(418.135 538.037)">
              <path id="Trazado_218038" data-name="Trazado 218038" d="M425.844,783.789c0,2.532.873,4.325,2.293,5.194.044.026,4.487,2.6,4.533,2.623,1.477.827.531-1.05,2.775-2.344,4.52-2.609,8.183-8.925,8.183-14.109,0-2.564,2.369-2.584.916-3.441-.038-.023-4.769-2.641-4.812-2.662-1.472-.8-3.488-.653-5.708.631C429.505,772.288,425.844,778.605,425.844,783.789Z" transform="translate(-425.844 -768.557)" fill="url(#linear-gradient-30)"/>
              <path id="Trazado_218039" data-name="Trazado 218039" d="M434,788.417c0,5.184,3.662,7.273,8.177,4.663s8.18-8.924,8.18-14.107-3.661-7.272-8.18-4.664S434,783.233,434,788.417Z" transform="translate(-429.261 -770.496)" fill="url(#linear-gradient-31)"/>
              <path id="Trazado_218040" data-name="Trazado 218040" d="M441.509,789.942c0,2.418,1.707,3.391,3.814,2.175a8.412,8.412,0,0,0,3.818-6.582c0-2.417-1.711-3.392-3.818-2.175A8.409,8.409,0,0,0,441.509,789.942Z" transform="translate(-432.408 -774.54)" fill="url(#linear-gradient-32)"/>
              <path id="Trazado_218041" data-name="Trazado 218041" d="M441.5,773.971c2.167-1.25,4.135-1.418,5.6-.688a6.44,6.44,0,0,0-4.891.964c-4.517,2.607-8.178,8.924-8.178,14.109,0,2.7.992,4.556,2.582,5.35-2-.557-3.292-2.545-3.292-5.626C433.318,782.9,436.982,776.58,441.5,773.971Z" transform="translate(-428.976 -770.356)" fill="url(#radial-gradient-10)" style="mix-blend-mode: screen;isolation: isolate"/>
            </g>
            <path id="Trazado_218042" data-name="Trazado 218042" d="M438.137,758.461v19.491l-2.167,1.337-17.2-9.49Z" transform="translate(-4.744 -226.29)" fill="#d84318"/>
            <g id="Grupo_144929" data-name="Grupo 144929" transform="translate(450.341 501.192)">
              <g id="Grupo_144928" data-name="Grupo 144928" transform="translate(0 0)">
                <rect id="Rectángulo_42912" data-name="Rectángulo 42912" width="94.61" height="2.8" transform="matrix(0.863, -0.506, 0.506, 0.863, 0, 47.873)" fill="#c7bcd6"/>
              </g>
            </g>
            <g id="Grupo_144931" data-name="Grupo 144931" transform="translate(476.25 516.279)">
              <g id="Grupo_144930" data-name="Grupo 144930" transform="translate(0 0)">
                <rect id="Rectángulo_42913" data-name="Rectángulo 42913" width="94.998" height="2.799" transform="matrix(0.863, -0.505, 0.505, 0.863, 0, 48.007)" fill="#c7bcd6"/>
              </g>
            </g>
            <g id="Grupo_144941" data-name="Grupo 144941" transform="translate(425.064 486.437)">
              <g id="Grupo_144932" data-name="Grupo 144932" transform="translate(81.281 0)">
                <rect id="Rectángulo_42914" data-name="Rectángulo 42914" width="2.802" height="90.641" transform="translate(0 2.426) rotate(-59.976)" fill="url(#linear-gradient-33)"/>
              </g>
              <g id="Grupo_144933" data-name="Grupo 144933" transform="translate(71.121 6.031)">
                <rect id="Rectángulo_42915" data-name="Rectángulo 42915" width="2.801" height="90.642" transform="matrix(0.5, -0.866, 0.866, 0.5, 0, 2.425)" fill="url(#linear-gradient-34)"/>
              </g>
              <g id="Grupo_144934" data-name="Grupo 144934" transform="translate(60.962 12.06)">
                <rect id="Rectángulo_42916" data-name="Rectángulo 42916" width="2.802" height="90.641" transform="matrix(0.5, -0.866, 0.866, 0.5, 0, 2.426)" fill="url(#linear-gradient-35)"/>
              </g>
              <g id="Grupo_144935" data-name="Grupo 144935" transform="translate(50.803 18.092)">
                <rect id="Rectángulo_42917" data-name="Rectángulo 42917" width="2.801" height="90.641" transform="translate(0 2.425) rotate(-59.975)" fill="url(#linear-gradient-36)"/>
              </g>
              <g id="Grupo_144936" data-name="Grupo 144936" transform="translate(40.641 24.122)">
                <rect id="Rectángulo_42918" data-name="Rectángulo 42918" width="2.802" height="90.643" transform="translate(0 2.426) rotate(-59.975)" fill="url(#linear-gradient-37)"/>
              </g>
              <g id="Grupo_144937" data-name="Grupo 144937" transform="translate(30.481 30.154)">
                <rect id="Rectángulo_42919" data-name="Rectángulo 42919" width="2.802" height="90.642" transform="translate(0 2.426) rotate(-59.975)" fill="url(#linear-gradient-38)"/>
              </g>
              <g id="Grupo_144938" data-name="Grupo 144938" transform="translate(20.322 36.184)">
                <rect id="Rectángulo_42920" data-name="Rectángulo 42920" width="2.801" height="90.643" transform="translate(0 2.425) rotate(-59.975)" fill="url(#linear-gradient-36)"/>
              </g>
              <g id="Grupo_144939" data-name="Grupo 144939" transform="translate(10.161 42.215)">
                <rect id="Rectángulo_42921" data-name="Rectángulo 42921" width="2.803" height="90.642" transform="translate(0 2.427) rotate(-59.976)" fill="url(#linear-gradient-40)"/>
              </g>
              <g id="Grupo_144940" data-name="Grupo 144940" transform="translate(0 48.246)">
                <rect id="Rectángulo_42922" data-name="Rectángulo 42922" width="2.802" height="90.643" transform="matrix(0.5, -0.866, 0.866, 0.5, 0, 2.426)" fill="url(#linear-gradient-41)"/>
              </g>
            </g>
            <g id="Grupo_144942" data-name="Grupo 144942" transform="translate(533.402 336.404)">
              <rect id="Rectángulo_42923" data-name="Rectángulo 42923" width="79.953" height="2.801" transform="translate(0 75.696) rotate(-71.218)" fill="url(#linear-gradient-42)"/>
              <rect id="Rectángulo_42924" data-name="Rectángulo 42924" width="79.952" height="2.8" transform="matrix(0.323, -0.946, 0.946, 0.323, 8.734, 80.708)" fill="url(#linear-gradient-43)"/>
              <path id="Trazado_218043" data-name="Trazado 218043" d="M657.01,515.393l-2.648-.9,25.8-75.676,2.655.9Z" transform="translate(-636.862 -428.757)" fill="url(#linear-gradient-44)"/>
              <rect id="Rectángulo_42925" data-name="Rectángulo 42925" width="79.954" height="2.802" transform="translate(26.298 90.768) rotate(-71.231)" fill="url(#linear-gradient-45)"/>
              <rect id="Rectángulo_42926" data-name="Rectángulo 42926" width="79.954" height="2.799" transform="matrix(0.322, -0.947, 0.947, 0.322, 35.034, 95.782)" fill="url(#linear-gradient-46)"/>
              <rect id="Rectángulo_42927" data-name="Rectángulo 42927" width="79.954" height="2.801" transform="translate(43.816 100.813) rotate(-71.218)" fill="url(#linear-gradient-47)"/>
              <rect id="Rectángulo_42928" data-name="Rectángulo 42928" width="79.954" height="2.799" transform="matrix(0.322, -0.947, 0.947, 0.322, 52.568, 105.833)" fill="url(#linear-gradient-43)"/>
              <path id="Trazado_218044" data-name="Trazado 218044" d="M732.43,558.623l-2.654-.9,25.8-75.678,2.648.9Z" transform="translate(-668.462 -446.871)" fill="url(#linear-gradient-49)"/>
            </g>
            <path id="Trazado_218045" data-name="Trazado 218045" d="M694.268,478.6l-2.216,6.313-13.9-8.016,2.2-6.221-14.723-8.383-14.5,40.968,43.173,24.9,14.5-41.284Z" transform="translate(-102.106 -102.192)" fill="#d84318"/>
            <g id="Grupo_144943" data-name="Grupo 144943" transform="translate(496.446 583.647)">
              <path id="Trazado_218046" data-name="Trazado 218046" d="M560.633,862.294c0,2.533.873,4.326,2.292,5.194.044.026,4.49,2.6,4.535,2.622,1.477.827.532-1.047,2.776-2.344,4.518-2.609,8.18-8.925,8.18-14.109,0-2.563,2.369-2.584.919-3.441-.038-.023-4.772-2.641-4.811-2.661-1.475-.8-3.489-.653-5.711.63C564.3,850.794,560.633,857.11,560.633,862.294Z" transform="translate(-560.633 -847.062)" fill="url(#linear-gradient-50)"/>
              <path id="Trazado_218047" data-name="Trazado 218047" d="M568.789,866.923c0,5.183,3.66,7.272,8.179,4.664s8.18-8.925,8.18-14.109-3.661-7.272-8.18-4.664S568.789,861.738,568.789,866.923Z" transform="translate(-564.05 -849.001)" fill="url(#linear-gradient-6)"/>
              <path id="Trazado_218048" data-name="Trazado 218048" d="M576.3,868.447c0,2.418,1.708,3.393,3.814,2.176a8.411,8.411,0,0,0,3.816-6.582c0-2.417-1.709-3.391-3.816-2.175A8.408,8.408,0,0,0,576.3,868.447Z" transform="translate(-567.198 -853.045)" fill="url(#linear-gradient-7)"/>
              <path id="Trazado_218049" data-name="Trazado 218049" d="M576.294,852.476c2.164-1.249,4.13-1.418,5.595-.687a6.444,6.444,0,0,0-4.89.963c-4.516,2.608-8.178,8.925-8.178,14.108,0,2.7.994,4.557,2.581,5.352-2-.559-3.288-2.546-3.288-5.626C568.114,861.4,571.774,855.086,576.294,852.476Z" transform="translate(-563.768 -848.861)" fill="url(#radial-gradient-11)" style="mix-blend-mode: screen;isolation: isolate"/>
            </g>
            <path id="Trazado_218050" data-name="Trazado 218050" d="M572.929,836.964v19.493l-2.165,1.337-17.2-9.492Z" transform="translate(-61.225 -259.184)" fill="#d84318"/>
            <g id="Grupo_144944" data-name="Grupo 144944" transform="translate(579.558 535.344)">
              <path id="Trazado_218051" data-name="Trazado 218051" d="M703.685,779.153c0,2.534.874,4.327,2.3,5.2l4.531,2.623c1.48.827.533-1.048,2.78-2.344,4.516-2.609,8.179-8.925,8.179-14.11,0-2.562,2.369-2.582.919-3.439l-4.812-2.664c-1.474-.8-3.488-.651-5.708.631C707.349,767.654,703.685,773.971,703.685,779.153Z" transform="translate(-703.685 -763.922)" fill="url(#linear-gradient-53)"/>
              <path id="Trazado_218052" data-name="Trazado 218052" d="M711.839,783.781c0,5.185,3.663,7.273,8.181,4.665s8.179-8.924,8.179-14.109-3.664-7.272-8.179-4.664S711.839,778.6,711.839,783.781Z" transform="translate(-707.102 -765.861)" fill="url(#linear-gradient-54)"/>
              <path id="Trazado_218053" data-name="Trazado 218053" d="M719.351,785.306c0,2.418,1.708,3.392,3.817,2.175a8.4,8.4,0,0,0,3.816-6.58c0-2.419-1.708-3.391-3.816-2.174A8.4,8.4,0,0,0,719.351,785.306Z" transform="translate(-710.249 -769.905)" fill="url(#linear-gradient-55)"/>
              <path id="Trazado_218054" data-name="Trazado 218054" d="M719.346,769.336c2.165-1.25,4.13-1.419,5.6-.687a6.435,6.435,0,0,0-4.89.962c-4.52,2.607-8.182,8.926-8.182,14.109,0,2.7.995,4.556,2.584,5.352-2-.559-3.291-2.546-3.291-5.626C711.165,778.261,714.827,771.945,719.346,769.336Z" transform="translate(-706.819 -765.721)" fill="url(#radial-gradient-12)" style="mix-blend-mode: screen;isolation: isolate"/>
            </g>
            <path id="Trazado_218055" data-name="Trazado 218055" d="M715.98,753.823v19.494l-2.167,1.338-17.2-9.492Z" transform="translate(-121.165 -224.347)" fill="#d84318"/>
            <g id="Grupo_144945" data-name="Grupo 144945" transform="translate(409.068 425.569)">
              <path id="Trazado_218056" data-name="Trazado 218056" d="M482.812,742.542a25.377,25.377,0,0,1-12.588-3.329l-54.237-30.991a11.42,11.42,0,0,1-.024-19.812l95.988-55.193a23.745,23.745,0,0,0,11.879-20.534v-.532a23.692,23.692,0,0,0-12.216-20.723L490.749,579.88l2.714-4.9,20.865,11.549a29.292,29.292,0,0,1,15.1,25.624v.532a29.36,29.36,0,0,1-14.689,25.39l-95.987,55.194a5.816,5.816,0,0,0,.012,10.091L473,734.351a19.838,19.838,0,0,0,19.605,0l97.759-55.8a23.686,23.686,0,0,0,.211-41.018l-21.534-12.587,2.828-4.837L593.405,632.7a29.289,29.289,0,0,1-.262,50.721l-97.754,55.8A25.386,25.386,0,0,1,482.812,742.542Z" transform="translate(-410.237 -574.977)" fill="#c7bcd6"/>
              <path id="Trazado_218057" data-name="Trazado 218057" d="M493.854,576.069,514.2,587.33a28.7,28.7,0,0,1,14.8,25.1v.532A28.763,28.763,0,0,1,514.6,637.84l-95.987,55.193a6.411,6.411,0,0,0,.013,11.124l54.236,30.993a20.379,20.379,0,0,0,19.653.274c.186-.08,1.934-1.066,2.11-1.165l95.7-54.63c.489-.279,1.448-.857,1.9-1.178a24.156,24.156,0,0,0,.2-40.041c-.41-.428-5.51-3.507-6.034-3.813L571.05,625.62l.772-3.691.422-.722,21.019,12.287a28.68,28.68,0,0,1,1.021,48.9c-.415.276-1.264.781-1.7,1.029l-97.331,55.562a24.756,24.756,0,0,1-11.619,3.231q-.44.011-.881.008a24.794,24.794,0,0,1-10.87-2.614c-.408-.2-1.189-.622-1.584-.848l-53.858-30.775a10.6,10.6,0,0,1-5.3-7.76,11.088,11.088,0,0,1-.094-2.144,10.48,10.48,0,0,1,2.891-6.747,15.008,15.008,0,0,1,3.389-2.652l95.077-54.669a24.266,24.266,0,0,0,12.13-20.265c.005-.042.01-.484.014-.527a24.286,24.286,0,0,0-.082-2.683c-.016-.138-.033-.407-.052-.544a24.1,24.1,0,0,0-11.07-17.875c-.384-.358-5.094-3.041-5.565-3.3l-15.057-8.333.713-3.667Z" transform="translate(-410.571 -575.435)" fill="#cdc5d9"/>
              <path id="Trazado_218058" data-name="Trazado 218058" d="M494.223,577.16l19.823,10.973a28.1,28.1,0,0,1,14.49,24.583v.532a28.167,28.167,0,0,1-14.093,24.358L418.457,692.8a7.006,7.006,0,0,0,.015,12.157l54.236,30.993a20.958,20.958,0,0,0,19.7.546c.371-.16,1.778-.938,2.131-1.138l95.74-54.651c.326-.186,1.614-.942,1.917-1.156a24.707,24.707,0,0,0,2.086-40.265,51.78,51.78,0,0,0-5.895-4.018l-15.354-8.974-.863-3.266.423-.723,20.5,11.987a28.08,28.08,0,0,1,.6,48.133c-.277.184-1.407.842-1.7,1.009l-96.907,55.319a24.158,24.158,0,0,1-11.545,3.156q-.438.008-.876,0a24.188,24.188,0,0,1-10.76-2.74c-.272-.13-1.3-.7-1.561-.855l-53.478-30.559a9.987,9.987,0,0,1-5.05-7.785,10.478,10.478,0,0,1,.015-2.125,9.815,9.815,0,0,1,3.36-6.418,22.226,22.226,0,0,1,3.475-2.467l94.165-54.145a24.835,24.835,0,0,0,12.381-19.995c.01-.085.02-.436.028-.522a24.727,24.727,0,0,0-.01-2.666c-.01-.091-.022-.448-.035-.54a24.629,24.629,0,0,0-10.146-18.275,53.5,53.5,0,0,0-5.424-3.445L494.677,581.1l-.868-3.189Z" transform="translate(-410.883 -575.892)" fill="#d3cedb"/>
              <path id="Trazado_218059" data-name="Trazado 218059" d="M494.573,578.251l19.3,10.684A27.51,27.51,0,0,1,528.058,613v.532a27.57,27.57,0,0,1-13.794,23.842l-95.987,55.193a7.6,7.6,0,0,0,.016,13.19l54.236,30.993a21.577,21.577,0,0,0,19.748.817c.557-.241,1.623-.811,2.151-1.111l95.776-54.671c.163-.093,1.78-1.027,1.932-1.134A25.342,25.342,0,0,0,596.1,640.16a34.416,34.416,0,0,0-5.755-4.223L575,626.964l-2.5-2.84.424-.725,19.991,11.687a27.489,27.489,0,0,1,.18,47.365c-.138.092-1.549.9-1.695.988l-96.484,55.078a23.584,23.584,0,0,1-11.472,3.082c-.29,0-.582,0-.871-.008a23.59,23.59,0,0,1-10.649-2.868c-.136-.065-1.407-.785-1.539-.86l-53.1-30.342a9.439,9.439,0,0,1-4.8-7.81,9.854,9.854,0,0,1,.125-2.106,9.3,9.3,0,0,1,3.829-6.089c.222-.281,3.235-2.094,3.561-2.281l93.253-53.621a25.459,25.459,0,0,0,12.631-19.725c.016-.128.03-.389.043-.517a25.276,25.276,0,0,0,.062-2.648c-.005-.046-.011-.49-.017-.536a25.287,25.287,0,0,0-9.224-18.676,35.16,35.16,0,0,0-5.283-3.588l-14.855-8.22-2.449-2.71Z" transform="translate(-411.174 -576.349)" fill="#d9d7de"/>
              <path id="Trazado_218060" data-name="Trazado 218060" d="M483.323,741.289a23.034,23.034,0,0,1-11.407-3.012l-54.235-30.992a9.038,9.038,0,0,1-.02-15.681l95.988-55.193a26.132,26.132,0,0,0,13.074-22.6v-.532a26.074,26.074,0,0,0-13.442-22.807l-18.785-10.4.41-.735,18.782,10.4a26.915,26.915,0,0,1,13.875,23.542v.532a26.972,26.972,0,0,1-13.5,23.326L418.08,692.332a8.2,8.2,0,0,0,.018,14.223l54.237,30.992a22.217,22.217,0,0,0,21.967.005l97.758-55.8a26.07,26.07,0,0,0,.232-45.142l-19.479-11.385.425-.726,19.477,11.386a26.907,26.907,0,0,1-.24,46.6l-97.754,55.8A23.022,23.022,0,0,1,483.323,741.289Z" transform="translate(-411.449 -576.806)" fill="#dfe0e0"/>
            </g>
            <path id="Trazado_218061" data-name="Trazado 218061" d="M627.1,624.973l-78.354-45.1,2.8-4.855,78.349,45.1Z" transform="translate(-59.205 -149.425)" fill="#c7bcd6"/>
            <g id="Grupo_144958" data-name="Grupo 144958" transform="translate(413.089 406.295)">
              <g id="Grupo_144946" data-name="Grupo 144946" transform="translate(111.672 0)">
                <rect id="Rectángulo_42929" data-name="Rectángulo 42929" width="2.802" height="90.644" transform="matrix(0.5, -0.866, 0.866, 0.5, 0, 2.426)" fill="#c7bcd6"/>
              </g>
              <g id="Grupo_144947" data-name="Grupo 144947" transform="translate(101.522 5.882)">
                <rect id="Rectángulo_42930" data-name="Rectángulo 42930" width="2.802" height="90.641" transform="translate(0 2.426) rotate(-59.975)" fill="#c7bcd6"/>
              </g>
              <g id="Grupo_144948" data-name="Grupo 144948" transform="translate(91.368 11.762)">
                <rect id="Rectángulo_42931" data-name="Rectángulo 42931" width="2.803" height="90.642" transform="translate(0 2.426) rotate(-59.975)" fill="#c7bcd6"/>
              </g>
              <g id="Grupo_144949" data-name="Grupo 144949" transform="translate(81.218 17.643)">
                <rect id="Rectángulo_42932" data-name="Rectángulo 42932" width="2.802" height="90.642" transform="translate(0 2.426) rotate(-59.975)" fill="#c7bcd6"/>
              </g>
              <g id="Grupo_144950" data-name="Grupo 144950" transform="translate(71.066 23.524)">
                <rect id="Rectángulo_42933" data-name="Rectángulo 42933" width="2.801" height="90.64" transform="translate(0 2.425) rotate(-59.976)" fill="#c7bcd6"/>
              </g>
              <g id="Grupo_144951" data-name="Grupo 144951" transform="translate(60.915 29.403)">
                <path id="Trazado_218062" data-name="Trazado 218062" d="M600.484,640.193l-78.479-45.357,1.4-2.426,78.479,45.356Z" transform="translate(-522.005 -592.41)" fill="#c7bcd6"/>
              </g>
              <g id="Grupo_144952" data-name="Grupo 144952" transform="translate(50.76 35.286)">
                <rect id="Rectángulo_42934" data-name="Rectángulo 42934" width="2.801" height="90.644" transform="matrix(0.5, -0.866, 0.866, 0.5, 0, 2.425)" fill="#c7bcd6"/>
              </g>
              <g id="Grupo_144953" data-name="Grupo 144953" transform="translate(40.609 41.165)">
                <rect id="Rectángulo_42935" data-name="Rectángulo 42935" width="2.802" height="90.641" transform="matrix(0.5, -0.866, 0.866, 0.5, 0, 2.426)" fill="#c7bcd6"/>
              </g>
              <g id="Grupo_144954" data-name="Grupo 144954" transform="translate(30.455 47.046)">
                <rect id="Rectángulo_42936" data-name="Rectángulo 42936" width="2.801" height="90.643" transform="matrix(0.5, -0.866, 0.866, 0.5, 0, 2.425)" fill="#c7bcd6"/>
              </g>
              <g id="Grupo_144955" data-name="Grupo 144955" transform="translate(20.304 52.927)">
                <rect id="Rectángulo_42937" data-name="Rectángulo 42937" width="2.801" height="90.641" transform="matrix(0.5, -0.866, 0.866, 0.5, 0, 2.425)" fill="#c7bcd6"/>
              </g>
              <g id="Grupo_144956" data-name="Grupo 144956" transform="translate(10.152 58.807)">
                <rect id="Rectángulo_42938" data-name="Rectángulo 42938" width="2.802" height="90.641" transform="translate(0 2.426) rotate(-59.975)" fill="#c7bcd6"/>
              </g>
              <g id="Grupo_144957" data-name="Grupo 144957" transform="translate(0 64.687)">
                <rect id="Rectángulo_42939" data-name="Rectángulo 42939" width="2.802" height="90.642" transform="translate(0 2.426) rotate(-59.975)" fill="#c7bcd6"/>
              </g>
            </g>
            <g id="Grupo_144959" data-name="Grupo 144959" transform="translate(409.068 292.505)">
              <path id="Trazado_218063" data-name="Trazado 218063" d="M471.613,572.526a2.8,2.8,0,0,1-1.389-.368l-54.237-30.993a11.42,11.42,0,0,1-.024-19.812l108.365-62.31,32.161-92.78A26.891,26.891,0,0,1,567.8,352.189l9.5-5.829a2.8,2.8,0,1,1,2.929,4.777l-9.5,5.828a21.262,21.262,0,0,0-8.947,11.132l-32.852,94.759L418.756,526.21a5.817,5.817,0,0,0,.012,10.092L473,567.294a2.8,2.8,0,0,1-1.39,5.232Z" transform="translate(-410.237 -345.946)" fill="#c7bcd6"/>
              <path id="Trazado_218064" data-name="Trazado 218064" d="M580.777,347.9a1.215,1.215,0,0,1,.18.618c.279.9-.841,2.375-1.679,2.889l-6.534,4.009c-.24.147-2.662,1.658-2.877,1.836a21.771,21.771,0,0,0-8.128,9.951c-.14.33-.382.99-.5,1.33l-32.666,94.223L418.587,526a6.18,6.18,0,0,0-3.127,4.961,6.328,6.328,0,0,0,.284,2.382,5.979,5.979,0,0,0,2.032,2.908,32.9,32.9,0,0,0,3.961,2.667l50.209,28.69c.933.532,2.193,2.18,1.788,3.145a.83.83,0,0,1-.064.294,1.54,1.54,0,0,1-.161.306,1.51,1.51,0,0,1-.333.321,1.226,1.226,0,0,1-.182.1,3.232,3.232,0,0,1-1.686.232,3.6,3.6,0,0,1-1.338-.445l-53.558-30.605a10.824,10.824,0,0,1-.024-18.779l107.992-62.1,1.213-2.192,31.19-89.975a35.305,35.305,0,0,1,1.932-4.522,26.172,26.172,0,0,1,8.815-9.876c.224-.187,2.74-1.756,2.991-1.91l6.44-3.952c.838-.513,2.674-.849,3.347-.193a.913.913,0,0,1,.177.114A1.408,1.408,0,0,1,580.777,347.9Z" transform="translate(-410.54 -346.429)" fill="#cdc5d9"/>
              <path id="Trazado_218065" data-name="Trazado 218065" d="M580.4,348.384a.709.709,0,0,1,.073.6c.186.6-1.588,2.214-2.146,2.556l-6.5,3.986c-.48.294-2.4,1.519-2.829,1.877a22.337,22.337,0,0,0-7.825,10.109c-.094.22-.4,1.093-.483,1.32l-32.48,93.687L418.418,525.656a6.7,6.7,0,0,0-3.338,4.872,6.921,6.921,0,0,0,.071,2.4,6.43,6.43,0,0,0,1.631,3.14c.353.721,3.009,2.525,3.742,2.945l50.364,28.779c.622.355,2.649,2.132,2.379,2.775a.45.45,0,0,1,.024.281.917.917,0,0,1-.122.31.908.908,0,0,1-.345.285.66.66,0,0,1-.19.048c-.248.2-1.32-.137-1.634-.137a5.3,5.3,0,0,1-1.286-.522L416.835,540.61a10.229,10.229,0,0,1-.023-17.747l107.617-61.88,1.564-1.9,31.081-89.659c.272-.783,1.411-3.833,1.818-4.546a25.544,25.544,0,0,1,8.361-10.175c.449-.375,2.444-1.649,2.946-1.957l6.418-3.938c.559-.342,2.824-1.2,3.273-.768a.452.452,0,0,1,.191.055A.841.841,0,0,1,580.4,348.384Z" transform="translate(-410.843 -346.774)" fill="#d3cedb"/>
              <path id="Trazado_218066" data-name="Trazado 218066" d="M580.018,348.763a.5.5,0,0,1-.034.591c.094.3-2.334,2.052-2.614,2.223l-6.456,3.962a31.6,31.6,0,0,0-2.781,1.917,22.975,22.975,0,0,0-7.523,10.267c-.047.11-.428,1.2-.468,1.31l-32.294,93.152-109.6,63.021a7.337,7.337,0,0,0-3.549,4.783,7.594,7.594,0,0,0-.141,2.409,7.164,7.164,0,0,0,1.23,3.373,10.7,10.7,0,0,0,3.521,3.222l50.519,28.868c.311.177,3.107,2.084,2.972,2.406a.368.368,0,0,1,.111.267.552.552,0,0,1-.439.563.461.461,0,0,1-.2,0c-.124.1-1.425-.5-1.581-.5a10.587,10.587,0,0,1-1.236-.6l-52.2-29.83a9.634,9.634,0,0,1-.022-16.714L524.48,461.78l1.914-1.6,30.972-89.344c.136-.392,1.5-4.213,1.705-4.57a24.984,24.984,0,0,1,7.907-10.473,32.621,32.621,0,0,1,2.9-2l6.4-3.925c.279-.171,2.975-1.561,3.2-1.342a.357.357,0,0,1,.205,0A.573.573,0,0,1,580.018,348.763Z" transform="translate(-411.146 -347.016)" fill="#d9d7de"/>
              <path id="Trazado_218067" data-name="Trazado 218067" d="M472.122,570.657a.419.419,0,0,1-.206-.054L417.682,539.61a9.038,9.038,0,0,1-.02-15.681L526.8,461.176l32.455-93.621a24.5,24.5,0,0,1,10.308-12.825l9.5-5.827a.411.411,0,0,1,.219-.063.429.429,0,0,1,.361.2.421.421,0,0,1-.141.577l-9.5,5.828a23.652,23.652,0,0,0-9.953,12.383l-32.559,93.917L418.08,524.658a8.194,8.194,0,0,0,.018,14.221l54.237,30.993a.414.414,0,0,1,.2.254.435.435,0,0,1-.044.317A.416.416,0,0,1,472.122,570.657Z" transform="translate(-411.449 -347.158)" fill="#dfe0e0"/>
            </g>
            <g id="Grupo_144960" data-name="Grupo 144960" transform="translate(408.848 328.353)">
              <path id="Trazado_218068" data-name="Trazado 218068" d="M415.26,515.349a10.79,10.79,0,0,1-.468-18.412l69.117-44.644,69.117-44.645,78.208,45.558a4.225,4.225,0,0,1,.165,7.2l-3.038-4.708a1.376,1.376,0,0,0,.052,2.343l-75.239-43.826L485.5,457.931l-67.671,43.712a5.188,5.188,0,0,0,.225,8.851Z" transform="translate(-409.858 -407.648)" fill="#c7bcd6"/>
              <path id="Trazado_218069" data-name="Trazado 218069" d="M553.619,408.549l75.754,44.127c.962.561,2.361,2.032,2.388,3.142.017.843.328,2-.229,2.592-.031.033-.1.087-.128.119a7.659,7.659,0,0,1-.655.523l-3.432-4.2c-.3.192-.765.369-.756.723s-.081.522.225.7l-68.641-39.984-5.776-1.684L487.514,456.5l-2.111,1.364-66.984,43.268a6.787,6.787,0,0,0-1.257,1.045,5.393,5.393,0,0,0-1.454,3.157,5.314,5.314,0,0,0,1.136,3.907,5.034,5.034,0,0,0,.565.6c.051.375-1.539,3.761-1.292,4.037l-.455.791a9.894,9.894,0,0,1-3.841-4.906,10.137,10.137,0,0,1-.542-4.345,9.682,9.682,0,0,1,1.312-4.059c.615-1.5,2.989-3.644,4.41-4.562l65.6-42.376,2.7-1.741Z" transform="translate(-410.435 -408.026)" fill="#cdc5d9"/>
              <path id="Trazado_218070" data-name="Trazado 218070" d="M554.107,409.449l73.3,42.7c.641.374,2.657,1.985,2.675,2.725.011.562,1.045,1.812.673,2.209-.021.023-.109.088-.131.109-.209.169-.42.338-.631.5l-3.827-3.7c-.2.128-.89.024-.884.26s-.435.127-.231.246l-67.921-39.564-5.674.055-64.174,41.453-2.085,1.346-66.3,42.825a9.931,9.931,0,0,0-1.281.982,5.837,5.837,0,0,0-1.364,6.891,5.318,5.318,0,0,0,.4.688c.1.751-.742,3.467-.246,4.019l-.45.783a9.209,9.209,0,0,1-3.333-5.135,9.452,9.452,0,0,1-.034-4.289,8.882,8.882,0,0,1,1.828-3.737c.41-1,3.739-3.558,4.686-4.17l64.824-41.872,2.659-1.717Z" transform="translate(-410.908 -408.403)" fill="#d3cedb"/>
              <path id="Trazado_218071" data-name="Trazado 218071" d="M554.5,410.35l70.846,41.267c.321.187,2.953,1.939,2.962,2.309.005.281,1.761,1.627,1.576,1.826-.01.011-.121.087-.133.1q-.317.23-.608.486l-4.221-3.194c-.1.064-1.016-.32-1.013-.2s-.788-.269-.686-.209l-67.2-39.145-5.572,1.794L486.954,456.4l-2.058,1.33-65.611,42.381c-.119.077-1.219.815-1.3.921a6.548,6.548,0,0,0-2.41,6.719,6.1,6.1,0,0,0,.235.778c.155,1.126.055,3.173.8,4l-.443.773a8.7,8.7,0,0,1-2.825-5.364,8.871,8.871,0,0,1,.475-4.235,8.46,8.46,0,0,1,2.344-3.416c.205-.5,4.489-3.471,4.962-3.776l64.045-41.369,2.623-1.694Z" transform="translate(-411.283 -408.78)" fill="#d9d7de"/>
              <path id="Trazado_218072" data-name="Trazado 218072" d="M416.277,512.613a8.415,8.415,0,0,1,1.526-12.867L486.3,455.5l68.5-44.248,74.118,43.173-.134.087a3.545,3.545,0,0,0-.585.468l-73.378-42.743-68.285,44.109-68.285,44.109a7.581,7.581,0,0,0-1.544,11.4Z" transform="translate(-411.576 -409.157)" fill="#dfe0e0"/>
            </g>
            <rect id="Rectángulo_42940" data-name="Rectángulo 42940" width="2.802" height="39.94" transform="translate(612.747 387.452)" fill="url(#linear-gradient-14)"/>
            <g id="Grupo_144961" data-name="Grupo 144961" transform="translate(548.081 399.32)">
              <rect id="Rectángulo_42941" data-name="Rectángulo 42941" width="2.8" height="51.513" transform="translate(0 2.43) rotate(-60.213)" fill="#c7bcd6"/>
            </g>
            <path id="Trazado_218073" data-name="Trazado 218073" d="M689.665,351.476A2.792,2.792,0,0,0,690.776,354l81.6,45.573c.716.4.259-.51,1.349-1.137a8.75,8.75,0,0,0,3.967-6.849c0-1.244,1.154-1.254.448-1.669-.019-.012-81.712-45.583-81.732-45.593a2.83,2.83,0,0,0-2.772.306A8.745,8.745,0,0,0,689.665,351.476Z" transform="translate(-118.253 -52.66)" fill="#d84318"/>
            <path id="Trazado_218074" data-name="Trazado 218074" d="M830.28,429.973c0,2.516,1.778,3.53,3.971,2.263a8.74,8.74,0,0,0,3.968-6.847c0-2.517-1.774-3.531-3.968-2.264A8.749,8.749,0,0,0,830.28,429.973Z" transform="translate(-177.172 -85.551)" fill="url(#linear-gradient-57)"/>
            <path id="Trazado_218075" data-name="Trazado 218075" d="M833.924,422.96a2.872,2.872,0,0,1,2.717-.332,3.118,3.118,0,0,0-2.372.466,8.75,8.75,0,0,0-3.972,6.849,2.7,2.7,0,0,0,1.254,2.6c-.97-.272-1.6-1.236-1.6-2.731A8.758,8.758,0,0,1,833.924,422.96Z" transform="translate(-177.036 -85.483)" fill="url(#radial-gradient-13)" style="mix-blend-mode: screen;isolation: isolate"/>
            <g id="Grupo_144962" data-name="Grupo 144962" transform="translate(644.113 338.37)">
              <path id="Trazado_218076" data-name="Trazado 218076" d="M817.6,436.343a2.8,2.8,0,0,1-1.394-5.232l10.179-5.849a2.8,2.8,0,1,1,2.79,4.859l-10.182,5.849A2.784,2.784,0,0,1,817.6,436.343Z" transform="translate(-814.797 -424.889)" fill="#c7bcd6"/>
            </g>
            <g id="Grupo_144963" data-name="Grupo 144963" transform="translate(490.183 312.553)">
              <path id="Trazado_218077" data-name="Trazado 218077" d="M553.725,387.6l8.706-2.557,1.687-4.586,8.52,109.763-19.627-16.768Z" transform="translate(-551.176 -380.452)" fill="#1b3f5e"/>
              <path id="Trazado_218078" data-name="Trazado 218078" d="M643.173,529.389,575.01,492.973l-3-112.52,66.724,38.522Z" transform="translate(-559.139 -380.452)" fill="#fff"/>
              <path id="Trazado_218079" data-name="Trazado 218079" d="M664.073,605.088l.364,30.57,18.628-11.965Z" transform="translate(-597.712 -474.578)" fill="url(#linear-gradient-58)"/>
              <path id="Trazado_218080" data-name="Trazado 218080" d="M667.13,453.9l2.349-5.332,8.045-1.812,5.764,110.6-18.711-18.172Z" transform="translate(-597.924 -408.235)" fill="#1b3f5e"/>
              <path id="Trazado_218081" data-name="Trazado 218081" d="M616.577,546.685l-66.724-38.522,2.483-115.416,66.723,38.524Z" transform="translate(-549.853 -385.604)" fill="#f0f8ff"/>
              <path id="Trazado_218082" data-name="Trazado 218082" d="M587.8,430.038c0,1.533-1.085,2.152-2.422,1.379a5.336,5.336,0,0,1-2.422-4.176c0-1.533,1.085-2.152,2.422-1.38A5.339,5.339,0,0,1,587.8,430.038Z" transform="translate(-563.724 -399.34)" fill="#c7bcd6" style="mix-blend-mode: multiply;isolation: isolate"/>
              <path id="Trazado_218083" data-name="Trazado 218083" d="M629.471,453.7c0,1.534-1.087,2.153-2.423,1.38a5.341,5.341,0,0,1-2.422-4.176c0-1.535,1.087-2.154,2.422-1.382A5.342,5.342,0,0,1,629.471,453.7Z" transform="translate(-581.184 -409.256)" fill="#c7bcd6" style="mix-blend-mode: multiply;isolation: isolate"/>
              <path id="Trazado_218084" data-name="Trazado 218084" d="M586.486,430.473a5.33,5.33,0,0,1-2.422-4.176,2.426,2.426,0,0,1,.115-.736c-.723.062-1.221.663-1.221,1.694a5.336,5.336,0,0,0,2.422,4.176c1.1.63,2,.323,2.308-.643A2.046,2.046,0,0,1,586.486,430.473Z" transform="translate(-563.724 -399.354)" fill="#c7bcd6" style="mix-blend-mode: multiply;isolation: isolate"/>
              <path id="Trazado_218085" data-name="Trazado 218085" d="M628.154,454.139a5.329,5.329,0,0,1-2.422-4.176,2.4,2.4,0,0,1,.116-.736c-.727.059-1.223.664-1.223,1.694a5.341,5.341,0,0,0,2.422,4.176c1.092.63,2,.324,2.307-.644A2.061,2.061,0,0,1,628.154,454.139Z" transform="translate(-581.184 -409.27)" fill="#c7bcd6" style="mix-blend-mode: multiply;isolation: isolate"/>
              <path id="Trazado_218086" data-name="Trazado 218086" d="M601.755,475.341a10.362,10.362,0,0,1-5.676-1.712A22.4,22.4,0,0,1,585.869,454.8V435.782a1.18,1.18,0,0,1,2.36,0V454.8a20.05,20.05,0,0,0,9.137,16.858,8.064,8.064,0,0,0,12.467-6.758V449.262a1.18,1.18,0,0,1,2.36,0V464.9a10.281,10.281,0,0,1-5.455,9.163A10.438,10.438,0,0,1,601.755,475.341Z" transform="translate(-564.944 -403.143)" fill="#c7bcd6" style="mix-blend-mode: multiply;isolation: isolate"/>
              <path id="Trazado_218087" data-name="Trazado 218087" d="M601,469.255a10.378,10.378,0,0,1-5.676-1.712,22.406,22.406,0,0,1-10.208-18.833V429.7a1.179,1.179,0,1,1,2.358,0V448.71a20.045,20.045,0,0,0,9.136,16.857,8.065,8.065,0,0,0,12.468-6.757V443.176a1.179,1.179,0,1,1,2.357,0V458.81a10.279,10.279,0,0,1-5.457,9.162A10.423,10.423,0,0,1,601,469.255Z" transform="translate(-564.628 -400.592)" fill="#c7bcd6"/>
            </g>
            <g id="Grupo_144964" data-name="Grupo 144964" transform="translate(461.243 356.609)">
              <path id="Trazado_218088" data-name="Trazado 218088" d="M503.669,465.216l11.123-3.846,4.164-5.087,5.407,84.015L503,526.02Z" transform="translate(-501.281 -456.282)" fill="#c12e0c"/>
              <path id="Trazado_218089" data-name="Trazado 218089" d="M598.337,576.421,535.767,540.3l-5.406-84.015,62.569,36.124Z" transform="translate(-512.745 -456.282)" fill="#a81c00"/>
              <path id="Trazado_218090" data-name="Trazado 218090" d="M607.148,636.867l.339,28.667L630.5,652.079Z" transform="translate(-544.92 -531.95)" fill="#7f1800"/>
              <path id="Trazado_218091" data-name="Trazado 218091" d="M610.014,527.392l5.159-6.447,10.13-2.486,5.408,84.015-23.089-14.806Z" transform="translate(-545.118 -482.335)" fill="#c12e0c"/>
              <path id="Trazado_218092" data-name="Trazado 218092" d="M562.608,596.31,500.04,560.186l2.33-88.527,62.566,36.124Z" transform="translate(-500.04 -462.725)" fill="#d84318"/>
              <path id="Trazado_218093" data-name="Trazado 218093" d="M563.163,630.61l-62.125-35.868-.094,3.6,62.57,36.123Z" transform="translate(-500.419 -514.299)" fill="#f1f2f2" style="mix-blend-mode: multiply;isolation: isolate"/>
              <path id="Trazado_218094" data-name="Trazado 218094" d="M540.716,515.439c0,1.439-1.018,2.019-2.269,1.294a5,5,0,0,1-2.271-3.915c0-1.44,1.016-2.02,2.271-1.3A5.01,5.01,0,0,1,540.716,515.439Z" transform="translate(-515.182 -479.298)" fill="#c7bcd6" style="mix-blend-mode: multiply;isolation: isolate"/>
              <path id="Trazado_218095" data-name="Trazado 218095" d="M579.791,537.631c0,1.438-1.018,2.019-2.271,1.294a5,5,0,0,1-2.271-3.916c0-1.44,1.016-2.02,2.271-1.294A5.005,5.005,0,0,1,579.791,537.631Z" transform="translate(-531.554 -488.597)" fill="#c7bcd6" style="mix-blend-mode: multiply;isolation: isolate"/>
              <path id="Trazado_218096" data-name="Trazado 218096" d="M539.482,515.848a5,5,0,0,1-2.269-3.917,2.377,2.377,0,0,1,.105-.691c-.679.057-1.142.623-1.142,1.588a5,5,0,0,0,2.271,3.917c1.022.591,1.877.3,2.161-.6A1.928,1.928,0,0,1,539.482,515.848Z" transform="translate(-515.182 -479.31)" fill="#c7bcd6" style="mix-blend-mode: multiply;isolation: isolate"/>
              <path id="Trazado_218097" data-name="Trazado 218097" d="M578.552,538.04a5.006,5.006,0,0,1-2.269-3.915,2.264,2.264,0,0,1,.108-.691c-.68.056-1.147.622-1.147,1.588a5,5,0,0,0,2.274,3.916c1.024.591,1.878.3,2.163-.6A1.935,1.935,0,0,1,578.552,538.04Z" transform="translate(-531.552 -488.61)" fill="#c7bcd6" style="mix-blend-mode: multiply;isolation: isolate"/>
              <path id="Trazado_218098" data-name="Trazado 218098" d="M553.8,557.922a9.723,9.723,0,0,1-5.321-1.606,21,21,0,0,1-9.573-17.659V520.825a1.105,1.105,0,1,1,2.21,0v17.831a18.81,18.81,0,0,0,8.568,15.809,7.566,7.566,0,0,0,11.694-6.337v-14.66a1.105,1.105,0,1,1,2.211,0v14.66a9.638,9.638,0,0,1-5.118,8.591A9.768,9.768,0,0,1,553.8,557.922Z" transform="translate(-516.326 -482.864)" fill="#c7bcd6" style="mix-blend-mode: multiply;isolation: isolate"/>
              <path id="Trazado_218099" data-name="Trazado 218099" d="M553.09,552.216a9.718,9.718,0,0,1-5.322-1.607,21.008,21.008,0,0,1-9.571-17.66v-17.83a1.1,1.1,0,1,1,2.209,0v17.83a18.806,18.806,0,0,0,8.568,15.808,7.563,7.563,0,0,0,11.692-6.336V527.76a1.105,1.105,0,0,1,2.211,0v14.66a9.638,9.638,0,0,1-5.115,8.592A9.779,9.779,0,0,1,553.09,552.216Z" transform="translate(-516.028 -480.472)" fill="#c7bcd6"/>
            </g>
            <g id="Grupo_144971" data-name="Grupo 144971" transform="translate(408.85 338.37)">
              <g id="Grupo_144965" data-name="Grupo 144965" transform="translate(74.981 75.504)">
                <rect id="Rectángulo_42942" data-name="Rectángulo 42942" width="153.194" height="2.8" transform="matrix(0.863, -0.506, 0.506, 0.863, 0, 77.444)" fill="#c7bcd6"/>
              </g>
              <g id="Grupo_144966" data-name="Grupo 144966" transform="translate(73.998 57.672)">
                <rect id="Rectángulo_42943" data-name="Rectángulo 42943" width="2.803" height="51.407" transform="translate(0 73)" fill="url(#linear-gradient-14)"/>
                <path id="Trazado_218100" data-name="Trazado 218100" d="M558.66,690.31h-2.8V639.783l2.8-1.4Z" transform="translate(-545.034 -572.018)" fill="url(#linear-gradient-14)"/>
                <rect id="Rectángulo_42944" data-name="Rectángulo 42944" width="2.804" height="52.449" transform="translate(21.646 59.728)" fill="url(#linear-gradient-14)"/>
                <rect id="Rectángulo_42945" data-name="Rectángulo 42945" width="2.804" height="52.97" transform="translate(32.471 53.091)" fill="url(#linear-gradient-14)"/>
                <rect id="Rectángulo_42946" data-name="Rectángulo 42946" width="2.8" height="53.49" transform="translate(43.295 46.456)" fill="url(#linear-gradient-14)"/>
                <rect id="Rectángulo_42947" data-name="Rectángulo 42947" width="2.8" height="54.012" transform="translate(54.119 39.819)" fill="url(#linear-gradient-14)"/>
                <rect id="Rectángulo_42948" data-name="Rectángulo 42948" width="2.8" height="54.534" transform="translate(64.941 33.182)" fill="url(#linear-gradient-14)"/>
                <rect id="Rectángulo_42949" data-name="Rectángulo 42949" width="2.799" height="55.053" transform="translate(75.765 26.547)" fill="url(#linear-gradient-14)"/>
                <rect id="Rectángulo_42950" data-name="Rectángulo 42950" width="2.804" height="55.575" transform="translate(86.584 19.91)" fill="url(#linear-gradient-14)"/>
                <rect id="Rectángulo_42951" data-name="Rectángulo 42951" width="2.802" height="56.097" transform="translate(97.411 13.273)" fill="url(#linear-gradient-14)"/>
                <rect id="Rectángulo_42952" data-name="Rectángulo 42952" width="2.803" height="56.618" transform="translate(108.233 6.636)" fill="url(#linear-gradient-14)"/>
                <rect id="Rectángulo_42953" data-name="Rectángulo 42953" width="2.802" height="57.14" transform="translate(119.058)" fill="url(#linear-gradient-14)"/>
              </g>
              <g id="Grupo_144967" data-name="Grupo 144967" transform="translate(5.179 96.271)">
                <rect id="Rectángulo_42954" data-name="Rectángulo 42954" width="2.804" height="50.452" fill="url(#linear-gradient-14)"/>
                <rect id="Rectángulo_42955" data-name="Rectángulo 42955" width="2.802" height="50.452" transform="translate(8.464 4.75)" fill="url(#linear-gradient-14)"/>
                <rect id="Rectángulo_42956" data-name="Rectángulo 42956" width="2.8" height="50.452" transform="translate(16.927 9.501)" fill="url(#linear-gradient-14)"/>
                <rect id="Rectángulo_42957" data-name="Rectángulo 42957" width="2.802" height="50.452" transform="translate(25.39 14.251)" fill="url(#linear-gradient-14)"/>
                <rect id="Rectángulo_42958" data-name="Rectángulo 42958" width="2.803" height="50.452" transform="translate(33.851 19.001)" fill="url(#linear-gradient-14)"/>
                <rect id="Rectángulo_42959" data-name="Rectángulo 42959" width="2.8" height="50.452" transform="translate(42.316 23.751)" fill="url(#linear-gradient-14)"/>
                <rect id="Rectángulo_42960" data-name="Rectángulo 42960" width="2.802" height="50.452" transform="translate(50.779 28.501)" fill="url(#linear-gradient-14)"/>
                <rect id="Rectángulo_42961" data-name="Rectángulo 42961" width="2.802" height="50.452" transform="translate(59.243 33.252)" fill="url(#linear-gradient-14)"/>
              </g>
              <g id="Grupo_144969" data-name="Grupo 144969" transform="translate(0 35.542)">
                <g id="Grupo_144968" data-name="Grupo 144968">
                  <path id="Trazado_218101" data-name="Trazado 218101" d="M483.68,583.882a24.3,24.3,0,0,1-12.144-3.261l-56.274-32.414a10.723,10.723,0,0,1-5.4-9.077c-.1-3.789,5.557-1.964,5.6-.142a5.149,5.149,0,0,0,2.595,4.363l56.273,32.414a18.64,18.64,0,0,0,19.481-.486L628.363,488.56c-.4.257,2.873-2.5,2.873-2.5a4.224,4.224,0,0,1,.165,7.2l-134.55,86.72A24.294,24.294,0,0,1,483.68,583.882Z" transform="translate(-409.862 -486.065)" fill="#c7bcd6"/>
                  <path id="Trazado_218102" data-name="Trazado 218102" d="M484.034,584.783a23.735,23.735,0,0,1-11.847-3.181l-56.273-32.414a10.125,10.125,0,0,1-5.1-8.575c-.087-3.376,4.366-1.938,4.411-.113a5.74,5.74,0,0,0,2.893,4.864l56.273,32.414a17.765,17.765,0,0,0,17.245.343c1.011,0,102.911-65.332,103.768-65.883-.3.193,33.8-22.287,33.8-22.287a3.521,3.521,0,0,1,1.726,2.776,3.162,3.162,0,0,1-1.417,2.757l-132.633,85.5A23.688,23.688,0,0,1,484.034,584.783Z" transform="translate(-410.26 -487.693)" fill="#d2cadd"/>
                  <path id="Trazado_218103" data-name="Trazado 218103" d="M484.388,585.686a23.155,23.155,0,0,1-11.549-3.1L416.566,550.17a9.534,9.534,0,0,1-4.8-8.075c-.077-2.961,3.174-1.911,3.22-.083a6.328,6.328,0,0,0,3.191,5.364l56.272,32.415a17.332,17.332,0,0,0,15.009,1.172c2.024,0,71.273-43.944,72.987-45.047-.2.128,64.734-42.077,64.734-42.077a2.906,2.906,0,0,1,1.351,2,2.119,2.119,0,0,1-.9,1.866L496.912,581.982A23.083,23.083,0,0,1,484.388,585.686Z" transform="translate(-410.658 -489.322)" fill="#dcd7e4"/>
                  <path id="Trazado_218104" data-name="Trazado 218104" d="M484.742,586.587a22.577,22.577,0,0,1-11.251-3.022l-56.272-32.414a8.939,8.939,0,0,1-4.506-7.574c-.067-2.547,1.983-1.884,2.029-.053a6.924,6.924,0,0,0,3.49,5.866L474.5,581.8a17.871,17.871,0,0,0,12.774,2c3.035,0,39.635-22.556,42.2-24.212l95.665-61.868a2.594,2.594,0,0,1,.977,1.215,1.087,1.087,0,0,1-.381.975l-128.8,83.064A22.48,22.48,0,0,1,484.742,586.587Z" transform="translate(-411.055 -490.95)" fill="#e6e4eb"/>
                  <path id="Trazado_218105" data-name="Trazado 218105" d="M485.095,587.489a22,22,0,0,1-10.953-2.942L417.87,552.132a8.342,8.342,0,0,1-4.209-7.073c-.057-2.133.792-1.857.838-.023a7.513,7.513,0,0,0,3.788,6.366l56.272,32.416a21.026,21.026,0,0,0,21.961-.547l126.6-81.66a3.624,3.624,0,0,0,.6.435l.138.085L496.973,583.975A21.878,21.878,0,0,1,485.095,587.489Z" transform="translate(-411.453 -492.579)" fill="#f1f2f2"/>
                </g>
              </g>
              <g id="Grupo_144970" data-name="Grupo 144970" transform="translate(4.558)">
                <path id="Trazado_218106" data-name="Trazado 218106" d="M485.942,608.563a25.382,25.382,0,0,1-12.588-3.327l-54.237-30.993a2.8,2.8,0,0,1,2.781-4.863l54.235,30.991a19.836,19.836,0,0,0,19.605,0l110.2-62.906,31.9-91.9A26.824,26.824,0,0,1,649.82,431.11L660,425.261a2.8,2.8,0,1,1,2.79,4.859l-10.182,5.848a21.207,21.207,0,0,0-9.47,11.439l-16.3,46.944-16.3,46.944L498.519,605.243A25.4,25.4,0,0,1,485.942,608.563Z" transform="translate(-417.707 -424.889)" fill="#c7bcd6"/>
                <path id="Trazado_218107" data-name="Trazado 218107" d="M663.782,426.9a1.224,1.224,0,0,1,.163.626c.252.9-.905,2.343-1.755,2.832l-7.247,4.163c-.235.135-2.618,1.524-2.83,1.689a21.7,21.7,0,0,0-8.772,10.53c-.1.257-.288.765-.379,1.028l-16.174,46.59L610.527,541.2,498.7,605.036a24.761,24.761,0,0,1-11.617,3.232q-.441.011-.882.008a24.806,24.806,0,0,1-10.87-2.613c-.408-.2-1.189-.623-1.584-.849l-53.858-30.776a1.514,1.514,0,0,1-.456-.456,2.207,2.207,0,0,1-.271-2.607.719.719,0,0,1,.141-.13c.612-.9,2.707-.677,3.663-.13L476.311,601.2a20.485,20.485,0,0,0,20.2,0l109.818-62.688,1.235-2.226,16.272-46.878,14.64-42.175a35.45,35.45,0,0,1,1.962-4.581,26.113,26.113,0,0,1,9.424-10.227c.23-.181,2.791-1.677,3.047-1.824l7.067-4.06c.852-.489,2.7-.772,3.352-.1a.849.849,0,0,1,.163.11A1.394,1.394,0,0,1,663.782,426.9Z" transform="translate(-418.18 -425.375)" fill="#cdc5d9"/>
                <path id="Trazado_218108" data-name="Trazado 218108" d="M663.756,427.376a.709.709,0,0,1,.056.608c.168.6-1.638,2.156-2.2,2.483l-7.19,4.13c-.471.27-2.358,1.4-2.782,1.726a22.261,22.261,0,0,0-8.464,10.661c-.07.171-.307.841-.368,1.016l-16.051,46.236-16.223,46.733L498.893,604.695a24.163,24.163,0,0,1-11.544,3.157q-.439.008-.877,0a24.193,24.193,0,0,1-10.759-2.741c-.272-.13-1.3-.7-1.562-.855L420.672,573.7a.712.712,0,0,1-.357-.494,1.6,1.6,0,0,1-.058-1.808.56.56,0,0,1,.162-.069c.408-.6,2.989.225,3.625.59l52.46,29.978a21.1,21.1,0,0,0,20.787,0l109.434-62.469,1.591-1.923L624.533,490.8l14.588-42.023c.277-.8,1.432-3.883,1.846-4.6a25.482,25.482,0,0,1,8.947-10.553c.46-.361,2.492-1.579,3-1.873l7.044-4.047c.568-.327,2.86-1.124,3.3-.674a.433.433,0,0,1,.177.055A.838.838,0,0,1,663.756,427.376Z" transform="translate(-418.67 -425.726)" fill="#d3cedb"/>
                <path id="Trazado_218109" data-name="Trazado 218109" d="M663.7,427.736a.5.5,0,0,1-.051.591c.084.3-2.372,1.97-2.655,2.133l-7.132,4.1a31.823,31.823,0,0,0-2.734,1.762,22.9,22.9,0,0,0-8.158,10.792c-.035.086-.326.917-.356,1.005L626.685,494,610.5,540.625,499.057,604.24a23.585,23.585,0,0,1-11.47,3.083q-.437,0-.873-.009a23.581,23.581,0,0,1-10.648-2.869c-.136-.065-1.407-.785-1.539-.86l-53.1-30.343a.5.5,0,0,1-.257-.533,1.047,1.047,0,0,1,.156-1.01.41.41,0,0,1,.183-.008c.2-.3,3.269,1.127,3.588,1.31l51.573,29.471a21.672,21.672,0,0,0,21.377,0L607.1,540.225l1.949-1.619L625.2,492.065l14.536-41.872c.138-.4,1.524-4.268,1.731-4.628a24.935,24.935,0,0,1,8.47-10.878,32.661,32.661,0,0,1,2.962-1.922l7.022-4.035c.284-.163,3.021-1.476,3.238-1.25a.344.344,0,0,1,.192,0A.571.571,0,0,1,663.7,427.736Z" transform="translate(-419.13 -425.964)" fill="#d9d7de"/>
                <path id="Trazado_218110" data-name="Trazado 218110" d="M487.66,606.694a23.02,23.02,0,0,1-11.405-3.014l-54.236-30.993a.419.419,0,0,1,.211-.784.406.406,0,0,1,.2.053l54.236,30.993a22.213,22.213,0,0,0,21.968,0l110.973-63.347,16.1-46.373,16.1-46.373a24.464,24.464,0,0,1,10.912-13.174l10.182-5.849a.4.4,0,0,1,.206-.056.428.428,0,0,1,.37.214.421.421,0,0,1-.159.573l-10.18,5.849A23.6,23.6,0,0,0,642.6,447.137l-16.149,46.522L610.3,540.181l-111.248,63.5A23.021,23.021,0,0,1,487.66,606.694Z" transform="translate(-419.424 -426.101)" fill="#dfe0e0"/>
              </g>
            </g>
            <path id="Trazado_218111" data-name="Trazado 218111" d="M528.516,649.458a25.67,25.67,0,0,1-9.766-1.939,3,3,0,0,1-1.486-4.273l1.254-2.175a2.961,2.961,0,0,1,3.69-1.218,17.206,17.206,0,0,0,13.5-.376,2.969,2.969,0,0,1,3.7,1.151l1.311,2.033A3,3,0,0,1,539.454,647,25.557,25.557,0,0,1,528.516,649.458Z" transform="translate(-45.847 -176.328)" fill="#d84318"/>
            <path id="Trazado_218112" data-name="Trazado 218112" d="M539.461,648.593a25.565,25.565,0,0,1-20.7.518,3,3,0,0,1-1.771-2.041,3,3,0,0,0,1.771,3.559,25.568,25.568,0,0,0,20.7-.519,3,3,0,0,0,1.627-3.464A3.007,3.007,0,0,1,539.461,648.593Z" transform="translate(-45.855 -179.438)" fill="#be31b6" style="mix-blend-mode: darken;isolation: isolate"/>
            <path id="Trazado_218113" data-name="Trazado 218113" d="M414.949,578.549a2.462,2.462,0,0,1-3.814.6,12.21,12.21,0,0,1-.435-17.043,2.461,2.461,0,0,1,3.839.41l1.975,3.058a2.588,2.588,0,0,1-.08,2.808,3.8,3.8,0,0,0,.107,4.206,2.589,2.589,0,0,1,.225,2.8Z" transform="translate(0 -143.706)" fill="#d84318"/>
            <path id="Trazado_218114" data-name="Trazado 218114" d="M412.068,578.834A12.235,12.235,0,0,1,410.2,563.67a12.192,12.192,0,0,0,.939,16.447,2.462,2.462,0,0,0,3.814-.6l.357-.622A2.422,2.422,0,0,1,412.068,578.834Z" transform="translate(0 -144.67)" fill="#be31b6" style="mix-blend-mode: darken;isolation: isolate"/>
          </g>
        </g>
        <g id="Grupo_144975" data-name="Grupo 144975">
          <circle id="Elipse_5116" data-name="Elipse 5116" cx="9.875" cy="9.875" r="9.875" transform="matrix(0.726, -0.687, 0.687, 0.726, 1281.946, 186.369)" fill="none" stroke="#1b3f5e" stroke-linecap="round" stroke-miterlimit="10" stroke-width="2"/>
          <path id="Trazado_189409" data-name="Trazado 189409" d="M1168.565,94.557a6.311,6.311,0,1,1-6.311-6.311A6.311,6.311,0,0,1,1168.565,94.557Z" transform="translate(152.73 72.81)" fill="none" stroke="#1b3f5e" stroke-linecap="round" stroke-miterlimit="10" stroke-width="2"/>
          <g id="Grupo_144974" data-name="Grupo 144974" transform="translate(152.73 72.81)">
            <path id="Trazado_189400" data-name="Trazado 189400" d="M1033.581,54.049h-9.264l7.021,14.922-7.021,14.922h9.264l7.021-14.922Z" fill="url(#radial-gradient-14)"/>
            <path id="Trazado_189401" data-name="Trazado 189401" d="M1049.866,54.049H1040.6l7.021,14.922L1040.6,83.893h9.264l7.021-14.922Z" fill="url(#radial-gradient-15)"/>
            <path id="Trazado_189402" data-name="Trazado 189402" d="M1066.151,54.049h-9.264l7.021,14.922-7.021,14.922h9.264l7.021-14.922Z" fill="url(#radial-gradient-16)"/>
            <path id="Trazado_189403" data-name="Trazado 189403" d="M1082.436,54.049h-9.264l7.021,14.922-7.021,14.922h9.264l7.021-14.922Z" fill="url(#radial-gradient-17)"/>
            <path id="Trazado_189404" data-name="Trazado 189404" d="M1098.721,54.049h-9.264l7.021,14.922-7.021,14.922h9.264l7.021-14.922Z" fill="url(#radial-gradient-15)"/>
            <path id="Trazado_189405" data-name="Trazado 189405" d="M1115.007,54.049h-9.264l7.021,14.922-7.021,14.922h9.264l7.021-14.922Z" fill="url(#radial-gradient-19)"/>
            <path id="Trazado_189406" data-name="Trazado 189406" d="M1131.292,54.049h-9.264l7.021,14.922-7.021,14.922h9.264l7.021-14.922Z" fill="url(#radial-gradient-20)"/>
            <path id="Trazado_189407" data-name="Trazado 189407" d="M1147.577,54.049h-9.264l7.021,14.922-7.021,14.922h9.264l7.021-14.922Z" fill="url(#radial-gradient-15)"/>
          </g>
          <path id="Trazado_218115" data-name="Trazado 218115" d="M1007.358,33.822l-7.08,7.08-7.08-7.08-8.24,8.24,7.08,7.08-7.08,7.08,8.24,8.24,7.08-7.08,7.08,7.08,8.24-8.24-7.08-7.08,7.08-7.08Z" transform="translate(152.73 72.81)" fill="none" stroke="#1b3f5e" stroke-linecap="round" stroke-miterlimit="10" stroke-width="2"/>
        </g>
      </g>
    </g>
  </g>
</svg>
