<svg xmlns="http://www.w3.org/2000/svg" width="190" height="190" viewBox="0 0 190 190">
  <g id="Grupo_145103" data-name="Grupo 145103" transform="translate(-23218 7247)">
    <g id="Elipse_5587" data-name="Elipse 5587" transform="translate(23218 -7247)" fill="#fff" stroke="#1b3f5e" stroke-width="9">
      <circle cx="95" cy="95" r="95" stroke="none"/>
      <circle cx="95" cy="95" r="90.5" fill="none"/>
    </g>
    <g id="Grupo_144905" data-name="Grupo 144905" transform="translate(22935.197 -7410.844)">
      <path id="Trazado_217808" data-name="Trazado 217808" d="M483.088,374.006q4.979.01,9.958.02c2.476,0,3.392.732,4.006,3.161q5.85,23.146,11.7,46.29,2.168,8.581,4.306,17.17c-1.466,1.1-3.205,1.137-4.905,1.139q-40.292.033-80.584.019a13.917,13.917,0,0,1-2.513-.039c-1.338-.249-2.876.049-3.894-1.23,1.282-5.132,2.551-10.267,3.849-15.395q6.12-24.185,12.258-48.367a3.21,3.21,0,0,1,3.5-2.748q6.636,0,13.272,0c.248.406.783.724.405,1.322l-1.141.68a13.2,13.2,0,0,0-2.282,1.259c-.5.262-.458.593-.226,1.033a4.31,4.31,0,0,1,.7,1.785c-3.779.009-7.559.061-11.337,0-1.007-.016-1.32.308-1.528,1.257q-2.932,13.391-5.966,26.76-3.146,13.922-6.354,27.831c-.182.79-.031,1.017.827,1.016q40.086-.034,80.172-.006c.771,0,1.041-.055.831-.978q-6.242-27.408-12.382-54.838c-.2-.9-.581-1.031-1.367-1.027-4.314.021-8.627,0-12.941-.013.167-.733.709-1.7.426-2.151-.634-1,.019-1.526.352-2.217C482.519,375.16,482.805,374.584,483.088,374.006Z" transform="translate(-89.97 -129.239)" fill="#242020"/>
      <path id="Trazado_217809" data-name="Trazado 217809" d="M419.461,608.071c1.018,1.279,2.556.981,3.894,1.23a13.914,13.914,0,0,0,2.513.039q40.292,0,80.584-.019c1.7,0,3.439-.038,4.905-1.139a10.638,10.638,0,0,1,.619,2.666,5.045,5.045,0,0,1-4.235,5.622,10.644,10.644,0,0,1-2.049.161q-40.3,0-80.6,0a9.462,9.462,0,0,1-2.608-.282,5.173,5.173,0,0,1-3.57-6.305C419.049,609.378,419.276,608.729,419.461,608.071Zm32.576,5.393h27.7c.343,0,.687,0,1.03-.008a.569.569,0,0,0,.636-.634c.007-.4-.033-.8-.5-.912a3.863,3.863,0,0,0-.91-.055q-27.932,0-55.865,0a5.341,5.341,0,0,0-.8.035c-.476.073-.576.427-.585.843-.01.463.182.724.667.725.305,0,.611.006.916.006Zm43.693,0q4.915,0,9.83,0c.559,0,1.23.115,1.259-.755.032-.944-.671-.851-1.28-.851q-9.831,0-19.661,0c-.562,0-1.23-.107-1.26.756-.032.942.671.85,1.281.85Q490.815,613.467,495.73,613.464Z" transform="translate(-88.264 -296.774)" fill="#424141"/>
      <path id="Trazado_217810" data-name="Trazado 217810" d="M643.4,209.363q-5.224,4.53-10.447,9.059c-1.527,1.325-3.056,2.647-4.569,3.988-.424.375-.741.518-1.256.067q-7.449-6.517-14.935-12.991a2.077,2.077,0,0,1-.211-.377c1.633,0,3.169-.049,4.7.018.905.04,1.164-.254,1.155-1.158-.044-4.426,0-8.853-.039-13.278-.009-.9.153-1.255,1.165-1.247q8.757.076,17.514,0c.923-.007,1.144.276,1.135,1.159-.042,4.312-.024,8.623-.017,12.935,0,1.726-.2,1.557,1.62,1.566,1.363.007,2.727,0,4.09,0Zm-17.3.264c-.371-.13-.437.1-.528.318-.179.429.144.543.422.648.59.224,1.422.151,1.292,1.179-.02.155.181.211.345.215.273.006.476-.124.447-.391-.076-.687.408-.868.875-1.158a1.945,1.945,0,0,0,.1-3.272,12.17,12.17,0,0,0-1.515-.785c-.527-.28-1.019-.616-.779-1.326.214-.634.775-.659,1.326-.627a2.321,2.321,0,0,1,.668.134c.323.12.607.166.741-.232s-.147-.524-.451-.647c-.382-.155-.974-.07-.9-.778a.4.4,0,0,0-.469-.493c-.374.023-.409.3-.392.575.029.476-.272.611-.634.811a1.808,1.808,0,0,0-.059,3.3c.484.3,1.024.5,1.525.774a1.033,1.033,0,0,1,.594,1.232,1.14,1.14,0,0,1-1.11.835A2.7,2.7,0,0,1,626.092,209.626Zm9.357-2.369a7.943,7.943,0,0,0-1.571-4.619c-.214-.277-.406-.742-.872-.281-.319.316-.7.564-.3,1.135a6.031,6.031,0,0,1-.09,7.614c-.448.608.031.792.31,1.1.434.482.647.052.874-.235A7.984,7.984,0,0,0,635.45,207.258Zm-7.662-7.669a6.975,6.975,0,0,0-4.666,1.485c-.27.2-.9.356-.406.931.365.423.7.784,1.29.219a4.55,4.55,0,0,1,1.809-.944,5.954,5.954,0,0,1,4.957.51c.7.4,1.027-.076,1.3-.489.357-.551-.3-.588-.558-.738A6.577,6.577,0,0,0,627.787,199.588Zm-.2,15.381a7.4,7.4,0,0,0,3.739-.937c.291-.171.97-.223.576-.827-.28-.428-.593-.782-1.3-.415a5.925,5.925,0,0,1-6.572-.507c-.613-.442-.882-.12-1.208.268-.47.559.121.744.4.95A7.615,7.615,0,0,0,627.588,214.969Zm-7.593-7.64a7.491,7.491,0,0,0,1.081,3.813c.148.233.236.8.7.449.321-.241.887-.5.567-1.078a6.322,6.322,0,0,1-.059-6.408c.322-.6-.261-.819-.563-1.075-.468-.4-.551.171-.7.41A7.624,7.624,0,0,0,619.995,207.329Z" transform="translate(-226.545)" fill="#9c5da4"/>
      <path id="Trazado_217811" data-name="Trazado 217811" d="M771.151,502.829c3.051,0,6.1.031,9.154-.02.824-.014,1.008.242,1,1.026-.044,3.165-.027,6.331,0,9.5,0,.317-.263.885.33.913.708.033.429-.6.433-.948.026-2.365.037-4.73,0-7.094-.011-.7.21-.924.914-.906,1.753.046,3.509.041,5.263.005a1.442,1.442,0,0,1,1.618,1.234c.339,1.205.829,2.369,1.258,3.549a1.837,1.837,0,0,0,.312.729c1.92,1.742.909,4,1.012,6.034a1.53,1.53,0,0,1-1.779,1.528c-.57-.03-1.144-.018-1.716,0a2.519,2.519,0,0,1-2.575-1.089,3.133,3.133,0,0,0-5.157.346,1.39,1.39,0,0,1-1.35.754q-4.805-.047-9.612,0a1.348,1.348,0,0,1-1.288-.681,3.253,3.253,0,0,0-5.613.036c-.367.528-2.773.945-3.21.532a.784.784,0,0,1-.153-.514c-.014-.953-.013-1.907,0-2.861,0-.182.057-.519.111-.524,1.239-.107.732-1.056.741-1.649.046-2.86.085-5.723-.011-8.581-.039-1.16.342-1.365,1.4-1.339C765.2,502.877,768.175,502.829,771.151,502.829Zm19.311,8.438c-.6-1.6-1.155-3.087-1.713-4.574-.129-.345-.405-.395-.735-.392-1.449.01-2.9.018-4.347,0-.491-.007-.684.181-.678.666q.022,1.83,0,3.661c-.006.5.218.653.695.649C785.891,511.258,788.1,511.267,790.462,511.267Z" transform="translate(-332.475 -221.425)" fill="#424141"/>
      <path id="Trazado_217812" data-name="Trazado 217812" d="M362.785,304.621q.027,7.028.056,14.056c0,.876.022,1.752.034,2.628l-2.487,3.265c-.012-1.829-.043-3.658-.026-5.487.006-.647-.142-.973-.883-.968q-5.888.04-11.777,0c-.717,0-.926.292-.906.957.033,1.066.008,2.134.008,3.2,0,2.316,0,2.276,2.281,2.329a20.542,20.542,0,0,1,4.872.182c-.672,1.016-1.844,1.633-2.272,2.844-2.588.011-5.177.01-7.764.04-.582.007-.8-.178-.8-.783q.05-11.133.063-22.265Zm-9.184,6.831c1.907,0,3.813.01,5.719-.008.411,0,1.016.19,1.006-.558-.009-.666-.558-.506-.94-.507q-5.891-.016-11.782,0c-.386,0-.943-.146-.907.529.032.6.543.539.955.541C349.635,311.455,351.618,311.452,353.6,311.452Zm-.13,2.586c-1.906,0-3.813-.014-5.719.011-.4.005-1.045-.248-1.05.492,0,.68.594.571,1.032.571q5.834.011,11.668,0c.391,0,.92.13.929-.528s-.517-.539-.911-.541C357.437,314.034,355.454,314.039,353.471,314.039Zm.176-7.12c-1.983,0-3.967-.007-5.949.007-.348,0-.852-.126-.838.479.011.507.447.436.773.437q5.949.009,11.9,0c.322,0,.758.087.776-.429.022-.615-.478-.484-.826-.486C357.538,306.912,355.592,306.919,353.647,306.919Z" transform="translate(-34.11 -79.576)" fill="#fbfbfb"/>
      <path id="Trazado_217813" data-name="Trazado 217813" d="M604.169,356.59c-.283.578-.569,1.154-.848,1.733-.333.691-.985,1.216-.352,2.217.284.448-.258,1.418-.425,2.151a4.254,4.254,0,0,0-.913,2.048,69.561,69.561,0,0,0-2.707,8.7,6.182,6.182,0,0,0-.585,2.073,23.558,23.558,0,0,0-1.213,6.943c.065.829-.108,1.441-1.149,1.263-1.745-.24-3.5.08-5.243-.057a3.325,3.325,0,0,0,.017-.557,68.5,68.5,0,0,1-.232-12.883,147.064,147.064,0,0,1,1.786-15.957c.2-1.235.027-2.587.87-3.68.651.845,1.336,1.666,1.943,2.543.493.712.838.942,1.475.089a11.188,11.188,0,0,1,2.754-2.558c1.138-.765,2.362-1.4,3.725-.654a3.729,3.729,0,0,1,1.78,3.595A9.4,9.4,0,0,1,604.169,356.59Zm-1.572.05a4.827,4.827,0,0,0,.881-4.188,1.7,1.7,0,0,0-2.677-1.24,10.609,10.609,0,0,0-3.192,2.711c-1.082,1.25-.935,1.915.594,2.7-.167.835.581.964,1.034,1.262C601.458,359.346,601.751,359.226,602.6,356.64Z" transform="translate(-211.051 -111.823)" fill="#58882c"/>
      <path id="Trazado_217814" data-name="Trazado 217814" d="M458.821,199.056c2.709,0,5.419-.007,8.128,0,1.622.005,2.151.627,1.836,2.21-.7,3.55-1.459,7.091-2.143,10.645a1.834,1.834,0,0,1-2.052,1.683q-7.784-.012-15.569,0a1.977,1.977,0,0,1-2.02-1.341c-1.781-4.128-3.637-8.224-5.426-12.349a1.223,1.223,0,0,0-1.354-.9c-1.18.059-2.365.02-3.548.014-.939,0-1.554-.419-1.579-1.412-.026-1.014.624-1.441,1.535-1.459,1.793-.034,3.587-.02,5.38-.006.9.007,1.314.589,1.646,1.349,1.784,4.086,3.619,8.149,5.38,12.245a1.389,1.389,0,0,0,1.525.983c4.121-.04,8.242-.048,12.363.006.847.011,1.1-.3,1.246-1.045.538-2.681.561-2.676-2.221-2.676-2.366,0-4.732.005-7.1,0-1.189,0-1.833-.5-1.859-1.389-.026-.918.661-1.458,1.9-1.461,3.091-.007,6.182,0,9.272,0a1.493,1.493,0,0,0,1.426-1.866c-.168-.539-.64-.3-.967-.3-4.465-.018-8.929-.012-13.394-.012-1.771,0-2.378-.358-2.4-1.415-.027-1.091.633-1.5,2.436-1.5Z" transform="translate(-99.939 -1.923)" fill="#ec1b47"/>
      <path id="Trazado_217815" data-name="Trazado 217815" d="M316.874,471.03a1.289,1.289,0,0,0-.107-.2c-1.014-1.291-.99-1.239-2.475-.549-4.935,2.3-9.7,1.957-13.952-1.475a12.133,12.133,0,0,1-4.267-13.635c1.514-5.228,5.191-8.34,10.616-9.133a12.686,12.686,0,0,1,12.933,6.354,12.944,12.944,0,0,1-1.138,14.485c-.258.326-.47.688-.7,1.034-.577-.024-.816.195-.431.711a10.2,10.2,0,0,0,1.007,1.083c.149.149.289.429.542.305.307-.151.1-.478.146-.723a1.145,1.145,0,0,1-.061,1.779A1.418,1.418,0,0,1,316.874,471.03Zm-11.01-2.354c.16,1.017,1,.91,1.68.953a11.637,11.637,0,0,0,6.146-1.332c3.626-1.839,6.274-6.778,5.584-10.814A10.91,10.91,0,0,0,311.6,448.4a9.543,9.543,0,0,0-8.056.789c-.29.167-.81.294-.4.829-.228.2-.444.409-.685.588a10.107,10.107,0,0,0-2.83,13.241A10.8,10.8,0,0,0,305.864,468.676Z" transform="translate(0 -180.7)" fill="#67bbe4"/>
      <path id="Trazado_217816" data-name="Trazado 217816" d="M576.221,352.263c-.843,1.093-.667,2.445-.87,3.68a147.066,147.066,0,0,0-1.786,15.957,68.5,68.5,0,0,0,.232,12.883,3.517,3.517,0,0,1-.015.557h-.68a10.541,10.541,0,0,0-3.3-.724c-1.022-.14-1.393-.517-1.386-1.6.047-7.391.021-14.783.031-22.175a6.289,6.289,0,0,0-.239-1.914c.478-1.211.324-1.562-.867-1.98l-.7-1.651a47.654,47.654,0,0,1,8.189-3.11C575.293,352.071,575.78,351.835,576.221,352.263Zm-4.64,26.5c-.18-7.888.786-15.666,1.79-23.442A53.5,53.5,0,0,0,571.581,378.759Zm.124.64c-.011.582-.17.912.12,1.241A1.876,1.876,0,0,0,571.705,379.4Z" transform="translate(-194.096 -113.5)" fill="#a8ce38"/>
      <path id="Trazado_217817" data-name="Trazado 217817" d="M788.88,431.256a8.525,8.525,0,0,1,17.02-.87,7.925,7.925,0,0,1-2.331,6.559c-1.867,1.959-3.916,3.742-5.719,5.766-.276.31-.528.432-.836.062-1.929-2.324-4.369-4.153-6.3-6.467A7.318,7.318,0,0,1,788.88,431.256Zm8.493,5.655a5.686,5.686,0,0,0,.062-11.372,5.686,5.686,0,1,0-.062,11.372Z" transform="translate(-353.162 -163.986)" fill="#ed4242"/>
      <path id="Trazado_217818" data-name="Trazado 217818" d="M381.872,345.776l2.486-3.265a38.783,38.783,0,0,1,8.56-7.667,10.817,10.817,0,0,1,1-.545.482.482,0,0,1,.611.164c.226.294-.1.393-.239.523-5.691,5.267-8.936,11.941-11.082,19.247a2.608,2.608,0,0,1-3.888,1.211c-1.924-1.559-3.783-3.2-5.725-4.735-.721-.57-.35-1.238-.426-1.874.428-1.211,1.6-1.828,2.272-2.844a3.187,3.187,0,0,0,.341-.279c1.377-1.479,1.376-1.481,2.665.077.411.632.86,1.244,1.224,1.9.467.846.742.557,1.085-.087.334-.629.738-1.222,1.111-1.831Z" transform="translate(-55.594 -100.782)" fill="#03b158"/>
      <path id="Trazado_217819" data-name="Trazado 217819" d="M362.783,294.134h-19.6c-.016-1.143,0-2.288-.061-3.429-.035-.651.257-.737.808-.736q9.043.023,18.086,0c.539,0,.859.072.825.733C362.784,291.846,362.8,292.991,362.783,294.134Z" transform="translate(-34.108 -69.089)" fill="#059eda"/>
      <path id="Trazado_217820" data-name="Trazado 217820" d="M736.108,296.227h-1.832c-.235,0-.5-.013-.53-.3-.041-.369.24-.418.527-.418,1.107,0,2.214-.026,3.32.009.578.018.826-.059.89-.764a10.282,10.282,0,0,1,8.7-9.277c.741-.118.949-.346.906-1.053-.057-.95-.033-1.908,0-2.861.01-.329-.218-.912.376-.883.562.027.313.6.325.931.032.953.045,1.909,0,2.861-.03.632.194.894.827.922a10.259,10.259,0,0,1,9.517,9.321c.047.62.253.841.893.808,1.066-.055,2.136-.022,3.2-.01.276,0,.687-.134.709.334s-.388.376-.67.379c-1.03.011-2.063.048-3.09-.011-.711-.04-.985.185-1.092.911a10.191,10.191,0,0,1-9.519,8.934c-.59.055-.794.221-.776.807.034,1.106.012,2.213.006,3.32,0,.26.036.591-.357.584-.371-.007-.362-.317-.362-.59,0-1.069-.036-2.139.013-3.205.03-.655-.146-.878-.847-.991a10.222,10.222,0,0,1-8.68-8.659c-.149-.924-.414-1.249-1.311-1.106A7.235,7.235,0,0,1,736.108,296.227Zm22.315-.427a9.624,9.624,0,1,0-9.686,9.556A9.658,9.658,0,0,0,758.423,295.8Z" transform="translate(-313.699 -62.437)" fill="#059eda"/>
      <path id="Trazado_217821" data-name="Trazado 217821" d="M375.327,528.9c1.864,2.168,3.751,4.316,5.581,6.512.949,1.138.7,2.212-.631,3.344-1.256,1.063-2.308,1.09-3.295-.042-1.828-2.1-3.6-4.242-5.4-6.368C373.8,532.1,375.154,530.852,375.327,528.9Z" transform="translate(-54.482 -240.107)" fill="#9c5da4"/>
      <path id="Trazado_217822" data-name="Trazado 217822" d="M540.787,345.7l.7,1.651c.066.885-.353,1.124-1.149.862a5.445,5.445,0,0,0-.735-1.844,13.578,13.578,0,0,0-2.5-4.316,5.836,5.836,0,0,0-2.578-2.014c-1.72-.593-2.854.167-2.741,1.966a14.918,14.918,0,0,0,2.352,6.922,4.4,4.4,0,0,0,.9,1.8c0,.364.149.79-.308.988-.5.218-.705-.3-1.046-.479-.135-.551-.256-1.113-.956-1.223.378-.6-.157-.916-.405-1.322-.017-1.026-.669-1.837-.948-2.778a19.509,19.509,0,0,1-.8-3.328,3.351,3.351,0,0,1,1.034-3.332,3.46,3.46,0,0,1,3.692-.224,8.845,8.845,0,0,1,3.5,3.2C539.584,343.315,540.109,344.548,540.787,345.7Z" transform="translate(-168.24 -103.897)" fill="#58882c"/>
      <path id="Trazado_217823" data-name="Trazado 217823" d="M520.5,262.656a2.747,2.747,0,0,1,2.812,2.815,2.785,2.785,0,0,1-2.848,2.8,2.846,2.846,0,0,1-2.782-2.775A2.806,2.806,0,0,1,520.5,262.656Z" transform="translate(-159.053 -49.539)" fill="#424141"/>
      <path id="Trazado_217824" data-name="Trazado 217824" d="M485.388,262.657a2.712,2.712,0,0,1,2.674,2.93,2.749,2.749,0,0,1-2.834,2.682,2.809,2.809,0,0,1-2.755-2.9A2.756,2.756,0,0,1,485.388,262.657Z" transform="translate(-133.849 -49.538)" fill="#424141"/>
      <path id="Trazado_217825" data-name="Trazado 217825" d="M775.235,557.43a2.557,2.557,0,0,1-2.659-2.538,2.624,2.624,0,1,1,5.248-.075A2.573,2.573,0,0,1,775.235,557.43Zm.014-1.272a1.268,1.268,0,0,0,1.282-1.3,1.33,1.33,0,1,0-2.659.062A1.276,1.276,0,0,0,775.249,556.158Z" transform="translate(-341.495 -256.783)" fill="#424141"/>
      <path id="Trazado_217826" data-name="Trazado 217826" d="M840.3,554.821a2.514,2.514,0,0,1-2.565,2.61,2.568,2.568,0,0,1-2.666-2.648,2.642,2.642,0,0,1,2.65-2.583A2.574,2.574,0,0,1,840.3,554.821Zm-1.259.007a1.265,1.265,0,0,0-1.23-1.311,1.317,1.317,0,1,0-.114,2.63C838.5,556.163,838.939,555.675,839.046,554.828Z" transform="translate(-386.228 -256.784)" fill="#424141"/>
      <path id="Trazado_217827" data-name="Trazado 217827" d="M373.926,527.523c-.173,1.951-1.529,3.2-3.741,3.447-.764-.554-.641-1.215-.23-1.911a1.418,1.418,0,0,0,2.11.037,1.144,1.144,0,0,0,.063-1.777l-.122-.257C372.675,527.091,373.459,526.649,373.926,527.523Z" transform="translate(-53.08 -238.729)" fill="#424141"/>
      <path id="Trazado_217828" data-name="Trazado 217828" d="M373.553,524.449l.122.257c-.047.243.159.57-.148.721-.253.124-.393-.156-.542-.3a10.191,10.191,0,0,1-1.007-1.083c-.385-.516-.146-.736.431-.711Z" transform="translate(-54.628 -236.117)" fill="#eff0f1"/>
      <path id="Trazado_217829" data-name="Trazado 217829" d="M756.4,463.71a1.35,1.35,0,0,1-.838-1.285C756.107,462.8,756.424,463.137,756.4,463.71Z" transform="translate(-329.32 -192.526)" fill="#bbbdbf"/>
      <path id="Trazado_217830" data-name="Trazado 217830" d="M490.654,406.217a69.635,69.635,0,0,1,2.707-8.7,4.253,4.253,0,0,1,.913-2.048c4.313.009,8.627.034,12.94.013.786,0,1.165.125,1.367,1.027q6.136,27.431,12.382,54.838c.21.923-.06.979-.831.978q-40.086-.023-80.172.006c-.858,0-1.009-.225-.827-1.016q3.2-13.91,6.354-27.831,3.022-13.371,5.966-26.76c.207-.948.52-1.273,1.527-1.257,3.778.061,7.558.01,11.337,0a3.777,3.777,0,0,1,.408.666A73.672,73.672,0,0,1,467.6,406.76a16.8,16.8,0,0,0-6.368,4.045,6.106,6.106,0,0,0-1.746,5.825c.071.61-.876.846-.616,1.558.457.024.631-.495,1.049-.43,1.466,2.754,3.948,4.3,6.7,5.433a36.263,36.263,0,0,0,19.858,1.985,23.969,23.969,0,0,0,10.588-4c2.675-1.944,4.346-4.382,3.436-7.91.164-.068.44-.082.357-.335-.107-.324-.445-.191-.689-.243C498.074,408.945,494.494,407.39,490.654,406.217Zm2.877,38.692c.128-.153.56-.044.449-.288-.09-.2-.455-.152-.623.129-.209.128-.325.387-.134.5C493.534,445.426,493.426,445.03,493.531,444.909Zm-27.049,2.114a.865.865,0,0,0,0-1.259l-.2-.176c-.505-.275-1.533.219-1.45-1.048a7.081,7.081,0,0,0-.127,1.593c0,1.471.121,1.553,1.578,1.067Zm9.253-.139c.219.3.334.785.882.488a.95.95,0,0,0,1.2-.774c.115-.541-.152-.9-1.032-1.129,1.177,1.14.287,1.44-.329,1.843-.22-.165-.338-.466-.659-.5-.07-.335.42-.694-.034-1-.051-.034-.287.1-.342.2C475.213,446.4,475.234,446.741,475.735,446.883Zm-21.4.391a1.239,1.239,0,0,0,1.539-.147c.613-.893.527-1.194-.5-1.484.334.417.648.8.262,1.286a1.355,1.355,0,0,1-1.128.1c-.453-.312-.092-.873-.322-1.354C453.626,446.362,453.732,446.852,454.335,447.275Zm5.406-.177a.725.725,0,0,0,.213-1.157,1.232,1.232,0,0,0-1.708-.3.771.771,0,0,0-.46,1.168,1.041,1.041,0,0,0,1.486.526C459.472,447.343,459.658,447.323,459.741,447.1Zm24.028-1.575c-1.535-.132-1.836.513-1.221,2.631.2-.18-.01-.543.3-.662.646-.045,1.352-.032,1.573-.823A.876.876,0,0,0,483.769,445.523Zm15.177.9c.339,0,.68.007,1.018-.013.2-.012.5.115.551-.2a.738.738,0,0,0-.2-.488c-.181-.219-.361-.194-.525.067a.371.371,0,0,1-.506.1c-.789-.634-.637.167-.792.5.343,1.186.976,1.412,1.929.681C499.906,446.9,499.037,447.537,498.946,446.419ZM488.119,435.84V431.2c-.259.154-.366.186-.366.221-.027,1.47-.045,2.94-.064,4.41l.048.414h-.814q.029-.2.059-.393c0-1.253-.041-2.51.032-3.759.045-.768-.258-.93-.911-.794l-.507-.013c-.26-.018-.607-.084-.587.3.075,1.48-.284,2.98.192,4.442a.2.2,0,0,0,.018.215H484.4c.029-.148.071-.3-.117-.382.02-1.319.045-2.637.054-3.956,0-.24.089-.558-.306-.615l-.514,0c-.3.052-.857-.216-.847.238.03,1.451-.315,2.925.184,4.355l.072.382c-.236,2.282-.038,4.571-.1,6.856-.014.5.277.542.661.541,2.291-.006,4.582-.015,6.872.006.55.005.732-.193.722-.733-.04-2.212-.05-4.425-.069-6.636l.078-.478c0-1.3-.024-2.6.02-3.892.02-.609-.265-.661-.757-.675-.541-.016-.628.226-.62.686.024,1.3.014,2.6.018,3.893-.105.256-.245.09-.376.031.013-1.288.024-2.575.041-3.863.005-.394.041-.758-.555-.741-.647.018-.464.471-.468.8-.014,1.251,0,2.5,0,3.752C488.309,435.957,488.223,436.009,488.119,435.84ZM468.627,447c.079.385.254.626.718.474a.8.8,0,0,0-.7-.621.609.609,0,0,1,.211-.962.762.762,0,0,1,.857.015.577.577,0,0,1,.207.874c-.136.229-.226.414.078.53.173.066.446.061.438-.186-.018-.536.325-1.361-.212-1.534-.561-.18-1.446-.455-1.938.33C468.023,446.344,467.871,446.843,468.627,447Zm7.859-15.709-.279-.013c-.574.013-.395.457-.4.75q-.017,4.6,0,9.2c0,.309-.145.723.378.8l.319-.017c.14-.031.365.08.354-.209q.005-5.147.012-10.294C476.885,431.186,476.645,431.31,476.485,431.291Zm-25.027,12.385.159.184.117-.14c.005-3.88.015-7.759.007-11.639,0-.261.192-.624-.228-.78l-.524-.007c-.509-.1-.645.122-.643.612q.023,5.631,0,11.262c0,.453.076.752.616.667l.491-.179ZM469.471,431.5c-.4-.357-.395-.008-.4.246q-.008,4.882,0,9.764c0,.231-.06.618.393.311l.294,0a.674.674,0,0,0,1.007.005l.452.2c1.129.215,1.366-.293,1.333-1.359-.081-2.689-.087-5.385,0-8.073.036-1.106-.26-1.538-1.358-1.309h-.5c-.317.057-.7-.191-.941.217Zm11.05,10.5.559,0c1.041.2,1.345-.2,1.314-1.262-.08-2.741-.087-5.488,0-8.228.036-1.109-.337-1.419-1.337-1.22l-.521,0c-.394.093-.256.419-.257.651q-.015,4.684,0,9.368C480.28,441.562,480.175,441.868,480.521,442Zm-16.4,0c.362-.1.272-.412.273-.656q.01-4.711,0-9.422c0-.235.11-.559-.288-.627h-.52c-.62-.115-.564.31-.564.7q0,4.631,0,9.262c0,.374-.081.821.543.747Zm34.825,0c.726.061.534-.486.537-.856.014-1.819.007-3.639.007-5.458,0-1.289,0-2.578,0-3.866,0-.264.005-.576-.4-.523-.325.043-.246.332-.249.539-.013.72-.009,1.44-.011,2.16l-.438.033c-.8-.007-1.595.012-2.39-.032-.568-.031-.8.117-.793.745.036,2.163.029,4.327,0,6.49-.007.576.146.829.763.792.794-.047,1.593-.016,2.391-.02Zm6.424-7.063v-1.26c0-2.562,0-2.542-2.583-2.412-.549.028-.719.188-.712.728.025,1.946.013,3.894.008,5.841,0,.367.018.619.508.7,2.386.4,2.779.108,2.779-2.225Zm-4.438,1.726c0-1.559,0-3.118,0-4.677,0-.316.118-.7-.448-.725-.584-.026-.58.318-.579.726,0,3.08,0,6.16.006,9.241,0,.36-.1.791.516.791s.5-.434.507-.792C500.94,439.71,500.936,438.188,500.936,436.667Zm-33.519-.126c0,1.558-.007,3.116.006,4.673,0,.342-.153.8.483.808s.506-.427.507-.782q.008-4.616,0-9.232c0-.377.077-.771-.541-.743-.557.025-.453.4-.455.717C467.412,433.5,467.416,435.021,467.416,436.541Zm27.369.232c0-1.6,0-3.2,0-4.8,0-.314.123-.7-.452-.709-.555-.013-.495.33-.495.672q0,4.687,0,9.373c0,.316-.111.7.455.715.663.013.482-.458.486-.793C494.794,439.745,494.785,438.259,494.785,436.773Zm11.691.688c0,1.866-.008,3.731.008,5.6,0,.3-.174.8.389.75.444-.036.265-.477.267-.738q.019-5.539,0-11.078c0-.253.188-.688-.311-.7s-.345.416-.347.685C506.47,433.806,506.476,435.633,506.476,437.461Zm-48.907-.864c0-1.559,0-3.118,0-4.677,0-.247.08-.607-.3-.622-.43-.017-.29.369-.291.595q-.015,4.734,0,9.469c0,.227-.143.624.262.62.462,0,.327-.436.33-.707C457.576,439.716,457.569,438.156,457.569,436.6Zm3.08.06c0,1.565-.005,3.13.006,4.7,0,.237-.121.593.277.634s.368-.3.369-.555q.006-4.81,0-9.619c0-.22.03-.49-.292-.517-.435-.036-.354.307-.355.552C460.646,433.451,460.649,435.054,460.649,436.657Zm6.41-.089c0-1.526.009-3.052-.009-4.578,0-.257.18-.681-.317-.7s-.354.409-.354.672q-.016,4.693,0,9.386c0,.274-.115.683.386.647.408-.028.289-.385.29-.62C467.064,439.773,467.058,438.171,467.058,436.568Zm6.425-.012c0-1.562.005-3.125-.006-4.687,0-.231.12-.587-.317-.584-.4,0-.352.324-.352.582q0,4.744,0,9.488c0,.29-.068.682.408.637.4-.038.257-.406.259-.635C473.49,439.757,473.483,438.156,473.483,436.556Zm6.066-5.23-.212,0v12.453l.212,0Zm-1.676,6.361c0-1.908,0-3.816-.006-5.724,0-.238.125-.619-.247-.651-.491-.043-.358.4-.358.663q-.014,5.552,0,11.1c0,.271-.129.721.316.713s.285-.461.287-.725C477.881,441.274,477.874,439.481,477.874,437.687Zm27.947,6.066h.209V431.339h-.209Zm-14.34-7.215c0,1.6,0,3.192,0,4.788,0,.245-.09.6.266.651.405.053.345-.32.345-.564q.01-4.788,0-9.577c0-.214.047-.506-.263-.532-.417-.036-.348.315-.349.56C491.478,433.422,491.482,434.98,491.481,436.538Zm1.365,5.41.219.009V431.328h-.219Zm-34.87-.009.211-.012V431.341h-.211Zm1.327.02.221-.015V431.328H459.3Zm2.621-10.639-.227.007v10.641l.227,0Zm12.623,10.616.212.014V431.339h-.212Zm29.838-1.534c0,.3.007.608,0,.912-.011.4-.021.747.571.715.478-.025.561-.26.553-.654-.012-.646-.03-1.293.005-1.937.028-.515-.2-.635-.669-.642-.583-.008-.444.379-.457.694S504.385,440.1,504.385,440.4Zm-29.39,6.592c-.872.05-1.819.462-2.479-.5-.507-.743.14-1.2.639-1.805-1.153.434-1.473.989-1.154,1.763C472.425,447.475,473.737,447.753,474.995,446.995Zm12.967.34c.942.262.837-.412.871-1.093.057-1.156-.833-.671-1.3-.743a.866.866,0,0,0-1.048.917C486.511,447.281,487.156,447.4,487.962,447.335Zm-22.52-5.406.174-.045V431.341h-.174Zm36.2-10.573-.184,0v10.611h.184Zm-46,10.575h.16V431.338h-.16Zm-1.364-.05.158.022v-10.55h-.158Zm-1.47-10.534h-.146V441.9h.146Zm43.079,1.126c-.224-.38.328-1.18-.445-1.157-.711.021-.338.79-.342,1.2s-.353,1.2.378,1.178C496.174,433.679,495.686,432.893,495.883,432.473Zm7.632,7.864c-.324-.455.456-1.437-.467-1.439-.622,0-.3.954-.272,1.441.035.549-.462,1.563.37,1.573C503.812,441.919,503.269,440.887,503.515,440.337Zm2.537,7.155c-.616-1.033-.615-1.017.4-1.091.243-.018.69.235.692-.285a.666.666,0,0,0-.583-.621c-.55-.106-1.091-.083-1.356.528C504.918,446.683,505.234,447.091,506.053,447.492Zm-1.546.13a2.509,2.509,0,0,1-.235-1.846c.044-.152.6-.056.324-.232-.25-.161-.338-.494-.578-.518-.129-.013-.435.414-.417.436C504.1,446.048,503.4,447.05,504.507,447.621Zm-40.72-.3c.293-.745.32-1.336.029-1.634-.362-.371-.759-.312-1.273-.045C463.356,445.787,463.356,445.787,463.786,447.323Zm33.2-.11c-1.381-.144-1.5-.305-1.1-1.628-.663.24-.848.725-.574,1.248A1.081,1.081,0,0,0,496.986,447.213ZM456.95,444.6a4.543,4.543,0,0,0,.033,2.712A4.259,4.259,0,0,0,456.95,444.6ZM497,431.349a4.208,4.208,0,0,0-.009,2.29A2.787,2.787,0,0,0,497,431.349Zm-45.929,13.643c-1.049.841-.974,1.513.371,2.18C450.737,446.393,450.6,445.728,451.075,444.992Zm27.436,2.508c.467-.578.046-1.172.4-1.632.143-.186-.045-.34-.248-.376-.242-.043-.355.107-.34.325A3.471,3.471,0,0,0,478.511,447.5Zm6.646-.012c.387-.6.02-1.173.458-1.558.1-.087.478-.349-.062-.358-.207,0-.565-.231-.565.234A3.621,3.621,0,0,0,485.157,447.488Zm-3.812-.159.322-.038c0-.58.27-1.19-.516-1.966C481.235,446.185,481.29,446.757,481.345,447.329Zm11.129-2.649c-.7-.024-1.583-.541-1.84.182a4.5,4.5,0,0,0,.075,2.611C491.4,446.485,489.865,444.349,492.474,444.68Zm-31.849,2.952c.69-.742.252-1.388.654-1.853.123-.142-.153-.275-.346-.294-.26-.026-.306.141-.307.344C460.624,446.327,460.625,446.826,460.625,447.632Zm6.811-.318a1.816,1.816,0,0,0,.012-1.789A2.637,2.637,0,0,0,467.435,447.314Zm30.282.01a2.025,2.025,0,0,0-.088-2.1A3.33,3.33,0,0,0,497.717,447.324Zm-35.508.072a1.4,1.4,0,0,0,.049-1.34A1.587,1.587,0,0,0,462.21,447.4Zm31.077-.134a1.438,1.438,0,0,0-.007-1.39A1.561,1.561,0,0,0,493.286,447.262Zm-.042-1.595c-.045-.127-.018-.268-.182-.228a.4.4,0,0,0-.2.086c-.134.145.059.178.107.19A.692.692,0,0,0,493.245,445.667Zm-16.637-.157c-.008-.026-.009-.058-.026-.075s-.045.009-.069.015c.008.026.009.058.026.076S476.585,445.516,476.608,445.51Zm17.24.086c-.024-.026-.053-.075-.07-.071a.71.71,0,0,0-.148.067c.024.024.054.071.073.067A.647.647,0,0,0,493.848,445.6Z" transform="translate(-102.78 -144.601)" fill="#fbfbfb"/>
      <path id="Trazado_217831" data-name="Trazado 217831" d="M537.717,370.274a4.41,4.41,0,0,1-.9-1.8c1.952-.576,3.549-1.911,5.469-2.558a5.435,5.435,0,0,1,.735,1.844c.153,1.4.707,1.7,2.016,1.117a6.292,6.292,0,0,1,.239,1.914c-.009,7.392.017,14.784-.031,22.175-.007,1.081.363,1.458,1.386,1.6a10.546,10.546,0,0,1,3.3.723c-2.9.153-5.8.077-8.705,0-.03-.877.014-1.769-1.206-1.953-.346-.052-.394-.521-.516-.84a76.544,76.544,0,0,1-3.76-12.328,77.966,77.966,0,0,1-1.474-9.922l1.141-.68c.7.109.821.671.956,1.223a3.275,3.275,0,0,0-.032.561c.067.613.3,1.028,1.032,1.039a1.094,1.094,0,0,0,1.2-.943A.867.867,0,0,0,537.717,370.274Z" transform="translate(-170.922 -123.449)" fill="#89c03b"/>
      <path id="Trazado_217832" data-name="Trazado 217832" d="M527.535,381.127a77.965,77.965,0,0,0,1.474,9.922,76.537,76.537,0,0,0,3.76,12.328c.121.319.169.788.516.841,1.22.183,1.176,1.075,1.205,1.952-.9-.006-1.8-.061-2.687,0a.977.977,0,0,1-1.066-.734q-.034-.355-.068-.71-.541-2.884-1.082-5.768l-.576-2.462a73.666,73.666,0,0,0-2.876-10.625,3.786,3.786,0,0,0-.408-.666,4.306,4.306,0,0,0-.7-1.785c-.232-.441-.27-.771.226-1.034A13.2,13.2,0,0,1,527.535,381.127Z" transform="translate(-164.191 -134.336)" fill="#58882c"/>
      <path id="Trazado_217833" data-name="Trazado 217833" d="M462.027,622.988h-27.7c-.305,0-.611-.005-.916-.006-.485,0-.676-.262-.667-.725.009-.417.109-.771.585-.843a5.349,5.349,0,0,1,.8-.035q27.932,0,55.865,0a3.857,3.857,0,0,1,.91.055c.464.114.5.509.5.912a.569.569,0,0,1-.636.634c-.344,0-.687.008-1.03.008Z" transform="translate(-98.254 -306.298)" fill="#242020"/>
      <path id="Trazado_217834" data-name="Trazado 217834" d="M661.513,622.983q-4.916,0-9.83,0c-.61,0-1.313.092-1.281-.85.029-.864.7-.756,1.26-.756q9.831-.005,19.661,0c.609,0,1.311-.093,1.28.851-.029.869-.7.754-1.259.755Q666.428,622.989,661.513,622.983Z" transform="translate(-254.046 -306.293)" fill="#242020"/>
      <path id="Trazado_217835" data-name="Trazado 217835" d="M660.175,232.2a2.7,2.7,0,0,0,1.493.307,1.14,1.14,0,0,0,1.11-.835,1.033,1.033,0,0,0-.594-1.232c-.5-.273-1.04-.477-1.525-.774a1.808,1.808,0,0,1,.059-3.3c.362-.2.664-.335.634-.811-.017-.273.018-.552.392-.575a.4.4,0,0,1,.469.493c-.07.707.522.623.9.778.3.123.586.247.451.647s-.418.352-.741.232a2.321,2.321,0,0,0-.668-.134c-.55-.032-1.111-.007-1.325.627-.24.71.252,1.046.779,1.326a12.17,12.17,0,0,1,1.515.785,1.945,1.945,0,0,1-.1,3.272c-.467.29-.951.471-.875,1.158.03.267-.174.4-.447.391-.164,0-.364-.059-.345-.215.131-1.028-.7-.955-1.292-1.179-.278-.105-.6-.219-.422-.648C659.738,232.3,659.8,232.071,660.175,232.2Z" transform="translate(-260.628 -22.575)" fill="#eff0f1"/>
      <path id="Trazado_217836" data-name="Trazado 217836" d="M686.95,229.211a7.983,7.983,0,0,1-1.652,4.716c-.227.287-.44.716-.874.235-.279-.31-.758-.494-.31-1.1a6.031,6.031,0,0,0,.09-7.614c-.4-.571-.015-.819.3-1.135.465-.461.658,0,.872.281A7.942,7.942,0,0,1,686.95,229.211Z" transform="translate(-278.045 -21.953)" fill="#fbfbfb"/>
      <path id="Trazado_217837" data-name="Trazado 217837" d="M654.361,215.033a6.577,6.577,0,0,1,3.721.975c.254.15.915.186.558.738-.268.414-.6.887-1.3.489a5.954,5.954,0,0,0-4.957-.51,4.55,4.55,0,0,0-1.809.944c-.587.565-.926.2-1.29-.219-.5-.574.136-.729.406-.931A6.975,6.975,0,0,1,654.361,215.033Z" transform="translate(-253.119 -15.445)" fill="#fbfbfb"/>
      <path id="Trazado_217838" data-name="Trazado 217838" d="M654.449,261.873a7.615,7.615,0,0,1-4.363-1.467c-.283-.206-.874-.391-.4-.95.326-.388.595-.71,1.208-.268a5.925,5.925,0,0,0,6.572.507c.71-.367,1.023-.013,1.3.415.395.6-.284.656-.576.827A7.4,7.4,0,0,1,654.449,261.873Z" transform="translate(-253.406 -46.904)" fill="#fbfbfb"/>
      <path id="Trazado_217839" data-name="Trazado 217839" d="M640.183,231.124a7.624,7.624,0,0,1,1.033-3.888c.144-.239.227-.807.7-.41.3.256.885.473.563,1.075a6.322,6.322,0,0,0,.058,6.408c.32.579-.246.837-.567,1.078-.466.349-.553-.216-.7-.449A7.491,7.491,0,0,1,640.183,231.124Z" transform="translate(-246.733 -23.795)" fill="#fbfbfb"/>
      <path id="Trazado_217840" data-name="Trazado 217840" d="M848.415,520.072c-2.364,0-4.571-.009-6.779.007-.477,0-.7-.151-.695-.649q.022-1.83,0-3.661c-.006-.485.186-.673.678-.666,1.449.021,2.9.013,4.347,0,.33,0,.606.047.735.392C847.26,516.985,847.816,518.472,848.415,520.072Z" transform="translate(-390.428 -230.23)" fill="#fee200"/>
      <path id="Trazado_217841" data-name="Trazado 217841" d="M366.2,358.562c-1.289-1.558-1.288-1.557-2.665-.077a3.191,3.191,0,0,1-.341.279,20.543,20.543,0,0,0-4.872-.182c-2.28-.054-2.281-.014-2.281-2.329,0-1.067.025-2.135-.008-3.2-.02-.665.188-.962.906-.957q5.889.035,11.777,0c.74-.005.889.321.883.968-.017,1.829.014,3.658.026,5.487h-.005Z" transform="translate(-43.352 -113.554)" fill="#bbbdbf"/>
      <path id="Trazado_217842" data-name="Trazado 217842" d="M362.593,325.914c-1.983,0-3.965,0-5.948,0-.412,0-.924.06-.955-.541-.036-.674.521-.528.907-.529q5.891-.014,11.782,0c.382,0,.931-.159.94.507.01.748-.595.554-1.006.558C366.406,325.924,364.5,325.914,362.593,325.914Z" transform="translate(-43.103 -94.037)" fill="#bbbdbf"/>
      <path id="Trazado_217843" data-name="Trazado 217843" d="M362.48,337.687c1.983,0,3.966-.005,5.948,0,.394,0,.92-.121.911.541s-.538.527-.929.528q-5.834.012-11.668,0c-.438,0-1.037.109-1.032-.571,0-.74.652-.487,1.05-.492C358.667,337.673,360.573,337.687,362.48,337.687Z" transform="translate(-43.119 -103.224)" fill="#bbbdbf"/>
      <path id="Trazado_217844" data-name="Trazado 217844" d="M363.052,312.7c1.945,0,3.89-.007,5.835.006.348,0,.848-.129.826.486-.018.516-.454.429-.776.429q-5.949.01-11.9,0c-.327,0-.762.07-.773-.437-.013-.6.49-.476.838-.479C359.085,312.689,361.069,312.7,363.052,312.7Z" transform="translate(-43.515 -85.353)" fill="#bbbdbf"/>
      <path id="Trazado_217845" data-name="Trazado 217845" d="M528.788,441.511l1.082,5.768c-1.239.167-2.483.3-3.714.518-.414.072-1.081.067-1.1.61-.022.621.626.665,1.109.721,2.069.239,4.137.511,6.213.665a6.509,6.509,0,0,0,2.819-.136h7.617a1.08,1.08,0,0,0,.765.166c1.746-.081,3.495-.133,5.237-.264,1.057-.08,2.105-.276,3.154-.438.415-.064.936-.153,1-.618.074-.581-.547-.6-.9-.651a10.6,10.6,0,0,0-2.594-.328,23.54,23.54,0,0,1,1.213-6.943,14.373,14.373,0,0,1,5.224,3.211,4.955,4.955,0,0,1,.028,7.349,12.406,12.406,0,0,1-4.691,3,30.075,30.075,0,0,1-18,1.007c-3.044-.719-5.92-1.844-8.067-4.258a4.682,4.682,0,0,1-.914-5.5A8.422,8.422,0,0,1,528.788,441.511Z" transform="translate(-163.391 -176.891)" fill="#fbfbfb"/>
      <path id="Trazado_217846" data-name="Trazado 217846" d="M519.142,436.291a8.422,8.422,0,0,0-4.521,3.876,4.682,4.682,0,0,0,.914,5.5c2.147,2.414,5.023,3.539,8.067,4.258a30.074,30.074,0,0,0,18-1.007,12.406,12.406,0,0,0,4.69-3,4.955,4.955,0,0,0-.028-7.349,14.372,14.372,0,0,0-5.225-3.211,6.171,6.171,0,0,1,.584-2.073c3.84,1.172,7.42,2.727,9.512,6.47-.211.111-.561-.042-.639.335.283.265.666.1.971.242.91,3.529-.761,5.966-3.436,7.91a23.969,23.969,0,0,1-10.588,4,36.263,36.263,0,0,1-19.858-1.985c-2.749-1.131-5.231-2.678-6.7-5.432l-.433-1.128a6.106,6.106,0,0,1,1.746-5.825,16.8,16.8,0,0,1,6.368-4.045Z" transform="translate(-153.745 -171.671)" fill="#d5df41"/>
      <path id="Trazado_217847" data-name="Trazado 217847" d="M614.765,359.786c-1.529-.786-1.677-1.451-.594-2.7a10.609,10.609,0,0,1,3.192-2.711,1.7,1.7,0,0,1,2.677,1.24,4.826,4.826,0,0,1-.881,4.188Z" transform="translate(-227.612 -114.984)" fill="#fee200"/>
      <path id="Trazado_217848" data-name="Trazado 217848" d="M554.725,468.255h-7.617c-.318-.4-.768-.259-1.164-.257a22.48,22.48,0,0,1-4.609-.448c-.374-.076-.985.064-.947-.535.036-.565.617-.411,1.008-.448a3.2,3.2,0,0,1,.453.019.978.978,0,0,0,1.066.734c.891-.06,1.79-.005,2.687,0,2.9.082,5.8.157,8.706,0h.68c1.745.138,3.5-.182,5.241.057-.105.309-.364.339-.636.359a32.031,32.031,0,0,1-3.823.257C555.412,467.984,555,467.886,554.725,468.255Z" transform="translate(-175.302 -195.488)" fill="#bbbdbf"/>
      <path id="Trazado_217849" data-name="Trazado 217849" d="M590.833,467.1c.278-.368.687-.271,1.045-.255a32.049,32.049,0,0,0,3.823-.257c.272-.02.531-.05.636-.359,1.041.178,1.215-.433,1.149-1.263a10.6,10.6,0,0,1,2.594.328c.357.054.978.07.9.651-.059.465-.581.554-1,.618-1.049.162-2.1.358-3.154.438-1.742.131-3.491.184-5.237.264A1.08,1.08,0,0,1,590.833,467.1Z" transform="translate(-211.41 -194.337)" fill="#eff0f1"/>
      <path id="Trazado_217850" data-name="Trazado 217850" d="M617.969,374.13l4.394.014c-.847,2.586-1.139,2.706-3.36,1.247C618.549,375.094,617.8,374.965,617.969,374.13Z" transform="translate(-230.816 -129.328)" fill="#242020"/>
      <path id="Trazado_217851" data-name="Trazado 217851" d="M312.939,475.527A10.8,10.8,0,0,1,306.7,470.7a10.107,10.107,0,0,1,2.83-13.241c.241-.179.457-.391.685-.588.238-.119.476-.239.714-.357a10.19,10.19,0,1,1,2.005,19.014Z" transform="translate(-7.075 -187.551)" fill="#eff0f1"/>
      <path id="Trazado_217852" data-name="Trazado 217852" d="M324.81,473.592a10.194,10.194,0,1,0-2.005-19.014c-.238.118-.476.238-.714.357-.411-.535.109-.662.4-.829a9.543,9.543,0,0,1,8.056-.789,10.91,10.91,0,0,1,7.675,9.082c.69,4.036-1.958,8.975-5.584,10.814a11.637,11.637,0,0,1-6.146,1.332C325.815,474.5,324.97,474.609,324.81,473.592Z" transform="translate(-18.945 -185.617)" fill="#059eda"/>
      <path id="Trazado_217853" data-name="Trazado 217853" d="M582.578,387.07a53.5,53.5,0,0,1,1.79-23.442C583.364,371.4,582.4,379.183,582.578,387.07Z" transform="translate(-205.093 -121.811)" fill="#d5df41"/>
      <path id="Trazado_217854" data-name="Trazado 217854" d="M567.086,371.349c-1.309.586-1.864.279-2.016-1.117.8.262,1.215.022,1.149-.863C567.41,369.787,567.564,370.138,567.086,371.349Z" transform="translate(-192.97 -125.92)" fill="#fbfbfb"/>
      <path id="Trazado_217855" data-name="Trazado 217855" d="M584.318,448.355a1.874,1.874,0,0,1,.12,1.241C584.148,449.267,584.307,448.937,584.318,448.355Z" transform="translate(-206.709 -182.455)" fill="#d5df41"/>
      <path id="Trazado_217856" data-name="Trazado 217856" d="M804.475,444.434a5.686,5.686,0,1,1,5.709-5.649A5.726,5.726,0,0,1,804.475,444.434Z" transform="translate(-360.264 -171.509)" fill="#fee200"/>
      <path id="Trazado_217857" data-name="Trazado 217857" d="M391.811,374.815l3.419-.015c-.373.609-.777,1.2-1.111,1.831-.342.645-.617.934-1.085.087C392.671,376.059,392.222,375.448,391.811,374.815Z" transform="translate(-68.958 -129.807)" fill="#eff0f1"/>
      <path id="Trazado_217858" data-name="Trazado 217858" d="M772.1,309.479a9.624,9.624,0,1,1-9.421-9.69A9.677,9.677,0,0,1,772.1,309.479Zm-9.634,7.533a7.6,7.6,0,1,0-7.589-7.634A7.544,7.544,0,0,0,762.471,317.013Z" transform="translate(-327.381 -76.117)" fill="#fee200"/>
      <path id="Trazado_217859" data-name="Trazado 217859" d="M542.769,349.477c-1.92.646-3.517,1.982-5.469,2.558a14.923,14.923,0,0,1-2.352-6.922c-.114-1.8,1.02-2.559,2.741-1.965a5.835,5.835,0,0,1,2.578,2.014A13.578,13.578,0,0,1,542.769,349.477Z" transform="translate(-171.405 -107.01)" fill="#fee200"/>
      <path id="Trazado_217860" data-name="Trazado 217860" d="M542.9,381.244a.867.867,0,0,1,.849,1.166,1.094,1.094,0,0,1-1.2.943c-.728-.012-.966-.427-1.032-1.039a3.263,3.263,0,0,1,.032-.56c.341.181.544.7,1.046.479C543.05,382.034,542.906,381.608,542.9,381.244Z" transform="translate(-176.106 -134.42)" fill="#eff0f1"/>
      <path id="Trazado_217861" data-name="Trazado 217861" d="M778.507,559.478a1.276,1.276,0,0,1-1.377-1.243,1.33,1.33,0,1,1,2.659-.062A1.268,1.268,0,0,1,778.507,559.478Z" transform="translate(-344.753 -260.102)" fill="#fee200"/>
      <path id="Trazado_217862" data-name="Trazado 217862" d="M842.356,558.138c-.107.846-.551,1.335-1.343,1.319a1.317,1.317,0,1,1,.114-2.63A1.265,1.265,0,0,1,842.356,558.138Z" transform="translate(-389.538 -260.093)" fill="#fee200"/>
      <path id="Trazado_217863" data-name="Trazado 217863" d="M594.551,538.927h3.337l3.273.058c.021,2.213.03,4.425.071,6.637.01.54-.172.738-.722.733-2.291-.021-4.582-.012-6.872-.006-.384,0-.676-.042-.661-.541.065-2.285-.132-4.573.1-6.855Z" transform="translate(-212.933 -247.283)" fill="#fee200"/>
      <path id="Trazado_217864" data-name="Trazado 217864" d="M639.752,539.035c-.8,0-1.6-.028-2.391.019-.618.036-.77-.217-.763-.792.026-2.163.033-4.327,0-6.49-.011-.628.225-.777.793-.745.795.044,1.593.024,2.39.032Q639.765,535.046,639.752,539.035Z" transform="translate(-244.164 -241.625)" fill="#059eda"/>
      <path id="Trazado_217865" data-name="Trazado 217865" d="M664.051,524.98v1.374c0,2.333-.393,2.629-2.779,2.225-.491-.083-.509-.335-.509-.7,0-1.947.017-3.894-.008-5.841-.007-.54.163-.7.712-.728,2.584-.13,2.583-.149,2.583,2.412Z" transform="translate(-261.458 -234.64)" fill="#ec1b47"/>
      <path id="Trazado_217866" data-name="Trazado 217866" d="M551.959,521.32c1.1-.229,1.394.2,1.358,1.309-.089,2.689-.083,5.384,0,8.073.032,1.066-.2,1.573-1.333,1.359C551.849,528.481,551.892,524.9,551.959,521.32Z" transform="translate(-183.54 -234.638)" fill="#242020"/>
      <path id="Trazado_217867" data-name="Trazado 217867" d="M586.662,521.371c1-.2,1.373.111,1.337,1.22-.09,2.74-.082,5.487,0,8.228.031,1.061-.273,1.466-1.314,1.262C586.562,528.511,586.6,524.941,586.662,521.371Z" transform="translate(-208.383 -234.677)" fill="#242020"/>
      <path id="Trazado_217868" data-name="Trazado 217868" d="M654.138,526.808c0,1.521,0,3.042,0,4.563,0,.358.118.792-.506.792s-.516-.43-.516-.791c-.005-3.08,0-6.161-.006-9.241,0-.408-.005-.752.579-.726.566.025.447.409.448.725C654.143,523.689,654.138,525.249,654.138,526.808Z" transform="translate(-255.983 -234.741)" fill="#242020"/>
      <path id="Trazado_217869" data-name="Trazado 217869" d="M538.786,526.68c0-1.52,0-3.039,0-4.559,0-.319-.1-.692.455-.717.618-.028.541.367.541.743q0,4.616,0,9.232c0,.355.122.792-.507.782s-.481-.466-.483-.808C538.779,529.8,538.786,528.238,538.786,526.68Z" transform="translate(-174.151 -234.74)" fill="#242020"/>
      <path id="Trazado_217870" data-name="Trazado 217870" d="M632.692,526.909c0,1.486.009,2.972-.006,4.458,0,.335.178.806-.486.793-.566-.011-.454-.4-.454-.715q-.009-4.687,0-9.373c0-.343-.061-.685.495-.673.574.013.45.4.452.709C632.7,523.709,632.692,525.309,632.692,526.909Z" transform="translate(-240.688 -234.737)" fill="#242020"/>
      <path id="Trazado_217871" data-name="Trazado 217871" d="M548.056,531.95a.674.674,0,0,1-1.007-.005l-.007-10.315c.236-.407.624-.16.941-.217Q548.02,526.681,548.056,531.95Z" transform="translate(-180.066 -234.731)" fill="#242020"/>
      <path id="Trazado_217872" data-name="Trazado 217872" d="M479.373,533.988c-.54.086-.617-.214-.616-.667q.017-5.63,0-11.262c0-.49.134-.717.643-.613C479.463,525.628,479.512,529.808,479.373,533.988Z" transform="translate(-131.189 -234.754)" fill="#242020"/>
      <path id="Trazado_217873" data-name="Trazado 217873" d="M676.188,527.677c0-1.827-.006-3.655.006-5.482,0-.269-.141-.693.347-.685s.31.444.311.7q.02,5.539,0,11.078c0,.261.177.7-.267.738-.563.046-.387-.455-.389-.75C676.18,531.407,676.188,529.542,676.188,527.677Z" transform="translate(-272.492 -234.817)" fill="#242020"/>
      <path id="Trazado_217874" data-name="Trazado 217874" d="M502.6,526.821c0,1.559.007,3.119-.006,4.678,0,.271.132.7-.33.707-.4,0-.261-.393-.261-.62q-.016-4.735,0-9.469c0-.226-.14-.612.29-.595.383.015.3.375.3.622C502.6,523.7,502.6,525.262,502.6,526.821Z" transform="translate(-147.81 -234.825)" fill="#242020"/>
      <path id="Trazado_217875" data-name="Trazado 217875" d="M649.335,524.22c0-.72,0-1.44.011-2.16,0-.207-.076-.5.249-.539.4-.053.395.259.4.523.006,1.289,0,2.578,0,3.866,0,1.819.008,3.639-.007,5.458,0,.37.189.917-.537.856Q649.393,528.222,649.335,524.22Z" transform="translate(-253.284 -234.821)" fill="#242020"/>
      <path id="Trazado_217876" data-name="Trazado 217876" d="M514.974,526.87c0-1.6,0-3.206,0-4.81,0-.246-.08-.588.355-.552.322.027.292.3.292.517q0,4.81,0,9.62c0,.258.04.6-.369.555s-.275-.4-.277-.634C514.968,530,514.974,528.436,514.974,526.87Z" transform="translate(-157.106 -234.814)" fill="#242020"/>
      <path id="Trazado_217877" data-name="Trazado 217877" d="M523.894,532.176c-.625.074-.543-.373-.543-.747q0-4.631,0-9.263c0-.389-.055-.815.564-.7C523.976,525.036,524.013,528.606,523.894,532.176Z" transform="translate(-163.107 -234.772)" fill="#242020"/>
      <path id="Trazado_217878" data-name="Trazado 217878" d="M535.783,526.773c0,1.6.005,3.2-.006,4.807,0,.235.118.591-.29.62-.5.035-.385-.374-.386-.647q-.011-4.693,0-9.386c0-.263-.154-.691.354-.672s.314.443.317.7C535.792,523.721,535.783,525.247,535.783,526.773Z" transform="translate(-171.505 -234.806)" fill="#242020"/>
      <path id="Trazado_217879" data-name="Trazado 217879" d="M558.447,526.751c0,1.6.007,3.2-.007,4.8,0,.229.145.6-.259.635-.476.045-.408-.347-.408-.637q-.006-4.744,0-9.488c0-.257-.051-.578.352-.582.437,0,.315.352.317.584C558.452,523.627,558.447,525.189,558.447,526.751Z" transform="translate(-187.744 -234.796)" fill="#242020"/>
      <path id="Trazado_217880" data-name="Trazado 217880" d="M617.333,525.963c0-1.3.006-2.6-.018-3.893-.009-.459.079-.7.62-.686.492.014.777.066.757.675-.043,1.3-.017,2.595-.02,3.892A2.1,2.1,0,0,1,617.333,525.963Z" transform="translate(-230.365 -234.727)" fill="#242020"/>
      <ellipse id="Elipse_5588" data-name="Elipse 5588" cx="0.15" cy="8.806" rx="0.15" ry="8.806" transform="translate(376.513 284.148)" fill="#424141"/>
      <path id="Trazado_217881" data-name="Trazado 217881" d="M574.019,527.943c0,1.794.008,3.587-.008,5.381,0,.264.163.717-.287.725s-.315-.442-.316-.713q-.015-5.552,0-11.1c0-.266-.132-.706.358-.663.373.032.246.413.247.651C574.023,524.126,574.019,526.035,574.019,527.943Z" transform="translate(-198.926 -234.856)" fill="#242020"/>
      <path id="Trazado_217882" data-name="Trazado 217882" d="M673.923,534.083V521.669h.209v12.414Z" transform="translate(-270.883 -234.93)" fill="#424141"/>
      <path id="Trazado_217883" data-name="Trazado 217883" d="M480.929,534.051c.139-4.18.09-8.36.025-12.541l.524.007q-.029,6.177-.058,12.354Z" transform="translate(-132.745 -234.817)" fill="#bbbdbf"/>
      <path id="Trazado_217884" data-name="Trazado 217884" d="M525.272,532.224c.119-3.569.081-7.139.019-10.709h.52l.017,10.705Z" transform="translate(-164.484 -234.82)" fill="#bbbdbf"/>
      <path id="Trazado_217885" data-name="Trazado 217885" d="M623.461,526.773c0-1.558,0-3.116,0-4.674,0-.245-.068-.6.349-.56.31.026.263.319.263.532q.006,4.788,0,9.577c0,.244.06.616-.345.564-.355-.046-.264-.405-.265-.651C623.457,529.965,623.461,528.369,623.461,526.773Z" transform="translate(-234.76 -234.835)" fill="#242020"/>
      <path id="Trazado_217886" data-name="Trazado 217886" d="M628.276,532.251V521.632h.219V532.26Z" transform="translate(-238.211 -234.903)" fill="#242020"/>
      <path id="Trazado_217887" data-name="Trazado 217887" d="M505.6,532.274v-10.6h.211v10.586Z" transform="translate(-150.402 -234.936)" fill="#424141"/>
      <path id="Trazado_217888" data-name="Trazado 217888" d="M510.267,532.26V521.63h.221v10.616Z" transform="translate(-153.744 -234.902)" fill="#424141"/>
      <path id="Trazado_217889" data-name="Trazado 217889" d="M518.915,521.6v10.644l-.227,0V521.61Z" transform="translate(-159.772 -234.883)" fill="#424141"/>
      <path id="Trazado_217890" data-name="Trazado 217890" d="M563.9,532.265v-10.6h.212V532.28Z" transform="translate(-192.13 -234.929)" fill="#424141"/>
      <path id="Trazado_217891" data-name="Trazado 217891" d="M568.655,532.2c-.523-.078-.377-.492-.378-.8q-.013-4.6,0-9.2c0-.293-.178-.736.4-.75C568.737,525.038,568.776,528.621,568.655,532.2Z" transform="translate(-195.249 -234.777)" fill="#424141"/>
      <path id="Trazado_217892" data-name="Trazado 217892" d="M585.452,521.513c-.061,3.57-.1,7.14.02,10.71l-.559,0,.018-10.7Z" transform="translate(-207.173 -234.819)" fill="#bbbdbf"/>
      <path id="Trazado_217893" data-name="Trazado 217893" d="M550.425,532.007q-.037-5.268-.074-10.536h.5c-.067,3.58-.11,7.161.023,10.741Z" transform="translate(-182.435 -234.788)" fill="#eff0f1"/>
      <path id="Trazado_217894" data-name="Trazado 217894" d="M546.318,522.227l.007,10.315-.294,0,0-10.32Z" transform="translate(-179.343 -235.328)" fill="#eff0f1"/>
      <path id="Trazado_217895" data-name="Trazado 217895" d="M571.162,522.268q-.006,5.147-.012,10.294l-.336,0q-.008-5.142-.016-10.285Z" transform="translate(-197.07 -235.359)" fill="#242020"/>
      <path id="Trazado_217896" data-name="Trazado 217896" d="M612.544,525.96c0-1.251-.013-2.5,0-3.752,0-.332-.179-.785.468-.8.6-.017.56.346.555.741-.017,1.288-.028,2.575-.041,3.863A1.491,1.491,0,0,1,612.544,525.96Z" transform="translate(-226.936 -234.741)" fill="#242020"/>
      <path id="Trazado_217897" data-name="Trazado 217897" d="M604.431,521.415c.653-.136.956.027.911.794-.073,1.249-.028,2.506-.032,3.759-.673.23-.958.036-.925-.718C604.44,523.974,604.42,522.694,604.431,521.415Z" transform="translate(-221.108 -234.718)" fill="#242020"/>
      <path id="Trazado_217898" data-name="Trazado 217898" d="M592.44,526.026c-.5-1.43-.154-2.9-.184-4.355-.009-.454.547-.186.847-.238.015,1.295,0,2.592.06,3.884C593.193,525.913,592.923,526.037,592.44,526.026Z" transform="translate(-212.365 -234.738)" fill="#242020"/>
      <path id="Trazado_217899" data-name="Trazado 217899" d="M648.168,531.03q.058,4,.117,8l-.58.006q.012-3.988.026-7.977Z" transform="translate(-252.117 -241.631)" fill="#bbbdbf"/>
      <path id="Trazado_217900" data-name="Trazado 217900" d="M668.86,549.512c0-.3-.009-.608,0-.912s-.126-.7.457-.694c.473.007.7.127.669.642-.035.644-.017,1.292-.005,1.937.007.393-.075.628-.553.654-.592.031-.582-.313-.571-.715C668.867,550.12,668.86,549.816,668.86,549.512Z" transform="translate(-267.256 -253.71)" fill="#242020"/>
      <path id="Trazado_217901" data-name="Trazado 217901" d="M600.746,526.182c-.476-1.462-.117-2.961-.192-4.442-.02-.387.327-.32.587-.3.02,1.363.032,2.727.066,4.09C601.216,525.885,601.108,526.11,600.746,526.182Z" transform="translate(-218.326 -234.754)" fill="#424141"/>
      <path id="Trazado_217902" data-name="Trazado 217902" d="M593.126,526.1c.483.011.753-.113.723-.709-.065-1.292-.045-2.589-.06-3.884l.514,0c-.019,1.318-.043,2.636-.052,3.954,0,.242-.089.556.3.617.188.082.146.234.116.382l-1.474.026C593.174,526.354,593.15,526.227,593.126,526.1Z" transform="translate(-213.051 -234.812)" fill="#bbbdbf"/>
      <path id="Trazado_217903" data-name="Trazado 217903" d="M601.324,526.222c.362-.073.47-.3.46-.655-.034-1.363-.046-2.726-.066-4.09l.507.013c-.012,1.279.008,2.559-.047,3.836-.032.753.253.947.925.718-.02.131-.04.262-.06.393h-1.7A.207.207,0,0,1,601.324,526.222Z" transform="translate(-218.904 -234.793)" fill="#bbbdbf"/>
      <path id="Trazado_217904" data-name="Trazado 217904" d="M482.655,533.89q.029-6.177.058-12.354c.42.156.227.519.228.78.009,3.88,0,7.759-.007,11.639l-.276-.044Z" transform="translate(-133.981 -234.835)" fill="#242020"/>
      <path id="Trazado_217905" data-name="Trazado 217905" d="M557.639,570.932c-1.257.758-2.57.481-2.994-.547-.319-.774,0-1.329,1.154-1.763-.5.6-1.147,1.063-.639,1.806C555.819,571.394,556.767,570.982,557.639,570.932Z" transform="translate(-185.424 -268.538)" fill="#424141"/>
      <path id="Trazado_217906" data-name="Trazado 217906" d="M607.369,573.218c-.806.07-1.451-.054-1.478-.919a.866.866,0,0,1,1.048-.917c.468.072,1.358-.413,1.3.743C608.206,572.806,608.311,573.48,607.369,573.218Zm-.369-1.6c-.344.111-.732.227-.7.7a.661.661,0,0,0,.765.643c.419-.014.732-.191.725-.671S607.41,571.707,607,571.62Z" transform="translate(-222.187 -270.484)" fill="#242020"/>
      <path id="Trazado_217907" data-name="Trazado 217907" d="M527.185,532.224l-.017-10.705c.4.068.288.391.288.627q.012,4.711,0,9.422C527.457,531.812,527.548,532.119,527.185,532.224Z" transform="translate(-165.841 -234.823)" fill="#242020"/>
      <path id="Trazado_217908" data-name="Trazado 217908" d="M584.272,521.524q-.009,5.351-.018,10.7c-.345-.133-.241-.439-.241-.684q-.011-4.684,0-9.369C584.015,521.943,583.878,521.617,584.272,521.524Z" transform="translate(-206.514 -234.827)" fill="#242020"/>
      <path id="Trazado_217909" data-name="Trazado 217909" d="M531.865,532.264V521.676h.174v10.543Z" transform="translate(-169.203 -234.936)" fill="#242020"/>
      <path id="Trazado_217910" data-name="Trazado 217910" d="M545.032,521.84l0,10.32c-.453.307-.393-.079-.393-.311q-.009-4.882,0-9.764C544.637,521.832,544.628,521.483,545.032,521.84Z" transform="translate(-178.342 -234.944)" fill="#242020"/>
      <path id="Trazado_217911" data-name="Trazado 217911" d="M569.988,521.69q.008,5.142.016,10.285a.285.285,0,0,0-.018.213l-.319.017c.12-3.583.081-7.167.02-10.75l.279.013Z" transform="translate(-196.26 -234.777)" fill="#eff0f1"/>
      <path id="Trazado_217912" data-name="Trazado 217912" d="M658.748,521.719v10.608h-.184V521.716Z" transform="translate(-259.89 -234.964)" fill="#242020"/>
      <ellipse id="Elipse_5589" data-name="Elipse 5589" cx="0.113" cy="7.491" rx="0.113" ry="7.491" transform="translate(352.825 284.542)" fill="#242020"/>
      <path id="Trazado_217913" data-name="Trazado 217913" d="M492.575,532.244V521.716h.158v10.55Z" transform="translate(-141.081 -234.964)" fill="#242020"/>
      <ellipse id="Elipse_5590" data-name="Elipse 5590" cx="0.103" cy="7.462" rx="0.103" ry="7.462" transform="translate(349.848 284.561)" fill="#242020"/>
      <path id="Trazado_217914" data-name="Trazado 217914" d="M636.741,522.741c-.2.42.291,1.206-.409,1.226-.732.02-.382-.768-.378-1.178s-.369-1.184.342-1.2C637.069,521.561,636.517,522.361,636.741,522.741Z" transform="translate(-243.638 -234.869)" fill="#424141"/>
      <path id="Trazado_217915" data-name="Trazado 217915" d="M663.66,549.7c-.246.551.3,1.583-.369,1.575-.832-.01-.335-1.024-.37-1.573-.031-.487-.35-1.443.272-1.441C664.117,548.264,663.336,549.245,663.66,549.7Z" transform="translate(-262.926 -253.964)" fill="#242020"/>
      <path id="Trazado_217916" data-name="Trazado 217916" d="M672.343,573.344c-.819-.4-1.135-.809-.849-1.47.265-.611.806-.634,1.356-.528a.666.666,0,0,1,.583.621c0,.52-.449.267-.692.285C671.728,572.326,671.727,572.311,672.343,573.344Z" transform="translate(-269.07 -270.453)" fill="#242020"/>
      <path id="Trazado_217917" data-name="Trazado 217917" d="M541.67,572.718c-.755-.157-.6-.657-.339-1.08.492-.786,1.377-.511,1.938-.33.537.173.194,1,.212,1.534.008.247-.265.252-.438.186-.3-.116-.214-.3-.078-.53a.577.577,0,0,0-.207-.874.762.762,0,0,0-.857-.015.61.61,0,0,0-.211.962A.094.094,0,0,0,541.67,572.718Z" transform="translate(-175.824 -270.319)" fill="#242020"/>
      <path id="Trazado_217918" data-name="Trazado 217918" d="M610.135,525.809c.019-1.47.037-2.94.064-4.41,0-.035.107-.067.366-.221v4.641Z" transform="translate(-225.226 -234.579)" fill="#242020"/>
      <path id="Trazado_217919" data-name="Trazado 217919" d="M530.855,570.767c-1.457.486-1.577.4-1.578-1.067a7.082,7.082,0,0,1,.127-1.593c-.082,1.267.945.773,1.45,1.048l-.209.194c-.676-.163-1.11-.019-1.057.8.058.888.66.438,1.075.452Z" transform="translate(-167.351 -268.169)" fill="#242020"/>
      <path id="Trazado_217920" data-name="Trazado 217920" d="M667.015,572.413c-1.11-.571-.41-1.573-.907-2.16-.018-.022.288-.449.417-.436.241.024.328.358.578.518.274.176-.28.08-.324.232A2.509,2.509,0,0,0,667.015,572.413Z" transform="translate(-265.289 -269.392)" fill="#242020"/>
      <path id="Trazado_217921" data-name="Trazado 217921" d="M610.135,537.444l.43.009c.1.169.19.117.269-.02a1.491,1.491,0,0,0,.984.048c.131.059.271.225.376-.031a2.1,2.1,0,0,0,1.339-.011q-.039.239-.078.477l-3.273-.059C610.167,537.72,610.151,537.582,610.135,537.444Z" transform="translate(-225.226 -246.214)" fill="#bbbdbf"/>
      <path id="Trazado_217922" data-name="Trazado 217922" d="M648.134,572.546c.155-.333,0-1.134.792-.5a.371.371,0,0,0,.506-.1c.164-.26.344-.286.525-.067a.738.738,0,0,1,.2.487c-.049.317-.349.191-.551.2-.339.02-.679.01-1.018.013Z" transform="translate(-252.424 -270.762)" fill="#242020"/>
      <path id="Trazado_217923" data-name="Trazado 217923" d="M522.908,573.129c-.43-1.536-.43-1.536-1.243-1.679.513-.267.911-.326,1.273.045C523.229,571.793,523.2,572.384,522.908,573.129Z" transform="translate(-161.902 -270.407)" fill="#424141"/>
      <path id="Trazado_217924" data-name="Trazado 217924" d="M638.31,573.417a1.081,1.081,0,0,1-1.678-.38c-.274-.523-.089-1.008.574-1.248C636.806,573.112,636.929,573.273,638.31,573.417Z" transform="translate(-244.104 -270.805)" fill="#424141"/>
      <path id="Trazado_217925" data-name="Trazado 217925" d="M570.6,573.22c.616-.4,1.506-.7.329-1.843.88.233,1.148.589,1.032,1.129a.95.95,0,0,1-1.2.774A.194.194,0,0,0,570.6,573.22Z" transform="translate(-196.93 -270.51)" fill="#424141"/>
      <path id="Trazado_217926" data-name="Trazado 217926" d="M501.5,568.328a4.259,4.259,0,0,1,.033,2.712A4.543,4.543,0,0,1,501.5,568.328Z" transform="translate(-147.335 -268.327)" fill="#424141"/>
      <path id="Trazado_217927" data-name="Trazado 217927" d="M506.1,573.67a1.041,1.041,0,0,1-1.486-.526.771.771,0,0,1,.46-1.168l.186.194c-.512.973-.377,1.178.838,1.274Q506.1,573.557,506.1,573.67Z" transform="translate(-149.608 -270.938)" fill="#424141"/>
      <path id="Trazado_217928" data-name="Trazado 217928" d="M594.035,571.57a.876.876,0,0,1,.657,1.145c-.22.791-.927.778-1.573.823q0-.2.007-.406c1.2-.03,1.327-.2.888-1.242Z" transform="translate(-213.046 -270.648)" fill="#424141"/>
      <path id="Trazado_217929" data-name="Trazado 217929" d="M642.5,521.7a2.788,2.788,0,0,1-.009,2.29A4.207,4.207,0,0,1,642.5,521.7Z" transform="translate(-248.273 -234.956)" fill="#424141"/>
      <path id="Trazado_217930" data-name="Trazado 217930" d="M479.507,569.7c-.479.736-.338,1.4.371,2.18C478.533,571.215,478.457,570.543,479.507,569.7Z" transform="translate(-131.212 -269.311)" fill="#424141"/>
      <path id="Trazado_217931" data-name="Trazado 217931" d="M597.365,526.074c-.393-.06-.306-.375-.3-.617.009-1.318.033-2.636.052-3.954.4.057.308.375.306.615C597.41,523.436,597.385,524.755,597.365,526.074Z" transform="translate(-215.861 -234.812)" fill="#242020"/>
      <path id="Trazado_217932" data-name="Trazado 217932" d="M577.326,573.451a3.471,3.471,0,0,1-.19-1.683c-.015-.218.1-.368.34-.325.2.036.391.19.248.376C577.373,572.279,577.793,572.873,577.326,573.451Z" transform="translate(-201.596 -270.552)" fill="#424141"/>
      <path id="Trazado_217933" data-name="Trazado 217933" d="M591.606,573.091q0,.2-.007.406c-.314.119-.108.482-.3.662-.615-2.118-.315-2.763,1.22-2.631l-.02.321C591.386,571.671,591.271,571.832,591.606,573.091Z" transform="translate(-211.526 -270.606)" fill="#242020"/>
      <path id="Trazado_217934" data-name="Trazado 217934" d="M600.742,573.51a3.624,3.624,0,0,1-.169-1.683c0-.464.358-.237.565-.234.539.009.16.271.062.358C600.762,572.337,601.129,572.906,600.742,573.51Z" transform="translate(-218.365 -270.623)" fill="#424141"/>
      <path id="Trazado_217935" data-name="Trazado 217935" d="M587.328,572.88c-.055-.572-.111-1.144-.194-2,.785.776.519,1.387.516,1.966Z" transform="translate(-208.763 -270.151)" fill="#424141"/>
      <path id="Trazado_217936" data-name="Trazado 217936" d="M506.547,571.448a1.232,1.232,0,0,1,1.708.3.725.725,0,0,1-.213,1.157l-.184-.177c.243-1.06.053-1.244-1.124-1.089Z" transform="translate(-151.082 -270.41)" fill="#242020"/>
      <path id="Trazado_217937" data-name="Trazado 217937" d="M621.929,568.1c-2.609-.331-1.078,1.8-1.764,2.794a4.5,4.5,0,0,1-.075-2.611C620.346,567.557,621.227,568.074,621.929,568.1Z" transform="translate(-232.235 -268.019)" fill="#242020"/>
      <path id="Trazado_217938" data-name="Trazado 217938" d="M514.915,573.575c0-.806,0-1.3,0-1.8,0-.2.047-.37.307-.344.194.019.469.152.346.294C515.167,572.188,515.605,572.833,514.915,573.575Z" transform="translate(-157.071 -270.544)" fill="#424141"/>
      <path id="Trazado_217939" data-name="Trazado 217939" d="M538.5,573.366a2.638,2.638,0,0,1,.012-1.789A1.816,1.816,0,0,1,538.5,573.366Z" transform="translate(-173.844 -270.653)" fill="#424141"/>
      <path id="Trazado_217940" data-name="Trazado 217940" d="M509.246,469.916l.433,1.128c-.418-.066-.592.453-1.049.429C508.37,470.763,509.317,470.526,509.246,469.916Z" transform="translate(-152.54 -197.888)" fill="#bbbdbf"/>
      <path id="Trazado_217941" data-name="Trazado 217941" d="M648.134,574.6l.455.035c.092,1.117.96.477,1.474.646C649.11,576.013,648.477,575.787,648.134,574.6Z" transform="translate(-252.424 -272.817)" fill="#424141"/>
      <path id="Trazado_217942" data-name="Trazado 217942" d="M644.889,572.624a3.33,3.33,0,0,1-.088-2.1A2.025,2.025,0,0,1,644.889,572.624Z" transform="translate(-249.952 -269.901)" fill="#424141"/>
      <path id="Trazado_217943" data-name="Trazado 217943" d="M496.71,573.279c.386-.484.072-.869-.262-1.286,1.026.29,1.112.591.5,1.484Z" transform="translate(-143.853 -270.951)" fill="#424141"/>
      <path id="Trazado_217944" data-name="Trazado 217944" d="M652.75,456.626c-.3-.144-.688.023-.971-.242.079-.377.429-.225.639-.335.243.051.582-.082.689.242C653.19,456.544,652.914,456.558,652.75,456.626Z" transform="translate(-255.033 -187.962)" fill="#bbbdbf"/>
      <path id="Trazado_217945" data-name="Trazado 217945" d="M491.488,573.695c-.6-.422-.709-.912-.149-1.6.231.481-.131,1.042.322,1.354Z" transform="translate(-139.934 -271.021)" fill="#424141"/>
      <path id="Trazado_217946" data-name="Trazado 217946" d="M566.971,573.666c-.5-.142-.521-.479-.317-.864.055-.1.291-.234.342-.2.454.3-.036.661.034,1Z" transform="translate(-194.017 -271.383)" fill="#eff0f1"/>
      <path id="Trazado_217947" data-name="Trazado 217947" d="M494.326,576.716a1.239,1.239,0,0,1-1.539.148l.174-.25a1.355,1.355,0,0,0,1.128-.1Z" transform="translate(-141.233 -274.189)" fill="#424141"/>
      <path id="Trazado_217948" data-name="Trazado 217948" d="M520.179,574.785a1.587,1.587,0,0,1,.049-1.34A1.4,1.4,0,0,1,520.179,574.785Z" transform="translate(-160.75 -271.99)" fill="#424141"/>
      <path id="Trazado_217949" data-name="Trazado 217949" d="M535.046,572.415a.865.865,0,0,1,0,1.259l-.189-.238q0-.391,0-.782Z" transform="translate(-171.345 -271.253)" fill="#242020"/>
      <path id="Trazado_217950" data-name="Trazado 217950" d="M543,576.4a.094.094,0,0,1,.021-.148.8.8,0,0,1,.7.621C543.255,577.021,543.08,576.78,543,576.4Z" transform="translate(-177.155 -273.996)" fill="#eff0f1"/>
      <path id="Trazado_217951" data-name="Trazado 217951" d="M629.4,574.187a1.561,1.561,0,0,1-.007-1.39A1.438,1.438,0,0,1,629.4,574.187Z" transform="translate(-238.898 -271.526)" fill="#242020"/>
      <path id="Trazado_217952" data-name="Trazado 217952" d="M568.794,576.616a.194.194,0,0,1,.164.06c-.548.3-.663-.189-.882-.487l.059-.067C568.456,576.15,568.575,576.451,568.794,576.616Z" transform="translate(-195.122 -273.905)" fill="#eff0f1"/>
      <path id="Trazado_217953" data-name="Trazado 217953" d="M630.074,568.22c.167-.281.533-.328.623-.129.111.244-.321.136-.449.288Z" transform="translate(-239.498 -268.071)" fill="#242020"/>
      <path id="Trazado_217954" data-name="Trazado 217954" d="M629.667,569.009c-.1.121,0,.517-.308.338-.19-.109-.074-.369.134-.5Z" transform="translate(-238.917 -268.701)" fill="#242020"/>
      <path id="Trazado_217955" data-name="Trazado 217955" d="M570.758,558.68a.286.286,0,0,1,.018-.214l.336,0C571.123,558.76,570.9,558.648,570.758,558.68Z" transform="translate(-197.032 -261.268)" fill="#424141"/>
      <path id="Trazado_217956" data-name="Trazado 217956" d="M570.74,521.7l-.023-.223c.159.019.4-.1.387.218Z" transform="translate(-197.012 -234.79)" fill="#424141"/>
      <path id="Trazado_217957" data-name="Trazado 217957" d="M628.608,571.484a.693.693,0,0,1-.271.048c-.049-.012-.242-.045-.107-.19a.4.4,0,0,1,.2-.086C628.59,571.216,628.563,571.357,628.608,571.484Z" transform="translate(-238.143 -270.418)" fill="#242020"/>
      <path id="Trazado_217958" data-name="Trazado 217958" d="M570.911,571.327c-.024.006-.06.024-.068.015s-.018-.049-.026-.076c.024-.006.06-.024.069-.015S570.9,571.3,570.911,571.327Z" transform="translate(-197.084 -270.418)" fill="#eff0f1"/>
      <path id="Trazado_217959" data-name="Trazado 217959" d="M510.15,576.9q0-.114,0-.227l.286-.185.184.177C510.536,576.891,510.35,576.911,510.15,576.9Z" transform="translate(-153.659 -274.169)" fill="#242020"/>
      <path id="Trazado_217960" data-name="Trazado 217960" d="M534.3,571.795l.2.176-.188.239-.219-.221Z" transform="translate(-170.794 -270.809)" fill="#242020"/>
      <path id="Trazado_217961" data-name="Trazado 217961" d="M482.668,565.072l.276.044-.117.14Z" transform="translate(-133.99 -265.997)" fill="#bbbdbf"/>
      <path id="Trazado_217962" data-name="Trazado 217962" d="M631.252,571.646a.648.648,0,0,1-.146.064c-.019,0-.048-.043-.073-.067a.712.712,0,0,1,.148-.067C631.2,571.571,631.227,571.62,631.252,571.646Z" transform="translate(-240.184 -270.651)" fill="#242020"/>
      <path id="Trazado_217963" data-name="Trazado 217963" d="M534.542,576.248l-.2.176-.192-.167.2-.247Z" transform="translate(-170.84 -273.826)" fill="#242020"/>
      <path id="Trazado_217964" data-name="Trazado 217964" d="M533.237,464.857a3.182,3.182,0,0,0-.453-.019c-.391.036-.972-.118-1.008.448-.039.6.572.459.947.535a22.485,22.485,0,0,0,4.609.448c.4,0,.846-.139,1.164.257a6.507,6.507,0,0,1-2.819.136c-2.076-.154-4.143-.426-6.213-.665-.483-.056-1.132-.1-1.109-.721.02-.543.687-.538,1.1-.61,1.231-.213,2.475-.35,3.714-.518Q533.2,464.5,533.237,464.857Z" transform="translate(-166.691 -193.759)" fill="#eff0f1"/>
      <path id="Trazado_217965" data-name="Trazado 217965" d="M767.569,322.109a7.6,7.6,0,1,1,7.648-7.583A7.532,7.532,0,0,1,767.569,322.109Zm-.94-13.1a4.689,4.689,0,0,1-2.359.047,1.662,1.662,0,0,0-1.754.586c-1.331,1.457-1.352,3.247-1.226,5.062a.79.79,0,0,0,.4.661c.222.122.371.291.308.549-.082.339-.24.751.247.826a.8.8,0,0,0,.834-.652c.26-.975.723-.547,1.258-.272.471.242.428,1,1.122,1.061.021-.279.039-.5.055-.729.106-1.549.718-1.927,2.04-1.262,1.412.71,2,.372,2.07-1.184a1.129,1.129,0,0,1,.261-.923,4.43,4.43,0,0,1,.1,1.866c-.05.694-.684.876-1.225,1.193a4.118,4.118,0,0,0,.76.556c.785.305,1.562.512,1.523,1.662-.01.3.624.807,1.036.9.52.122.692-.5.871-.9a5.269,5.269,0,0,0,.35-1.9,7.882,7.882,0,0,1,.148-2.713,2.594,2.594,0,0,0-1.5-3.231c-.487-.142-.87-.112-.884.609-.017.869-.88.969-1.446,1.307-.152.091-.431-.146-.352-.317.3-.657.9-1.126,1.121-1.861.119-.393.643.174.939-.22-1.025-.877-2.322-.326-3.451-.6.107-.484.632.09.708-.475-.685.04-1.432-.615-1.968.358Z" transform="translate(-332.479 -81.214)" fill="#059eda"/>
      <path id="Trazado_217966" data-name="Trazado 217966" d="M608.017,572.323c.41.087.779.185.786.675s-.306.657-.725.671a.66.66,0,0,1-.765-.643C607.285,572.55,607.673,572.434,608.017,572.323Z" transform="translate(-223.205 -271.187)" fill="#eff0f1"/>
      <path id="Trazado_217967" data-name="Trazado 217967" d="M531.635,573.334l-.2.247c-.415-.014-1.017.437-1.075-.452-.053-.817.381-.961,1.057-.8l.219.221Q531.635,572.943,531.635,573.334Z" transform="translate(-168.122 -271.15)" fill="#eff0f1"/>
      <path id="Trazado_217968" data-name="Trazado 217968" d="M507.618,573.626l-.286.185c-1.216-.1-1.35-.3-.838-1.274C507.672,572.382,507.861,572.566,507.618,573.626Z" transform="translate(-150.842 -271.306)" fill="#eff0f1"/>
      <path id="Trazado_217969" data-name="Trazado 217969" d="M592.727,573.788c-.336-1.259-.221-1.42.888-1.242C594.054,573.583,593.929,573.758,592.727,573.788Z" transform="translate(-212.647 -271.303)" fill="#eff0f1"/>
      <path id="Trazado_217970" data-name="Trazado 217970" d="M769.794,312.966c.536-.973,1.284-.318,1.968-.358-.076.565-.6-.01-.708.475,1.129.277,2.426-.274,3.451.6-.3.395-.821-.173-.939.22-.222.734-.821,1.2-1.121,1.861-.078.171.2.407.353.317.566-.338,1.429-.438,1.446-1.307.014-.722.4-.751.884-.609a2.594,2.594,0,0,1,1.5,3.231,7.886,7.886,0,0,0-.148,2.713,5.271,5.271,0,0,1-.35,1.9c-.18.4-.351,1.022-.871.9-.412-.1-1.046-.6-1.036-.9.038-1.151-.739-1.357-1.523-1.662a4.12,4.12,0,0,1-.76-.556c.541-.317,1.175-.5,1.225-1.193a4.433,4.433,0,0,0-.1-1.866,1.129,1.129,0,0,0-.261.923c-.072,1.556-.658,1.894-2.07,1.184-1.322-.665-1.934-.287-2.04,1.262-.015.225-.034.45-.055.729-.694-.064-.651-.819-1.122-1.061-.535-.275-1-.7-1.258.272a.8.8,0,0,1-.834.652c-.487-.075-.329-.487-.247-.826.063-.258-.086-.427-.308-.549a.79.79,0,0,1-.4-.661c-.126-1.815-.106-3.6,1.226-5.062a1.662,1.662,0,0,1,1.754-.586,4.689,4.689,0,0,0,2.359-.047l.064.051Z" transform="translate(-335.654 -85.165)" fill="#67bbe4"/>
      <path id="Trazado_217971" data-name="Trazado 217971" d="M783.337,314.292l.074.041-.064-.051Z" transform="translate(-349.197 -86.491)" fill="#059eda"/>
    </g>
  </g>
</svg>
