<svg xmlns="http://www.w3.org/2000/svg" xmlns:xlink="http://www.w3.org/1999/xlink" width="190" height="189.182" viewBox="0 0 190 189.182">
  <defs>
    <clipPath id="clip-path">
      <path id="Trazado_114819" data-name="Trazado 114819" d="M1736.306,156.861l-19.722,16.005-6.374-6.979-8.275,7.559c.973,1.077,6.772,7.389,7.565,8.317a8.568,8.568,0,0,0,12.685.031l17.957-19.933Z" transform="translate(-1701.934 -156.861)" fill="#f4d2c6"/>
    </clipPath>
    <clipPath id="clip-path-2">
      <path id="Trazado_114823" data-name="Trazado 114823" d="M1583.285,186.815l6.954-4.655-4.859-8.562c-4.113,2.425-10.88,4.938-10.785,10.719.372,2.363-2.738,28.614-.189,29.744h0c3,3.417,6.3.62,9.055-1.405l-3.846-.038Z" transform="translate(-1573.392 -173.598)" fill="#f4d2c6"/>
    </clipPath>
    <clipPath id="clip-path-3">
      <path id="Trazado_114827" data-name="Trazado 114827" d="M1624.646,235.377l1.828,95.809h6.443l13.5-96.025Z" transform="translate(-1624.646 -235.161)" fill="#324d90"/>
    </clipPath>
    <clipPath id="clip-path-4">
      <path id="Trazado_114830" data-name="Trazado 114830" d="M1682.9,235.377l-1.828,95.809h-6.75l-13.2-96.025Z" transform="translate(-1661.124 -235.161)" fill="#324d90"/>
    </clipPath>
    <clipPath id="clip-path-5">
      <path id="Trazado_114835" data-name="Trazado 114835" d="M1666.01,90.929c-.182,11.732-14.479,11.73-14.661,0C1650.049,78.919,1666.922,78.8,1666.01,90.929Z" transform="translate(-1651.278 -81.878)" fill="#f4d2c6"/>
    </clipPath>
    <clipPath id="clip-path-6">
      <path id="Trazado_114846" data-name="Trazado 114846" d="M1654.169,150.637c-1.446-9.634-8.8-14.461-17.046-13.393-6.582-.242-12.512,6.452-13.331,13.4l-5.371,35.485h41.121Z" transform="translate(-1618.421 -137.099)" fill="#4292f3"/>
    </clipPath>
  </defs>
  <g id="Grupo_80532" data-name="Grupo 80532" transform="translate(-1561.257 -32.036)">
    <g id="Grupo_80528" data-name="Grupo 80528" transform="translate(1561.257 32.036)">
      <g id="Grupo_80491" data-name="Grupo 80491" transform="translate(59.708 92.791)">
        <path id="Trazado_114797" data-name="Trazado 114797" d="M1815.486,263.579h-15.911a2.1,2.1,0,0,0-2.035,1.59l-19.607,78.52,1.444,0,19.446-77.877a.989.989,0,0,1,.959-.749h15.705a.743.743,0,0,0,.743-.743h0A.743.743,0,0,0,1815.486,263.579Z" transform="translate(-1750.807 -263.579)" fill="#1b3f5e" style="isolation: isolate"/>
        <path id="Trazado_114798" data-name="Trazado 114798" d="M1956.908,263.74h-15.937a2.1,2.1,0,0,0-2.035,1.59l-19.607,78.521,1.443,0,19.446-77.877a.988.988,0,0,1,.959-.749h15.731a.743.743,0,0,0,.743-.743h0A.743.743,0,0,0,1956.908,263.74Z" transform="translate(-1835.539 -263.675)" fill="#1b3f5e" style="isolation: isolate"/>
        <g id="Grupo_80490" data-name="Grupo 80490" transform="translate(0 34.222)">
          <g id="Grupo_80479" data-name="Grupo 80479" transform="translate(5.474 41.882)">
            <path id="Trazado_114799" data-name="Trazado 114799" d="M1804.834,461.262c-.032-3.032-1.189-6.5-4.234-7.573a23.237,23.237,0,0,0-4.3-.148c-3.776-.552-6.472,2.788-6.547,7.72.076,4.933,2.77,8.271,6.547,7.72a23.208,23.208,0,0,0,4.3-.147c3.024-1.029,4.222-4.6,4.234-7.572Z" transform="translate(-1763.363 -453.482)" fill="#102660"/>
            <path id="Trazado_114800" data-name="Trazado 114800" d="M1738.469,457.987c-.686-2.12-2.361-4.367-4.78-4.378h0c-1.513.007-3.082,0-4.566,0-2.917.069-5.262,3.573-5.215,7.856.051,4.225,2.411,7.624,5.338,7.6q2.221-.008,4.442,0h0c3.7-.168,5.323-4.5,5.3-7.729h0A10.715,10.715,0,0,0,1738.469,457.987Z" transform="translate(-1723.907 -453.558)" fill="#102660"/>
          </g>
          <g id="Grupo_80482" data-name="Grupo 80482" transform="translate(5.474)">
            <g id="Grupo_80480" data-name="Grupo 80480" transform="translate(51.14)">
              <rect id="Rectángulo_33782" data-name="Rectángulo 33782" width="38.138" height="47.022" fill="#1b3f5e"/>
              <rect id="Rectángulo_33783" data-name="Rectángulo 33783" width="4.518" height="5.362" transform="translate(20.275)" fill="#fdf1e6"/>
            </g>
            <g id="Grupo_80481" data-name="Grupo 80481">
              <rect id="Rectángulo_33784" data-name="Rectángulo 33784" width="57.462" height="47.022" fill="#235168"/>
              <rect id="Rectángulo_33785" data-name="Rectángulo 33785" width="6.808" height="5.362" transform="translate(25.327)" fill="#fdf1e6"/>
            </g>
          </g>
          <g id="Grupo_80489" data-name="Grupo 80489" transform="translate(0 41.878)">
            <g id="Grupo_80483" data-name="Grupo 80483" transform="translate(0 4.732)">
              <rect id="Rectángulo_33786" data-name="Rectángulo 33786" width="100.227" height="2.682" fill="#324d90"/>
              <rect id="Rectángulo_33787" data-name="Rectángulo 33787" width="50.114" height="2.682" fill="#102660"/>
            </g>
            <g id="Grupo_80488" data-name="Grupo 80488" transform="translate(55.473)">
              <g id="Grupo_80485" data-name="Grupo 80485" transform="translate(26.387)">
                <path id="Trazado_114801" data-name="Trazado 114801" d="M1924.215,453.527q-1.742.009-3.483,0c-7.882-1.119-8.337,15.206-.995,15.459q1.742-.01,3.483,0C1931.1,470.1,1931.557,453.78,1924.215,453.527Z" transform="translate(-1914.513 -453.472)" fill="#102660"/>
                <g id="Grupo_80484" data-name="Grupo 80484" transform="translate(4.399 0.155)">
                  <path id="Trazado_114802" data-name="Trazado 114802" d="M1936.1,461.488c-.138,10.172-10.469,10.171-10.606,0C1925.628,451.315,1935.959,451.317,1936.1,461.488Z" transform="translate(-1925.49 -453.859)" fill="#324d90"/>
                  <path id="Trazado_114803" data-name="Trazado 114803" d="M1937.781,468.5c-.05,3.919-3.754,3.919-3.8,0C1934.027,464.581,1937.731,464.582,1937.781,468.5Z" transform="translate(-1930.576 -460.872)" fill="#102660"/>
                </g>
              </g>
              <g id="Grupo_80487" data-name="Grupo 80487">
                <path id="Trazado_114804" data-name="Trazado 114804" d="M1858.372,453.527q-1.741.009-3.483,0c-7.882-1.119-8.337,15.206-.995,15.459q1.741-.01,3.482,0C1865.259,470.1,1865.714,453.78,1858.372,453.527Z" transform="translate(-1848.67 -453.472)" fill="#102660"/>
                <g id="Grupo_80486" data-name="Grupo 80486" transform="translate(4.4 0.155)">
                  <path id="Trazado_114805" data-name="Trazado 114805" d="M1870.254,461.488c-.138,10.172-10.469,10.171-10.606,0C1859.786,451.315,1870.117,451.317,1870.254,461.488Z" transform="translate(-1859.648 -453.859)" fill="#324d90"/>
                  <path id="Trazado_114806" data-name="Trazado 114806" d="M1871.938,468.5c-.05,3.919-3.754,3.919-3.8,0C1868.185,464.581,1871.889,464.581,1871.938,468.5Z" transform="translate(-1864.734 -460.871)" fill="#102660"/>
                </g>
              </g>
            </g>
          </g>
        </g>
      </g>
      <g id="Grupo_80493" data-name="Grupo 80493" transform="translate(105.77 71.735)">
        <rect id="Rectángulo_33788" data-name="Rectángulo 33788" width="42.185" height="16.491" rx="8.246" fill="#2a437d"/>
        <g id="Grupo_80492" data-name="Grupo 80492" transform="translate(3.232 2.739)">
          <rect id="Rectángulo_33789" data-name="Rectángulo 33789" width="35.721" height="2.068" fill="#deeefc"/>
          <rect id="Rectángulo_33790" data-name="Rectángulo 33790" width="35.721" height="2.069" transform="translate(0 4.472)" fill="#deeefc"/>
          <rect id="Rectángulo_33791" data-name="Rectángulo 33791" width="23.714" height="2.069" transform="translate(0 8.944)" fill="#deeefc"/>
        </g>
      </g>
      <g id="Grupo_80494" data-name="Grupo 80494" transform="translate(124.188)">
        <path id="Trazado_114807" data-name="Trazado 114807" d="M1890.733,41.691c-2.877,24.4-16.717,24.381-19.588,0C1871.365,28.818,1890.515,28.818,1890.733,41.691Z" transform="translate(-1871.145 -32.036)" fill="#5376bc"/>
        <path id="Trazado_114808" data-name="Trazado 114808" d="M1892.988,47.116c-.118,6.891-10.369,6.89-10.485,0C1882.62,40.224,1892.872,40.225,1892.988,47.116Z" transform="translate(-1877.951 -37.975)" fill="#fff"/>
      </g>
      <g id="Grupo_80497" data-name="Grupo 80497" transform="translate(68.441 26.276)">
        <rect id="Rectángulo_33792" data-name="Rectángulo 33792" width="32.12" height="12.462" rx="6.231" transform="translate(1.422 1.513)" fill="#f0f8ff" style="isolation: isolate"/>
        <g id="Grupo_80496" data-name="Grupo 80496">
          <rect id="Rectángulo_33793" data-name="Rectángulo 33793" width="32.532" height="12.718" rx="6.359" fill="#2a437d"/>
          <g id="Grupo_80495" data-name="Grupo 80495" transform="translate(2.492 2.112)">
            <rect id="Rectángulo_33794" data-name="Rectángulo 33794" width="27.548" height="1.595" fill="#deeefc"/>
            <rect id="Rectángulo_33795" data-name="Rectángulo 33795" width="27.548" height="1.595" transform="translate(0 3.449)" fill="#deeefc"/>
            <rect id="Rectángulo_33796" data-name="Rectángulo 33796" width="18.287" height="1.595" transform="translate(0 6.898)" fill="#deeefc"/>
          </g>
        </g>
      </g>
      <g id="Grupo_80500" data-name="Grupo 80500" transform="translate(142.752 34.075)">
        <g id="Grupo_80499" data-name="Grupo 80499">
          <rect id="Rectángulo_33797" data-name="Rectángulo 33797" width="29.141" height="11.392" rx="5.696" fill="#2a437d"/>
          <g id="Grupo_80498" data-name="Grupo 80498" transform="translate(2.232 1.892)">
            <rect id="Rectángulo_33798" data-name="Rectángulo 33798" width="24.676" height="1.429" fill="#deeefc"/>
            <rect id="Rectángulo_33799" data-name="Rectángulo 33799" width="24.676" height="1.429" transform="translate(0 3.089)" fill="#deeefc"/>
            <rect id="Rectángulo_33800" data-name="Rectángulo 33800" width="16.381" height="1.429" transform="translate(0 6.178)" fill="#deeefc"/>
          </g>
        </g>
      </g>
      <g id="Grupo_80504" data-name="Grupo 80504" transform="translate(78.374 76.086)">
        <g id="Grupo_80503" data-name="Grupo 80503" transform="translate(5.565)">
          <g id="Grupo_80501" data-name="Grupo 80501" transform="translate(74.727)">
            <path id="Trazado_114809" data-name="Trazado 114809" d="M1975.7,221.894l-5.99,12.05a.318.318,0,0,1-.576-.014l-1.542-3.521Z" transform="translate(-1963.421 -221.894)" fill="#1b3f5e" opacity="0.8" style="isolation: isolate"/>
            <path id="Trazado_114810" data-name="Trazado 114810" d="M1961.354,230.409l-4.174-1.387,12.281-7.128Z" transform="translate(-1957.18 -221.894)" fill="#1b3f5e"/>
            <path id="Trazado_114811" data-name="Trazado 114811" d="M1979.551,221.894l-5.533,9.454,4.971,1.665Z" transform="translate(-1967.27 -221.894)" fill="#1b3f5e"/>
          </g>
          <g id="Grupo_80502" data-name="Grupo 80502" transform="translate(0 14.453)">
            <path id="Trazado_114812" data-name="Trazado 114812" d="M1969.652,258.568l-.157-.059q.1-.276.205-.55l.157.058Q1969.757,258.292,1969.652,258.568Z" transform="translate(-1889.833 -257.959)" fill="#1b3f5e"/>
            <path id="Trazado_114813" data-name="Trazado 114813" d="M1773.431,290.242l-.028-.166a8.563,8.563,0,0,0,1.134-.279l.051.16A8.7,8.7,0,0,1,1773.431,290.242Zm1.639-.452-.059-.157a11.079,11.079,0,0,0,1.071-.474l.076.15A11.182,11.182,0,0,1,1775.07,289.79Zm1.538-.721-.081-.147c.327-.181.656-.38,1.005-.609l.092.141C1777.271,288.685,1776.938,288.886,1776.608,289.07Zm1.438-.9-.1-.138c.3-.206.612-.432.956-.69l.1.134C1778.662,287.737,1778.347,287.964,1778.047,288.171Zm1.365-1-.1-.133c.327-.251.651-.507.93-.727l.1.132C1780.064,286.662,1779.739,286.919,1779.411,287.17Zm1.329-1.042-.1-.132c.3-.235.616-.486.932-.727l.1.133C1781.355,285.643,1781.037,285.893,1780.74,286.128Zm1.333-1.031-.1-.135c.35-.261.64-.468.965-.688l.094.139C1782.709,284.632,1782.421,284.838,1782.073,285.1Zm1.38-.961-.091-.141c.333-.215.675-.422,1.014-.615l.083.146C1784.122,283.718,1783.784,283.923,1783.453,284.136Zm1.447-.854-.08-.148c.348-.188.7-.367,1.059-.533l.071.152C1785.6,282.918,1785.245,283.1,1784.9,283.282Zm31.552-.04h-.107v-.168c.394,0,.794-.009,1.175-.034l.011.168C1817.181,283.229,1816.818,283.241,1816.452,283.241Zm-.616-.011c-.394-.013-.79-.043-1.183-.074l.014-.167c.39.031.784.06,1.175.073Zm2.2-.067-.017-.167c.4-.041.791-.1,1.161-.17l.032.165C1818.841,283.064,1818.445,283.122,1818.04,283.164Zm-3.891-.051c-.379-.034-.775-.075-1.177-.12l.019-.167c.4.045.8.085,1.174.119Zm-1.68-.179c-.376-.045-.77-.1-1.173-.152l.023-.166c.4.055.8.106,1.17.151Zm7.246-.052-.04-.163a9.4,9.4,0,0,0,1.119-.343l.06.157A9.579,9.579,0,0,1,1819.714,282.882Zm-8.921-.171q-.585-.084-1.169-.176l.026-.166q.583.091,1.167.175Zm16.718-.046V282.5c.378,0,.773-.017,1.174-.047l.013.168C1828.292,282.648,1827.892,282.664,1827.511,282.665Zm-.509-.007c-.409-.013-.808-.044-1.186-.093l.022-.167c.372.048.765.079,1.169.091Zm2.2-.085-.017-.167c.379-.039.771-.09,1.167-.152l.026.165C1829.981,282.482,1829.585,282.534,1829.2,282.572Zm-42.793-.026-.067-.154c.362-.158.731-.307,1.1-.443l.058.158C1787.135,282.241,1786.768,282.389,1786.41,282.546Zm38.9-.058a8.943,8.943,0,0,1-1.157-.284l.051-.16a8.823,8.823,0,0,0,1.136.278Zm-16.189-.031q-.584-.093-1.167-.19l.028-.166q.582.1,1.165.19Zm12.2-.12-.069-.153a6.709,6.709,0,0,0,1.017-.568l.095.139A6.9,6.9,0,0,1,1821.325,282.337Zm9.555,0-.03-.165c.387-.07.771-.149,1.151-.241l.039.163C1831.657,282.184,1831.27,282.263,1830.88,282.334Zm-23.424-.151-1.165-.2.028-.166,1.165.2Zm16.216-.15a6.513,6.513,0,0,1-1.069-.536l.09-.142.021.013-.043-.053a5.116,5.116,0,0,0,.808-.83l.133.1a5.313,5.313,0,0,1-.808.835,6.548,6.548,0,0,0,.929.453Zm8.861-.068-.044-.162c.376-.1.755-.216,1.125-.34l.053.159C1833.294,281.748,1832.913,281.863,1832.533,281.965Zm-44.557-.028-.055-.159c.371-.127.752-.244,1.133-.351l.045.162C1788.722,281.695,1788.344,281.812,1787.976,281.938Zm17.816-.037-1.165-.2.028-.165,1.165.2Zm-1.665-.277q-.584-.095-1.166-.185l.025-.166q.583.09,1.168.185Zm-14.541-.163-.042-.163c.38-.1.769-.182,1.157-.258l.032.165C1790.348,281.28,1789.962,281.366,1789.586,281.461Zm44.562-.007-.058-.158c.364-.133.731-.28,1.091-.437l.067.154C1834.885,281.171,1834.515,281.32,1834.148,281.454Zm-31.688-.091c-.412-.061-.794-.115-1.168-.165l.022-.167c.375.05.759.1,1.171.165Zm19.723-.163a5.41,5.41,0,0,1-.857-.837l.13-.106a5.265,5.265,0,0,0,.831.811Zm-21.394-.067c-.4-.051-.8-.1-1.172-.135l.018-.167c.377.039.772.085,1.175.136Zm-9.56-.019-.028-.166c.384-.066.778-.123,1.173-.169l.02.167C1792,280.993,1791.61,281.05,1791.229,281.115Zm7.885-.167c-.4-.038-.8-.07-1.175-.1l.011-.168c.382.026.778.058,1.18.1Zm-6.219-.055-.017-.167c.385-.038.782-.067,1.182-.088l.009.168C1793.672,280.826,1793.277,280.856,1792.895,280.893Zm4.539-.072c-.4-.022-.8-.037-1.178-.045l0-.168c.383.008.781.024,1.183.046Zm38.277-.015-.071-.152c.352-.164.7-.341,1.05-.526l.079.148C1836.421,280.462,1836.065,280.641,1835.71,280.806Zm-41.137-.022-.006-.168c.386-.013.789-.019,1.185-.016v.168C1795.359,280.766,1794.957,280.771,1794.573,280.784Zm29.333-.618-.143-.089a4.426,4.426,0,0,0,.482-1.05l.161.049A4.6,4.6,0,0,1,1823.906,280.166Zm13.308-.135-.083-.146c.338-.192.676-.4,1.007-.608l.091.141C1837.895,279.631,1837.554,279.837,1837.213,280.03Zm-16.193-.081a4.306,4.306,0,0,1-.521-1.082l.16-.05a4.12,4.12,0,0,0,.5,1.04Zm17.632-.811-.094-.139c.322-.216.645-.446.96-.682l.1.135C1839.3,278.689,1838.977,278.92,1838.653,279.138Zm-14.131-.565-.166-.028a3.17,3.17,0,0,0-.01-1.144l.165-.034A3.349,3.349,0,0,1,1824.522,278.572Zm-4.14-.21a2.824,2.824,0,0,1,.052-1.207l.162.046a2.653,2.653,0,0,0-.048,1.135Zm19.642-.22-.1-.133c.3-.238.612-.49.911-.747l.109.127C1840.64,277.649,1840.331,277.9,1840.024,278.142Zm1.3-1.087-.112-.125c.289-.258.579-.528.863-.8l.117.121C1841.907,276.523,1841.615,276.8,1841.324,277.055Zm-17.12-.123a2.211,2.211,0,0,0-.669-.9l.1-.133a2.38,2.38,0,0,1,.722.972Zm-3.424-.18-.147-.081a2.273,2.273,0,0,1,.846-.867l.084.145A2.106,2.106,0,0,0,1820.781,276.752Zm21.774-.864-.119-.118c.273-.275.548-.562.815-.853l.124.114C1843.105,275.324,1842.83,275.612,1842.555,275.888Zm-19.438-.094a1.738,1.738,0,0,0-1.106-.036l-.046-.161a1.9,1.9,0,0,1,1.213.041Zm20.6-1.141-.125-.112c.258-.289.517-.59.769-.895l.129.107C1844.236,274.06,1843.976,274.363,1843.717,274.654Zm1.1-1.293-.131-.105c.243-.3.487-.615.725-.931l.134.1C1845.3,272.742,1845.056,273.057,1844.812,273.36Zm1.031-1.343-.136-.1c.23-.314.46-.638.683-.962l.138.095C1846.3,271.376,1846.074,271.7,1845.843,272.017Zm.971-1.387-.14-.093c.216-.322.432-.655.642-.989l.142.089C1847.247,269.972,1847.03,270.307,1846.814,270.63Zm.913-1.424-.143-.088c.2-.331.407-.672.6-1.012l.145.084C1848.135,268.532,1847.931,268.874,1847.727,269.206Zm.858-1.456-.146-.083c.191-.339.382-.686.568-1.033l.148.079C1848.969,267.062,1848.777,267.411,1848.585,267.751Zm.806-1.484-.149-.078c.179-.345.359-.7.533-1.05l.151.075C1849.751,265.567,1849.572,265.921,1849.392,266.267Zm.756-1.51-.151-.073c.169-.351.338-.711.5-1.068l.153.07C1850.487,264.044,1850.318,264.405,1850.148,264.757Zm.711-1.534-.154-.068c.158-.355.316-.719.469-1.083l.155.065C1851.176,262.5,1851.018,262.867,1850.859,263.223Zm.665-1.555-.155-.064c.149-.362.3-.731.438-1.1l.157.061C1851.821,260.936,1851.673,261.306,1851.524,261.669Z" transform="translate(-1772.325 -259.487)" fill="#1b3f5e"/>
            <path id="Trazado_114814" data-name="Trazado 114814" d="M1770.719,334.672l-.006-.168c.193-.006.389-.02.581-.04l.018.167C1771.116,334.652,1770.916,334.666,1770.719,334.672Z" transform="translate(-1770.713 -303.805)" fill="#1b3f5e"/>
          </g>
        </g>
        <path id="Trazado_114815" data-name="Trazado 114815" d="M1761.214,325.95a5.6,5.6,0,0,1-1.125-.39l.071-.152a5.438,5.438,0,0,0,1.092.378Zm-1.578-.628a5.77,5.77,0,0,1-.961-.7l.113-.125a5.633,5.633,0,0,0,.933.683Zm-1.324-1.063a5.524,5.524,0,0,1-.708-.958l.145-.085a5.373,5.373,0,0,0,.687.929Zm-.946-1.411a5.749,5.749,0,0,1-.389-1.125l.163-.038a5.61,5.61,0,0,0,.378,1.092Zm-.484-1.628a5.6,5.6,0,0,1-.042-1.191l.167.012a5.428,5.428,0,0,0,.041,1.155Z" transform="translate(-1756.826 -280.701)" fill="#1b3f5e"/>
      </g>
      <path id="Trazado_114816" data-name="Trazado 114816" d="M1751.257,492.511c-62.4.9-127.6.9-190,0C1561.257,492.511,1688.853,491.607,1751.257,492.511Z" transform="translate(-1561.257 -307.734)" fill="#102660"/>
      <g id="Grupo_80527" data-name="Grupo 80527" transform="translate(0 15.717)">
        <g id="Grupo_80510" data-name="Grupo 80510" transform="translate(56.377 32.841)">
          <g id="Grupo_80506" data-name="Grupo 80506" transform="translate(0 1.466)">
            <path id="Trazado_114817" data-name="Trazado 114817" d="M1736.306,156.861l-19.722,16.005-6.374-6.979-8.275,7.559c.973,1.077,6.772,7.389,7.565,8.317a8.568,8.568,0,0,0,12.685.031l17.957-19.933Z" transform="translate(-1701.934 -156.861)" fill="#f4d2c6"/>
            <g id="Grupo_80505" data-name="Grupo 80505" clip-path="url(#clip-path)">
              <path id="Trazado_114818" data-name="Trazado 114818" d="M1721.487,192.82l-5.4,11.745-5.966-5.261,9.438-9.145,1.933,2.661" transform="translate(-1706.837 -176.815)" fill="#eda19d"/>
            </g>
          </g>
          <g id="Grupo_80509" data-name="Grupo 80509" transform="translate(25.211 4.163)">
            <g id="Grupo_80507" data-name="Grupo 80507">
              <rect id="Rectángulo_33801" data-name="Rectángulo 33801" width="21.824" height="30.518" rx="10.912" transform="translate(0 0.672)" fill="#324d90"/>
              <rect id="Rectángulo_33802" data-name="Rectángulo 33802" width="17.553" height="25.841" transform="translate(2.136 3.019)" fill="#f3f5fb"/>
              <rect id="Rectángulo_33803" data-name="Rectángulo 33803" width="7.49" height="3.742" rx="1.871" transform="translate(7.167)" fill="#152e60"/>
            </g>
            <g id="Grupo_80508" data-name="Grupo 80508" transform="translate(3.623 7.331)">
              <rect id="Rectángulo_33804" data-name="Rectángulo 33804" width="14.577" height="1.758" fill="#e3eaf4"/>
              <rect id="Rectángulo_33805" data-name="Rectángulo 33805" width="14.577" height="1.758" transform="translate(0 3.861)" fill="#e3eaf4"/>
              <rect id="Rectángulo_33806" data-name="Rectángulo 33806" width="14.577" height="1.758" transform="translate(0 7.722)" fill="#e3eaf4"/>
              <rect id="Rectángulo_33807" data-name="Rectángulo 33807" width="14.577" height="1.758" transform="translate(0 11.583)" fill="#e3eaf4"/>
              <rect id="Rectángulo_33808" data-name="Rectángulo 33808" width="10.221" height="1.758" transform="translate(0 15.444)" fill="#e3eaf4"/>
            </g>
          </g>
          <path id="Trazado_114820" data-name="Trazado 114820" d="M1784.909,156.644c-.275,2.312,1.615,3.51,3.416,4.416,2.625,1.609,6.267-1.028,5.477-4.032-.283-2.124-1.641-3.159-3.627-3.647C1787.948,152.661,1785.095,154.206,1784.909,156.644Z" transform="translate(-1751.641 -153.203)" fill="#f4d2c6"/>
        </g>
        <rect id="Rectángulo_33809" data-name="Rectángulo 33809" width="24.19" height="14.72" transform="translate(43.9 40.506) rotate(152.32)" fill="#4292f3"/>
        <g id="Grupo_80512" data-name="Grupo 80512" transform="translate(4.863 41.014)">
          <path id="Trazado_114821" data-name="Trazado 114821" d="M1583.285,186.815l6.954-4.655-4.859-8.562c-4.113,2.425-10.88,4.938-10.785,10.719.372,2.363-2.738,28.614-.189,29.744h0c3,3.417,6.3.62,9.055-1.405l-3.846-.038Z" transform="translate(-1573.392 -173.598)" fill="#f4d2c6"/>
          <g id="Grupo_80511" data-name="Grupo 80511" clip-path="url(#clip-path-2)">
            <path id="Trazado_114822" data-name="Trazado 114822" d="M1595.664,170.562l2.516,10.07,5.768-3.756-3.95-8.617Z" transform="translate(-1586.739 -170.399)" fill="#eda19d"/>
          </g>
        </g>
        <rect id="Rectángulo_33810" data-name="Rectángulo 33810" width="24.19" height="14.72" transform="translate(54.302 30.626) rotate(45)" fill="#4292f3"/>
        <path id="Trazado_114824" data-name="Trazado 114824" d="M1710.073,191.913l-2.871-15.725,4.853,13.743Z" transform="translate(-1648.715 -134.136)" fill="#3c7ed7"/>
        <g id="Grupo_80514" data-name="Grupo 80514" transform="translate(25.403 65.686)">
          <path id="Trazado_114825" data-name="Trazado 114825" d="M1624.646,235.377l1.828,95.809h6.443l13.5-96.025Z" transform="translate(-1624.646 -235.161)" fill="#324d90"/>
          <g id="Grupo_80513" data-name="Grupo 80513" clip-path="url(#clip-path-3)">
            <path id="Trazado_114826" data-name="Trazado 114826" d="M1650.629,299.375c-9.362,12.436-12.181,53.692-12.92,71.591h5.652l6.991-43.894.277-27.7" transform="translate(-1632.474 -273.641)" fill="#2a437d"/>
          </g>
        </g>
        <g id="Grupo_80516" data-name="Grupo 80516" transform="translate(40.022 65.686)">
          <path id="Trazado_114828" data-name="Trazado 114828" d="M1682.9,235.377l-1.828,95.809h-6.75l-13.2-96.025Z" transform="translate(-1661.124 -235.161)" fill="#324d90"/>
          <g id="Grupo_80515" data-name="Grupo 80515" clip-path="url(#clip-path-4)">
            <path id="Trazado_114829" data-name="Trazado 114829" d="M1669.949,299.375c7.96,10.113,12.349,56.518,12.543,71.031H1677.3l-7.35-71.031" transform="translate(-1666.412 -273.641)" fill="#2a437d"/>
          </g>
        </g>
        <g id="Grupo_80523" data-name="Grupo 80523" transform="translate(34.293)">
          <g id="Grupo_80522" data-name="Grupo 80522" transform="translate(0.373 4.257)">
            <g id="Grupo_80521" data-name="Grupo 80521">
              <g id="Grupo_80517" data-name="Grupo 80517" transform="translate(0 6.657)">
                <path id="Trazado_114831" data-name="Trazado 114831" d="M1650.4,100.513c.5,2.978-2.067,3.412-2.582.438C1647.326,97.974,1649.888,97.539,1650.4,100.513Z" transform="translate(-1647.758 -98.488)" fill="#eda19d"/>
                <path id="Trazado_114832" data-name="Trazado 114832" d="M1685.041,100.513c-.5,2.978,2.067,3.412,2.582.438C1688.118,97.974,1685.556,97.539,1685.041,100.513Z" transform="translate(-1670.062 -98.488)" fill="#eda19d"/>
              </g>
              <g id="Grupo_80520" data-name="Grupo 80520" transform="translate(1.41)">
                <g id="Grupo_80519" data-name="Grupo 80519">
                  <path id="Trazado_114833" data-name="Trazado 114833" d="M1666.01,90.929c-.182,11.732-14.479,11.73-14.661,0C1650.049,78.919,1666.922,78.8,1666.01,90.929Z" transform="translate(-1651.278 -81.878)" fill="#f4d2c6"/>
                  <g id="Grupo_80518" data-name="Grupo 80518" clip-path="url(#clip-path-5)">
                    <path id="Trazado_114834" data-name="Trazado 114834" d="M1653.039,88.582a30.182,30.182,0,0,0,12.97-.917h0l-.8-2.655-10.812.384-1.354,2.735" transform="translate(-1652.333 -83.755)" fill="#eda19d"/>
                  </g>
                </g>
                <path id="Trazado_114836" data-name="Trazado 114836" d="M1666.245,109.84h-7.6c.917,2.617-1.083,15.721-1.083,15.721h9.765S1665.329,112.457,1666.245,109.84Z" transform="translate(-1655.045 -98.634)" fill="#f4d2c6"/>
              </g>
            </g>
            <path id="Trazado_114837" data-name="Trazado 114837" d="M1660.212,123.685a6.428,6.428,0,0,0,7.391,0l.208,2.376s-4.25,1.986-7.807.025Z" transform="translate(-1655.096 -106.931)" fill="#eda19d"/>
          </g>
          <path id="Trazado_114838" data-name="Trazado 114838" d="M1653.256,78.238s9.586.954,12.058-.521,1.952-6.463,1.952-6.463C1665.86,71.479,1649.936,71.09,1653.256,78.238Z" transform="translate(-1650.408 -71.255)" fill="#59445a"/>
          <path id="Trazado_114839" data-name="Trazado 114839" d="M1649.859,80.688s-2.678.8-3,1.9,1.923,5.342,1.923,5.342h0a1.306,1.306,0,0,0,1.26-1.01l.834-3.582Z" transform="translate(-1646.828 -76.908)" fill="#59445a"/>
          <path id="Trazado_114840" data-name="Trazado 114840" d="M1683.534,80.688s2.677.8,3,1.9-1.923,5.342-1.923,5.342a1.323,1.323,0,0,1-1.26-1.011c-.016-.07-.833-3.581-.833-3.581Z" transform="translate(-1668.215 -76.908)" fill="#59445a"/>
          <path id="Trazado_114841" data-name="Trazado 114841" d="M1682.517,84.32s2.163-1.252,2.213-2.5C1684.73,81.822,1685.546,84.826,1682.517,84.32Z" transform="translate(-1668.215 -77.587)" fill="#34254b"/>
        </g>
        <path id="Trazado_114842" data-name="Trazado 114842" d="M1617.107,474.773l-.711,2.491-7.68,3.292a2.488,2.488,0,0,0-1.508,2.287h15.861l-.6-8.07Z" transform="translate(-1588.793 -313.063)" fill="#152e60"/>
        <path id="Trazado_114843" data-name="Trazado 114843" d="M1698.514,474.773l.711,2.491,7.68,3.292a2.488,2.488,0,0,1,1.508,2.287h-15.861l.6-8.07Z" transform="translate(-1639.935 -313.063)" fill="#152e60"/>
        <g id="Grupo_80525" data-name="Grupo 80525" transform="translate(22.909 26.387)">
          <path id="Trazado_114844" data-name="Trazado 114844" d="M1654.169,150.637c-1.446-9.634-8.8-14.461-17.046-13.393-6.582-.242-12.512,6.452-13.331,13.4l-5.371,35.485h41.121Z" transform="translate(-1618.421 -137.099)" fill="#4292f3"/>
          <g id="Grupo_80524" data-name="Grupo 80524" clip-path="url(#clip-path-6)">
            <path id="Trazado_114845" data-name="Trazado 114845" d="M1630.46,211.027l7.571-8.111-15.861-25.75,5.413,23.908L1611.338,212.5Z" transform="translate(-1614.176 -161.109)" fill="#3c7ed7"/>
          </g>
        </g>
        <g id="Grupo_80526" data-name="Grupo 80526" transform="translate(0 42.444)">
          <rect id="Rectángulo_33811" data-name="Rectángulo 33811" width="33.837" height="27.862" transform="translate(0 13.78) rotate(-24.033)" fill="#f3ac4a"/>
          <rect id="Rectángulo_33812" data-name="Rectángulo 33812" width="5.26" height="4.189" transform="translate(13.05 7.961) rotate(-24.032)" fill="#fdf1e6"/>
        </g>
        <path id="Trazado_114847" data-name="Trazado 114847" d="M1582.966,265.343c1.634.358,4.783.253,5.089,2.483l-5.089.257Z" transform="translate(-1574.266 -187.562)" fill="#f4d2c6"/>
        <path id="Trazado_114848" data-name="Trazado 114848" d="M1659.055,136.795a4.432,4.432,0,0,0,8.57,0A10.6,10.6,0,0,0,1659.055,136.795Z" transform="translate(-1619.862 -110.001)" fill="#f4d2c6"/>
        <path id="Trazado_114849" data-name="Trazado 114849" d="M1625.041,259.474h36.052l-35.9,6.975Z" transform="translate(-1599.479 -184.045)" fill="#2a437d"/>
        <path id="Trazado_114850" data-name="Trazado 114850" d="M1656.964,138.113l4.088,3.314-1.692,1.07c-2.7,1.419-3.139-2.319-3.795-3.986A5.943,5.943,0,0,1,1656.964,138.113Z" transform="translate(-1617.771 -111.32)" fill="#f3f5fb"/>
        <path id="Trazado_114851" data-name="Trazado 114851" d="M1671.814,141.348l1.592.988a1.876,1.876,0,0,0,2.831-1.239l.493-2.558s-1.116-.37-1.459-.426Z" transform="translate(-1627.508 -111.32)" fill="#f3f5fb"/>
      </g>
    </g>
    <g id="Grupo_80531" data-name="Grupo 80531" transform="translate(1700.319 188.661)">
      <g id="Grupo_80529" data-name="Grupo 80529" transform="translate(0 0)">
        <rect id="Rectángulo_33813" data-name="Rectángulo 33813" width="26.947" height="32.557" fill="#235168"/>
        <rect id="Rectángulo_33814" data-name="Rectángulo 33814" width="4.164" height="3.159" transform="translate(11.392)" fill="#fdfdfd"/>
      </g>
      <g id="Grupo_80530" data-name="Grupo 80530" transform="translate(26.947 0)">
        <rect id="Rectángulo_33815" data-name="Rectángulo 33815" width="14.075" height="32.557" fill="#1b3f5e"/>
        <rect id="Rectángulo_33816" data-name="Rectángulo 33816" width="3.567" height="3.159" transform="translate(6.01)" fill="#fdfdfd"/>
      </g>
    </g>
  </g>
</svg>
