<svg xmlns="http://www.w3.org/2000/svg" width="1033" height="547.08" viewBox="0 0 1033 547.08">
  <g id="Grupo_145040" data-name="Grupo 145040" transform="translate(-282.5 -381)">
    <path id="Trazado_217972" data-name="Trazado 217972" d="M441.264,356.714v58.7H231.429v66.2" transform="translate(170.396 225.275)" fill="none" stroke="#000" stroke-miterlimit="10" stroke-width="2"/>
    <path id="Trazado_217973" data-name="Trazado 217973" d="M494.892,460.287V416.571H447.429" transform="translate(164.232 223.566)" fill="none" stroke="#000" stroke-miterlimit="10" stroke-width="2"/>
    <path id="Trazado_217974" data-name="Trazado 217974" d="M820.643,356.714v58.7h209.836v66.2" transform="translate(153.58 225.275)" fill="none" stroke="#000" stroke-miterlimit="10" stroke-width="2"/>
    <path id="Trazado_217975" data-name="Trazado 217975" d="M771.786,460.287V416.571h47.463" transform="translate(154.975 223.566)" fill="none" stroke="#000" stroke-miterlimit="10" stroke-width="2"/>
    <path id="Trazado_218186" data-name="Trazado 218186" d="M0,0H27.34" transform="translate(509.865 889.223)" fill="none" stroke="#000" stroke-width="2"/>
    <path id="Trazado_217976" data-name="Trazado 217976" d="M375.189,672.761l-7.261,7.261V665.5Z" transform="translate(166.501 216.462)"/>
    <path id="Trazado_218187" data-name="Trazado 218187" d="M0,0H27.34" transform="translate(773.317 889.223)" fill="none" stroke="#000" stroke-width="2"/>
    <path id="Trazado_217977" data-name="Trazado 217977" d="M646.381,672.761l-7.261,7.261V665.5Z" transform="translate(158.762 216.462)"/>
    <path id="Trazado_218188" data-name="Trazado 218188" d="M0,0H27.34" transform="translate(1039.983 889.223)" fill="none" stroke="#000" stroke-width="2"/>
    <path id="Trazado_217978" data-name="Trazado 217978" d="M920.881,672.761l-7.261,7.261V665.5Z" transform="translate(150.928 216.462)"/>
    <path id="Trazado_217979" data-name="Trazado 217979" d="M445.821,279.858v-17H812.1v15.856" transform="translate(164.277 227.953)" fill="none" stroke="#000" stroke-miterlimit="10" stroke-width="2"/>
    <path id="Trazado_217980" data-name="Trazado 217980" d="M445.608,283.881l-7.261-7.261h14.521Z" transform="translate(164.491 227.561)"/>
    <path id="Trazado_217981" data-name="Trazado 217981" d="M822,283.881l-7.261-7.261h14.521Z" transform="translate(153.749 227.561)"/>
    <path id="Trazado_218189" data-name="Trazado 218189" d="M0,27.062V0" transform="translate(811.101 464.581)" fill="none"/>
    <path id="Trazado_218190" data-name="Trazado 218190" d="M0,28.728V0" transform="translate(811.101 462.915)" fill="none" stroke="#000" stroke-width="2"/>
    <path id="Trazado_218191" data-name="Trazado 218191" d="M39.742,0h143.07a39.742,39.742,0,0,1,0,79.483H39.742A39.742,39.742,0,0,1,39.742,0Z" transform="translate(699.823 384)" fill="#fff59d" stroke="#1b3f5e" stroke-width="6"/>
    <path id="Trazado_218192" data-name="Trazado 218192" d="M15,0H216.384a15,15,0,0,1,15,15V59.714a15,15,0,0,1-15,15H15a15,15,0,0,1-15-15V15A15,15,0,0,1,15,0Z" transform="translate(496.75 522.124)" fill="#fff" stroke="#d84318" stroke-width="4"/>
    <path id="Trazado_218193" data-name="Trazado 218193" d="M-94.251-4.258V0h-2.49V-12.086h4.715a5.455,5.455,0,0,1,2.395.5,3.67,3.67,0,0,1,1.59,1.415,3.946,3.946,0,0,1,.556,2.088,3.47,3.47,0,0,1-1.216,2.8,5.065,5.065,0,0,1-3.366,1.025Zm0-2.017h2.225A2.187,2.187,0,0,0-90.52-6.74,1.691,1.691,0,0,0-90-8.068,1.994,1.994,0,0,0-90.524-9.5a1.953,1.953,0,0,0-1.444-.564h-2.283Zm18.4.506a7.3,7.3,0,0,1-.631,3.129A4.751,4.751,0,0,1-78.285-.564a4.994,4.994,0,0,1-2.694.73,5.028,5.028,0,0,1-2.681-.722,4.8,4.8,0,0,1-1.826-2.063A7.087,7.087,0,0,1-86.141-5.7v-.6A7.258,7.258,0,0,1-85.5-9.442a4.79,4.79,0,0,1,1.818-2.083,5,5,0,0,1,2.685-.726,5,5,0,0,1,2.685.726,4.79,4.79,0,0,1,1.818,2.083,7.237,7.237,0,0,1,.643,3.134Zm-2.523-.548a5.086,5.086,0,0,0-.681-2.889,2.218,2.218,0,0,0-1.942-.988,2.219,2.219,0,0,0-1.934.975,5.028,5.028,0,0,0-.689,2.86v.589A5.15,5.15,0,0,0-82.937-2.9a2.212,2.212,0,0,0,1.959,1.021,2.192,2.192,0,0,0,1.926-.984,5.12,5.12,0,0,0,.681-2.868ZM-71.549-2h5.288V0h-7.778V-12.086h2.49Zm9.363,2h-2.49V-12.086h2.49Zm-.772-15.348h2.615l-2.3,2.573h-1.951Zm11.937,5.279h-3.7V0h-2.49V-10.069h-3.652v-2.017h9.845ZM-46.953,0h-2.49V-12.086h2.49Zm11.8-4.026A4.277,4.277,0,0,1-36.6-.955,5.058,5.058,0,0,1-40.022.166,4.548,4.548,0,0,1-43.679-1.4a6.416,6.416,0,0,1-1.332-4.3v-.739A7.245,7.245,0,0,1-44.4-9.5a4.6,4.6,0,0,1,1.756-2.038,4.918,4.918,0,0,1,2.652-.71,4.927,4.927,0,0,1,3.37,1.121,4.6,4.6,0,0,1,1.478,3.146h-2.49a2.524,2.524,0,0,0-.652-1.7,2.413,2.413,0,0,0-1.706-.527,2.116,2.116,0,0,0-1.864.892,5,5,0,0,0-.635,2.768v.913a5.352,5.352,0,0,0,.594,2.864,2.077,2.077,0,0,0,1.872.9A2.458,2.458,0,0,0-38.3-2.395a2.381,2.381,0,0,0,.652-1.631ZM-26.7-2.49h-4.366L-31.9,0h-2.648l4.5-12.086h2.308L-23.213,0h-2.648Zm-3.694-2.017h3.021l-1.519-4.524Zm14.576,1.336a1.278,1.278,0,0,0-.5-1.083,6.533,6.533,0,0,0-1.793-.8,12.71,12.71,0,0,1-2.05-.826,3.35,3.35,0,0,1-2.059-3,2.919,2.919,0,0,1,.552-1.747,3.6,3.6,0,0,1,1.585-1.2,5.967,5.967,0,0,1,2.32-.432,5.432,5.432,0,0,1,2.308.469,3.674,3.674,0,0,1,1.573,1.324,3.464,3.464,0,0,1,.56,1.942h-2.49a1.63,1.63,0,0,0-.523-1.291,2.15,2.15,0,0,0-1.469-.461,2.3,2.3,0,0,0-1.419.386,1.217,1.217,0,0,0-.506,1.017,1.166,1.166,0,0,0,.594.988,6.705,6.705,0,0,0,1.747.747,7.55,7.55,0,0,1,3.1,1.585,3.157,3.157,0,0,1,.971,2.357A2.909,2.909,0,0,1-14.506-.726a5.2,5.2,0,0,1-3.2.892,6.171,6.171,0,0,1-2.54-.51,4.019,4.019,0,0,1-1.747-1.4,3.582,3.582,0,0,1-.6-2.059h2.5q0,2,2.391,2a2.326,2.326,0,0,0,1.386-.361A1.175,1.175,0,0,0-15.817-3.171ZM-7.4,0V-12.086h3.719a5.647,5.647,0,0,1,2.851.718A5.007,5.007,0,0,1,1.133-9.326a6.3,6.3,0,0,1,.706,3.009v.556a6.316,6.316,0,0,1-.693,3A4.964,4.964,0,0,1-.809-.73,5.69,5.69,0,0,1-3.656,0Zm2.49-10.069V-2h1.2a2.7,2.7,0,0,0,2.233-.955A4.314,4.314,0,0,0-.685-5.686v-.639a4.382,4.382,0,0,0-.764-2.793,2.7,2.7,0,0,0-2.233-.95ZM10.92-5.254H6.138V-2H11.75V0h-8.1V-12.086h8.085v2.017H6.138v2.88H10.92ZM26.932-4.026a4.277,4.277,0,0,1-1.44,3.071A5.058,5.058,0,0,1,22.068.166,4.548,4.548,0,0,1,18.411-1.4a6.416,6.416,0,0,1-1.332-4.3v-.739A7.245,7.245,0,0,1,17.693-9.5a4.6,4.6,0,0,1,1.756-2.038,4.918,4.918,0,0,1,2.652-.71,4.927,4.927,0,0,1,3.37,1.121,4.6,4.6,0,0,1,1.478,3.146h-2.49a2.524,2.524,0,0,0-.652-1.7A2.413,2.413,0,0,0,22.1-10.21a2.116,2.116,0,0,0-1.864.892A5,5,0,0,0,19.6-6.549v.913A5.352,5.352,0,0,0,20.2-2.772a2.077,2.077,0,0,0,1.872.9,2.458,2.458,0,0,0,1.722-.527,2.381,2.381,0,0,0,.652-1.631ZM38.495-5.769a7.3,7.3,0,0,1-.631,3.129A4.751,4.751,0,0,1,36.059-.564a4.994,4.994,0,0,1-2.694.73,5.028,5.028,0,0,1-2.681-.722,4.8,4.8,0,0,1-1.826-2.063A7.087,7.087,0,0,1,28.2-5.7v-.6a7.258,7.258,0,0,1,.643-3.142,4.79,4.79,0,0,1,1.818-2.083,5,5,0,0,1,2.685-.726,5,5,0,0,1,2.685.726,4.79,4.79,0,0,1,1.818,2.083,7.237,7.237,0,0,1,.643,3.134Zm-2.523-.548a5.086,5.086,0,0,0-.681-2.889,2.218,2.218,0,0,0-1.942-.988,2.219,2.219,0,0,0-1.934.975,5.028,5.028,0,0,0-.689,2.86v.589A5.15,5.15,0,0,0,31.406-2.9a2.212,2.212,0,0,0,1.959,1.021,2.192,2.192,0,0,0,1.926-.984,5.12,5.12,0,0,0,.681-2.868Zm7.587-5.769,3.1,8.766,3.088-8.766h3.271V0h-2.5V-3.3l.249-5.7L47.51,0H45.8L42.546-9,42.795-3.3V0H40.3V-12.086ZM57.686-4.258V0H55.2V-12.086h4.715a5.455,5.455,0,0,1,2.395.5,3.67,3.67,0,0,1,1.59,1.415,3.946,3.946,0,0,1,.556,2.088,3.47,3.47,0,0,1-1.216,2.8,5.065,5.065,0,0,1-3.366,1.025Zm0-2.017h2.225a2.187,2.187,0,0,0,1.507-.465,1.691,1.691,0,0,0,.519-1.328A1.994,1.994,0,0,0,61.413-9.5a1.953,1.953,0,0,0-1.444-.564H57.686ZM70.635-4.424H68.652V0h-2.49V-12.086h4.491a5.076,5.076,0,0,1,3.3.955,3.3,3.3,0,0,1,1.162,2.7,3.718,3.718,0,0,1-.535,2.063A3.651,3.651,0,0,1,72.96-5.055L75.574-.116V0H72.9ZM68.652-6.441H70.66a2.057,2.057,0,0,0,1.453-.477,1.706,1.706,0,0,0,.515-1.316,1.826,1.826,0,0,0-.486-1.345,2.018,2.018,0,0,0-1.49-.49h-2ZM83.834-2.49H79.468L78.637,0H75.99l4.5-12.086H82.8L87.32,0H84.672ZM80.14-4.507h3.021L81.642-9.031ZM94.716-3.171a1.278,1.278,0,0,0-.5-1.083,6.533,6.533,0,0,0-1.793-.8,12.71,12.71,0,0,1-2.05-.826,3.35,3.35,0,0,1-2.059-3,2.919,2.919,0,0,1,.552-1.747,3.6,3.6,0,0,1,1.585-1.2,5.967,5.967,0,0,1,2.32-.432,5.432,5.432,0,0,1,2.308.469,3.674,3.674,0,0,1,1.573,1.324,3.464,3.464,0,0,1,.56,1.942h-2.49A1.63,1.63,0,0,0,94.2-9.807a2.15,2.15,0,0,0-1.469-.461,2.3,2.3,0,0,0-1.419.386,1.217,1.217,0,0,0-.506,1.017,1.166,1.166,0,0,0,.594.988,6.705,6.705,0,0,0,1.747.747,7.55,7.55,0,0,1,3.1,1.585,3.157,3.157,0,0,1,.971,2.357A2.909,2.909,0,0,1,96.028-.726a5.2,5.2,0,0,1-3.2.892,6.171,6.171,0,0,1-2.54-.51,4.019,4.019,0,0,1-1.747-1.4,3.582,3.582,0,0,1-.6-2.059h2.5q0,2,2.391,2a2.326,2.326,0,0,0,1.386-.361A1.175,1.175,0,0,0,94.716-3.171Z" transform="translate(610.103 563.359)" fill="#1b3f5e"/>
    <path id="Trazado_218194" data-name="Trazado 218194" d="M15,0H216.384a15,15,0,0,1,15,15V59.714a15,15,0,0,1-15,15H15a15,15,0,0,1-15-15V15A15,15,0,0,1,15,0Z" transform="translate(293.715 672.007)" fill="#f0f8ff" stroke="#1b3f5e" stroke-width="3"/>
    <path id="Trazado_218195" data-name="Trazado 218195" d="M-74.284-4.258V0h-2.49V-12.086h4.715a5.455,5.455,0,0,1,2.395.5,3.67,3.67,0,0,1,1.59,1.415,3.946,3.946,0,0,1,.556,2.088,3.47,3.47,0,0,1-1.216,2.8A5.065,5.065,0,0,1-72.1-4.258Zm0-2.017h2.225a2.187,2.187,0,0,0,1.507-.465,1.691,1.691,0,0,0,.519-1.328A1.994,1.994,0,0,0-70.557-9.5,1.953,1.953,0,0,0-72-10.069h-2.283Zm12.949,1.851h-1.984V0h-2.49V-12.086h4.491a5.076,5.076,0,0,1,3.3.955,3.3,3.3,0,0,1,1.162,2.7,3.718,3.718,0,0,1-.535,2.063A3.651,3.651,0,0,1-59.01-5.055L-56.4-.116V0h-2.673Zm-1.984-2.017h2.009a2.057,2.057,0,0,0,1.453-.477,1.706,1.706,0,0,0,.515-1.316,1.826,1.826,0,0,0-.486-1.345,2.018,2.018,0,0,0-1.49-.49h-2ZM-52.312,0H-54.8V-12.086h2.49Zm12.136,0h-2.49l-4.848-7.952V0H-50V-12.086h2.49l4.856,7.969v-7.969h2.482Zm11.663-4.026a4.277,4.277,0,0,1-1.44,3.071A5.058,5.058,0,0,1-33.377.166,4.548,4.548,0,0,1-37.034-1.4a6.416,6.416,0,0,1-1.332-4.3v-.739A7.245,7.245,0,0,1-37.752-9.5,4.6,4.6,0,0,1-36-11.542a4.918,4.918,0,0,1,2.652-.71,4.927,4.927,0,0,1,3.37,1.121A4.6,4.6,0,0,1-28.5-7.985h-2.49a2.524,2.524,0,0,0-.652-1.7,2.413,2.413,0,0,0-1.706-.527,2.116,2.116,0,0,0-1.864.892,5,5,0,0,0-.635,2.768v.913a5.352,5.352,0,0,0,.594,2.864,2.077,2.077,0,0,0,1.872.9,2.458,2.458,0,0,0,1.722-.527A2.381,2.381,0,0,0-31-4.026ZM-24.23,0h-2.49V-12.086h2.49Zm4.8-4.258V0h-2.49V-12.086h4.715a5.455,5.455,0,0,1,2.395.5,3.67,3.67,0,0,1,1.59,1.415,3.946,3.946,0,0,1,.556,2.088,3.47,3.47,0,0,1-1.216,2.8,5.065,5.065,0,0,1-3.366,1.025Zm0-2.017h2.225A2.187,2.187,0,0,0-15.7-6.74a1.691,1.691,0,0,0,.519-1.328A1.994,1.994,0,0,0-15.705-9.5a1.953,1.953,0,0,0-1.444-.564h-2.283ZM-8.309,0H-10.8V-12.086h2.49ZM3.926-5.769A7.3,7.3,0,0,1,3.3-2.64,4.751,4.751,0,0,1,1.49-.564,4.994,4.994,0,0,1-1.2.166,5.028,5.028,0,0,1-3.885-.556,4.8,4.8,0,0,1-5.711-2.619,7.087,7.087,0,0,1-6.367-5.7v-.6a7.258,7.258,0,0,1,.643-3.142,4.79,4.79,0,0,1,1.818-2.083,5,5,0,0,1,2.685-.726,5,5,0,0,1,2.685.726A4.79,4.79,0,0,1,3.283-9.442a7.237,7.237,0,0,1,.643,3.134ZM1.4-6.317A5.086,5.086,0,0,0,.722-9.206a2.218,2.218,0,0,0-1.942-.988,2.219,2.219,0,0,0-1.934.975,5.028,5.028,0,0,0-.689,2.86v.589A5.15,5.15,0,0,0-3.163-2.9,2.212,2.212,0,0,0-1.2-1.876,2.192,2.192,0,0,0,.722-2.86,5.12,5.12,0,0,0,1.4-5.728ZM12-3.171a1.278,1.278,0,0,0-.5-1.083,6.533,6.533,0,0,0-1.793-.8,12.71,12.71,0,0,1-2.05-.826,3.35,3.35,0,0,1-2.059-3,2.919,2.919,0,0,1,.552-1.747,3.6,3.6,0,0,1,1.585-1.2,5.967,5.967,0,0,1,2.32-.432,5.432,5.432,0,0,1,2.308.469,3.674,3.674,0,0,1,1.573,1.324,3.464,3.464,0,0,1,.56,1.942h-2.49a1.63,1.63,0,0,0-.523-1.291,2.15,2.15,0,0,0-1.469-.461A2.3,2.3,0,0,0,8.6-9.882a1.217,1.217,0,0,0-.506,1.017,1.166,1.166,0,0,0,.594.988,6.705,6.705,0,0,0,1.747.747,7.55,7.55,0,0,1,3.1,1.585A3.157,3.157,0,0,1,14.5-3.187,2.909,2.909,0,0,1,13.314-.726a5.2,5.2,0,0,1-3.2.892,6.171,6.171,0,0,1-2.54-.51,4.019,4.019,0,0,1-1.747-1.4,3.582,3.582,0,0,1-.6-2.059h2.5q0,2,2.391,2A2.326,2.326,0,0,0,11.5-2.162,1.175,1.175,0,0,0,12-3.171ZM27.691-5.254H22.91V-2h5.611V0h-8.1V-12.086H28.5v2.017H22.91v2.88h4.781Zm-2.6-10.094h2.615l-2.3,2.573H23.458Zm14.153,5.279h-3.7V0h-2.49V-10.069H29.4v-2.017h9.845ZM43.313,0h-2.49V-12.086h2.49Zm11.8-4.026a4.277,4.277,0,0,1-1.44,3.071A5.058,5.058,0,0,1,50.245.166,4.548,4.548,0,0,1,46.588-1.4a6.416,6.416,0,0,1-1.332-4.3v-.739A7.245,7.245,0,0,1,45.87-9.5a4.6,4.6,0,0,1,1.756-2.038,4.918,4.918,0,0,1,2.652-.71,4.927,4.927,0,0,1,3.37,1.121,4.6,4.6,0,0,1,1.478,3.146h-2.49a2.524,2.524,0,0,0-.652-1.7,2.413,2.413,0,0,0-1.706-.527,2.116,2.116,0,0,0-1.864.892,5,5,0,0,0-.635,2.768v.913a5.352,5.352,0,0,0,.594,2.864,2.077,2.077,0,0,0,1.872.9,2.458,2.458,0,0,0,1.722-.527,2.381,2.381,0,0,0,.652-1.631ZM66.672-5.769a7.3,7.3,0,0,1-.631,3.129A4.751,4.751,0,0,1,64.236-.564a4.994,4.994,0,0,1-2.694.73,5.028,5.028,0,0,1-2.681-.722,4.8,4.8,0,0,1-1.826-2.063A7.087,7.087,0,0,1,56.379-5.7v-.6a7.258,7.258,0,0,1,.643-3.142,4.79,4.79,0,0,1,1.818-2.083,5,5,0,0,1,2.685-.726,5,5,0,0,1,2.685.726,4.79,4.79,0,0,1,1.818,2.083,7.237,7.237,0,0,1,.643,3.134Zm-2.523-.548a5.086,5.086,0,0,0-.681-2.889,2.218,2.218,0,0,0-1.942-.988,2.219,2.219,0,0,0-1.934.975,5.028,5.028,0,0,0-.689,2.86v.589A5.15,5.15,0,0,0,59.583-2.9a2.212,2.212,0,0,0,1.959,1.021,2.192,2.192,0,0,0,1.926-.984,5.12,5.12,0,0,0,.681-2.868Zm10.6,3.146a1.278,1.278,0,0,0-.5-1.083,6.533,6.533,0,0,0-1.793-.8,12.71,12.71,0,0,1-2.05-.826,3.35,3.35,0,0,1-2.059-3,2.919,2.919,0,0,1,.552-1.747,3.6,3.6,0,0,1,1.585-1.2,5.967,5.967,0,0,1,2.32-.432,5.432,5.432,0,0,1,2.308.469,3.674,3.674,0,0,1,1.573,1.324,3.464,3.464,0,0,1,.56,1.942h-2.49a1.63,1.63,0,0,0-.523-1.291,2.15,2.15,0,0,0-1.469-.461,2.3,2.3,0,0,0-1.419.386,1.217,1.217,0,0,0-.506,1.017,1.166,1.166,0,0,0,.594.988,6.705,6.705,0,0,0,1.747.747,7.55,7.55,0,0,1,3.1,1.585,3.157,3.157,0,0,1,.971,2.357A2.909,2.909,0,0,1,76.06-.726a5.2,5.2,0,0,1-3.2.892,6.171,6.171,0,0,1-2.54-.51,4.019,4.019,0,0,1-1.747-1.4,3.582,3.582,0,0,1-.6-2.059h2.5q0,2,2.391,2a2.326,2.326,0,0,0,1.386-.361A1.175,1.175,0,0,0,74.749-3.171Z" transform="translate(413.713 717.837)" fill="#1b3f5e"/>
    <path id="Trazado_218196" data-name="Trazado 218196" d="M15,0H216.384a15,15,0,0,1,15,15V59.714a15,15,0,0,1-15,15H15a15,15,0,0,1-15-15V15A15,15,0,0,1,15,0Z" transform="translate(540.491 672.007)" fill="#f0f8ff" stroke="#1b3f5e" stroke-width="3"/>
    <path id="Trazado_218197" data-name="Trazado 218197" d="M-63.148-4.258V0h-2.49V-12.086h4.715a5.455,5.455,0,0,1,2.395.5,3.67,3.67,0,0,1,1.59,1.415,3.946,3.946,0,0,1,.556,2.088,3.47,3.47,0,0,1-1.216,2.8,5.065,5.065,0,0,1-3.366,1.025Zm0-2.017h2.225a2.187,2.187,0,0,0,1.507-.465A1.691,1.691,0,0,0-58.9-8.068,1.994,1.994,0,0,0-59.421-9.5a1.953,1.953,0,0,0-1.444-.564h-2.283ZM-50.2-4.424h-1.984V0h-2.49V-12.086h4.491a5.076,5.076,0,0,1,3.3.955,3.3,3.3,0,0,1,1.162,2.7,3.718,3.718,0,0,1-.535,2.063,3.651,3.651,0,0,1-1.623,1.316L-45.26-.116V0h-2.673Zm-1.984-2.017h2.009a2.057,2.057,0,0,0,1.453-.477,1.706,1.706,0,0,0,.515-1.316,1.826,1.826,0,0,0-.486-1.345,2.018,2.018,0,0,0-1.49-.49h-2Zm18.287.672a7.3,7.3,0,0,1-.631,3.129A4.751,4.751,0,0,1-36.333-.564a4.994,4.994,0,0,1-2.694.73,5.028,5.028,0,0,1-2.681-.722,4.8,4.8,0,0,1-1.826-2.063A7.087,7.087,0,0,1-44.189-5.7v-.6a7.258,7.258,0,0,1,.643-3.142,4.79,4.79,0,0,1,1.818-2.083,5,5,0,0,1,2.685-.726,5,5,0,0,1,2.685.726A4.79,4.79,0,0,1-34.54-9.442,7.237,7.237,0,0,1-33.9-6.309Zm-2.523-.548A5.086,5.086,0,0,0-37.1-9.206a2.218,2.218,0,0,0-1.942-.988,2.219,2.219,0,0,0-1.934.975,5.028,5.028,0,0,0-.689,2.86v.589A5.15,5.15,0,0,0-40.985-2.9a2.212,2.212,0,0,0,1.959,1.021A2.192,2.192,0,0,0-37.1-2.86a5.12,5.12,0,0,0,.681-2.868ZM-22.6-4.026a4.277,4.277,0,0,1-1.44,3.071A5.058,5.058,0,0,1-27.463.166,4.548,4.548,0,0,1-31.12-1.4a6.416,6.416,0,0,1-1.332-4.3v-.739A7.245,7.245,0,0,1-31.838-9.5a4.6,4.6,0,0,1,1.756-2.038,4.918,4.918,0,0,1,2.652-.71,4.927,4.927,0,0,1,3.37,1.121,4.6,4.6,0,0,1,1.478,3.146h-2.49a2.524,2.524,0,0,0-.652-1.7,2.413,2.413,0,0,0-1.706-.527,2.116,2.116,0,0,0-1.864.892,5,5,0,0,0-.635,2.768v.913a5.352,5.352,0,0,0,.594,2.864,2.077,2.077,0,0,0,1.872.9,2.458,2.458,0,0,0,1.722-.527,2.381,2.381,0,0,0,.652-1.631Zm8.907-1.229h-4.781V-2h5.611V0h-8.1V-12.086h8.085v2.017h-5.595v2.88h4.781ZM-11.4,0V-12.086h3.719a5.647,5.647,0,0,1,2.851.718A5.007,5.007,0,0,1-2.868-9.326a6.3,6.3,0,0,1,.706,3.009v.556a6.316,6.316,0,0,1-.693,3A4.964,4.964,0,0,1-4.81-.73,5.69,5.69,0,0,1-7.657,0Zm2.49-10.069V-2h1.2a2.7,2.7,0,0,0,2.233-.955,4.314,4.314,0,0,0,.789-2.731v-.639a4.382,4.382,0,0,0-.764-2.793,2.7,2.7,0,0,0-2.233-.95ZM2.3,0H-.2V-12.086H2.3ZM7.857-12.086l3.1,8.766,3.088-8.766H17.32V0h-2.5V-3.3l.249-5.7L11.808,0H10.1L6.844-9,7.093-3.3V0H4.6V-12.086ZM22.142,0h-2.49V-12.086h2.49Zm9.579-5.254H26.94V-2h5.611V0h-8.1V-12.086h8.085v2.017H26.94v2.88h4.781ZM43.841,0H41.35L36.5-7.952V0h-2.49V-12.086H36.5l4.856,7.969v-7.969h2.482ZM54.872-10.069h-3.7V0H48.68V-10.069H45.028v-2.017h9.845Zm11.115,4.3a7.3,7.3,0,0,1-.631,3.129A4.751,4.751,0,0,1,63.551-.564a4.994,4.994,0,0,1-2.694.73,5.028,5.028,0,0,1-2.681-.722A4.8,4.8,0,0,1,56.35-2.619,7.087,7.087,0,0,1,55.694-5.7v-.6a7.258,7.258,0,0,1,.643-3.142,4.79,4.79,0,0,1,1.818-2.083,5,5,0,0,1,2.685-.726,5,5,0,0,1,2.685.726,4.79,4.79,0,0,1,1.818,2.083,7.237,7.237,0,0,1,.643,3.134Zm-2.523-.548a5.086,5.086,0,0,0-.681-2.889,2.218,2.218,0,0,0-1.942-.988,2.219,2.219,0,0,0-1.934.975,5.028,5.028,0,0,0-.689,2.86v.589A5.15,5.15,0,0,0,58.9-2.9a2.212,2.212,0,0,0,1.959,1.021,2.192,2.192,0,0,0,1.926-.984,5.12,5.12,0,0,0,.681-2.868ZM-100.767,15.742V20h-2.49V7.914h4.715a5.455,5.455,0,0,1,2.395.5,3.67,3.67,0,0,1,1.59,1.415A3.946,3.946,0,0,1-94,11.915a3.47,3.47,0,0,1-1.216,2.8,5.065,5.065,0,0,1-3.366,1.025Zm0-2.017h2.225a2.187,2.187,0,0,0,1.507-.465,1.691,1.691,0,0,0,.519-1.328A1.994,1.994,0,0,0-97.04,10.5a1.953,1.953,0,0,0-1.444-.564h-2.283Zm12.949,1.851H-89.8V20h-2.49V7.914H-87.8a5.076,5.076,0,0,1,3.3.955,3.3,3.3,0,0,1,1.162,2.7,3.718,3.718,0,0,1-.535,2.063,3.651,3.651,0,0,1-1.623,1.316l2.615,4.939V20h-2.673ZM-89.8,13.559h2.009a2.057,2.057,0,0,0,1.453-.477,1.706,1.706,0,0,0,.515-1.316,1.826,1.826,0,0,0-.486-1.345,2.018,2.018,0,0,0-1.49-.49h-2Zm18.287.672a7.3,7.3,0,0,1-.631,3.129,4.751,4.751,0,0,1-1.805,2.075,4.994,4.994,0,0,1-2.694.73,5.028,5.028,0,0,1-2.681-.722,4.8,4.8,0,0,1-1.826-2.063,7.087,7.087,0,0,1-.656-3.084v-.6a7.258,7.258,0,0,1,.643-3.142,4.79,4.79,0,0,1,1.818-2.083,5,5,0,0,1,2.685-.726,5,5,0,0,1,2.685.726,4.79,4.79,0,0,1,1.818,2.083,7.237,7.237,0,0,1,.643,3.134Zm-2.523-.548a5.086,5.086,0,0,0-.681-2.889,2.218,2.218,0,0,0-1.942-.988,2.219,2.219,0,0,0-1.934.975,5.028,5.028,0,0,0-.689,2.86v.589A5.15,5.15,0,0,0-78.6,17.1a2.212,2.212,0,0,0,1.959,1.021,2.192,2.192,0,0,0,1.926-.984,5.12,5.12,0,0,0,.681-2.868Zm12.725-3.752h-3.7V20h-2.49V9.931h-3.652V7.914h9.845Zm11.115,4.3a7.3,7.3,0,0,1-.631,3.129,4.751,4.751,0,0,1-1.805,2.075,4.994,4.994,0,0,1-2.694.73,5.028,5.028,0,0,1-2.681-.722,4.8,4.8,0,0,1-1.826-2.063,7.087,7.087,0,0,1-.656-3.084v-.6a7.258,7.258,0,0,1,.643-3.142,4.79,4.79,0,0,1,1.818-2.083,5,5,0,0,1,2.685-.726,5,5,0,0,1,2.685.726,4.79,4.79,0,0,1,1.818,2.083,7.237,7.237,0,0,1,.643,3.134Zm-2.523-.548a5.086,5.086,0,0,0-.681-2.889,2.218,2.218,0,0,0-1.942-.988,2.219,2.219,0,0,0-1.934.975,5.028,5.028,0,0,0-.689,2.86v.589a5.15,5.15,0,0,0,.681,2.872,2.212,2.212,0,0,0,1.959,1.021A2.192,2.192,0,0,0-53.4,17.14a5.12,5.12,0,0,0,.681-2.868ZM-38.9,15.974a4.277,4.277,0,0,1-1.44,3.071,5.058,5.058,0,0,1-3.424,1.121A4.548,4.548,0,0,1-47.422,18.6a6.416,6.416,0,0,1-1.332-4.3v-.739A7.245,7.245,0,0,1-48.14,10.5a4.6,4.6,0,0,1,1.756-2.038,4.918,4.918,0,0,1,2.652-.71,4.927,4.927,0,0,1,3.37,1.121,4.6,4.6,0,0,1,1.478,3.146h-2.49a2.524,2.524,0,0,0-.652-1.7,2.413,2.413,0,0,0-1.706-.527,2.116,2.116,0,0,0-1.864.892,5,5,0,0,0-.635,2.768v.913a5.352,5.352,0,0,0,.594,2.864,2.077,2.077,0,0,0,1.872.9,2.458,2.458,0,0,0,1.722-.527,2.381,2.381,0,0,0,.652-1.631Zm11.563-1.743a7.3,7.3,0,0,1-.631,3.129,4.751,4.751,0,0,1-1.805,2.075,4.994,4.994,0,0,1-2.694.73,5.028,5.028,0,0,1-2.681-.722,4.8,4.8,0,0,1-1.826-2.063,7.087,7.087,0,0,1-.656-3.084v-.6a7.258,7.258,0,0,1,.643-3.142A4.79,4.79,0,0,1-35.17,8.474a5,5,0,0,1,2.685-.726,5,5,0,0,1,2.685.726,4.79,4.79,0,0,1,1.818,2.083,7.237,7.237,0,0,1,.643,3.134Zm-2.523-.548a5.086,5.086,0,0,0-.681-2.889,2.218,2.218,0,0,0-1.942-.988,2.219,2.219,0,0,0-1.934.975,5.028,5.028,0,0,0-.689,2.86v.589a5.15,5.15,0,0,0,.681,2.872,2.212,2.212,0,0,0,1.959,1.021,2.192,2.192,0,0,0,1.926-.984,5.12,5.12,0,0,0,.681-2.868ZM-23.039,18h5.288v2h-7.778V7.914h2.49Zm16.112-3.769a7.3,7.3,0,0,1-.631,3.129,4.751,4.751,0,0,1-1.805,2.075,4.994,4.994,0,0,1-2.694.73,5.028,5.028,0,0,1-2.681-.722,4.8,4.8,0,0,1-1.826-2.063A7.087,7.087,0,0,1-17.22,14.3v-.6a7.258,7.258,0,0,1,.643-3.142,4.79,4.79,0,0,1,1.818-2.083,5,5,0,0,1,2.685-.726,5,5,0,0,1,2.685.726A4.79,4.79,0,0,1-7.57,10.558a7.237,7.237,0,0,1,.643,3.134Zm-2.523-.548a5.086,5.086,0,0,0-.681-2.889,2.218,2.218,0,0,0-1.942-.988,2.219,2.219,0,0,0-1.934.975,5.028,5.028,0,0,0-.689,2.86v.589a5.15,5.15,0,0,0,.681,2.872,2.212,2.212,0,0,0,1.959,1.021,2.192,2.192,0,0,0,1.926-.984,5.12,5.12,0,0,0,.681-2.868ZM-.884,20V7.914H2.835a5.647,5.647,0,0,1,2.851.718,5.007,5.007,0,0,1,1.963,2.042,6.3,6.3,0,0,1,.706,3.009v.556a6.316,6.316,0,0,1-.693,3A4.964,4.964,0,0,1,5.707,19.27,5.69,5.69,0,0,1,2.86,20ZM1.606,9.931V18h1.2a2.7,2.7,0,0,0,2.233-.955,4.314,4.314,0,0,0,.789-2.731v-.639a4.382,4.382,0,0,0-.764-2.793,2.7,2.7,0,0,0-2.233-.95Zm15.83,4.814H12.655V18h5.611v2h-8.1V7.914h8.085V9.931H12.655v2.88h4.781Zm16.012,1.229a4.277,4.277,0,0,1-1.44,3.071,5.058,5.058,0,0,1-3.424,1.121A4.548,4.548,0,0,1,24.927,18.6a6.416,6.416,0,0,1-1.332-4.3v-.739a7.245,7.245,0,0,1,.614-3.071,4.6,4.6,0,0,1,1.756-2.038,4.918,4.918,0,0,1,2.652-.71,4.927,4.927,0,0,1,3.37,1.121,4.6,4.6,0,0,1,1.478,3.146h-2.49a2.524,2.524,0,0,0-.652-1.7,2.413,2.413,0,0,0-1.706-.527,2.116,2.116,0,0,0-1.864.892,5,5,0,0,0-.635,2.768v.913a5.352,5.352,0,0,0,.594,2.864,2.077,2.077,0,0,0,1.872.9,2.458,2.458,0,0,0,1.722-.527,2.381,2.381,0,0,0,.652-1.631Zm11.563-1.743a7.3,7.3,0,0,1-.631,3.129,4.751,4.751,0,0,1-1.805,2.075,5.335,5.335,0,0,1-5.375.008,4.8,4.8,0,0,1-1.826-2.063,7.087,7.087,0,0,1-.656-3.084v-.6a7.258,7.258,0,0,1,.643-3.142,4.79,4.79,0,0,1,1.818-2.083,5.327,5.327,0,0,1,5.371,0,4.79,4.79,0,0,1,1.818,2.083,7.237,7.237,0,0,1,.643,3.134Zm-2.523-.548a5.086,5.086,0,0,0-.681-2.889,2.4,2.4,0,0,0-3.876-.012,5.028,5.028,0,0,0-.689,2.86v.589a5.15,5.15,0,0,0,.681,2.872,2.383,2.383,0,0,0,3.885.037,5.12,5.12,0,0,0,.681-2.868Zm7.587-5.769,3.1,8.766,3.088-8.766h3.271V20h-2.5V16.7l.249-5.7L54.026,20h-1.71l-3.254-9,.249,5.694V20h-2.49V7.914ZM64.2,15.742V20h-2.49V7.914h4.715a5.455,5.455,0,0,1,2.395.5,3.67,3.67,0,0,1,1.59,1.415,3.946,3.946,0,0,1,.556,2.088,3.47,3.47,0,0,1-1.216,2.8,5.065,5.065,0,0,1-3.366,1.025Zm0-2.017h2.225a2.187,2.187,0,0,0,1.507-.465,1.691,1.691,0,0,0,.519-1.328,1.994,1.994,0,0,0-.523-1.436,1.953,1.953,0,0,0-1.444-.564H64.2Zm12.949,1.851H75.168V20h-2.49V7.914h4.491a5.076,5.076,0,0,1,3.3.955,3.3,3.3,0,0,1,1.162,2.7,3.718,3.718,0,0,1-.535,2.063,3.651,3.651,0,0,1-1.623,1.316l2.615,4.939V20H79.418Zm-1.984-2.017h2.009a2.057,2.057,0,0,0,1.453-.477,1.706,1.706,0,0,0,.515-1.316,1.826,1.826,0,0,0-.486-1.345,2.018,2.018,0,0,0-1.49-.49h-2ZM90.35,17.51H85.984L85.154,20H82.506L87,7.914h2.308L93.836,20H91.188Zm-3.694-2.017h3.021l-1.519-4.524Zm14.576,1.336a1.278,1.278,0,0,0-.5-1.083,6.533,6.533,0,0,0-1.793-.8,12.71,12.71,0,0,1-2.05-.826,3.35,3.35,0,0,1-2.059-3,2.919,2.919,0,0,1,.552-1.747,3.6,3.6,0,0,1,1.585-1.2,5.967,5.967,0,0,1,2.32-.432,5.432,5.432,0,0,1,2.308.469,3.674,3.674,0,0,1,1.573,1.324,3.464,3.464,0,0,1,.56,1.942h-2.49a1.63,1.63,0,0,0-.523-1.291,2.15,2.15,0,0,0-1.469-.461,2.3,2.3,0,0,0-1.419.386,1.217,1.217,0,0,0-.506,1.017,1.166,1.166,0,0,0,.594.988,6.705,6.705,0,0,0,1.747.747,7.55,7.55,0,0,1,3.1,1.585,3.157,3.157,0,0,1,.971,2.357,2.909,2.909,0,0,1-1.187,2.461,5.2,5.2,0,0,1-3.2.892,6.171,6.171,0,0,1-2.54-.51,4.019,4.019,0,0,1-1.747-1.4,3.582,3.582,0,0,1-.6-2.059h2.5q0,2,2.391,2a2.326,2.326,0,0,0,1.386-.361A1.175,1.175,0,0,0,101.232,16.829Z" transform="translate(651.129 704.573)" fill="#1b3f5e"/>
    <path id="Trazado_218198" data-name="Trazado 218198" d="M15,0H216.384a15,15,0,0,1,15,15V59.714a15,15,0,0,1-15,15H15a15,15,0,0,1-15-15V15A15,15,0,0,1,15,0Z" transform="translate(826.125 672.007)" fill="#f0f8ff" stroke="#1b3f5e" stroke-width="3"/>
    <path id="Trazado_218199" data-name="Trazado 218199" d="M-55.034-4.258V0h-2.49V-12.086h4.715a5.455,5.455,0,0,1,2.395.5,3.67,3.67,0,0,1,1.59,1.415,3.946,3.946,0,0,1,.556,2.088,3.47,3.47,0,0,1-1.216,2.8,5.065,5.065,0,0,1-3.366,1.025Zm0-2.017h2.225A2.187,2.187,0,0,0-51.3-6.74a1.691,1.691,0,0,0,.519-1.328A1.994,1.994,0,0,0-51.307-9.5a1.953,1.953,0,0,0-1.444-.564h-2.283Zm12.949,1.851h-1.984V0h-2.49V-12.086h4.491a5.076,5.076,0,0,1,3.3.955,3.3,3.3,0,0,1,1.162,2.7,3.718,3.718,0,0,1-.535,2.063,3.651,3.651,0,0,1-1.623,1.316l2.615,4.939V0h-2.673Zm-1.984-2.017h2.009a2.057,2.057,0,0,0,1.453-.477,1.706,1.706,0,0,0,.515-1.316,1.826,1.826,0,0,0-.486-1.345,2.018,2.018,0,0,0-1.49-.49h-2Zm15.63,1.187H-33.22V-2h5.611V0h-8.1V-12.086h8.085v2.017H-33.22v2.88h4.781Zm8.558,2.083a1.278,1.278,0,0,0-.5-1.083,6.533,6.533,0,0,0-1.793-.8,12.71,12.71,0,0,1-2.05-.826,3.35,3.35,0,0,1-2.059-3,2.919,2.919,0,0,1,.552-1.747,3.6,3.6,0,0,1,1.585-1.2,5.967,5.967,0,0,1,2.32-.432,5.432,5.432,0,0,1,2.308.469,3.674,3.674,0,0,1,1.573,1.324,3.464,3.464,0,0,1,.56,1.942h-2.49A1.63,1.63,0,0,0-20.4-9.807a2.15,2.15,0,0,0-1.469-.461,2.3,2.3,0,0,0-1.419.386,1.217,1.217,0,0,0-.506,1.017,1.166,1.166,0,0,0,.594.988,6.705,6.705,0,0,0,1.747.747,7.55,7.55,0,0,1,3.1,1.585,3.157,3.157,0,0,1,.971,2.357A2.909,2.909,0,0,1-18.569-.726a5.2,5.2,0,0,1-3.2.892,6.171,6.171,0,0,1-2.54-.51,4.019,4.019,0,0,1-1.747-1.4,3.582,3.582,0,0,1-.6-2.059h2.5q0,2,2.391,2a2.326,2.326,0,0,0,1.386-.361A1.175,1.175,0,0,0-19.88-3.171Zm13.331-8.915v7.96A4.076,4.076,0,0,1-7.79-.988,4.784,4.784,0,0,1-11.181.166,4.838,4.838,0,0,1-14.543-.955a4.006,4.006,0,0,1-1.27-3.08v-8.052h2.49v7.977a2.3,2.3,0,0,0,.569,1.731,2.183,2.183,0,0,0,1.573.544q2.1,0,2.133-2.208v-8.043Zm4.532,7.828V0h-2.49V-12.086H.208a5.455,5.455,0,0,1,2.395.5,3.67,3.67,0,0,1,1.59,1.415,3.946,3.946,0,0,1,.556,2.088,3.47,3.47,0,0,1-1.216,2.8A5.065,5.065,0,0,1,.166-4.258Zm0-2.017H.208A2.187,2.187,0,0,0,1.714-6.74a1.691,1.691,0,0,0,.519-1.328A1.994,1.994,0,0,0,1.71-9.5a1.953,1.953,0,0,0-1.444-.564H-2.017Zm17.623-5.811v7.96A4.076,4.076,0,0,1,14.365-.988,4.784,4.784,0,0,1,10.974.166,4.838,4.838,0,0,1,7.612-.955a4.006,4.006,0,0,1-1.27-3.08v-8.052h2.49v7.977A2.3,2.3,0,0,0,9.4-2.378a2.183,2.183,0,0,0,1.573.544q2.1,0,2.133-2.208v-8.043Zm9.313,6.832H20.138V-2h5.611V0h-8.1V-12.086h8.085v2.017H20.138v2.88h4.781Zm8.558,2.083a1.278,1.278,0,0,0-.5-1.083,6.533,6.533,0,0,0-1.793-.8,12.71,12.71,0,0,1-2.05-.826,3.35,3.35,0,0,1-2.059-3,2.919,2.919,0,0,1,.552-1.747,3.6,3.6,0,0,1,1.585-1.2,5.967,5.967,0,0,1,2.32-.432,5.432,5.432,0,0,1,2.308.469,3.674,3.674,0,0,1,1.573,1.324,3.464,3.464,0,0,1,.56,1.942h-2.49a1.63,1.63,0,0,0-.523-1.291,2.15,2.15,0,0,0-1.469-.461,2.3,2.3,0,0,0-1.419.386,1.217,1.217,0,0,0-.506,1.017,1.166,1.166,0,0,0,.594.988,6.705,6.705,0,0,0,1.747.747A7.55,7.55,0,0,1,35-5.545a3.157,3.157,0,0,1,.971,2.357A2.909,2.909,0,0,1,34.789-.726a5.2,5.2,0,0,1-3.2.892,6.171,6.171,0,0,1-2.54-.51,4.019,4.019,0,0,1-1.747-1.4A3.582,3.582,0,0,1,26.7-3.8h2.5q0,2,2.391,2a2.326,2.326,0,0,0,1.386-.361A1.175,1.175,0,0,0,33.477-3.171Zm13.281-6.9h-3.7V0h-2.49V-10.069H36.914v-2.017h9.845Zm11.115,4.3a7.3,7.3,0,0,1-.631,3.129A4.751,4.751,0,0,1,55.437-.564a4.994,4.994,0,0,1-2.694.73,5.028,5.028,0,0,1-2.681-.722,4.8,4.8,0,0,1-1.826-2.063A7.087,7.087,0,0,1,47.58-5.7v-.6a7.258,7.258,0,0,1,.643-3.142,4.79,4.79,0,0,1,1.818-2.083,5,5,0,0,1,2.685-.726,5,5,0,0,1,2.685.726A4.79,4.79,0,0,1,57.23-9.442a7.237,7.237,0,0,1,.643,3.134ZM55.35-6.317a5.086,5.086,0,0,0-.681-2.889,2.218,2.218,0,0,0-1.942-.988,2.219,2.219,0,0,0-1.934.975,5.028,5.028,0,0,0-.689,2.86v.589A5.15,5.15,0,0,0,50.784-2.9a2.212,2.212,0,0,0,1.959,1.021,2.192,2.192,0,0,0,1.926-.984,5.12,5.12,0,0,0,.681-2.868Z" transform="translate(939.429 715.064)" fill="#1b3f5e"/>
    <path id="Trazado_218200" data-name="Trazado 218200" d="M15,0H216.384a15,15,0,0,1,15,15V59.714a15,15,0,0,1-15,15H15a15,15,0,0,1-15-15V15A15,15,0,0,1,15,0Z" transform="translate(1072.901 672.007)" fill="#f0f8ff" stroke="#1b3f5e" stroke-width="3"/>
    <path id="Trazado_218201" data-name="Trazado 218201" d="M-48.331-4.026a4.277,4.277,0,0,1-1.44,3.071A5.058,5.058,0,0,1-53.2.166,4.548,4.548,0,0,1-56.852-1.4a6.416,6.416,0,0,1-1.332-4.3v-.739A7.245,7.245,0,0,1-57.57-9.5a4.6,4.6,0,0,1,1.756-2.038,4.918,4.918,0,0,1,2.652-.71,4.927,4.927,0,0,1,3.37,1.121,4.6,4.6,0,0,1,1.478,3.146H-50.8a2.524,2.524,0,0,0-.652-1.7,2.413,2.413,0,0,0-1.706-.527,2.116,2.116,0,0,0-1.864.892,5,5,0,0,0-.635,2.768v.913a5.352,5.352,0,0,0,.594,2.864,2.077,2.077,0,0,0,1.872.9,2.458,2.458,0,0,0,1.722-.527,2.381,2.381,0,0,0,.652-1.631Zm6.109-.4h-1.984V0H-46.7V-12.086h4.491a5.076,5.076,0,0,1,3.3.955,3.3,3.3,0,0,1,1.162,2.7,3.718,3.718,0,0,1-.535,2.063A3.651,3.651,0,0,1-39.9-5.055l2.615,4.939V0h-2.673Zm-1.984-2.017H-42.2a2.057,2.057,0,0,0,1.453-.477,1.706,1.706,0,0,0,.515-1.316,1.826,1.826,0,0,0-.486-1.345,2.018,2.018,0,0,0-1.49-.49h-2Zm18.287.672A7.3,7.3,0,0,1-26.55-2.64,4.751,4.751,0,0,1-28.355-.564a4.994,4.994,0,0,1-2.694.73A5.028,5.028,0,0,1-33.73-.556a4.8,4.8,0,0,1-1.826-2.063A7.087,7.087,0,0,1-36.212-5.7v-.6a7.258,7.258,0,0,1,.643-3.142,4.79,4.79,0,0,1,1.818-2.083,5,5,0,0,1,2.685-.726,5,5,0,0,1,2.685.726,4.79,4.79,0,0,1,1.818,2.083,7.237,7.237,0,0,1,.643,3.134Zm-2.523-.548a5.086,5.086,0,0,0-.681-2.889,2.218,2.218,0,0,0-1.942-.988A2.219,2.219,0,0,0-33-9.218a5.028,5.028,0,0,0-.689,2.86v.589A5.15,5.15,0,0,0-33.008-2.9a2.212,2.212,0,0,0,1.959,1.021,2.192,2.192,0,0,0,1.926-.984,5.12,5.12,0,0,0,.681-2.868ZM-14.281,0h-2.49l-4.848-7.952V0h-2.49V-12.086h2.49l4.856,7.969v-7.969h2.482Zm12.1-5.769A7.3,7.3,0,0,1-2.81-2.64,4.751,4.751,0,0,1-4.615-.564a4.994,4.994,0,0,1-2.694.73A5.028,5.028,0,0,1-9.99-.556a4.8,4.8,0,0,1-1.826-2.063A7.087,7.087,0,0,1-12.472-5.7v-.6a7.258,7.258,0,0,1,.643-3.142,4.79,4.79,0,0,1,1.818-2.083,5,5,0,0,1,2.685-.726,5,5,0,0,1,2.685.726A4.79,4.79,0,0,1-2.822-9.442a7.237,7.237,0,0,1,.643,3.134ZM-4.7-6.317a5.086,5.086,0,0,0-.681-2.889,2.218,2.218,0,0,0-1.942-.988,2.219,2.219,0,0,0-1.934.975,5.028,5.028,0,0,0-.689,2.86v.589A5.15,5.15,0,0,0-9.268-2.9,2.212,2.212,0,0,0-7.309-1.876,2.192,2.192,0,0,0-5.383-2.86,5.12,5.12,0,0,0-4.7-5.728Zm13.9,4.79a4.322,4.322,0,0,1-1.9,1.249A7.961,7.961,0,0,1,4.57.166,5.393,5.393,0,0,1,1.818-.519,4.568,4.568,0,0,1-.008-2.507,7,7,0,0,1-.668-5.57v-.822a7.431,7.431,0,0,1,.61-3.134A4.513,4.513,0,0,1,1.7-11.551a5.069,5.069,0,0,1,2.694-.7,5.048,5.048,0,0,1,3.362,1.025A4.381,4.381,0,0,1,9.193-8.243H6.769a2.41,2.41,0,0,0-.735-1.519,2.346,2.346,0,0,0-1.565-.481,2.208,2.208,0,0,0-1.934.955A5.02,5.02,0,0,0,1.864-6.45v.772a4.778,4.778,0,0,0,.722,2.872A2.473,2.473,0,0,0,4.7-1.834a2.762,2.762,0,0,0,2-.6V-4.516H4.437V-6.35H9.193Zm6.491-2.9H13.7V0H11.21V-12.086H15.7a5.076,5.076,0,0,1,3.3.955,3.3,3.3,0,0,1,1.162,2.7,3.718,3.718,0,0,1-.535,2.063,3.651,3.651,0,0,1-1.623,1.316L20.623-.116V0H17.95ZM13.7-6.441h2.009a2.057,2.057,0,0,0,1.453-.477,1.706,1.706,0,0,0,.515-1.316,1.826,1.826,0,0,0-.486-1.345,2.018,2.018,0,0,0-1.49-.49h-2ZM28.883-2.49H24.516L23.686,0H21.038l4.5-12.086h2.308L32.369,0H29.721ZM25.189-4.507H28.21L26.691-9.031Zm11.563-7.579,3.1,8.766,3.088-8.766h3.271V0h-2.5V-3.3l.249-5.7L40.7,0h-1.71L35.739-9,35.988-3.3V0H33.5V-12.086Zm18.61,9.6H51L50.166,0H47.518l4.5-12.086h2.308L58.848,0H56.2ZM51.668-4.507H54.69L53.171-9.031Z" transform="translate(1186.938 715.064)" fill="#1b3f5e"/>
    <path id="Trazado_218202" data-name="Trazado 218202" d="M15,0H216.384a15,15,0,0,1,15,15V59.714a15,15,0,0,1-15,15H15a15,15,0,0,1-15-15V15A15,15,0,0,1,15,0Z" transform="translate(284 851.866)" fill="#f0f8ff" stroke="#1b3f5e" stroke-width="3"/>
    <path id="Trazado_218203" data-name="Trazado 218203" d="M-63.862-2.49h-4.366L-69.058,0h-2.648l4.5-12.086H-64.9L-60.376,0h-2.648Zm-3.694-2.017h3.021l-1.519-4.524ZM-59.247,0V-12.086h4.233a5.559,5.559,0,0,1,3.337.843,2.881,2.881,0,0,1,1.137,2.469A2.731,2.731,0,0,1-51-7.209a2.637,2.637,0,0,1-1.27.992,2.551,2.551,0,0,1,1.465.938,2.773,2.773,0,0,1,.535,1.727,3.19,3.19,0,0,1-1.112,2.64A5.007,5.007,0,0,1-54.549,0Zm2.49-5.263V-2h2.133A2.059,2.059,0,0,0-53.25-2.42a1.437,1.437,0,0,0,.494-1.158,1.518,1.518,0,0,0-1.718-1.685Zm0-1.76h1.843q1.884-.033,1.884-1.5a1.388,1.388,0,0,0-.477-1.183,2.51,2.51,0,0,0-1.507-.361h-1.743ZM-41.574-2.49h-4.366L-46.771,0h-2.648l4.5-12.086h2.308L-38.088,0h-2.648Zm-3.694-2.017h3.021l-1.519-4.524Zm14.576,1.336a1.278,1.278,0,0,0-.5-1.083,6.533,6.533,0,0,0-1.793-.8,12.71,12.71,0,0,1-2.05-.826,3.35,3.35,0,0,1-2.059-3,2.919,2.919,0,0,1,.552-1.747,3.6,3.6,0,0,1,1.585-1.2,5.967,5.967,0,0,1,2.32-.432,5.432,5.432,0,0,1,2.308.469,3.674,3.674,0,0,1,1.573,1.324,3.464,3.464,0,0,1,.56,1.942h-2.49a1.63,1.63,0,0,0-.523-1.291,2.15,2.15,0,0,0-1.469-.461,2.3,2.3,0,0,0-1.419.386A1.217,1.217,0,0,0-34.6-8.865a1.166,1.166,0,0,0,.594.988,6.705,6.705,0,0,0,1.747.747,7.55,7.55,0,0,1,3.1,1.585,3.157,3.157,0,0,1,.971,2.357A2.909,2.909,0,0,1-29.381-.726a5.2,5.2,0,0,1-3.2.892,6.171,6.171,0,0,1-2.54-.51,4.019,4.019,0,0,1-1.747-1.4,3.582,3.582,0,0,1-.6-2.059h2.5q0,2,2.391,2a2.326,2.326,0,0,0,1.386-.361A1.175,1.175,0,0,0-30.692-3.171Zm13.281-6.9h-3.7V0H-23.6V-10.069h-3.652v-2.017h9.845ZM-8.72-5.254H-13.5V-2H-7.89V0h-8.1V-12.086h8.085v2.017H-13.5v2.88H-8.72ZM3.059-4.026A4.277,4.277,0,0,1,1.619-.955,5.058,5.058,0,0,1-1.805.166,4.548,4.548,0,0,1-5.462-1.4a6.416,6.416,0,0,1-1.332-4.3v-.739A7.245,7.245,0,0,1-6.18-9.5a4.6,4.6,0,0,1,1.756-2.038,4.918,4.918,0,0,1,2.652-.71A4.927,4.927,0,0,1,1.6-11.131,4.6,4.6,0,0,1,3.075-7.985H.585a2.524,2.524,0,0,0-.652-1.7,2.413,2.413,0,0,0-1.706-.527,2.116,2.116,0,0,0-1.864.892,5,5,0,0,0-.635,2.768v.913a5.352,5.352,0,0,0,.594,2.864,2.077,2.077,0,0,0,1.872.9A2.458,2.458,0,0,0-.083-2.395,2.381,2.381,0,0,0,.569-4.026ZM7.342,0H4.852V-12.086h2.49ZM12.9-12.086l3.1,8.766L19.1-12.086h3.271V0h-2.5V-3.3l.249-5.7L16.855,0h-1.71L11.891-9,12.14-3.3V0H9.65V-12.086ZM27.189,0H24.7V-12.086h2.49Zm9.579-5.254H31.987V-2H37.6V0H29.5V-12.086h8.085v2.017H31.987v2.88h4.781ZM48.887,0H46.4L41.55-7.952V0h-2.49V-12.086h2.49l4.856,7.969v-7.969h2.482ZM59.919-10.069h-3.7V0h-2.49V-10.069H50.074v-2.017h9.845Zm11.115,4.3A7.3,7.3,0,0,1,70.4-2.64,4.751,4.751,0,0,1,68.6-.564,4.994,4.994,0,0,1,65.9.166a5.028,5.028,0,0,1-2.681-.722A4.8,4.8,0,0,1,61.4-2.619,7.087,7.087,0,0,1,60.741-5.7v-.6a7.258,7.258,0,0,1,.643-3.142A4.79,4.79,0,0,1,63.2-11.526a5,5,0,0,1,2.685-.726,5,5,0,0,1,2.685.726,4.79,4.79,0,0,1,1.818,2.083,7.237,7.237,0,0,1,.643,3.134ZM68.51-6.317a5.086,5.086,0,0,0-.681-2.889,2.218,2.218,0,0,0-1.942-.988,2.219,2.219,0,0,0-1.934.975,5.028,5.028,0,0,0-.689,2.86v.589A5.15,5.15,0,0,0,63.945-2.9,2.212,2.212,0,0,0,65.9-1.876,2.192,2.192,0,0,0,67.83-2.86a5.12,5.12,0,0,0,.681-2.868Z" transform="translate(403.798 894.925)" fill="#1b3f5e"/>
    <path id="Trazado_218204" data-name="Trazado 218204" d="M15,0H216.384a15,15,0,0,1,15,15V59.714a15,15,0,0,1-15,15H15a15,15,0,0,1-15-15V15A15,15,0,0,1,15,0Z" transform="translate(550.205 851.866)" fill="#f0f8ff" stroke="#1b3f5e" stroke-width="3"/>
    <path id="Trazado_218205" data-name="Trazado 218205" d="M-66.464-10.069h-3.7V0h-2.49V-10.069h-3.652v-2.017h9.845Zm5.894,5.645h-1.984V0h-2.49V-12.086h4.491a5.076,5.076,0,0,1,3.3.955,3.3,3.3,0,0,1,1.162,2.7,3.718,3.718,0,0,1-.535,2.063,3.651,3.651,0,0,1-1.623,1.316l2.615,4.939V0H-58.3Zm-1.984-2.017h2.009a2.057,2.057,0,0,0,1.453-.477,1.706,1.706,0,0,0,.515-1.316,1.826,1.826,0,0,0-.486-1.345,2.018,2.018,0,0,0-1.49-.49h-2ZM-47.373-2.49h-4.366L-52.569,0h-2.648l4.5-12.086h2.308L-43.886,0h-2.648Zm-3.694-2.017h3.021l-1.519-4.524ZM-32.929,0h-2.49l-4.848-7.952V0h-2.49V-12.086h2.49l4.856,7.969v-7.969h2.482Zm8.442-3.171a1.278,1.278,0,0,0-.5-1.083,6.533,6.533,0,0,0-1.793-.8,12.71,12.71,0,0,1-2.05-.826,3.35,3.35,0,0,1-2.059-3,2.919,2.919,0,0,1,.552-1.747,3.6,3.6,0,0,1,1.585-1.2,5.967,5.967,0,0,1,2.32-.432,5.432,5.432,0,0,1,2.308.469,3.674,3.674,0,0,1,1.573,1.324,3.464,3.464,0,0,1,.56,1.942h-2.49A1.63,1.63,0,0,0-25-9.807a2.15,2.15,0,0,0-1.469-.461,2.3,2.3,0,0,0-1.419.386A1.217,1.217,0,0,0-28.4-8.865a1.166,1.166,0,0,0,.594.988,6.705,6.705,0,0,0,1.747.747,7.55,7.55,0,0,1,3.1,1.585,3.157,3.157,0,0,1,.971,2.357A2.909,2.909,0,0,1-23.176-.726a5.2,5.2,0,0,1-3.2.892,6.171,6.171,0,0,1-2.54-.51,4.019,4.019,0,0,1-1.747-1.4,3.582,3.582,0,0,1-.6-2.059h2.5q0,2,2.391,2a2.326,2.326,0,0,0,1.386-.361A1.175,1.175,0,0,0-24.487-3.171Zm11.455-1.768h-4.781V0H-20.3V-12.086h7.869v2.017h-5.379v3.121h4.781Zm11.97-.83A7.3,7.3,0,0,1-1.693-2.64,4.751,4.751,0,0,1-3.5-.564a4.994,4.994,0,0,1-2.694.73A5.028,5.028,0,0,1-8.874-.556,4.8,4.8,0,0,1-10.7-2.619,7.087,7.087,0,0,1-11.355-5.7v-.6a7.258,7.258,0,0,1,.643-3.142,4.79,4.79,0,0,1,1.818-2.083,5,5,0,0,1,2.685-.726,5,5,0,0,1,2.685.726A4.79,4.79,0,0,1-1.706-9.442a7.237,7.237,0,0,1,.643,3.134Zm-2.523-.548a5.086,5.086,0,0,0-.681-2.889,2.218,2.218,0,0,0-1.942-.988,2.219,2.219,0,0,0-1.934.975,5.028,5.028,0,0,0-.689,2.86v.589A5.15,5.15,0,0,0-8.151-2.9,2.212,2.212,0,0,0-6.192-1.876,2.192,2.192,0,0,0-4.267-2.86a5.12,5.12,0,0,0,.681-2.868ZM5.221-4.424H3.237V0H.747V-12.086H5.238a5.076,5.076,0,0,1,3.3.955A3.3,3.3,0,0,1,9.7-8.434a3.718,3.718,0,0,1-.535,2.063A3.651,3.651,0,0,1,7.545-5.055L10.16-.116V0H7.487ZM3.237-6.441H5.246A2.057,2.057,0,0,0,6.7-6.919a1.706,1.706,0,0,0,.515-1.316,1.826,1.826,0,0,0-.486-1.345,2.018,2.018,0,0,0-1.49-.49h-2ZM14.85-12.086l3.1,8.766,3.088-8.766h3.271V0h-2.5V-3.3l.249-5.7L18.8,0h-1.71L13.837-9,14.086-3.3V0H11.6V-12.086Zm18.61,9.6H29.094L28.264,0H25.616l4.5-12.086h2.308L36.947,0H34.3ZM29.767-4.507h3.021L31.269-9.031Zm17.623.481a4.277,4.277,0,0,1-1.44,3.071A5.058,5.058,0,0,1,42.525.166,4.548,4.548,0,0,1,38.868-1.4a6.416,6.416,0,0,1-1.332-4.3v-.739A7.245,7.245,0,0,1,38.15-9.5a4.6,4.6,0,0,1,1.756-2.038,4.918,4.918,0,0,1,2.652-.71,4.927,4.927,0,0,1,3.37,1.121,4.6,4.6,0,0,1,1.478,3.146h-2.49a2.524,2.524,0,0,0-.652-1.7,2.413,2.413,0,0,0-1.706-.527,2.116,2.116,0,0,0-1.864.892,5,5,0,0,0-.635,2.768v.913a5.352,5.352,0,0,0,.594,2.864,2.077,2.077,0,0,0,1.872.9,2.458,2.458,0,0,0,1.722-.527A2.381,2.381,0,0,0,44.9-4.026ZM51.672,0h-2.49V-12.086h2.49ZM63.908-5.769a7.3,7.3,0,0,1-.631,3.129A4.751,4.751,0,0,1,61.471-.564a4.994,4.994,0,0,1-2.694.73A5.028,5.028,0,0,1,56.1-.556a4.8,4.8,0,0,1-1.826-2.063A7.087,7.087,0,0,1,53.615-5.7v-.6a7.258,7.258,0,0,1,.643-3.142,4.79,4.79,0,0,1,1.818-2.083,5,5,0,0,1,2.685-.726,5,5,0,0,1,2.685.726,4.79,4.79,0,0,1,1.818,2.083,7.237,7.237,0,0,1,.643,3.134Zm-2.523-.548A5.086,5.086,0,0,0,60.7-9.206a2.218,2.218,0,0,0-1.942-.988,2.219,2.219,0,0,0-1.934.975,5.028,5.028,0,0,0-.689,2.86v.589A5.15,5.15,0,0,0,56.819-2.9a2.212,2.212,0,0,0,1.959,1.021A2.192,2.192,0,0,0,60.7-2.86a5.12,5.12,0,0,0,.681-2.868Zm-2.142-9.006h2.615l-2.3,2.573H57.607ZM75.545,0h-2.49L68.208-7.952V0h-2.49V-12.086h2.49l4.856,7.969v-7.969h2.482Z" transform="translate(661.987 896.674)" fill="#1b3f5e"/>
    <path id="Trazado_218206" data-name="Trazado 218206" d="M15,0H216.384a15,15,0,0,1,15,15V59.714a15,15,0,0,1-15,15H15a15,15,0,0,1-15-15V15A15,15,0,0,1,15,0Z" transform="translate(816.41 851.866)" fill="#f0f8ff" stroke="#1b3f5e" stroke-width="3"/>
    <path id="Trazado_218207" data-name="Trazado 218207" d="M-93.475-1.527a4.322,4.322,0,0,1-1.9,1.249A7.961,7.961,0,0,1-98.1.166a5.393,5.393,0,0,1-2.752-.685,4.568,4.568,0,0,1-1.826-1.988,7,7,0,0,1-.66-3.063v-.822a7.431,7.431,0,0,1,.61-3.134,4.513,4.513,0,0,1,1.76-2.025,5.069,5.069,0,0,1,2.694-.7,5.048,5.048,0,0,1,3.362,1.025,4.381,4.381,0,0,1,1.436,2.984H-95.9a2.41,2.41,0,0,0-.735-1.519,2.346,2.346,0,0,0-1.565-.481,2.208,2.208,0,0,0-1.934.955A5.019,5.019,0,0,0-100.8-6.45v.772a4.778,4.778,0,0,0,.722,2.872,2.473,2.473,0,0,0,2.117.971,2.762,2.762,0,0,0,2-.6V-4.516h-2.266V-6.35h4.756Zm9.289-3.727h-4.781V-2h5.611V0h-8.1V-12.086h8.085v2.017h-5.595v2.88h4.781Zm8.558,2.083a1.278,1.278,0,0,0-.5-1.083,6.533,6.533,0,0,0-1.793-.8,12.71,12.71,0,0,1-2.05-.826,3.35,3.35,0,0,1-2.059-3,2.919,2.919,0,0,1,.552-1.747,3.6,3.6,0,0,1,1.585-1.2,5.967,5.967,0,0,1,2.32-.432,5.432,5.432,0,0,1,2.308.469,3.674,3.674,0,0,1,1.573,1.324,3.464,3.464,0,0,1,.56,1.942h-2.49a1.63,1.63,0,0,0-.523-1.291,2.15,2.15,0,0,0-1.469-.461,2.3,2.3,0,0,0-1.419.386,1.217,1.217,0,0,0-.506,1.017,1.166,1.166,0,0,0,.594.988A6.705,6.705,0,0,0-77.2-7.13a7.55,7.55,0,0,1,3.1,1.585,3.157,3.157,0,0,1,.971,2.357A2.909,2.909,0,0,1-74.317-.726a5.2,5.2,0,0,1-3.2.892,6.171,6.171,0,0,1-2.54-.51,4.019,4.019,0,0,1-1.747-1.4A3.582,3.582,0,0,1-82.4-3.8h2.5q0,2,2.391,2a2.326,2.326,0,0,0,1.386-.361A1.175,1.175,0,0,0-75.628-3.171Zm13.281-6.9h-3.7V0h-2.49V-10.069h-3.652v-2.017h9.845ZM-58.28,0h-2.49V-12.086h2.49Zm12.235-5.769a7.3,7.3,0,0,1-.631,3.129A4.751,4.751,0,0,1-48.481-.564a4.994,4.994,0,0,1-2.694.73,5.028,5.028,0,0,1-2.681-.722,4.8,4.8,0,0,1-1.826-2.063A7.087,7.087,0,0,1-56.337-5.7v-.6a7.258,7.258,0,0,1,.643-3.142,4.79,4.79,0,0,1,1.818-2.083,5,5,0,0,1,2.685-.726,5,5,0,0,1,2.685.726,4.79,4.79,0,0,1,1.818,2.083,7.237,7.237,0,0,1,.643,3.134Zm-2.523-.548a5.086,5.086,0,0,0-.681-2.889,2.218,2.218,0,0,0-1.942-.988,2.219,2.219,0,0,0-1.934.975,5.028,5.028,0,0,0-.689,2.86v.589A5.15,5.15,0,0,0-53.133-2.9a2.212,2.212,0,0,0,1.959,1.021,2.192,2.192,0,0,0,1.926-.984,5.12,5.12,0,0,0,.681-2.868Zm-2.142-9.006h2.615l-2.3,2.573h-1.951ZM-34.407,0H-36.9l-4.848-7.952V0h-2.49V-12.086h2.49l4.856,7.969v-7.969h2.482ZM-28,0V-12.086h3.719a5.647,5.647,0,0,1,2.851.718,5.007,5.007,0,0,1,1.963,2.042,6.3,6.3,0,0,1,.706,3.009v.556a6.316,6.316,0,0,1-.693,3A4.964,4.964,0,0,1-21.408-.73,5.69,5.69,0,0,1-24.255,0Zm2.49-10.069V-2h1.2a2.7,2.7,0,0,0,2.233-.955,4.314,4.314,0,0,0,.789-2.731v-.639a4.382,4.382,0,0,0-.764-2.793,2.7,2.7,0,0,0-2.233-.95Zm15.83,4.814H-14.46V-2h5.611V0h-8.1V-12.086h8.085v2.017H-14.46v2.88h4.781ZM-.506,0H-3V-12.086h2.49ZM11.629,0H9.139L4.292-7.952V0H1.8V-12.086h2.49L9.147-4.117v-7.969h2.482ZM18.27-3l2.739-9.089h2.772L19.573,0h-2.6L12.783-12.086h2.764ZM32.19-5.254H27.409V-2h5.611V0h-8.1V-12.086H33v2.017H27.409v2.88H32.19ZM44.31,0h-2.49L36.972-7.952V0h-2.49V-12.086h2.49l4.856,7.969v-7.969H44.31ZM55.341-10.069h-3.7V0h-2.49V-10.069H45.5v-2.017h9.845ZM62.588-2.49H58.222L57.392,0H54.744l4.5-12.086H61.55L66.074,0H63.426ZM58.894-4.507h3.021L60.4-9.031Zm12.783.083H69.693V0H67.2V-12.086h4.491a5.076,5.076,0,0,1,3.3.955,3.3,3.3,0,0,1,1.162,2.7,3.718,3.718,0,0,1-.535,2.063A3.651,3.651,0,0,1,74-5.055L76.616-.116V0H73.943ZM69.693-6.441H71.7a2.057,2.057,0,0,0,1.453-.477,1.706,1.706,0,0,0,.515-1.316,1.826,1.826,0,0,0-.486-1.345,2.018,2.018,0,0,0-1.49-.49h-2ZM80.7,0H78.21V-12.086H80.7ZM92.936-5.769A7.3,7.3,0,0,1,92.3-2.64,4.751,4.751,0,0,1,90.5-.564a4.994,4.994,0,0,1-2.694.73,5.028,5.028,0,0,1-2.681-.722A4.8,4.8,0,0,1,83.3-2.619,7.087,7.087,0,0,1,82.643-5.7v-.6a7.258,7.258,0,0,1,.643-3.142A4.79,4.79,0,0,1,85.1-11.526a5,5,0,0,1,2.685-.726,5,5,0,0,1,2.685.726,4.79,4.79,0,0,1,1.818,2.083,7.237,7.237,0,0,1,.643,3.134Zm-2.523-.548a5.086,5.086,0,0,0-.681-2.889,2.218,2.218,0,0,0-1.942-.988,2.219,2.219,0,0,0-1.934.975,5.028,5.028,0,0,0-.689,2.86v.589A5.15,5.15,0,0,0,85.847-2.9a2.212,2.212,0,0,0,1.959,1.021,2.192,2.192,0,0,0,1.926-.984,5.12,5.12,0,0,0,.681-2.868Zm10.6,3.146a1.278,1.278,0,0,0-.5-1.083,6.533,6.533,0,0,0-1.793-.8,12.71,12.71,0,0,1-2.05-.826,3.35,3.35,0,0,1-2.059-3,2.919,2.919,0,0,1,.552-1.747,3.6,3.6,0,0,1,1.585-1.2,5.967,5.967,0,0,1,2.32-.432,5.432,5.432,0,0,1,2.308.469,3.674,3.674,0,0,1,1.573,1.324,3.464,3.464,0,0,1,.56,1.942h-2.49a1.63,1.63,0,0,0-.523-1.291,2.15,2.15,0,0,0-1.469-.461,2.3,2.3,0,0,0-1.419.386A1.217,1.217,0,0,0,97.1-8.865a1.166,1.166,0,0,0,.594.988,6.705,6.705,0,0,0,1.747.747,7.55,7.55,0,0,1,3.1,1.585,3.157,3.157,0,0,1,.971,2.357,2.909,2.909,0,0,1-1.187,2.461,5.2,5.2,0,0,1-3.2.892,6.171,6.171,0,0,1-2.54-.51,4.019,4.019,0,0,1-1.747-1.4,3.582,3.582,0,0,1-.6-2.059h2.5q0,2,2.391,2a2.326,2.326,0,0,0,1.386-.361A1.175,1.175,0,0,0,101.012-3.171Z" transform="translate(929.137 896.674)" fill="#1b3f5e"/>
    <path id="Trazado_218208" data-name="Trazado 218208" d="M15,0H216.384a15,15,0,0,1,15,15V59.714a15,15,0,0,1-15,15H15a15,15,0,0,1-15-15V15A15,15,0,0,1,15,0Z" transform="translate(1082.615 851.866)" fill="#f0f8ff" stroke="#1b3f5e" stroke-width="3"/>
    <path id="Trazado_218209" data-name="Trazado 218209" d="M-82.161-1.527a4.322,4.322,0,0,1-1.9,1.249,7.961,7.961,0,0,1-2.723.444,5.393,5.393,0,0,1-2.752-.685,4.568,4.568,0,0,1-1.826-1.988,7,7,0,0,1-.66-3.063v-.822a7.431,7.431,0,0,1,.61-3.134,4.513,4.513,0,0,1,1.76-2.025,5.069,5.069,0,0,1,2.694-.7A5.048,5.048,0,0,1-83.6-11.227a4.381,4.381,0,0,1,1.436,2.984h-2.424a2.41,2.41,0,0,0-.735-1.519,2.346,2.346,0,0,0-1.565-.481,2.208,2.208,0,0,0-1.934.955,5.019,5.019,0,0,0-.672,2.839v.772a4.778,4.778,0,0,0,.722,2.872,2.473,2.473,0,0,0,2.117.971,2.762,2.762,0,0,0,2-.6V-4.516h-2.266V-6.35h4.756Zm9.289-3.727h-4.781V-2h5.611V0h-8.1V-12.086h8.085v2.017h-5.595v2.88h4.781Zm8.558,2.083a1.278,1.278,0,0,0-.5-1.083,6.533,6.533,0,0,0-1.793-.8,12.71,12.71,0,0,1-2.05-.826,3.35,3.35,0,0,1-2.059-3,2.919,2.919,0,0,1,.552-1.747,3.6,3.6,0,0,1,1.585-1.2,5.967,5.967,0,0,1,2.32-.432,5.432,5.432,0,0,1,2.308.469,3.674,3.674,0,0,1,1.573,1.324,3.464,3.464,0,0,1,.56,1.942h-2.49a1.63,1.63,0,0,0-.523-1.291,2.15,2.15,0,0,0-1.469-.461,2.3,2.3,0,0,0-1.419.386,1.217,1.217,0,0,0-.506,1.017,1.166,1.166,0,0,0,.594.988,6.705,6.705,0,0,0,1.747.747,7.55,7.55,0,0,1,3.1,1.585,3.157,3.157,0,0,1,.971,2.357A2.909,2.909,0,0,1-63-.726a5.2,5.2,0,0,1-3.2.892,6.171,6.171,0,0,1-2.54-.51,4.019,4.019,0,0,1-1.747-1.4,3.582,3.582,0,0,1-.6-2.059h2.5q0,2,2.391,2a2.326,2.326,0,0,0,1.386-.361A1.175,1.175,0,0,0-64.314-3.171Zm13.281-6.9h-3.7V0h-2.49V-10.069h-3.652v-2.017h9.845ZM-46.966,0h-2.49V-12.086h2.49ZM-34.73-5.769a7.3,7.3,0,0,1-.631,3.129A4.751,4.751,0,0,1-37.167-.564a4.994,4.994,0,0,1-2.694.73,5.028,5.028,0,0,1-2.681-.722,4.8,4.8,0,0,1-1.826-2.063A7.087,7.087,0,0,1-45.023-5.7v-.6a7.258,7.258,0,0,1,.643-3.142,4.79,4.79,0,0,1,1.818-2.083,5,5,0,0,1,2.685-.726,5,5,0,0,1,2.685.726,4.79,4.79,0,0,1,1.818,2.083,7.237,7.237,0,0,1,.643,3.134Zm-2.523-.548a5.086,5.086,0,0,0-.681-2.889,2.218,2.218,0,0,0-1.942-.988,2.219,2.219,0,0,0-1.934.975,5.028,5.028,0,0,0-.689,2.86v.589A5.15,5.15,0,0,0-41.819-2.9,2.212,2.212,0,0,0-39.86-1.876a2.192,2.192,0,0,0,1.926-.984,5.12,5.12,0,0,0,.681-2.868ZM-39.4-15.323h2.615l-2.3,2.573h-1.951ZM-23.093,0h-2.49l-4.848-7.952V0h-2.49V-12.086h2.49l4.856,7.969v-7.969h2.482Zm6.408,0V-12.086h3.719a5.647,5.647,0,0,1,2.851.718A5.007,5.007,0,0,1-8.151-9.326a6.3,6.3,0,0,1,.706,3.009v.556a6.316,6.316,0,0,1-.693,3A4.964,4.964,0,0,1-10.094-.73,5.69,5.69,0,0,1-12.941,0Zm2.49-10.069V-2h1.2a2.7,2.7,0,0,0,2.233-.955,4.314,4.314,0,0,0,.789-2.731v-.639a4.382,4.382,0,0,0-.764-2.793,2.7,2.7,0,0,0-2.233-.95ZM1.635-5.254H-3.146V-2H2.465V0h-8.1V-12.086H2.449v2.017H-3.146v2.88H1.635Zm13.8,0H10.65V-2h5.611V0H8.16V-12.086h8.085v2.017H10.65v2.88h4.781ZM27.55,0H25.06L20.212-7.952V0h-2.49V-12.086h2.49l4.856,7.969v-7.969H27.55ZM38.582-10.069h-3.7V0H32.39V-10.069H28.737v-2.017h9.845Zm5.894,5.645H42.492V0H40V-12.086h4.491a5.076,5.076,0,0,1,3.3.955,3.3,3.3,0,0,1,1.162,2.7,3.718,3.718,0,0,1-.535,2.063A3.651,3.651,0,0,1,46.8-5.055L49.415-.116V0H46.742ZM42.492-6.441H44.5a2.057,2.057,0,0,0,1.453-.477,1.706,1.706,0,0,0,.515-1.316,1.826,1.826,0,0,0-.486-1.345,2.018,2.018,0,0,0-1.49-.49h-2Zm15.63,1.187H53.341V-2h5.611V0h-8.1V-12.086h8.085v2.017H53.341v2.88h4.781ZM69.976-1.527a4.322,4.322,0,0,1-1.9,1.249,7.961,7.961,0,0,1-2.723.444A5.393,5.393,0,0,1,62.6-.519a4.568,4.568,0,0,1-1.826-1.988,7,7,0,0,1-.66-3.063v-.822a7.431,7.431,0,0,1,.61-3.134,4.513,4.513,0,0,1,1.76-2.025,5.069,5.069,0,0,1,2.694-.7,5.048,5.048,0,0,1,3.362,1.025,4.381,4.381,0,0,1,1.436,2.984H67.552a2.41,2.41,0,0,0-.735-1.519,2.346,2.346,0,0,0-1.565-.481,2.208,2.208,0,0,0-1.934.955,5.02,5.02,0,0,0-.672,2.839v.772a4.778,4.778,0,0,0,.722,2.872,2.473,2.473,0,0,0,2.117.971,2.762,2.762,0,0,0,2-.6V-4.516H65.219V-6.35h4.756Zm8.84-.963H74.45L73.62,0H70.972l4.5-12.086h2.308L82.3,0H79.654ZM75.122-4.507h3.021L76.625-9.031ZM89.7-3.171a1.278,1.278,0,0,0-.5-1.083,6.533,6.533,0,0,0-1.793-.8,12.71,12.71,0,0,1-2.05-.826,3.35,3.35,0,0,1-2.059-3,2.919,2.919,0,0,1,.552-1.747,3.6,3.6,0,0,1,1.585-1.2,5.967,5.967,0,0,1,2.32-.432,5.432,5.432,0,0,1,2.308.469,3.674,3.674,0,0,1,1.573,1.324,3.464,3.464,0,0,1,.56,1.942h-2.49a1.63,1.63,0,0,0-.523-1.291,2.15,2.15,0,0,0-1.469-.461,2.3,2.3,0,0,0-1.419.386,1.217,1.217,0,0,0-.506,1.017,1.166,1.166,0,0,0,.594.988,6.705,6.705,0,0,0,1.747.747,7.55,7.55,0,0,1,3.1,1.585A3.157,3.157,0,0,1,92.2-3.187,2.909,2.909,0,0,1,91.01-.726a5.2,5.2,0,0,1-3.2.892,6.171,6.171,0,0,1-2.54-.51,4.019,4.019,0,0,1-1.747-1.4,3.582,3.582,0,0,1-.6-2.059h2.5q0,2,2.391,2A2.326,2.326,0,0,0,89.2-2.162,1.175,1.175,0,0,0,89.7-3.171Z" transform="translate(1194.999 896.674)" fill="#1b3f5e"/>
    <path id="Trazado_218210" data-name="Trazado 218210" d="M-30.161-4.026A4.277,4.277,0,0,1-31.6-.955,5.058,5.058,0,0,1-35.025.166,4.548,4.548,0,0,1-38.682-1.4a6.416,6.416,0,0,1-1.332-4.3v-.739A7.245,7.245,0,0,1-39.4-9.5a4.6,4.6,0,0,1,1.756-2.038,4.918,4.918,0,0,1,2.652-.71,4.927,4.927,0,0,1,3.37,1.121,4.6,4.6,0,0,1,1.478,3.146h-2.49a2.524,2.524,0,0,0-.652-1.7,2.413,2.413,0,0,0-1.706-.527,2.116,2.116,0,0,0-1.864.892,5,5,0,0,0-.635,2.768v.913A5.352,5.352,0,0,0-36.9-2.772a2.077,2.077,0,0,0,1.872.9A2.458,2.458,0,0,0-33.3-2.395a2.381,2.381,0,0,0,.652-1.631ZM-18.6-5.769a7.3,7.3,0,0,1-.631,3.129A4.751,4.751,0,0,1-21.034-.564a4.994,4.994,0,0,1-2.694.73,5.028,5.028,0,0,1-2.681-.722,4.8,4.8,0,0,1-1.826-2.063A7.087,7.087,0,0,1-28.891-5.7v-.6a7.258,7.258,0,0,1,.643-3.142,4.79,4.79,0,0,1,1.818-2.083,5,5,0,0,1,2.685-.726,5,5,0,0,1,2.685.726,4.79,4.79,0,0,1,1.818,2.083A7.237,7.237,0,0,1-18.6-6.309Zm-2.523-.548A5.086,5.086,0,0,0-21.8-9.206a2.218,2.218,0,0,0-1.942-.988,2.219,2.219,0,0,0-1.934.975,5.028,5.028,0,0,0-.689,2.86v.589A5.15,5.15,0,0,0-25.687-2.9a2.212,2.212,0,0,0,1.959,1.021A2.192,2.192,0,0,0-21.8-2.86a5.12,5.12,0,0,0,.681-2.868Zm7.587-5.769,3.1,8.766,3.088-8.766h3.271V0h-2.5V-3.3l.249-5.7L-9.583,0h-1.71l-3.254-9L-14.3-3.3V0h-2.49V-12.086ZM.594-4.258V0H-1.9V-12.086H2.818a5.455,5.455,0,0,1,2.395.5A3.67,3.67,0,0,1,6.8-10.173a3.946,3.946,0,0,1,.556,2.088,3.47,3.47,0,0,1-1.216,2.8A5.065,5.065,0,0,1,2.777-4.258Zm0-2.017H2.818A2.187,2.187,0,0,0,4.325-6.74a1.691,1.691,0,0,0,.519-1.328A1.994,1.994,0,0,0,4.321-9.5a1.953,1.953,0,0,0-1.444-.564H.594ZM13.543-4.424H11.559V0H9.069V-12.086h4.491a5.076,5.076,0,0,1,3.3.955,3.3,3.3,0,0,1,1.162,2.7,3.718,3.718,0,0,1-.535,2.063,3.651,3.651,0,0,1-1.623,1.316L18.482-.116V0H15.809ZM11.559-6.441h2.009a2.057,2.057,0,0,0,1.453-.477,1.706,1.706,0,0,0,.515-1.316,1.826,1.826,0,0,0-.486-1.345,2.018,2.018,0,0,0-1.49-.49h-2ZM26.741-2.49H22.375L21.545,0H18.9l4.5-12.086H25.7L30.227,0H27.579ZM23.047-4.507h3.021L24.55-9.031ZM37.623-3.171a1.278,1.278,0,0,0-.5-1.083,6.533,6.533,0,0,0-1.793-.8,12.71,12.71,0,0,1-2.05-.826,3.35,3.35,0,0,1-2.059-3,2.919,2.919,0,0,1,.552-1.747,3.6,3.6,0,0,1,1.585-1.2,5.967,5.967,0,0,1,2.32-.432,5.432,5.432,0,0,1,2.308.469,3.674,3.674,0,0,1,1.573,1.324,3.464,3.464,0,0,1,.56,1.942h-2.49a1.63,1.63,0,0,0-.523-1.291,2.15,2.15,0,0,0-1.469-.461,2.3,2.3,0,0,0-1.419.386,1.217,1.217,0,0,0-.506,1.017,1.166,1.166,0,0,0,.594.988,6.705,6.705,0,0,0,1.747.747,7.55,7.55,0,0,1,3.1,1.585,3.157,3.157,0,0,1,.971,2.357A2.909,2.909,0,0,1,38.935-.726a5.2,5.2,0,0,1-3.2.892,6.171,6.171,0,0,1-2.54-.51,4.019,4.019,0,0,1-1.747-1.4,3.582,3.582,0,0,1-.6-2.059h2.5q0,2,2.391,2a2.326,2.326,0,0,0,1.386-.361A1.175,1.175,0,0,0,37.623-3.171Z" transform="translate(809.102 431.104)" fill="#1b3f5e"/>
    <path id="Trazado_218211" data-name="Trazado 218211" d="M-98.748-4.5a4.78,4.78,0,0,1-1.61,3.433A5.653,5.653,0,0,1-104.185.186a5.083,5.083,0,0,1-4.087-1.749,7.171,7.171,0,0,1-1.489-4.8V-7.19a8.1,8.1,0,0,1,.687-3.433,5.145,5.145,0,0,1,1.962-2.278,5.5,5.5,0,0,1,2.964-.793,5.507,5.507,0,0,1,3.767,1.252,5.137,5.137,0,0,1,1.651,3.516h-2.783a2.821,2.821,0,0,0-.728-1.9,2.7,2.7,0,0,0-1.906-.589,2.365,2.365,0,0,0-2.083,1,5.589,5.589,0,0,0-.71,3.094V-6.3a5.982,5.982,0,0,0,.663,3.2,2.321,2.321,0,0,0,2.092,1.011,2.748,2.748,0,0,0,1.925-.589,2.661,2.661,0,0,0,.728-1.823Zm9.454,1.716h-4.88L-95.1,0h-2.959l5.028-13.508h2.579L-85.4,0h-2.959Zm-4.128-2.254h3.377l-1.7-5.056ZM-84.136,0V-13.508h4.156a6.312,6.312,0,0,1,3.187.8A5.6,5.6,0,0,1-74.6-10.423a7.039,7.039,0,0,1,.789,3.363v.622a7.059,7.059,0,0,1-.775,3.349A5.548,5.548,0,0,1-76.77-.816,6.359,6.359,0,0,1-79.952,0Zm2.783-11.253v9.018h1.345a3.022,3.022,0,0,0,2.5-1.067,4.821,4.821,0,0,0,.881-3.052v-.714a4.9,4.9,0,0,0-.854-3.122,3.012,3.012,0,0,0-2.5-1.062Zm17.692,5.381H-69v3.637h6.271V0h-9.055V-13.508h9.036v2.254H-69v3.219h5.344ZM-50.116,0H-52.9l-5.418-8.888V0H-61.1V-13.508h2.783L-52.89-4.6v-8.906h2.774Zm10.224-2.783h-4.88L-45.7,0H-48.66l5.028-13.508h2.579L-36,0h-2.959Zm-4.128-2.254h3.377l-1.7-5.056ZM-30,0V-13.508h4.156a6.312,6.312,0,0,1,3.187.8,5.6,5.6,0,0,1,2.194,2.282,7.039,7.039,0,0,1,.789,3.363v.622a7.059,7.059,0,0,1-.775,3.349A5.548,5.548,0,0,1-22.637-.816,6.359,6.359,0,0,1-25.819,0Zm2.783-11.253v9.018h1.345a3.022,3.022,0,0,0,2.5-1.067A4.821,4.821,0,0,0-22.5-6.355v-.714a4.9,4.9,0,0,0-.854-3.122,3.012,3.012,0,0,0-2.5-1.062ZM-9.528-5.873h-5.344v3.637H-8.6V0h-9.055V-13.508h9.036v2.254h-6.253v3.219h5.344Zm14.3,2.329a1.428,1.428,0,0,0-.557-1.211,7.3,7.3,0,0,0-2-.891A14.205,14.205,0,0,1-.083-6.568a3.744,3.744,0,0,1-2.3-3.349,3.262,3.262,0,0,1,.617-1.953A4.024,4.024,0,0,1,0-13.211,6.669,6.669,0,0,1,2.6-13.693a6.071,6.071,0,0,1,2.579.524,4.107,4.107,0,0,1,1.758,1.48,3.872,3.872,0,0,1,.626,2.171H4.778a1.821,1.821,0,0,0-.584-1.443,2.4,2.4,0,0,0-1.642-.515,2.567,2.567,0,0,0-1.586.431A1.361,1.361,0,0,0,.4-9.908a1.3,1.3,0,0,0,.663,1.1,7.494,7.494,0,0,0,1.953.835A8.438,8.438,0,0,1,6.476-6.2,3.529,3.529,0,0,1,7.561-3.562,3.251,3.251,0,0,1,6.234-.812a5.808,5.808,0,0,1-3.572,1A6.9,6.9,0,0,1-.176-.385,4.492,4.492,0,0,1-2.129-1.948a4,4,0,0,1-.673-2.3H-.009q0,2.236,2.672,2.236a2.6,2.6,0,0,0,1.549-.4A1.313,1.313,0,0,0,4.769-3.544Zm14.9-9.964v8.9A4.555,4.555,0,0,1,18.281-1.1a5.347,5.347,0,0,1-3.79,1.29,5.407,5.407,0,0,1-3.757-1.252A4.477,4.477,0,0,1,9.314-4.509v-9H12.1v8.916a2.574,2.574,0,0,0,.635,1.934,2.44,2.44,0,0,0,1.758.608q2.347,0,2.384-2.468v-8.99Zm5.919,0,3.47,9.8,3.451-9.8h3.655V0H33.371V-3.692l.278-6.374L30,0H28.092L24.455-10.057l.278,6.364V0H21.95V-13.508ZM41.553,0H38.77V-13.508h2.783ZM55.117,0H52.333L46.916-8.888V0H44.132V-13.508h2.783L52.343-4.6v-8.906h2.774Zm5.39,0H57.724V-13.508h2.783ZM70.09-3.544a1.428,1.428,0,0,0-.557-1.211,7.3,7.3,0,0,0-2-.891,14.206,14.206,0,0,1-2.292-.923,3.744,3.744,0,0,1-2.3-3.349,3.262,3.262,0,0,1,.617-1.953,4.024,4.024,0,0,1,1.772-1.341,6.669,6.669,0,0,1,2.593-.482,6.071,6.071,0,0,1,2.579.524,4.107,4.107,0,0,1,1.758,1.48,3.872,3.872,0,0,1,.626,2.171H70.1a1.821,1.821,0,0,0-.584-1.443,2.4,2.4,0,0,0-1.642-.515,2.567,2.567,0,0,0-1.586.431,1.361,1.361,0,0,0-.566,1.136,1.3,1.3,0,0,0,.663,1.1,7.494,7.494,0,0,0,1.953.835A8.438,8.438,0,0,1,71.8-6.2a3.529,3.529,0,0,1,1.085,2.635A3.251,3.251,0,0,1,71.556-.812a5.808,5.808,0,0,1-3.572,1,6.9,6.9,0,0,1-2.839-.571,4.492,4.492,0,0,1-1.953-1.563,4,4,0,0,1-.673-2.3h2.792q0,2.236,2.672,2.236a2.6,2.6,0,0,0,1.549-.4A1.313,1.313,0,0,0,70.09-3.544Zm14.844-7.709H80.8V0H78.013V-11.253H73.931v-2.254h11Zm6.587,6.309H89.3V0H86.521V-13.508H91.54a5.674,5.674,0,0,1,3.692,1.067,3.682,3.682,0,0,1,1.3,3.015,4.156,4.156,0,0,1-.6,2.305,4.081,4.081,0,0,1-1.814,1.47L97.041-.13V0H94.054ZM89.3-7.2h2.245a2.3,2.3,0,0,0,1.624-.533,1.907,1.907,0,0,0,.575-1.47,2.041,2.041,0,0,0-.543-1.5,2.255,2.255,0,0,0-1.665-.547H89.3Zm20.438.751a8.154,8.154,0,0,1-.705,3.5,5.31,5.31,0,0,1-2.018,2.319,5.582,5.582,0,0,1-3.01.816,5.62,5.62,0,0,1-3-.807,5.362,5.362,0,0,1-2.041-2.305,7.921,7.921,0,0,1-.733-3.447v-.668a8.111,8.111,0,0,1,.719-3.511,5.353,5.353,0,0,1,2.032-2.329,5.589,5.589,0,0,1,3-.812,5.589,5.589,0,0,1,3,.812,5.353,5.353,0,0,1,2.032,2.329,8.088,8.088,0,0,1,.719,3.5Zm-2.82-.612a5.684,5.684,0,0,0-.761-3.229,2.479,2.479,0,0,0-2.171-1.1,2.48,2.48,0,0,0-2.162,1.09,5.619,5.619,0,0,0-.77,3.2v.659a5.755,5.755,0,0,0,.761,3.21A2.473,2.473,0,0,0,104.008-2.1a2.45,2.45,0,0,0,2.152-1.1,5.722,5.722,0,0,0,.761-3.205Z" transform="translate(809.156 821.272)" fill="#1b3f5e"/>
    <path id="Trazado_218212" data-name="Trazado 218212" d="M15,0H216.384a15,15,0,0,1,15,15V59.714a15,15,0,0,1-15,15H15a15,15,0,0,1-15-15V15A15,15,0,0,1,15,0Z" transform="translate(862.714 522.124)" fill="#fff" stroke="#d84318" stroke-width="4"/>
    <path id="Trazado_218213" data-name="Trazado 218213" d="M-73.582-4.258V0h-2.49V-12.086h4.715a5.455,5.455,0,0,1,2.395.5,3.67,3.67,0,0,1,1.59,1.415,3.946,3.946,0,0,1,.556,2.088,3.47,3.47,0,0,1-1.216,2.8A5.065,5.065,0,0,1-71.4-4.258Zm0-2.017h2.225a2.187,2.187,0,0,0,1.507-.465,1.691,1.691,0,0,0,.519-1.328A1.994,1.994,0,0,0-69.855-9.5a1.953,1.953,0,0,0-1.444-.564h-2.283ZM-62.617-2h5.288V0h-7.778V-12.086h2.49Zm13.7-.49h-4.366L-54.117,0h-2.648l4.5-12.086h2.308L-45.434,0h-2.648Zm-3.694-2.017h3.021l-1.519-4.524ZM-34.477,0h-2.49l-4.848-7.952V0h-2.49V-12.086h2.49l4.856,7.969v-7.969h2.482Zm6.408,0V-12.086h3.719a5.647,5.647,0,0,1,2.851.718,5.007,5.007,0,0,1,1.963,2.042,6.3,6.3,0,0,1,.706,3.009v.556a6.316,6.316,0,0,1-.693,3A4.964,4.964,0,0,1-21.478-.73,5.69,5.69,0,0,1-24.325,0Zm2.49-10.069V-2h1.2a2.7,2.7,0,0,0,2.233-.955,4.314,4.314,0,0,0,.789-2.731v-.639a4.382,4.382,0,0,0-.764-2.793,2.7,2.7,0,0,0-2.233-.95Zm15.83,4.814h-4.781V-2h5.611V0h-8.1V-12.086h8.085v2.017h-5.595v2.88h4.781ZM6.263-4.026A4.277,4.277,0,0,1,4.823-.955,5.058,5.058,0,0,1,1.4.166,4.548,4.548,0,0,1-2.258-1.4a6.416,6.416,0,0,1-1.332-4.3v-.739A7.245,7.245,0,0,1-2.976-9.5,4.6,4.6,0,0,1-1.22-11.542a4.918,4.918,0,0,1,2.652-.71A4.927,4.927,0,0,1,4.8-11.131,4.6,4.6,0,0,1,6.28-7.985H3.789a2.524,2.524,0,0,0-.652-1.7,2.413,2.413,0,0,0-1.706-.527,2.116,2.116,0,0,0-1.864.892,5,5,0,0,0-.635,2.768v.913A5.352,5.352,0,0,0-.473-2.772a2.077,2.077,0,0,0,1.872.9,2.458,2.458,0,0,0,1.722-.527,2.381,2.381,0,0,0,.652-1.631ZM17.826-5.769A7.3,7.3,0,0,1,17.2-2.64,4.751,4.751,0,0,1,15.39-.564,4.994,4.994,0,0,1,12.7.166a5.028,5.028,0,0,1-2.681-.722A4.8,4.8,0,0,1,8.189-2.619,7.087,7.087,0,0,1,7.533-5.7v-.6a7.258,7.258,0,0,1,.643-3.142,4.79,4.79,0,0,1,1.818-2.083,5,5,0,0,1,2.685-.726,5,5,0,0,1,2.685.726,4.79,4.79,0,0,1,1.818,2.083,7.237,7.237,0,0,1,.643,3.134ZM15.3-6.317a5.086,5.086,0,0,0-.681-2.889,2.218,2.218,0,0,0-1.942-.988,2.219,2.219,0,0,0-1.934.975,5.028,5.028,0,0,0-.689,2.86v.589A5.15,5.15,0,0,0,10.737-2.9,2.212,2.212,0,0,0,12.7-1.876a2.192,2.192,0,0,0,1.926-.984A5.12,5.12,0,0,0,15.3-5.728Zm7.587-5.769,3.1,8.766,3.088-8.766h3.271V0h-2.5V-3.3l.249-5.7L26.841,0h-1.71L21.877-9,22.126-3.3V0h-2.49V-12.086ZM37.017-4.258V0h-2.49V-12.086h4.715a5.455,5.455,0,0,1,2.395.5,3.67,3.67,0,0,1,1.59,1.415,3.946,3.946,0,0,1,.556,2.088,3.47,3.47,0,0,1-1.216,2.8A5.065,5.065,0,0,1,39.2-4.258Zm0-2.017h2.225a2.187,2.187,0,0,0,1.507-.465,1.691,1.691,0,0,0,.519-1.328A1.994,1.994,0,0,0,40.744-9.5a1.953,1.953,0,0,0-1.444-.564H37.017ZM49.967-4.424H47.983V0h-2.49V-12.086h4.491a5.076,5.076,0,0,1,3.3.955,3.3,3.3,0,0,1,1.162,2.7,3.718,3.718,0,0,1-.535,2.063,3.651,3.651,0,0,1-1.623,1.316L54.906-.116V0H52.233ZM47.983-6.441h2.009a2.057,2.057,0,0,0,1.453-.477,1.706,1.706,0,0,0,.515-1.316,1.826,1.826,0,0,0-.486-1.345,2.018,2.018,0,0,0-1.49-.49h-2ZM63.165-2.49H58.8L57.969,0H55.321l4.5-12.086h2.308L66.651,0H64ZM59.471-4.507h3.021L60.973-9.031ZM74.047-3.171a1.278,1.278,0,0,0-.5-1.083,6.533,6.533,0,0,0-1.793-.8,12.71,12.71,0,0,1-2.05-.826,3.35,3.35,0,0,1-2.059-3,2.919,2.919,0,0,1,.552-1.747,3.6,3.6,0,0,1,1.585-1.2,5.967,5.967,0,0,1,2.32-.432,5.432,5.432,0,0,1,2.308.469,3.674,3.674,0,0,1,1.573,1.324,3.464,3.464,0,0,1,.56,1.942h-2.49a1.63,1.63,0,0,0-.523-1.291,2.15,2.15,0,0,0-1.469-.461,2.3,2.3,0,0,0-1.419.386,1.217,1.217,0,0,0-.506,1.017,1.166,1.166,0,0,0,.594.988,6.705,6.705,0,0,0,1.747.747,7.55,7.55,0,0,1,3.1,1.585,3.157,3.157,0,0,1,.971,2.357A2.909,2.909,0,0,1,75.359-.726a5.2,5.2,0,0,1-3.2.892,6.171,6.171,0,0,1-2.54-.51,4.019,4.019,0,0,1-1.747-1.4,3.582,3.582,0,0,1-.6-2.059h2.5q0,2,2.391,2a2.326,2.326,0,0,0,1.386-.361A1.175,1.175,0,0,0,74.047-3.171Z" transform="translate(975.467 563.359)" fill="#1b3f5e"/>
  </g>
</svg>
