<svg xmlns="http://www.w3.org/2000/svg" width="190" height="190" viewBox="0 0 190 190">
  <g id="Grupo_145102" data-name="Grupo 145102" transform="translate(-22588 7247)">
    <g id="Elipse_5584" data-name="Elipse 5584" transform="translate(22588 -7247)" fill="#fff" stroke="#ccc47d" stroke-width="9">
      <circle cx="95" cy="95" r="95" stroke="none"/>
      <circle cx="95" cy="95" r="90.5" fill="none"/>
    </g>
    <g id="Grupo_144904" data-name="Grupo 144904" transform="translate(22372.5 -7429.622)">
      <path id="Trazado_217644" data-name="Trazado 217644" d="M454.876,229.622H328.038a3.207,3.207,0,0,0-3.2,3.2v84.53H458.071v-84.53A3.206,3.206,0,0,0,454.876,229.622Z" transform="translate(-80.845 0)" fill="#727997"/>
      <rect id="Rect치ngulo_42885" data-name="Rect치ngulo 42885" width="121.51" height="78.074" transform="translate(249.923 235.129)" fill="#ececed"/>
      <path id="Trazado_217645" data-name="Trazado 217645" d="M391.5,658.342H229.494L221.5,655.41h178Z" transform="translate(0 -333.103)" fill="#d84318"/>
      <path id="Trazado_217646" data-name="Trazado 217646" d="M628.836,242.74a.566.566,0,1,1-.566-.567A.564.564,0,0,1,628.836,242.74Z" transform="translate(-317.782 -9.819)" fill="#868789"/>
      <rect id="Rect치ngulo_42886" data-name="Rect치ngulo 42886" width="28.845" height="2.93" transform="translate(296.021 317.335)" fill="#fff59d"/>
      <path id="Trazado_217647" data-name="Trazado 217647" d="M322.579,632.568v1.065a1.337,1.337,0,0,1-1.332,1.333H299.662a1.337,1.337,0,0,1-1.331-1.333v-1.065H221.5v4.972h178v-4.972Z" transform="translate(0 -315.233)" fill="#f0f8ff"/>
      <g id="Grupo_144903" data-name="Grupo 144903" transform="translate(255.488 249.513)">
        <path id="Trazado_217648" data-name="Trazado 217648" d="M432.57,370.81q-27.145,0-54.29.015c-.538,0-.644-.105-.644-.643q.028-24.27,0-48.539c0-.538.106-.643.644-.643q54.368.024,108.737,0c.538,0,.644.105.644.643q-.028,24.269,0,48.539c0,.538-.105.644-.643.643Q459.793,370.8,432.57,370.81Zm-10.538-33.764.056,0c.172.021.382.11.382-.2,0-.337.005-.675-.014-1.011a.6.6,0,0,0-.5-.606.692.692,0,0,0-.838.323c.371.045.759-.238.9.153.1.276-.243.161-.361.258-.447.067-.751.312-.62.773C421.185,337.276,421.61,337.232,422.032,337.046Zm10.938,9.888-.014-.165c.157-1.689.025-3.382.073-5.072.01-.337.15-.742-.485-.727-.6.014-.426.411-.429.7-.022,1.643-.024,3.286-.033,4.928l-.271-.007c-.012-1.67-.05-3.341-.02-5.011.01-.588-.264-.62-.709-.605-.426.015-.792-.073-.786.608q.05,5.916,0,11.833c-.005.676.345.585.775.614.512.035.726-.063.715-.657-.034-1.879,0-3.76.015-5.639l.266-.039q.007,3.081.013,6.162c-.012.016-.036.032-.034.046a.634.634,0,0,0,.029.107l-.005.322c-.336.355-.128.793-.175,1.191-.055.465.174.658.642.656,2.537-.01,5.074,0,7.611-.01.172,0,.481.113.365-.284q.007-3.684.013-7.368a3.178,3.178,0,0,0,.112-1.411l-.128-.306a.344.344,0,0,1,.132-.043l.175.011q.018,3.37.033,6.74c0,.3-.038.571.417.568s.349-.29.349-.532c0-4-.008-8,.014-12,0-.518-.178-.646-.631-.558l-.375.017-1.487-.026-.355.137c-.9-.28-.961-.245-.96.584,0,1.684.014,3.368.021,5.052l-.151.259-.329,0-.006-.253v-5.733h-.149v5.739a.525.525,0,0,1-.8-.02q.011-2.586.021-5.171c0-.309.076-.613-.443-.61-.544,0-.487.318-.486.666,0,1.7,0,3.4,0,5.094l-.022.292h-.313l-.008-.259q.013-2.653.025-5.306c0-.232.036-.471-.331-.484s-.441.155-.439.47c.009,1.2-.016,2.394.012,3.59a4.424,4.424,0,0,0,.107,1.762l-.139.228-.5,0-.288-.218a.39.39,0,0,0,.129-.349q0-2.578,0-5.157c0-.13-.023-.263-.285-.267v5.735l-.01.269-.321,0Zm9.182-9.887.041,0c.171.019.381.107.381-.2s0-.619-.008-.929a.621.621,0,0,0-.428-.662.759.759,0,0,0-.928.272,2.4,2.4,0,0,1,.74.014c.264.1.272.286-.03.4-.787-.1-.708.614-.956,1.022a.889.889,0,0,1-.033-1.6c-.155-.095-.385-.153-.432-.278-.222-.6-.385-.333-.475.033a3.217,3.217,0,0,0,.176,1.831c.107.3.5.341.755-.009C441.36,336.926,441.722,337.39,442.152,337.048Zm11.392-.02c.344.066.675.14.6-.422a7.277,7.277,0,0,1-.008-.927c0-.177.037-.419-.2-.429s-.219.225-.231.408c-.024.375.118.781-.19,1.108-.784.151-.537-.453-.619-.829-.049-.227.18-.648-.185-.64-.326.008-.126.431-.169.666a1.67,1.67,0,0,0,0,.468C452.613,337.065,452.906,337.336,453.543,337.028Zm-50.08-1.443c.374-.042.6.081.59.5-.007.208,0,.417,0,.626,0,.15-.04.356.172.376.282.026.231-.213.234-.385a4.283,4.283,0,0,0,0-.781c-.1-.594-.4-.9-1.031-.6-.4-.072-.712-.068-.611.5a4.83,4.83,0,0,1,.008.855c0,.183-.02.424.209.434.246.011.21-.235.223-.414C403.281,336.318,403.138,335.907,403.463,335.585Zm51.813-.275c-.529-.09-.135-.7-.654-1.014,0,.945-.029,1.771.013,2.593.018.357.329.049.49.114a.67.67,0,0,0,1.027-.151,1.051,1.051,0,0,0,.09-1.248A.634.634,0,0,0,455.276,335.31Zm-21.059.306c.6-.167.627.2.651.647.015.282-.19.8.18.8.476,0,.167-.536.243-.827a.806.806,0,0,0-.023-.387c-.152-.592-.464-.863-1.068-.5-.312-.074-.6-.155-.534.367a8.235,8.235,0,0,1,.01,1c0,.151-.019.352.184.359s.185-.192.2-.346C434.09,336.36,433.939,335.957,434.216,335.616Zm-14.611.006c.686-.2.606.281.657.7.031.262-.23.751.238.742.352-.007.137-.472.182-.729a1.159,1.159,0,0,0-.017-.463c-.141-.575-.438-.878-1.055-.544-.407-.1-.627-.018-.555.474a7.6,7.6,0,0,1,.009.937c0,.145-.025.344.213.316.166-.019.146-.179.157-.305C419.469,336.374,419.333,335.967,419.605,335.622Zm28.6.007c.471-.176.694.024.722.49.016.26,0,.522.012.782a.229.229,0,0,0,.123.169c.051.017.181-.038.185-.071.056-.537.229-1.124-.155-1.575-.421-.494-.914-.085-1.372.039,0,.444-.008.888-.005,1.332,0,.125-.01.286.181.276s.16-.168.167-.293A2.322,2.322,0,0,1,448.207,335.629Zm-48.182,1.716c-.261.438-.761.066-1.141.282.8.451,1.448.261,1.538-.443a13.229,13.229,0,0,0,.037-1.643c0-.46-.322-.165-.5-.2a.666.666,0,0,0-.966.136,1,1,0,0,0-.176,1.155.744.744,0,0,0,.885.461C399.929,337.048,400.134,336.983,400.026,337.345Zm39.139-2.043a.857.857,0,0,0-1.015.131c.327.263.618-.03.864.114.282.359-.185.311-.259.477l-.016.013c-.43-.086-.623.165-.677.528a.482.482,0,0,0,.415.573c.367.064,1.005-.027,1.011-.191C439.506,336.4,439.82,335.73,439.165,335.3Zm-28.5-.492c-.124-.322-.422-.442-.471-.068a17.973,17.973,0,0,0-.03,2.317l.212,0a5.55,5.55,0,0,0,.1-1.759,7.5,7.5,0,0,1,1.085,1.57c.1.138.2.249.374.21.216-.047.158-.237.159-.381,0-.6,0-1.2,0-1.8,0-.139.046-.357-.187-.343-.214.013-.168.221-.17.365-.005.422,0,.844,0,1.429Zm20.254-.278a1.2,1.2,0,0,0-1.528.852,1.287,1.287,0,0,0,.489,1.588,1.074,1.074,0,0,0,1.376-.129.606.606,0,0,0-.2-.074c-.9.054-1.3-.2-1.333-.877s.3-1,1.2-1.076c.118.032.284.106.311-.069C431.264,334.537,431.082,334.52,430.918,334.532Zm13.673,22.611a.572.572,0,0,0-.883,0,1.787,1.787,0,0,0-.491,1.319c.4.559.113,1.124.2,1.664.031.187,0,.381.27.375s.228-.205.256-.388c.087-.559-.271-1.2.291-1.678.021-.018-.024-.148-.068-.2-.511-.613-.13-.775.426-.851.073.22.118.488.45.381a.305.305,0,0,0,.172-.227c0-.366-.3-.262-.512-.3C444.662,357.232,444.628,357.177,444.591,357.143Zm.031-3.037c.166.325.376.243.6.065H447.1a.407.407,0,0,0,.631,0c.189-.02.349-.074.366-.3a.3.3,0,0,0,.115-.019l.124,0c.38.349.778.487.783-.217.025-4.058.011-8.115.016-12.173,0-.3-.043-.5-.422-.486-.356.01-.355.214-.356.466,0,.732-.017,1.465-.026,2.2-.154.2-.317.374-.585.16v-2.727l-.207,0V343.8c-.273.138-.547.29-.783-.06v-2.7l-.277.005v2.739a.94.94,0,0,1-1.1.013c0-.751,0-1.5-.01-2.254,0-.267.092-.587-.391-.57s-.354.345-.366.6c-.027.594-.042,1.189-.061,1.783-.3-.032-.262-.265-.264-.465,0-.47.007-.94,0-1.41a.514.514,0,0,0-.773-.472c-.281.177-.146.476-.146.716-.01,3.839.015,7.679-.026,11.517-.008.787.246.976.94.77.086.144.217.141.358.107Zm6.7-13.132c-.4.085-.251.409-.252.637q-.014,5.921,0,11.842c0,.2-.147.486.316.626v-4.312l.288-.01c.989.017,1.978.024,2.966.055.381.012.487-.148.486-.51q-.017-3.911,0-7.822c0-.378-.138-.5-.5-.494-.965.017-1.93.007-2.9.008Zm-29.075.144a.307.307,0,0,0-.112,0c-.213-.237-.494-.082-.74-.129-.756-.146-.941.158-.931.914.044,3.611.021,7.223.018,10.835,0,1.562-.005,1.562,1.625,1.417l.169,0c.468.126.769.134.765-.536-.026-3.986-.017-7.973-.005-11.959C423.042,341.045,422.905,340.738,422.252,341.118Zm-4.59,6.547c0-2.04,0-4.079,0-6.119,0-.357-.024-.576-.49-.579-.5,0-.459.274-.459.6q0,6.041,0,12.082c0,.36.018.574.485.573.488,0,.469-.254.467-.594C417.659,351.64,417.663,349.652,417.662,347.665Zm2.508-.028q0-3.024,0-6.047c0-.3.085-.621-.44-.622-.47,0-.487.219-.486.574q.009,6.047,0,12.095c0,.344,0,.588.482.585.51,0,.45-.3.45-.615Q420.171,350.621,420.171,347.637Zm-20.792.946q0,3.606,0,7.212c0,.281-.065.583.4.584.5,0,.365-.344.365-.6q.011-7.094,0-14.188c0-.241.161-.6-.346-.619-.527-.017-.422.334-.423.631Q399.376,345.095,399.378,348.583Zm51.179-1.1q0-2.94,0-5.88c0-.293.111-.624-.423-.635s-.5.287-.5.645q.006,5.919,0,11.838c0,.3-.092.617.429.631.54.015.5-.283.5-.641C450.553,351.455,450.557,349.469,450.557,347.483Zm6.271,1.258c0-2.382,0-4.763-.005-7.145,0-.249.15-.6-.348-.621-.552-.021-.4.369-.4.645q-.01,7.067,0,14.133c0,.248-.151.6.345.623.546.02.405-.365.406-.646C456.833,353.4,456.83,351.071,456.829,348.741Zm-29.512-.06c0-2.382,0-4.764,0-7.146,0-.232.115-.541-.331-.561s-.453.236-.44.547c0,.1-.005.209,0,.314q.007,6.949.018,13.9c0,.283-.133.664.412.639.5-.022.343-.378.344-.625C427.321,353.393,427.317,351.037,427.316,348.681Zm-11.081-1.02c0-2.014.006-4.029-.008-6.043,0-.236.184-.654-.313-.633-.433.019-.251.394-.252.611q-.016,6,0,12.009c0,.218-.178.584.269.6s.3-.351.3-.575C416.238,351.638,416.234,349.65,416.235,347.662Zm-3.809-.108c0,2.01-.005,4.021.007,6.032,0,.243-.164.655.329.623.424-.027.249-.4.25-.616q.016-5.992,0-11.985c0-.224.163-.589-.245-.623-.489-.042-.335.37-.336.616C412.42,343.584,412.425,345.569,412.426,347.553Zm-2.076.117h0c0-2.037,0-4.074,0-6.111,0-.23.124-.582-.306-.577s-.295.359-.3.586q-.011,6.032,0,12.065c0,.232-.128.576.307.573s.291-.36.292-.581C410.354,351.64,410.349,349.655,410.349,347.671Zm-3.6-.023q0-1.411,0-2.821,0-1.724,0-3.448c0-.183.009-.377-.258-.391s-.269.183-.276.367c0,.1,0,.209,0,.313q0,5.956.012,11.912c0,.212-.192.591.245.607s.272-.368.273-.583C406.751,351.619,406.745,349.633,406.747,347.648Zm-3.29-6.611-.154-.011v13.116h.154Zm51.752,11.113c0-.519-.024-1.04.007-1.558.026-.421-.141-.532-.539-.526s-.635.035-.616.533c.036.934.034,1.87.006,2.8-.014.47.062.7.62.695.589,0,.53-.33.523-.7C455.2,352.981,455.209,352.565,455.209,352.149Zm-14.593,6.571c0,.392.029.786-.007,1.175-.043.46.073.7.588.618.178-.029.372.027.547-.011.352-.075,1,.224,1-.208.008-.52-.626-.2-.966-.239-.393-.043-.678,0-.662-.57.015-.537.289-.511.645-.5.209.009.418,0,.627,0,.168,0,.315-.037.325-.244s-.13-.259-.3-.259c-.261,0-.524-.016-.784,0-.362.03-.511-.085-.5-.479.01-.371.053-.607.505-.553a7.766,7.766,0,0,0,.783.007c.17,0,.322-.014.32-.233,0-.2-.132-.226-.308-.255-1.605-.261-1.814-.093-1.813,1.506C440.617,358.563,440.617,358.642,440.616,358.72Zm-31.075.625c0,.288,0,.575,0,.863,0,.173.042.321.248.319s.253-.144.252-.32c0-.366-.006-.732,0-1.1a.511.511,0,0,1,.553-.534c.337-.013.446.224.457.513.013.339.01.68.01,1.019,0,.184-.027.391.24.4s.269-.183.268-.376c0-.314.013-.628,0-.941-.019-.387.156-.606.535-.617s.463.266.463.584c0,.34,0,.68,0,1.019,0,.175.047.32.241.336.241.02.309-.131.3-.347-.009-.418.025-.84-.02-1.254a.78.78,0,0,0-1.181-.687.811.811,0,0,1-.833-.019c-.451-.227-.948.034-1.412.06-.266.015-.065.647-.122,1A.656.656,0,0,0,409.542,359.345Zm18.223.042h0c0,.261,0,.521,0,.782,0,.165.014.326.221.345.261.023.286-.16.285-.358,0-.339.01-.678-.005-1.016a.493.493,0,0,1,.506-.563c.387-.042.493.231.517.539.022.285-.008.574.011.859.014.2-.137.538.258.519.376-.018.215-.347.236-.551a4.12,4.12,0,0,0,.005-.7c-.03-.408.117-.681.552-.666s.442.36.443.685.008.626,0,.938c0,.181.056.312.251.318s.251-.139.25-.313c0-.391.015-.783,0-1.173-.038-.759-.513-1.076-1.218-.783a.639.639,0,0,1-.691.007c-.485-.292-1.031,0-1.531.043-.2.019-.052.658-.09,1.013A.725.725,0,0,0,427.765,359.387Zm-4.356,1.212a1.917,1.917,0,0,0,.434-.074c.317-.115.889-.11.715-.609-.164-.47-.5.052-.749.095a1.5,1.5,0,0,1-1.617-.5,1.187,1.187,0,0,1-.036-1.461,1.437,1.437,0,0,1,1.666-.54c.1.023.195.079.3.1.132.026.3.225.394,0a.375.375,0,0,0-.213-.511,2.429,2.429,0,0,0-2.3.289,1.761,1.761,0,0,0-.531,1.982A1.975,1.975,0,0,0,423.408,360.6Zm32.435-19.57h-.161v15.286h.161Zm-26.992,0-.153.012v15.273h.153Zm-26.377,18.721a6.3,6.3,0,0,1-1.078.3A1.253,1.253,0,0,1,400,359.26a1.212,1.212,0,0,1,.363-1.489,1.654,1.654,0,0,1,1.709-.164c.124.044.333.293.413-.056a.368.368,0,0,0-.224-.441,2.306,2.306,0,0,0-2.527.5,1.783,1.783,0,0,0,.008,2.306,2.181,2.181,0,0,0,2.525.472C402.523,360.249,402.582,360.064,402.474,359.749Zm6.113-18.734-.16.011v13.163h.16Zm5.018.018-.147.01v13.1l.147,0Zm1.059,13.109.153,0V341.031l-.153,0Zm4.032.012c.215-.7.187-12.607-.032-13.137A116.614,116.614,0,0,0,418.7,354.154Zm5.089-.011.15.008V341.029h-.15ZM401.81,341.025l-.266.008c.009,4.373-.01,8.746,0,13.119l.261,0Zm2.9,13.123.155,0V341.021h-.155Zm25.032-.17h.145V341.025h-.145Zm-15.6,4.172c0-.233.01-.466,0-.7-.011-.188.084-.468-.253-.458-.321.009-.248.279-.249.472q-.008,1.255,0,2.509c0,.17-.069.389.163.473a1.832,1.832,0,0,0,1.451-.017,1.054,1.054,0,0,0,.6-1.016C415.873,358.447,415.412,358.091,414.135,358.149Zm45.823-22.695a.89.89,0,0,0-1.32.071.942.942,0,0,0-.1,1.23.922.922,0,0,0,1.18.33c.158-.058.182-.291.491-.127.922.49,1.359.2,1.332-.794,0-.1,0-.21-.01-.313a.634.634,0,0,0-.428-.6.742.742,0,0,0-.886.193c.136.211.258.124.374.094.191-.05.419-.04.465.158.071.307-.234.186-.376.238-.28.1-.54.215-.6.549-.018.1-.007.208-.018.311-.015.14-.089.158-.207.1-.323-.171-.817.08-1.011-.418a.715.715,0,0,1,.1-.736C459.172,335.427,459.531,335.62,459.957,335.455Zm-3.807,24.016c.453,0,.789.015,1.123-.005.215-.013.513.13.613-.176a.81.81,0,0,0-.159-.665,1.04,1.04,0,0,0-1.071-.5,1.072,1.072,0,0,0-1,.945,1.2,1.2,0,0,0,.564,1.349,1.467,1.467,0,0,0,1.493-.06.3.3,0,0,0,.138-.406c-.116-.219-.269-.027-.394.017C456.957,360.147,456.5,360.217,456.151,359.47Zm-30.226-5.343h.245c-.043-4.364.122-8.728-.245-13.091Zm23.535,5.34c.512,0,.9-.016,1.292,0,.409.021.513-.156.4-.522a1.03,1.03,0,0,0-.714-.768,1.093,1.093,0,0,0-1.389.573,1.31,1.31,0,0,0,.389,1.619,1.407,1.407,0,0,0,1.621-.071.263.263,0,0,0,.08-.352c-.088-.154-.21-.053-.331-.006C450.3,360.142,449.807,360.263,449.461,359.467Zm-17.6.416c0,.443-.007.887,0,1.33,0,.189-.084.473.25.46s.247-.3.227-.479c-.053-.492.005-.729.633-.645.653.087,1.117-.513,1.1-1.231a1.13,1.13,0,0,0-1.168-1.194c-1.051.017-1.051.017-1.05,1.055Q431.857,359.531,431.858,359.883Zm6.88-.394c-.008-1.313-.008-1.313-1.258-1.318a1.227,1.227,0,0,0-1.214,1.26c.013.868.558,1.22,2.131,1.12C439.127,360.5,438.543,359.787,438.737,359.489Zm-19.081.014c0-1.336,0-1.336-1.244-1.326a1.211,1.211,0,0,0-1.192,1.2c-.02.872.433,1.18,2.085,1.145C420.109,360.505,419.4,359.763,419.657,359.5Zm-11.784-1.386a1.232,1.232,0,1,0,1.274,1.2A1.242,1.242,0,0,0,407.872,358.117Zm-3.757,2.463a1.231,1.231,0,1,0-.073-2.461,1.251,1.251,0,0,0-1.215,1.266A1.265,1.265,0,0,0,404.116,360.58Zm22.032-2.461a1.23,1.23,0,1,0,1.219,1.259A1.24,1.24,0,0,0,426.148,358.119Zm25.451,1.219c0,.287,0,.574,0,.862,0,.177.048.316.252.314s.254-.136.253-.315c0-.365,0-.731,0-1.1a.481.481,0,0,1,.541-.527c.327,0,.452.209.455.511,0,.339.006.679.01,1.018,0,.18-.032.392.237.406s.268-.184.267-.374c0-.418.006-.836-.011-1.253a.729.729,0,0,0-.679-.737c-1.02-.164-1.323.1-1.322,1.113C451.6,359.286,451.6,359.312,451.6,359.338Zm1.473-7.294c0-.519-.011-1.039,0-1.558.009-.3-.089-.423-.4-.41-.255.011-.382.092-.381.361.005,1.091.008,2.182,0,3.273,0,.271.113.363.369.37.291.009.424-.085.413-.4C453.056,353.136,453.071,352.59,453.072,352.044Zm-5.857,8.028c-.587.042-1.044-.075-1.062-.7s.395-.8.948-.741c.179.019.426.23.454-.144.021-.282-.233-.328-.433-.356a1.253,1.253,0,0,0-1.351.593,1.145,1.145,0,0,0,.108,1.392,1.382,1.382,0,0,0,1.43.415c.217-.043.335-.163.284-.381C447.517,359.833,447.3,360.085,447.215,360.072Zm7.656.509c.217-.034.534.069.588-.315.018-.135-.026-.274-.211-.227-.493.125-.55-.2-.5-.532s-.3-.917.459-.905c.15,0,.253-.076.244-.233s-.143-.191-.277-.211a1.936,1.936,0,0,1-.369-.076c-.144-.051.017-.488-.284-.293a2.338,2.338,0,0,0-.574.674c.5.474.129,1.09.289,1.606A.656.656,0,0,0,454.871,360.581Zm-56.348-23.507a14.9,14.9,0,0,0-.69-2.2c-.054-.172-.1-.365-.346-.356s-.268.225-.325.385c-.2.566-.393,1.137-.579,1.709-.05.154-.235.373.024.46.241.081.283-.189.324-.351a.6.6,0,0,1,1.156.045C398.129,336.956,398.2,337.128,398.523,337.075Zm28.51-.8c.289,0,.542-.015.793,0,.561.04.533-.275.377-.634a.691.691,0,0,0-.826-.432.861.861,0,0,0-.736.879c-.026.449.072.852.559.993.326.095.715.261.956-.278C427.682,336.815,427.184,336.978,427.034,336.275Zm-25.8,0a4.279,4.279,0,0,0,.623-.006c.225-.037.593.165.627-.241a.721.721,0,0,0-.592-.81.791.791,0,0,0-.954.5,1,1,0,0,0,.26,1.276c.333.266.736.212,1.171-.168C401.92,336.791,401.393,336.994,401.231,336.274Zm11.359-.74c.35.1.761-.206.851.152.1.393-.376.189-.566.321-.289.2-.484.412-.378.769.112.374.408.42.751.369.706-.1.85-.364.692-1.287C413.821,335.162,413.272,335,412.59,335.534Zm13.63.258c0-.339,0-.679,0-1.018,0-.147-.023-.265-.2-.247a.171.171,0,0,0-.144.229c.1.492-.114.484-.537.473-.615-.016-.845.473-.819,1.022s.3.933.939.9c.577-.03,1-.162.764-.89A1.618,1.618,0,0,1,426.219,335.792Zm-25.48,5.254-.117.033V356.3h.117ZM450.6,335.8h0c0,.287-.006.574,0,.861.005.167-.068.419.2.419.2,0,.188-.224.168-.372-.053-.413.071-.583.529-.624a.731.731,0,0,0,.682-.949c-.117-.609-.6-.614-1.1-.626-.686-.018-.446.482-.485.823A4.2,4.2,0,0,0,450.6,335.8Zm-25,5.245-.109.038V354.1h.109ZM411,354.1l.115.018V341.052H411Zm-3.763,0,.12.015V341.058h-.12Zm35.288-13.057-.1.024v12.878h.1Zm-23.837-4.861a.914.914,0,1,0-1.819.037.847.847,0,0,0,.919.936A.882.882,0,0,0,418.683,336.182Zm28.64.05a.881.881,0,0,0-.818-1.017.9.9,0,0,0-1,.94.863.863,0,0,0,.857,1A.874.874,0,0,0,447.323,336.231Zm-14.031-.087a.906.906,0,1,0-1.807.036.862.862,0,0,0,.873.982A.92.92,0,0,0,433.292,336.145Zm-25.445-.82c.2.155.577.141.569.407-.01.313-.4.269-.6.314-.353.082-.487.232-.477.571.009.282.141.457.425.422.357-.044.854.206,1.047-.153A1.052,1.052,0,0,0,407.847,335.324Zm28.174-.66a4.46,4.46,0,0,0-.443.734c.5.446.009,1.086.338,1.535a.684.684,0,0,0,.308.21.282.282,0,0,0,.352-.076c.112-.173-.074-.177-.153-.261-.429-.45-.323-1.063.313-1.462C436.324,335.3,436.2,335,436.021,334.665Zm-29.7.826c-.543-.367-1-.32-1.314.078a1.026,1.026,0,0,0,.154,1.407.757.757,0,0,0,1.086-.072c-.5-.061-1.018-.052-1.039-.709C405.188,335.479,405.817,335.577,406.323,335.491Zm-.572,23.294q0,.7,0,1.405c0,.166.031.324.24.322s.257-.136.257-.314q0-1.445,0-2.889c0-.167-.035-.316-.245-.321s-.251.149-.253.313C405.747,357.8,405.75,358.29,405.751,358.785Zm9.986-23.341a.8.8,0,0,0-1.267.168.928.928,0,0,0,.149,1.333.763.763,0,0,0,1.11-.032c-.465-.091-1.007-.028-1.027-.7C414.68,335.513,415.227,335.525,415.737,335.444Zm28.528-.08c-.486.055-1.079-.165-1.275.512a.905.905,0,0,0,.4,1.157.876.876,0,0,0,1.139-.2c-.605-.027-1.112.07-1.194-.558C443.241,335.571,443.776,335.5,444.265,335.364Zm.936,23.947c0-.236,0-.471,0-.706,0-.183.023-.389-.242-.408s-.27.179-.269.369q0,.785,0,1.57c0,.192,0,.388.27.368s.24-.224.239-.408C445.2,359.834,445.2,359.572,445.2,359.31Zm11.954-23.472c0-.393,0-.73,0-1.067,0-.153.022-.35-.184-.365-.262-.018-.248.206-.25.384a6.549,6.549,0,0,0,.008,1.009c.062.436-.2,1.263.179,1.229C457.458,336.979,456.992,336.209,457.156,335.838Zm-33.789-.087h0c0-.362,0-.725,0-1.087,0-.14-.054-.271-.209-.27s-.213.131-.214.271c0,.725,0,1.449,0,2.174,0,.148.079.266.218.268s.212-.122.212-.268Zm14.581-.4c-.636-.118-1.13-.106-.962.729a3.34,3.34,0,0,1,0,.7c0,.137.015.289.169.3.227.019.212-.172.211-.326C437.366,336.222,437.237,335.634,437.947,335.355Zm-3.168,22.871c-.163-.025-.253.044-.254.153q-.016.978,0,1.957c0,.12.114.166.224.161.2-.008.246-.13.257-.312a3.7,3.7,0,0,1,.142-1.386C435.257,358.547,434.922,358.384,434.779,358.227Zm-18.483.965c0,.4,0,.745,0,1.084a.22.22,0,0,0,.24.242.228.228,0,0,0,.245-.242,4.477,4.477,0,0,0-.011-1.015c-.079-.354.33-1-.269-1.008C416.092,358.25,416.4,358.909,416.3,359.191Zm32.228.153h.01c0-.235.006-.47,0-.705-.007-.2.056-.459-.278-.434-.266.02-.224.241-.224.416,0,.523,0,1.045,0,1.568,0,.164.017.324.233.327s.258-.133.257-.31C448.523,359.919,448.525,359.632,448.525,359.344Zm-41.471-23.12c-.161-.305.211-.907-.225-.916s-.185.587-.2.9c-.01.294-.212.857.182.859C407.256,337.07,406.911,336.515,407.054,336.224Zm50.98-.052c-.142-.289.185-.849-.21-.852-.365,0-.165.561-.164.861s-.213.858.171.857S457.9,336.471,458.034,336.173Zm-13.331.02c.2.265-.179.833.239.839.345.005.153-.571.158-.879.005-.284.147-.836-.138-.82C444.5,335.36,444.89,335.892,444.7,336.193Zm-28.19-.02c-.146-.282.183-.834-.21-.836s-.164.548-.164.84-.216.839.162.839S416.376,336.462,416.513,336.173Z" transform="translate(-377.636 -321)" fill="#fcfcfc"/>
        <path id="Trazado_217649" data-name="Trazado 217649" d="M629.511,440.513l.5,0a1.372,1.372,0,0,0,.773,0h.313a7.6,7.6,0,0,0,1.886,0l.33,0,2.7.055q.068.726.135,1.452-.007,3.684-.013,7.368c-2.265.017-4.529.038-6.793.05-1.461.007-1.461,0-1.587-1.463a.476.476,0,0,0-.063-.14q0-.161.005-.322c.014-.015.042-.032.041-.044a.617.617,0,0,0-.036-.109q-.007-3.081-.013-6.161c.142-.211-.016-.625.428-.634l.615-.035.321,0Z" transform="translate(-573.261 -414.496)" fill="#e7a904"/>
        <path id="Trazado_217650" data-name="Trazado 217650" d="M688.732,436.9c-.016.228-.177.282-.366.3H685.85l-.6-.065.015.011q-.023-4.849-.045-9.7l.153-.309c.783.005,1.571.06,2.349,0,.756-.057,1.018.13,1,.963-.055,2.872-.01,5.746,0,8.619Z" transform="translate(-618.268 -404.031)" fill="#0749b9"/>
        <path id="Trazado_217651" data-name="Trazado 217651" d="M717.819,412.822c.965,0,1.93.009,2.895-.008.365-.006.5.117.5.494q-.017,3.911,0,7.822c0,.362-.1.522-.486.51-.988-.031-1.977-.039-2.966-.055Q717.792,417.2,717.819,412.822Z" transform="translate(-643.727 -392.828)" fill="#c8353e"/>
        <path id="Trazado_217652" data-name="Trazado 217652" d="M576.048,425.871c-1.63.145-1.626.145-1.625-1.417,0-3.612.026-7.224-.018-10.835-.009-.756.175-1.06.931-.914.246.047.527-.108.74.129Q576.062,419.353,576.048,425.871Z" transform="translate(-531.572 -392.716)" fill="#060606"/>
        <path id="Trazado_217653" data-name="Trazado 217653" d="M621.055,419.538c-.01,1.88-.049,3.76-.015,5.639.011.594-.2.692-.715.657-.43-.029-.78.061-.775-.614q.049-5.916,0-11.833c-.006-.68.36-.593.786-.608.445-.015.72.017.709.605-.03,1.67.008,3.341.02,5.011A2.139,2.139,0,0,0,621.055,419.538Z" transform="translate(-566.888 -392.799)" fill="#060606"/>
        <path id="Trazado_217654" data-name="Trazado 217654" d="M558.109,419.423c0,1.987,0,3.975,0,5.962,0,.34.022.593-.467.594-.467,0-.486-.213-.485-.573q.013-6.041,0-12.082c0-.326-.041-.6.459-.6.466,0,.492.222.49.579C558.1,415.343,558.109,417.383,558.109,419.423Z" transform="translate(-518.082 -392.757)" fill="#141414"/>
        <path id="Trazado_217655" data-name="Trazado 217655" d="M569.7,419.4q0,2.984,0,5.969c0,.316.06.612-.45.615-.48,0-.482-.24-.482-.585q.009-6.047,0-12.095c0-.355.016-.574.486-.574.526,0,.44.319.44.622Q569.7,416.374,569.7,419.4Z" transform="translate(-527.162 -392.761)" fill="#191919"/>
        <path id="Trazado_217656" data-name="Trazado 217656" d="M477.492,420.369q0-3.489,0-6.977c0-.3-.1-.648.423-.631.507.016.346.378.346.619q.012,7.094,0,14.188c0,.253.135.6-.365.6-.466,0-.4-.3-.4-.584Q477.491,423.975,477.492,420.369Z" transform="translate(-455.75 -392.786)" fill="#191919"/>
        <path id="Trazado_217657" data-name="Trazado 217657" d="M680.387,425.641c-.694.206-.949.017-.94-.77.041-3.839.017-7.678.026-11.517,0-.24-.135-.538.146-.716a.514.514,0,0,1,.773.472c.011.47,0,.94,0,1.41,0,.2-.041.433.264.461.011.116.021.236.032.355l-.012-.013c-.562-.032-.282.4-.283.594C680.379,419.16,680.386,422.4,680.387,425.641Z" transform="translate(-613.744 -392.631)" fill="#141414"/>
        <path id="Trazado_217658" data-name="Trazado 217658" d="M709.283,419.245c0,1.986,0,3.972,0,5.958,0,.358.042.655-.5.641-.521-.014-.429-.33-.429-.631q0-5.919,0-11.838c0-.358-.037-.657.5-.645s.422.342.423.635Q709.288,416.3,709.283,419.245Z" transform="translate(-636.362 -392.762)" fill="#141414"/>
        <path id="Trazado_217659" data-name="Trazado 217659" d="M738.65,420.526c0,2.329,0,4.659,0,6.988,0,.281.14.667-.406.646-.5-.019-.345-.374-.345-.623q-.01-7.066,0-14.133c0-.277-.151-.666.4-.645.5.019.347.372.348.621C738.653,415.762,738.65,418.144,738.65,420.526Z" transform="translate(-659.457 -392.784)" fill="#191919"/>
        <path id="Trazado_217660" data-name="Trazado 217660" d="M603.059,420.464c0,2.356,0,4.712-.006,7.067,0,.247.154.6-.344.625-.546.024-.412-.356-.413-.639q-.015-6.95-.018-13.9c0-.1.009-.21,0-.314-.013-.311,0-.567.44-.547s.33.329.331.561C603.062,415.7,603.059,418.082,603.059,420.464Z" transform="translate(-553.379 -392.783)" fill="#191919"/>
        <path id="Trazado_217661" data-name="Trazado 217661" d="M582.6,412.822c.653-.38.79-.073.788.546-.012,3.986-.021,7.973.005,11.959,0,.67-.3.662-.765.536Z" transform="translate(-537.982 -392.704)" fill="#1f1f1f"/>
        <path id="Trazado_217662" data-name="Trazado 217662" d="M552.761,419.484c0,1.989,0,3.977-.006,5.965,0,.225.147.588-.3.575s-.268-.379-.269-.6q-.015-6,0-12.008c0-.217-.181-.592.252-.611.5-.022.311.4.313.633C552.767,415.455,552.761,417.47,552.761,419.484Z" transform="translate(-514.162 -392.823)" fill="#242424"/>
        <path id="Trazado_217663" data-name="Trazado 217663" d="M702.415,415.412c.009-.732.022-1.465.026-2.2,0-.252,0-.457.356-.466.379-.01.422.182.422.486-.005,4.058.01,8.115-.016,12.173,0,.7-.4.567-.783.217Z" transform="translate(-631.717 -392.776)" fill="#191919"/>
        <path id="Trazado_217664" data-name="Trazado 217664" d="M668.067,412.752c.453-.088.634.04.631.558-.022,4-.011,8-.014,12,0,.242.092.529-.349.532s-.415-.272-.417-.568q-.013-3.37-.033-6.74c.128-1.819.071-3.638.038-5.458Z" transform="translate(-604.705 -392.76)" fill="#141414"/>
        <path id="Trazado_217665" data-name="Trazado 217665" d="M661.487,418.581a.343.343,0,0,0-.132.043,8.985,8.985,0,0,0-.933-.032c-.37.024-.5-.1-.491-.482.031-1.769.036-3.539.051-5.308l1.487.026.062.282Q661.509,415.845,661.487,418.581Z" transform="translate(-598.481 -392.819)" fill="#060606"/>
        <path id="Trazado_217666" data-name="Trazado 217666" d="M537.39,419.362c0-1.984-.005-3.969.006-5.953,0-.246-.153-.658.336-.616.407.035.244.4.245.623q.014,5.992,0,11.985c0,.219.174.589-.25.616-.493.032-.328-.38-.329-.623C537.385,423.383,537.39,421.373,537.39,419.362Z" transform="translate(-502.601 -392.809)" fill="#2a2a2a"/>
        <path id="Trazado_217667" data-name="Trazado 217667" d="M525.677,419.487c0,1.985,0,3.969-.006,5.954,0,.222.152.579-.292.581s-.307-.341-.307-.573q-.008-6.032,0-12.065c0-.227-.135-.581.3-.586s.3.347.306.577c.008,2.037,0,4.074,0,6.111Z" transform="translate(-492.964 -392.816)" fill="#242424"/>
        <path id="Trazado_217668" data-name="Trazado 217668" d="M509.323,419.477c0,1.985,0,3.971-.009,5.956,0,.215.175.6-.273.583s-.244-.395-.245-.607q-.02-5.956-.012-11.912c0-.1,0-.209,0-.313.007-.185,0-.382.276-.367s.258.208.258.391q0,1.724,0,3.448Q509.325,418.066,509.323,419.477Z" transform="translate(-480.213 -392.829)" fill="#060606"/>
        <path id="Trazado_217669" data-name="Trazado 217669" d="M643.443,418.494c0-1.7,0-3.4,0-5.094,0-.349-.059-.663.486-.666.519,0,.444.3.443.61q-.01,2.586-.021,5.171Z" transform="translate(-585.58 -392.765)" fill="#141414"/>
        <path id="Trazado_217670" data-name="Trazado 217670" d="M654.146,418.5c-.008-1.684-.018-3.368-.021-5.052,0-.829.062-.865.96-.584-.009,1.582-.06,3.166-.01,4.746C655.1,418.355,654.918,418.684,654.146,418.5Z" transform="translate(-593.939 -392.744)" fill="#141414"/>
        <path id="Trazado_217671" data-name="Trazado 217671" d="M495.708,413.008v13.105h-.154V413Z" transform="translate(-469.886 -392.971)" fill="#454545"/>
        <path id="Trazado_217672" data-name="Trazado 217672" d="M729.876,456.608c0,.416-.006.831,0,1.247.007.372.067.7-.523.7-.558,0-.634-.225-.62-.695.029-.934.031-1.871-.006-2.8-.019-.5.228-.527.616-.533s.565.1.539.526C729.852,455.567,729.876,456.089,729.876,456.608Z" transform="translate(-652.303 -425.458)" fill="#1f1f1f"/>
        <path id="Trazado_217673" data-name="Trazado 217673" d="M666.906,487.667q0-.118,0-.235c0-1.6.208-1.767,1.813-1.506.175.029.306.053.308.255,0,.219-.151.236-.32.233a7.764,7.764,0,0,1-.783-.007c-.452-.054-.5.182-.505.553-.01.394.138.508.5.479.26-.021.522-.006.784,0,.173,0,.314.047.3.259s-.157.244-.325.244c-.209,0-.418.006-.627,0-.356-.015-.63-.04-.645.5-.015.571.27.527.662.57.34.037.974-.28.966.239-.007.432-.651.133-1,.208-.175.037-.369-.018-.547.011-.515.084-.63-.158-.588-.618C666.935,488.454,666.906,488.059,666.906,487.667Z" transform="translate(-603.926 -449.947)" fill="#191919"/>
        <path id="Trazado_217674" data-name="Trazado 217674" d="M524.143,492.749a.559.559,0,0,1,0-.078c.057-.349-.144-.981.122-1,.465-.026.961-.287,1.412-.06a.811.811,0,0,0,.833.019.78.78,0,0,1,1.181.687c.045.414.011.836.02,1.254.005.216-.063.367-.3.347-.195-.016-.243-.162-.241-.336,0-.34,0-.68,0-1.019,0-.318-.077-.595-.463-.584s-.554.23-.535.617c.015.313,0,.627,0,.941,0,.193,0,.388-.268.376s-.24-.219-.24-.4c0-.34,0-.68-.01-1.019-.011-.289-.12-.527-.457-.514a.511.511,0,0,0-.553.534c-.009.366,0,.732,0,1.1,0,.176-.052.318-.252.32s-.248-.147-.248-.319C524.144,493.324,524.143,493.037,524.143,492.749Z" transform="translate(-492.237 -454.404)" fill="#242424"/>
        <path id="Trazado_217675" data-name="Trazado 217675" d="M607.859,492.808a.709.709,0,0,1,0-.078c.038-.355-.112-.994.09-1.013.5-.046,1.046-.335,1.531-.043a.639.639,0,0,0,.691-.007c.705-.292,1.18.024,1.218.783.019.39,0,.782,0,1.173,0,.174-.043.319-.25.313s-.254-.137-.251-.318c0-.313,0-.625,0-.938s-.008-.671-.443-.685-.581.259-.552.666a4.126,4.126,0,0,1-.005.7c-.021.2.14.533-.236.551-.395.018-.244-.317-.258-.519-.02-.285.011-.574-.011-.859-.023-.308-.13-.581-.517-.539a.493.493,0,0,0-.506.563c.015.338,0,.678.005,1.016,0,.2-.025.381-.285.358-.207-.018-.222-.179-.221-.345,0-.261,0-.521,0-.782Z" transform="translate(-557.731 -454.42)" fill="#1f1f1f"/>
        <path id="Trazado_217676" data-name="Trazado 217676" d="M580.531,489.739a1.975,1.975,0,0,1-1.94-1.224,1.761,1.761,0,0,1,.531-1.982,2.429,2.429,0,0,1,2.3-.289.375.375,0,0,1,.213.511c-.094.224-.261.025-.394,0-.1-.02-.2-.077-.3-.1a1.437,1.437,0,0,0-1.666.54,1.187,1.187,0,0,0,.036,1.461,1.5,1.5,0,0,0,1.617.5c.25-.043.585-.565.749-.095.174.5-.4.494-.715.609A1.92,1.92,0,0,1,580.531,489.739Z" transform="translate(-534.759 -450.139)" fill="#1f1f1f"/>
        <path id="Trazado_217677" data-name="Trazado 217677" d="M627.752,418.374c.009-1.643.011-3.286.033-4.928,0-.293-.172-.69.429-.7.635-.015.495.391.485.727-.048,1.69.084,3.384-.073,5.072C628.338,418.467,628,418.652,627.752,418.374Z" transform="translate(-573.307 -392.771)" fill="#060606"/>
        <ellipse id="Elipse_5585" data-name="Elipse 5585" cx="0.114" cy="10.809" rx="0.114" ry="10.809" transform="translate(78.013 16.864)" fill="#585858"/>
        <path id="Trazado_217678" data-name="Trazado 217678" d="M612.363,413.009v15.284h-.153V413.021Z" transform="translate(-561.148 -392.981)" fill="#585858"/>
        <path id="Trazado_217679" data-name="Trazado 217679" d="M480.4,488.85c.108.315.049.5-.2.642a2.182,2.182,0,0,1-2.525-.472,1.783,1.783,0,0,1-.008-2.306,2.306,2.306,0,0,1,2.527-.5.368.368,0,0,1,.224.441c-.08.349-.289.1-.413.056a1.654,1.654,0,0,0-1.709.164,1.212,1.212,0,0,0-.363,1.489,1.253,1.253,0,0,0,1.394.793A6.3,6.3,0,0,0,480.4,488.85Z" transform="translate(-455.559 -450.101)" fill="#1f1f1f"/>
        <path id="Trazado_217680" data-name="Trazado 217680" d="M638.486,418.568a4.423,4.423,0,0,1-.107-1.762c-.028-1.2,0-2.393-.012-3.59,0-.315.079-.482.439-.47s.332.252.331.484q-.01,2.653-.025,5.306Z" transform="translate(-581.593 -392.774)" fill="#1f1f1f"/>
        <path id="Trazado_217681" data-name="Trazado 217681" d="M519.245,412.949v13.173h-.16V412.96Z" transform="translate(-488.294 -392.934)" fill="#585858"/>
        <path id="Trazado_217682" data-name="Trazado 217682" d="M542.345,413.031v13.113l-.146,0v-13.1Z" transform="translate(-506.377 -392.998)" fill="#585858"/>
        <path id="Trazado_217683" data-name="Trazado 217683" d="M547.738,426.13v-13.11l.153,0v13.116Z" transform="translate(-510.71 -392.988)" fill="#585858"/>
        <path id="Trazado_217684" data-name="Trazado 217684" d="M565.538,426.094a116.6,116.6,0,0,1-.032-13.137C565.724,413.487,565.753,425.4,565.538,426.094Z" transform="translate(-524.478 -392.94)" fill="#585858"/>
        <path id="Trazado_217685" data-name="Trazado 217685" d="M589.64,426.127V413.014h.15v13.123Z" transform="translate(-543.491 -392.984)" fill="#585858"/>
        <path id="Trazado_217686" data-name="Trazado 217686" d="M715.223,421.553v4.312c-.463-.14-.315-.428-.316-.626q-.013-5.921,0-11.842c0-.228-.15-.552.252-.637.012.284.034.569.036.854Q715.213,417.584,715.223,421.553Z" transform="translate(-641.471 -392.787)" fill="#585858"/>
        <path id="Trazado_217687" data-name="Trazado 217687" d="M487.729,412.991v13.126l-.261,0c-.014-4.373,0-8.746,0-13.119Z" transform="translate(-463.555 -392.966)" fill="#585858"/>
        <path id="Trazado_217688" data-name="Trazado 217688" d="M502,426.1V412.975h.155V426.1Z" transform="translate(-474.927 -392.954)" fill="#454545"/>
        <ellipse id="Elipse_5586" data-name="Elipse 5586" cx="0.102" cy="9.158" rx="0.102" ry="9.158" transform="translate(52.073 17.343)" fill="#585858"/>
        <path id="Trazado_217689" data-name="Trazado 217689" d="M543.468,487.507c1.277-.058,1.738.3,1.715,1.267a1.054,1.054,0,0,1-.6,1.016,1.832,1.832,0,0,1-1.451.017c-.232-.084-.162-.3-.163-.473q-.011-1.254,0-2.509c0-.194-.072-.463.249-.472.337-.01.242.27.253.458C543.478,487.041,543.468,487.274,543.468,487.507Zm-.008,1.175c0,.4-.105.835.483.8a.77.77,0,0,0,.055-1.534C543.406,487.909,543.436,488.333,543.46,488.682Z" transform="translate(-506.969 -450.358)" fill="#191919"/>
        <path id="Trazado_217690" data-name="Trazado 217690" d="M750.066,386.443c-.427.166-.785-.027-1.011.281a.715.715,0,0,0-.1.736c.195.5.688.247,1.011.418.118.062.192.045.207-.1.011-.1,0-.21.018-.311.059-.333.319-.446.6-.549.142-.052.447.069.376-.238-.046-.2-.274-.208-.465-.159-.117.03-.238.117-.374-.094a.742.742,0,0,1,.886-.193.634.634,0,0,1,.428.6c.011.1.007.209.01.313.027.992-.41,1.283-1.332.794-.309-.164-.333.069-.491.127a.922.922,0,0,1-1.18-.33.942.942,0,0,1,.1-1.23A.89.89,0,0,1,750.066,386.443Zm1.19,1.012c.013-.159-.065-.248-.218-.242-.214.008-.419.062-.453.318a.251.251,0,0,0,.263.3C751.088,387.836,751.21,387.677,751.256,387.455Z" transform="translate(-667.744 -371.988)" fill="#363636"/>
        <path id="Trazado_217691" data-name="Trazado 217691" d="M736.451,492.862c.347.747.806.677,1.307.5.125-.044.278-.235.394-.017a.3.3,0,0,1-.138.406,1.467,1.467,0,0,1-1.493.06,1.2,1.2,0,0,1-.564-1.349,1.072,1.072,0,0,1,1-.945,1.04,1.04,0,0,1,1.071.5.811.811,0,0,1,.159.665c-.1.305-.4.163-.613.176C737.24,492.877,736.9,492.862,736.451,492.862Zm.068-.416a3.117,3.117,0,0,0,1.088-.036C737.141,491.785,737.019,491.786,736.519,492.446Z" transform="translate(-657.936 -454.392)" fill="#2a2a2a"/>
        <path id="Trazado_217692" data-name="Trazado 217692" d="M599.472,426.131V413.039c.368,4.363.2,8.728.245,13.091Z" transform="translate(-551.183 -393.004)" fill="#585858"/>
        <path id="Trazado_217693" data-name="Trazado 217693" d="M705.656,492.868c.346.8.842.675,1.351.478.121-.047.243-.148.331.006a.263.263,0,0,1-.08.352,1.407,1.407,0,0,1-1.621.071,1.31,1.31,0,0,1-.389-1.619,1.093,1.093,0,0,1,1.389-.573,1.031,1.031,0,0,1,.714.768c.11.366.006.544-.4.522C706.56,492.853,706.169,492.868,705.656,492.868Zm1.163-.465c-.571-.607-.723-.592-1.07.039A2.076,2.076,0,0,0,706.819,492.4Z" transform="translate(-633.832 -454.401)" fill="#242424"/>
        <path id="Trazado_217694" data-name="Trazado 217694" d="M626.712,493.3q0-.352,0-.7c0-1.037,0-1.037,1.051-1.055a1.13,1.13,0,0,1,1.168,1.194c.012.719-.452,1.318-1.1,1.231-.627-.084-.685.154-.633.645.02.182.095.467-.227.479s-.246-.272-.25-.46C626.706,494.189,626.713,493.746,626.712,493.3Zm.492-.331c.007.132-.142.615.492.586a.693.693,0,0,0,.714-.755.715.715,0,0,0-.729-.823C627.12,491.957,627.184,492.373,627.2,492.971Z" transform="translate(-572.491 -454.419)" fill="#191919"/>
        <path id="Trazado_217695" data-name="Trazado 217695" d="M689.516,424.985l.006,10.212-.124,0-.123-.156c-.007-2.873-.053-5.747,0-8.619.016-.832-.246-1.019-1-.963-.779.059-1.566,0-2.349,0,0-.053,0-.106,0-.16l.633-.159a.94.94,0,0,0,1.1-.013l.277-.042c.236.35.51.2.783.06l.207,0C689.2,425.359,689.362,425.189,689.516,424.985Z" transform="translate(-618.818 -402.35)" fill="#e8e8e8"/>
        <path id="Trazado_217696" data-name="Trazado 217696" d="M649.445,493.078c-.195.3.389,1.014-.341,1.061-1.573.1-2.118-.251-2.131-1.12a1.227,1.227,0,0,1,1.214-1.26C649.437,491.765,649.437,491.765,649.445,493.078Zm-1.229.737c.5-.081.8-.328.782-.831a.778.778,0,1,0-1.555.037A.781.781,0,0,0,648.216,493.815Z" transform="translate(-588.343 -454.589)" fill="#242424"/>
        <path id="Trazado_217697" data-name="Trazado 217697" d="M561.921,493.108c-.261.26.452,1-.35,1.019-1.652.035-2.105-.273-2.085-1.145a1.211,1.211,0,0,1,1.192-1.2C561.925,491.772,561.925,491.772,561.921,493.108Zm-.4-.084c-.053-.474-.3-.807-.78-.811a.735.735,0,0,0-.8.841.727.727,0,0,0,.794.768A.776.776,0,0,0,561.521,493.024Z" transform="translate(-519.9 -454.605)" fill="#191919"/>
        <path id="Trazado_217698" data-name="Trazado 217698" d="M512.219,491.512a1.242,1.242,0,0,1,1.274,1.2,1.238,1.238,0,1,1-1.274-1.2Zm.023,2c.45-.09.734-.324.717-.8a.672.672,0,0,0-.75-.721.688.688,0,0,0-.672.733A.749.749,0,0,0,512.242,493.514Z" transform="translate(-481.983 -454.394)" fill="#1f1f1f"/>
        <path id="Trazado_217699" data-name="Trazado 217699" d="M494.652,493.979a1.265,1.265,0,0,1-1.288-1.2,1.247,1.247,0,0,1,2.494-.072A1.239,1.239,0,0,1,494.652,493.979Zm-.025-.462a.743.743,0,0,0,.708-.776.715.715,0,1,0-1.429.018A.723.723,0,0,0,494.628,493.517Z" transform="translate(-468.172 -454.399)" fill="#1f1f1f"/>
        <path id="Trazado_217700" data-name="Trazado 217700" d="M595.934,491.519a1.23,1.23,0,1,1-.054,2.46,1.23,1.23,0,1,1,.054-2.46Zm.7,1.19c-.064-.433-.307-.735-.756-.71a.688.688,0,0,0-.682.782.68.68,0,0,0,.745.718C596.39,493.48,596.608,493.163,596.634,492.709Z" transform="translate(-547.422 -454.4)" fill="#1f1f1f"/>
        <path id="Trazado_217701" data-name="Trazado 217701" d="M717.411,492.678c0-.026,0-.052,0-.078,0-1.016.3-1.277,1.322-1.113a.729.729,0,0,1,.679.738c.017.417.008.835.011,1.253,0,.19,0,.389-.267.374s-.235-.226-.237-.406c0-.339-.006-.679-.01-1.018,0-.3-.128-.515-.455-.511a.481.481,0,0,0-.54.527c0,.365,0,.731,0,1.1,0,.178-.052.313-.253.315s-.254-.137-.252-.314C717.414,493.253,717.411,492.965,717.411,492.678Z" transform="translate(-643.448 -454.34)" fill="#1f1f1f"/>
        <path id="Trazado_217702" data-name="Trazado 217702" d="M721.385,456.539c0,.546-.015,1.091,0,1.636.011.315-.122.409-.413.4-.256-.008-.372-.1-.369-.371.009-1.091.005-2.182,0-3.273,0-.268.126-.35.381-.361.312-.013.41.113.4.41C721.375,455.5,721.386,456.02,721.385,456.539Z" transform="translate(-645.95 -425.495)" fill="#191919"/>
        <path id="Trazado_217703" data-name="Trazado 217703" d="M627,474.145a.474.474,0,0,1,.063.14c.126,1.463.126,1.47,1.587,1.463,2.264-.011,4.529-.032,6.793-.05.116.4-.194.284-.365.284-2.537.007-5.074,0-7.611.01-.468,0-.7-.192-.642-.656C626.872,474.938,626.664,474.5,627,474.145Z" transform="translate(-572.565 -440.808)" fill="#d0ccb1"/>
        <path id="Trazado_217704" data-name="Trazado 217704" d="M683.574,435.566c0-3.241-.008-6.482.009-9.722,0-.2-.278-.627.283-.594-.1.246-.223.491.021.726l.045,9.7C683.792,435.707,683.66,435.71,683.574,435.566Z" transform="translate(-616.931 -402.555)" fill="#e8e8e8"/>
        <path id="Trazado_217705" data-name="Trazado 217705" d="M691.417,493.469c.089.012.3-.239.377.083.051.218-.067.338-.284.381a1.382,1.382,0,0,1-1.43-.415,1.145,1.145,0,0,1-.107-1.392,1.253,1.253,0,0,1,1.351-.593c.2.028.454.074.433.356-.028.374-.276.163-.454.144-.553-.059-.966.129-.948.741S690.831,493.511,691.417,493.469Z" transform="translate(-621.839 -454.397)" fill="#1f1f1f"/>
        <path id="Trazado_217706" data-name="Trazado 217706" d="M680.219,486.527c-.555.076-.937.238-.426.851.044.053.089.183.068.2-.562.48-.2,1.119-.291,1.678-.029.183.013.383-.256.388s-.239-.188-.27-.375c-.09-.54.195-1.105-.2-1.664a1.787,1.787,0,0,1,.491-1.319.572.572,0,0,1,.883,0Z" transform="translate(-613.26 -450.143)" fill="#191919"/>
        <path id="Trazado_217707" data-name="Trazado 217707" d="M716.225,421.553q-.012-3.969-.025-7.939c0-.285-.023-.569-.036-.854l.4.02q-.026,4.381-.053,8.763Z" transform="translate(-642.473 -392.787)" fill="#e8e8e8"/>
        <path id="Trazado_217708" data-name="Trazado 217708" d="M729.115,492.621a.656.656,0,0,1-.637-.512c-.16-.516.211-1.132-.289-1.606a2.339,2.339,0,0,1,.574-.673c.3-.2.141.242.285.293a1.936,1.936,0,0,0,.368.076c.135.02.269.047.277.211s-.094.236-.244.233c-.763-.011-.409.567-.459.905s.008.657.5.532c.186-.047.23.092.211.227C729.65,492.69,729.333,492.587,729.115,492.621Z" transform="translate(-651.881 -453.04)" fill="#242424"/>
        <path id="Trazado_217709" data-name="Trazado 217709" d="M653.68,418.575c.772.183.953-.145.929-.89-.05-1.58,0-3.164.01-4.747l.355-.137c-.015,1.77-.02,3.539-.051,5.308-.007.382.122.505.491.482a8.985,8.985,0,0,1,.933.032l.128.306-.247-.041-2.7-.055Z" transform="translate(-593.473 -392.819)" fill="#e8e8e8"/>
        <path id="Trazado_217710" data-name="Trazado 217710" d="M466.222,385.676c-.321.054-.394-.118-.435-.3a.6.6,0,0,0-1.156-.045c-.041.162-.083.432-.324.351-.259-.088-.074-.306-.024-.46.186-.572.376-1.143.579-1.709.057-.16.075-.375.325-.385s.293.184.346.356A14.9,14.9,0,0,1,466.222,385.676Zm-1.031-1.935c-.111.286-.4.522-.224.858a.451.451,0,0,0,.414.018C465.643,384.294,465.309,384.043,465.192,383.741Z" transform="translate(-445.335 -369.601)" fill="#242424"/>
        <path id="Trazado_217711" data-name="Trazado 217711" d="M603.141,387.284c.15.7.648.54,1.123.531-.241.539-.63.372-.956.278-.487-.141-.585-.544-.559-.993a.861.861,0,0,1,.736-.879.691.691,0,0,1,.826.432c.156.359.184.674-.377.634C603.683,387.269,603.43,387.284,603.141,387.284Z" transform="translate(-553.743 -372.009)" fill="#363636"/>
        <path id="Trazado_217712" data-name="Trazado 217712" d="M484.53,387.28c.162.72.69.517,1.134.553-.435.38-.839.435-1.171.168a1,1,0,0,1-.26-1.276.791.791,0,0,1,.954-.5.721.721,0,0,1,.592.81c-.034.406-.4.2-.626.241A4.274,4.274,0,0,1,484.53,387.28Z" transform="translate(-460.935 -372.006)" fill="#363636"/>
        <path id="Trazado_217713" data-name="Trazado 217713" d="M537.769,386.625c.683-.535,1.231-.372,1.35.323.158.923.014,1.184-.692,1.287-.344.05-.64,0-.751-.369-.106-.357.088-.569.378-.769.191-.131.664.073.566-.321C538.53,386.419,538.119,386.728,537.769,386.625Z" transform="translate(-502.815 -372.091)" fill="#363636"/>
        <path id="Trazado_217714" data-name="Trazado 217714" d="M594.722,384.4a1.612,1.612,0,0,0,.007.468c.234.728-.187.859-.764.89-.643.034-.912-.34-.939-.9s.2-1.038.819-1.022c.422.011.641.02.537-.473a.171.171,0,0,1,.144-.229c.175-.018.2.1.2.247C594.717,383.719,594.722,384.058,594.722,384.4Zm-.324.363c-.03-.332-.137-.66-.525-.629-.372.03-.482.358-.466.7.015.313.137.616.484.593A.554.554,0,0,0,594.4,384.761Z" transform="translate(-546.139 -369.606)" fill="#242424"/>
        <path id="Trazado_217715" data-name="Trazado 217715" d="M483.351,413.089v15.259h-.117V413.122Z" transform="translate(-460.247 -393.043)" fill="#191919"/>
        <path id="Trazado_217716" data-name="Trazado 217716" d="M685.869,415.556l-.633.159-.163-.245c-.01-.12-.021-.239-.032-.355.019-.591.033-1.185.061-1.78.012-.259-.113-.586.366-.6s.388.3.391.57C685.868,414.054,685.866,414.805,685.869,415.556Z" transform="translate(-618.125 -392.764)" fill="#1f1f1f"/>
        <path id="Trazado_217717" data-name="Trazado 217717" d="M712.785,384.34a4.2,4.2,0,0,1,0-.469c.038-.342-.2-.841.485-.823.491.013.978.017,1.1.626a.731.731,0,0,1-.682.949c-.459.041-.583.211-.529.624.019.148.034.372-.168.372-.267,0-.193-.252-.2-.419-.008-.287,0-.574,0-.861Zm.368-.5c0,.229-.078.5.3.5.333-.007.563-.151.554-.514-.008-.326-.228-.437-.525-.456C713.1,383.343,713.156,383.609,713.152,383.84Z" transform="translate(-639.824 -369.541)" fill="#2a2a2a"/>
        <path id="Trazado_217718" data-name="Trazado 217718" d="M597.558,413.079v13.053h-.109V413.117Z" transform="translate(-549.6 -393.035)" fill="#1f1f1f"/>
        <path id="Trazado_217719" data-name="Trazado 217719" d="M616.6,383.322c-.9.08-1.242.385-1.2,1.076s.428.931,1.333.877a.607.607,0,0,1,.2.074,1.074,1.074,0,0,1-1.376.129,1.287,1.287,0,0,1-.489-1.588,1.2,1.2,0,0,1,1.528-.852Q616.6,383.18,616.6,383.322Z" transform="translate(-563.312 -369.506)" fill="#363636"/>
        <path id="Trazado_217720" data-name="Trazado 217720" d="M530.887,426.163V413.119H531v13.062Z" transform="translate(-497.527 -393.067)" fill="#242424"/>
        <path id="Trazado_217721" data-name="Trazado 217721" d="M513.6,426.188V413.145h.12V426.2Z" transform="translate(-484.003 -393.087)" fill="#242424"/>
        <path id="Trazado_217722" data-name="Trazado 217722" d="M582.093,413.405l.029,13.04-.169,0q.014-6.518.029-13.037A.306.306,0,0,1,582.093,413.405Z" transform="translate(-537.477 -393.287)" fill="#e8e8e8"/>
        <path id="Trazado_217723" data-name="Trazado 217723" d="M675.345,413.077v12.9h-.1V413.1Z" transform="translate(-610.46 -393.034)" fill="#141414"/>
        <path id="Trazado_217724" data-name="Trazado 217724" d="M559.665,387.2a.883.883,0,0,1-.9.972.847.847,0,0,1-.919-.936.915.915,0,1,1,1.82-.036Zm-.37-.015c-.04-.327-.16-.652-.531-.654-.419,0-.547.336-.538.711.009.351.159.64.544.618S559.259,387.524,559.3,387.183Z" transform="translate(-518.617 -372.016)" fill="#2a2a2a"/>
        <path id="Trazado_217725" data-name="Trazado 217725" d="M691.231,387.291a.874.874,0,0,1-.962.922.863.863,0,0,1-.857-1,.9.9,0,0,1,1-.94A.881.881,0,0,1,691.231,387.291Zm-.934-.736a.64.64,0,0,0-.508.765c.031.342.192.634.587.581.379-.051.481-.366.468-.706S690.689,386.592,690.3,386.555Z" transform="translate(-621.544 -372.06)" fill="#242424"/>
        <path id="Trazado_217726" data-name="Trazado 217726" d="M626.818,387.173a.92.92,0,0,1-.934,1.018.862.862,0,0,1-.873-.982.906.906,0,1,1,1.807-.036Zm-1.439-.014c.007.335.072.688.51.711.389.02.532-.288.548-.626s-.1-.657-.474-.7S625.426,386.784,625.38,387.159Z" transform="translate(-571.163 -372.029)" fill="#2a2a2a"/>
        <path id="Trazado_217727" data-name="Trazado 217727" d="M634,418.734V413c.262,0,.285.137.285.267q0,2.578,0,5.157a.39.39,0,0,1-.129.349Z" transform="translate(-578.196 -392.973)" fill="#585858"/>
        <path id="Trazado_217728" data-name="Trazado 217728" d="M528.369,383.552l1.066,1.547c0-.585,0-1.007,0-1.429,0-.145-.044-.352.17-.365.232-.014.185.2.187.343.009.6.009,1.2,0,1.8,0,.144.056.334-.159.381-.175.039-.275-.072-.374-.21a7.5,7.5,0,0,0-1.085-1.57C527.906,383.751,528.364,383.738,528.369,383.552Z" transform="translate(-495.341 -369.742)" fill="#242424"/>
        <path id="Trazado_217729" data-name="Trazado 217729" d="M514.6,386.8a1.052,1.052,0,0,1,.966,1.561c-.194.359-.69.109-1.047.153-.285.035-.417-.14-.425-.422-.011-.339.124-.489.477-.571.2-.046.588,0,.6-.314C515.178,386.945,514.8,386.959,514.6,386.8Zm-.11,1.226a.3.3,0,0,0,.278.3A.358.358,0,0,0,515.2,388c.028-.177-.025-.294-.244-.278S514.547,387.769,514.491,388.029Z" transform="translate(-484.39 -372.48)" fill="#191919"/>
        <path id="Trazado_217730" data-name="Trazado 217730" d="M644.251,383.774c.181.333.3.635.715.681-.636.4-.742,1.012-.313,1.461.079.083.266.088.153.261a.282.282,0,0,1-.352.076.684.684,0,0,1-.308-.21c-.328-.45.16-1.09-.338-1.536A4.456,4.456,0,0,1,644.251,383.774Z" transform="translate(-585.866 -370.109)" fill="#363636"/>
        <path id="Trazado_217731" data-name="Trazado 217731" d="M664.938,386.318c-.253.349-.647.312-.755.008a3.217,3.217,0,0,1-.176-1.831c.09-.366.253-.633.474-.033.046.126.277.183.432.278a.888.888,0,0,0,.033,1.6Z" transform="translate(-601.617 -370.371)" fill="#454545"/>
        <path id="Trazado_217732" data-name="Trazado 217732" d="M503.951,386.671c-.506.087-1.135-.012-1.113.7.02.658.539.648,1.039.709a.757.757,0,0,1-1.086.072,1.026,1.026,0,0,1-.153-1.407C502.953,386.352,503.408,386.3,503.951,386.671Z" transform="translate(-475.264 -372.181)" fill="#363636"/>
        <path id="Trazado_217733" data-name="Trazado 217733" d="M667.082,419.688q.022-2.735.043-5.47l.17.023c.033,1.82.09,3.64-.038,5.458Z" transform="translate(-604.076 -393.926)" fill="#d0ccb1"/>
        <path id="Trazado_217734" data-name="Trazado 217734" d="M506.788,488.124c0-.494,0-.989,0-1.483,0-.164.039-.318.253-.313s.245.154.245.321q0,1.445,0,2.889c0,.178-.061.313-.257.314s-.24-.156-.24-.322Q506.787,488.827,506.788,488.124Z" transform="translate(-478.673 -450.339)" fill="#191919"/>
        <path id="Trazado_217735" data-name="Trazado 217735" d="M547.344,386.492c-.51.081-1.057.069-1.036.773.02.668.562.605,1.027.7a.762.762,0,0,1-1.11.032.928.928,0,0,1-.149-1.333A.8.8,0,0,1,547.344,386.492Z" transform="translate(-509.243 -372.049)" fill="#363636"/>
        <path id="Trazado_217736" data-name="Trazado 217736" d="M678.923,386.985c-.489.14-1.024.208-.932.913.082.628.589.531,1.194.558a.876.876,0,0,1-1.139.2.905.905,0,0,1-.4-1.157C677.843,386.82,678.436,387.04,678.923,386.985Z" transform="translate(-612.293 -372.621)" fill="#2a2a2a"/>
        <path id="Trazado_217737" data-name="Trazado 217737" d="M656.3,386.7c.655.428.341,1.1.323,1.643-.006.164-.644.255-1.011.191a.482.482,0,0,1-.415-.573c.054-.362.247-.614.678-.528.012.128.023.257.034.385.014.162.061.314.238.352.048.01.14-.07.173-.13a.351.351,0,0,0-.017-.432,1.4,1.4,0,0,0-.413-.187c.073-.166.54-.118.259-.477Z" transform="translate(-594.776 -372.401)" fill="#363636"/>
        <path id="Trazado_217738" data-name="Trazado 217738" d="M686.19,492.985c0,.262,0,.523,0,.785,0,.184.025.389-.239.408s-.27-.176-.27-.368q0-.785,0-1.57c0-.19-.005-.389.269-.369s.241.225.242.408C686.191,492.514,686.19,492.75,686.19,492.985Z" transform="translate(-618.624 -454.675)" fill="#1f1f1f"/>
        <path id="Trazado_217739" data-name="Trazado 217739" d="M475.754,388.322c.108-.362-.1-.3-.325-.257a.744.744,0,0,1-.885-.461,1,1,0,0,1,.176-1.155.666.666,0,0,1,.966-.136l0,.29c-.429-.22-.728-.089-.811.372-.088.487.067.836.66.784C475.761,387.89,476.03,388,475.754,388.322Z" transform="translate(-453.365 -371.976)" fill="#363636"/>
        <path id="Trazado_217740" data-name="Trazado 217740" d="M476.329,386.947l0-.29c.179.04.5-.256.5.2a13.235,13.235,0,0,1-.037,1.643c-.09.7-.733.894-1.538.443.38-.217.88.156,1.141-.282.276-.32.007-.432-.214-.562C476.6,387.767,476.519,387.364,476.329,386.947Z" transform="translate(-454.002 -372.32)" fill="#242424"/>
        <path id="Trazado_217741" data-name="Trazado 217741" d="M741.295,384.016c-.164.371.3,1.141-.248,1.19-.381.034-.117-.793-.179-1.229a6.556,6.556,0,0,1-.008-1.009c0-.179-.012-.4.25-.384.206.014.183.212.184.365C741.3,383.286,741.295,383.623,741.295,384.016Z" transform="translate(-661.774 -369.178)" fill="#454545"/>
        <path id="Trazado_217742" data-name="Trazado 217742" d="M586.172,383.885v1.087c0,.147-.067.271-.212.268s-.219-.12-.218-.268c0-.725,0-1.449,0-2.174,0-.14.063-.269.214-.271s.208.13.209.27c0,.362,0,.725,0,1.087Z" transform="translate(-540.441 -369.135)" fill="#454545"/>
        <path id="Trazado_217743" data-name="Trazado 217743" d="M577.914,387.022c.118-.1.46.017.361-.258-.14-.391-.528-.108-.9-.153a.692.692,0,0,1,.838-.323.6.6,0,0,1,.5.606c.019.336.014.674.014,1.011,0,.306-.211.217-.382.2-.254-.116-.1-.252-.038-.409.181-.426-.082-.452-.4-.414Z" transform="translate(-533.897 -372.052)" fill="#1f1f1f"/>
        <path id="Trazado_217744" data-name="Trazado 217744" d="M699.61,386.451c.458-.125.951-.534,1.372-.039.384.45.211,1.038.155,1.575,0,.033-.134.088-.185.07a.229.229,0,0,1-.123-.169c-.015-.26,0-.522-.012-.782-.029-.466-.252-.665-.722-.49A.487.487,0,0,0,699.61,386.451Z" transform="translate(-629.523 -371.987)" fill="#363636"/>
        <path id="Trazado_217745" data-name="Trazado 217745" d="M651.124,386.755c-.711.278-.581.867-.58,1.4,0,.154.015.345-.211.326-.153-.013-.171-.165-.168-.3a3.335,3.335,0,0,0,0-.7C649.994,386.648,650.488,386.637,651.124,386.755Z" transform="translate(-590.813 -372.399)" fill="#1f1f1f"/>
        <path id="Trazado_217746" data-name="Trazado 217746" d="M570.445,386.339c.617-.335.913-.031,1.055.544a1.16,1.16,0,0,1,.017.463c-.045.257.17.722-.182.729-.468.009-.207-.48-.238-.742-.05-.422.029-.9-.657-.7Z" transform="translate(-528.471 -372.007)" fill="#454545"/>
        <path id="Trazado_217747" data-name="Trazado 217747" d="M637.483,386.345c.6-.361.917-.091,1.068.5a.807.807,0,0,1,.023.387c-.077.291.233.826-.243.827-.37,0-.164-.522-.18-.8-.024-.443-.05-.814-.652-.647Z" transform="translate(-580.92 -371.993)" fill="#454545"/>
        <path id="Trazado_217748" data-name="Trazado 217748" d="M733.734,386.3a.634.634,0,0,1,.966.295,1.051,1.051,0,0,1-.09,1.248.67.67,0,0,1-1.027.151l-.009-.276c.437.213.773.126.864-.377s-.073-.869-.682-.833Z" transform="translate(-656.094 -371.992)" fill="#2a2a2a"/>
        <path id="Trazado_217749" data-name="Trazado 217749" d="M670.4,387c.3-.113.294-.3.03-.4a2.4,2.4,0,0,0-.74-.014.758.758,0,0,1,.928-.272.621.621,0,0,1,.428.662c.006.31.008.619.008.929s-.209.217-.381.2c-.278-.129-.1-.284-.03-.44.116-.247.042-.4-.24-.43Z" transform="translate(-606.115 -372.053)" fill="#1f1f1f"/>
        <path id="Trazado_217750" data-name="Trazado 217750" d="M639.2,492c.143.158.478.32.364.574a3.7,3.7,0,0,0-.142,1.386c-.012.182-.06.3-.257.312-.11,0-.223-.041-.224-.162q-.01-.978,0-1.957C638.948,492.042,639.038,491.973,639.2,492Z" transform="translate(-582.057 -454.771)" fill="#141414"/>
        <path id="Trazado_217751" data-name="Trazado 217751" d="M496.106,386.363c.636-.3.934.009,1.031.6a4.275,4.275,0,0,1,0,.781c0,.172.048.411-.234.385-.212-.02-.169-.226-.172-.376,0-.209-.006-.418,0-.626.014-.419-.216-.543-.59-.5Z" transform="translate(-470.318 -372.044)" fill="#363636"/>
        <path id="Trazado_217752" data-name="Trazado 217752" d="M555.181,493.074c.1-.282-.2-.941.206-.939.6,0,.19.653.269,1.008a4.481,4.481,0,0,1,.011,1.015.228.228,0,0,1-.245.242.22.22,0,0,1-.24-.242C555.178,493.818,555.181,493.479,555.181,493.074Z" transform="translate(-516.521 -454.882)" fill="#191919"/>
        <path id="Trazado_217753" data-name="Trazado 217753" d="M701.51,493.05c0,.287,0,.575,0,.862,0,.177-.052.312-.257.31s-.232-.163-.233-.327c0-.523-.006-1.045,0-1.568,0-.175-.041-.4.224-.416.334-.025.271.239.278.434.008.235,0,.47,0,.705Z" transform="translate(-630.622 -454.705)" fill="#141414"/>
        <path id="Trazado_217754" data-name="Trazado 217754" d="M731.763,384.516l.009.276c-.162-.065-.472.243-.49-.114-.042-.822-.013-1.648-.013-2.593.519.311.126.924.654,1.014l.022.207A.874.874,0,0,0,731.763,384.516Z" transform="translate(-654.282 -368.788)" fill="#191919"/>
        <path id="Trazado_217755" data-name="Trazado 217755" d="M722.663,388.406c-.637.308-.93.037-1-.6a1.672,1.672,0,0,1,0-.468c.042-.235-.157-.658.169-.666.365-.009.136.413.185.64.081.377-.165.98.619.829Z" transform="translate(-646.756 -372.378)" fill="#242424"/>
        <path id="Trazado_217756" data-name="Trazado 217756" d="M726.238,388.237l-.03-.263c.308-.327.166-.733.19-1.108.012-.182-.01-.418.231-.407s.2.253.2.429a7.266,7.266,0,0,0,.008.927C726.913,388.377,726.582,388.3,726.238,388.237Z" transform="translate(-650.331 -372.21)" fill="#454545"/>
        <path id="Trazado_217757" data-name="Trazado 217757" d="M493.84,386.663l.039.267c-.325.322-.182.733-.21,1.11-.013.179.023.425-.223.414-.229-.01-.21-.251-.209-.434a4.825,4.825,0,0,0-.008-.855C493.128,386.595,493.441,386.591,493.84,386.663Z" transform="translate(-468.052 -372.344)" fill="#454545"/>
        <path id="Trazado_217758" data-name="Trazado 217758" d="M511.04,387.647c-.143.29.2.846-.24.844-.393,0-.192-.564-.182-.859.011-.313-.242-.91.2-.9S510.879,387.342,511.04,387.647Z" transform="translate(-481.622 -372.423)" fill="#363636"/>
        <path id="Trazado_217759" data-name="Trazado 217759" d="M635.527,386.736l.017.264c-.277.341-.126.743-.159,1.119-.013.154.014.353-.2.346s-.183-.209-.184-.359a8.235,8.235,0,0,0-.01-1C634.923,386.58,635.215,386.661,635.527,386.736Z" transform="translate(-578.964 -372.384)" fill="#242424"/>
        <path id="Trazado_217760" data-name="Trazado 217760" d="M745.421,387.638c-.131.3.171.863-.2.865s-.17-.558-.171-.857-.2-.864.164-.861C745.606,386.789,745.279,387.349,745.421,387.638Z" transform="translate(-665.023 -372.466)" fill="#242424"/>
        <path id="Trazado_217761" data-name="Trazado 217761" d="M651.3,418.762v-5.739h.149v5.733C651.4,418.76,651.355,418.762,651.3,418.762Z" transform="translate(-591.733 -392.992)" fill="#191919"/>
        <path id="Trazado_217762" data-name="Trazado 217762" d="M694.183,415.746l-.277.042V413.05l.277-.005Z" transform="translate(-625.061 -393.009)" fill="#363636"/>
        <path id="Trazado_217763" data-name="Trazado 217763" d="M685.737,387.7c.187-.3-.207-.832.259-.859.285-.017.143.535.138.82-.005.308.187.884-.158.879C685.558,388.537,685.939,387.97,685.737,387.7Z" transform="translate(-618.67 -372.512)" fill="#1f1f1f"/>
        <path id="Trazado_217764" data-name="Trazado 217764" d="M527.478,383.367c-.005.186-.463.2-.189.492a5.55,5.55,0,0,1-.1,1.759l-.212,0a17.972,17.972,0,0,1,.03-2.317C527.057,382.925,527.354,383.045,527.478,383.367Z" transform="translate(-494.451 -369.557)" fill="#141414"/>
        <path id="Trazado_217765" data-name="Trazado 217765" d="M669.491,389.635l0,.234c-.2.1-.488.149-.417.452.06.256.287.22.5.18s.183.1.145.233c-.43.342-.792-.121-1.195-.1l.008.022C668.782,390.25,668.7,389.538,669.491,389.635Z" transform="translate(-605.206 -374.688)" fill="#363636"/>
        <path id="Trazado_217766" data-name="Trazado 217766" d="M626.486,438.6c.249.278.586.093.874.167q.007.082.014.165c-.17,0-.35-.037-.473.132-.444.008-.285.423-.428.634l-.266.039a2.141,2.141,0,0,1,.008-1.142Z" transform="translate(-572.041 -412.992)" fill="#d0ccb1"/>
        <path id="Trazado_217767" data-name="Trazado 217767" d="M577.508,389.77l0,.256c-.331.291-.475.554.142.6.174.014.312-.029.239.217-.422.185-.847.229-1-.3C576.757,390.082,577.061,389.837,577.508,389.77Z" transform="translate(-533.491 -374.8)" fill="#363636"/>
        <path id="Trazado_217768" data-name="Trazado 217768" d="M568.42,386.7l-.005.29c-.272.345-.137.752-.17,1.132-.011.126.009.286-.157.305-.238.028-.21-.171-.213-.317a7.6,7.6,0,0,0-.009-.937C567.792,386.684,568.013,386.6,568.42,386.7Z" transform="translate(-526.445 -372.37)" fill="#2a2a2a"/>
        <path id="Trazado_217769" data-name="Trazado 217769" d="M699.589,387.432a.487.487,0,0,1,.484.165,2.322,2.322,0,0,0-.142,1.15c-.006.125.014.283-.167.293s-.18-.151-.181-.276C699.581,388.321,699.586,387.876,699.589,387.432Z" transform="translate(-629.502 -372.968)" fill="#191919"/>
        <path id="Trazado_217770" data-name="Trazado 217770" d="M554.67,387.7c-.137.29.171.842-.212.843s-.162-.547-.162-.839-.215-.842.164-.84S554.524,387.415,554.67,387.7Z" transform="translate(-515.793 -372.524)" fill="#141414"/>
        <path id="Trazado_217771" data-name="Trazado 217771" d="M645.081,439.238c.05,0,.1,0,.149-.006q0,.127.006.253a7.6,7.6,0,0,1-1.886,0q.011-.146.022-.292l.908.021A.525.525,0,0,0,645.081,439.238Z" transform="translate(-585.509 -413.467)" fill="#e8e8e8"/>
        <path id="Trazado_217772" data-name="Trazado 217772" d="M579.2,391.724c.074-.246-.065-.2-.239-.217-.618-.05-.473-.312-.142-.6.317-.038.58-.012.4.414-.067.157-.216.293.038.409Z" transform="translate(-534.8 -375.677)" fill="#e8e8e8"/>
        <path id="Trazado_217773" data-name="Trazado 217773" d="M671.653,391.61c.039-.133.056-.271-.144-.233s-.442.076-.5-.18c-.071-.3.221-.352.418-.452.282.03.356.182.24.43-.074.156-.248.311.03.44Z" transform="translate(-607.138 -375.562)" fill="#e8e8e8"/>
        <path id="Trazado_217774" data-name="Trazado 217774" d="M698.983,415.916l-.207,0v-2.725l.207,0Z" transform="translate(-628.87 -393.121)" fill="#1f1f1f"/>
        <path id="Trazado_217775" data-name="Trazado 217775" d="M685.224,487.281l0-.241c.038.033.071.088.113.1.212.037.509-.067.512.3a.305.305,0,0,1-.172.227C685.342,487.768,685.3,487.5,685.224,487.281Z" transform="translate(-618.265 -450.897)" fill="#454545"/>
        <path id="Trazado_217776" data-name="Trazado 217776" d="M656.493,386.54c-.245-.143-.537.15-.864-.114a.857.857,0,0,1,1.015-.131Z" transform="translate(-595.116 -371.993)" fill="#363636"/>
        <path id="Trazado_217777" data-name="Trazado 217777" d="M665.933,440.764l.247.041a3.183,3.183,0,0,1-.112,1.411Q666,441.49,665.933,440.764Z" transform="translate(-603.177 -414.694)" fill="#d0ccb1"/>
        <path id="Trazado_217778" data-name="Trazado 217778" d="M638.5,439.378l.626-.032q0,.13.008.259a1.371,1.371,0,0,1-.773,0Z" transform="translate(-581.607 -413.585)" fill="#e8e8e8"/>
        <path id="Trazado_217779" data-name="Trazado 217779" d="M633.966,439.343l.157.038.288.218-.455.013Z" transform="translate(-578.16 -413.582)" fill="#e8e8e8"/>
        <path id="Trazado_217780" data-name="Trazado 217780" d="M685.362,473.089l.6.065C685.738,473.332,685.528,473.414,685.362,473.089Z" transform="translate(-618.376 -439.982)" fill="#e8e8e8"/>
        <path id="Trazado_217781" data-name="Trazado 217781" d="M696.767,473.387h.631A.408.408,0,0,1,696.767,473.387Z" transform="translate(-627.299 -440.215)" fill="#e8e8e8"/>
        <path id="Trazado_217782" data-name="Trazado 217782" d="M667.229,413.165l-.17-.023L667,412.86l.375-.017Z" transform="translate(-604.009 -392.851)" fill="#8b8b8b"/>
        <path id="Trazado_217783" data-name="Trazado 217783" d="M622.411,383.439q0-.142,0-.284c.165-.012.346.005.315.215C622.7,383.545,622.53,383.47,622.411,383.439Z" transform="translate(-569.125 -369.623)" fill="#242424"/>
        <path id="Trazado_217784" data-name="Trazado 217784" d="M629.658,440.259c.123-.169.3-.133.473-.132l.141.1Z" transform="translate(-574.798 -414.193)" fill="#e8e8e8"/>
        <path id="Trazado_217785" data-name="Trazado 217785" d="M701.309,471.2l.123.156a.3.3,0,0,1-.115.019Z" transform="translate(-630.852 -438.501)" fill="#d0ccb1"/>
        <path id="Trazado_217786" data-name="Trazado 217786" d="M627.629,471.963a.618.618,0,0,1,.036.109c0,.013-.026.03-.04.044a.642.642,0,0,1-.029-.107C627.593,472,627.617,471.979,627.629,471.963Z" transform="translate(-573.184 -439.101)" fill="#d0ccb1"/>
        <path id="Trazado_217787" data-name="Trazado 217787" d="M684.7,425.268l.164.245c0,.053,0,.106,0,.16l-.153.309c-.244-.235-.123-.48-.021-.726Z" transform="translate(-617.755 -402.562)" fill="#fcfcfc"/>
        <path id="Trazado_217788" data-name="Trazado 217788" d="M545.235,494.4c-.024-.349-.054-.773.538-.738a.77.77,0,0,1-.055,1.534C545.129,495.233,545.238,494.8,545.235,494.4Z" transform="translate(-508.744 -456.074)" fill="#e8e8e8"/>
        <path id="Trazado_217789" data-name="Trazado 217789" d="M758.859,391.18c-.047.223-.169.382-.409.38a.251.251,0,0,1-.263-.3c.034-.256.239-.309.453-.318C758.793,390.933,758.87,391.022,758.859,391.18Z" transform="translate(-675.346 -375.714)" fill="#e8e8e8"/>
        <path id="Trazado_217790" data-name="Trazado 217790" d="M738.64,494.02c.5-.66.621-.661,1.088-.036A3.118,3.118,0,0,1,738.64,494.02Z" transform="translate(-660.057 -455.966)" fill="#e8e8e8"/>
        <path id="Trazado_217791" data-name="Trazado 217791" d="M709.092,493.979a2.075,2.075,0,0,1-1.07.039C708.369,493.387,708.521,493.373,709.092,493.979Z" transform="translate(-636.104 -455.977)" fill="#e8e8e8"/>
        <path id="Trazado_217792" data-name="Trazado 217792" d="M628.938,494.537c-.02-.6-.084-1.014.477-.992a.715.715,0,0,1,.729.823.693.693,0,0,1-.714.755C628.8,495.152,628.944,494.669,628.938,494.537Z" transform="translate(-574.224 -455.985)" fill="#e8e8e8"/>
        <path id="Trazado_217793" data-name="Trazado 217793" d="M649.908,495.421a.781.781,0,0,1-.773-.793.778.778,0,1,1,1.555-.037C650.711,495.094,650.4,495.34,649.908,495.421Z" transform="translate(-590.035 -456.195)" fill="#e8e8e8"/>
        <path id="Trazado_217794" data-name="Trazado 217794" d="M563.169,494.579a.776.776,0,0,1-.783.8.727.727,0,0,1-.794-.768.735.735,0,0,1,.8-.841C562.867,493.772,563.116,494.105,563.169,494.579Z" transform="translate(-521.548 -456.16)" fill="#e8e8e8"/>
        <path id="Trazado_217795" data-name="Trazado 217795" d="M514.112,495.255a.749.749,0,0,1-.7-.784.688.688,0,0,1,.672-.733.672.672,0,0,1,.75.721C514.845,494.93,514.562,495.165,514.112,495.255Z" transform="translate(-483.852 -456.135)" fill="#e8e8e8"/>
        <path id="Trazado_217796" data-name="Trazado 217796" d="M496.58,495.253a.723.723,0,0,1-.72-.758.715.715,0,1,1,1.429-.018A.743.743,0,0,1,496.58,495.253Z" transform="translate(-470.125 -456.135)" fill="#e8e8e8"/>
        <path id="Trazado_217797" data-name="Trazado 217797" d="M598.538,494.431c-.026.454-.244.771-.694.79a.68.68,0,0,1-.745-.718.688.688,0,0,1,.682-.782C598.23,493.7,598.474,494,598.538,494.431Z" transform="translate(-549.326 -456.122)" fill="#e8e8e8"/>
        <path id="Trazado_217798" data-name="Trazado 217798" d="M467.858,385.956c.118.3.451.553.19.876a.451.451,0,0,1-.414-.018C467.463,386.478,467.747,386.242,467.858,385.956Z" transform="translate(-448.001 -371.816)" fill="#d0ccb1"/>
        <path id="Trazado_217799" data-name="Trazado 217799" d="M595.77,388.354a.554.554,0,0,1-.507.666c-.347.023-.469-.279-.484-.593-.016-.344.094-.672.466-.7C595.633,387.694,595.74,388.022,595.77,388.354Z" transform="translate(-547.511 -373.199)" fill="#e8e8e8"/>
        <path id="Trazado_217800" data-name="Trazado 217800" d="M714.471,384.985c0-.231-.053-.5.328-.474.3.019.517.13.525.456.009.363-.222.507-.554.514C714.392,385.489,714.466,385.213,714.471,384.985Z" transform="translate(-641.142 -370.685)" fill="#e8e8e8"/>
        <path id="Trazado_217801" data-name="Trazado 217801" d="M560.666,388.328c-.037.34-.151.654-.526.675s-.535-.267-.544-.618c-.009-.375.118-.712.538-.71C560.506,387.676,560.626,388,560.666,388.328Z" transform="translate(-519.988 -373.16)" fill="#e8e8e8"/>
        <path id="Trazado_217802" data-name="Trazado 217802" d="M691.641,387.59c.392.037.534.294.547.64s-.089.656-.468.706c-.4.053-.556-.239-.587-.581A.64.64,0,0,1,691.641,387.59Z" transform="translate(-622.887 -373.095)" fill="#e8e8e8"/>
        <path id="Trazado_217803" data-name="Trazado 217803" d="M626.7,388.278c.047-.375.2-.661.584-.616s.49.364.474.7-.159.647-.548.626C626.776,388.966,626.711,388.613,626.7,388.278Z" transform="translate(-572.487 -373.147)" fill="#e8e8e8"/>
        <path id="Trazado_217804" data-name="Trazado 217804" d="M515.917,391.338c.056-.261.251-.288.465-.3s.272.1.244.278a.358.358,0,0,1-.431.329A.3.3,0,0,1,515.917,391.338Z" transform="translate(-485.816 -375.789)" fill="#e8e8e8"/>
        <path id="Trazado_217805" data-name="Trazado 217805" d="M658.354,390.017a1.4,1.4,0,0,1,.413.187.351.351,0,0,1,.017.432c-.033.06-.125.14-.173.13-.177-.037-.224-.189-.238-.352-.011-.129-.022-.257-.034-.385Z" transform="translate(-597.236 -374.993)" fill="#454545"/>
        <path id="Trazado_217806" data-name="Trazado 217806" d="M477.206,387.821c.19.417.273.82-.151,1.156-.592.052-.748-.3-.66-.784C476.478,387.732,476.777,387.6,477.206,387.821Z" transform="translate(-454.879 -373.194)" fill="#e8e8e8"/>
        <path id="Trazado_217807" data-name="Trazado 217807" d="M733,388.9a.874.874,0,0,1,.181-1.21c.609-.035.773.33.682.833S733.435,389.108,733,388.9Z" transform="translate(-655.518 -373.168)" fill="#e8e8e8"/>
      </g>
    </g>
  </g>
</svg>
