<svg xmlns="http://www.w3.org/2000/svg" width="84.999" height="98.708" viewBox="0 0 84.999 98.708">
  <g id="Grupo_144901" data-name="Grupo 144901" transform="translate(-180 -1621)">
    <circle id="Elipse_5583" data-name="Elipse 5583" cx="42.5" cy="42.5" r="42.5" transform="translate(180 1631)" fill="#f0f8ff"/>
    <g id="Grupo_144900" data-name="Grupo 144900" transform="translate(180 1621)">
      <g id="Grupo_144897" data-name="Grupo 144897" transform="translate(0.71 15.2)">
        <g id="Grupo_144895" data-name="Grupo 144895">
          <rect id="Rectángulo_42882" data-name="Rectángulo 42882" width="27.947" height="18.817" transform="translate(5.68 24.848) rotate(-44.615)" fill="#d84318"/>
          <g id="Grupo_144891" data-name="Grupo 144891" transform="translate(0 22.775)">
            <g id="Grupo_144889" data-name="Grupo 144889">
              <path id="Trazado_217631" data-name="Trazado 217631" d="M354.754,319.14l-1.075,1.057c-1.61,1.583-4.825.924-7.181-1.472L336.43,308.488c-2.356-2.4-2.962-5.622-1.352-7.205l1.075-1.057c.585-.575,1.752-.336,2.608.535l15.5,15.764C355.119,317.394,355.339,318.565,354.754,319.14Z" transform="translate(-334.177 -299.912)" fill="#1b3f5e"/>
            </g>
            <g id="Grupo_144890" data-name="Grupo 144890" transform="translate(0.003 2.83)">
              <path id="Trazado_217632" data-name="Trazado 217632" d="M352.224,333.836c-1.694.37-3.944-.45-5.712-2.247l-10.068-10.237c-1.767-1.8-2.55-4.061-2.151-5.748Z" transform="translate(-334.191 -315.604)" fill="#d84318"/>
            </g>
          </g>
          <g id="Grupo_144894" data-name="Grupo 144894" transform="translate(22.932)">
            <g id="Grupo_144892" data-name="Grupo 144892">
              <path id="Trazado_217633" data-name="Trazado 217633" d="M480.466,194.572l1.08-1.069c1.617-1.6,1-4.85-1.386-7.257l-10.18-10.284c-2.382-2.407-5.625-3.06-7.242-1.46l-1.08,1.069c-.587.581-.362,1.761.5,2.635l15.675,15.836C478.7,194.916,479.878,195.153,480.466,194.572Z" transform="translate(-461.331 -173.626)" fill="#1b3f5e"/>
            </g>
            <g id="Grupo_144893" data-name="Grupo 144893" transform="translate(2.888 0.003)">
              <path id="Trazado_217634" data-name="Trazado 217634" d="M495.477,192.047c.4-1.7-.4-3.981-2.186-5.786l-10.18-10.284c-1.787-1.805-4.057-2.624-5.763-2.245Z" transform="translate(-477.347 -173.64)" fill="#d84318"/>
            </g>
          </g>
          <path id="Trazado_217635" data-name="Trazado 217635" d="M401.231,222.744l-2.032,1.5A58.361,58.361,0,0,0,387.32,236l-1.408,1.862L369.5,221.225l2.931-1.889a35.742,35.742,0,0,0,10.343-10.168l2.044-3.056Z" transform="translate(-363.131 -200.252)" fill="#fff59d"/>
          <rect id="Rectángulo_42883" data-name="Rectángulo 42883" width="1.747" height="24.259" rx="0.873" transform="translate(20.265 6.637) rotate(-44.615)" fill="#1b3f5e"/>
          <path id="Trazado_217636" data-name="Trazado 217636" d="M381.679,306.159l-.012.012a.865.865,0,0,1-1.223-.008L364.62,290.125a.864.864,0,0,1,.008-1.223l.012-.012a.865.865,0,0,1,1.223.008l15.823,16.038A.865.865,0,0,1,381.679,306.159Z" transform="translate(-358.926 -267.898)" fill="#1b3f5e"/>
        </g>
        <g id="Grupo_144896" data-name="Grupo 144896" transform="translate(27.664 26.813)">
          <path id="Trazado_217637" data-name="Trazado 217637" d="M578.126,406.136l-44.152-41.7-2.366,3.122,41.236,43.872c2.662,2.79,4.288,2.46,5.776.987S580.911,408.828,578.126,406.136Z" transform="translate(-523.666 -356.835)" fill="#1b3f5e"/>
          <path id="Trazado_217638" data-name="Trazado 217638" d="M499.785,328.143c-.35-.354-1.184-.115-1.984.526-.787-2.852-2.477-5.679-5.348-6.369l-.717.631-3.519,3.426-.645.694c.675,2.893,3.516,4.616,6.384,5.414-.673.806-.934,1.658-.578,2.018l.015.015c.408.412,1.47.022,2.373-.872l3.138-3.106c.9-.893,1.3-1.952.9-2.364Z" transform="translate(-487.572 -322.3)" fill="#1b3f5e"/>
        </g>
      </g>
      <g id="Grupo_144898" data-name="Grupo 144898" transform="translate(19.497 0)">
        <path id="Trazado_217639" data-name="Trazado 217639" d="M444.587,118.38l-5.694-3.575a1.17,1.17,0,0,1-.3-1.716l.017-.021A1.17,1.17,0,0,1,440.4,113l4.529,4.969A.267.267,0,0,1,444.587,118.38Z" transform="translate(-438.345 -108.424)" fill="#fff59d"/>
        <path id="Trazado_217640" data-name="Trazado 217640" d="M501.052,115.966l3.925-4.516a1.041,1.041,0,0,1,1.549-.025l.016.018a1.041,1.041,0,0,1-.189,1.577l-4.991,3.3A.238.238,0,0,1,501.052,115.966Z" transform="translate(-489.693 -107.169)" fill="#fff59d"/>
        <path id="Trazado_217641" data-name="Trazado 217641" d="M484.206,97.094l-.6-6.508a1.138,1.138,0,0,1,1.149-1.243h.026a1.138,1.138,0,0,1,1.1,1.339l-1.161,6.433A.26.26,0,0,1,484.206,97.094Z" transform="translate(-475.436 -89.342)" fill="#fff59d"/>
      </g>
      <g id="Grupo_144899" data-name="Grupo 144899" transform="translate(0 92.423)">
        <path id="Trazado_217642" data-name="Trazado 217642" d="M374.415,606.633H346.933v-2.045a2.771,2.771,0,0,1,2.771-2.771h21.94a2.771,2.771,0,0,1,2.771,2.771Z" transform="translate(-343.922 -601.817)" fill="#1b3f5e"/>
        <rect id="Rectángulo_42884" data-name="Rectángulo 42884" width="33.986" height="3.54" rx="1.77" transform="translate(0 2.745)" fill="#d84318"/>
        <path id="Trazado_217643" data-name="Trazado 217643" d="M374.415,613.442H346.933v-.378a.445.445,0,0,1,.445-.445l26.975.626Z" transform="translate(-343.922 -610.671)" fill="#272525" opacity="0.1" style="mix-blend-mode: multiply;isolation: isolate"/>
      </g>
    </g>
  </g>
</svg>
