<svg xmlns="http://www.w3.org/2000/svg" width="99.113" height="136.899" viewBox="0 0 99.113 136.899">
  <g id="Grupo_145006" data-name="Grupo 145006" transform="translate(-210.887 -372.137)">
    <g id="Grupo_145005" data-name="Grupo 145005" transform="translate(210.887 372.137)">
      <path id="Trazado_218170" data-name="Trazado 218170" d="M333.085,192.66H323.7a2.591,2.591,0,0,1-2.592-2.593v-.682a5.863,5.863,0,0,0-5.855-5.857h-11.7a5.863,5.863,0,0,0-5.857,5.857v.683a2.59,2.59,0,0,1-2.592,2.592H284.13a2.189,2.189,0,0,0-1.936,2.372v8.374a2.188,2.188,0,0,0,1.936,2.37h48.955a2.188,2.188,0,0,0,1.936-2.37v-8.374A2.189,2.189,0,0,0,333.085,192.66Zm-25.182,3.62c-5.217,0-5.209-8.094,0-8.094S313.11,196.279,307.9,196.279Z" transform="translate(-258.519 -179.806)" fill="#d84318"/>
      <path id="Trazado_218171" data-name="Trazado 218171" d="M357.577,194.382H346.849v.709h7.494a2.591,2.591,0,0,1,2.592,2.592v98.941a2.591,2.591,0,0,1-2.592,2.592H276.029a2.594,2.594,0,0,1-2.593-2.592V197.683a2.594,2.594,0,0,1,2.593-2.592h7.625v-.709H272.925a2.048,2.048,0,0,0-2.046,2.046V302.586a2.048,2.048,0,0,0,2.046,2.046h84.652a2.048,2.048,0,0,0,2.046-2.046V196.428A2.048,2.048,0,0,0,357.577,194.382Z" transform="translate(-265.521 -173.09)" fill="#d84318"/>
      <path id="Trazado_218172" data-name="Trazado 218172" d="M285.548,197.511H274.8a7.24,7.24,0,0,0-7.231,7.231V310.9a7.238,7.238,0,0,0,7.231,7.23h84.652a7.237,7.237,0,0,0,7.23-7.23V204.742a7.238,7.238,0,0,0-7.23-7.231H348.7a7.324,7.324,0,0,0-7.1-7.15h-6.966a11.055,11.055,0,0,0-10.872-9.132h-11.7a11.057,11.057,0,0,0-10.872,9.132h-8.547A7.321,7.321,0,0,0,285.548,197.511Zm62.836,11.078h5.242v93.754H280.5V208.589h5.371a7.191,7.191,0,0,0,6.781,5.255H341.6A7.191,7.191,0,0,0,348.384,208.589Zm13.114-3.846V310.9a2.048,2.048,0,0,1-2.046,2.046H274.8a2.048,2.048,0,0,1-2.046-2.046V204.742a2.05,2.05,0,0,1,2.046-2.048h10.728v.709H277.9A2.593,2.593,0,0,0,275.31,206v98.941a2.593,2.593,0,0,0,2.593,2.592h78.314a2.592,2.592,0,0,0,2.592-2.592V206a2.592,2.592,0,0,0-2.592-2.592h-7.494v-.709h10.728A2.05,2.05,0,0,1,361.5,204.742Zm-70.786-6.827a2.19,2.19,0,0,1,1.936-2.372h10.971a2.592,2.592,0,0,0,2.593-2.592v-.683a5.863,5.863,0,0,1,5.855-5.857h11.7a5.864,5.864,0,0,1,5.857,5.857v.68l0,0a2.592,2.592,0,0,0,2.593,2.593H341.6a2.189,2.189,0,0,1,1.934,2.372v8.374a2.188,2.188,0,0,1-1.934,2.37H292.648a2.19,2.19,0,0,1-1.936-2.37v-8.374Z" transform="translate(-267.569 -181.229)" fill="#050505"/>
      <path id="Trazado_218173" data-name="Trazado 218173" d="M300.764,199.889a7.574,7.574,0,1,0-7.576-7.574A7.583,7.583,0,0,0,300.764,199.889Zm0-9.966a2.39,2.39,0,1,1-2.391,2.391A2.393,2.393,0,0,1,300.764,189.923Z" transform="translate(-251.715 -179.056)" fill="#050505"/>
      <path id="Trazado_218174" data-name="Trazado 218174" d="M278.145,211.159a2.591,2.591,0,0,0,2.592,2.592h58.488a2.592,2.592,0,1,0,0-5.183H280.737A2.591,2.591,0,0,0,278.145,211.159Z" transform="translate(-261.024 -164.312)" fill="#050505"/>
      <path id="Trazado_218175" data-name="Trazado 218175" d="M315.8,219.674H280.737a2.593,2.593,0,0,0,0,5.185H315.8a2.593,2.593,0,1,0,0-5.185Z" transform="translate(-261.024 -157.438)" fill="#050505"/>
      <path id="Trazado_218176" data-name="Trazado 218176" d="M315.8,231.852H280.737a2.593,2.593,0,0,0,0,5.185H315.8a2.593,2.593,0,1,0,0-5.185Z" transform="translate(-261.024 -149.902)" fill="#050505"/>
      <path id="Trazado_218177" data-name="Trazado 218177" d="M315.8,244.03H280.737a2.593,2.593,0,0,0,0,5.185H315.8a2.593,2.593,0,1,0,0-5.185Z" transform="translate(-261.024 -142.366)" fill="#050505"/>
      <path id="Trazado_218178" data-name="Trazado 218178" d="M318.357,216.406l-6.577,6.872-1.811-2.457a2.592,2.592,0,1,0-4.173,3.076l3.639,4.939a2.591,2.591,0,0,0,1.922,1.049c.055,0,.11.006.165.006a2.59,2.59,0,0,0,1.873-.8l8.709-9.1a2.593,2.593,0,0,0-3.746-3.586Z" transform="translate(-244.227 -159.955)" fill="#1b3f5e"/>
      <path id="Trazado_218179" data-name="Trazado 218179" d="M318.357,229.119l-6.577,6.874-1.811-2.459a2.592,2.592,0,0,0-4.173,3.076l3.639,4.939a2.591,2.591,0,0,0,1.922,1.049c.055,0,.11.006.165.006a2.59,2.59,0,0,0,1.873-.8l8.709-9.1a2.593,2.593,0,0,0-3.746-3.586Z" transform="translate(-244.227 -152.088)" fill="#1b3f5e"/>
      <path id="Trazado_218180" data-name="Trazado 218180" d="M318.357,241.834l-6.577,6.872-1.811-2.457a2.592,2.592,0,1,0-4.173,3.074l3.639,4.941a2.6,2.6,0,0,0,1.922,1.049q.083,0,.165,0a2.589,2.589,0,0,0,1.873-.8l8.709-9.1a2.592,2.592,0,1,0-3.746-3.584Z" transform="translate(-244.227 -144.22)" fill="#1b3f5e"/>
    </g>
  </g>
</svg>
