<svg id="Grupo_129573" data-name="Grupo 129573" xmlns="http://www.w3.org/2000/svg" width="295" height="250" viewBox="0 0 295 250">
  <rect id="Rectángulo_41263" data-name="Rectángulo 41263" width="295" height="250" fill="none"/>
  <g id="Grupo_129492" data-name="Grupo 129492" transform="translate(16.105 1)">
    <g id="freepik--Plant--inject-2" transform="translate(237.49 143.898)">
      <g id="freepik--Plants--inject-2">
        <path id="Trazado_189633" data-name="Trazado 189633" d="M459.553,305.444a32.311,32.311,0,0,0-1.243,4.978c-.562,3.245-.163,14.522,0,17.79h0l-.562.18h0c-.6-3.307-.675-15.04,0-18.325a35.5,35.5,0,0,1,1.316-4.8,17.941,17.941,0,0,1,2.284-4.815c.079-.1.18.113.157.18C460.875,302.249,460.1,303.8,459.553,305.444Z" transform="translate(-449.622 -290.279)" fill="#1b3f5e"/>
        <path id="Trazado_189634" data-name="Trazado 189634" d="M461.549,295.747a8.4,8.4,0,0,0,3.971-5.911c.726-3.521,1.687-6.581,1.406-7.34s-3.684,2.6-5.36,6.052S460.643,293.981,461.549,295.747Z" transform="translate(-451.066 -282.388)" fill="#1b3f5e"/>
        <path id="Trazado_189635" data-name="Trazado 189635" d="M464.841,306.086c-.3-.562.714-2.25,3.273-3.774s6.316-2.5,6.637-2.171-2.407,3.633-5.248,4.938S465.116,306.6,464.841,306.086Z" transform="translate(-452.913 -290.128)" fill="#1b3f5e"/>
        <path id="Trazado_189636" data-name="Trazado 189636" d="M445.382,290.361c.394-.343,3.982,3.043,5.265,6.406,1.125,2.919,1.361,4.646,1.007,5.236,0,.034.045.068.067.107a8.751,8.751,0,0,1,.681,1.564,5.773,5.773,0,0,1,.287,3.375c0,.068-.09,0-.1-.045-.242-.984-.36-1.991-.664-2.958a12.146,12.146,0,0,0-.737-1.794c-.8-.045-2.424-1.361-3.825-4.078C445.8,295.1,444.983,290.71,445.382,290.361Z" transform="translate(-444.377 -285.866)" fill="#1b3f5e"/>
        <path id="Trazado_189637" data-name="Trazado 189637" d="M460.131,319.819c-.349-.523.495-2.3,2.885-4.078s6.046-3.1,6.4-2.812-2.036,3.847-4.741,5.428S460.458,320.3,460.131,319.819Z" transform="translate(-450.841 -295.733)" fill="#1b3f5e"/>
        <path id="Trazado_189638" data-name="Trazado 189638" d="M458.56,312.993a1.978,1.978,0,0,1,.647-1.074,7.65,7.65,0,0,1,1.164-.967,14.664,14.664,0,0,1,2.857-1.485c.1-.039.214.186.129.247-.838.607-1.727,1.125-2.587,1.687a8.125,8.125,0,0,0-1.125.889c-.158.158-.321.321-.467.489s-.276.394-.478.416C458.616,313.212,458.554,313.055,458.56,312.993Z" transform="translate(-450.187 -294.234)" fill="#1b3f5e"/>
        <path id="Trazado_189639" data-name="Trazado 189639" d="M458.446,324.106a6.908,6.908,0,0,1,.962-.748,4.4,4.4,0,0,1,1.1-.5c.1-.028.18.141.1.2-.613.45-1.215.928-1.783,1.44a7.49,7.49,0,0,0-.754.776,1.69,1.69,0,0,0-.383.787c-.045.236-.292.281-.36,0C457.13,325.321,457.963,324.573,458.446,324.106Z" transform="translate(-449.634 -300.094)" fill="#1b3f5e"/>
        <path id="Trazado_189640" data-name="Trazado 189640" d="M451.636,325.763l-.354.444c-.934,0-3.543-1.519-5.219-3.836-1.957-2.711-2.525-5.535-2.362-5.934s3.83,1.4,5.979,4.584A11.4,11.4,0,0,1,451.636,325.763Z" transform="translate(-443.673 -297.262)" fill="#1b3f5e"/>
        <g id="Grupo_129491" data-name="Grupo 129491" transform="translate(0)" opacity="0.65">
          <path id="Trazado_189641" data-name="Trazado 189641" d="M459.553,305.444a32.311,32.311,0,0,0-1.243,4.978c-.562,3.245-.163,14.522,0,17.79h0l-.562.18h0c-.6-3.307-.675-15.04,0-18.325a35.5,35.5,0,0,1,1.316-4.8,17.941,17.941,0,0,1,2.284-4.815c.079-.1.18.113.157.18C460.875,302.249,460.1,303.8,459.553,305.444Z" transform="translate(-449.622 -290.279)" fill="#fff"/>
          <path id="Trazado_189642" data-name="Trazado 189642" d="M461.549,295.747a8.4,8.4,0,0,0,3.971-5.911c.726-3.521,1.687-6.581,1.406-7.34s-3.684,2.6-5.36,6.052S460.643,293.981,461.549,295.747Z" transform="translate(-451.066 -282.388)" fill="#fff"/>
          <path id="Trazado_189643" data-name="Trazado 189643" d="M464.841,306.086c-.3-.562.714-2.25,3.273-3.774s6.316-2.5,6.637-2.171-2.407,3.633-5.248,4.938S465.116,306.6,464.841,306.086Z" transform="translate(-452.913 -290.128)" fill="#fff"/>
          <path id="Trazado_189644" data-name="Trazado 189644" d="M445.382,290.361c.394-.343,3.982,3.043,5.265,6.406,1.125,2.919,1.361,4.646,1.007,5.236,0,.034.045.068.067.107a8.751,8.751,0,0,1,.681,1.564,5.773,5.773,0,0,1,.287,3.375c0,.068-.09,0-.1-.045-.242-.984-.36-1.991-.664-2.958a12.146,12.146,0,0,0-.737-1.794c-.8-.045-2.424-1.361-3.825-4.078C445.8,295.1,444.983,290.71,445.382,290.361Z" transform="translate(-444.377 -285.866)" fill="#fff"/>
          <path id="Trazado_189645" data-name="Trazado 189645" d="M460.131,319.819c-.349-.523.495-2.3,2.885-4.078s6.046-3.1,6.4-2.812-2.036,3.847-4.741,5.428S460.458,320.3,460.131,319.819Z" transform="translate(-450.841 -295.733)" fill="#fff"/>
          <path id="Trazado_189646" data-name="Trazado 189646" d="M458.56,312.993a1.978,1.978,0,0,1,.647-1.074,7.65,7.65,0,0,1,1.164-.967,14.664,14.664,0,0,1,2.857-1.485c.1-.039.214.186.129.247-.838.607-1.727,1.125-2.587,1.687a8.125,8.125,0,0,0-1.125.889c-.158.158-.321.321-.467.489s-.276.394-.478.416C458.616,313.212,458.554,313.055,458.56,312.993Z" transform="translate(-450.187 -294.234)" fill="#fff"/>
          <path id="Trazado_189647" data-name="Trazado 189647" d="M458.446,324.106a6.908,6.908,0,0,1,.962-.748,4.4,4.4,0,0,1,1.1-.5c.1-.028.18.141.1.2-.613.45-1.215.928-1.783,1.44a7.49,7.49,0,0,0-.754.776,1.69,1.69,0,0,0-.383.787c-.045.236-.292.281-.36,0C457.13,325.321,457.963,324.573,458.446,324.106Z" transform="translate(-449.634 -300.094)" fill="#fff"/>
          <path id="Trazado_189648" data-name="Trazado 189648" d="M451.636,325.763l-.354.444c-.934,0-3.543-1.519-5.219-3.836-1.957-2.711-2.525-5.535-2.362-5.934s3.83,1.4,5.979,4.584A11.4,11.4,0,0,1,451.636,325.763Z" transform="translate(-443.673 -297.262)" fill="#fff"/>
        </g>
        <path id="Trazado_189649" data-name="Trazado 189649" d="M475.257,322.9a6.507,6.507,0,0,0,4.533-3.167c1.513-2.351,3.082-4.291,3.077-4.927s-3.375.855-5.579,2.885A5.347,5.347,0,0,0,475.257,322.9Z" transform="translate(-457.463 -296.507)" fill="#1b3f5e"/>
        <path id="Trazado_189650" data-name="Trazado 189650" d="M469.724,325.408c-.512.146-1.125-2.295-.641-4.533a7.634,7.634,0,0,1,1.969-3.937c.281-.118.861,3.453.377,5.174S470.084,325.307,469.724,325.408Z" transform="translate(-454.714 -297.504)" fill="#1b3f5e"/>
        <path id="Trazado_189651" data-name="Trazado 189651" d="M463.762,332.478c-.529.276-1.772-2.25-1.732-4.871a8.383,8.383,0,0,1,1.3-4.792c.292-.174,1.727,3.616,1.58,5.624S464.1,332.287,463.762,332.478Z" transform="translate(-451.704 -300.074)" fill="#1b3f5e"/>
        <path id="Trazado_189652" data-name="Trazado 189652" d="M469.968,336.592c-.377-.467,1.879-2.188,4.432-2.655a8.525,8.525,0,0,1,4.955.326c.225.253-2.25,2.216-5.214,2.66C472.145,337.222,470.221,336.9,469.968,336.592Z" transform="translate(-455.16 -304.863)" fill="#1b3f5e"/>
        <path id="Trazado_189653" data-name="Trazado 189653" d="M470.454,326.548a36.875,36.875,0,0,0-4.764,5.1c.045-.1.084-.208.124-.309a11.4,11.4,0,0,0,.467-1.648A3.72,3.72,0,0,0,466.41,328c-.028-.09-.129,0-.152.039a10.1,10.1,0,0,0-.506,1.738c-.146.5-.315,1-.489,1.5-.242.681-.562,1.339-.855,2-.394.523-.776,1.057-1.125,1.6a6.042,6.042,0,0,0,.124-1.232,4.669,4.669,0,0,0-.034-.686,1.244,1.244,0,0,0-.118-.562c-.045-.084-.157.028-.174.084a6.629,6.629,0,0,0-.124,1.215c-.045.4-.09.8-.169,1.2a8.8,8.8,0,0,1-.366,1.209c-.051.1-.129.264-.174.366-.309.518-.967,1.687-1.417,2.531l.4.562c.416-.861.866-1.687,1.361-2.52s1.052-1.721,1.412-2.25a10.61,10.61,0,0,1,.939-.714,7.186,7.186,0,0,1,1.125-.652c.439-.208.906-.343,1.35-.562.068-.034.174-.225.034-.225a3.7,3.7,0,0,0-1.406.332,7.079,7.079,0,0,0-1.2.619c.281-.388.562-.776.861-1.153,1.558-2,3.375-3.808,4.86-5.838C470.605,326.559,470.544,326.474,470.454,326.548Z" transform="translate(-451.18 -301.697)" fill="#1b3f5e"/>
      </g>
    </g>
    <g id="freepik--Shadows--inject-2" transform="translate(0 164.7)">
      <ellipse id="freepik--Shadow--inject-2" cx="43.854" cy="25.316" rx="43.854" ry="25.316" transform="translate(168.791 6.337)" fill="#e0e0e0"/>
      <path id="freepik--shadow--inject-2-2" data-name="freepik--shadow--inject-2" d="M139.715,352.173l56.245-32.392a3.813,3.813,0,0,1,3.437,0l83.31,48.1c.951.562.951,1.44,0,1.985l-56.245,32.391a3.781,3.781,0,0,1-3.437,0l-83.31-48.1A1.048,1.048,0,0,1,139.715,352.173Z" transform="translate(-72.874 -319.373)" fill="#e0e0e0"/>
      <path id="freepik--shadow--inject-2-3" data-name="freepik--shadow--inject-2" d="M66.454,357.14l-45.024,26,56.38,32.622,45.024-26.07Z" transform="translate(-21.43 -335.898)" fill="#e0e0e0"/>
    </g>
    <g id="freepik--Character--inject-2" transform="translate(137.357 0)">
      <g id="freepik--Chartacter--inject-2">
        <g id="freepik--Bottom--inject-2" transform="translate(36.383 80.123)">
          <path id="Trazado_189654" data-name="Trazado 189654" d="M398.857,271.118c-.467-6.789-.759-9.455-1.406-21.581h0c-.056-3.11-.169-6.44-.377-9.4a59.663,59.663,0,0,0-2.84-15.749c-.855-3.425-1.547-9.8-2.852-31.2A110.65,110.65,0,0,0,387.445,169H356.764c-3.15,13.42-4.05,42.476-3.937,56.307.045,7.053.124,43.483-.051,46.4a9.817,9.817,0,0,1-2.953,6.316c-2.525,2.711-4.336,3.808-7.5,6.187.456,1.209,7.092,1.164,9,.242a70.4,70.4,0,0,0,7.9-4.646,9.349,9.349,0,0,0,3.791-7.621,6.759,6.759,0,0,0,.09-.759c.051-1.687,4.325-25.839,5.405-31.6.832-4.5-.084-13.15-.084-13.15l3.251-21.323s3.667,14.151,5.624,22.774c1.434,6.339,4.995,16.35,7.312,26.48h0c2.722,10.3,2.936,11.21,4.545,18.589.81,3.718,1.541,18.465,2.447,21.041,2.908,8.3,9.8,2.705,10.175-1.884C402.035,289.286,398.947,272.581,398.857,271.118Z" transform="translate(-335.575 -169)" fill="#ffa8a7"/>
          <path id="Trazado_189655" data-name="Trazado 189655" d="M330.879,374.554a2.74,2.74,0,0,0,.562,2.739,11.739,11.739,0,0,0,8.645,1.732c4.252-.664,6.524-2.036,8.195-3.51s4.01-3.549,5.928-4.021c1.777-.444,4.668-1.524,5.231-2.1s.416-3.026.416-3.026Z" transform="translate(-330.501 -255.359)" fill="#263238"/>
          <path id="Trazado_189656" data-name="Trazado 189656" d="M357.994,350.758a1.3,1.3,0,0,1,.709.821c.146.675.174,1.541.489,2.649a19.851,19.851,0,0,1,.562,5.973c-.208,1.266-4.066,2.441-5.911,3.2a23.724,23.724,0,0,0-5.951,3.976,17.7,17.7,0,0,1-8.915,3.577c-4.241.174-7.019-.905-7.874-2.413-1.125-1.856-.293-3.875,4.5-6.26.911-.45,4.106-2.452,5.191-3.178a25.051,25.051,0,0,0,3.257-2.553,20.463,20.463,0,0,0,1.451-1.513,6.763,6.763,0,0,0,1.192-1.609c.051-.129.084-.281.135-.416a7.342,7.342,0,0,0,.287-1.153c.068-.4.1-1,.484-1.249a3.25,3.25,0,0,1,1.738-.253,16.42,16.42,0,0,1,2.632.562c1.007.309,1.755.512,2.2,1.176a3.571,3.571,0,0,1,.444,1.755,7.3,7.3,0,0,0,.034.855c0,.124-.045.343.124.287s.332-.478.394-.624c.124-.326.2-.669.343-.984a2.813,2.813,0,0,1,.562-1.046c.793-.7,1.58-.591,1.811-.832A4.152,4.152,0,0,0,357.994,350.758Z" transform="translate(-330.473 -248.342)" fill="#37474f"/>
          <path id="Trazado_189657" data-name="Trazado 189657" d="M334.688,372.28a8.5,8.5,0,0,1,8.493,7.256,14.65,14.65,0,0,1-4.342,1.024c-4.241.174-7.194-.9-8.077-2.4C329.722,376.4,330.374,374.04,334.688,372.28Z" transform="translate(-330.329 -257.945)" fill="#fafafa"/>
          <path id="Trazado_189658" data-name="Trazado 189658" d="M350.037,370.876a.334.334,0,0,0,.186-.073.3.3,0,0,0,.034-.427c-.883-1.024-3.375-3.251-5.6-2.947a.3.3,0,1,0,.057.593l.022,0c2.081-.27,4.365,1.941,5.062,2.75A.3.3,0,0,0,350.037,370.876Z" transform="translate(-336.481 -255.81)" fill="#f0f0f0"/>
          <path id="Trazado_189659" data-name="Trazado 189659" d="M354.678,368.012a.349.349,0,0,0,.191-.073.309.309,0,0,0,.028-.427c-.883-1.024-3.375-3.257-5.6-2.953a.3.3,0,0,0-.253.337h0a.292.292,0,0,0,.322.26h.01c2.081-.276,4.365,1.935,5.062,2.75A.309.309,0,0,0,354.678,368.012Z" transform="translate(-338.518 -254.554)" fill="#f0f0f0"/>
          <path id="Trazado_189660" data-name="Trazado 189660" d="M358.932,364.767a.259.259,0,0,0,.186-.073.3.3,0,0,0,.035-.42l0,0c-.883-1.024-3.375-3.251-5.624-2.953a.3.3,0,0,0-.259.337.3.3,0,0,0,.332.259h.005c2.075-.276,4.365,1.935,5.062,2.75A.3.3,0,0,0,358.932,364.767Z" transform="translate(-340.365 -253.137)" fill="#f0f0f0"/>
          <path id="Trazado_189661" data-name="Trazado 189661" d="M362.75,361.513a.293.293,0,0,0,.219-.489c-1.215-1.457-3.881-3.273-6.1-2.97a.3.3,0,0,0-.259.332v.005a.3.3,0,0,0,.337.259c2-.27,4.5,1.468,5.568,2.756A.276.276,0,0,0,362.75,361.513Z" transform="translate(-341.826 -251.706)" fill="#f0f0f0"/>
          <path id="Trazado_189662" data-name="Trazado 189662" d="M428.16,384.9a13.189,13.189,0,0,0,1.9,6.3,4.176,4.176,0,0,0,4.893,1.485c1.9-.574,4.3-1.98,4.747-4.443a15.409,15.409,0,0,0,.141-6.749Z" transform="translate(-373.135 -261.975)" fill="#263238"/>
          <path id="Trazado_189663" data-name="Trazado 189663" d="M434.886,350.56c.793.028.748,3.8,1.372,7.582.669,4.061,1.327,5.658,1.912,9,.664,3.808.107,5.54-1.125,7.914s-5.889,4.831-8.369,1.625c-2.025-2.615-2.25-5.624-2.25-9.432a55.769,55.769,0,0,0-.945-9.562c-.467-3.071-1.221-5.816-.562-6.187a28.3,28.3,0,0,0,.816,3.02c.09.208.416.731.506-.073,0-.242-.073-.787-.062-1.024a1.007,1.007,0,0,1,.675-.945,7.681,7.681,0,0,1,3.341-.889,9.133,9.133,0,0,1,3.763.219c.529.242.562.737.619,1.215.09.562.118.928.253.81C435.133,353.62,434.818,350.976,434.886,350.56Z" transform="translate(-371.604 -248.442)" fill="#37474f"/>
          <path id="Trazado_189664" data-name="Trazado 189664" d="M440.021,383.179a9.522,9.522,0,0,1-1.226,5.878c-1.237,2.368-6.26,4.871-8.746,1.659a10.822,10.822,0,0,1-1.879-5.512C429.458,382.595,437.715,381.1,440.021,383.179Z" transform="translate(-373.139 -262.286)" fill="#fafafa"/>
          <path id="Trazado_189665" data-name="Trazado 189665" d="M430.65,378.609a.274.274,0,0,0,.1-.034,13.712,13.712,0,0,1,7.228-1.024.292.292,0,0,0,.107-.562,13.8,13.8,0,0,0-7.61,1.086.3.3,0,0,0-.124.394A.3.3,0,0,0,430.65,378.609Z" transform="translate(-374.078 -259.932)" fill="#f0f0f0"/>
          <path id="Trazado_189666" data-name="Trazado 189666" d="M437.4,372.415a.292.292,0,0,0,.039-.562c-3.605-1.046-7.464.928-7.6,1.012a.292.292,0,0,0,.292.506c.034,0,3.8-1.935,7.143-.956A.333.333,0,0,0,437.4,372.415Z" transform="translate(-373.804 -257.625)" fill="#f0f0f0"/>
          <path id="Trazado_189667" data-name="Trazado 189667" d="M436.906,367.579a.3.3,0,0,0,.242-.208.292.292,0,0,0-.195-.365h0a10.425,10.425,0,0,0-7.751,1,.293.293,0,0,0-.079.4.287.287,0,0,0,.4.084l.008-.006a10.126,10.126,0,0,1,7.25-.922A.349.349,0,0,0,436.906,367.579Z" transform="translate(-373.534 -255.472)" fill="#f0f0f0"/>
          <path id="Trazado_189668" data-name="Trazado 189668" d="M436.276,362.9a.291.291,0,0,0,.236-.2.3.3,0,0,0-.186-.371c-3.718-1.209-7.655.99-7.8,1.086a.3.3,0,0,0-.09.4.292.292,0,0,0,.4.091h0c.034,0,3.853-2.143,7.312-1.018A.367.367,0,0,0,436.276,362.9Z" transform="translate(-373.236 -253.432)" fill="#ebebeb"/>
          <path id="Trazado_189669" data-name="Trazado 189669" d="M396.984,169c1.125,8.369,1.513,10.422,2.762,29.067,1.215,18.077,1.316,20.726,1.49,22.9.411,5,2.627,6.721,3.268,18.51.6,10.8.951,24.124.951,24.124s-1.457,2-5.568,2.368c-3.8.337-5.7-1.086-5.7-1.086s-7.036-25.175-9-31.5c-2.666-8.6-6.406-23.707-6.406-23.707l-2.48,17.25a62.03,62.03,0,0,1-.81,16.1c-1.991,9.691-4.022,20.248-4.022,20.248a12.94,12.94,0,0,1-5.72.709c-4.438-.444-5.923-1.479-5.923-1.479s-1.249-29.281-1.249-39.979.135-36.874.759-53.517Z" transform="translate(-342.69 -169)" fill="#37474f"/>
          <path id="Trazado_189670" data-name="Trazado 189670" d="M384.183,222.228l-3.094-18.735s-6.187-1.631-10.169-5.793c.3,3.1,5.8,7.076,8.381,7.694l3.476,16.6L381.7,239.49Z" transform="translate(-348.089 -181.558)" fill="#263238"/>
          <path id="Trazado_189671" data-name="Trazado 189671" d="M407.28,174.17a25.606,25.606,0,0,1,2.323,4.91,47.972,47.972,0,0,1,1.547,5.2,53.6,53.6,0,0,1,.979,5.332,35.55,35.55,0,0,1,.36,5.411c-.433-1.76-.838-3.5-1.237-5.253s-.787-3.493-1.209-5.225-.838-3.47-1.282-5.2S407.82,175.9,407.28,174.17Z" transform="translate(-363.999 -171.262)" fill="#263238"/>
          <path id="Trazado_189672" data-name="Trazado 189672" d="M411.48,175.33a19.121,19.121,0,0,1,2.447,2.745,26.2,26.2,0,0,1,1.991,3.088,23.713,23.713,0,0,1,1.507,3.375,14.585,14.585,0,0,1,.832,3.594l-1.648-3.24c-.562-1.063-1.125-2.126-1.687-3.172s-1.159-2.092-1.732-3.15S412.014,176.444,411.48,175.33Z" transform="translate(-365.836 -171.77)" fill="#263238"/>
          <path id="Trazado_189673" data-name="Trazado 189673" d="M407.08,213.38c.782,5.624,1.485,11.249,2.188,16.828s2.075,11.811,3.1,17.335,6.592,28.961,7.447,34.551c-1.294-5.512-7.481-28.769-8.566-34.343s-2.317-11.811-2.863-17.436S407.423,219.027,407.08,213.38Z" transform="translate(-363.911 -188.419)" fill="#263238"/>
          <path id="Trazado_189674" data-name="Trazado 189674" d="M367.689,213.81l-.922,14.731c-.141,2.458-.3,4.91-.4,7.368s-.259,4.921-.219,7.346.2,26-.129,30.935c-.562-5.49-.844-25.94-1.012-30.907,0-4.983.439-9.882.883-14.8S366.929,218.681,367.689,213.81Z" transform="translate(-345.499 -188.607)" fill="#263238"/>
          <path id="Trazado_189675" data-name="Trazado 189675" d="M372.882,331.879l-.838,5.13s-2.053,1.311-6.361.866-4.933-1.839-4.933-1.839V331.21s1.035,1,4.972,1.446A16.977,16.977,0,0,0,372.882,331.879Z" transform="translate(-343.64 -239.975)" fill="#37474f"/>
          <path id="Trazado_189676" data-name="Trazado 189676" d="M432.462,330.86l.382,5.18s-1.687,1.755-5.984,2.329-5.225-.641-5.225-.641l-1.125-4.691s1.237.737,5.169.253A16.985,16.985,0,0,0,432.462,330.86Z" transform="translate(-369.787 -239.822)" fill="#37474f"/>
        </g>
        <g id="freepik--Top--inject-2" transform="translate(0)">
          <g id="freepik--aRM--inject-2" transform="translate(0 21.062)">
            <path id="Trazado_189677" data-name="Trazado 189677" d="M339.324,89.92c-4.567.844-7.267,1.879-10.883,7.25-3.043,4.5-9.258,12.65-9.258,12.65s-8.319-7.256-9.562-9.387c-1.856-3.167-15.631-2.424-12.458,2.132.883,1.277,3.425,2.171,4.758,3.875,3.189,4.095,6.592,10.45,9.668,14.2,3.3,4.016,6.271,6.254,8,6.254,2.16,0,5.383-3.5,6.294-4.55,3.622-4.168,11.125-13.009,11.125-13.009Z" transform="translate(-279.227 -75.338)" fill="#ffa8a7"/>
            <path id="Trazado_189678" data-name="Trazado 189678" d="M309.118,105.915a1.688,1.688,0,0,1-.731-.8,3.513,3.513,0,0,1-.292-1.069c-.135-.821-.242-1.648-.366-2.469s-.2-1.547-.343-2.317a3.028,3.028,0,0,0-.793-1.687c-.281-.264-.838.09-.517.394a3.214,3.214,0,0,1,.714,1.957c.135.9.27,1.794.4,2.694a11.806,11.806,0,0,0,.456,2.424,1.816,1.816,0,0,0,1.468,1.221C309.365,106.3,309.275,105.971,309.118,105.915Z" transform="translate(-283.291 -78.644)" fill="#f28f8f"/>
            <path id="Trazado_189679" data-name="Trazado 189679" d="M358.405,89.2c-4.618.866-6.5,1.519-9.275,4.95s-8.831,12.475-8.831,12.475a15.91,15.91,0,0,0,3.819,6.288,19.05,19.05,0,0,0,5.478,3.83l7.216-7.706Z" transform="translate(-298.308 -75.023)" fill="#455a64"/>
            <g id="freepik--barcode-lector--inject-2">
              <path id="Trazado_189680" data-name="Trazado 189680" d="M301.644,80.47c-.771.461-.562,1.9.062,5.332s1.732,10.883,1.732,10.883-1.749.748-3.127,1.389-3.752,1.221-4.9.129.067-2.413,1.957-3.313l-2.61-9.235s-.062-1.687,2.812-3.268A23.192,23.192,0,0,1,301.644,80.47Z" transform="translate(-278.382 -71.203)" fill="#37474f"/>
              <path id="Trazado_189681" data-name="Trazado 189681" d="M295.885,86a2.974,2.974,0,0,0-1.125,2.07l2.61,9.235c.214.748.866,2.25,2.03,1.575s2.39-3.566,1.2-7.143A9.821,9.821,0,0,0,295.885,86Z" transform="translate(-278.382 -73.623)" fill="#455a64"/>
              <path id="Trazado_189682" data-name="Trazado 189682" d="M301.627,80.47a19.737,19.737,0,0,0-4.095,1.918c-2.857,1.609-2.812,3.268-2.812,3.268l.231.816a46.5,46.5,0,0,0,3.768-2.812c1.44-1.209,1.907-1.738,2.4-2.1C301.155,81,301.3,80.656,301.627,80.47Z" transform="translate(-278.365 -71.203)" opacity="0.4" style="isolation: isolate"/>
              <path id="Trazado_189683" data-name="Trazado 189683" d="M286.647,65.246c.084-.321-.332-.472-1.873-.737a27.036,27.036,0,0,0-12.531.467l-1.153.326,9.669,9.382-.467,1.862,9.252-2.632c2.329-.664,3.2-1.485,3.515-2.734l.163-.658-3.656-3.543Z" transform="translate(-268.025 -63.994)" fill="#455a64"/>
              <path id="Trazado_189684" data-name="Trazado 189684" d="M302.5,68.115a9.753,9.753,0,0,0-3.7-1.446c-.99-.242-1.789-.45-1.789-.45s-3.768.726-1.513,2.992,8.482.681,7.925,2.936C304.027,69.758,303.757,69.3,302.5,68.115Z" transform="translate(-278.391 -64.968)" fill="#37474f"/>
              <path id="Trazado_189685" data-name="Trazado 189685" d="M295.408,67.37h0c-.664.467-1.04,1.215.09,2.345a5.9,5.9,0,0,0,3.425,1.3,6.189,6.189,0,0,1-3.172-2.008C295.392,68.467,295.093,67.724,295.408,67.37Z" transform="translate(-278.389 -65.471)" fill="#1b3f5e"/>
              <path id="Trazado_189686" data-name="Trazado 189686" d="M288.02,74.459c-.225.906-5.776,4.843-8.9,6.558a26.226,26.226,0,0,1-2.677,1.294,3.47,3.47,0,0,1-3.74-.709l-5.979-5.793a3.482,3.482,0,0,1-.95-3.335l.591-2.334a2.531,2.531,0,0,0-.518-2,1.051,1.051,0,0,1,.562-1.631c.658-.191,1.417-.411,2.075-.562,1.378-.382,2.992.877,6.569,4.376s4.241,5.231,3.853,6.749Z" transform="translate(-265.641 -64.82)" fill="#37474f"/>
              <path id="Trazado_189687" data-name="Trazado 189687" d="M288.082,85.7c-.433,1.727-.81,3.937-1.5,4.809.591-.495.838-.562,1.929-4.927Z" transform="translate(-274.803 -73.439)" fill="#263238"/>
              <path id="Trazado_189688" data-name="Trazado 189688" d="M265.846,68.635a2.531,2.531,0,0,1,.5,2l-.591,2.334a3.482,3.482,0,0,0,.951,3.335l5.979,5.793a3.47,3.47,0,0,0,3.74.709A26.223,26.223,0,0,0,279.1,81.51l.731-.416c-.056,0-3.527,1.637-4.55,1.58-1.384-.073-2.07-.562-3.437-1.935-1.479-1.479-4.308-4.292-4.966-5.062-.236-.276-.506-1.035-.084-1.294a2.62,2.62,0,0,1,2.407-.321l6.373,6.187c.394-1.575-.079-3.133-1.969-5.3a63.845,63.845,0,0,0-6.322-6.024c-1.4-1.159-1.412-1.6-.877-1.918a1.052,1.052,0,0,0-.562,1.625Z" transform="translate(-265.644 -65.314)" fill="#263238"/>
              <path id="Trazado_189689" data-name="Trazado 189689" d="M277.782,83.214a4.116,4.116,0,0,0-.776-3.324,45.683,45.683,0,0,0-5.726-6.119l-.63,2.531Z" transform="translate(-267.833 -68.272)" fill="#1b3f5e"/>
              <path id="Trazado_189690" data-name="Trazado 189690" d="M285.053,71.022l.737.714a2.368,2.368,0,0,0,2.047.562c.63-.18.737-.72.231-1.2l-.737-.72a2.346,2.346,0,0,0-2.047-.562C284.654,69.982,284.552,70.522,285.053,71.022Z" transform="translate(-273.996 -66.519)" fill="#263238"/>
            </g>
            <path id="Trazado_189691" data-name="Trazado 189691" d="M306.41,86l.416,2.6,3.206.349C308.682,87.687,306.41,86,306.41,86Z" transform="translate(-283.48 -73.623)" fill="#f28f8f"/>
            <path id="Trazado_189692" data-name="Trazado 189692" d="M300.123,98.859a1.749,1.749,0,0,0-.922-1.58c1.2-.264,1.339-.838,1.254-1.423s-1.035-1.221-1.035-1.221a1.2,1.2,0,0,0,.748-.63c.163-.472-.332-1.311-1.164-1.732s-2.357-.146-3.234-.225-2.958-1.687-2.958-1.687l-.191-.681-2.6,1.6a1.192,1.192,0,0,1,.281,1.046c-.152.6-.607,1.417-.264,1.991a1.26,1.26,0,0,1,.242,1.271,1.762,1.762,0,0,0,0,1.687,1.242,1.242,0,0,1,0,1.052,1.2,1.2,0,0,0,.394,1.423,17.566,17.566,0,0,0,3.285,1.946c1.024.349,1.159.169,2.25-.067s2.12-.523,2.132-.928-.422-.726-.934-.894c.27-.068.562-.135.8-.191C299.347,99.315,300.005,99.292,300.123,98.859Z" transform="translate(-276.259 -75.233)" fill="#f28f8f"/>
            <path id="Trazado_189693" data-name="Trazado 189693" d="M309.972,99.754c-2.014-3.161-1.541-7.751-2.407-8.791s-4.854-2.582-5.624-2.593c-1.221,0-3.015,2.1-4.157,3.442-.787.928.259,1.474,1.164,1.479a4.46,4.46,0,0,0,2.812-1.153l1.687.765s1.26,8.33,1.311,8.139S309.972,99.754,309.972,99.754Z" transform="translate(-279.584 -74.66)" fill="#ffa8a7"/>
            <path id="Trazado_189694" data-name="Trazado 189694" d="M336.68,124.316c1.687,1.6,3.864,3.9,4.258,6.142.838-3-2.03-5.923-3.3-7.407Z" transform="translate(-296.724 -89.834)" fill="#f28f8f"/>
          </g>
          <path id="freepik--Chest--inject-2" d="M386.521,86.43c2.362.489,5.36,1.1,8.369,1.929s3.453,1.012,4.432,1.355c0,0,1.6,6.89.664,23.4-.141,2.447-1.912,9-2.216,14.061a80.926,80.926,0,0,0,.427,15.816s-6.013,5.816-22.717,4.556c-13.105-.984-16.48-6.7-16.48-6.7s.146-20.951.489-30.614c.444-12.695,4.291-20.023,7.121-22.239l8.6-1.434Z" transform="translate(-306.49 -52.748)" fill="#455a64"/>
          <g id="freepik--Head--inject-2" transform="translate(51.34)">
            <path id="Trazado_189695" data-name="Trazado 189695" d="M409.847,38.21a4.545,4.545,0,0,1,3.347,2.7c.669,1.282,1.125,3.617-.681,10.287a26.989,26.989,0,0,1-3.228,7.368,3.325,3.325,0,0,1-1.918,1.53l.135-5.13.191-3.577s-2.885-2.615-3.133-5.186a8.192,8.192,0,0,1,.973-5.175Z" transform="translate(-377.743 -31.65)" fill="#37474f"/>
            <path id="Trazado_189696" data-name="Trazado 189696" d="M396.886,33.275c-.5-2.88-4.162-6.322-11.215-6.7-5.782-.309-9,1.783-11.176,5.062-2.25,3.408-.686,7.734-.686,7.734l18.162-1.187Z" transform="translate(-364.078 -26.546)" fill="#37474f"/>
            <path id="Trazado_189697" data-name="Trazado 189697" d="M398.691,56.448c-2.655,1.294-3.87-.81-3.87-.81l-.4,10.557c-5.1,6.828-18.724,4.359-13.139-.754V63.023a15.175,15.175,0,0,1-2.3-.225,5.668,5.668,0,0,1-4.7-4.5c-1.035-3.768-.72-11.941-.1-16.4a4.62,4.62,0,0,1,2.2-3.268c2.812-1.395,5.439.619,9.37,2.154,1.631.636,5.585.911,6.626.422-1.372,1.519-1.361,6.305.664,8.251a4.347,4.347,0,0,0,1.012,1.316c.861.754,1.564-1.181,2.289-1.94a2.97,2.97,0,0,1,4.612,1.063,4.831,4.831,0,0,1-2.147,6.486Z" transform="translate(-364.225 -31.63)" fill="#ffa8a7"/>
            <path id="Trazado_189698" data-name="Trazado 189698" d="M373.979,86.7a19.71,19.71,0,0,0-9.618,12.008c-2.2,8.448-2.784,32.8-2.863,40.811s0,10.99,0,10.99,0-.658-4.578-2.508c0-9.393.7-40.856,2.03-47.178C361.144,90.4,365.7,88.106,365.7,88.106Z" transform="translate(-356.92 -52.867)" fill="#1b3f5e"/>
            <path id="Trazado_189699" data-name="Trazado 189699" d="M357.434,162.61c-.028,1.086-.056,2.16-.084,3.212a19.884,19.884,0,0,0,4.415,1.963c0-1,.051-2.064.079-3.183A32.372,32.372,0,0,1,357.434,162.61Z" transform="translate(-357.108 -86.081)" fill="#fafafa"/>
            <path id="Trazado_189700" data-name="Trazado 189700" d="M357.116,177c0,1-.039,1.969-.056,2.9a16.06,16.06,0,0,0,4.5,1.856v-2.807A18.323,18.323,0,0,1,357.116,177Z" transform="translate(-356.981 -92.377)" fill="#fafafa"/>
            <path id="Trazado_189701" data-name="Trazado 189701" d="M406.516,86l-.045,1.125A93.275,93.275,0,0,0,403.315,99.5c-.7,3.813-.962,8.262-1.266,12.228-.742,9.624-.877,32.622-.9,40.547,5.54,1.086,13.268,0,16.738-2.587-.658-10.574-1.311-16.047-.726-24.017.608-8.386,4.078-23.994.827-36.436C415.054,88.4,410.335,86.984,406.516,86Z" transform="translate(-376.273 -52.56)" fill="#1b3f5e"/>
            <path id="Trazado_189702" data-name="Trazado 189702" d="M417.257,180.86c-2.925,2.374-9.6,4.275-16.007,4.083v2.987s10.535.439,16.215-4.145C417.375,182.772,417.314,181.8,417.257,180.86Z" transform="translate(-376.317 -94.066)" fill="#fafafa"/>
            <path id="Trazado_189703" data-name="Trazado 189703" d="M401.389,169.865c0,1.012-.028,2.008-.039,2.992A32.385,32.385,0,0,0,417.1,169.9c-.034-1.125-.051-2.188-.045-3.285A29.016,29.016,0,0,1,401.389,169.865Z" transform="translate(-376.36 -87.836)" fill="#fafafa"/>
            <path id="Trazado_189704" data-name="Trazado 189704" d="M387.266,77.075a21.04,21.04,0,0,0,7.655-1.164c1.822-.765,3.437-3.234,3.965-5.681,0,1.969-.866,5.461-3.628,6.907s-5.979,1.53-8,1.575Z" transform="translate(-370.195 -45.66)" fill="#f28f8f"/>
            <path id="Trazado_189705" data-name="Trazado 189705" d="M394.9,49.625l2.57,1.2a1.49,1.49,0,0,0-.714-1.924,1.378,1.378,0,0,0-1.831.668C394.916,49.586,394.908,49.606,394.9,49.625Z" transform="translate(-373.538 -36.271)" fill="#37474f"/>
            <path id="Trazado_189706" data-name="Trazado 189706" d="M376.747,49.548l2.689-.951a1.373,1.373,0,0,0-1.708-.923l-.07.023A1.5,1.5,0,0,0,376.747,49.548Z" transform="translate(-365.565 -35.766)" fill="#37474f"/>
            <path id="Trazado_189707" data-name="Trazado 189707" d="M395.609,54.755a1.153,1.153,0,1,1-1.069-1.237,1.125,1.125,0,0,1,1.073,1.174C395.613,54.713,395.611,54.734,395.609,54.755Z" transform="translate(-372.841 -38.346)" fill="#263238"/>
            <path id="Trazado_189708" data-name="Trazado 189708" d="M380.089,54.035a1.13,1.13,0,1,1,0-.006Z" transform="translate(-366.05 -38.031)" fill="#263238"/>
            <path id="Trazado_189709" data-name="Trazado 189709" d="M385.2,52l-.906,7.312-4.151-1.58A17.229,17.229,0,0,1,385.2,52Z" transform="translate(-367.08 -37.684)" fill="#f28f8f"/>
            <path id="Trazado_189710" data-name="Trazado 189710" d="M390.557,68.57l-3.037.877a1.557,1.557,0,0,0,1.888,1.136l.041-.011A1.648,1.648,0,0,0,390.557,68.57Z" transform="translate(-370.309 -44.934)" fill="#b16668"/>
            <path id="Trazado_189711" data-name="Trazado 189711" d="M391.35,69.5a1.74,1.74,0,0,1,.382,0,1.626,1.626,0,0,1-1.125,1.479,1.393,1.393,0,0,1-.5.051A1.446,1.446,0,0,1,391.35,69.5Z" transform="translate(-371.44 -45.337)" fill="#f28f8f"/>
          </g>
          <g id="freepik--Box--inject-2" transform="translate(9.139 55.229)">
            <path id="Trazado_189712" data-name="Trazado 189712" d="M281.89,135.2l23.516,6.935,11.288-10.456-23.516-6.935Z" transform="translate(-281.89 -124.74)" fill="#1b3f5e"/>
            <path id="Trazado_189713" data-name="Trazado 189713" d="M281.89,135.2l23.516,6.935,11.288-10.456-23.516-6.935Z" transform="translate(-281.89 -124.74)" fill="#fff" opacity="0.7" style="isolation: isolate"/>
            <path id="Trazado_189714" data-name="Trazado 189714" d="M281.89,143.33l26.272,32.122,23.51,6.935-26.266-32.122Z" transform="translate(-281.89 -132.874)" fill="#1b3f5e"/>
            <path id="Trazado_189715" data-name="Trazado 189715" d="M281.89,143.33l26.272,32.122,23.51,6.935-26.266-32.122Z" transform="translate(-281.89 -132.874)" fill="#fff" opacity="0.4" style="isolation: isolate"/>
            <path id="Trazado_189716" data-name="Trazado 189716" d="M334.988,137.07,361.255,169.2l-11.288,10.45L323.7,147.526Z" transform="translate(-300.184 -130.135)" fill="#1b3f5e"/>
            <path id="Trazado_189717" data-name="Trazado 189717" d="M334.988,137.07,361.255,169.2l-11.288,10.45L323.7,147.526Z" transform="translate(-300.184 -130.135)" fill="#fff" opacity="0.6" style="isolation: isolate"/>
            <path id="Trazado_189718" data-name="Trazado 189718" d="M303.165,149.606l-3.375-1,26.266,32.122,3.375,1Z" transform="translate(-289.722 -135.184)" fill="#263238"/>
            <path id="Trazado_189719" data-name="Trazado 189719" d="M304.727,140.49l-4.927,4.567,3.375,1,4.927-4.561Z" transform="translate(-289.727 -131.631)" fill="#455a64"/>
          </g>
          <path id="freepik--shadow--inject-2-4" data-name="freepik--shadow--inject-2" d="M361.017,174.088l-8.482-10.372c-.562.152-1.041.562-1.614.681a15.5,15.5,0,0,1-2.812.225,25.486,25.486,0,0,1-5.664-.911c-1.024-.264-2.042-.562-3.065-.838-.591-.157-1.389-.225-1.642.332-.191.427.124.911.456,1.237,1.946,1.907,4.972,2.109,7.312,3.453.174.1.371.264.321.456s-.253.236-.427.27c-2.177.4-7.458.782-9.562,1.457-.388.124-.844.366-.827.776a.888.888,0,0,0,.489.652,4,4,0,0,0,1.625.591.984.984,0,0,0,.264,1.243,2.679,2.679,0,0,0,1.277.5c.748.141,1.5.253,2.25.332,0,.321-.478.287-.776.394a.776.776,0,0,0-.354,1,2.013,2.013,0,0,0,.8.855,5.107,5.107,0,0,0,3.116,1.125,5.987,5.987,0,0,0,1.406-.3c3.7-1.125,10.428-2.812,14.286-3.026C359.932,174.173,360.477,174.145,361.017,174.088Z" transform="translate(-295.993 -86.147)" fill="#1b3f5e" opacity="0.6" style="isolation: isolate"/>
          <g id="freepik--arm--inject-2-2" data-name="freepik--arm--inject-2" transform="translate(38.78 36.516)">
            <path id="Trazado_189720" data-name="Trazado 189720" d="M359.625,161.364c-1.535.219-2.958-.866-4.162-2.441s-1.659-3.026-3.937-3.425-3.515-.517-3.515-.517l2,2.447s1.794,2.334-.349,2.874a9.05,9.05,0,0,1-5.281-.467c-4.038-1.3-6.266-2.25-6.71-1.029s.793,1.592,2.284,2.25,5.118,1.985,6.029,2.441,1.012.877-.844,1.2-7.874.8-9.112.934-1.8,1-1.181,1.547a8.263,8.263,0,0,0,2.812.866s-1.164,1.507,1.125,1.907,7.751-.124,8.082-.056a20.273,20.273,0,0,1-4.286,1.451c-.568.022-2.812-.866-3.1-.366s.039,1.057.951,1.429,2.165,1.378,3.133,1.176,5.973-2,7.424-2.306,8.949-1.974,8.949-1.974Z" transform="translate(-334.59 -119.259)" fill="#ffa8a7"/>
            <path id="Trazado_189721" data-name="Trazado 189721" d="M404.879,92.27c-3.611,2.132-6.547,7.914-7.16,13.392s-1.9,19.461-1.9,19.461-12.34,5.394-15.569,6.446-6.749,1.8-8.549-.084l1.294,11.108s12.47-1.98,18.33-3.088a71.049,71.049,0,0,0,12.031-3.071c3.375-1.372,4.3-1.6,5.354-7.458.911-5.062,1.862-14.77,2.514-19.736S412.618,94.469,404.879,92.27Z" transform="translate(-350.828 -91.82)" fill="#ffa8a7"/>
            <path id="Trazado_189722" data-name="Trazado 189722" d="M340,177.617c.962,0,1.918-.073,2.88-.112l2.874-.169,1.44-.073a10.945,10.945,0,0,0,1.423-.107l2.863-.326c-.934.214-1.879.4-2.812.534a26.219,26.219,0,0,1-2.88.191c-.962.045-1.918.09-2.88.1S340.979,177.691,340,177.617Z" transform="translate(-336.957 -128.819)" fill="#f28f8f"/>
            <path id="Trazado_189723" data-name="Trazado 189723" d="M423.47,91.47c2.295.562,4.893,1.631,6.114,5.146s1.423,5.551.866,12.273-1.53,12.841-1.53,12.841-1.986.731-6.716.382a14.14,14.14,0,0,1-7.385-2.486s.962-10.54,1.423-14.967S418.639,93.866,423.47,91.47Z" transform="translate(-369.695 -91.47)" fill="#455a64"/>
          </g>
        </g>
      </g>
    </g>
    <g id="freepik--cargo-car--inject-2" transform="translate(77.691 84.275)">
      <g id="freepik--cargo-car--inject-2-2" data-name="freepik--cargo-car--inject-2">
        <g id="freepik--cargo-car--inject-2-3" data-name="freepik--cargo-car--inject-2">
          <path id="Trazado_189724" data-name="Trazado 189724" d="M209.417,180.942l-28.764,16.6a12.728,12.728,0,0,0-5.731,9.927v63.5l-2.672,1.541v-67.2a12.719,12.719,0,0,1,5.731-9.927l31.559-18.223c3.155-1.817,5.731-.332,5.731,3.313v67.207l-2.666,1.558V182.77C212.606,180.762,211.16,179.941,209.417,180.942Z" transform="translate(-165.113 -176.381)" fill="#e0e0e0"/>
          <path id="Trazado_189725" data-name="Trazado 189725" d="M273.707,428.63a11.345,11.345,0,0,0-5.13-8.892c-1.49-.861-2.812-.894-3.763-.27h0l-3.465,1.98,7.368,12.515,3.431-1.974h0A3.6,3.6,0,0,0,273.707,428.63Z" transform="translate(-204.098 -282.556)" fill="#455a64"/>
          <path id="Trazado_189726" data-name="Trazado 189726" d="M263.805,423.441a11.345,11.345,0,0,1,5.135,8.892c0,3.268-2.295,4.606-5.135,2.919a11.424,11.424,0,0,1-5.135-8.892C258.67,423.092,260.97,421.781,263.805,423.441Z" transform="translate(-202.926 -284.168)" fill="#37474f"/>
          <path id="Trazado_189727" data-name="Trazado 189727" d="M264.71,431.535c0-1.282.782-1.867,1.738-1.316a4.162,4.162,0,0,1,1.738,3.324c0,1.277-.776,1.867-1.738,1.311A4.167,4.167,0,0,1,264.71,431.535Z" transform="translate(-205.568 -287.357)" fill="#263238"/>
          <path id="Trazado_189728" data-name="Trazado 189728" d="M274.943,414.25s0,5.855-2.812,7.931c-.523.388-1.086.658-1.412.934-.714.6-.242,1.687.624,2.149,1.26.675,8.116-1.153,11.018-6.721Z" transform="translate(-208.045 -280.461)" fill="#f0f0f0"/>
          <path id="Trazado_189729" data-name="Trazado 189729" d="M270.213,417s0,5.861-2.812,7.936c-.523.388-1.086.658-1.412.934-.714.562-.242,1.687.624,2.149,1.26.675,8.116-1.153,11.018-6.749Z" transform="translate(-205.976 -281.664)" fill="#fafafa"/>
          <path id="Trazado_189730" data-name="Trazado 189730" d="M267.419,433.438a1.085,1.085,0,0,1,.495.855c0,.315-.219.439-.495.281a1.084,1.084,0,0,1-.489-.849C266.93,433.41,267.149,433.28,267.419,433.438Z" transform="translate(-206.54 -288.827)" fill="#263238"/>
          <path id="Trazado_189731" data-name="Trazado 189731" d="M174.6,371.409a11.353,11.353,0,0,0-5.135-8.9c-1.49-.855-2.812-.889-3.763-.264h0l-3.459,1.98,7.362,12.509,3.431-1.974h0A3.575,3.575,0,0,0,174.6,371.409Z" transform="translate(-160.733 -257.519)" fill="#455a64"/>
          <path id="Trazado_189732" data-name="Trazado 189732" d="M164.7,366.2a11.421,11.421,0,0,1,5.135,8.892c0,3.268-2.3,4.6-5.135,2.964a11.36,11.36,0,0,1-5.135-8.892C159.56,365.892,161.86,364.559,164.7,366.2Z" transform="translate(-159.56 -259.128)" fill="#37474f"/>
          <path id="Trazado_189733" data-name="Trazado 189733" d="M165.6,374.307c0-1.277.776-1.867,1.738-1.31a4.152,4.152,0,0,1,1.738,3.318c0,1.282-.776,1.867-1.738,1.316A4.162,4.162,0,0,1,165.6,374.307Z" transform="translate(-162.203 -262.319)" fill="#263238"/>
          <path id="Trazado_189734" data-name="Trazado 189734" d="M175.832,357s0,5.861-2.812,7.936c-.529.388-1.086.658-1.417.934-.709.562-.236,1.687.63,2.149,1.254.675,8.111-1.153,11.018-6.749Z" transform="translate(-164.678 -255.411)" fill="#f0f0f0"/>
          <path id="Trazado_189735" data-name="Trazado 189735" d="M171.1,359.74s0,5.861-2.812,7.931c-.529.394-1.086.664-1.417.939-.709.591-.242,1.687.624,2.143,1.26.675,8.116-1.125,11.018-6.721Z" transform="translate(-162.608 -256.61)" fill="#fafafa"/>
          <path id="Trazado_189736" data-name="Trazado 189736" d="M168.3,376.219a1.091,1.091,0,0,1,.489.849c0,.315-.219.444-.489.287a1.125,1.125,0,0,1-.495-.855C167.81,376.185,168.035,376.067,168.3,376.219Z" transform="translate(-163.17 -263.791)" fill="#263238"/>
          <path id="Trazado_189737" data-name="Trazado 189737" d="M167.47,328.328l48.4-27.948,75.3,43.472L242.76,371.8Z" transform="translate(-163.021 -230.637)" fill="#455a64"/>
          <path id="Trazado_189738" data-name="Trazado 189738" d="M167.47,350.07v3.1l75.29,43.472v-3.1Z" transform="translate(-163.021 -252.379)" fill="#37474f"/>
          <path id="Trazado_189739" data-name="Trazado 189739" d="M349.734,377.67v3.1l-48.4,27.948v-3.1Z" transform="translate(-221.591 -264.455)" fill="#263238"/>
        </g>
        <g id="freepik--Items--inject-2" transform="translate(8.684 20.928)">
          <path id="freepik--shadow--inject-2-5" data-name="freepik--shadow--inject-2" d="M175,329.786l42.4,24.489,44.794-25.828L219.675,304.02Z" transform="translate(-175 -253.158)" fill="#37474f"/>
          <g id="freepik--box--inject-2-2" data-name="freepik--box--inject-2" transform="translate(3.358 26.019)">
            <path id="Trazado_189740" data-name="Trazado 189740" d="M260.7,282.3,221.866,259.85l-40.9,23.662,38.837,22.453Z" transform="translate(-180.97 -259.85)" fill="#1b3f5e"/>
            <path id="Trazado_189741" data-name="Trazado 189741" d="M260.7,282.3,221.866,259.85l-40.9,23.662,38.837,22.453Z" transform="translate(-180.97 -259.85)" fill="#fff" opacity="0.3" style="isolation: isolate"/>
            <path id="Trazado_189742" data-name="Trazado 189742" d="M250.02,350.576l40.9-23.662V299.77l-40.9,23.662Z" transform="translate(-211.183 -277.317)" fill="#1b3f5e"/>
            <path id="Trazado_189743" data-name="Trazado 189743" d="M257.687,367.21a.914.914,0,0,1-.45-.118,1.373,1.373,0,0,1-.562-1.249v-3.684h0v-.276l.186.034,2.891-1.687v4.117a3.375,3.375,0,0,1-1.423,2.689A1.316,1.316,0,0,1,257.687,367.21Zm-.562-4.775v3.408a.957.957,0,0,0,.332.849.658.658,0,0,0,.63-.067,2.937,2.937,0,0,0,1.187-2.289v-.3H258.2L258,362.592Zm1.479,1.125h.669v-2.542l-1.721,1.007.855.152Z" transform="translate(-214.092 -303.771)" fill="#455a64"/>
            <path id="Trazado_189744" data-name="Trazado 189744" d="M259.231,375.122a.231.231,0,0,1-.231-.231v-3.071a.231.231,0,1,1,.461,0v3.093A.23.23,0,0,1,259.231,375.122Z" transform="translate(-215.112 -308.742)" fill="#455a64"/>
            <path id="Trazado_189745" data-name="Trazado 189745" d="M256.82,377.68a.242.242,0,0,1-.2-.118.237.237,0,0,1,.084-.315l2.694-1.552a.225.225,0,0,1,.309.075l.006.01a.231.231,0,0,1-.084.315l-2.689,1.552A.236.236,0,0,1,256.82,377.68Z" transform="translate(-214.057 -310.523)" fill="#455a64"/>
            <path id="Trazado_189746" data-name="Trazado 189746" d="M273.647,365.2a.5.5,0,0,1-.253-.067.614.614,0,0,1-.276-.562v-.63a.231.231,0,1,1,.461,0v.63a.207.207,0,0,0,.045.158.376.376,0,0,0,.152-.039,1.361,1.361,0,0,0,.427-1.046v-4.117a.236.236,0,0,1,.467,0v4.117a1.772,1.772,0,0,1-.658,1.446A.714.714,0,0,1,273.647,365.2Z" transform="translate(-221.289 -303.375)" fill="#455a64"/>
            <path id="Trazado_189747" data-name="Trazado 189747" d="M269.72,358.707v-.4a6.553,6.553,0,0,1,2.964-5.135,1.963,1.963,0,0,1,3.195,1.845v.135Zm4.353-5.49a2.372,2.372,0,0,0-1.159.36,6.119,6.119,0,0,0-2.711,4.314l5.208-3a1.715,1.715,0,0,0-.714-1.513A1.225,1.225,0,0,0,274.073,353.218Z" transform="translate(-219.803 -300.482)" fill="#455a64"/>
            <path id="Trazado_189748" data-name="Trazado 189748" d="M288.671,354.855a.231.231,0,0,1-.231-.231h0v-7.874a.231.231,0,0,1,.461,0v7.874a.231.231,0,0,1-.231.231Z" transform="translate(-227.994 -297.772)" fill="#455a64"/>
            <path id="Trazado_189749" data-name="Trazado 189749" d="M287.463,348.395a.188.188,0,0,1-.09,0,.231.231,0,0,1-.118-.3l.821-1.9.922,1.063a.231.231,0,0,1,0,.326h0a.236.236,0,0,1-.332-.028l-.433-.5-.562,1.226A.225.225,0,0,1,287.463,348.395Z" transform="translate(-227.466 -297.628)" fill="#455a64"/>
            <path id="Trazado_189750" data-name="Trazado 189750" d="M292.481,352.686a.231.231,0,0,1-.231-.231h0v-7.874a.231.231,0,0,1,.461,0v7.874a.231.231,0,0,1-.231.231Z" transform="translate(-229.661 -296.823)" fill="#455a64"/>
            <path id="Trazado_189751" data-name="Trazado 189751" d="M291.269,346.225a.188.188,0,0,1-.09,0,.231.231,0,0,1-.125-.3v0l.827-1.9.917,1.057a.225.225,0,0,1,.008.318l-.008.008a.231.231,0,0,1-.326,0h0l-.433-.5-.534,1.226A.241.241,0,0,1,291.269,346.225Z" transform="translate(-229.13 -296.679)" fill="#455a64"/>
            <path id="Trazado_189752" data-name="Trazado 189752" d="M219.807,351.517,180.97,329.069V301.92l38.837,22.453Z" transform="translate(-180.97 -278.258)" fill="#1b3f5e"/>
            <path id="Trazado_189753" data-name="Trazado 189753" d="M219.807,351.517,180.97,329.069V301.92l38.837,22.453Z" transform="translate(-180.97 -278.258)" opacity="0.1" style="isolation: isolate"/>
            <path id="Trazado_189754" data-name="Trazado 189754" d="M188.916,331l11.418,6.581a1.154,1.154,0,0,1,.517.894V346.4c0,.652-.461.922-1.029.6l-11.4-6.586a1.125,1.125,0,0,1-.517-.889v-7.925C187.893,330.939,188.354,330.675,188.916,331Z" transform="translate(-184.006 -290.921)" fill="#fafafa"/>
            <path id="Trazado_189755" data-name="Trazado 189755" d="M189.2,333.3l.388.225v6.991l-.388-.225Z" transform="translate(-184.571 -291.988)" fill="#455a64"/>
            <path id="Trazado_189756" data-name="Trazado 189756" d="M192,334.92l.669.394V342.3l-.669-.394Z" transform="translate(-185.796 -292.697)" fill="#455a64"/>
            <path id="Trazado_189757" data-name="Trazado 189757" d="M194.81,336.54l.388.225v6.991l-.388-.225Z" transform="translate(-187.026 -293.406)" fill="#455a64"/>
            <path id="Trazado_189758" data-name="Trazado 189758" d="M196.93,337.74l.776.461v6.991l-.776-.461Z" transform="translate(-187.953 -293.931)" fill="#455a64"/>
            <path id="Trazado_189759" data-name="Trazado 189759" d="M200.42,339.78l.388.225V347l-.388-.225Z" transform="translate(-189.48 -294.823)" fill="#455a64"/>
            <path id="Trazado_189760" data-name="Trazado 189760" d="M202.44,340.92l.832.495v6.991l-.832-.495Z" transform="translate(-190.364 -295.322)" fill="#455a64"/>
            <path id="Trazado_189761" data-name="Trazado 189761" d="M206.03,343.02l.388.225v6.991l-.388-.225Z" transform="translate(-191.935 -296.241)" fill="#455a64"/>
            <path id="Trazado_189762" data-name="Trazado 189762" d="M207.63,343.93l.2.113v6.991l-.2-.113Z" transform="translate(-192.635 -296.639)" fill="#455a64"/>
            <path id="Trazado_189763" data-name="Trazado 189763" d="M204.75,342.34l.2.112v6.991l-.2-.112Z" transform="translate(-191.375 -295.943)" fill="#455a64"/>
            <path id="Trazado_189764" data-name="Trazado 189764" d="M199.1,339.03l.2.113v6.991l-.2-.113Z" transform="translate(-188.903 -294.495)" fill="#455a64"/>
            <path id="Trazado_189765" data-name="Trazado 189765" d="M196.01,337.25l.191.112v6.991l-.191-.107Z" transform="translate(-187.551 -293.716)" fill="#455a64"/>
            <path id="Trazado_189766" data-name="Trazado 189766" d="M193.78,336.03l.2.112v6.991l-.2-.112Z" transform="translate(-186.575 -293.182)" fill="#455a64"/>
            <path id="Trazado_189767" data-name="Trazado 189767" d="M190.77,334.2l.191.107v7l-.191-.112Z" transform="translate(-185.258 -292.382)" fill="#455a64"/>
            <path id="Trazado_189768" data-name="Trazado 189768" d="M208.84,344.64l.388.225v6.991l-.388-.225Z" transform="translate(-193.165 -296.95)" fill="#455a64"/>
            <path id="Trazado_189769" data-name="Trazado 189769" d="M209.96,322.783l2.655,1.535V320.2l-2.655-1.535Z" transform="translate(-193.655 -285.582)" fill="#37474f"/>
            <path id="Trazado_189770" data-name="Trazado 189770" d="M212.615,301.788l40.9-23.662-2.655-1.535-40.9,23.662Z" transform="translate(-193.655 -267.175)" fill="#455a64"/>
          </g>
          <path id="freepik--shadow--inject-2-6" data-name="freepik--shadow--inject-2" d="M181.97,283.192l31.582,18.178,40.294-23.3L222.3,259.85Z" transform="translate(-178.05 -233.831)" opacity="0.1" style="isolation: isolate"/>
          <g id="freepik--box--inject-2-3" data-name="freepik--box--inject-2" transform="translate(3.988)">
            <path id="Trazado_189771" data-name="Trazado 189771" d="M250.7,231.706,219.257,213.59,182.09,235.081,213.531,253.2Z" transform="translate(-182.09 -213.59)" fill="#1b3f5e"/>
            <path id="Trazado_189772" data-name="Trazado 189772" d="M250.7,231.706,219.257,213.59,182.09,235.081,213.531,253.2Z" transform="translate(-182.09 -213.59)" fill="#fff" opacity="0.7" style="isolation: isolate"/>
            <path id="Trazado_189773" data-name="Trazado 189773" d="M237.99,293.366l37.167-21.5V245.8L237.99,267.291Z" transform="translate(-206.549 -227.683)" fill="#1b3f5e"/>
            <path id="Trazado_189774" data-name="Trazado 189774" d="M237.99,293.366l37.167-21.5V245.8L237.99,267.291Z" transform="translate(-206.549 -227.683)" fill="#fff" opacity="0.6" style="isolation: isolate"/>
            <path id="Trazado_189775" data-name="Trazado 189775" d="M246.309,307.814a.8.8,0,0,1-.394-.1,1.216,1.216,0,0,1-.489-1.091v-3.2h0v-.236l.163.028,2.509-1.474v3.577a2.9,2.9,0,0,1-1.232,2.34A1.168,1.168,0,0,1,246.309,307.814Zm-.484-4.157v2.964a.809.809,0,0,0,.293.737.563.563,0,0,0,.562-.056,2.538,2.538,0,0,0,1.035-1.991v-.264h-.928l-.186-1.254Zm1.288.99h.562v-2.2l-1.5.877.742.135Z" transform="translate(-209.8 -252.16)" fill="#455a64"/>
            <path id="Trazado_189776" data-name="Trazado 189776" d="M247.61,314.647a.2.2,0,0,1-.2-.2v-2.689a.2.2,0,1,1,.4-.067.194.194,0,0,1,0,.067v2.689A.2.2,0,0,1,247.61,314.647Z" transform="translate(-210.669 -256.439)" fill="#455a64"/>
            <path id="Trazado_189777" data-name="Trazado 189777" d="M245.533,316.9a.185.185,0,0,1-.174-.1.2.2,0,0,1,.073-.276l2.34-1.35a.2.2,0,1,1,.249.319.2.2,0,0,1-.052.03l-2.334,1.35A.235.235,0,0,1,245.533,316.9Z" transform="translate(-209.762 -258.02)" fill="#455a64"/>
            <path id="Trazado_189778" data-name="Trazado 189778" d="M260.141,305.983a.428.428,0,0,1-.219-.056.562.562,0,0,1-.242-.484v-.562a.2.2,0,0,1,.4,0h0v.562c0,.084,0,.124.039.135a.18.18,0,0,0,.129-.034,1.18,1.18,0,0,0,.377-.911v-3.577a.2.2,0,1,1,.4-.067.191.191,0,0,1,0,.067v3.577a1.523,1.523,0,0,1-.562,1.254A.661.661,0,0,1,260.141,305.983Z" transform="translate(-216.039 -251.757)" fill="#455a64"/>
            <path id="Trazado_189779" data-name="Trazado 189779" d="M256.73,300.4v-.349a5.7,5.7,0,0,1,2.576-4.466,1.687,1.687,0,0,1,2.778,1.609v.113Zm3.78-4.775a2.037,2.037,0,0,0-1,.315,5.309,5.309,0,0,0-2.357,3.752l4.5-2.615a1.479,1.479,0,0,0-.624-1.31,1.036,1.036,0,0,0-.517-.135Z" transform="translate(-214.749 -249.276)" fill="#455a64"/>
            <path id="Trazado_189780" data-name="Trazado 189780" d="M273.2,297.066a.2.2,0,0,1-.2-.2v-6.851a.2.2,0,1,1,.4,0v6.851a.2.2,0,0,1-.2.2Z" transform="translate(-221.868 -246.94)" fill="#455a64"/>
            <path id="Trazado_189781" data-name="Trazado 189781" d="M272.155,291.491a.2.2,0,0,1-.2-.195.2.2,0,0,1,.019-.087l.714-1.659.8.922a.2.2,0,0,1,0,.286h0a.2.2,0,0,1-.278,0l0,0-.382-.439-.461,1.069A.2.2,0,0,1,272.155,291.491Z" transform="translate(-221.411 -246.826)" fill="#455a64"/>
            <path id="Trazado_189782" data-name="Trazado 189782" d="M276.512,295.176a.2.2,0,0,1-.2-.2v-6.851a.2.2,0,1,1,.4,0v6.851a.2.2,0,0,1-.2.2Z" transform="translate(-223.316 -246.113)" fill="#455a64"/>
            <path id="Trazado_189783" data-name="Trazado 189783" d="M275.467,289.564h-.079a.2.2,0,0,1-.1-.264L276,287.64l.8.928a.2.2,0,0,1-.3.259h0l-.383-.439-.461,1.069A.2.2,0,0,1,275.467,289.564Z" transform="translate(-222.861 -245.991)" fill="#455a64"/>
            <path id="Trazado_189784" data-name="Trazado 189784" d="M213.531,295.992,182.09,277.87V251.8l31.441,18.117Z" transform="translate(-182.09 -230.309)" fill="#1b3f5e"/>
            <path id="Trazado_189785" data-name="Trazado 189785" d="M213.531,295.992,182.09,277.87V251.8l31.441,18.117Z" transform="translate(-182.09 -230.309)" fill="#fff" opacity="0.4" style="isolation: isolate"/>
            <path id="Trazado_189786" data-name="Trazado 189786" d="M188.916,278.1l11.418,6.581a1.154,1.154,0,0,1,.517.894V293.5c0,.652-.461.922-1.029.6l-11.4-6.586a1.125,1.125,0,0,1-.517-.889v-7.925C187.893,278.039,188.354,277.775,188.916,278.1Z" transform="translate(-184.636 -241.756)" fill="#fafafa"/>
            <path id="Trazado_189787" data-name="Trazado 189787" d="M189.2,280.4l.388.225v6.991l-.388-.225Z" transform="translate(-185.201 -242.823)" fill="#455a64"/>
            <path id="Trazado_189788" data-name="Trazado 189788" d="M192,282.02l.669.394V289.4l-.669-.394Z" transform="translate(-186.426 -243.531)" fill="#455a64"/>
            <path id="Trazado_189789" data-name="Trazado 189789" d="M194.81,283.64l.388.225v6.991l-.388-.225Z" transform="translate(-187.656 -244.24)" fill="#455a64"/>
            <path id="Trazado_189790" data-name="Trazado 189790" d="M196.93,284.84l.776.461v6.991l-.776-.461Z" transform="translate(-188.583 -244.765)" fill="#455a64"/>
            <path id="Trazado_189791" data-name="Trazado 189791" d="M200.42,286.88l.388.225V294.1l-.388-.225Z" transform="translate(-190.11 -245.658)" fill="#455a64"/>
            <path id="Trazado_189792" data-name="Trazado 189792" d="M202.44,288.02l.832.495v6.991l-.832-.495Z" transform="translate(-190.994 -246.157)" fill="#455a64"/>
            <path id="Trazado_189793" data-name="Trazado 189793" d="M206.03,290.12l.388.225v6.991l-.388-.225Z" transform="translate(-192.565 -247.076)" fill="#455a64"/>
            <path id="Trazado_189794" data-name="Trazado 189794" d="M207.63,291.03l.2.112v6.991l-.2-.113Z" transform="translate(-193.265 -247.474)" fill="#455a64"/>
            <path id="Trazado_189795" data-name="Trazado 189795" d="M204.75,289.44l.2.113v6.991l-.2-.112Z" transform="translate(-192.005 -246.778)" fill="#455a64"/>
            <path id="Trazado_189796" data-name="Trazado 189796" d="M199.1,286.13l.2.113v6.991l-.2-.112Z" transform="translate(-189.533 -245.33)" fill="#455a64"/>
            <path id="Trazado_189797" data-name="Trazado 189797" d="M196.01,284.35l.191.113v6.991l-.191-.107Z" transform="translate(-188.181 -244.551)" fill="#455a64"/>
            <path id="Trazado_189798" data-name="Trazado 189798" d="M193.78,283.13l.2.107v7l-.2-.112Z" transform="translate(-187.205 -244.017)" fill="#455a64"/>
            <path id="Trazado_189799" data-name="Trazado 189799" d="M190.77,281.3l.191.107v7l-.191-.112Z" transform="translate(-185.888 -243.216)" fill="#455a64"/>
            <path id="Trazado_189800" data-name="Trazado 189800" d="M208.84,291.74l.388.219v7l-.388-.225Z" transform="translate(-193.794 -247.785)" fill="#455a64"/>
            <path id="Trazado_189801" data-name="Trazado 189801" d="M205.18,269.61l2.958,1.71v-4.59l-2.958-1.71Z" transform="translate(-192.193 -236.093)" fill="#37474f"/>
            <path id="Trazado_189802" data-name="Trazado 189802" d="M208.139,250.011l37.172-21.5-2.964-1.7L205.18,248.3Z" transform="translate(-192.193 -219.374)" fill="#455a64"/>
          </g>
          <g id="freepik--Cans--inject-2" transform="translate(47.2 63.26)">
            <path id="Trazado_189803" data-name="Trazado 189803" d="M322.09,361.3a14.144,14.144,0,0,0,12.818,0c3.543-2.047,3.538-5.355,0-7.4a14.173,14.173,0,0,0-12.824,0C318.541,355.939,318.547,359.257,322.09,361.3Z" transform="translate(-285.396 -337.571)" fill="#37474f"/>
            <path id="Trazado_189804" data-name="Trazado 189804" d="M337.236,349.222h0V333.94h-15.3v15.282h0c-.062,1.176.675,2.368,2.25,3.262a11.963,11.963,0,0,0,10.827,0C336.561,351.59,337.3,350.4,337.236,349.222Z" transform="translate(-286.491 -329.509)" fill="#ebebeb"/>
            <path id="Trazado_189805" data-name="Trazado 189805" d="M324.186,333.615a11.963,11.963,0,0,0,10.827,0c2.992-1.727,2.987-4.5,0-6.249a11.893,11.893,0,0,0-10.827,0C321.2,329.093,321.194,331.888,324.186,333.615Z" transform="translate(-286.495 -326.062)" fill="#fafafa"/>
            <path id="Trazado_189806" data-name="Trazado 189806" d="M324.883,333.609a11.486,11.486,0,0,0,10.163,0c2.807-1.58,2.812-4.157,0-5.743a11.467,11.467,0,0,0-10.163,0C322.076,329.447,322.076,332.045,324.883,333.609Z" transform="translate(-286.86 -326.332)" fill="#ebebeb"/>
            <path id="Trazado_189807" data-name="Trazado 189807" d="M335.069,329.228a11.486,11.486,0,0,0-10.163,0,2.544,2.544,0,0,0,0,5,11.486,11.486,0,0,0,10.163,0,3.741,3.741,0,0,0,2.07-2.5A3.788,3.788,0,0,0,335.069,329.228Z" transform="translate(-286.883 -326.929)" fill="#f5f5f5"/>
            <path id="Trazado_189808" data-name="Trazado 189808" d="M321.94,348.557a3.814,3.814,0,0,0,2.25,3.144,11.963,11.963,0,0,0,10.827,0,3.816,3.816,0,0,0,2.25-3.122V338.343a3.829,3.829,0,0,1-2.25,3.127,11.963,11.963,0,0,1-10.827,0,3.812,3.812,0,0,1-2.25-3.15Z" transform="translate(-286.494 -331.426)" fill="#1b3f5e"/>
            <path id="Trazado_189809" data-name="Trazado 189809" d="M321.94,348.557a3.814,3.814,0,0,0,2.25,3.144,11.963,11.963,0,0,0,10.827,0,3.816,3.816,0,0,0,2.25-3.122V338.343a3.829,3.829,0,0,1-2.25,3.127,11.963,11.963,0,0,1-10.827,0,3.812,3.812,0,0,1-2.25-3.15Z" transform="translate(-286.494 -331.426)" opacity="0.3" style="isolation: isolate"/>
            <path id="Trazado_189810" data-name="Trazado 189810" d="M332.728,353.385a12.09,12.09,0,0,1-8.549-.906c-1.558-.894-2.295-2.081-2.25-3.268h0V333.93a3.829,3.829,0,0,0,2.25,3.127,9.073,9.073,0,0,0,3.133,1.1V351.09C327.311,352.35,329.184,353.874,332.728,353.385Z" transform="translate(-286.488 -329.505)" opacity="0.1" style="isolation: isolate"/>
            <path id="Trazado_189811" data-name="Trazado 189811" d="M337.531,337.42l-.816-.467c-.658-.382-.832-.894-.394-1.153a2.311,2.311,0,0,1,2,.231l.81.467c.658.383.838.894.394,1.153A2.3,2.3,0,0,1,337.531,337.42Z" transform="translate(-292.681 -330.267)" fill="#e0e0e0"/>
            <path id="Trazado_189812" data-name="Trazado 189812" d="M337.009,336.689a.957.957,0,0,0,.872,0c.242-.135.242-.36,0-.5a.957.957,0,0,0-.872,0C336.767,336.329,336.767,336.554,337.009,336.689Z" transform="translate(-293.008 -330.447)" fill="#f5f5f5"/>
            <path id="Trazado_189813" data-name="Trazado 189813" d="M339.863,338.238a.957.957,0,0,0,.872,0,.27.27,0,0,0,0-.506.989.989,0,0,0-.872,0,.27.27,0,0,0,0,.506Z" transform="translate(-294.259 -331.124)" fill="#f5f5f5"/>
            <path id="Trazado_189814" data-name="Trazado 189814" d="M301.931,372.951a14.19,14.19,0,0,0,12.824,0c3.543-2.042,3.538-5.36,0-7.4a14.19,14.19,0,0,0-12.824,0C298.388,367.59,298.382,370.909,301.931,372.951Z" transform="translate(-276.575 -342.67)" fill="#37474f"/>
            <path id="Trazado_189815" data-name="Trazado 189815" d="M317.083,360.862h0V345.58H301.767v15.282h0c-.062,1.181.675,2.368,2.25,3.268a11.951,11.951,0,0,0,10.822,0A3.752,3.752,0,0,0,317.083,360.862Z" transform="translate(-277.665 -334.602)" fill="#ebebeb"/>
            <path id="Trazado_189816" data-name="Trazado 189816" d="M304.016,345.269a11.986,11.986,0,0,0,10.822,0c2.987-1.721,2.992-4.528,0-6.255a11.968,11.968,0,0,0-10.822,0C301.029,340.735,301.024,343.542,304.016,345.269Z" transform="translate(-277.67 -331.164)" fill="#fafafa"/>
            <path id="Trazado_189817" data-name="Trazado 189817" d="M304.713,345.292a11.448,11.448,0,0,0,10.163,0c2.807-1.586,2.812-4.151,0-5.737a11.449,11.449,0,0,0-10.163,0C301.906,341.141,301.906,343.705,304.713,345.292Z" transform="translate(-278.035 -331.445)" fill="#ebebeb"/>
            <path id="Trazado_189818" data-name="Trazado 189818" d="M314.9,340.875a11.449,11.449,0,0,0-10.163,0,2.54,2.54,0,0,0,0,4.995,11.449,11.449,0,0,0,10.163,0,3.741,3.741,0,0,0,2.07-2.5A3.7,3.7,0,0,0,314.9,340.875Z" transform="translate(-278.058 -332.023)" fill="#f5f5f5"/>
            <path id="Trazado_189819" data-name="Trazado 189819" d="M301.77,360.2c0,1.125.737,2.25,2.25,3.15a11.951,11.951,0,0,0,10.822,0,3.819,3.819,0,0,0,2.25-3.127V349.983a3.829,3.829,0,0,1-2.25,3.127,11.986,11.986,0,0,1-10.822,0,3.826,3.826,0,0,1-2.25-3.15Z" transform="translate(-277.668 -336.519)" fill="#1b3f5e"/>
            <path id="Trazado_189820" data-name="Trazado 189820" d="M301.77,360.2c0,1.125.737,2.25,2.25,3.15a11.951,11.951,0,0,0,10.822,0,3.819,3.819,0,0,0,2.25-3.127V349.983a3.829,3.829,0,0,1-2.25,3.127,11.986,11.986,0,0,1-10.822,0,3.826,3.826,0,0,1-2.25-3.15Z" transform="translate(-277.668 -336.519)" opacity="0.3" style="isolation: isolate"/>
            <path id="Trazado_189821" data-name="Trazado 189821" d="M312.6,365.035a12.09,12.09,0,0,1-8.549-.906c-1.558-.894-2.295-2.087-2.25-3.268h0V345.58a3.829,3.829,0,0,0,2.25,3.127,9,9,0,0,0,3.133,1.091v12.936C307.159,364,309.032,365.5,312.6,365.035Z" transform="translate(-277.68 -334.602)" opacity="0.1" style="isolation: isolate"/>
            <path id="Trazado_189822" data-name="Trazado 189822" d="M317.361,349.084l-.816-.472c-.658-.377-.832-.894-.394-1.125a2.289,2.289,0,0,1,2,.225l.81.472c.658.377.838.894.394,1.125A2.318,2.318,0,0,1,317.361,349.084Z" transform="translate(-283.855 -335.379)" fill="#e0e0e0"/>
            <path id="Trazado_189823" data-name="Trazado 189823" d="M316.863,348.337a.957.957,0,0,0,.872,0,.27.27,0,0,0,0-.506.989.989,0,0,0-.872,0,.27.27,0,0,0,0,.506Z" transform="translate(-284.195 -335.543)" fill="#f5f5f5"/>
            <path id="Trazado_189824" data-name="Trazado 189824" d="M319.7,349.884a.989.989,0,0,0,.872,0,.27.27,0,0,0,0-.506.957.957,0,0,0-.872,0,.27.27,0,0,0,0,.506Z" transform="translate(-285.438 -336.218)" fill="#f5f5f5"/>
            <ellipse id="Elipse_5124" data-name="Elipse 5124" cx="9.067" cy="5.236" rx="9.067" ry="5.236" transform="translate(11.345 27.89)" fill="#37474f"/>
            <path id="Trazado_189825" data-name="Trazado 189825" d="M296.9,372.512h0V357.23H281.6v15.282h0c-.062,1.175.675,2.368,2.25,3.268a11.985,11.985,0,0,0,10.822,0C296.221,374.88,296.958,373.687,296.9,372.512Z" transform="translate(-268.84 -339.7)" fill="#ebebeb"/>
            <path id="Trazado_189826" data-name="Trazado 189826" d="M283.846,356.9a11.951,11.951,0,0,0,10.822,0c2.987-1.727,2.992-4.5,0-6.249a11.882,11.882,0,0,0-10.822,0C280.859,352.383,280.854,355.178,283.846,356.9Z" transform="translate(-268.845 -336.253)" fill="#fafafa"/>
            <path id="Trazado_189827" data-name="Trazado 189827" d="M284.542,356.939a11.449,11.449,0,0,0,10.163,0c2.807-1.586,2.812-4.156,0-5.743a11.467,11.467,0,0,0-10.163,0C281.736,352.777,281.736,355.353,284.542,356.939Z" transform="translate(-269.209 -336.54)" fill="#ebebeb"/>
            <path id="Trazado_189828" data-name="Trazado 189828" d="M294.729,352.518a11.486,11.486,0,0,0-10.163,0,2.544,2.544,0,0,0,0,5,11.449,11.449,0,0,0,10.163,0,2.545,2.545,0,0,0,0-5Z" transform="translate(-269.232 -337.119)" fill="#f5f5f5"/>
            <path id="Trazado_189829" data-name="Trazado 189829" d="M281.6,371.847a3.814,3.814,0,0,0,2.25,3.144,11.951,11.951,0,0,0,10.822,0,3.8,3.8,0,0,0,2.25-3.122V361.633a3.829,3.829,0,0,1-2.25,3.127,11.951,11.951,0,0,1-10.822,0,3.812,3.812,0,0,1-2.25-3.15Z" transform="translate(-268.843 -341.616)" fill="#1b3f5e"/>
            <path id="Trazado_189830" data-name="Trazado 189830" d="M281.6,371.847a3.814,3.814,0,0,0,2.25,3.144,11.951,11.951,0,0,0,10.822,0,3.8,3.8,0,0,0,2.25-3.122V361.633a3.829,3.829,0,0,1-2.25,3.127,11.951,11.951,0,0,1-10.822,0,3.812,3.812,0,0,1-2.25-3.15Z" transform="translate(-268.843 -341.616)" opacity="0.3" style="isolation: isolate"/>
            <path id="Trazado_189831" data-name="Trazado 189831" d="M297.191,360.71l-.816-.467c-.658-.382-.832-.894-.394-1.153a2.311,2.311,0,0,1,2,.231l.81.467c.658.382.838.894.394,1.153A2.3,2.3,0,0,1,297.191,360.71Z" transform="translate(-275.03 -340.458)" fill="#e0e0e0"/>
            <path id="Trazado_189832" data-name="Trazado 189832" d="M296.669,359.979a.957.957,0,0,0,.872,0c.242-.135.242-.36,0-.5a.957.957,0,0,0-.872,0C296.427,359.619,296.427,359.844,296.669,359.979Z" transform="translate(-275.357 -340.638)" fill="#f5f5f5"/>
            <path id="Trazado_189833" data-name="Trazado 189833" d="M299.529,361.529a.957.957,0,0,0,.872,0c.242-.141.242-.366,0-.5a.957.957,0,0,0-.872,0C299.287,361.163,299.287,361.388,299.529,361.529Z" transform="translate(-276.608 -341.316)" fill="#f5f5f5"/>
            <path id="Trazado_189834" data-name="Trazado 189834" d="M292.392,376.685a12.072,12.072,0,0,1-8.544-.911c-1.558-.894-2.3-2.081-2.25-3.262h0V357.23a3.841,3.841,0,0,0,2.25,3.127,9,9,0,0,0,3.127,1.091v12.936C286.975,375.661,288.848,377.169,292.392,376.685Z" transform="translate(-268.841 -339.7)" opacity="0.1" style="isolation: isolate"/>
            <path id="Trazado_189835" data-name="Trazado 189835" d="M261.574,396.241a14.19,14.19,0,0,0,12.824,0c3.543-2.042,3.538-5.36,0-7.4a14.19,14.19,0,0,0-12.824,0C258.031,390.881,258.036,394.2,261.574,396.241Z" transform="translate(-258.919 -352.86)" fill="#37474f"/>
            <path id="Trazado_189836" data-name="Trazado 189836" d="M276.726,384.157h0V368.87h-15.3v15.287h0c-.062,1.176.675,2.362,2.25,3.262a11.951,11.951,0,0,0,10.822,0C276.051,386.52,276.788,385.333,276.726,384.157Z" transform="translate(-260.015 -344.793)" fill="#ebebeb"/>
            <ellipse id="Elipse_5125" data-name="Elipse 5125" cx="7.655" cy="4.421" rx="7.655" ry="4.421" transform="translate(1.412 19.656)" fill="#fafafa"/>
            <path id="Trazado_189837" data-name="Trazado 189837" d="M264.359,368.613a11.449,11.449,0,0,0,10.164,0c2.807-1.586,2.812-4.151,0-5.737a11.541,11.541,0,0,0-10.164-.017C261.547,364.417,261.547,367.016,264.359,368.613Z" transform="translate(-260.376 -341.651)" fill="#ebebeb"/>
            <path id="Trazado_189838" data-name="Trazado 189838" d="M274.559,364.165a11.449,11.449,0,0,0-10.163,0,2.54,2.54,0,0,0,0,4.995,11.449,11.449,0,0,0,10.163,0,2.541,2.541,0,0,0,0-4.995Z" transform="translate(-260.407 -342.214)" fill="#f5f5f5"/>
            <path id="Trazado_189839" data-name="Trazado 189839" d="M261.43,383.491a3.829,3.829,0,0,0,2.25,3.15,11.951,11.951,0,0,0,10.822,0,3.819,3.819,0,0,0,2.25-3.127V373.283a3.829,3.829,0,0,1-2.25,3.127,11.986,11.986,0,0,1-10.822,0,3.826,3.826,0,0,1-2.25-3.15Z" transform="translate(-260.018 -346.714)" fill="#1b3f5e"/>
            <path id="Trazado_189840" data-name="Trazado 189840" d="M261.43,383.491a3.829,3.829,0,0,0,2.25,3.15,11.951,11.951,0,0,0,10.822,0,3.819,3.819,0,0,0,2.25-3.127V373.283a3.829,3.829,0,0,1-2.25,3.127,11.986,11.986,0,0,1-10.822,0,3.826,3.826,0,0,1-2.25-3.15Z" transform="translate(-260.018 -346.714)" opacity="0.3" style="isolation: isolate"/>
            <path id="Trazado_189841" data-name="Trazado 189841" d="M272.212,388.325a12.074,12.074,0,0,1-8.544-.906c-1.558-.894-2.295-2.087-2.25-3.268h0V368.87a3.829,3.829,0,0,0,2.25,3.127,8.925,8.925,0,0,0,3.133,1.091v12.936C266.807,387.29,268.674,388.815,272.212,388.325Z" transform="translate(-260.012 -344.793)" opacity="0.1" style="isolation: isolate"/>
            <path id="Trazado_189842" data-name="Trazado 189842" d="M277.021,372.376l-.816-.472c-.658-.377-.832-.894-.394-1.125a2.307,2.307,0,0,1,2,.225l.81.473c.658.377.838.894.394,1.125A2.317,2.317,0,0,1,277.021,372.376Z" transform="translate(-266.205 -345.571)" fill="#e0e0e0"/>
            <ellipse id="Elipse_5126" data-name="Elipse 5126" cx="0.619" cy="0.354" rx="0.619" ry="0.354" transform="translate(9.782 25.286)" fill="#f5f5f5"/>
            <path id="Trazado_189843" data-name="Trazado 189843" d="M279.363,373.174a.989.989,0,0,0,.872,0,.27.27,0,0,0,0-.506.957.957,0,0,0-.872,0,.27.27,0,0,0,0,.506Z" transform="translate(-267.787 -346.409)" fill="#f5f5f5"/>
          </g>
          <g id="freepik--cans--inject-2-2" data-name="freepik--cans--inject-2" transform="translate(58.449 69.773)">
            <path id="Trazado_189844" data-name="Trazado 189844" d="M342.084,372.859a14.155,14.155,0,0,0,12.824,0c3.543-2.047,3.538-5.354,0-7.4a14.173,14.173,0,0,0-12.824,0C338.541,367.5,338.547,370.817,342.084,372.859Z" transform="translate(-305.395 -349.141)" fill="#37474f"/>
            <path id="Trazado_189845" data-name="Trazado 189845" d="M357.236,360.777h0V345.49h-15.3v15.287h0c-.062,1.176.675,2.362,2.25,3.262a11.951,11.951,0,0,0,10.822,0C356.561,363.14,357.3,361.953,357.236,360.777Z" transform="translate(-306.491 -341.075)" fill="#ebebeb"/>
            <path id="Trazado_189846" data-name="Trazado 189846" d="M344.186,345.183a11.951,11.951,0,0,0,10.822,0c2.987-1.727,2.992-4.528,0-6.249a11.968,11.968,0,0,0-10.822,0C341.2,340.661,341.194,343.468,344.186,345.183Z" transform="translate(-306.495 -337.641)" fill="#fafafa"/>
            <path id="Trazado_189847" data-name="Trazado 189847" d="M344.873,345.2a11.449,11.449,0,0,0,10.163,0c2.807-1.586,2.812-4.151,0-5.737a11.449,11.449,0,0,0-10.163,0C342.066,341.051,342.066,343.621,344.873,345.2Z" transform="translate(-306.856 -337.919)" fill="#ebebeb"/>
            <path id="Trazado_189848" data-name="Trazado 189848" d="M355.063,340.785a11.449,11.449,0,0,0-10.163,0,2.541,2.541,0,0,0,0,4.995,11.449,11.449,0,0,0,10.163,0,3.736,3.736,0,0,0,2.075-2.5A3.811,3.811,0,0,0,355.063,340.785Z" transform="translate(-306.883 -338.496)" fill="#f5f5f5"/>
            <path id="Trazado_189849" data-name="Trazado 189849" d="M341.94,360.111a3.822,3.822,0,0,0,2.25,3.15,11.951,11.951,0,0,0,10.822,0,3.8,3.8,0,0,0,2.25-3.127V349.9a3.829,3.829,0,0,1-2.25,3.127,11.951,11.951,0,0,1-10.822,0,3.826,3.826,0,0,1-2.25-3.15Z" transform="translate(-306.494 -342.996)" fill="#1b3f5e"/>
            <path id="Trazado_189850" data-name="Trazado 189850" d="M341.94,360.111a3.822,3.822,0,0,0,2.25,3.15,11.951,11.951,0,0,0,10.822,0,3.8,3.8,0,0,0,2.25-3.127V349.9a3.829,3.829,0,0,1-2.25,3.127,11.951,11.951,0,0,1-10.822,0,3.826,3.826,0,0,1-2.25-3.15Z" transform="translate(-306.494 -342.996)" opacity="0.3" style="isolation: isolate"/>
            <path id="Trazado_189851" data-name="Trazado 189851" d="M352.722,364.945a12.071,12.071,0,0,1-8.544-.906c-1.558-.894-2.295-2.087-2.25-3.268h0V345.49a3.829,3.829,0,0,0,2.25,3.127,8.93,8.93,0,0,0,3.133,1.1V362.65C347.311,363.91,349.184,365.463,352.722,364.945Z" transform="translate(-306.488 -341.075)" opacity="0.1" style="isolation: isolate"/>
            <path id="Trazado_189852" data-name="Trazado 189852" d="M357.531,348.98l-.816-.467c-.658-.383-.832-.9-.394-1.153a2.33,2.33,0,0,1,2,.225l.81.472c.658.377.832.894.394,1.125A2.251,2.251,0,0,1,357.531,348.98Z" transform="translate(-312.681 -341.837)" fill="#e0e0e0"/>
            <path id="Trazado_189853" data-name="Trazado 189853" d="M357,348.249a.969.969,0,0,0,.877,0,.264.264,0,0,0,0-.5.969.969,0,0,0-.877,0,.264.264,0,0,0,0,.5Z" transform="translate(-313.005 -342.018)" fill="#f5f5f5"/>
            <path id="Trazado_189854" data-name="Trazado 189854" d="M359.863,349.795a.989.989,0,0,0,.872,0,.27.27,0,0,0,0-.506.957.957,0,0,0-.872,0,.27.27,0,0,0,0,.506Z" transform="translate(-314.259 -342.691)" fill="#f5f5f5"/>
            <ellipse id="Elipse_5127" data-name="Elipse 5127" cx="9.067" cy="5.236" rx="9.067" ry="5.236" transform="translate(22.69 21.333)" fill="#37474f"/>
            <path id="Trazado_189855" data-name="Trazado 189855" d="M337.083,372.422h0V357.14H321.767v15.282h0c-.062,1.181.675,2.368,2.25,3.268a11.951,11.951,0,0,0,10.822,0C336.391,374.79,337.128,373.6,337.083,372.422Z" transform="translate(-297.665 -346.173)" fill="#ebebeb"/>
            <path id="Trazado_189856" data-name="Trazado 189856" d="M324.016,356.815a11.951,11.951,0,0,0,10.822,0c2.987-1.727,2.992-4.5,0-6.249a11.882,11.882,0,0,0-10.822,0C321.029,352.293,321.024,355.088,324.016,356.815Z" transform="translate(-297.67 -342.726)" fill="#fafafa"/>
            <path id="Trazado_189857" data-name="Trazado 189857" d="M324.7,356.853a11.449,11.449,0,0,0,10.164,0c2.807-1.586,2.812-4.156,0-5.737a11.467,11.467,0,0,0-10.164,0C321.9,352.7,321.9,355.267,324.7,356.853Z" transform="translate(-298.031 -343.018)" fill="#ebebeb"/>
            <path id="Trazado_189858" data-name="Trazado 189858" d="M334.893,352.435a11.449,11.449,0,0,0-10.163,0,2.541,2.541,0,0,0,0,4.995,11.449,11.449,0,0,0,10.163,0,2.54,2.54,0,0,0,0-4.995Z" transform="translate(-298.058 -343.594)" fill="#f5f5f5"/>
            <path id="Trazado_189859" data-name="Trazado 189859" d="M321.77,371.761c0,1.125.737,2.25,2.25,3.15a11.986,11.986,0,0,0,10.822,0,3.819,3.819,0,0,0,2.25-3.127V361.553a3.815,3.815,0,0,1-2.25,3.122,11.951,11.951,0,0,1-10.822,0,3.811,3.811,0,0,1-2.25-3.144Z" transform="translate(-297.668 -348.094)" fill="#1b3f5e"/>
            <path id="Trazado_189860" data-name="Trazado 189860" d="M321.77,371.761c0,1.125.737,2.25,2.25,3.15a11.986,11.986,0,0,0,10.822,0,3.819,3.819,0,0,0,2.25-3.127V361.553a3.815,3.815,0,0,1-2.25,3.122,11.951,11.951,0,0,1-10.822,0,3.811,3.811,0,0,1-2.25-3.144Z" transform="translate(-297.668 -348.094)" opacity="0.3" style="isolation: isolate"/>
            <path id="Trazado_189861" data-name="Trazado 189861" d="M332.6,376.6a12.071,12.071,0,0,1-8.544-.911c-1.558-.894-2.295-2.081-2.25-3.262h0V357.14a3.829,3.829,0,0,0,2.25,3.127,9.054,9.054,0,0,0,3.133,1.091v12.936C327.163,375.56,329.036,377.079,332.6,376.6Z" transform="translate(-297.684 -346.173)" opacity="0.1" style="isolation: isolate"/>
            <path id="Trazado_189862" data-name="Trazado 189862" d="M337.356,360.662l-.81-.467c-.658-.382-.832-.894-.394-1.125a2.311,2.311,0,0,1,2,.231l.81.467c.658.383.832.894.394,1.153A2.312,2.312,0,0,1,337.356,360.662Z" transform="translate(-303.855 -346.961)" fill="#e0e0e0"/>
            <path id="Trazado_189863" data-name="Trazado 189863" d="M336.863,359.895a.989.989,0,0,0,.872,0,.27.27,0,0,0,0-.506.958.958,0,0,0-.872,0,.27.27,0,0,0,0,.506Z" transform="translate(-304.195 -347.111)" fill="#f5f5f5"/>
            <path id="Trazado_189864" data-name="Trazado 189864" d="M339.7,361.439a.957.957,0,0,0,.872,0,.264.264,0,0,0,0-.5.957.957,0,0,0-.872,0,.264.264,0,0,0,0,.5Z" transform="translate(-305.435 -347.789)" fill="#f5f5f5"/>
            <path id="Trazado_189865" data-name="Trazado 189865" d="M301.744,396.149a14.155,14.155,0,0,0,12.824,0c3.543-2.047,3.538-5.355,0-7.4a14.173,14.173,0,0,0-12.824,0C298.2,390.789,298.206,394.107,301.744,396.149Z" transform="translate(-287.744 -359.332)" fill="#37474f"/>
            <path id="Trazado_189866" data-name="Trazado 189866" d="M316.9,384.09h0V368.78H301.6v15.31h0c-.062,1.176.675,2.362,2.25,3.262a11.951,11.951,0,0,0,10.822,0C316.221,386.43,316.958,385.243,316.9,384.09Z" transform="translate(-288.84 -351.266)" fill="#ebebeb"/>
            <path id="Trazado_189867" data-name="Trazado 189867" d="M303.846,368.465a11.951,11.951,0,0,0,10.822,0c2.987-1.727,2.992-4.5,0-6.249a11.882,11.882,0,0,0-10.822,0C300.859,363.943,300.854,366.738,303.846,368.465Z" transform="translate(-288.845 -347.824)" fill="#fafafa"/>
            <path id="Trazado_189868" data-name="Trazado 189868" d="M304.533,368.5a11.486,11.486,0,0,0,10.163,0c2.807-1.581,2.812-4.157,0-5.743a11.449,11.449,0,0,0-10.163,0C301.726,364.341,301.726,366.911,304.533,368.5Z" transform="translate(-289.205 -348.109)" fill="#ebebeb"/>
            <path id="Trazado_189869" data-name="Trazado 189869" d="M314.723,364.075a11.449,11.449,0,0,0-10.163,0,2.541,2.541,0,0,0,0,4.995,11.449,11.449,0,0,0,10.163,0,2.54,2.54,0,0,0,0-4.995Z" transform="translate(-289.232 -348.687)" fill="#f5f5f5"/>
            <path id="Trazado_189870" data-name="Trazado 189870" d="M301.6,383.4a3.821,3.821,0,0,0,2.25,3.15,11.95,11.95,0,0,0,10.822,0,3.8,3.8,0,0,0,2.25-3.122V373.193a3.829,3.829,0,0,1-2.25,3.127,11.951,11.951,0,0,1-10.822,0,3.819,3.819,0,0,1-2.25-3.15Z" transform="translate(-288.843 -353.187)" fill="#1b3f5e"/>
            <path id="Trazado_189871" data-name="Trazado 189871" d="M301.6,383.4a3.821,3.821,0,0,0,2.25,3.15,11.95,11.95,0,0,0,10.822,0,3.8,3.8,0,0,0,2.25-3.122V373.193a3.829,3.829,0,0,1-2.25,3.127,11.951,11.951,0,0,1-10.822,0,3.819,3.819,0,0,1-2.25-3.15Z" transform="translate(-288.843 -353.187)" opacity="0.3" style="isolation: isolate"/>
            <path id="Trazado_189872" data-name="Trazado 189872" d="M317.186,372.27l-.81-.467c-.658-.382-.832-.9-.394-1.153a2.33,2.33,0,0,1,2,.225l.81.472c.658.377.832.894.394,1.125A2.289,2.289,0,0,1,317.186,372.27Z" transform="translate(-295.03 -352.028)" fill="#e0e0e0"/>
            <path id="Trazado_189873" data-name="Trazado 189873" d="M316.66,371.529a.957.957,0,0,0,.872,0c.242-.141.242-.366,0-.5a.957.957,0,0,0-.872,0,.264.264,0,0,0,0,.5Z" transform="translate(-295.354 -352.204)" fill="#f5f5f5"/>
            <path id="Trazado_189874" data-name="Trazado 189874" d="M319.533,373.087a.957.957,0,0,0,.872,0,.27.27,0,0,0,0-.506.989.989,0,0,0-.872,0,.27.27,0,0,0,0,.506Z" transform="translate(-296.612 -352.885)" fill="#f5f5f5"/>
            <path id="Trazado_189875" data-name="Trazado 189875" d="M312.382,388.24a12.074,12.074,0,0,1-8.544-.906c-1.558-.894-2.295-2.081-2.25-3.262h0V368.79a3.829,3.829,0,0,0,2.25,3.127,9.189,9.189,0,0,0,3.133,1.091v12.936C306.971,387.21,308.844,388.729,312.382,388.24Z" transform="translate(-288.837 -351.27)" opacity="0.1" style="isolation: isolate"/>
            <path id="Trazado_189876" data-name="Trazado 189876" d="M281.574,407.8a14.19,14.19,0,0,0,12.824,0c3.543-2.042,3.538-5.36,0-7.4a14.173,14.173,0,0,0-12.824,0C278.031,402.444,278.036,405.752,281.574,407.8Z" transform="translate(-278.919 -364.429)" fill="#37474f"/>
            <path id="Trazado_189877" data-name="Trazado 189877" d="M296.726,395.712h0V380.43h-15.3v15.282h0c-.062,1.181.675,2.368,2.25,3.268a11.951,11.951,0,0,0,10.822,0C296.051,398.08,296.788,396.893,296.726,395.712Z" transform="translate(-280.015 -356.363)" fill="#ebebeb"/>
            <path id="Trazado_189878" data-name="Trazado 189878" d="M283.676,380.125a11.951,11.951,0,0,0,10.822,0c2.987-1.727,2.992-4.5,0-6.249a11.882,11.882,0,0,0-10.822,0C280.689,375.6,280.684,378.392,283.676,380.125Z" transform="translate(-280.019 -352.925)" fill="#fafafa"/>
            <path id="Trazado_189879" data-name="Trazado 189879" d="M284.361,380.143a11.449,11.449,0,0,0,10.164,0c2.807-1.586,2.812-4.156,0-5.737a11.468,11.468,0,0,0-10.164,0C281.554,375.992,281.549,378.557,284.361,380.143Z" transform="translate(-280.378 -353.208)" fill="#ebebeb"/>
            <path id="Trazado_189880" data-name="Trazado 189880" d="M294.553,375.725a11.449,11.449,0,0,0-10.163,0,2.541,2.541,0,0,0,0,4.995,11.449,11.449,0,0,0,10.163,0,2.54,2.54,0,0,0,0-4.995Z" transform="translate(-280.407 -353.784)" fill="#f5f5f5"/>
            <path id="Trazado_189881" data-name="Trazado 189881" d="M281.43,395.045a3.829,3.829,0,0,0,2.25,3.15,11.986,11.986,0,0,0,10.822,0,3.819,3.819,0,0,0,2.25-3.127V384.842a3.814,3.814,0,0,1-2.25,3.122,11.951,11.951,0,0,1-10.822,0,3.811,3.811,0,0,1-2.25-3.144Z" transform="translate(-280.017 -358.284)" fill="#1b3f5e"/>
            <path id="Trazado_189882" data-name="Trazado 189882" d="M281.43,395.045a3.829,3.829,0,0,0,2.25,3.15,11.986,11.986,0,0,0,10.822,0,3.819,3.819,0,0,0,2.25-3.127V384.842a3.814,3.814,0,0,1-2.25,3.122,11.951,11.951,0,0,1-10.822,0,3.811,3.811,0,0,1-2.25-3.144Z" transform="translate(-280.017 -358.284)" opacity="0.3" style="isolation: isolate"/>
            <path id="Trazado_189883" data-name="Trazado 189883" d="M292.212,399.874a12.071,12.071,0,0,1-8.544-.911c-1.558-.894-2.295-2.081-2.25-3.262h0V380.43a3.829,3.829,0,0,0,2.25,3.127,9.055,9.055,0,0,0,3.133,1.091v12.936C286.807,398.85,288.674,400.369,292.212,399.874Z" transform="translate(-280.012 -356.363)" opacity="0.1" style="isolation: isolate"/>
            <path id="Trazado_189884" data-name="Trazado 189884" d="M297.016,383.926l-.81-.467c-.658-.382-.832-.894-.394-1.125a2.248,2.248,0,0,1,1.991.225l.816.467c.658.382.832.9.394,1.153A2.313,2.313,0,0,1,297.016,383.926Z" transform="translate(-286.205 -357.137)" fill="#e0e0e0"/>
            <ellipse id="Elipse_5128" data-name="Elipse 5128" cx="0.619" cy="0.354" rx="0.619" ry="0.354" transform="translate(9.782 25.276)" fill="#f5f5f5"/>
            <path id="Trazado_189885" data-name="Trazado 189885" d="M299.359,384.729a.957.957,0,0,0,.872,0,.264.264,0,0,0,0-.5.957.957,0,0,0-.872,0C299.117,384.369,299.117,384.616,299.359,384.729Z" transform="translate(-287.783 -357.979)" fill="#f5f5f5"/>
          </g>
        </g>
      </g>
    </g>
    <g id="freepik--Boxes--inject-2" transform="translate(6.98 121.964)">
      <g id="freepik--boxes--inject-2-2" data-name="freepik--boxes--inject-2" transform="translate(0)">
        <g id="freepik--box--inject-2-4" data-name="freepik--box--inject-2" transform="translate(0 29.613)">
          <g id="freepik--box--inject-2-5" data-name="freepik--box--inject-2" transform="translate(0)">
            <g id="freepik--back-box--inject-2">
              <path id="Trazado_189886" data-name="Trazado 189886" d="M35.23,386.033,73.808,363.76l48.506,28L83.736,414.037Z" transform="translate(-34.448 -325.671)"/>
              <path id="Trazado_189887" data-name="Trazado 189887" d="M73.2,334.129V296.04L33.84,318.769l32.931,19.073Z" transform="translate(-33.84 -296.04)" fill="#37474f"/>
              <path id="Trazado_189888" data-name="Trazado 189888" d="M103.82,296.04v38.089l16.356,9.444,32.931-19.078Z" transform="translate(-64.46 -296.04)" fill="#263238"/>
            </g>
            <g id="freepik--front-box--inject-2" transform="translate(0 22.729)">
              <path id="Trazado_189889" data-name="Trazado 189889" d="M33.84,336.45v37.184l49.287,28.454V364.966Z" transform="translate(-33.84 -336.45)" fill="#263238"/>
              <path id="Trazado_189890" data-name="Trazado 189890" d="M121.47,369.42v37.122l39.36-22.723V346.63Z" transform="translate(-72.183 -340.904)" fill="#37474f"/>
              <path id="Trazado_189891" data-name="Trazado 189891" d="M121.47,387.15l.776,35.7,28.584-15.535-29.36,16.952Z" transform="translate(-72.183 -358.634)" fill="#455a64"/>
            </g>
            <path id="Trazado_189892" data-name="Trazado 189892" d="M129.12,427.068a.779.779,0,0,1-.4-.107,1.225,1.225,0,0,1-.506-1.125v-3.279h0v-.242l.169.028,2.576-1.513V424.5a2.982,2.982,0,0,1-1.266,2.4A1.159,1.159,0,0,1,129.12,427.068Zm-.489-4.269v3.048a.843.843,0,0,0,.292.754.562.562,0,0,0,.562-.062,2.6,2.6,0,0,0,1.063-2.042v-.27h-.956l-.186-1.288Zm1.322,1.018h.6v-2.25l-1.541.906.771.141Z" transform="translate(-75.131 -350.642)" fill="#e0e0e0"/>
            <path id="Trazado_189893" data-name="Trazado 189893" d="M130.5,434.108a.208.208,0,0,1-.208-.208v-2.762a.214.214,0,0,1,.208-.208.208.208,0,0,1,.208.208V433.9a.2.2,0,0,1-.2.208Z" transform="translate(-76.042 -355.061)" fill="#e0e0e0"/>
            <path id="Trazado_189894" data-name="Trazado 189894" d="M128.369,436.411a.2.2,0,0,1-.18-.1.208.208,0,0,1,.073-.281l2.4-1.389a.213.213,0,0,1,.287.079.208.208,0,0,1-.079.281l-2.4,1.384A.174.174,0,0,1,128.369,436.411Z" transform="translate(-75.11 -356.673)" fill="#e0e0e0"/>
            <path id="Trazado_189895" data-name="Trazado 189895" d="M143.37,425.228a.443.443,0,0,1-.225-.056.562.562,0,0,1-.247-.495v-.562a.208.208,0,1,1,.411-.068.2.2,0,0,1,0,.068v.563a.18.18,0,0,0,.039.135.336.336,0,0,0,.135-.034,1.2,1.2,0,0,0,.388-.934v-3.673a.208.208,0,1,1,.411-.068.2.2,0,0,1,0,.068v3.673a1.575,1.575,0,0,1-.562,1.288A.62.62,0,0,1,143.37,425.228Z" transform="translate(-81.557 -350.248)" fill="#e0e0e0"/>
            <path id="Trazado_189896" data-name="Trazado 189896" d="M139.87,419.471v-.36a5.859,5.859,0,0,1,2.644-4.584,1.749,1.749,0,0,1,2.852,1.648v.124Zm3.881-4.9a2.092,2.092,0,0,0-1.029.321,5.462,5.462,0,0,0-2.419,3.853l4.646-2.683a1.536,1.536,0,0,0-.636-1.35,1.125,1.125,0,0,0-.562-.141Z" transform="translate(-80.233 -347.703)" fill="#e0e0e0"/>
            <path id="Trazado_189897" data-name="Trazado 189897" d="M156.78,416.028a.209.209,0,0,1-.2-.208v-7.008a.208.208,0,1,1,.411-.068.2.2,0,0,1,0,.068v7.036A.208.208,0,0,1,156.78,416.028Z" transform="translate(-87.543 -345.277)" fill="#e0e0e0"/>
            <path id="Trazado_189898" data-name="Trazado 189898" d="M155.709,410.277a.236.236,0,0,1-.084,0,.208.208,0,0,1-.107-.27l.737-1.687.821.945a.208.208,0,0,1,0,.292.214.214,0,0,1-.292,0l-.388-.45-.472,1.1A.209.209,0,0,1,155.709,410.277Z" transform="translate(-87.073 -345.168)" fill="#e0e0e0"/>
            <path id="Trazado_189899" data-name="Trazado 189899" d="M160.18,414.061a.208.208,0,0,1-.2-.208v-7.042a.208.208,0,1,1,.411-.068.2.2,0,0,1,0,.068v7.036a.208.208,0,0,1-.2.214Z" transform="translate(-89.03 -344.402)" fill="#e0e0e0"/>
            <path id="Trazado_189900" data-name="Trazado 189900" d="M159.109,408.337a.233.233,0,0,1-.084,0,.208.208,0,0,1-.107-.27l.737-1.687.821.911a.208.208,0,0,1-.315.27l-.388-.45-.472,1.1A.209.209,0,0,1,159.109,408.337Z" transform="translate(-88.561 -344.319)" fill="#e0e0e0"/>
            <path id="Trazado_189901" data-name="Trazado 189901" d="M48.09,383.277l10.743,6.187a1.08,1.08,0,0,1,.489.844v7.464c0,.619-.439.866-.967.562l-10.732-6.193a1.074,1.074,0,0,1-.484-.838v-7.469C47.123,383.221,47.561,382.968,48.09,383.277Z" transform="translate(-39.659 -334.153)" fill="#fafafa"/>
            <path id="Trazado_189902" data-name="Trazado 189902" d="M48.36,385.44l.366.214v6.592l-.366-.208Z" transform="translate(-40.193 -335.157)" fill="#455a64"/>
            <path id="Trazado_189903" data-name="Trazado 189903" d="M51,386.97l.63.371v6.592l-.63-.371Z" transform="translate(-41.348 -335.826)" fill="#455a64"/>
            <path id="Trazado_189904" data-name="Trazado 189904" d="M53.65,388.5l.366.208V395.3l-.366-.208Z" transform="translate(-42.508 -336.496)" fill="#455a64"/>
            <path id="Trazado_189905" data-name="Trazado 189905" d="M55.64,389.63l.737.433-.006,6.592-.731-.433Z" transform="translate(-43.379 -336.99)" fill="#455a64"/>
            <path id="Trazado_189906" data-name="Trazado 189906" d="M58.94,391.55l.366.214v6.592l-.366-.214Z" transform="translate(-44.823 -337.83)" fill="#455a64"/>
            <path id="Trazado_189907" data-name="Trazado 189907" d="M60.84,392.63l.787.461v6.6l-.787-.467Z" transform="translate(-45.654 -338.303)" fill="#455a64"/>
            <path id="Trazado_189908" data-name="Trazado 189908" d="M64.23,394.61l.366.208v6.592l-.366-.208Z" transform="translate(-47.137 -339.169)" fill="#455a64"/>
            <path id="Trazado_189909" data-name="Trazado 189909" d="M65.74,395.46l.186.107v6.592l-.186-.1Z" transform="translate(-47.798 -339.541)" fill="#455a64"/>
            <path id="Trazado_189910" data-name="Trazado 189910" d="M63.02,393.97l.186.1v6.6l-.186-.107Z" transform="translate(-46.608 -338.889)" fill="#455a64"/>
            <path id="Trazado_189911" data-name="Trazado 189911" d="M57.7,390.85l.18.1v6.592l-.18-.1Z" transform="translate(-44.28 -337.524)" fill="#455a64"/>
            <path id="Trazado_189912" data-name="Trazado 189912" d="M54.78,389.17l.18.107v6.592l-.18-.107Z" transform="translate(-43.002 -336.789)" fill="#455a64"/>
            <path id="Trazado_189913" data-name="Trazado 189913" d="M52.68,388.01l.186.107v6.592l-.186-.107Z" transform="translate(-42.083 -336.281)" fill="#455a64"/>
            <path id="Trazado_189914" data-name="Trazado 189914" d="M49.84,386.29l.18.107v6.592l-.18-.107Z" transform="translate(-40.841 -335.529)" fill="#455a64"/>
            <path id="Trazado_189915" data-name="Trazado 189915" d="M66.88,396.13l.366.214v6.592l-.366-.214Z" transform="translate(-48.297 -339.834)" fill="#455a64"/>
          </g>
          <path id="Trazado_189916" data-name="Trazado 189916" d="M73.2,296.04,33.84,318.769l49.287,28.516,39.36-22.79Z" transform="translate(-33.84 -296.04)" fill="#455a64"/>
          <path id="Trazado_189917" data-name="Trazado 189917" d="M33.84,336.45l49.287,27.1,39.36-21.379-39.36,22.79Z" transform="translate(-33.84 -313.721)" fill="#fff" opacity="0.1" style="isolation: isolate"/>
          <path id="Trazado_189918" data-name="Trazado 189918" d="M62.88,316.954,112.2,345.425l6.063-3.5L68.943,313.45Z" transform="translate(-46.546 -303.658)" fill="#1b3f5e"/>
          <path id="Trazado_189919" data-name="Trazado 189919" d="M156.623,364.06v7.706l-.731-.416-.765,1.316-.759-.45-.765,1.333-.759-.45-.765,1.311-.759-.433-.759,1.316V367.57Z" transform="translate(-84.911 -325.802)" fill="#1b3f5e"/>
          <path id="Trazado_189920" data-name="Trazado 189920" d="M156.623,364.06v7.706l-.731-.416-.765,1.316-.759-.45-.765,1.333-.759-.45-.765,1.311-.759-.433-.759,1.316V367.57Z" transform="translate(-84.911 -325.802)" opacity="0.25" style="isolation: isolate"/>
        </g>
        <path id="Trazado_189921" data-name="Trazado 189921" d="M73.726,300.43,39.4,320.245l43.191,25.023,34.326-19.883Z" transform="translate(-36.273 -268.348)" opacity="0.1" style="isolation: isolate"/>
        <g id="freepik--box--inject-2-6" data-name="freepik--box--inject-2" transform="translate(8.982)">
          <g id="freepik--box--inject-2-7" data-name="freepik--box--inject-2" transform="translate(0)">
            <g id="freepik--back-box--inject-2-2" data-name="freepik--back-box--inject-2">
              <path id="Trazado_189922" data-name="Trazado 189922" d="M51.01,324.469,79.7,307.86l36.475,21.069L87.485,345.494Z" transform="translate(-50.335 -271.599)"/>
              <path id="Trazado_189923" data-name="Trazado 189923" d="M79.175,276.125V243.39L49.81,260.342l28.432,16.435Z" transform="translate(-49.81 -243.39)" fill="#37474f"/>
              <path id="Trazado_189924" data-name="Trazado 189924" d="M102.02,243.39v32.735l8.808,5.1,28.336-16.412Z" transform="translate(-72.655 -243.39)" fill="#263238"/>
            </g>
            <g id="freepik--front-box--inject-2-2" data-name="freepik--front-box--inject-2" transform="translate(0 16.952)">
              <path id="Trazado_189925" data-name="Trazado 189925" d="M49.81,273.53v35.53l37.15,21.412V295Z" transform="translate(-49.81 -273.53)" fill="#263238"/>
              <path id="Trazado_189926" data-name="Trazado 189926" d="M115.86,298.473v35.474l29.36-16.952V281.47Z" transform="translate(-78.71 -277.004)" fill="#37474f"/>
              <path id="Trazado_189927" data-name="Trazado 189927" d="M115.86,311.7l.669,34.253,24.6-13.369-25.265,14.59Z" transform="translate(-78.71 -290.231)" fill="#455a64"/>
            </g>
            <path id="Trazado_189928" data-name="Trazado 189928" d="M122.448,352.321a.684.684,0,0,1-.349-.09,1.058,1.058,0,0,1-.433-.962v-2.812h0v-.208h.141l2.25-1.3v3.161a2.553,2.553,0,0,1-1.091,2.064A1.012,1.012,0,0,1,122.448,352.321Zm-.427-3.656v2.621a.732.732,0,0,0,.259.652.494.494,0,0,0,.478-.051,2.25,2.25,0,0,0,.917-1.76V349.9h-.821l-.163-1.125Zm1.125.872h.517v-1.952l-1.327.776.658.118Z" transform="translate(-81.248 -288.703)" fill="#e0e0e0"/>
            <path id="Trazado_189929" data-name="Trazado 189929" d="M123.63,358.4a.175.175,0,0,1-.18-.169V355.86a.18.18,0,0,1,.18-.18h0a.18.18,0,0,1,.18.18h0v2.379A.18.18,0,0,1,123.63,358.4Z" transform="translate(-82.031 -292.522)" fill="#e0e0e0"/>
            <path id="Trazado_189930" data-name="Trazado 189930" d="M121.792,360.376a.168.168,0,0,1-.152-.09.174.174,0,0,1,.058-.24l0,0,2.07-1.192a.18.18,0,0,1,.174.309l-2.064,1.192A.167.167,0,0,1,121.792,360.376Z" transform="translate(-81.228 -293.905)" fill="#e0e0e0"/>
            <path id="Trazado_189931" data-name="Trazado 189931" d="M134.683,350.739a.375.375,0,0,1-.191-.051.462.462,0,0,1-.214-.427v-.484a.18.18,0,0,1,.354-.064.172.172,0,0,1,0,.064v.484a.184.184,0,0,0,.034.124.181.181,0,0,0,.118-.034,1.035,1.035,0,0,0,.332-.8v-3.161a.18.18,0,0,1,.354-.064.172.172,0,0,1,0,.064v3.161a1.378,1.378,0,0,1-.506,1.125A.6.6,0,0,1,134.683,350.739Z" transform="translate(-86.768 -288.363)" fill="#e0e0e0"/>
            <path id="Trazado_189932" data-name="Trazado 189932" d="M131.69,345.8v-.309a5.063,5.063,0,0,1,2.278-3.937,1.507,1.507,0,0,1,2.452,1.417v.1Zm3.341-4.218a1.792,1.792,0,0,0-.889.276,4.713,4.713,0,0,0-2.081,3.318l4-2.312a1.311,1.311,0,0,0-.562-1.159A.919.919,0,0,0,135.031,341.585Z" transform="translate(-85.637 -286.189)" fill="#e0e0e0"/>
            <path id="Trazado_189933" data-name="Trazado 189933" d="M146.244,342.852a.18.18,0,0,1-.174-.18v-6.058a.18.18,0,0,1,.354,0v6.058a.18.18,0,0,1-.18.18Z" transform="translate(-91.929 -284.115)" fill="#e0e0e0"/>
            <path id="Trazado_189934" data-name="Trazado 189934" d="M145.321,337.869h-.067a.169.169,0,0,1-.1-.216l.006-.015.636-1.468.7.821a.174.174,0,0,1,0,.246h0a.186.186,0,0,1-.253,0l-.332-.388-.411.945A.174.174,0,0,1,145.321,337.869Z" transform="translate(-91.522 -283.986)" fill="#e0e0e0"/>
            <path id="Trazado_189935" data-name="Trazado 189935" d="M149.174,341.182a.174.174,0,0,1-.174-.174v-6.063a.18.18,0,0,1,.354,0V341a.18.18,0,0,1-.18.18Z" transform="translate(-93.211 -283.385)" fill="#e0e0e0"/>
            <path id="Trazado_189936" data-name="Trazado 189936" d="M148.251,336.2a.159.159,0,0,1-.073,0,.175.175,0,0,1-.091-.229h0l.63-1.462.709.815a.175.175,0,0,1,0,.246h0a.186.186,0,0,1-.253,0l-.337-.388-.4.945A.186.186,0,0,1,148.251,336.2Z" transform="translate(-92.805 -283.26)" fill="#e0e0e0"/>
          </g>
          <path id="Trazado_189937" data-name="Trazado 189937" d="M79.175,243.39,49.81,260.342l37.15,21.469,29.36-17Z" transform="translate(-49.81 -243.39)" fill="#455a64"/>
          <path id="Trazado_189938" data-name="Trazado 189938" d="M49.81,273.53l37.009,20.2L116.32,278,86.96,295Z" transform="translate(-49.81 -256.578)" fill="#fff" opacity="0.1" style="isolation: isolate"/>
          <path id="Trazado_189939" data-name="Trazado 189939" d="M73.02,257.795l37.172,21.429,5.214-3.015L78.24,254.78Z" transform="translate(-59.966 -248.374)" fill="#1b3f5e"/>
          <path id="Trazado_189940" data-name="Trazado 189940" d="M144.32,292.87V299.5l-.63-.36-.652,1.131-.658-.382-.652,1.142-.658-.388-.652,1.136-.658-.377-.658,1.136V295.89Z" transform="translate(-88.879 -265.04)" fill="#1b3f5e"/>
          <path id="Trazado_189941" data-name="Trazado 189941" d="M144.32,292.87V299.5l-.63-.36-.652,1.131-.658-.382-.652,1.142-.658-.388-.652,1.136-.658-.377-.658,1.136V295.89Z" transform="translate(-88.879 -265.04)" opacity="0.25" style="isolation: isolate"/>
          <path id="Trazado_189942" data-name="Trazado 189942" d="M59.753,321.247,70.5,327.434a1.073,1.073,0,0,1,.484.844v7.464c0,.619-.439.866-.973.562l-10.743-6.187a1.074,1.074,0,0,1-.484-.838V321.8C58.786,321.191,59.219,320.938,59.753,321.247Z" transform="translate(-53.735 -277.399)" fill="#fafafa"/>
          <path id="Trazado_189943" data-name="Trazado 189943" d="M60.04,323.41l.366.214v6.592L60.04,330Z" transform="translate(-54.286 -278.403)" fill="#455a64"/>
          <path id="Trazado_189944" data-name="Trazado 189944" d="M62.68,324.94l.63.371V331.9l-.63-.371Z" transform="translate(-55.441 -279.072)" fill="#455a64"/>
          <path id="Trazado_189945" data-name="Trazado 189945" d="M65.33,326.47l.366.208v6.592l-.366-.208Z" transform="translate(-56.601 -279.742)" fill="#455a64"/>
          <path id="Trazado_189946" data-name="Trazado 189946" d="M67.32,327.6l.731.433v6.592l-.731-.433Z" transform="translate(-57.472 -280.236)" fill="#455a64"/>
          <path id="Trazado_189947" data-name="Trazado 189947" d="M70.62,329.52l.366.214v6.592l-.366-.214Z" transform="translate(-58.915 -281.076)" fill="#455a64"/>
          <path id="Trazado_189948" data-name="Trazado 189948" d="M72.52,330.6l.782.461v6.592l-.782-.461Z" transform="translate(-59.747 -281.549)" fill="#455a64"/>
          <path id="Trazado_189949" data-name="Trazado 189949" d="M75.91,332.57l.366.214v6.592l-.366-.214Z" transform="translate(-61.23 -282.411)" fill="#455a64"/>
          <path id="Trazado_189950" data-name="Trazado 189950" d="M77.42,333.43l.18.107v6.592l-.18-.107Z" transform="translate(-61.891 -282.787)" fill="#455a64"/>
          <path id="Trazado_189951" data-name="Trazado 189951" d="M74.7,331.94l.186.1v6.592l-.186-.1Z" transform="translate(-60.701 -282.135)" fill="#455a64"/>
          <path id="Trazado_189952" data-name="Trazado 189952" d="M69.376,328.81l.18.107v6.592l-.186-.1Z" transform="translate(-58.368 -280.765)" fill="#455a64"/>
          <path id="Trazado_189953" data-name="Trazado 189953" d="M66.46,327.14l.18.107v6.592l-.18-.107Z" transform="translate(-57.095 -280.035)" fill="#455a64"/>
          <path id="Trazado_189954" data-name="Trazado 189954" d="M64.36,325.98l.18.107v6.592l-.18-.107Z" transform="translate(-56.176 -279.527)" fill="#455a64"/>
          <path id="Trazado_189955" data-name="Trazado 189955" d="M61.52,324.26l.18.1v6.592l-.18-.1Z" transform="translate(-54.934 -278.775)" fill="#455a64"/>
          <path id="Trazado_189956" data-name="Trazado 189956" d="M78.56,334.1l.366.214-.006,6.592-.36-.214Z" transform="translate(-62.39 -283.08)" fill="#455a64"/>
        </g>
      </g>
    </g>
  </g>
</svg>
