<svg xmlns="http://www.w3.org/2000/svg" xmlns:xlink="http://www.w3.org/1999/xlink" width="449.333" height="530" viewBox="0 0 449.333 530">
  <defs>
    <linearGradient id="linear-gradient" x1="-10.205" y1="31.249" x2="-10.205" y2="30.207" gradientUnits="objectBoundingBox">
      <stop offset="0" stop-color="#dbccff"/>
      <stop offset="1" stop-color="#d1bbff"/>
    </linearGradient>
    <linearGradient id="linear-gradient-2" x1="-58.686" y1="567.878" x2="-57.582" y2="567.878" gradientUnits="objectBoundingBox">
      <stop offset="0" stop-color="#8b8be0"/>
      <stop offset="1" stop-color="#a177b7"/>
    </linearGradient>
    <linearGradient id="linear-gradient-3" x1="-33.315" y1="208.276" x2="-33.315" y2="207.758" gradientUnits="objectBoundingBox">
      <stop offset="0" stop-color="#fff"/>
      <stop offset="1" stop-color="#a177b7"/>
    </linearGradient>
    <linearGradient id="linear-gradient-4" x1="-31.801" y1="68.592" x2="-31.801" y2="67.511" gradientUnits="objectBoundingBox">
      <stop offset="0"/>
      <stop offset="1" stop-color="#fff"/>
    </linearGradient>
    <linearGradient id="linear-gradient-5" y1="0.5" x2="1" y2="0.5" gradientUnits="objectBoundingBox">
      <stop offset="0" stop-color="#9e8cef"/>
      <stop offset="1" stop-color="#caafee"/>
    </linearGradient>
    <linearGradient id="linear-gradient-6" x1="-408.317" y1="0.5" x2="-407.317" y2="0.5" xlink:href="#linear-gradient-5"/>
    <linearGradient id="linear-gradient-7" x1="0.5" y1="1" x2="0.5" gradientUnits="objectBoundingBox">
      <stop offset="0" stop-color="#ccf"/>
      <stop offset="1" stop-color="#755cbb"/>
    </linearGradient>
    <linearGradient id="linear-gradient-10" x1="0.5" y1="1" x2="0.5" gradientUnits="objectBoundingBox">
      <stop offset="0" stop-color="#d5cdf8"/>
      <stop offset="1" stop-color="#f3edfb"/>
    </linearGradient>
    <linearGradient id="linear-gradient-11" x1="0" y1="0.5" x2="1" y2="0.5" xlink:href="#linear-gradient-7"/>
    <linearGradient id="linear-gradient-13" x1="0.5" y1="1" x2="0.5" gradientUnits="objectBoundingBox">
      <stop offset="0" stop-color="#9e8cef"/>
      <stop offset="1" stop-color="#dac7f3"/>
    </linearGradient>
    <linearGradient id="linear-gradient-14" y1="0.5" x2="1" y2="0.5" gradientUnits="objectBoundingBox">
      <stop offset="0" stop-color="#a999f1"/>
      <stop offset="1" stop-color="#dac7f3"/>
    </linearGradient>
    <linearGradient id="linear-gradient-15" x1="0.5" y1="1" x2="0.5" gradientUnits="objectBoundingBox">
      <stop offset="0.016" stop-color="#ffc2a9"/>
      <stop offset="1" stop-color="#ff9595"/>
    </linearGradient>
    <linearGradient id="linear-gradient-16" x1="0.5" y1="1" x2="0.5" gradientUnits="objectBoundingBox">
      <stop offset="0" stop-color="#ffeadb"/>
      <stop offset="0.994" stop-color="#c27cb6"/>
    </linearGradient>
    <linearGradient id="linear-gradient-18" y1="0.5" x2="1" y2="0.5" gradientUnits="objectBoundingBox">
      <stop offset="0.016" stop-color="#d1a1d6"/>
      <stop offset="0.994" stop-color="#bd89c4"/>
    </linearGradient>
    <linearGradient id="linear-gradient-21" x1="0.5" y1="1" x2="0.5" gradientUnits="objectBoundingBox">
      <stop offset="0" stop-color="#ffb0b0"/>
      <stop offset="0.984" stop-color="#ffc2a9"/>
    </linearGradient>
    <linearGradient id="linear-gradient-24" y1="0.5" x2="1" y2="0.5" gradientUnits="objectBoundingBox">
      <stop offset="0" stop-color="#ccedff"/>
      <stop offset="1" stop-color="#755cbb"/>
    </linearGradient>
    <linearGradient id="linear-gradient-27" x1="0.5" y1="1" x2="0.5" y2="0" xlink:href="#linear-gradient-24"/>
    <linearGradient id="linear-gradient-34" x1="0.5" y1="1" x2="0.5" y2="0" xlink:href="#linear-gradient-24"/>
    <linearGradient id="linear-gradient-45" x1="0.47" y1="0.933" x2="0.517" y2="0.115" gradientUnits="objectBoundingBox">
      <stop offset="0" stop-color="#e1616a"/>
      <stop offset="1" stop-color="#ff8883"/>
    </linearGradient>
    <linearGradient id="linear-gradient-47" x1="0.5" y1="1" x2="0.5" gradientUnits="objectBoundingBox">
      <stop offset="0" stop-color="#cf6074"/>
      <stop offset="1" stop-color="#f37270"/>
    </linearGradient>
    <linearGradient id="linear-gradient-48" x1="0.5" y1="1" x2="0.5" gradientUnits="objectBoundingBox">
      <stop offset="0" stop-color="#cf6074"/>
      <stop offset="1" stop-color="#ff817f"/>
    </linearGradient>
    <linearGradient id="linear-gradient-49" x1="0.5" y1="1" x2="0.5" gradientUnits="objectBoundingBox">
      <stop offset="0" stop-color="#ffeadb"/>
      <stop offset="0.994" stop-color="#8860c7"/>
    </linearGradient>
    <linearGradient id="linear-gradient-50" x1="0.5" y1="1" x2="0.5" gradientUnits="objectBoundingBox">
      <stop offset="0" stop-color="#776d7e"/>
      <stop offset="1" stop-color="#9d68c2"/>
    </linearGradient>
    <linearGradient id="linear-gradient-51" x1="0.805" y1="0.799" x2="-0.137" y2="0.078" gradientUnits="objectBoundingBox">
      <stop offset="0" stop-color="#ffeadb"/>
      <stop offset="0.994" stop-color="#b060f4"/>
    </linearGradient>
    <linearGradient id="linear-gradient-52" x1="0.961" y1="0.812" x2="-0.003" y2="0.231" xlink:href="#linear-gradient-51"/>
    <linearGradient id="linear-gradient-53" y1="0.5" x2="1" y2="0.5" gradientUnits="objectBoundingBox">
      <stop offset="0" stop-color="#9d68c2"/>
      <stop offset="1" stop-color="#aec2ff"/>
    </linearGradient>
    <linearGradient id="linear-gradient-54" x1="0.5" y1="1" x2="0.5" gradientUnits="objectBoundingBox">
      <stop offset="0" stop-color="#ccedff"/>
      <stop offset="1" stop-color="#9d68c2"/>
    </linearGradient>
    <linearGradient id="linear-gradient-58" x1="0.5" y1="1" x2="0.5" gradientUnits="objectBoundingBox">
      <stop offset="0" stop-color="#b31a8f"/>
      <stop offset="1" stop-color="#fe117e"/>
    </linearGradient>
    <linearGradient id="linear-gradient-59" x1="0.5" y1="1" x2="0.5" gradientUnits="objectBoundingBox">
      <stop offset="0" stop-color="#8642a0"/>
      <stop offset="1" stop-color="#6456c0"/>
    </linearGradient>
    <linearGradient id="linear-gradient-60" x1="-4.607" y1="-29.626" x2="-4.773" y2="-30.64" gradientUnits="objectBoundingBox">
      <stop offset="0" stop-color="#1852a0"/>
      <stop offset="1" stop-color="#067ed3"/>
    </linearGradient>
    <linearGradient id="linear-gradient-61" x1="-0.938" y1="0.969" x2="2.115" y2="0.036" xlink:href="#linear-gradient-60"/>
  </defs>
  <g id="Grupo_145047" data-name="Grupo 145047" transform="translate(-130.667 -1576.6)">
    <rect id="Rectángulo_41264" data-name="Rectángulo 41264" width="400" height="530" transform="translate(179.5 1576.6)" fill="none"/>
    <g id="Grupo_129497" data-name="Grupo 129497" transform="translate(494.5 1611.594) rotate(180)">
      <path id="Trazado_114972" data-name="Trazado 114972" d="M10.862,0H0L8.232,17.5,0,34.993H10.862l8.232-17.5Z" fill="#1b3f5e"/>
      <path id="Trazado_114973" data-name="Trazado 114973" d="M10.863,0H0L8.232,17.5,0,34.993H10.862l8.232-17.5Z" transform="translate(19.095 0)" fill="#1b3f5e"/>
      <path id="Trazado_114974" data-name="Trazado 114974" d="M10.862,0H0L8.232,17.5,0,34.993H10.862l8.232-17.5Z" transform="translate(38.19 0)" fill="#1b3f5e"/>
      <path id="Trazado_114975" data-name="Trazado 114975" d="M10.862,0H0L8.232,17.5,0,34.993H10.862L19.1,17.5Z" transform="translate(57.285 0)" fill="#1b3f5e"/>
      <path id="Trazado_114976" data-name="Trazado 114976" d="M10.862,0H0L8.232,17.5,0,34.993H10.862l8.233-17.5Z" transform="translate(76.38 0)" fill="#1b3f5e"/>
      <path id="Trazado_114977" data-name="Trazado 114977" d="M10.862,0H0L8.232,17.5,0,34.993H10.862l8.232-17.5Z" transform="translate(95.475 0)" fill="#1b3f5e"/>
      <path id="Trazado_114978" data-name="Trazado 114978" d="M10.862,0H0L8.232,17.5,0,34.993H10.862L19.1,17.5Z" transform="translate(114.57 0)" fill="#1b3f5e"/>
      <path id="Trazado_114979" data-name="Trazado 114979" d="M10.862,0H0L8.232,17.5,0,34.993H10.862l8.232-17.5Z" transform="translate(133.665 0)" fill="#1b3f5e"/>
    </g>
    <g id="Grupo_129503" data-name="Grupo 129503" transform="translate(428.5 1951.063)">
      <path id="Trazado_114972-2" data-name="Trazado 114972" d="M727.479,386.058h9.386l-7.114,15.119,7.114,15.119h-9.386l-7.114-15.119Z" transform="translate(-604.865 -386.058)" fill="#fff59d"/>
      <path id="Trazado_114973-2" data-name="Trazado 114973" d="M743.764,386.058h9.386l-7.114,15.119L753.15,416.3h-9.386l-7.114-15.119Z" transform="translate(-637.65 -386.058)" fill="#fff59d"/>
      <path id="Trazado_114974-2" data-name="Trazado 114974" d="M760.049,386.058h9.386l-7.114,15.119,7.114,15.119h-9.386l-7.114-15.119Z" transform="translate(-670.436 -386.058)" fill="#fff59d"/>
      <path id="Trazado_114975-2" data-name="Trazado 114975" d="M776.335,386.058h9.386l-7.114,15.119,7.114,15.119h-9.386l-7.114-15.119Z" transform="translate(-703.221 -386.058)" fill="#fff59d"/>
      <path id="Trazado_114976-2" data-name="Trazado 114976" d="M792.62,386.058h9.386l-7.114,15.119,7.114,15.119H792.62l-7.114-15.119Z" transform="translate(-736.006 -386.058)" fill="#fff59d"/>
      <path id="Trazado_114977-2" data-name="Trazado 114977" d="M808.9,386.058h9.386l-7.114,15.119,7.114,15.119H808.9l-7.114-15.119Z" transform="translate(-768.791 -386.058)" fill="#fff59d"/>
      <path id="Trazado_114978-2" data-name="Trazado 114978" d="M825.19,386.058h9.386l-7.114,15.119,7.114,15.119H825.19l-7.114-15.119Z" transform="translate(-801.576 -386.057)" fill="#fff59d"/>
      <path id="Trazado_114979-2" data-name="Trazado 114979" d="M841.475,386.058h9.386l-7.114,15.119,7.114,15.119h-9.386l-7.114-15.119Z" transform="translate(-834.362 -386.057)" fill="#fff59d"/>
    </g>
    <g id="Grupo_142710" data-name="Grupo 142710" transform="translate(36.969 1585.198)">
      <g id="Grupo_142672" data-name="Grupo 142672" transform="translate(185.717 210.421)">
        <path id="Trazado_214968" data-name="Trazado 214968" d="M192.072,224.424c.007-.23.117-.342.333-.336l6.29.19a4.708,4.708,0,0,1,1.582.285,2.639,2.639,0,0,1,1.041.7,2.6,2.6,0,0,1,.555,1.065,4.81,4.81,0,0,1,.142,1.383l-.053,1.727a4.793,4.793,0,0,1-.225,1.371,2.6,2.6,0,0,1-.619,1.031,2.661,2.661,0,0,1-1.081.637,4.741,4.741,0,0,1-1.6.188l-3.386-.1-.7-1.98-.092,0-.059,1.958-2.373-.073Zm2.2,5.935,4.02.123a1.3,1.3,0,0,0,.977-.27,1.519,1.519,0,0,0,.32-1.051l.043-1.406a1.494,1.494,0,0,0-.255-1.075,1.363,1.363,0,0,0-.959-.311l-3.848-.117a.164.164,0,0,0-.128.049.172.172,0,0,0-.049.119Z" transform="translate(-191.828 -224.088)" fill="#f1f1f4"/>
        <path id="Trazado_214969" data-name="Trazado 214969" d="M206.15,228.045l-.081,0-.076,2.511a.143.143,0,0,0,.157.166l7.073.215-.067,2.176-9.273-.28a.3.3,0,0,1-.324-.355l.234-7.7a.3.3,0,0,1,.344-.335l9.009.274a.306.306,0,0,1,.336.355l-.067,2.177L211.19,228l-.093,0,.034-1.117c0-.084-.034-.128-.111-.13l-4.758-.144a.124.124,0,0,0-.122.048.216.216,0,0,0-.032.109l-.032,1.048,3.917.118-.053,1.706-3.284-.1Z" transform="translate(-192.559 -224.11)" fill="#f1f1f4"/>
        <path id="Trazado_214970" data-name="Trazado 214970" d="M222.572,227.913l-.093,0,.028-.922a.122.122,0,0,0-.134-.143l-4.423-.135a.442.442,0,0,0-.338.094.437.437,0,0,0-.1.3l-.006.208a.416.416,0,0,0,.07.313.662.662,0,0,0,.309.113l5.185.883a3.488,3.488,0,0,1,.835.239,1.6,1.6,0,0,1,.553.4,1.348,1.348,0,0,1,.293.592,3.126,3.126,0,0,1,.067.821l-.02.668a2.992,2.992,0,0,1-.155.911,1.548,1.548,0,0,1-.435.656,1.824,1.824,0,0,1-.773.386,4.235,4.235,0,0,1-1.167.1l-7.465-.227.067-2.177,6.692.2a.537.537,0,0,0,.4-.1.58.58,0,0,0,.11-.383l.007-.231a.474.474,0,0,0-.065-.308.461.461,0,0,0-.291-.119l-5-.786a3.971,3.971,0,0,1-.864-.233,1.66,1.66,0,0,1-.582-.386,1.333,1.333,0,0,1-.316-.575,2.713,2.713,0,0,1-.08-.8l.018-.588a1.951,1.951,0,0,1,.526-1.4,2.182,2.182,0,0,1,1.629-.452l7.452.227a.321.321,0,0,1,.347.379l-.053,1.728Z" transform="translate(-193.259 -224.134)" fill="#f1f1f4"/>
        <path id="Trazado_214971" data-name="Trazado 214971" d="M226.447,233.514l.255-8.386,2.373.072-.254,8.386Z" transform="translate(-193.984 -224.153)" fill="#f1f1f4"/>
        <path id="Trazado_214972" data-name="Trazado 214972" d="M237.856,230.27c0-.123,0-.251-.007-.386s-.016-.252-.029-.353l0-.1,2.35.071-.125,4.113c-.007.216-.106.32-.3.314l-6.313-.191a4.741,4.741,0,0,1-1.583-.285,2.639,2.639,0,0,1-1.04-.7,2.589,2.589,0,0,1-.555-1.066,4.793,4.793,0,0,1-.143-1.381l.053-1.728a4.8,4.8,0,0,1,.226-1.372,2.6,2.6,0,0,1,.619-1.03,2.639,2.639,0,0,1,1.081-.636,4.711,4.711,0,0,1,1.6-.188l6.277.19a.3.3,0,0,1,.324.355l-.055,1.809-2.225.74-.093,0,.025-.806c0-.077-.03-.116-.1-.118l-4.008-.122a2.338,2.338,0,0,0-.583.046.814.814,0,0,0-.394.207.927.927,0,0,0-.231.408,2.546,2.546,0,0,0-.09.638l-.044,1.474a1.525,1.525,0,0,0,.256,1.069,1.305,1.305,0,0,0,.959.329l3.974.12c.084,0,.128-.041.13-.134Z" transform="translate(-194.213 -224.166)" fill="#f1f1f4"/>
        <path id="Trazado_214973" data-name="Trazado 214973" d="M245.919,225.712a.665.665,0,0,1,.373.092.758.758,0,0,1,.193.26l3,6.121a.244.244,0,0,0,.215.144l.126,0a.164.164,0,0,0,.191-.179l.191-6.313,2.154.066-.245,8.053q-.01.333-.333.323l-3.41-.1a.74.74,0,0,1-.359-.08.639.639,0,0,1-.219-.272l-3.111-6.114a.23.23,0,0,0-.214-.144l-.115,0a.164.164,0,0,0-.19.179l-.191,6.3-2.155-.066.245-8.041c.008-.23.117-.342.333-.336Z" transform="translate(-194.941 -224.182)" fill="#f1f1f4"/>
      </g>
      <circle id="Elipse_5459" data-name="Elipse 5459" cx="145.364" cy="145.364" r="145.364" transform="translate(93.698 210.226) rotate(-45)" fill="#f0f8ff"/>
      <g id="Grupo_142674" data-name="Grupo 142674" transform="translate(169.395 192.236)">
        <path id="Trazado_214974" data-name="Trazado 214974" d="M197.445,213.381a22.31,22.31,0,0,0-9.9-8.686l-2.2,1.03,4.964,9.007a9.659,9.659,0,0,1-3.037,5.363l-.007-.014a9.655,9.655,0,0,1-6.062-1.112l-3.723-9.586-2.2,1.03a22.32,22.32,0,0,0,.313,13.165s.94,2.17,1.1,2.359c.874,1.019,3.152,2.2,7.554,1.923l15.195,28.987a7.947,7.947,0,1,0,8.213-3.836l-12.476-30.241c2.97-3.133,3.6-5.6,3.372-7.027C198.5,215.439,197.445,213.381,197.445,213.381Zm12.5,49.991-4.025,1.88-3.64-2.544.384-4.425,4.025-1.881,3.64,2.545Z" transform="translate(-174.422 -204.695)" fill="url(#linear-gradient)"/>
        <path id="Trazado_214975" data-name="Trazado 214975" d="M198.621,215.9a22.321,22.321,0,0,0-9.9-8.687l-2.2,1.03,4.963,9.007a9.658,9.658,0,0,1-3.037,5.364l-.007-.015a9.658,9.658,0,0,1-6.063-1.112l-3.722-9.586-2.2,1.03a22.316,22.316,0,0,0,.312,13.165s3.437,4.606,8.656,4.283l15.2,28.987a7.947,7.947,0,1,0,8.213-3.836l-12.476-30.24C199.949,221.489,198.621,215.9,198.621,215.9Zm12.5,49.99-4.025,1.88-3.641-2.544.384-4.425,4.026-1.88,3.64,2.544Z" transform="translate(-174.495 -204.852)" fill="#1b3f5e"/>
        <rect id="Rectángulo_42121" data-name="Rectángulo 42121" width="2.433" height="2.604" transform="translate(0.853 5.717) rotate(-25.043)" fill="#e5e2ff"/>
        <rect id="Rectángulo_42122" data-name="Rectángulo 42122" width="2.433" height="2.604" transform="translate(10.922 1.03) rotate(-25.043)" fill="#e5e2ff"/>
        <rect id="Rectángulo_42123" data-name="Rectángulo 42123" width="4.443" height="2.604" transform="matrix(0.906, -0.423, 0.423, 0.906, 31.495, 60.557)" fill="#e5e2ff"/>
        <g id="Grupo_142673" data-name="Grupo 142673" transform="translate(14.177 24.267)">
          <path id="Trazado_214976" data-name="Trazado 214976" d="M189.541,233.985l12.272,23.584a6,6,0,0,0,4.954-2.314l-9.99-24.651A9.42,9.42,0,0,0,189.541,233.985Zm16.279,21.462a6.947,6.947,0,0,1-1.589,1.04,5.916,5.916,0,0,1-1.694.505l-12.291-23.1a12.687,12.687,0,0,1,2.954-1.94,10.337,10.337,0,0,1,3.038-.9Z" transform="translate(-189.541 -230.575)" fill="#1b3f5e"/>
          <path id="Trazado_214977" data-name="Trazado 214977" d="M206.635,257.084l.947-.192a5.31,5.31,0,0,1-4.954,2.314l.725-.577A6.68,6.68,0,0,0,206.635,257.084Z" transform="translate(-190.356 -232.212)" fill="#e5e2ff"/>
          <path id="Trazado_214978" data-name="Trazado 214978" d="M189.541,233.984l.706-.092a11.442,11.442,0,0,1,5.992-2.836l.537-.454a9.21,9.21,0,0,0-7.235,3.381Z" transform="translate(-189.541 -230.573)" opacity="0.62" fill="url(#linear-gradient-2)" style="mix-blend-mode: multiply;isolation: isolate"/>
        </g>
        <path id="Trazado_214979" data-name="Trazado 214979" d="M186.071,231.575A27.1,27.1,0,0,0,197,226.486l1.6,3.867s-1.809-1.791-5.781-.173c-4.645,1.893-4.391,5.631-4.391,5.631Z" transform="translate(-175.148 -206.052)" opacity="0.62" fill="url(#linear-gradient-3)" style="mix-blend-mode: multiply;isolation: isolate"/>
        <path id="Trazado_214980" data-name="Trazado 214980" d="M199.27,230.554a4.782,4.782,0,0,0-2.428-.838l11.877,28.69,1.432-1.479Z" transform="translate(-175.818 -206.253)" opacity="0.5" fill="url(#linear-gradient-4)" style="mix-blend-mode: screen;isolation: isolate"/>
        <path id="Trazado_214981" data-name="Trazado 214981" d="M199.417,230.61s-1.246,3.833,2.332,5.652Z" transform="translate(-175.966 -206.309)" fill="#fff"/>
      </g>
      <g id="Grupo_142682" data-name="Grupo 142682" transform="translate(206.269 77.652)">
        <g id="Grupo_142677" data-name="Grupo 142677" transform="translate(41.728 240.657)">
          <path id="Trazado_214982" data-name="Trazado 214982" d="M381.9,422.794H337.822c-4.614-25.619-15.341-58.954-15.341-58.954-2.607-1.547-7.7.356-7.7.356l-16.11,58.6H258.406c-2.138-36.159,17.648-77.2,17.648-77.2l-.009-.009a4.431,4.431,0,0,1-.525-2.241,5.328,5.328,0,0,1,1.5-1.744c1.088-.994,2.382-1.988,2.382-1.988l75.121-.469s.76.384,1.725.966h.009c1.641.994,3.863,2.532,3.863,3.657a5.125,5.125,0,0,1-.76,2.776l-.038.047C375.431,376.984,381.9,422.794,381.9,422.794Z" transform="translate(-258.245 -339.14)" fill="#1b3f5e"/>
          <g id="Grupo_142675" data-name="Grupo 142675" transform="translate(34.751 24.879)">
            <path id="Trazado_214983" data-name="Trazado 214983" d="M295.766,424.486l-.462-.079c5.126-30.195,18.134-55.518,18.264-55.77l.054-.069,3.314-2.9.309.353-3.28,2.867C313.38,370.034,300.785,394.919,295.766,424.486Z" transform="translate(-295.304 -365.671)" fill="url(#linear-gradient-5)"/>
          </g>
          <g id="Grupo_142676" data-name="Grupo 142676" transform="translate(64.079 24.881)">
            <path id="Trazado_214984" data-name="Trazado 214984" d="M348.06,424.486c-5.022-29.587-17.965-54.713-18.547-55.831l-2.933-2.632.313-.35,3.016,2.727c.134.254,13.488,25.812,18.613,56.007Z" transform="translate(-326.58 -365.673)" fill="url(#linear-gradient-6)"/>
          </g>
          <path id="Trazado_214985" data-name="Trazado 214985" d="M361.176,343.763a5.124,5.124,0,0,1-.76,2.776l-.038.047c-15.641,3.535-27.541,18.136-27.541,18.136,8.524,16.354,22.74,58.073,22.74,58.073h-16.7c-4.614-25.619-15.341-58.954-15.341-58.954-2.607-1.547-7.7.356-7.7.356l-16.11,58.6H289.3c3.732-24.549,14.75-54.519,14.75-54.519-10.831-12.612-26.941-22.684-26.941-22.684l-.009-.009-1.913-1.2,1.388-1.041c6.967,6.686,29.435,15.416,30.129,15.688L278.075,341.6c1.088-.994,2.382-1.988,2.382-1.988l75.121-.469s.76.384,1.725.966L336.786,351.4Z" transform="translate(-259.3 -339.14)" opacity="0.76" fill="url(#linear-gradient-7)" style="mix-blend-mode: multiply;isolation: isolate"/>
          <path id="Trazado_214986" data-name="Trazado 214986" d="M326.747,365.1l8.769-5.689-2.083,5.689-1.527,17.128Z" transform="translate(-262.511 -340.403)" opacity="0.76" fill="url(#linear-gradient-7)" style="mix-blend-mode: multiply;isolation: isolate"/>
          <path id="Trazado_214987" data-name="Trazado 214987" d="M316.632,364.932l-9.133-5.167-19.555-8.806,24.9,16.456,1.483,5.9Z" transform="translate(-260.094 -339.876)" opacity="0.76" fill="url(#linear-gradient-7)" style="mix-blend-mode: multiply;isolation: isolate"/>
        </g>
        <path id="Trazado_214988" data-name="Trazado 214988" d="M343.068,176.251c.056.4.1.619.1.619a53.686,53.686,0,0,1-1.557,5.307,43.139,43.139,0,0,1-5.842,11.365,22.368,22.368,0,0,1-2.551,2.982c-13.681-4.295-20.424-17.676-23.012-24.334a.336.336,0,0,1-.038-.1c-.5-1.257-.825-2.269-1.031-2.926v-.009c-.159-.525-.234-.816-.234-.816.056-.113.113-.234.169-.347l.028-.047c.225-.469.45-.947.656-1.407a66.729,66.729,0,0,0,3.751-10.474c.666-2.457,1.022-4.351,1.191-5.354.084-.516.122-.8.122-.8l6.376,3.366L343.171,164.9a36.147,36.147,0,0,0-.469,5.57c-.019,1.172.019,2.222.084,3.113.066,1.088.178,1.95.263,2.513v.009A.64.64,0,0,0,343.068,176.251Z" transform="translate(-219.672 -86.698)" fill="#fe9083"/>
        <path id="Trazado_214989" data-name="Trazado 214989" d="M336.984,199.2a18.848,18.848,0,0,1-4.539,3.32.7.7,0,0,1-.113.066s-.047-.028-.131-.075l-.009-.009c-.478-.291-2.11-1.294-4.3-2.944-5.739-4.323-15.322-13.062-18.06-24.84-.009-.019-.009-.028-.019-.047a29.207,29.207,0,0,1-.656-4.3v-.009c-.028-.384-.056-.769-.066-1.163a60.422,60.422,0,0,0,5.2,9.3c3.882,5.683,9.705,11.881,16.663,11.918,6.02.037,9.105-4.079,10.671-7.877a21.492,21.492,0,0,0,1.266-4.314.029.029,0,0,0,.009-.019c.066-.338.113-.638.159-.891V177.3c.019-.131.038-.244.047-.347.056-.422.075-.666.075-.666S345.489,190.692,336.984,199.2Z" transform="translate(-219.683 -87.899)" fill="url(#linear-gradient-10)"/>
        <path id="Trazado_214990" data-name="Trazado 214990" d="M336.984,199.2a18.848,18.848,0,0,1-4.539,3.32h-.113l-.131-.009-.009-.009c-.478-.291-2.11-1.294-4.3-2.944-5.739-4.323-15.322-13.062-18.06-24.84-.009-.019-.009-.028-.019-.047a29.207,29.207,0,0,1-.656-4.3v-.009c-.028-.384-.056-.769-.066-1.163a60.422,60.422,0,0,0,5.2,9.3s3.788,10.409,11.984,15.566c4.107,2.579,7.22,2.2,9.509.685a14.147,14.147,0,0,0,4.642-6.133,14.419,14.419,0,0,0,1.2-5.232q.014-.464,0-.844a21.492,21.492,0,0,0,1.266-4.314.029.029,0,0,0,.009-.019c.066-.338.113-.638.159-.891V177.3c.019-.131.038-.244.047-.347.056-.422.075-.666.075-.666S345.489,190.692,336.984,199.2Z" transform="translate(-219.683 -87.899)" opacity="0.5" fill="url(#linear-gradient-11)" style="mix-blend-mode: multiply;isolation: isolate"/>
        <path id="Trazado_214991" data-name="Trazado 214991" d="M384.836,284.142c-.1.047-.15.075-.15.075-.769.094-3.16-.431-6.292-3.141l-.009-.009c0-.009-.009-.019-.028-.028s-.019-.028-.038-.038c-2.626-2.3-5.776-6.133-8.918-12.415-6.283-12.556-8.083-20.939-8.374-22.4l-.038-.225-3.666,5.814c-2.485,7.474-7.192,38.4-7.108,39.731s4.173,7.821,4.089,8.618a.029.029,0,0,1-.009.019c-.113.806-1.951,2.579-2.476,4.51-.356,1.285,2.138,5.336,3.892,8.364v.009a12.316,12.316,0,0,1,1.613,3.357c0,1.416-4.445,8.346-4.445,8.346v3.732l-.066.066-.206.188-.169.141c-1.688,1.332-8.843,5.692-31.2,6.892-26.491,1.416-44.139-7.108-44.139-7.108l1.332-3.648s-1.238-1.06-1.332-1.594.975-1.782.975-1.782-2.663-1.416-2.663-3.2,5.336-7.277,5.157-11.993-4.267-8.88-4.8-11.543,6.93-9.237,6.93-9.237c-6.4-20.255-7.642-47.439-7.642-47.439l-1.238-1.425s-7.642,17.413-14.572,25.937c-.825,1.013-1.7,2.016-2.6,2.982a75.916,75.916,0,0,1-5.964,5.767c-4.8,4.182-9.162,6.93-10.268,6.714-1.782-.356-8.89-14.394-8.561-28.788.15-6.845,4.276-14.507,8.561-20.649.46-.656.919-1.3,1.388-1.932a98.363,98.363,0,0,1,7.352-8.861c.544-.581.853-.891.853-.891s-.975-3.141-1.641-5.87a1.5,1.5,0,0,0-.047-.2.333.333,0,0,0-.019-.094.294.294,0,0,0-.019-.066c-.394-1.679-.638-3.132-.413-3.488.591-.947,4.032-2.016,4.623-2.719s3.076-12.678,4.97-13.981c1.819-1.247,5.017-2.157,15.679-6.348.525-.206,1.06-.413,1.622-.638,11.956-4.735,23.687-10.484,23.687-10.484l4.5-5.533h2.007l-.656,1.407-.028.047c.319,1.425.685,2.794,1.1,4.1a.337.337,0,0,0,.038.1c6.189,19.523,22.111,25.815,22.111,25.815,11.065-8.168,10.849-21.136,10.849-21.136v-1.782l2.072.619,1.416,3.376s2.4,3.732,11.909,7.914a56.566,56.566,0,0,1,5.223,2.673c8.7,4.942,18.379,12.584,19.12,14.206a5.252,5.252,0,0,1,.253.806v.009c1.022,4.013,3.123,19.045,5.073,24.409A12.281,12.281,0,0,0,388,236.356c.009.009.009.009.019.009a7.134,7.134,0,0,0,1.819.947q.225,1.238.422,2.447C394.335,265.472,386.58,282.923,384.836,284.142Z" transform="translate(-214.872 -87.802)" fill="#afafaf"/>
        <path id="Trazado_214992" data-name="Trazado 214992" d="M283.445,237.134l-7.727,2.6-1.238-1.425s-7.642,17.413-14.572,25.937c-.825,1.013-1.7,2.016-2.6,2.982a75.913,75.913,0,0,1-5.964,5.767l-5.889-25.384-2.991-19.27a98.357,98.357,0,0,1,7.352-8.861c.544-.581.853-.891.853-.891s-.975-3.141-1.641-5.87a1.505,1.505,0,0,0-.047-.2.332.332,0,0,0-.019-.094.294.294,0,0,0-.019-.066c-.394-1.679-.638-3.132-.413-3.488.591-.947,4.032-2.016,4.623-2.719s3.076-12.678,4.97-13.981c0,0-1.238,11.487,5.336,26.059l3.2,4.5,9.358,7.521S279.573,234.968,283.445,237.134Z" transform="translate(-215.534 -89.33)" opacity="0.5" fill="url(#linear-gradient-11)" style="mix-blend-mode: multiply;isolation: isolate"/>
        <path id="Trazado_214993" data-name="Trazado 214993" d="M259.664,258.5c-1.66,12.312-20.011,21.793-20.011,21.793-4.088,0-8.655-7.108-12.8-15.876s-4.4-33.955-4.614-35.511-2.532-4.67-2.673-6,3.732-4.088,3.732-4.088l-.028-.066-.028-.066c-.4-.863-2.673-5.729-2.513-6.62.178-.975,4.52-3.1,4.52-3.1l.272,4.792s10.109-1.913,13.531-9.743l.6-2.4,1.688,1.125v10.306s.347,1.6.881,1.6,4.473-1.969,5.3-1.7,1.65,5.786,2.757,6.489,4.032,2.757,4.473,3.732a17.863,17.863,0,0,1,.234,3.892,39.755,39.755,0,0,0,.384,6.508C256,236.315,261.323,246.18,259.664,258.5Z" transform="translate(-214.107 -89.918)" fill="url(#linear-gradient-13)"/>
        <path id="Trazado_214994" data-name="Trazado 214994" d="M437.835,249.765c-.825,1.3-4.97,4.032-6.039,5.1s0,4.567,0,4.567a143.8,143.8,0,0,1-37.4,28.638,1.661,1.661,0,0,0-.15.075c-10.934-7.352-10-19.458-6.367-29.66a76.985,76.985,0,0,1,9.677-18.173l.009-.009.009-.009a22.888,22.888,0,0,1,5.551-1.538,3.371,3.371,0,0,1,2.054.638c1.332.825,2.457,2.129,3.545,1.585,1.6-.806,5.186-9.274,7.614-9.508,1.7-.159,4.051,1.566,5.617,2.551.685.431,1.219.722,1.482.647.891-.234,3.91-3.854,4.154-3.948s1.613.91,1.613.91l-.966,1.2a32.808,32.808,0,0,0,6.339,14.272l3.254-4.764S438.67,248.461,437.835,249.765Z" transform="translate(-224.436 -91.731)" fill="url(#linear-gradient-14)"/>
        <path id="Trazado_214995" data-name="Trazado 214995" d="M343.421,175.938c-.019.122-.037.244-.047.366a7.244,7.244,0,0,1-.178.75.029.029,0,0,1-.009.019c-1.116,4.135-5.626,8.364-11.318,6.33-6.217-2.222-18.051-27.288-18.051-27.288l1.191-5.354,28.085,22.88.309,2.166Z" transform="translate(-219.977 -86.751)" fill="#cb4d7a"/>
        <g id="Grupo_142678" data-name="Grupo 142678" transform="translate(0 52.894)">
          <path id="Trazado_214996" data-name="Trazado 214996" d="M243.884,170.612s-1.718-9.476-.948-16.465a75.726,75.726,0,0,0-.2-14.925,3.81,3.81,0,0,0-2.941,0c-1.243.711-4.146,7.936-2.843,13.74s.3,19.721.3,19.721H235.3l-4.264-5.863-2.073-.593s-11.933,11.253-11.756,17.945l1.559,5.952,14.7-.5,9.595-10.957Z" transform="translate(-213.96 -138.907)" fill="#ee8183"/>
          <path id="Trazado_214997" data-name="Trazado 214997" d="M228.744,168.044a76.323,76.323,0,0,0,1.983,13.859,3.316,3.316,0,0,1-3.346,2.8l-.755-.844s-.533,2.976-3.243,3.2l-2.576-2.576.666,2.131a3.646,3.646,0,0,1-3.376,2.176s-4.086-3.2-4.353-7.373l4.041-3.42v-2.621l4.8-3.376.088-1.91A11.276,11.276,0,0,1,228.744,168.044Z" transform="translate(-213.745 -140.722)" fill="url(#linear-gradient-15)"/>
          <path id="Trazado_214998" data-name="Trazado 214998" d="M243.81,153.021a6.685,6.685,0,0,1-1.74,2.538,15.031,15.031,0,0,1-3.982,1.255l-.135,16.75H236l-4.264-5.863s2.161,3.346,2.295,5.863l-1.688.83-1.466-5.02-.695,3.612.691,4.5a11.8,11.8,0,0,1,7.1-2.265l.688,1.249s-8.276,6.856-10.186,10.9c0,0,4.087-5.2,13.414-10.926l.889-2.754,1.179-6.574S242.841,157.634,243.81,153.021Z" transform="translate(-214.662 -139.786)" opacity="0.6" fill="url(#linear-gradient-16)" style="mix-blend-mode: multiply;isolation: isolate"/>
          <path id="Trazado_214999" data-name="Trazado 214999" d="M250.143,182.528c-.769,2.307-8.824,11.9-9.715,13.981A28.16,28.16,0,0,0,239,201.3c-3.957,8.561-13.531,9.743-13.531,9.743l-.441-7.727s-5.148-2.963-6.02-4.585L219,198.7l-.1-.272a64.515,64.515,0,0,1-.037-7.108l9.011-3.648c3.91-5.064,13.419-10.924,13.419-10.924l.441-2.654c-6.827-3.357-5.683-13.513-4.529-14.76a5.059,5.059,0,0,1,3.282-1.238s2.494,8.168,4.088,11.993S250.912,180.221,250.143,182.528Z" transform="translate(-214.058 -140.102)" fill="url(#linear-gradient-15)"/>
          <path id="Trazado_215000" data-name="Trazado 215000" d="M223.26,170.223s1.007,9.328,3.953,13.769a21.719,21.719,0,0,1-4.042-11.859Z" transform="translate(-214.332 -140.857)" fill="#e28183"/>
          <path id="Trazado_215001" data-name="Trazado 215001" d="M218.054,175.86s.979,7.506,5.6,11.682c0,0-4.09-2.043-5.6-9.061Z" transform="translate(-214.013 -141.208)" fill="#e28183"/>
          <path id="Trazado_215002" data-name="Trazado 215002" d="M242.093,196.938s-10.16,9.865-16.646,8.8l.441,7.727a17.144,17.144,0,0,0,14.127-12.148A29.1,29.1,0,0,1,242.093,196.938Z" transform="translate(-214.474 -142.521)" opacity="0.91" fill="url(#linear-gradient-18)" style="mix-blend-mode: multiply;isolation: isolate"/>
        </g>
        <g id="Grupo_142679" data-name="Grupo 142679" transform="translate(187.323 85.285)">
          <path id="Trazado_215003" data-name="Trazado 215003" d="M468.579,208.886s-9.33,17.057-20.255,22.3h-3.732l-8.618,13.062s-5.57-3.5-5.983-14.985a10.478,10.478,0,0,0,2.429-4.332s-3.076-2.419-3.91-4.192-1.125-7.108-1.716-9.3-5.626-6.752-6.752-7.342-6.217-.891-6.217-.891-.713-1.838,0-2.719,8.646-3.976,12.969-1.013a19.472,19.472,0,0,0,.769,3.441c.478,1.182,4.267,5.383,4.857,5.383s3.141-2.129,4.267-3.788a167.434,167.434,0,0,0,8.2-18.117.465.465,0,0,1,.037-.122c.019-.066.047-.131.056-.188a.86.86,0,0,0,.038-.122c.009-.019.019-.028.019-.047,1.069-3.61,7.286-10.54,10.606-12.434a1.955,1.955,0,0,1,2.185,1.416,77.657,77.657,0,0,1-5.448,12.087c-.469.76-.975,1.65-1.5,2.607h-.009c-2.372,4.36-5.045,10.071-5.429,10.906l-.047.1,1.482.76,4-3.8,4.107-3.892,9.424,9.949-.928,1.182-2.944,3.779,1.491.272,3.47-3.835Z" transform="translate(-413.509 -173.449)" fill="url(#linear-gradient-15)"/>
          <path id="Trazado_215004" data-name="Trazado 215004" d="M467.652,213.371l-2.981,4.382s-16.366-12.621-19.92-13.69-4.857-.356-4.857-.356l-3.666,4.679s6.752,5.983,7.342,14.038c0,0-2.25-10.184-9.893-13.269.591,0,3.141-2.129,4.267-3.788a167.443,167.443,0,0,0,8.2-18.117,4.653,4.653,0,0,0,.15,3.2c.806,1.491,5.551.084,5.833,0h.009l-5.439,10.906-.047.1,1.482.76,4-3.8-2.007,4.66,14.61,2.579-2.944,3.779,1.491.272Z" transform="translate(-414.765 -174.308)" opacity="0.6" fill="url(#linear-gradient-16)" style="mix-blend-mode: multiply;isolation: isolate"/>
          <path id="Trazado_215005" data-name="Trazado 215005" d="M457.276,195.012s2.843-.414,4.679,3.257l-.415,1.185s2.771.542,5.449,5.034a15.185,15.185,0,0,1-8.232,6.278s-2.724-.77-3.2-3.08l.533-1.48-2.132,1.6s-2.547.77-3.672-3.02Z" transform="translate(-415.8 -174.791)" fill="url(#linear-gradient-21)"/>
          <path id="Trazado_215006" data-name="Trazado 215006" d="M472.624,209.682a4.394,4.394,0,0,0-2.31-4.5l-5.626,6.219a2.905,2.905,0,0,0,2.606,2.428S471.143,212.525,472.624,209.682Z" transform="translate(-416.696 -175.425)" fill="url(#linear-gradient-21)"/>
          <path id="Trazado_215007" data-name="Trazado 215007" d="M429.507,223.88a41.734,41.734,0,0,0,16.082,10.446l-4.121,6.247-8.6-10.922.551-1.58S429.979,225.485,429.507,223.88Z" transform="translate(-414.506 -176.59)" opacity="0.91" fill="url(#linear-gradient-18)" style="mix-blend-mode: multiply;isolation: isolate"/>
          <path id="Trazado_215008" data-name="Trazado 215008" d="M461.89,199.75a32.483,32.483,0,0,1-5.448,6.752l-.533,1.48s5.288-3.568,7.234-7.691A3.369,3.369,0,0,0,461.89,199.75Z" transform="translate(-416.15 -175.087)" fill="#e28183"/>
        </g>
        <path id="Trazado_215009" data-name="Trazado 215009" d="M436.848,248.316c-.825,1.3-4.97,4.032-6.039,5.1s0,4.567,0,4.567a143.8,143.8,0,0,1-37.4,28.638c-.1.047-.15.075-.15.075-1.425.178-8.355-1.772-15.285-15.632-6.283-12.556-8.083-20.939-8.374-22.4l-.038-.225,1.529-2.072,2.269-25.581,1.594,5.148C381,218.647,386.69,207.46,386.69,207.46l.253.806v.009c1.022,4.013,3.123,19.045,5.073,24.409a12.282,12.282,0,0,0,4.557,6.151l.009.019-.009.009c-5.561,5.073-8.318,12.369-9.677,18.173a50.34,50.34,0,0,0-1.332,9.405,63.235,63.235,0,0,1,6.4-15.9,34.227,34.227,0,0,1,6.873-8.3,55.187,55.187,0,0,1,5.364-4.295c1.331.825,2.457,2.129,3.545,1.585-7.314,10.981-7.136,32.717-.263,28.572s8.436-12.942,8.436-12.942c-1.622-10.718-1.138-22.806.165-25.1,1.582.052,6.112,3.238,6.375,3.163a37.136,37.136,0,0,0,5.514,21.033l3.91-6.048a37.52,37.52,0,0,1-5.27-18.933c.234-.1,1.613.91,1.613.91l-.966,1.2a32.808,32.808,0,0,0,6.339,14.272l3.254-4.764S437.683,247.013,436.848,248.316Z" transform="translate(-223.449 -90.282)" fill="#afafaf"/>
        <path id="Trazado_215010" data-name="Trazado 215010" d="M352.114,326.917v3.732l-.066.066-.206.188-.169.141c-1.688,1.332-8.843,5.692-31.2,6.892-26.491,1.416-44.139-7.108-44.139-7.108l1.332-3.648s-1.238-1.06-1.332-1.594.975-1.782.975-1.782-2.663-1.416-2.663-3.2c0-1.6,4.351-6.245,5.054-10.606a6.339,6.339,0,0,0,.1-1.388c-.178-4.689-4.229-8.843-4.792-11.506a.148.148,0,0,1-.009-.038c-.534-2.663,6.93-9.237,6.93-9.237-6.4-20.255-7.642-47.439-7.642-47.439l-1.238-1.425s-7.642,17.413-14.572,25.937-17.057,15.819-18.829,15.463c-4.088,0-8.655-7.108-12.8-15.876s-4.4-33.955-4.614-35.511-2.532-4.67-2.673-6c4.445,7.642,11.525,5.392,11.525,5.392-5.129.113-7.792-9.48-7.792-9.48l-.028-.066-.028-.066-2.5-6.611c.281.319,6.142,6.873,11.806,2.832,5.8-4.145,8.8-12.172,8.8-12.172v10.306s.347,1.6.881,1.6a125.8,125.8,0,0,1-2.569,16.213c-2.635,12.312-6.245,24.2-6.245,24.2s9.79-5.326,13.231-18.829a56.955,56.955,0,0,0,1.754-16.166,40.522,40.522,0,0,0-.788-6.761,1.49,1.49,0,0,0-.047-.2.332.332,0,0,0-.019-.094.4.4,0,0,0-.009-.047l.947,2.007,1.8,4.464c2.091,17.329-2.222,43.445-2.222,43.445,6.283-7.821,7.586-25.112,7.314-29.313-.122-2.007-.281-4.482-.384-6.508-.141-2.213-.234-3.892-.234-3.892l12.856,7.671-2.372-7.52,9.358,7.52S283,241.041,291.65,242.222s40.388.478,40.388.478-27.6,1.772-35.652,4.145-9.593,5.092-9.593,5.092c5.823,29.623,38.053,39.609,39.056,39.909C296.61,287.458,283,262.6,283,262.6s-.478,13.981,1.772,19.308,15.519,18.361,32.576,21.08a39.292,39.292,0,0,0,4.248.431c14.385.675,26.294-6.677,27.513-7.464a.874.874,0,0,1,.1-.066.489.489,0,0,1-.028.047c-.459.7-6.358,8.993-30.176,9.9-1.444.056-2.851.047-4.22-.009h-.019C292.7,304.9,281.457,290.2,281.457,290.2s-8.168,4.389-2.954,10.9c.056.066.113.141.169.206,1.538,1.772,4.923,3.938,8.927,6.17.113.066.225.131.328.188,4.839,2.673,10.512,5.429,14.9,7.708a.463.463,0,0,1,.066.028,55.548,55.548,0,0,1,6.114,3.5.009.009,0,0,1,.009.009c1.238.9,1.491,1.482.281,1.622-6.161.713-29.491-4.379-30.438-2.963s1.153,5.092,1.153,5.092c21.418,10.615,67.244,5.383,68.688,5.223-38.353,9.818-69.729-2.616-69.729-2.616l1.041,3.676a137.213,137.213,0,0,0,37.218,6.4c20.142.469,32.7-4.679,32.7-4.679Z" transform="translate(-214.108 -89.993)" fill="#afafaf"/>
        <path id="Trazado_215011" data-name="Trazado 215011" d="M344.182,245.223s15.255.829,25.335,3.495l-5.2,7.885A69.157,69.157,0,0,0,344.182,245.223Z" transform="translate(-221.869 -92.634)" opacity="0.5" fill="url(#linear-gradient-24)" style="mix-blend-mode: multiply;isolation: isolate"/>
        <path id="Trazado_215012" data-name="Trazado 215012" d="M356.91,290.062s-9.516,7.939-18.873,11.611a63.177,63.177,0,0,1-18.36,4.028s5.38,1.6,18.617-.533,17.766-9.3,17.766-9.3Z" transform="translate(-220.342 -95.427)" opacity="0.5" fill="url(#linear-gradient-24)" style="mix-blend-mode: multiply;isolation: isolate"/>
        <path id="Trazado_215013" data-name="Trazado 215013" d="M361.3,321.815v.009c-17.61,4.548-39.966-1.979-39.778-2.776s6.123.356,19.889-2.4c13.344-2.673,18.182-7.417,18.473-7.708-.113.806-1.95,2.579-2.476,4.51C357.047,314.735,359.541,318.786,361.3,321.815Z" transform="translate(-220.457 -96.603)" opacity="0.5" fill="url(#linear-gradient-24)" style="mix-blend-mode: multiply;isolation: isolate"/>
        <path id="Trazado_215014" data-name="Trazado 215014" d="M309.449,246.327c-15.041,1.528-19.092,5.72-19.092,5.72-4.229.535-13.728-10.3-13.728-10.3l-1.238-1.425s-7.642,17.413-14.572,25.937c-.825,1.013-1.7,2.016-2.6,2.982l.985-2.213s1.613-.769,2.082-9.237-3.554-21.08-3.582-22.8-.619-10.4-.619-10.4l12.856,7.671-2.372-7.521,9.358,7.521s3.667,5.514,12.922,10.109C298.581,246.721,308.371,246.374,309.449,246.327Z" transform="translate(-216.444 -91.35)" opacity="0.5" fill="url(#linear-gradient-27)" style="mix-blend-mode: multiply;isolation: isolate"/>
        <path id="Trazado_215015" data-name="Trazado 215015" d="M276.607,241.292l8.961-1.17a67.415,67.415,0,0,0,10.772,5.3l-5.995,8.84s2.378,12.6,9.2,19.7c0,0-18.118-10.064-20.665-18.525Z" transform="translate(-217.66 -92.317)" opacity="0.5" fill="url(#linear-gradient-27)" style="mix-blend-mode: multiply;isolation: isolate"/>
        <path id="Trazado_215016" data-name="Trazado 215016" d="M220.817,212.15l2.56,6.742s2.612,9.1,7.792,9.48,10.249-15.257,10.249-15.257V202.81s-5.512,11.818-11.465,13.151S220.817,212.15,220.817,212.15Z" transform="translate(-214.185 -89.993)" opacity="0.5" fill="url(#linear-gradient-27)" style="mix-blend-mode: multiply;isolation: isolate"/>
        <path id="Trazado_215017" data-name="Trazado 215017" d="M253.867,206.151s4.619,9.235,10.3,12.078c0,0-6.761-16.407-5.335-26.059C258.837,192.17,256.352,193.717,253.867,206.151Z" transform="translate(-216.244 -89.33)" opacity="0.5" fill="url(#linear-gradient-24)" style="mix-blend-mode: multiply;isolation: isolate"/>
        <path id="Trazado_215018" data-name="Trazado 215018" d="M373.367,221.67l1.594,5.148,1.618,42.244a101.9,101.9,0,0,1-6.972-19.514l1.494-2.3S373.607,231.328,373.367,221.67Z" transform="translate(-223.452 -91.167)" opacity="0.76" fill="url(#linear-gradient-7)" style="mix-blend-mode: multiply;isolation: isolate"/>
        <path id="Trazado_215019" data-name="Trazado 215019" d="M425.933,234.93s-.9,20.752,7.917,22.546l.438,2.22S422.878,259.271,425.933,234.93Z" transform="translate(-226.928 -91.993)" opacity="0.5" fill="url(#linear-gradient-7)" style="mix-blend-mode: multiply;isolation: isolate"/>
        <path id="Trazado_215020" data-name="Trazado 215020" d="M409.021,241.555s-.338.744-3.545-1.585c0,0-11.094,7.856-15.367,18.933,0,0,6.838-10.175,10.476-11.276s4.517,2.959,4.517,2.959S406.542,244.865,409.021,241.555Z" transform="translate(-224.729 -92.307)" opacity="0.3" fill="url(#linear-gradient-7)" style="mix-blend-mode: multiply;isolation: isolate"/>
        <path id="Trazado_215021" data-name="Trazado 215021" d="M219.566,224.32s4.268,7.867,12.264,5.4c0,0-4.791,3.23-9.591.6C222.238,230.321,219.258,225.208,219.566,224.32Z" transform="translate(-214.106 -91.332)" opacity="0.5" fill="url(#linear-gradient-34)" style="mix-blend-mode: multiply;isolation: isolate"/>
        <path id="Trazado_215022" data-name="Trazado 215022" d="M248.75,213.7s5.868,21.941-9.441,38.424a25.432,25.432,0,0,0,12.2-16.918A36.328,36.328,0,0,0,248.75,213.7Z" transform="translate(-215.337 -90.671)" opacity="0.5" fill="url(#linear-gradient-7)" style="mix-blend-mode: multiply;isolation: isolate"/>
        <path id="Trazado_215023" data-name="Trazado 215023" d="M360.217,195s-.661,9.9-5.408,17.011-14.164,11.9-14.164,11.9,11.815-4.353,17.234-10.483S360.217,195,360.217,195Z" transform="translate(-221.648 -89.506)" opacity="0.5" fill="url(#linear-gradient-27)" style="mix-blend-mode: multiply;isolation: isolate"/>
        <path id="Trazado_215024" data-name="Trazado 215024" d="M296.93,179.106a62.61,62.61,0,0,0,2.666,16.721c2.665,8.44,25.8,23.187,25.8,23.187s-23.843-9.9-28.464-18.811S296.93,179.106,296.93,179.106Z" transform="translate(-218.798 -88.517)" opacity="0.5" fill="url(#linear-gradient-27)" style="mix-blend-mode: multiply;isolation: isolate"/>
        <path id="Trazado_215025" data-name="Trazado 215025" d="M296.778,221.165v13.488s31.048-.25,65.863,2.055l.794-12.14A606.968,606.968,0,0,0,296.778,221.165Z" transform="translate(-218.916 -91.135)" fill="#fff59d"/>
        <g id="Grupo_142680" data-name="Grupo 142680" transform="translate(83.375 132.77)">
          <path id="Trazado_215026" data-name="Trazado 215026" d="M302.9,224.424c.007-.23.117-.342.333-.336l6.29.19a4.708,4.708,0,0,1,1.582.285,2.639,2.639,0,0,1,1.041.7,2.6,2.6,0,0,1,.555,1.065,4.841,4.841,0,0,1,.143,1.383l-.053,1.727a4.791,4.791,0,0,1-.225,1.371,2.591,2.591,0,0,1-.619,1.031,2.655,2.655,0,0,1-1.081.637,4.738,4.738,0,0,1-1.6.188l-3.386-.1-.7-1.98-.092,0-.059,1.958-2.373-.073Zm2.2,5.935,4.02.123a1.3,1.3,0,0,0,.977-.27,1.52,1.52,0,0,0,.32-1.051l.043-1.406a1.494,1.494,0,0,0-.255-1.075,1.363,1.363,0,0,0-.959-.311l-3.848-.117a.165.165,0,0,0-.129.049.172.172,0,0,0-.049.119Z" transform="translate(-302.657 -224.088)" fill="#ebefff"/>
          <path id="Trazado_215027" data-name="Trazado 215027" d="M316.979,228.045l-.081,0-.076,2.511a.143.143,0,0,0,.157.166l7.073.215-.066,2.176-9.274-.28a.3.3,0,0,1-.323-.355l.233-7.7a.3.3,0,0,1,.344-.335l9.009.274a.306.306,0,0,1,.336.355l-.067,2.177-2.225.751-.093,0,.034-1.117c0-.084-.034-.128-.111-.13l-4.758-.144a.124.124,0,0,0-.122.048.215.215,0,0,0-.032.109l-.032,1.048,3.917.118-.052,1.706-3.284-.1Z" transform="translate(-303.388 -224.11)" fill="#ebefff"/>
          <path id="Trazado_215028" data-name="Trazado 215028" d="M333.4,227.913l-.093,0,.028-.922a.122.122,0,0,0-.133-.143l-4.424-.135a.442.442,0,0,0-.338.094.432.432,0,0,0-.1.3l-.007.208a.416.416,0,0,0,.07.313.666.666,0,0,0,.309.113l5.185.883a3.489,3.489,0,0,1,.836.239,1.6,1.6,0,0,1,.553.4,1.348,1.348,0,0,1,.293.592,3.165,3.165,0,0,1,.068.821l-.021.668a2.992,2.992,0,0,1-.155.911,1.548,1.548,0,0,1-.435.656,1.824,1.824,0,0,1-.773.386,4.235,4.235,0,0,1-1.167.1l-7.465-.227.067-2.177,6.692.2a.541.541,0,0,0,.4-.1.586.586,0,0,0,.109-.383l.007-.231a.474.474,0,0,0-.065-.308.46.46,0,0,0-.291-.119l-5-.786a3.97,3.97,0,0,1-.864-.233,1.668,1.668,0,0,1-.582-.386,1.333,1.333,0,0,1-.316-.575,2.712,2.712,0,0,1-.08-.8l.018-.588a1.951,1.951,0,0,1,.526-1.4,2.183,2.183,0,0,1,1.629-.452l7.453.227a.321.321,0,0,1,.346.379l-.053,1.728Z" transform="translate(-304.088 -224.134)" fill="#ebefff"/>
          <path id="Trazado_215029" data-name="Trazado 215029" d="M337.276,233.514l.255-8.386,2.373.072-.254,8.386Z" transform="translate(-304.813 -224.153)" fill="#ebefff"/>
          <path id="Trazado_215030" data-name="Trazado 215030" d="M348.685,230.27c0-.123,0-.251-.007-.386s-.016-.252-.029-.353l0-.1,2.35.071-.125,4.113c-.007.216-.106.32-.3.314l-6.313-.191a4.741,4.741,0,0,1-1.583-.285,2.639,2.639,0,0,1-1.04-.7,2.59,2.59,0,0,1-.555-1.066,4.8,4.8,0,0,1-.143-1.381l.053-1.728a4.831,4.831,0,0,1,.226-1.372,2.6,2.6,0,0,1,.619-1.03,2.639,2.639,0,0,1,1.081-.636,4.711,4.711,0,0,1,1.6-.188l6.277.19a.3.3,0,0,1,.324.355l-.055,1.809-2.225.74-.092,0,.024-.806c0-.077-.03-.116-.1-.118l-4.008-.122a2.338,2.338,0,0,0-.583.046.814.814,0,0,0-.394.207.927.927,0,0,0-.231.408,2.545,2.545,0,0,0-.09.638l-.044,1.474a1.53,1.53,0,0,0,.256,1.069,1.305,1.305,0,0,0,.959.329l3.975.12c.083,0,.127-.041.129-.134Z" transform="translate(-305.042 -224.166)" fill="#ebefff"/>
          <path id="Trazado_215031" data-name="Trazado 215031" d="M356.749,225.712a.664.664,0,0,1,.372.092.758.758,0,0,1,.193.26l3,6.121a.243.243,0,0,0,.215.144l.127,0a.164.164,0,0,0,.19-.179l.191-6.313,2.154.066-.245,8.053q-.01.333-.333.323l-3.41-.1a.74.74,0,0,1-.359-.08.631.631,0,0,1-.218-.272l-3.112-6.114a.23.23,0,0,0-.214-.144l-.115,0a.164.164,0,0,0-.19.179l-.191,6.3-2.154-.066.244-8.041c.007-.23.117-.342.333-.336Z" transform="translate(-305.77 -224.182)" fill="#ebefff"/>
        </g>
        <path id="Trazado_215032" data-name="Trazado 215032" d="M346.286,180.187c-.731,8.721-3.385,14.8-6.217,18.9-3.9,5.626-8.121,7.549-8.121,7.549a48.722,48.722,0,0,1-11.028-6.648,56.232,56.232,0,0,1-18.014-26.725A62.106,62.106,0,0,0,323.124,199.8a40.582,40.582,0,0,0,8.824,5.176v-4.36a28.963,28.963,0,0,1-2.907-1.275c-11.065-5.579-16.879-17.207-19.6-24.728-.009-.019-.009-.028-.019-.047a53.424,53.424,0,0,1-2.044-6.93h2.007l-.656,1.407-.028.047c.319,1.425.685,2.794,1.1,4.1a.337.337,0,0,0,.038.1c6.189,19.523,22.111,25.815,22.111,25.815,11.065-8.168,10.849-21.136,10.849-21.136v-1.782l2.072.619Z" transform="translate(-219.298 -87.802)" opacity="0.5" fill="url(#linear-gradient-11)" style="mix-blend-mode: multiply;isolation: isolate"/>
        <path id="Trazado_215033" data-name="Trazado 215033" d="M419.077,231.557s-3.008,9.825-.165,25.1c0,0,1.422-19.366,2.487-21.054s4.053-.887,4.053-.887A69.45,69.45,0,0,0,419.077,231.557Z" transform="translate(-226.447 -91.783)" opacity="0.3" fill="url(#linear-gradient-7)" style="mix-blend-mode: multiply;isolation: isolate"/>
        <path id="Trazado_215034" data-name="Trazado 215034" d="M386.9,283.481c-2.626-2.3-5.776-6.133-8.918-12.415-6.283-12.556-8.083-20.939-8.374-22.4l1.491-2.3,2-19.317,1.866-1.116a79.03,79.03,0,0,0,11.731-18.473,5.252,5.252,0,0,1,.253.806v.009c1.022,4.013,3.123,19.045,5.073,24.409a12.281,12.281,0,0,0,4.557,6.151s-11.543,17.123-12.106,29.341C383.973,279.3,386.448,282.918,386.9,283.481Z" transform="translate(-223.452 -90.282)" opacity="0.5" fill="url(#linear-gradient-7)" style="mix-blend-mode: multiply;isolation: isolate"/>
        <path id="Trazado_215035" data-name="Trazado 215035" d="M312.7,325.163s-20.808-3.413-29.3-8.89a.009.009,0,0,1-.009-.009,6.339,6.339,0,0,0,.1-1.388c-.178-4.689-4.229-8.843-4.792-11.506.094.253.7,1.66,3.657,4.192a62.774,62.774,0,0,0,8.927,6.17c.113.066.225.131.328.188,6,3.545,11.168,5.945,14.9,7.708a.46.46,0,0,1,.066.028c3.357,1.575,5.533,2.616,6.114,3.5A.009.009,0,0,1,312.7,325.163Z" transform="translate(-217.79 -96.256)" opacity="0.5" fill="url(#linear-gradient-7)" style="mix-blend-mode: multiply;isolation: isolate"/>
        <path id="Trazado_215036" data-name="Trazado 215036" d="M359.879,308.94c-.113.806-1.95,2.579-2.476,4.51,0,0-7.633,8.083-35.887,5.6.188-.8,6.123.356,19.889-2.4C354.75,313.976,359.588,309.231,359.879,308.94Z" transform="translate(-220.457 -96.603)" opacity="0.5" fill="url(#linear-gradient-7)" style="mix-blend-mode: multiply;isolation: isolate"/>
        <g id="Grupo_142681" data-name="Grupo 142681" transform="translate(86.571)">
          <path id="Trazado_215037" data-name="Trazado 215037" d="M350.42,169.958a29.416,29.416,0,0,1-17.714-2.607c-9.293-4.5-17.1-17.77-17.582-21.08s3.554-11.965,3.554-18.717-3.31-18.361,2.25-24.643,31.151-7.22,39.45.835c0,0,2.569,6.452,2.569,10.1a26.574,26.574,0,0,1-.394,3.666c-.075.553-.178,1.144-.272,1.754-.741,4.417-1.763,9.809-1.285,12.172a11.849,11.849,0,0,0,.741,2.307v.009c1.022,2.363,2.541,4.248,2.813,6.292C364.908,142.717,361.326,161.668,350.42,169.958Z" transform="translate(-306.628 -83.463)" fill="url(#linear-gradient-15)"/>
          <path id="Trazado_215038" data-name="Trazado 215038" d="M318.048,127.1s-2.3-5.764-8.073-5.853c0,0-3.376,1.332-3.909,3.909,0,0,1.244,9.327,2.666,13.68s6.633,3.724,6.633,3.724A22.1,22.1,0,0,0,318.048,127.1Z" transform="translate(-306.066 -84.913)" fill="url(#linear-gradient-15)"/>
          <path id="Trazado_215039" data-name="Trazado 215039" d="M342.511,147.692a5.257,5.257,0,0,1,2.751.472c.83.622,3.85,3.554,7.67,4.353s6.382-2.453,7.2-2.62,1.709.985,1.709.985a3.21,3.21,0,0,0-2.341-1.935s-.805,3.064-6.342,2.015-7.892-3.509-7.892-3.509l-.281-.5A14.658,14.658,0,0,0,342.511,147.692Z" transform="translate(-308.336 -86.514)" fill="url(#linear-gradient-45)"/>
          <path id="Trazado_215040" data-name="Trazado 215040" d="M332.9,116.023l.075-.592s5.523-9.692,16.45-9.959,13.4,6.581,13.4,6.581l2.023-3.073-4.611-9.372-32.1-.533-7.818,6.307-.988,15.441,3.475,20.385,8.457,4.507,2.387-2.117c-.881-6.826-5.958-13.062-5.958-13.062l3.7-2.569s9.506,4.6,15,3.224c0,0,4.131-12.057,3.894-20.99C350.274,110.2,336.193,112.284,332.9,116.023Z" transform="translate(-306.891 -83.532)" opacity="0.6" fill="url(#linear-gradient-16)" style="mix-blend-mode: multiply;isolation: isolate"/>
          <path id="Trazado_215041" data-name="Trazado 215041" d="M333.276,117.4s.532-3.491,6.426-4.888c6.563-1.555,11.9-2.871,11.9-2.871s-1.162,3.829-3.35,5.264c0,0-6.946-.252-10.46.548S333.276,117.4,333.276,117.4Z" transform="translate(-307.761 -84.19)" fill="#1b3f5e"/>
          <path id="Trazado_215042" data-name="Trazado 215042" d="M365.333,112.915s-3.333,2.569-5.6,8.7c0,0,2.176-2.843,4.175-2.8a1.142,1.142,0,0,1,1.151,1.384A12.806,12.806,0,0,0,365.333,112.915Z" transform="translate(-309.408 -84.394)" fill="#1b3f5e"/>
          <path id="Trazado_215043" data-name="Trazado 215043" d="M335.624,127.83s.355-7.373,7.551-9.238a15.083,15.083,0,0,1,2.843,7.107S342.2,124.988,335.624,127.83Z" transform="translate(-307.907 -84.748)" fill="url(#linear-gradient-47)"/>
          <path id="Trazado_215044" data-name="Trazado 215044" d="M357.6,131.037s.582-5.87,3.953-8.04c0,0,2.3,1.722,2.059,6.635C363.616,129.632,361.6,128.9,357.6,131.037Z" transform="translate(-309.276 -85.022)" fill="url(#linear-gradient-48)"/>
          <path id="Trazado_215045" data-name="Trazado 215045" d="M335.624,128.3s2.34,2.872,8.884,3.435a10.22,10.22,0,0,0,1.127-5.612S339.622,125.542,335.624,128.3Z" transform="translate(-307.907 -85.213)" fill="#ffebed"/>
          <path id="Trazado_215046" data-name="Trazado 215046" d="M357.6,131.47v.858s1.007,2.1,4.62,2.458a10.069,10.069,0,0,0,1.262-4.756S361.186,129.456,357.6,131.47Z" transform="translate(-309.276 -85.455)" fill="#ffebed"/>
          <path id="Trazado_215047" data-name="Trazado 215047" d="M342.984,125.953a8.109,8.109,0,0,0-1.511,5.2,24.721,24.721,0,0,0,3.4.564A8.832,8.832,0,0,0,346,126.106,9.079,9.079,0,0,0,342.984,125.953Z" transform="translate(-308.271 -85.201)" fill="#7f9ec9"/>
          <path id="Trazado_215048" data-name="Trazado 215048" d="M361.186,130.128s-.941,1.005-1.12,4.093a7.1,7.1,0,0,0,2.311.562,8.568,8.568,0,0,0,1.262-4.756A4.136,4.136,0,0,0,361.186,130.128Z" transform="translate(-309.429 -85.452)" fill="#7f9ec9"/>
          <path id="Trazado_215049" data-name="Trazado 215049" d="M342.506,131.376s-.594-3.983,1.686-5.507l1.867.237a8.029,8.029,0,0,1-1.127,5.612S343.077,131.508,342.506,131.376Z" transform="translate(-308.331 -85.201)" fill="#1b3f5e"/>
          <path id="Trazado_215050" data-name="Trazado 215050" d="M362.057,129.951a17.1,17.1,0,0,0-1.238,4.529,5.158,5.158,0,0,0,1.6.3,7.781,7.781,0,0,0,1.262-4.756A3.842,3.842,0,0,0,362.057,129.951Z" transform="translate(-309.476 -85.451)" fill="#1b3f5e"/>
          <path id="Trazado_215051" data-name="Trazado 215051" d="M335.624,128.279s4.353-2.532,11.771-1.088l-1.377-1.044A12.406,12.406,0,0,0,335.624,128.279Z" transform="translate(-307.907 -85.196)" fill="#131163"/>
          <path id="Trazado_215052" data-name="Trazado 215052" d="M357.6,131.429a11.75,11.75,0,0,1,7.561-.873l-1.677-1.242S360.757,128.9,357.6,131.429Z" transform="translate(-309.276 -85.414)" fill="#131163"/>
          <path id="Trazado_215053" data-name="Trazado 215053" d="M340.645,128.442a2.577,2.577,0,0,1,2.251.818A2.051,2.051,0,0,1,340.645,128.442Z" transform="translate(-308.22 -85.36)" fill="#fff"/>
          <path id="Trazado_215054" data-name="Trazado 215054" d="M359.309,132.1s1.856-.36,2.5.487C361.806,132.589,360.813,133.271,359.309,132.1Z" transform="translate(-309.382 -85.584)" fill="#fff"/>
          <path id="Trazado_215055" data-name="Trazado 215055" d="M336.091,128.9a17.053,17.053,0,0,0,8.8,4.145l.14-1.973-.5.833S339.327,131.6,336.091,128.9Z" transform="translate(-307.936 -85.39)" fill="#c6659c"/>
          <path id="Trazado_215056" data-name="Trazado 215056" d="M357.6,132.486s.6,2.162,5.009,3.14l-.142-1.059-.248.377S359.091,134.544,357.6,132.486Z" transform="translate(-309.276 -85.613)" fill="#c6659c"/>
          <path id="Trazado_215057" data-name="Trazado 215057" d="M348.177,141.7a15.7,15.7,0,0,1,4.664,0c3.02.355,6.416,1.185,8.272,0,0,0-2.465,2.468-4.6,2.843s-5.389-1.5-5.389-1.5l-1.422.024A3.866,3.866,0,0,1,348.177,141.7Z" transform="translate(-308.689 -86.177)" fill="#cb5f7d"/>
          <path id="Trazado_215058" data-name="Trazado 215058" d="M350.025,143.137a2.264,2.264,0,0,1,1.362-.357c.622.118,1.255,1.024,1.255,1.024A6.2,6.2,0,0,0,350.025,143.137Z" transform="translate(-308.804 -86.253)" fill="#9f4a8b"/>
          <path id="Trazado_215059" data-name="Trazado 215059" d="M361.371,141.154c.79-.77-3.3-8.048-5.251-8.318s-3.79,8.16-3.79,8.16,2.718.381,5.354.734S361.371,141.154,361.371,141.154Z" transform="translate(-308.947 -85.634)" fill="#ffbcaf"/>
          <path id="Trazado_215060" data-name="Trazado 215060" d="M361.716,146.368c-1.247-2.607-.478-3.967-11.309-5.383-15.332-2.016-16.644,2.663-19.251,1.95a2.506,2.506,0,0,1-.31-.113c-2.823-1.1-9.471-7.633-9.64-16.438-.178-9.152,5.955-15.641,5.955-15.641-2.222-1.866-3.113-7.277-.713-9.593s6.489-1.772,16.523-.713,10.043.45,10.043.45c3.188.816,5.017,3.807,5.533,4.764.1.188.15.3.15.3l1.247-1.153a16.331,16.331,0,0,1,2.757,10.212s5.5-11.2,4.876-12.781a42.562,42.562,0,0,0-4.52-7.464l-.009-.009s-.891-8.524-3.554-8.524S345.456,88.8,345.456,88.8a16.153,16.153,0,0,0,1.069-6.3l-.047.047c-3.713,3.329-7.342,3.695-12.481,6.076a13.005,13.005,0,0,0-4.81,3.488l-.347.413-.366.441c-.356.45-.722.91-1.163,1.378a.306.306,0,0,1-.056.056l-.028.028a14.708,14.708,0,0,1-1.491,1.4c-3.376,2.748-10.8,4.585-11.693,7.492s1.125,6.864,2.194,10.953a22.253,22.253,0,0,1,.572,7.7,15.121,15.121,0,0,1,2.363,11.225c-1.041,5.973-3.32,6.949-3.32,6.949a10.229,10.229,0,0,0-.844,6.367c3.282,13.053,16.86,20.827,16.86,20.827,12.078,4.5,20.02,2.541,20.02,2.541l.009-.009c8.786-5.729,11.8-24.69,11.928-25.572C363.676,144.53,362.044,147.062,361.716,146.368Zm-5.42,12.087c-2.129-.356-2.579-5.748-3.282-6.461s-4.567-.413-4.567-.413-3.554,4.032-4.97,4.145-9-2.963-7.361-7.577,7.361-5.214,7.361-5.214a13.881,13.881,0,0,0,7.4,2.776c4.445.291,6.048-.525,6.573-.76s3.395,1.06,3.32,5.092C360.722,152.848,358.434,158.812,356.3,158.455Z" transform="translate(-306.549 -82.5)" fill="#1b3f5e"/>
          <path id="Trazado_215061" data-name="Trazado 215061" d="M358.437,134.563s3.829,4.754,3.464,6.542c-.4,1.957-4.835,3-4.835,3s3.556-1.227,4.284-3A23.6,23.6,0,0,0,358.437,134.563Z" transform="translate(-309.242 -85.742)" fill="#d2726c"/>
          <path id="Trazado_215062" data-name="Trazado 215062" d="M365.764,115.825a16.331,16.331,0,0,0-2.757-10.212,27.281,27.281,0,0,0,3.1-10.043l.009.009a34.421,34.421,0,0,1,1.444,6.658l3.076.806C371.268,104.628,365.764,115.825,365.764,115.825Z" transform="translate(-309.612 -83.314)" opacity="0.6" fill="url(#linear-gradient-49)" style="mix-blend-mode: multiply;isolation: isolate"/>
          <path id="Trazado_215063" data-name="Trazado 215063" d="M358.547,105.652c-.516-.956-2.344-3.948-5.533-4.764,0,0,0,.619-10.043-.45s-14.122-1.594-16.523.713-1.51,7.727.713,9.593c0,0-6.133,6.489-5.955,15.641.169,8.805,6.817,15.341,9.64,16.438l-.131.975s.5,20.161,5.4,21.765,15.06.769,16.007,1.716c.9.9-.131,2.447-.225,2.588l-.009.009s-7.942,1.96-20.02-2.541c0,0-13.578-7.774-16.86-20.827a10.229,10.229,0,0,1,.844-6.367s2.279-.975,3.32-6.949a15.121,15.121,0,0,0-2.363-11.225,22.253,22.253,0,0,0-.572-7.7c-1.069-4.088-3.085-8.055-2.194-10.953a12.787,12.787,0,0,0,9.415-2.072s.994-1.378,5.392-2.091,22.074,1.069,22.074,1.069a15.187,15.187,0,0,0-5.5-2.447c-3.526-.928-15.566.15-16.86.253,1.378-.244,15.032-2.588,16.588-2.119,1.65.488,7.558,3.2,7.558,3.2-.534-2.71-5.823-9.237-5.823-9.237a82.966,82.966,0,0,0-12.35,1.153,15.975,15.975,0,0,0-7.22,3.32l1.163-1.378.366-.441.347-.413,1.707-.291,8.571-3.46c2.879-1.538,6.564-5.345,7.014-5.814l.047-.047a16.153,16.153,0,0,1-1.069,6.3c7.239-.891,9.687-.441,9.687-.441C358.434,93.021,358.547,105.652,358.547,105.652Z" transform="translate(-306.549 -82.5)" fill="#1b3f5e"/>
          <path id="Trazado_215064" data-name="Trazado 215064" d="M333.067,172.915a45.138,45.138,0,0,1,11.135-.783c6.7.27,10.546.3,8.885,3.324C353.087,175.456,344.675,177.355,333.067,172.915Z" transform="translate(-307.748 -88.079)" opacity="0.5" fill="url(#linear-gradient-50)" style="mix-blend-mode: multiply;isolation: isolate"/>
          <path id="Trazado_215065" data-name="Trazado 215065" d="M357.244,88.593s4.072-1.589,5.679-1.328a3.142,3.142,0,0,0-1.3-1.027c-.666-.177-14.062,2.8-14.062,2.8S355.91,88.06,357.244,88.593Z" transform="translate(-308.65 -82.732)" fill="#1b3f5e"/>
          <path id="Trazado_215066" data-name="Trazado 215066" d="M347.537,90.351s-.32,4.433-1.735,6.039L329.214,98.51l-4.87-.859a12.238,12.238,0,0,0,3.954-3.22C330.37,92.014,341.185,89.64,347.537,90.351Z" transform="translate(-307.204 -82.981)" fill="#1b3f5e"/>
          <path id="Trazado_215067" data-name="Trazado 215067" d="M366.317,95.57a37.341,37.341,0,0,1,1.454,6.667l3.076.806A22.1,22.1,0,0,0,366.317,95.57Z" transform="translate(-309.818 -83.314)" fill="#1b3f5e"/>
          <path id="Trazado_215068" data-name="Trazado 215068" d="M317.44,135.144s-1.167-5.6-4.026-8.365A6.723,6.723,0,0,0,307.3,124.9s.888,10.38,1.821,12.911a5.555,5.555,0,0,0,2.355,3.2,7.986,7.986,0,0,1-2.266-5.184c-.266-3.433-.355-8.275.4-8.852s3.807,1.674,3.807,1.674a10.147,10.147,0,0,0-1.542,4.24c-.578,3.058,1.555,5.279,2.354,5.234s-.044-3.538.089-4.545S316.226,132.79,317.44,135.144Z" transform="translate(-306.143 -85.132)" opacity="0.8" fill="url(#linear-gradient-51)" style="mix-blend-mode: multiply;isolation: isolate"/>
          <path id="Trazado_215069" data-name="Trazado 215069" d="M314.884,128.415a6.989,6.989,0,0,0-2.784,6.258c.337,4.208,2.741,4.023,2.749,3.14s-.459-3.157-.214-4.443,2.319-.7,2.319-.7A30.875,30.875,0,0,0,314.884,128.415Z" transform="translate(-306.44 -85.36)" opacity="0.8" fill="url(#linear-gradient-52)" style="mix-blend-mode: multiply;isolation: isolate"/>
          <path id="Trazado_215070" data-name="Trazado 215070" d="M366.354,148.4s-3.879,17.7-11.937,25.581C354.417,173.981,363.607,170.369,366.354,148.4Z" transform="translate(-309.077 -86.604)" fill="#1b3f5e"/>
          <path id="Trazado_215071" data-name="Trazado 215071" d="M362.553,86.239s2.047,1.59,2.436,7.122-2.01,11.671-2.01,11.671a22.208,22.208,0,0,0,3.372-9.628C366.647,90.37,364.174,86.876,362.553,86.239Z" transform="translate(-309.584 -82.733)" fill="#1b3f5e"/>
        </g>
        <path id="Trazado_215072" data-name="Trazado 215072" d="M336.12,98.571a47.834,47.834,0,0,0,9.93,2.073c5.194.459,6.262.563,6.262.563a12.158,12.158,0,0,0-6.534-2.636A45.069,45.069,0,0,0,336.12,98.571Z" transform="translate(-221.366 -83.484)" fill="#1b3f5e"/>
        <path id="Trazado_215073" data-name="Trazado 215073" d="M360.519,148.677a3.572,3.572,0,0,1,3.157,2.842,23.641,23.641,0,0,1,.907,4.22l.8-3.116s-1.046-3.946-2.134-4.835a4.473,4.473,0,0,0-2.777-1.133Z" transform="translate(-222.883 -86.494)" fill="#1b3f5e"/>
        <path id="Trazado_215074" data-name="Trazado 215074" d="M354.009,145.781l.383,3.376a12.05,12.05,0,0,0,4.587-.533l.326-2.043A25.529,25.529,0,0,0,354.009,145.781Z" transform="translate(-222.481 -86.441)" fill="#1b3f5e"/>
        <path id="Trazado_215075" data-name="Trazado 215075" d="M363.857,262.353s-7.787,33.328-7.433,35.581,5.395,6.844,5.629,8.1c0,0-3.852,5.159-3.674,6.3s6.75,8.369,6.573,10.6c-.052.649-4.315,7.685-4.315,7.685s4.819-6.916,5.056-8.018-5.9-10.339-6.085-11.278c-.467-2.43,3.064-4.217,3.183-5.816s-4.778-5.505-4.817-8.112S363.857,262.353,363.857,262.353Z" transform="translate(-222.63 -93.701)" fill="#34c7ff"/>
        <path id="Trazado_215076" data-name="Trazado 215076" d="M366.037,347.08s16.832,38.1,22.573,76.209C388.61,423.289,387.651,386.1,366.037,347.08Z" transform="translate(-223.23 -98.978)" fill="#34c7ff"/>
        <path id="Trazado_215077" data-name="Trazado 215077" d="M251.751,183.218s-4.356-.931-6.162-4.73-.627-9.3-.627-9.3a95.752,95.752,0,0,0,5.108,8.774C251.768,180.2,252.225,182.744,251.751,183.218Z" transform="translate(-215.666 -87.899)" fill="#ffbcaf"/>
      </g>
      <path id="Trazado_215078" data-name="Trazado 215078" d="M395.535,162.462l3.019,86.078a6.342,6.342,0,0,0,6.339,6.12H553.177a6.343,6.343,0,0,0,6.341-6.192l2.075-87.085a6.343,6.343,0,0,0-6.383-6.494L401.832,155.9A6.342,6.342,0,0,0,395.535,162.462Z" transform="translate(-18.798 -9.357)" fill="#1b3f5e"/>
      <g id="Grupo_142683" data-name="Grupo 142683" transform="translate(376.498 145.299)">
        <path id="Trazado_215079" data-name="Trazado 215079" d="M553.16,254.88H404.878a6.554,6.554,0,0,1-6.573-6.347l-3.019-86.078a6.577,6.577,0,0,1,6.529-6.808l153.378-1.006a6.619,6.619,0,0,1,4.734,1.966,6.523,6.523,0,0,1,1.885,4.767l-2.075,87.084A6.539,6.539,0,0,1,553.16,254.88Zm2.077-99.771H555.2l-153.378,1.006a6.109,6.109,0,0,0-6.064,6.323l3.02,86.078a6.086,6.086,0,0,0,6.1,5.895H553.16a6.146,6.146,0,0,0,6.107-5.963l2.075-87.085a6.108,6.108,0,0,0-6.106-6.254Z" transform="translate(-395.281 -154.64)" fill="#744ca2"/>
      </g>
      <path id="Trazado_215080" data-name="Trazado 215080" d="M395.765,166.85H561.427l.265-4.54a6.951,6.951,0,0,0-6.993-7.358l-153.319,1.212a5.752,5.752,0,0,0-5.705,5.86Z" transform="translate(-18.807 -9.361)" opacity="0.6" fill="url(#linear-gradient-53)" style="mix-blend-mode: multiply;isolation: isolate"/>
      <path id="Trazado_215081" data-name="Trazado 215081" d="M404.653,175.028v49.815h50.708V174.767Z" transform="translate(-19.366 -10.595)" opacity="0.3" fill="url(#linear-gradient-54)" style="mix-blend-mode: multiply;isolation: isolate"/>
      <rect id="Rectángulo_42124" data-name="Rectángulo 42124" width="22.058" height="22.058" transform="translate(485 167.776)" opacity="0.3" fill="url(#linear-gradient-54)" style="mix-blend-mode: multiply;isolation: isolate"/>
      <rect id="Rectángulo_42125" data-name="Rectángulo 42125" width="22.058" height="22.058" transform="translate(511.025 167.776)" opacity="0.3" fill="url(#linear-gradient-54)" style="mix-blend-mode: multiply;isolation: isolate"/>
      <rect id="Rectángulo_42126" data-name="Rectángulo 42126" width="22.058" height="22.058" transform="translate(458.54 167.776)" opacity="0.3" fill="url(#linear-gradient-54)" style="mix-blend-mode: multiply;isolation: isolate"/>
      <rect id="Rectángulo_42127" data-name="Rectángulo 42127" width="56.407" height="5.284" transform="translate(476.675 202.695)" fill="#d1d4fb" style="mix-blend-mode: multiply;isolation: isolate"/>
      <rect id="Rectángulo_42128" data-name="Rectángulo 42128" width="70.515" height="1.635" transform="translate(462.568 210.736)" fill="#d1d4fb" style="mix-blend-mode: multiply;isolation: isolate"/>
      <rect id="Rectángulo_42129" data-name="Rectángulo 42129" width="13.49" height="1.635" transform="translate(463.232 192.647)" fill="#d1d4fb" style="mix-blend-mode: multiply;isolation: isolate"/>
      <rect id="Rectángulo_42130" data-name="Rectángulo 42130" width="13.49" height="1.635" transform="translate(489.284 192.647)" fill="#d1d4fb" style="mix-blend-mode: multiply;isolation: isolate"/>
      <rect id="Rectángulo_42131" data-name="Rectángulo 42131" width="13.49" height="1.635" transform="translate(515.309 192.647)" fill="#d1d4fb" style="mix-blend-mode: multiply;isolation: isolate"/>
      <rect id="Rectángulo_42132" data-name="Rectángulo 42132" width="22.683" height="1.635" transform="translate(458.54 213.393)" fill="#d1d4fb" style="mix-blend-mode: multiply;isolation: isolate"/>
      <rect id="Rectángulo_42133" data-name="Rectángulo 42133" width="70.515" height="1.635" transform="translate(462.568 216.019)" fill="#d1d4fb" style="mix-blend-mode: multiply;isolation: isolate"/>
      <rect id="Rectángulo_42134" data-name="Rectángulo 42134" width="74.543" height="1.635" transform="translate(458.54 218.646)" fill="#d1d4fb" style="mix-blend-mode: multiply;isolation: isolate"/>
      <rect id="Rectángulo_42135" data-name="Rectángulo 42135" width="74.543" height="1.635" transform="translate(458.54 221.272)" fill="#d1d4fb" style="mix-blend-mode: multiply;isolation: isolate"/>
      <rect id="Rectángulo_42136" data-name="Rectángulo 42136" width="70.515" height="1.635" transform="translate(462.568 231.89)" fill="#d1d4fb" style="mix-blend-mode: multiply;isolation: isolate"/>
      <rect id="Rectángulo_42137" data-name="Rectángulo 42137" width="74.543" height="1.635" transform="translate(458.54 234.517)" fill="#d1d4fb" style="mix-blend-mode: multiply;isolation: isolate"/>
      <rect id="Rectángulo_42138" data-name="Rectángulo 42138" width="74.543" height="1.635" transform="translate(458.54 237.143)" fill="#d1d4fb" style="mix-blend-mode: multiply;isolation: isolate"/>
      <rect id="Rectángulo_42139" data-name="Rectángulo 42139" width="71.544" height="1.635" transform="translate(458.54 223.899)" fill="#d1d4fb" style="mix-blend-mode: multiply;isolation: isolate"/>
      <rect id="Rectángulo_42140" data-name="Rectángulo 42140" width="70.515" height="1.635" transform="translate(462.568 226.525)" fill="#d1d4fb" style="mix-blend-mode: multiply;isolation: isolate"/>
      <rect id="Rectángulo_42141" data-name="Rectángulo 42141" width="60.395" height="1.635" transform="translate(458.54 229.152)" fill="#d1d4fb" style="mix-blend-mode: multiply;isolation: isolate"/>
      <g id="Grupo_142684" data-name="Grupo 142684" transform="translate(385.068 175.408)" style="mix-blend-mode: soft-light;isolation: isolate">
        <path id="Trazado_215082" data-name="Trazado 215082" d="M418.846,215.6a14.426,14.426,0,1,1,14.425-14.426A14.442,14.442,0,0,1,418.846,215.6Zm0-27.914a13.488,13.488,0,1,0,13.487,13.488A13.5,13.5,0,0,0,418.846,187.687Z" transform="translate(-404.42 -186.749)" fill="#e0ffff"/>
      </g>
      <circle id="Elipse_5460" data-name="Elipse 5460" cx="7.84" cy="7.84" r="7.84" transform="translate(391.654 181.994)" fill="#fff"/>
      <g id="Grupo_142685" data-name="Grupo 142685" transform="translate(421.57 149.746)" style="mix-blend-mode: soft-light;isolation: isolate">
        <path id="Trazado_215083" data-name="Trazado 215083" d="M457.771,188.234A14.425,14.425,0,1,1,472.2,173.809,14.442,14.442,0,0,1,457.771,188.234Zm0-27.913a13.488,13.488,0,1,0,13.487,13.488A13.5,13.5,0,0,0,457.771,160.321Z" transform="translate(-443.346 -159.383)" fill="#e0ffff"/>
      </g>
      <circle id="Elipse_5461" data-name="Elipse 5461" cx="7.377" cy="7.377" r="7.377" transform="translate(427.561 170.313) rotate(-81.057)" fill="#fff"/>
      <g id="Grupo_142686" data-name="Grupo 142686" transform="translate(382.762 149.131)" style="mix-blend-mode: soft-light;isolation: isolate">
        <path id="Trazado_215084" data-name="Trazado 215084" d="M401.96,160.324l1.054-1.6,5.7,5-.874,1.218Z" transform="translate(-401.96 -158.726)" fill="#fff"/>
        <path id="Trazado_215085" data-name="Trazado 215085" d="M408.87,160.324l-1.054-1.6-5.7,5,.874,1.218Z" transform="translate(-401.97 -158.726)" fill="#fff"/>
      </g>
      <rect id="Rectángulo_42142" data-name="Rectángulo 42142" width="51.051" height="2.559" transform="translate(487.56 150.216)" fill="#fff"/>
      <g id="Grupo_142687" data-name="Grupo 142687" transform="translate(218.91 112.549)">
        <path id="Trazado_215086" data-name="Trazado 215086" d="M227.226,120.425v22.152l26.5.226.358-23.089Z" transform="translate(-227.226 -119.715)" fill="#d84318"/>
        <path id="Trazado_215087" data-name="Trazado 215087" d="M255.84,119.715l1.729,2.91-.865,20.157-1.222.021Z" transform="translate(-228.986 -119.715)" fill="#d84318"/>
        <path id="Trazado_215088" data-name="Trazado 215088" d="M232.272,128.21l2.447-3.552,13.231,11.1-2.03,2.707Z" transform="translate(-227.541 -120.023)" fill="#d84318"/>
        <path id="Trazado_215089" data-name="Trazado 215089" d="M248.313,128.21l-2.447-3.552-13.231,11.1,2.03,2.707Z" transform="translate(-227.563 -120.023)" fill="#d84318"/>
      </g>
      <g id="Grupo_142690" data-name="Grupo 142690" transform="translate(180.705 284.547)">
        <path id="Trazado_215090" data-name="Trazado 215090" d="M286.519,392.6H195.851a7.425,7.425,0,0,1-7.423-7.256l-1.693-74.367a7.425,7.425,0,0,1,7.423-7.595h94.4a7.426,7.426,0,0,1,7.423,7.629l-2.04,74.367A7.425,7.425,0,0,1,286.519,392.6Z" transform="translate(-186.499 -303.153)" fill="#1b3f5e"/>
        <g id="Grupo_142688" data-name="Grupo 142688">
          <path id="Trazado_215091" data-name="Trazado 215091" d="M286.5,392.823H195.837a7.7,7.7,0,0,1-7.658-7.485l-1.693-74.367a7.659,7.659,0,0,1,7.657-7.835h94.4a7.66,7.66,0,0,1,7.657,7.869l-2.04,74.368A7.62,7.62,0,0,1,286.5,392.823Zm-92.36-89.218a7.19,7.19,0,0,0-7.189,7.354l1.693,74.367a7.233,7.233,0,0,0,7.189,7.027H286.5a7.154,7.154,0,0,0,7.189-6.994l2.039-74.367a7.191,7.191,0,0,0-7.189-7.388Z" transform="translate(-186.484 -303.137)" fill="#473da2"/>
        </g>
        <g id="Grupo_142689" data-name="Grupo 142689" transform="translate(24.677 15.445)">
          <rect id="Rectángulo_42143" data-name="Rectángulo 42143" width="47.683" height="2.041" fill="#fff"/>
          <rect id="Rectángulo_42144" data-name="Rectángulo 42144" width="23.842" height="2.041" transform="translate(0 4.966)" fill="#fff"/>
          <rect id="Rectángulo_42145" data-name="Rectángulo 42145" width="23.842" height="2.041" transform="translate(0 9.112)" fill="#fff"/>
          <rect id="Rectángulo_42146" data-name="Rectángulo 42146" width="18.968" height="2.041" transform="translate(26.516 9.112)" fill="#fff"/>
          <rect id="Rectángulo_42147" data-name="Rectángulo 42147" width="38.437" height="2.041" transform="translate(0 13.257)" fill="#fff"/>
          <rect id="Rectángulo_42148" data-name="Rectángulo 42148" width="13.681" height="2.041" transform="translate(0 17.403)" fill="#fff"/>
          <rect id="Rectángulo_42149" data-name="Rectángulo 42149" width="23.66" height="2.041" transform="translate(16.494 29.84)" fill="#fff"/>
          <rect id="Rectángulo_42150" data-name="Rectángulo 42150" width="42.879" height="2.041" transform="translate(0 21.549)" fill="#fff"/>
          <rect id="Rectángulo_42151" data-name="Rectángulo 42151" width="32.988" height="2.041" transform="translate(0 25.694)" fill="#fff"/>
          <rect id="Rectángulo_42152" data-name="Rectángulo 42152" width="15.517" height="2.041" transform="translate(0 29.84)" fill="#fff"/>
          <rect id="Rectángulo_42153" data-name="Rectángulo 42153" width="23.842" height="2.041" transform="translate(0 33.986)" fill="#fff"/>
          <rect id="Rectángulo_42154" data-name="Rectángulo 42154" width="6.84" height="2.041" transform="translate(0 38.132)" fill="#fff"/>
          <rect id="Rectángulo_42155" data-name="Rectángulo 42155" width="24.815" height="2.041" transform="translate(9.654 38.132)" fill="#fff"/>
          <rect id="Rectángulo_42156" data-name="Rectángulo 42156" width="23.66" height="2.041" transform="translate(16.494 42.155)" fill="#fff"/>
          <rect id="Rectángulo_42157" data-name="Rectángulo 42157" width="15.517" height="2.041" transform="translate(0 42.155)" fill="#fff"/>
          <rect id="Rectángulo_42158" data-name="Rectángulo 42158" width="23.842" height="2.041" transform="translate(0 46.301)" fill="#fff"/>
          <rect id="Rectángulo_42159" data-name="Rectángulo 42159" width="6.84" height="2.041" transform="translate(0 50.446)" fill="#fff"/>
          <rect id="Rectángulo_42160" data-name="Rectángulo 42160" width="24.815" height="2.041" transform="translate(9.654 50.446)" fill="#fff"/>
        </g>
      </g>
      <path id="Trazado_215092" data-name="Trazado 215092" d="M552.038,136.911a4.191,4.191,0,1,1-4.191-4.19A4.191,4.191,0,0,1,552.038,136.911Z" transform="translate(-28.023 -7.976)" fill="#1b3f5e"/>
      <circle id="Elipse_5462" data-name="Elipse 5462" cx="4.19" cy="4.19" r="4.19" transform="translate(527.942 124.745)" fill="#1b3f5e"/>
      <circle id="Elipse_5463" data-name="Elipse 5463" cx="2.963" cy="2.963" r="2.963" transform="translate(258.945 154.784)" fill="url(#linear-gradient-58)"/>
      <circle id="Elipse_5464" data-name="Elipse 5464" cx="2.963" cy="2.963" r="2.963" transform="translate(457.42 285.538)" fill="url(#linear-gradient-59)"/>
      <g id="Grupo_142695" data-name="Grupo 142695" transform="translate(143.638 248.043)">
        <path id="Trazado_215093" data-name="Trazado 215093" d="M200.811,308.215h-45.76a6.829,6.829,0,0,1-6.826-6.6l-1.016-30.1a6.83,6.83,0,0,1,6.826-7.06h47.7a6.83,6.83,0,0,1,6.827,7.039l-.92,30.1A6.83,6.83,0,0,1,200.811,308.215Z" transform="translate(-146.97 -264.224)" fill="#d84318"/>
        <g id="Grupo_142691" data-name="Grupo 142691">
          <path id="Trazado_215094" data-name="Trazado 215094" d="M200.8,308.434h-45.76a7.038,7.038,0,0,1-7.061-6.826l-1.016-30.1a7.065,7.065,0,0,1,7.06-7.3h47.7a7.065,7.065,0,0,1,7.061,7.28l-.92,30.1A7.033,7.033,0,0,1,200.8,308.434Zm-46.776-43.757a6.595,6.595,0,0,0-6.591,6.817l1.016,30.1a6.57,6.57,0,0,0,6.592,6.374H200.8a6.565,6.565,0,0,0,6.592-6.393l.92-30.1a6.6,6.6,0,0,0-6.592-6.8Z" transform="translate(-146.955 -264.208)" fill="#953da2"/>
        </g>
        <g id="Grupo_142692" data-name="Grupo 142692" transform="translate(8.998 11.048)">
          <path id="Trazado_215095" data-name="Trazado 215095" d="M167.832,275.99,156.55,289.067l11.49,9.753v-5.034l-6.647-5.754,6.173-6.979Z" transform="translate(-156.55 -275.99)" fill="#fff"/>
        </g>
        <g id="Grupo_142693" data-name="Grupo 142693" transform="translate(39.155 11.635)">
          <path id="Trazado_215096" data-name="Trazado 215096" d="M189.668,276.616l11.282,13.078-11.49,9.753v-5.034l6.647-5.754-7.4-7.827Z" transform="translate(-188.711 -276.616)" fill="#fff"/>
        </g>
        <g id="Grupo_142694" data-name="Grupo 142694" transform="translate(22.738 12.223)">
          <path id="Trazado_215097" data-name="Trazado 215097" d="M171.2,298.9l9.831-21.656h4.62L174.519,298.9Z" transform="translate(-171.203 -277.242)" fill="#fff"/>
        </g>
      </g>
      <g id="Grupo_142697" data-name="Grupo 142697" transform="translate(438.063 298.998)">
        <path id="Trazado_215098" data-name="Trazado 215098" d="M528.245,373.536H471a8.543,8.543,0,0,1-8.539-8.256l-1.272-37.65a8.544,8.544,0,0,1,8.539-8.832H529.4a8.544,8.544,0,0,1,8.54,8.8l-1.151,37.651A8.544,8.544,0,0,1,528.245,373.536Z" transform="translate(-460.95 -318.563)" fill="#d84318"/>
        <g id="Grupo_142696" data-name="Grupo 142696">
          <path id="Trazado_215099" data-name="Trazado 215099" d="M528.229,373.754H470.984a8.743,8.743,0,0,1-8.772-8.482l-1.272-37.65a8.778,8.778,0,0,1,8.773-9.075H529.38a8.778,8.778,0,0,1,8.774,9.046L537,365.245A8.739,8.739,0,0,1,528.229,373.754Zm-58.516-54.739a8.31,8.31,0,0,0-8.3,8.59l1.272,37.65a8.275,8.275,0,0,0,8.3,8.03h57.245a8.273,8.273,0,0,0,8.306-8.056l1.151-37.65a8.309,8.309,0,0,0-8.305-8.563Z" transform="translate(-460.935 -318.547)" fill="#953da2"/>
        </g>
        <rect id="Rectángulo_42161" data-name="Rectángulo 42161" width="52.429" height="31.138" transform="translate(11.71 6.296)" fill="#d1d4fb" style="mix-blend-mode: multiply;isolation: isolate"/>
        <path id="Trazado_215100" data-name="Trazado 215100" d="M496.428,333.5v15.685l13.4-8.56Z" transform="translate(-463.145 -319.478)" fill="#fff"/>
        <rect id="Rectángulo_42162" data-name="Rectángulo 42162" width="52.429" height="2.847" transform="translate(11.71 43.173)" fill="#d1d4fb" style="mix-blend-mode: multiply;isolation: isolate"/>
        <rect id="Rectángulo_42163" data-name="Rectángulo 42163" width="13.573" height="2.847" transform="translate(11.71 43.173)" fill="#fff"/>
      </g>
      <g id="Grupo_142700" data-name="Grupo 142700" transform="translate(387.568 281.082)">
        <g id="Grupo_142698" data-name="Grupo 142698" transform="translate(7.079 2.598)">
          <path id="Trazado_215101" data-name="Trazado 215101" d="M431.352,313.983l-2.735,7.828C430.126,317.485,432.3,314.677,431.352,313.983Zm-2.735,7.828-2.742,7.827C426.565,329.432,427.1,326.136,428.616,321.811Zm2.735-7.828-2.735,7.828C430.126,317.485,432.3,314.677,431.352,313.983Zm-2.735,7.828-2.742,7.827C426.565,329.432,427.1,326.136,428.616,321.811Zm7.9,6.782,2.659,1.508,2.869-7.832-3.075-.515c.054-.291.11-.581.148-.869a20.126,20.126,0,0,0,.259-3.9l3.216-2.018-1.466-6.9-3.081,2.947a8.922,8.922,0,0,0-1.576-2.3,6.056,6.056,0,0,0-.534-.52l1.885-4.351-5.015-1.633h0l-1.2,4.386a8.349,8.349,0,0,0-3.4.794l-.553-4.146-5.521,4.178,1.275,3.674a20.9,20.9,0,0,0-2.693,3.922l-2.66-1.5-2.868,7.832,3.074.514a21.278,21.278,0,0,0-.407,4.773l-3.215,2.018,1.465,6.9,3.081-2.947a8.671,8.671,0,0,0,2.112,2.81l-1.887,4.359,4.936,1.924.764-2.779.519-1.9a8.38,8.38,0,0,0,3.4-.792l.546,4.144L435.1,336.2l-1.275-3.674a20.458,20.458,0,0,0,2.172-3C436.175,329.215,436.344,328.908,436.515,328.593Zm-7.9-6.782c-1.517,4.325,0,8.785-2.742,7.827s-3.751-5.249-2.236-9.567,4.969-7.047,7.713-6.089S430.126,317.485,428.616,321.811Zm2.735-7.828-2.735,7.828C430.126,317.485,432.3,314.677,431.352,313.983Zm-2.735,7.828-2.742,7.827C426.565,329.432,427.1,326.136,428.616,321.811Z" transform="translate(-414.635 -302.212)" fill-rule="evenodd" fill="url(#linear-gradient-60)"/>
        </g>
        <path id="Trazado_215102" data-name="Trazado 215102" d="M438.8,329.928l2.869-7.832-2.927-1.384-.474-.221.308-4.314,3.248-1.586-1.073-6.7-7.076-2.3,1.3,3.109,2.466-5.025-5.015-1.633-2.06-.672-4.943-1.926-.924,3.371-4.3-2.043-5.521,4.179,1.675,4.518-5.163,14.313-2.55,9.3,4.9.536-1.6,3.684,4.943,1.926,7.075,2.3-1.136-2.273-.715-1.36,2.615.853L429.2,340.2l5.521-4.179L431.307,332l4.312-2.655ZM423.266,319.9c1.517-4.325,4.969-7.047,7.713-6.089l-2.735,7.828-2.742,7.827C422.752,328.5,421.751,324.217,423.266,319.9Z" transform="translate(-407.183 -299.441)" fill="#1b3f5e" fill-rule="evenodd"/>
        <g id="Grupo_142699" data-name="Grupo 142699">
          <path id="Trazado_215103" data-name="Trazado 215103" d="M431.629,327.619l2.868-7.832-3.077-.514a21.5,21.5,0,0,0,.41-4.766l3.216-2.018-1.467-6.9-3.083,2.945a8.593,8.593,0,0,0-2.109-2.813l1.887-4.354-4.941-1.926-1.28,4.676a8.407,8.407,0,0,0-3.4.791l-.547-4.14-5.521,4.177,1.271,3.673a21.264,21.264,0,0,0-2.694,3.927l-2.66-1.5-2.868,7.832,3.076.514a21.534,21.534,0,0,0-.41,4.766l-3.215,2.018,1.466,6.9,3.083-2.945a8.608,8.608,0,0,0,2.11,2.813l-1.887,4.354,4.941,1.926,1.28-4.676a8.417,8.417,0,0,0,3.4-.792l.548,4.14,5.521-4.177-1.272-3.673a21.175,21.175,0,0,0,2.694-3.927Zm-13.3-.461c-2.747-.962-3.746-5.246-2.232-9.568s4.968-7.046,7.715-6.084,3.745,5.246,2.232,9.568S421.071,328.119,418.325,327.157Z" transform="translate(-407.086 -299.441)" fill="#1b3f5e" fill-rule="evenodd"/>
        </g>
        <path id="Trazado_215104" data-name="Trazado 215104" d="M443.764,315.658l-7.075-2.3-3.216,2.017,7.075,2.3Z" transform="translate(-408.729 -300.308)" fill="#601734" fill-rule="evenodd" opacity="0.5" style="mix-blend-mode: multiply;isolation: isolate"/>
        <path id="Trazado_215105" data-name="Trazado 215105" d="M435.9,338.056l-7.08-2.306-1.271-3.673,7.075,2.305Z" transform="translate(-408.36 -301.474)" fill="#b3d9ff" fill-rule="evenodd" style="mix-blend-mode: soft-light;isolation: isolate"/>
        <path id="Trazado_215106" data-name="Trazado 215106" d="M429.8,305.849l3.88,1.122,1.313-1.254,2.576.839,1.194-2.756-7.075-2.305Z" transform="translate(-408.501 -299.569)" fill="#601734" fill-rule="evenodd" opacity="0.5" style="mix-blend-mode: multiply;isolation: isolate"/>
        <path id="Trazado_215107" data-name="Trazado 215107" d="M418.809,336.825l3.706,1.542-.308-2.334A6.659,6.659,0,0,1,418.809,336.825Z" transform="translate(-407.816 -301.72)" fill="#601734" fill-rule="evenodd" opacity="0.5" style="mix-blend-mode: multiply;isolation: isolate"/>
        <path id="Trazado_215108" data-name="Trazado 215108" d="M419.419,314.121l6.24,3.3a9.718,9.718,0,0,1,1.6-1.7S425.636,308.84,419.419,314.121Z" transform="translate(-407.854 -300.231)" fill="#601734" fill-rule="evenodd" opacity="0.5" style="mix-blend-mode: multiply;isolation: isolate"/>
      </g>
      <path id="Trazado_215109" data-name="Trazado 215109" d="M266.424,65.312l6.016,12.05-4.019,1.828L262.8,68.122Z" transform="translate(-10.531 -3.778)" fill="#d84318"/>
      <path id="Trazado_215110" data-name="Trazado 215110" d="M423.47,143.423l-5.608,3.4-2.247-4.261,6.13-3.58Z" transform="translate(-20.049 -8.366)" fill="#1b3f5e"/>
      <path id="Trazado_215111" data-name="Trazado 215111" d="M452.752,373.227l-8.036,5.706-2.247-4.261,7.8-4.556Z" transform="translate(-21.721 -22.761)" fill="#4f31e0"/>
      <g id="Grupo_142701" data-name="Grupo 142701" transform="translate(417.82 74.359)">
        <path id="Trazado_215112" data-name="Trazado 215112" d="M442.024,110.551l-1.358-31.562h41.326l-1.7,31.472Z" transform="translate(-439.429 -78.989)" fill="#1b3f5e" fill-rule="evenodd"/>
        <path id="Trazado_215113" data-name="Trazado 215113" d="M440.584,78.989l-1.237,1.861,1.237,29.7h1.358Z" transform="translate(-439.347 -78.989)" fill-rule="evenodd" fill="url(#linear-gradient-61)"/>
        <path id="Trazado_215114" data-name="Trazado 215114" d="M454.869,85.663l-6.485-.695.888,21.627,5.6-.549v-2.239l-3.243.077-.37-16.677,3.613.1Z" transform="translate(-439.91 -79.361)" fill="#fff"/>
        <path id="Trazado_215115" data-name="Trazado 215115" d="M469.462,85.663l6.485-.695-.888,21.627-5.6-.549v-2.239l3.242.077.37-16.677-3.613.1Z" transform="translate(-441.223 -79.361)" fill="#fff"/>
      </g>
      <g id="Grupo_142709" data-name="Grupo 142709" transform="translate(208.997 82.396)">
        <g id="Grupo_142703" data-name="Grupo 142703" transform="translate(157.273 8.301)">
          <path id="Trazado_215120" data-name="Trazado 215120" d="M391.277,114.48l-6.9-18.068,17.9,3.74Zm-6.16-17.433,6.3,16.482,10.035-13.071Z" transform="translate(-384.373 -96.412)" fill="#744ca2"/>
        </g>
        <g id="Grupo_142704" data-name="Grupo 142704" transform="translate(213.282 273.995)">
          <rect id="Rectángulo_42164" data-name="Rectángulo 42164" width="10.257" height="0.468" transform="matrix(0.591, -0.807, 0.807, 0.591, 0, 8.272)" fill="#744ca2"/>
        </g>
        <g id="Grupo_142705" data-name="Grupo 142705" transform="translate(150.216 197.851)">
          <path id="Trazado_215121" data-name="Trazado 215121" d="M383.359,306.951l-6.513-8.106.366-.293,6.513,8.106Z" transform="translate(-376.847 -298.552)" fill="#744ca2"/>
        </g>
        <g id="Grupo_142706" data-name="Grupo 142706" transform="translate(257.778)">
          <path id="Trazado_215122" data-name="Trazado 215122" d="M491.9,98.962l-.352-.31,9.725-11.093.352.31Z" transform="translate(-491.553 -87.56)" fill="#744ca2"/>
        </g>
        <g id="Grupo_142707" data-name="Grupo 142707" transform="translate(68.795 38.234)">
          <rect id="Rectángulo_42165" data-name="Rectángulo 42165" width="0.468" height="9.758" transform="translate(0 0.209) rotate(-26.449)" fill="#744ca2"/>
        </g>
        <g id="Grupo_142708" data-name="Grupo 142708" transform="translate(0 185.289)">
          <rect id="Rectángulo_42166" data-name="Rectángulo 42166" width="14.575" height="0.468" transform="translate(0 9.352) rotate(-39.913)" fill="#744ca2"/>
        </g>
      </g>
    </g>
    <g id="Grupo_142711" data-name="Grupo 142711" transform="translate(179.5 1969.002)">
      <path id="Trazado_114972-3" data-name="Trazado 114972" d="M731.725,386.058h-11.36l8.61,18.3-8.61,18.3h11.36l8.61-18.3Z" transform="translate(-720.365 -386.058)" fill="#d84318"/>
      <path id="Trazado_114973-3" data-name="Trazado 114973" d="M748.011,386.058h-11.36l8.61,18.3-8.61,18.3h11.36l8.61-18.3Z" transform="translate(-716.68 -386.058)" fill="#d84318"/>
      <path id="Trazado_114974-3" data-name="Trazado 114974" d="M764.3,386.058h-11.36l8.61,18.3-8.61,18.3H764.3l8.61-18.3Z" transform="translate(-712.996 -386.058)" fill="#d84318"/>
      <path id="Trazado_114975-3" data-name="Trazado 114975" d="M780.581,386.058h-11.36l8.61,18.3-8.61,18.3h11.36l8.61-18.3Z" transform="translate(-709.311 -386.058)" fill="#d84318"/>
      <path id="Trazado_114976-3" data-name="Trazado 114976" d="M796.866,386.058h-11.36l8.61,18.3-8.61,18.3h11.36l8.61-18.3Z" transform="translate(-705.626 -386.058)" fill="#d84318"/>
      <path id="Trazado_114977-3" data-name="Trazado 114977" d="M813.151,386.058h-11.36l8.61,18.3-8.61,18.3h11.36l8.61-18.3Z" transform="translate(-701.941 -386.058)" fill="#d84318"/>
      <path id="Trazado_114978-3" data-name="Trazado 114978" d="M829.437,386.058h-11.36l8.61,18.3-8.61,18.3h11.36l8.61-18.3Z" transform="translate(-698.256 -386.057)" fill="#d84318"/>
      <path id="Trazado_114979-3" data-name="Trazado 114979" d="M845.722,386.058h-11.36l8.61,18.3-8.61,18.3h11.36l8.61-18.3Z" transform="translate(-694.572 -386.057)" fill="#d84318"/>
    </g>
  </g>
</svg>
