<svg xmlns="http://www.w3.org/2000/svg" width="189.612" height="192" viewBox="0 0 189.612 192">
  <g id="Grupo_145051" data-name="Grupo 145051" transform="translate(-180 -3352)">
    <g id="Grupo_142760" data-name="Grupo 142760" transform="translate(212.114 3352)">
      <g id="Grupo_142759" data-name="Grupo 142759" transform="translate(33.358 6.683)">
        <path id="Trazado_215152" data-name="Trazado 215152" d="M419.2,185.62c-.929,0-1.686.3-1.686.672s.757.671,1.686.671,1.689-.3,1.689-.671S420.135,185.62,419.2,185.62Z" transform="translate(-359.433 -185.62)" fill="#d84318"/>
        <path id="Trazado_215153" data-name="Trazado 215153" d="M359.829,186.292c0-.37-.759-.672-1.691-.672s-1.689.3-1.689.672.757.671,1.689.671S359.829,186.661,359.829,186.292Z" transform="translate(-356.449 -185.62)" fill="#d84318"/>
        <path id="Trazado_215154" data-name="Trazado 215154" d="M356.449,186.292c0-.37.757-.672,1.689-.672s1.691.3,1.691.672-.759.671-1.691.671S356.449,186.661,356.449,186.292Z" transform="translate(-356.449 -185.62)" fill="#d84318"/>
        <path id="Trazado_215155" data-name="Trazado 215155" d="M419.2,186.963c-.929,0-1.686-.3-1.686-.671s.757-.672,1.686-.672,1.689.3,1.689.672S420.135,186.963,419.2,186.963Z" transform="translate(-359.433 -185.62)" fill="#d84318"/>
      </g>
      <path id="Trazado_215156" data-name="Trazado 215156" d="M441.337,179.477c-.091-.5-1.133-.883-2.385-.883H331.978c-1.252,0-2.294.385-2.385.883l-8.21,44.87c-.047.264.183.524.635.717a4.671,4.671,0,0,0,1.752.3H447.164a4.671,4.671,0,0,0,1.752-.3c.453-.193.682-.453.635-.717Zm-110.577,42.9h-2.392v-.951h2.392Zm4.8,0h-2.392v-.951h2.392Zm4.8,0h-2.391v-.951h2.391Zm4.8,0h-2.392v-.951h2.392Zm4.8,0h-2.391v-.951h2.391Zm4.8,0h-2.392v-.951h2.392Zm4.8,0h-2.391v-.951h2.391Zm4.8,0h-2.391v-.951h2.391Zm4.8,0h-2.392v-.951h2.392Zm4.8,0h-2.391v-.951h2.391Zm4.8,0h-2.392v-.951h2.392Zm4.8,0h-2.391v-.951h2.391Zm4.8,0h-2.392v-.951h2.392Zm4.8,0h-2.392v-.951h2.392Zm4.8,0h-2.392v-.951h2.392Zm4.8,0h-2.392v-.951h2.392Zm4.8,0h-2.391v-.951h2.391Zm4.8,0h-2.392v-.951h2.392Zm4.8,0h-2.392v-.951h2.392Zm-.258-34.045v7.422c-.1,7.956-14.2,14.424-31.432,14.424s-31.321-6.468-31.43-14.419v-7.426c-2.387-.38-4.085-1.3-4.085-2.387,0-1.419,2.9-2.574,6.472-2.574s6.474,1.155,6.474,2.574c0,1.081-1.693,2.006-4.078,2.386v7.422c.1,6.9,12.049,12.522,26.647,12.522s26.562-5.619,26.649-12.526v-7.416c-2.387-.38-4.08-1.3-4.08-2.387,0-1.419,2.9-2.574,6.47-2.574s6.472,1.155,6.472,2.574C420.978,187.031,419.285,187.955,416.9,188.335Zm5.057,34.045h-2.392v-.951h2.392Zm4.8,0h-2.392v-.951h2.392Zm4.8,0h-2.391v-.951h2.391Zm4.8,0h-2.392v-.951h2.392Zm4.8,0h-2.391v-.951h2.391Z" transform="translate(-321.377 -178.594)" fill="#d84318"/>
    </g>
    <g id="Grupo_142789" data-name="Grupo 142789" transform="translate(180 3398.093)">
      <g id="Grupo_142761" data-name="Grupo 142761" transform="translate(13.491 54.495)">
        <path id="Trazado_215157" data-name="Trazado 215157" d="M301.8,284.349V365.9h67.471V299.135h28.039V365.9h67.471v-81.55Zm59.7,61.127H308.7V299.135h52.8Zm96.386,0h-52.8V299.135h52.8Z" transform="translate(-301.798 -284.349)" fill="#1b3f5e"/>
      </g>
      <g id="Grupo_142788" data-name="Grupo 142788" transform="translate(0 9.076)">
        <g id="Grupo_142762" data-name="Grupo 142762" transform="translate(0.279 44.77)">
          <path id="Trazado_215158" data-name="Trazado 215158" d="M288.907,284.667a10.372,10.372,0,0,0,20.744,0Z" transform="translate(-287.956 -283.716)" fill="#1b3f5e"/>
          <path id="Trazado_215159" data-name="Trazado 215159" d="M299.229,295.94a11.334,11.334,0,0,1-11.322-11.322.95.95,0,0,1,.951-.951H309.6a.951.951,0,0,1,.951.951A11.335,11.335,0,0,1,299.229,295.94Zm-9.372-10.371a9.422,9.422,0,0,0,18.747,0Z" transform="translate(-287.907 -283.667)" fill="#1b3f5e"/>
        </g>
        <g id="Grupo_142763" data-name="Grupo 142763" transform="translate(21.023 44.77)">
          <path id="Trazado_215160" data-name="Trazado 215160" d="M310.717,284.667a10.371,10.371,0,1,0,20.742,0Z" transform="translate(-309.766 -283.716)" fill="#1b3f5e"/>
          <path id="Trazado_215161" data-name="Trazado 215161" d="M321.039,295.94a11.334,11.334,0,0,1-11.322-11.322.951.951,0,0,1,.951-.951H331.41a.951.951,0,0,1,.951.951A11.334,11.334,0,0,1,321.039,295.94Zm-9.372-10.371a9.42,9.42,0,0,0,18.744,0Z" transform="translate(-309.717 -283.667)" fill="#1b3f5e"/>
        </g>
        <g id="Grupo_142764" data-name="Grupo 142764" transform="translate(62.509 44.77)">
          <path id="Trazado_215162" data-name="Trazado 215162" d="M354.334,284.667a10.372,10.372,0,0,0,20.744,0Z" transform="translate(-353.383 -283.716)" fill="#1b3f5e"/>
          <path id="Trazado_215163" data-name="Trazado 215163" d="M364.655,295.94a11.334,11.334,0,0,1-11.321-11.322.951.951,0,0,1,.951-.951h20.744a.951.951,0,0,1,.951.951A11.336,11.336,0,0,1,364.655,295.94Zm-9.371-10.371a9.421,9.421,0,0,0,18.746,0Z" transform="translate(-353.334 -283.667)" fill="#1b3f5e"/>
        </g>
        <g id="Grupo_142765" data-name="Grupo 142765" transform="translate(83.253 44.77)">
          <path id="Trazado_215164" data-name="Trazado 215164" d="M376.144,284.667a10.371,10.371,0,1,0,20.741,0Z" transform="translate(-375.193 -283.716)" fill="#1b3f5e"/>
          <path id="Trazado_215165" data-name="Trazado 215165" d="M386.464,295.94a11.333,11.333,0,0,1-11.319-11.322.951.951,0,0,1,.951-.951h20.741a.95.95,0,0,1,.951.951A11.335,11.335,0,0,1,386.464,295.94Zm-9.37-10.371a9.421,9.421,0,0,0,18.745,0Z" transform="translate(-375.144 -283.667)" fill="#1b3f5e"/>
        </g>
        <g id="Grupo_142766" data-name="Grupo 142766" transform="translate(41.766 44.77)">
          <path id="Trazado_215166" data-name="Trazado 215166" d="M332.525,284.667a10.372,10.372,0,0,0,20.743,0Z" transform="translate(-331.574 -283.716)" fill="#1b3f5e"/>
          <path id="Trazado_215167" data-name="Trazado 215167" d="M342.848,295.94a11.335,11.335,0,0,1-11.323-11.322.95.95,0,0,1,.951-.951h20.743a.95.95,0,0,1,.951.951A11.334,11.334,0,0,1,342.848,295.94Zm-9.373-10.371a9.421,9.421,0,0,0,18.746,0Z" transform="translate(-331.525 -283.667)" fill="#1b3f5e"/>
        </g>
        <g id="Grupo_142768" data-name="Grupo 142768" transform="translate(21.024)">
          <g id="Grupo_142767" data-name="Grupo 142767">
            <path id="Trazado_215168" data-name="Trazado 215168" d="M336.365,237.6l-4.906,44.77H310.717l9.058-44.77Z" transform="translate(-309.766 -236.646)" fill="#1b3f5e"/>
            <path id="Trazado_215169" data-name="Trazado 215169" d="M331.41,283.269H310.668a.951.951,0,0,1-.932-1.139l9.059-44.77a.95.95,0,0,1,.932-.763h16.59a.95.95,0,0,1,.945,1.055l-4.906,44.771A.951.951,0,0,1,331.41,283.269Zm-19.579-1.9h18.726l4.7-42.868H320.5Z" transform="translate(-309.717 -236.597)" fill="#1b3f5e"/>
          </g>
        </g>
        <g id="Grupo_142770" data-name="Grupo 142770" transform="translate(62.509)">
          <g id="Grupo_142769" data-name="Grupo 142769">
            <path id="Trazado_215170" data-name="Trazado 215170" d="M375.029,283.269H354.285a.952.952,0,0,1-.951-.963l2.447-44.77a.95.95,0,0,1,.951-.94H376.5a.95.95,0,0,1,.949,1l-1.472,44.77A.95.95,0,0,1,375.029,283.269Zm-19.781-1.9h18.88L375.5,238.5H357.671Z" transform="translate(-353.334 -236.597)" fill="#1b3f5e"/>
          </g>
        </g>
        <g id="Grupo_142772" data-name="Grupo 142772" transform="translate(41.766)">
          <g id="Grupo_142771" data-name="Grupo 142771">
            <path id="Trazado_215171" data-name="Trazado 215171" d="M353.219,283.269H332.476a.95.95,0,0,1-.945-1.055l4.906-44.77a.951.951,0,0,1,.945-.847h18.01a.95.95,0,0,1,.95,1l-2.172,44.771A.952.952,0,0,1,353.219,283.269Zm-19.683-1.9h18.777l2.08-42.868h-16.16Z" transform="translate(-331.525 -236.597)" fill="#1b3f5e"/>
          </g>
        </g>
        <g id="Grupo_142774" data-name="Grupo 142774">
          <g id="Grupo_142773" data-name="Grupo 142773">
            <path id="Trazado_215172" data-name="Trazado 215172" d="M309.588,283.269H288.565a.95.95,0,0,1-.915-1.212l12.782-44.771a.95.95,0,0,1,.914-.69h17.3a.952.952,0,0,1,.932,1.139l-9.059,44.77A.95.95,0,0,1,309.588,283.269Zm-19.763-1.9H308.81l8.673-42.868h-15.42Z" transform="translate(-287.614 -236.597)" fill="#1b3f5e"/>
          </g>
        </g>
        <g id="Grupo_142775" data-name="Grupo 142775" transform="translate(166.687 44.77)">
          <path id="Trazado_215173" data-name="Trazado 215173" d="M484.606,284.667a10.371,10.371,0,1,1-20.742,0Z" transform="translate(-462.913 -283.716)" fill="#1b3f5e"/>
          <path id="Trazado_215174" data-name="Trazado 215174" d="M474.185,295.94a11.334,11.334,0,0,1-11.321-11.322.95.95,0,0,1,.951-.951h20.742a.95.95,0,0,1,.951.951A11.335,11.335,0,0,1,474.185,295.94Zm-9.372-10.371a9.421,9.421,0,0,0,18.746,0Z" transform="translate(-462.864 -283.667)" fill="#1b3f5e"/>
        </g>
        <g id="Grupo_142776" data-name="Grupo 142776" transform="translate(145.944 44.77)">
          <path id="Trazado_215175" data-name="Trazado 215175" d="M462.8,284.667a10.371,10.371,0,1,1-20.742,0Z" transform="translate(-441.105 -283.716)" fill="#1b3f5e"/>
          <path id="Trazado_215176" data-name="Trazado 215176" d="M452.376,295.94a11.334,11.334,0,0,1-11.32-11.322.95.95,0,0,1,.951-.951h20.742a.951.951,0,0,1,.951.951A11.335,11.335,0,0,1,452.376,295.94Zm-9.371-10.371a9.421,9.421,0,0,0,18.745,0Z" transform="translate(-441.056 -283.667)" fill="#1b3f5e"/>
        </g>
        <g id="Grupo_142777" data-name="Grupo 142777" transform="translate(104.458 44.77)">
          <path id="Trazado_215177" data-name="Trazado 215177" d="M419.181,284.667a10.372,10.372,0,0,1-20.743,0Z" transform="translate(-397.487 -283.716)" fill="#1b3f5e"/>
          <path id="Trazado_215178" data-name="Trazado 215178" d="M408.759,295.94a11.334,11.334,0,0,1-11.321-11.322.95.95,0,0,1,.951-.951h20.743a.95.95,0,0,1,.951.951A11.335,11.335,0,0,1,408.759,295.94Zm-9.372-10.371a9.422,9.422,0,0,0,18.747,0Z" transform="translate(-397.438 -283.667)" fill="#1b3f5e"/>
        </g>
        <g id="Grupo_142778" data-name="Grupo 142778" transform="translate(125.201 44.77)">
          <path id="Trazado_215179" data-name="Trazado 215179" d="M440.99,284.667a10.372,10.372,0,0,1-20.743,0Z" transform="translate(-419.296 -283.716)" fill="#1b3f5e"/>
          <path id="Trazado_215180" data-name="Trazado 215180" d="M430.567,295.94a11.333,11.333,0,0,1-11.32-11.322.951.951,0,0,1,.951-.951h20.743a.95.95,0,0,1,.951.951A11.336,11.336,0,0,1,430.567,295.94ZM421.2,285.569a9.421,9.421,0,0,0,18.746,0Z" transform="translate(-419.247 -283.667)" fill="#1b3f5e"/>
        </g>
        <g id="Grupo_142780" data-name="Grupo 142780" transform="translate(141.035)">
          <g id="Grupo_142779" data-name="Grupo 142779">
            <path id="Trazado_215181" data-name="Trazado 215181" d="M436.895,237.6l4.909,44.77h20.742l-9.057-44.77Z" transform="translate(-435.944 -236.646)" fill="#1b3f5e"/>
            <path id="Trazado_215182" data-name="Trazado 215182" d="M462.5,283.269H441.755a.951.951,0,0,1-.945-.846L435.9,237.652a.95.95,0,0,1,.945-1.055H453.44a.952.952,0,0,1,.933.763l9.057,44.77a.951.951,0,0,1-.932,1.139Zm-19.89-1.9h18.727L452.662,238.5H437.907Z" transform="translate(-435.895 -236.597)" fill="#1b3f5e"/>
          </g>
        </g>
        <g id="Grupo_142782" data-name="Grupo 142782" transform="translate(102.985)">
          <g id="Grupo_142781" data-name="Grupo 142781">
            <path id="Trazado_215183" data-name="Trazado 215183" d="M419.057,283.269H398.313a.952.952,0,0,1-.95-.9l-1.472-44.77a.951.951,0,0,1,.95-1h19.77a.951.951,0,0,1,.951.94l2.445,44.77a.952.952,0,0,1-.951.963Zm-19.843-1.9h18.88L415.672,238.5H397.846Z" transform="translate(-395.89 -236.597)" fill="#1b3f5e"/>
          </g>
        </g>
        <g id="Grupo_142784" data-name="Grupo 142784" transform="translate(123.029)">
          <g id="Grupo_142783" data-name="Grupo 142783">
            <path id="Trazado_215184" data-name="Trazado 215184" d="M440.83,283.269H420.087a.952.952,0,0,1-.95-.9l-2.172-44.771a.953.953,0,0,1,.95-1h18.007a.952.952,0,0,1,.945.847l4.909,44.77a.951.951,0,0,1-.945,1.055Zm-19.836-1.9h18.775l-4.7-42.868H418.913Z" transform="translate(-416.963 -236.597)" fill="#1b3f5e"/>
          </g>
        </g>
        <g id="Grupo_142786" data-name="Grupo 142786" transform="translate(157.629)">
          <g id="Grupo_142785" data-name="Grupo 142785">
            <path id="Trazado_215185" data-name="Trazado 215185" d="M484.373,283.269H463.35a.952.952,0,0,1-.933-.763l-9.057-44.77a.951.951,0,0,1,.932-1.139h17.3a.952.952,0,0,1,.915.69l12.782,44.771a.951.951,0,0,1-.915,1.212Zm-20.245-1.9h18.985L470.872,238.5H455.455Z" transform="translate(-453.341 -236.597)" fill="#1b3f5e"/>
          </g>
        </g>
        <g id="Grupo_142787" data-name="Grupo 142787" transform="translate(83.253)">
          <path id="Trazado_215186" data-name="Trazado 215186" d="M377.43,237.6H395.6l1.29,44.77H376.144Z" transform="translate(-375.193 -236.646)" fill="#1b3f5e"/>
          <path id="Trazado_215187" data-name="Trazado 215187" d="M396.856,283.269H376.1a.952.952,0,0,1-.951-.978l1.287-44.771a.951.951,0,0,1,.95-.924h18.166a.952.952,0,0,1,.951.924l1.285,44.581a1.018,1.018,0,0,1,.024.217A.95.95,0,0,1,396.856,283.269Zm-19.782-1.9h18.784L394.622,238.5H378.306Z" transform="translate(-375.144 -236.597)" fill="#1b3f5e"/>
        </g>
      </g>
      <rect id="Rect치ngulo_42193" data-name="Rect치ngulo 42193" width="1.902" height="9.89" transform="translate(53.224)" fill="#1b3f5e"/>
      <rect id="Rect치ngulo_42194" data-name="Rect치ngulo 42194" width="1.902" height="9.89" transform="translate(128.03)" fill="#1b3f5e"/>
    </g>
    <path id="Trazado_215188" data-name="Trazado 215188" d="M470.821,379.9H294.609a.95.95,0,0,1-.951-.951V370.04a.95.95,0,0,1,.951-.951H470.821a.95.95,0,0,1,.951.951v8.911A.95.95,0,0,1,470.821,379.9ZM295.56,378H469.87v-7.009H295.56Z" transform="translate(-107.908 3164.098)" fill="#1b3f5e"/>
    <path id="Trazado_215189" data-name="Trazado 215189" d="M395.744,337.453a2.839,2.839,0,1,1,2.838-2.839A2.842,2.842,0,0,1,395.744,337.453Zm0-3.776a.937.937,0,1,0,.936.937A.938.938,0,0,0,395.744,333.677Z" transform="translate(-112.758 3165.921)" fill="#1b3f5e"/>
    <g id="Grupo_142790" data-name="Grupo 142790" transform="translate(210.378 3483.502)">
      <path id="Trazado_215190" data-name="Trazado 215190" d="M350.581,339.774H320.516a.964.964,0,0,1-.964-.963V327.3a.964.964,0,0,1,.964-.964h30.065a.965.965,0,0,1,.964.964V338.81A.965.965,0,0,1,350.581,339.774Zm-29.845-1.184H350.36V327.524H320.736Z" transform="translate(-319.552 -317.316)" fill="#1b3f5e"/>
      <path id="Trazado_215191" data-name="Trazado 215191" d="M340.053,326.952a.593.593,0,0,1-.53-.314l-3.385-6.508-3.385,6.508a.6.6,0,0,1-.794.254.559.559,0,0,1-.264-.764l3.914-7.524a.63.63,0,0,1,1.06,0l3.914,7.524a.559.559,0,0,1-.265.764A.6.6,0,0,1,340.053,326.952Z" transform="translate(-320.142 -316.923)" fill="#1b3f5e"/>
      <path id="Trazado_215192" data-name="Trazado 215192" d="M338.226,318.809a1.957,1.957,0,1,1-1.956-1.957A1.956,1.956,0,0,1,338.226,318.809Z" transform="translate(-320.273 -316.852)" fill="#1b3f5e"/>
    </g>
    <g id="Grupo_142803" data-name="Grupo 142803" transform="translate(309.129 3472.819)">
      <g id="Grupo_142796" data-name="Grupo 142796" transform="translate(3.824 5.589)">
        <g id="Grupo_142791" data-name="Grupo 142791" transform="translate(0.029 0.238)">
          <path id="Trazado_215193" data-name="Trazado 215193" d="M438.364,333.621A10.938,10.938,0,1,1,449.3,322.683,10.951,10.951,0,0,1,438.364,333.621Zm0-20.448a9.511,9.511,0,1,0,9.512,9.51A9.522,9.522,0,0,0,438.364,313.173Z" transform="translate(-427.426 -311.746)" fill="#d84318"/>
        </g>
        <g id="Grupo_142792" data-name="Grupo 142792">
          <path id="Trazado_215194" data-name="Trazado 215194" d="M438.364,311.5c-6.058,0-10.968,4.643-10.968,10.37,0,.035.006.068.006.1a12.059,12.059,0,0,0,5.334,1.239,11.671,11.671,0,0,0,10.1-5.617c1.5,3.223,3.8,5.366,6.4,5.594a10.068,10.068,0,0,0,.1-1.317C449.33,316.139,444.419,311.5,438.364,311.5Z" transform="translate(-427.396 -311.496)" fill="#d84318"/>
        </g>
        <g id="Grupo_142795" data-name="Grupo 142795" transform="translate(5.954 10.707)">
          <g id="Grupo_142793" data-name="Grupo 142793">
            <path id="Trazado_215195" data-name="Trazado 215195" d="M435.93,324.665c0,1.058-.509,1.912-1.137,1.912s-1.138-.854-1.138-1.912.509-1.912,1.138-1.912S435.93,323.609,435.93,324.665Z" transform="translate(-433.656 -322.753)" fill="#d84318"/>
          </g>
          <g id="Grupo_142794" data-name="Grupo 142794" transform="translate(7.752)">
            <path id="Trazado_215196" data-name="Trazado 215196" d="M444.08,324.665c0,1.058-.51,1.912-1.138,1.912s-1.137-.854-1.137-1.912.509-1.912,1.137-1.912S444.08,323.609,444.08,324.665Z" transform="translate(-441.806 -322.753)" fill="#d84318"/>
          </g>
        </g>
      </g>
      <g id="Grupo_142797" data-name="Grupo 142797" transform="translate(9.778)">
        <path id="Trazado_215197" data-name="Trazado 215197" d="M443.682,309.055c0,1.9-2.245,3.434-5.013,3.434s-5.012-1.537-5.012-3.434,2.244-3.435,5.012-3.435S443.682,307.158,443.682,309.055Z" transform="translate(-433.656 -305.62)" fill="#d84318"/>
      </g>
      <g id="Grupo_142798" data-name="Grupo 142798" transform="translate(15.486 17.732)">
        <path id="Trazado_215198" data-name="Trazado 215198" d="M442.838,327.919a3.184,3.184,0,0,1-3.18-3.181.475.475,0,0,1,.476-.476h5.408a.476.476,0,0,1,.476.476A3.184,3.184,0,0,1,442.838,327.919Zm-2.178-2.705a2.229,2.229,0,0,0,4.355,0Z" transform="translate(-439.658 -324.263)" fill="#d84318"/>
      </g>
      <g id="Grupo_142799" data-name="Grupo 142799" transform="translate(7.734 17.732)">
        <path id="Trazado_215199" data-name="Trazado 215199" d="M434.689,327.919a3.184,3.184,0,0,1-3.182-3.181.476.476,0,0,1,.476-.476h5.41a.476.476,0,0,1,.476.476A3.184,3.184,0,0,1,434.689,327.919Zm-2.179-2.705a2.229,2.229,0,0,0,4.356,0Z" transform="translate(-431.507 -324.263)" fill="#d84318"/>
      </g>
      <g id="Grupo_142800" data-name="Grupo 142800" transform="translate(11.61 22.916)">
        <path id="Trazado_215200" data-name="Trazado 215200" d="M438.763,331.584c-1.583,0-3.18-.42-3.18-1.357a.475.475,0,0,1,.947-.057,3.955,3.955,0,0,0,2.232.463,3.722,3.722,0,0,0,2.248-.482.437.437,0,0,1,.467-.438.5.5,0,0,1,.466.514C441.943,331.164,440.345,331.584,438.763,331.584Z" transform="translate(-435.583 -329.713)" fill="#d84318"/>
      </g>
      <g id="Grupo_142801" data-name="Grupo 142801" transform="translate(13.144 18.487)">
        <path id="Trazado_215201" data-name="Trazado 215201" d="M440.013,326.008h-2.343a.476.476,0,1,1,0-.951h2.343a.476.476,0,1,1,0,.951Z" transform="translate(-437.195 -325.057)" fill="#d84318"/>
      </g>
      <g id="Grupo_142802" data-name="Grupo 142802" transform="translate(0 27.94)">
        <path id="Trazado_215202" data-name="Trazado 215202" d="M438.166,335c-8.168,0-14.79,10.887-14.79,13.755h29.581C452.957,345.882,446.335,335,438.166,335Zm8.238,7.43h-5.5v-2.432h5.5Z" transform="translate(-423.376 -334.995)" fill="#d84318"/>
      </g>
    </g>
    <g id="Grupo_142812" data-name="Grupo 142812" transform="translate(215.952 3495.596)">
      <g id="Grupo_142811" data-name="Grupo 142811">
        <g id="Grupo_142810" data-name="Grupo 142810">
          <g id="Grupo_142809" data-name="Grupo 142809">
            <g id="Grupo_142808" data-name="Grupo 142808">
              <g id="Grupo_142807" data-name="Grupo 142807">
                <g id="Grupo_142806" data-name="Grupo 142806">
                  <g id="Grupo_142805" data-name="Grupo 142805">
                    <path id="Trazado_215203" data-name="Trazado 215203" d="M325.412,332.791a3.772,3.772,0,0,1,.66-2.391,2.256,2.256,0,0,1,1.879-.833,2.6,2.6,0,0,1,1.14.232,2.134,2.134,0,0,1,.8.654,2.866,2.866,0,0,1,.468,1.016,5.343,5.343,0,0,1,.151,1.322,3.761,3.761,0,0,1-.664,2.392,2.278,2.278,0,0,1-1.893.833,2.558,2.558,0,0,1-1.127-.231,2.147,2.147,0,0,1-.793-.655,2.866,2.866,0,0,1-.467-1.016A5.345,5.345,0,0,1,325.412,332.791Zm.785,0a4.5,4.5,0,0,0,.1.98,2.64,2.64,0,0,0,.316.816,1.691,1.691,0,0,0,.548.561,1.458,1.458,0,0,0,.788.208,1.538,1.538,0,0,0,1.3-.628,3.232,3.232,0,0,0,.472-1.937,4.6,4.6,0,0,0-.1-.975,2.6,2.6,0,0,0-.321-.82,1.722,1.722,0,0,0-.553-.561,1.466,1.466,0,0,0-.8-.209,1.518,1.518,0,0,0-1.288.628A3.257,3.257,0,0,0,326.2,332.791Z" transform="translate(-325.412 -329.567)" fill="#1b3f5e"/>
                    <path id="Trazado_215204" data-name="Trazado 215204" d="M332.091,329.738a4.628,4.628,0,0,1,.73-.108c.261-.018.519-.026.774-.026a4.41,4.41,0,0,1,.833.08,2.261,2.261,0,0,1,.77.293,1.671,1.671,0,0,1,.566.588,1.876,1.876,0,0,1,.218.954,2.055,2.055,0,0,1-.2.963,1.805,1.805,0,0,1-.543.636,2.2,2.2,0,0,1-.775.352,3.771,3.771,0,0,1-.9.107h-.147c-.068,0-.14,0-.213,0s-.147-.008-.219-.013a1.491,1.491,0,0,1-.151-.018v2.37h-.739Zm1.523.507c-.154,0-.3,0-.445.009a1.5,1.5,0,0,0-.339.045v2.583a.455.455,0,0,0,.143.022l.2.01c.071,0,.14,0,.205,0h.142a3.136,3.136,0,0,0,.6-.057,1.564,1.564,0,0,0,.538-.209,1.109,1.109,0,0,0,.388-.428,1.492,1.492,0,0,0,.146-.7,1.225,1.225,0,0,0-.138-.61,1.1,1.1,0,0,0-.365-.392,1.527,1.527,0,0,0-.513-.21A2.693,2.693,0,0,0,333.614,330.245Z" transform="translate(-325.738 -329.569)" fill="#1b3f5e"/>
                    <path id="Trazado_215205" data-name="Trazado 215205" d="M337.326,329.679h3.394v.659h-2.655v2.04H340.5v.659h-2.432v2.218h2.7v.66h-3.438Z" transform="translate(-325.994 -329.572)" fill="#1b3f5e"/>
                    <path id="Trazado_215206" data-name="Trazado 215206" d="M343.468,331.829l-.481-.9h-.035l.089.9v4.081h-.7v-6.335h.392l2.985,4.16.463.856h.045l-.1-.856v-4.062h.694v6.334h-.392Z" transform="translate(-326.24 -329.567)" fill="#1b3f5e"/>
                  </g>
                </g>
              </g>
            </g>
          </g>
        </g>
      </g>
    </g>
  </g>
</svg>
