<svg xmlns="http://www.w3.org/2000/svg" xmlns:xlink="http://www.w3.org/1999/xlink" width="1327.785" height="218.581" viewBox="0 0 1327.785 218.581">
  <defs>
    <clipPath id="clip-path">
      <rect x="-758" y="-102" width="1327.785" height="218.581" fill="none"/>
    </clipPath>
  </defs>
  <g id="Grupo_145072" data-name="Grupo 145072" transform="translate(-136.5 -3326.418)">
    <g id="Grupo_de_desplazamiento_3" data-name="Grupo de desplazamiento 3" transform="translate(894.5 3428.418)" clip-path="url(#clip-path)" style="isolation: isolate">
      <g id="Grupo_129254" data-name="Grupo 129254">
        <path id="Trazado_114972" data-name="Trazado 114972" d="M28.428,0H0L21.545,45.79,0,91.581H28.428L49.973,45.79Z" fill="#f3f9ff"/>
        <path id="Trazado_114973" data-name="Trazado 114973" d="M28.428,0H0L21.545,45.79,0,91.581H28.428L49.973,45.79Z" transform="translate(49.973 0)" fill="#f3f9ff"/>
        <path id="Trazado_114974" data-name="Trazado 114974" d="M28.428,0H0L21.545,45.79,0,91.581H28.428L49.973,45.79Z" transform="translate(99.946 0)" fill="#f3f9ff"/>
        <path id="Trazado_114975" data-name="Trazado 114975" d="M28.428,0H0L21.545,45.79,0,91.581H28.428L49.973,45.79Z" transform="translate(149.919 0)" fill="#f3f9ff"/>
        <path id="Trazado_114976" data-name="Trazado 114976" d="M28.428,0H0L21.545,45.79,0,91.581H28.428L49.973,45.79Z" transform="translate(199.892 0)" fill="#f3f9ff"/>
        <path id="Trazado_114977" data-name="Trazado 114977" d="M28.428,0H0L21.545,45.79,0,91.581H28.428L49.973,45.79Z" transform="translate(249.865 0)" fill="#f3f9ff"/>
        <path id="Trazado_114978" data-name="Trazado 114978" d="M28.428,0H0L21.545,45.79,0,91.581H28.428L49.973,45.79Z" transform="translate(299.839 0)" fill="#f3f9ff"/>
        <path id="Trazado_114979" data-name="Trazado 114979" d="M28.428,0H0L21.545,45.79,0,91.581H28.428L49.973,45.79Z" transform="translate(349.812 0)" fill="#f3f9ff"/>
      </g>
    </g>
  </g>
</svg>
