<svg id="Grupo_145000" data-name="Grupo 145000" xmlns="http://www.w3.org/2000/svg" width="34.994" height="43.924" viewBox="0 0 34.994 43.924">
  <path id="Trazado_189201" data-name="Trazado 189201" d="M391.828,302a2.029,2.029,0,0,1-1.322-1.381,3.076,3.076,0,0,1-.049-.724q0-12.711.007-25.422c0-.362-.066-.47-.454-.469a2.363,2.363,0,0,1-2.5-2.5q-.015-3.087,0-6.173a2.355,2.355,0,0,1,2.547-2.528c.356,0,.415-.113.4-.428-.022-.7-.007-1.4-.007-2.1a1.913,1.913,0,0,1,1.458-2.2h20.928a8.253,8.253,0,0,1,3.143.731,10.7,10.7,0,0,1,6.409,8.231,7.545,7.545,0,0,1,.1,1.366q0,10.377,0,20.754c0,.2,0,.4-.007.6a.724.724,0,0,1-.566.76.788.788,0,0,1-.952-.786,4.922,4.922,0,0,1-.021-.685c0-6.6-.023-13.2.015-19.8a3.641,3.641,0,0,0-3.3-3.574c-.286.008-.571,0-.857,0a1.945,1.945,0,0,1-1.952-2.008,4.639,4.639,0,0,0-.3-1.936,3.608,3.608,0,0,0-3.373-2.226c-1.585-.013-3.171,0-4.757,0h-13.67c-.765,0-.869.1-.874.861,0,.529,0,1.057,0,1.586,0,.721,0,.722.7.723,2.428,0,4.857,0,7.285,0a2.478,2.478,0,0,1,2.221,1.221,2.182,2.182,0,0,1,.338,1.179c0,1.057.013,2.115,0,3.172a2.409,2.409,0,0,1-2.286,2.393c-.826.049-1.657.031-2.485,0-.548-.018-.785-.262-.861-.811a.82.82,0,0,1,.912-.72c.656-.021,1.314,0,1.97-.009.9-.012,1.2-.323,1.2-1.224,0-.828,0-1.657,0-2.485s-.343-1.168-1.18-1.171c-2.8-.007-5.6,0-8.4,0-.428,0-.857-.012-1.285.006a.969.969,0,0,0-1.051,1.08c-.008,1.185,0,2.371-.007,3.556,0,.305.084.425.4.325a3.18,3.18,0,0,1,.978-.083c1.328,0,2.656-.01,3.984.006.607.007.837.2.963.76a.806.806,0,0,1-.894.783c-.657.027-1.314,0-1.971.011-.478.007-.515.046-.529.51,0,.157,0,.314,0,.471q0,13.824,0,27.649a2.543,2.543,0,0,1-.007.3c0,.043-.006.085,0,.128.034.764.126.859.89.86q13.675,0,27.349,0c.757,0,.827-.074.828-.844q0-3.108,0-6.217a3.752,3.752,0,0,1,.027-.642.861.861,0,0,1,.756-.81c.562.093.763.289.765.838.013,2.483.021,4.967,0,7.45a1.665,1.665,0,0,1-1.494,1.65Z" transform="translate(-387.505 -258.074)"/>
  <path id="Trazado_189202" data-name="Trazado 189202" d="M429.594,279.78c.114.537.278.679.806.681.757,0,1.515.009,2.272,0a2.327,2.327,0,0,0,2.359-2.281c.036-1.056.037-2.116,0-3.172a2.328,2.328,0,0,0-2.374-2.268q-3.9-.015-7.8,0c-.311,0-.412-.058-.4-.39.028-.8.006-1.6.01-2.4,0-.474.172-.647.644-.647,6.3,0,12.6-.011,18.9.006a3.6,3.6,0,0,1,3.626,3.757c-.043,1.594.79,2.589,2.472,2.408a1.407,1.407,0,0,1,.256.018.577.577,0,0,1,.541.464,5.264,5.264,0,0,1,.278,1.51c0,1.856,0,3.711,0,5.566,0,.23.061.5-.215.644-1.653-.168-3.31-.074-4.965-.077q-8.7-.02-17.405,0c-.186,0-.372-.006-.557.006a1.321,1.321,0,0,0-1.272,1.174,4.177,4.177,0,0,0-.022.6q0,10.612,0,21.225a2.172,2.172,0,0,0,.075.807,1.4,1.4,0,0,0,1.169.947,4.58,4.58,0,0,0,.642.017q8.574,0,17.148,0a1.335,1.335,0,0,1,.793.109c.06.237-.141.292-.279.356a8.885,8.885,0,0,1-3.041.835c-1.712.14-3.426.081-5.139.084q-6.429.012-12.859,0c-.271,0-.586.093-.777-.217,0-.142-.013-.285-.013-.427q0-14.077-.011-28.154c0-.416.1-.527.509-.5.712.038,1.428.013,2.142.01.528,0,.692-.145.8-.681A2.161,2.161,0,0,1,429.594,279.78Z" transform="translate(-420.224 -268.016)" fill="#f8f5f8"/>
  <path id="Trazado_189203" data-name="Trazado 189203" d="M424.555,357.477a.8.8,0,0,0,.5.085c5.689,0,11.377.017,17.066-.011a8.789,8.789,0,0,0,4.551-1.089c.166-.186.393-.146.6-.148.914-.007,1.829,0,2.743,0a1.385,1.385,0,0,0,1.58-1.577q0-10.825,0-21.651a1.589,1.589,0,0,0-.439-1.252.255.255,0,0,1-.1-.265c.125-.133.072-.3.072-.45,0-1.827-.007-3.654.008-5.481a6.126,6.126,0,0,0-.276-1.717.6.6,0,0,0-.414-.484,3.681,3.681,0,0,1,3.434,3.285c.021.27.024.542.024.813q0,9.941,0,19.882c0,.7.179.9.827.9a.423.423,0,0,0-.175.4c.011.436,0,.873,0,1.309-.547.177-.654.317-.655.893q0,3.45,0,6.9c0,.655-.123.777-.772.777H425.62C424.549,358.592,424.5,358.542,424.555,357.477Z" transform="translate(-420.304 -315.954)" fill="#eeebee"/>
  <path id="Trazado_189204" data-name="Trazado 189204" d="M406.825,316.314h-1.687a.744.744,0,0,0-.847-.608c-1.443.011-2.885.007-4.328,0a3.174,3.174,0,0,0-1.161.234.721.721,0,0,1-.052-.43c0-1.243-.008-2.486,0-3.729a1.1,1.1,0,0,1,1.212-1.226q4.907-.005,9.814,0a1.093,1.093,0,0,1,1.21,1.186q.02,1.393,0,2.786a1.085,1.085,0,0,1-1.214,1.18c-.7,0-1.4.012-2.1,0A.74.74,0,0,0,406.825,316.314Z" transform="translate(-397.456 -304.55)" fill="#f1bdae"/>
  <path id="Trazado_189205" data-name="Trazado 189205" d="M635.152,280.959a5.281,5.281,0,0,0-3.45-1.009c-.572.021-.728-.148-.716-.746a5.261,5.261,0,0,0-.994-3.39C631.612,275.982,634.537,278.869,635.152,280.959Z" transform="translate(-602.251 -273.784)" fill="#e1dee1"/>
  <path id="Trazado_189206" data-name="Trazado 189206" d="M400.509,367.72a4.831,4.831,0,0,0,.005.641c.053.391-.088.515-.482.486a1.122,1.122,0,0,1-1.165-1.271,1.215,1.215,0,0,1,1.482-.949c.169.032.159.126.16.239C400.509,367.15,400.509,367.435,400.509,367.72Z" transform="translate(-397.558 -354.184)" fill="#f1bdae"/>
  <path id="Trazado_189207" data-name="Trazado 189207" d="M467.656,392.976a1.768,1.768,0,0,1,.711,1.558q-.016,10.781-.007,21.562a1.534,1.534,0,0,1-1.749,1.762q-1.671,0-3.342.015c-.157-.005-.314-.014-.471-.014H445.046a1.541,1.541,0,0,1-1.76-1.757q0-10.787,0-21.574a1.531,1.531,0,0,1,1.763-1.748q10.785,0,21.569,0A2.274,2.274,0,0,1,467.656,392.976Z" transform="translate(-436.904 -377.366)"/>
  <path id="Trazado_189208" data-name="Trazado 189208" d="M549.52,407.574a.69.69,0,0,0-.8-.6c-.257.024-.308-.091-.3-.321.011-.771.013-1.542,0-2.313,0-.249.085-.315.322-.314q2.313.012,4.626,0c.221,0,.3.065.3.291-.011.785-.014,1.571,0,2.356.005.258-.1.309-.326.3-.442-.015-.885.005-1.328-.007a.7.7,0,0,0-.8.607.389.389,0,0,1-.133.086A3.476,3.476,0,0,1,549.52,407.574Z" transform="translate(-530.005 -387.326)" fill="#d84318"/>
  <path id="Trazado_189209" data-name="Trazado 189209" d="M494.031,406.962c-.756,0-1.512-.008-2.268,0-.24,0-.362-.03-.355-.319.02-.77.015-1.541,0-2.311,0-.241.07-.322.315-.32q2.311.014,4.622,0c.255,0,.308.094.305.325-.011.77-.013,1.541,0,2.311,0,.24-.066.32-.311.315C495.572,406.953,494.8,406.962,494.031,406.962Z" transform="translate(-479.521 -387.319)" fill="#d84318"/>
  <path id="Trazado_189210" data-name="Trazado 189210" d="M608.012,406.957c-.756,0-1.512-.01-2.268.005-.256.005-.349-.061-.343-.331.017-.756.014-1.513,0-2.269,0-.247.051-.354.328-.352,1.512.012,3.025.01,4.537,0,.276,0,.381.1.377.376-.011.756-.013,1.513,0,2.269.005.255-.091.308-.323.3C609.553,406.95,608.782,406.957,608.012,406.957Z" transform="translate(-580.472 -387.314)" fill="#d84318"/>
  <path id="Trazado_189211" data-name="Trazado 189211" d="M551.143,435.054l.074,0c.1.524.282.677.806.681.457,0,.914.009,1.371,0,.2-.005.275.051.271.262-.011.7-.01,1.4,0,2.1,0,.2-.069.273-.273.272q-2.335-.009-4.669,0c-.218,0-.3-.061-.3-.291q.018-1.028,0-2.056c0-.231.075-.3.3-.284a.7.7,0,0,0,.809-.6,7,7,0,0,1,1.164-.042A1.056,1.056,0,0,0,551.143,435.054Z" transform="translate(-530.012 -414.803)" fill="#f1bdae"/>
  <path id="Trazado_189212" data-name="Trazado 189212" d="M494.034,509.329c.77,0,1.541.009,2.311-.005.242,0,.321.068.316.313-.015.67-.012,1.341,0,2.012,0,.228-.044.327-.3.325q-2.311-.018-4.622,0c-.241,0-.323-.066-.318-.312.015-.67.018-1.341,0-2.011-.008-.28.1-.328.35-.324C492.522,509.337,493.278,509.329,494.034,509.329Z" transform="translate(-479.527 -480.579)" fill="#f1bdae"/>
  <path id="Trazado_189213" data-name="Trazado 189213" d="M551.05,577.72c.756,0,1.511.008,2.267,0,.246,0,.359.047.351.326-.018.67-.01,1.34,0,2.01,0,.195-.013.308-.269.306-1.568-.013-3.136-.01-4.7,0-.206,0-.27-.065-.267-.269.01-.684.013-1.369,0-2.053,0-.243.075-.321.317-.318C549.51,577.728,550.28,577.72,551.05,577.72Z" transform="translate(-530.013 -541.146)" fill="#f1bdae"/>
  <path id="Trazado_189214" data-name="Trazado 189214" d="M494,580.351c-.741,0-1.483-.016-2.224.008-.309.01-.382-.092-.372-.385.022-.641.019-1.284,0-1.925-.008-.27.089-.336.344-.334q2.288.015,4.577,0c.234,0,.33.055.324.308q-.023,1.026,0,2.053c.005.238-.085.281-.3.278C495.573,580.345,494.789,580.351,494,580.351Z" transform="translate(-479.521 -541.146)" fill="#f1bdae"/>
  <path id="Trazado_189215" data-name="Trazado 189215" d="M494.049,443.6c-.757,0-1.515-.01-2.271.005-.269.005-.381-.055-.371-.354.023-.656.017-1.315,0-1.971-.006-.246.074-.313.315-.311q2.314.015,4.629,0c.207,0,.306.035.3.276q-.023,1.028,0,2.057c.007.266-.11.3-.333.3C495.563,443.593,494.806,443.6,494.049,443.6Z" transform="translate(-479.519 -420.044)" fill="#f1bdae"/>
  <path id="Trazado_189216" data-name="Trazado 189216" d="M608.009,443.6c-.757,0-1.514-.007-2.271,0-.237,0-.328-.064-.322-.314.015-.671.011-1.343,0-2.014,0-.2.029-.309.275-.307q2.357.015,4.714,0c.224,0,.254.093.252.281-.008.671-.014,1.343,0,2.014.006.262-.071.347-.337.342C609.552,443.587,608.781,443.6,608.009,443.6Z" transform="translate(-580.486 -420.043)" fill="#f1bdae"/>
  <path id="Trazado_189217" data-name="Trazado 189217" d="M608.009,511.971c-.756,0-1.512-.008-2.267,0-.233,0-.33-.054-.324-.307.015-.684.013-1.369,0-2.054,0-.231.084-.287.3-.286q2.31.011,4.62,0c.235,0,.328.055.322.307-.015.684-.013,1.369,0,2.054,0,.229-.08.289-.3.286C609.578,511.965,608.793,511.971,608.009,511.971Z" transform="translate(-580.486 -480.584)" fill="#f1bdae"/>
  <path id="Trazado_189218" data-name="Trazado 189218" d="M551.062,509.338c.756,0,1.512.006,2.268,0,.221,0,.339.03.333.3-.017.684-.012,1.369,0,2.054,0,.216-.056.3-.287.3q-2.332-.013-4.664,0c-.228,0-.294-.076-.291-.3.011-.685.015-1.37,0-2.054-.007-.267.114-.3.334-.3C549.521,509.343,550.292,509.338,551.062,509.338Z" transform="translate(-530.008 -480.588)" fill="#f1bdae"/>
  <path id="Trazado_189219" data-name="Trazado 189219" d="M608.017,546.248c-.756,0-1.512-.01-2.268.005-.265.005-.343-.08-.337-.341.016-.656.015-1.313,0-1.969-.006-.244.071-.315.314-.314q2.311.015,4.621,0c.246,0,.314.075.308.314-.015.642-.02,1.284,0,1.926.01.293-.065.394-.374.385C609.529,546.232,608.773,546.248,608.017,546.248Z" transform="translate(-580.482 -510.96)" fill="#f1bdae"/>
  <path id="Trazado_189220" data-name="Trazado 189220" d="M551.051,543.641c.77,0,1.541.007,2.311,0,.215,0,.3.047.3.282q-.022,1.027,0,2.054c0,.232-.081.285-.3.284q-2.311-.011-4.622,0c-.231,0-.331-.053-.325-.308.016-.67.017-1.341,0-2.011-.007-.261.1-.3.327-.3C549.511,543.648,550.281,543.641,551.051,543.641Z" transform="translate(-530.004 -510.967)" fill="#f1bdae"/>
  <path id="Trazado_189221" data-name="Trazado 189221" d="M494.026,546.251c-.756,0-1.512-.009-2.268.005-.253,0-.355-.056-.347-.331.019-.656.021-1.313,0-1.969-.009-.284.1-.324.35-.323q2.289.014,4.579,0c.234,0,.324.052.318.3q-.025,1.005,0,2.011c.006.253-.086.31-.32.306C495.567,546.243,494.8,546.251,494.026,546.251Z" transform="translate(-479.523 -510.963)" fill="#f1bdae"/>
  <path id="Trazado_189222" data-name="Trazado 189222" d="M494.056,477.8c-.771,0-1.542-.007-2.313,0-.234,0-.328-.052-.322-.307.017-.671.016-1.342,0-2.013-.006-.254.1-.31.326-.309q2.313.011,4.626,0c.225,0,.3.068.291.292-.012.685-.014,1.371,0,2.056.005.236-.085.284-.3.281C495.6,477.8,494.827,477.8,494.056,477.8Z" transform="translate(-479.533 -450.339)" fill="#f1bdae"/>
  <path id="Trazado_189223" data-name="Trazado 189223" d="M551.047,477.8c-.771,0-1.542-.009-2.313.005-.245,0-.319-.072-.314-.315.014-.671.012-1.342,0-2.013,0-.217.061-.3.289-.3q2.334.011,4.668,0c.234,0,.287.085.284.3-.011.671-.02,1.343,0,2.013.01.29-.111.321-.35.317C552.561,477.792,551.8,477.8,551.047,477.8Z" transform="translate(-530.011 -450.336)" fill="#f1bdae"/>
  <path id="Trazado_189224" data-name="Trazado 189224" d="M608.022,477.805c-.757,0-1.513-.008-2.27,0-.241,0-.363-.03-.354-.319.021-.67.014-1.342,0-2.013,0-.222.07-.3.294-.3q2.334.011,4.668,0c.193,0,.283.044.279.26-.011.7-.014,1.4,0,2.1.006.252-.113.27-.31.268C609.564,477.8,608.793,477.805,608.022,477.805Z" transform="translate(-580.47 -450.342)" fill="#f1bdae"/>
  <path id="Trazado_189225" data-name="Trazado 189225" d="M608.619,580.426c-.983,0-1.966.01-2.949.012-.117,0-.287.049-.28-.157a18.415,18.415,0,0,1,.056-2.416,7.075,7.075,0,0,1,1.316-.037c1.125-.009,2.251,0,3.377-.006.251,0,.431.069.29.336A5.206,5.206,0,0,1,608.619,580.426Z" transform="translate(-580.45 -541.234)" fill="#f1bdae"/>
  <path id="Trazado_189226" data-name="Trazado 189226" d="M457.455,405.529c0,.4-.006.8,0,1.2,0,.18-.057.252-.245.25q-1.24-.011-2.481,0c-.172,0-.218-.07-.217-.229q.007-1.2,0-2.4c0-.249.128-.319.348-.318.77,0,1.54.008,2.31,0,.232,0,.293.087.286.3C457.446,404.731,457.455,405.13,457.455,405.529Z" transform="translate(-446.848 -387.332)" fill="#d84318"/>
  <path id="Trazado_189227" data-name="Trazado 189227" d="M455.976,509.339c.385,0,.77.008,1.155,0,.2-.006.316.03.311.275-.013.7-.01,1.4,0,2.1,0,.2-.059.277-.268.274q-1.219-.014-2.438,0c-.194,0-.24-.078-.239-.253.006-.713.01-1.426,0-2.139,0-.223.1-.257.284-.252C455.177,509.345,455.577,509.339,455.976,509.339Z" transform="translate(-446.83 -480.589)" fill="#d84318"/>
  <path id="Trazado_189228" data-name="Trazado 189228" d="M455.975,440.967c.37,0,.741.012,1.111,0,.242-.011.358.033.349.319-.022.669-.012,1.339,0,2.008,0,.206-.039.313-.28.31-.8-.012-1.595-.009-2.392,0-.2,0-.278-.049-.275-.263.011-.7.014-1.4,0-2.094-.005-.237.085-.286.3-.278C455.177,440.977,455.576,440.967,455.975,440.967Z" transform="translate(-446.819 -420.037)" fill="#d84318"/>
  <path id="Trazado_189229" data-name="Trazado 189229" d="M455.931,577.7c.386,0,.772.01,1.158,0,.23-.008.335.049.329.307-.015.686-.011,1.372,0,2.058,0,.2-.044.279-.26.276q-1.157-.017-2.315,0c-.284,0-.375-.118-.371-.388.011-.643.018-1.287,0-1.93-.01-.285.1-.334.35-.323C455.188,577.716,455.56,577.7,455.931,577.7Z" transform="translate(-446.805 -541.131)" fill="#d84318"/>
  <path id="Trazado_189230" data-name="Trazado 189230" d="M455.947,543.641c.385,0,.77.01,1.155,0,.224-.008.334.036.328.3-.018.67-.016,1.341,0,2.01.006.248-.081.315-.319.311q-1.155-.019-2.31,0c-.23,0-.328-.046-.322-.3.017-.684.013-1.369,0-2.053,0-.209.068-.27.269-.264C455.148,543.65,455.548,543.641,455.947,543.641Z" transform="translate(-446.816 -510.966)" fill="#d84318"/>
  <path id="Trazado_189231" data-name="Trazado 189231" d="M455.93,477.806c-.385,0-.771-.013-1.156,0-.232.011-.289-.074-.285-.293q.019-1.006,0-2.013c0-.23.048-.328.3-.323.785.015,1.57.013,2.355,0,.229,0,.293.078.29.3-.011.671-.013,1.342,0,2.013,0,.237-.061.328-.309.317C456.73,477.792,456.33,477.806,455.93,477.806Z" transform="translate(-446.826 -450.343)" fill="#d84318"/>
  <path id="Trazado_189232" data-name="Trazado 189232" d="M609.157,580.267a9.833,9.833,0,0,0,1.649-2.164c.18-.324.119-.4-.244-.4-1.526.012-3.052,0-4.579,0,.09-.107.212-.059.319-.059,1.481,0,2.962.009,4.442-.011.35,0,.432.113.419.438-.024.6-.018,1.2,0,1.794.008.316-.11.431-.426.418C610.211,580.263,609.684,580.272,609.157,580.267Z" transform="translate(-580.989 -541.075)" fill="#d84318"/>
  <path id="Trazado_189233" data-name="Trazado 189233" d="M559.69,435.06a6.644,6.644,0,0,1-1.617.081v-.084Z" transform="translate(-538.559 -414.809)" fill="#afefc6"/>
</svg>
