<svg xmlns="http://www.w3.org/2000/svg" xmlns:xlink="http://www.w3.org/1999/xlink" width="1240" height="548" viewBox="0 0 1240 548">
  <defs>
    <linearGradient id="linear-gradient" x1="0.5" x2="0.5" y2="1" gradientUnits="objectBoundingBox">
      <stop offset="0" stop-color="#f0f8ff"/>
      <stop offset="1" stop-color="#fff"/>
    </linearGradient>
    <linearGradient id="linear-gradient-3" y1="0.5" x2="1" y2="0.5" gradientUnits="objectBoundingBox">
      <stop offset="0" stop-color="#cdcdcd"/>
      <stop offset="0.02" stop-color="#cecece"/>
      <stop offset="0.658" stop-color="#f1f1f1"/>
      <stop offset="1" stop-color="#fff"/>
    </linearGradient>
  </defs>
  <g id="Grupo_145038" data-name="Grupo 145038" transform="translate(-180 -898)">
    <g id="Grupo_142814" data-name="Grupo 142814" transform="translate(0 -1880)">
      <g id="Grupo_142745" data-name="Grupo 142745" transform="translate(180 2778)">
        <g id="Grupo_141999" data-name="Grupo 141999" transform="translate(0 0)">
          <g id="Grupo_141998" data-name="Grupo 141998" transform="translate(0 0)">
            <rect id="Rect치ngulo_41974" data-name="Rect치ngulo 41974" width="548" height="295" transform="translate(0 548) rotate(-90)" opacity="0.798" fill="url(#linear-gradient)"/>
            <rect id="Rect치ngulo_41975" data-name="Rect치ngulo 41975" width="548" height="295" transform="translate(1240) rotate(90)" opacity="0.798" fill="url(#linear-gradient)"/>
            <g id="Grupo_141785" data-name="Grupo 141785" transform="translate(0 0.161)">
              <path id="Trazado_114975" data-name="Trazado 114975" d="M812.618,386.057h-43.4l32.891,69.9-32.891,69.9h43.4l32.891-69.9Z" transform="translate(-769.221 -386.057)" fill="#f0f8ff"/>
              <path id="Trazado_114976" data-name="Trazado 114976" d="M828.9,386.057h-43.4l32.89,69.9-32.89,69.9h43.4l32.89-69.9Z" transform="translate(-704.578 -386.057)" fill="#f0f8ff"/>
              <path id="Trazado_114977" data-name="Trazado 114977" d="M845.189,386.057h-43.4l32.89,69.9-32.89,69.9h43.4l32.89-69.9Z" transform="translate(-639.935 -386.057)" fill="#f0f8ff"/>
              <path id="Trazado_114978" data-name="Trazado 114978" d="M861.475,386.058h-43.4l32.89,69.9-32.89,69.9h43.4l32.89-69.9Z" transform="translate(-575.292 -386.058)" fill="#f0f8ff"/>
              <path id="Trazado_114979" data-name="Trazado 114979" d="M877.76,386.058h-43.4l32.89,69.9-32.89,69.9h43.4l32.89-69.9Z" transform="translate(-510.649 -386.058)" fill="#f0f8ff"/>
            </g>
            <g id="Grupo_141786" data-name="Grupo 141786" transform="translate(840 408.034)">
              <path id="Trazado_114975-2" data-name="Trazado 114975" d="M802.111,525.862h43.4l-32.891-69.9,32.891-69.9h-43.4l-32.891,69.9Z" transform="translate(-445.509 -386.057)" fill="#f0f8ff"/>
              <path id="Trazado_114976-2" data-name="Trazado 114976" d="M818.4,525.862h43.4l-32.89-69.9,32.89-69.9H818.4l-32.89,69.9Z" transform="translate(-542.722 -386.057)" fill="#f0f8ff"/>
              <path id="Trazado_114977-2" data-name="Trazado 114977" d="M834.681,525.862h43.4l-32.89-69.9,32.89-69.9h-43.4l-32.89,69.9Z" transform="translate(-639.935 -386.057)" fill="#f0f8ff"/>
              <path id="Trazado_114978-2" data-name="Trazado 114978" d="M850.967,525.862h43.4l-32.89-69.9,32.89-69.9h-43.4l-32.89,69.9Z" transform="translate(-737.149 -386.057)" fill="#f0f8ff"/>
              <path id="Trazado_114979-2" data-name="Trazado 114979" d="M867.251,525.862h43.4l-32.89-69.9,32.89-69.9h-43.4l-32.89,69.9Z" transform="translate(-834.362 -386.057)" fill="#f0f8ff"/>
            </g>
          </g>
        </g>
      </g>
    </g>
    <path id="Trazado_215207" data-name="Trazado 215207" d="M195.279,228.155H186.19V337.716h9.089l29.77-50.4a8.818,8.818,0,0,0,0-8.768Z" transform="translate(306.277 882.827)" fill="#d84318"/>
    <path id="Trazado_215208" data-name="Trazado 215208" d="M191.714,238.379l22.055,37.333a2.417,2.417,0,0,1,0,2.056L191.714,315.1Z" transform="translate(309.624 889.021)" fill="url(#linear-gradient-3)"/>
    <g id="Grupo_142815" data-name="Grupo 142815" transform="translate(410.208 1285.706)">
      <path id="Trazado_215209" data-name="Trazado 215209" d="M141.555,381.695l73.058-44.6-17.075-.135H134.966V378A4.331,4.331,0,0,0,141.555,381.695Z" transform="translate(-134.966 -336.958)" fill="#1b3f5e"/>
    </g>
    <path id="Trazado_218359" data-name="Trazado 218359" d="M17.3,0H201.461a17.3,17.3,0,0,1,17.3,17.3V257.5a17.3,17.3,0,0,1-17.3,17.3H17.3A17.3,17.3,0,0,1,0,257.5V17.3A17.3,17.3,0,0,1,17.3,0Z" transform="translate(285 1012.916)" fill="#afafaf"/>
    <path id="Trazado_215210" data-name="Trazado 215210" d="M72.1,207.582v76.294A21.645,21.645,0,0,0,93.74,305.52h42.726l17.316,28c1.8,2.9,5.1,2.9,6.9,0l17.318-28H220.72a21.644,21.644,0,0,0,21.644-21.644V207.582Z" transform="translate(237.15 870.362)" fill="#a4a4a1" style="mix-blend-mode: multiply;isolation: isolate"/>
    <path id="Trazado_215211" data-name="Trazado 215211" d="M220.72,186.654H93.74A21.644,21.644,0,0,0,72.1,208.3V355.963A21.644,21.644,0,0,0,93.74,377.607h42.726l17.316,28c1.8,2.905,5.1,2.905,6.9,0l17.318-28H220.72a21.643,21.643,0,0,0,21.644-21.644V208.3A21.643,21.643,0,0,0,220.72,186.654Z" transform="translate(236.904 857.262)" fill="#fff"/>
    <path id="Trazado_215212" data-name="Trazado 215212" d="M685.173,336.958H622.6V378a4.331,4.331,0,0,0,6.589,3.7l73.058-44.6Z" transform="translate(570.689 948.748)" fill="#1b3f5e"/>
    <path id="Trazado_215213" data-name="Trazado 215213" d="M682.555,228.155h-9.088V337.716h9.088l29.771-50.4a8.817,8.817,0,0,0,0-8.768Z" transform="translate(601.507 882.827)" fill="#d84318"/>
    <path id="Trazado_215214" data-name="Trazado 215214" d="M678.99,238.379l22.055,37.333a2.412,2.412,0,0,1,0,2.056L678.99,315.1Z" transform="translate(604.854 889.021)" fill="url(#linear-gradient-3)"/>
    <path id="Trazado_218353" data-name="Trazado 218353" d="M17.3,0H201.461a17.3,17.3,0,0,1,17.3,17.3V257.5a17.3,17.3,0,0,1-17.3,17.3H17.3A17.3,17.3,0,0,1,0,257.5V17.3A17.3,17.3,0,0,1,17.3,0Z" transform="translate(1067.506 1012.916)" fill="#d84318"/>
    <path id="Trazado_215215" data-name="Trazado 215215" d="M559.373,207.582v76.294a21.644,21.644,0,0,0,21.644,21.644h42.724l17.318,28c1.8,2.9,5.1,2.9,6.9,0l17.318-28H708a21.644,21.644,0,0,0,21.644-21.644V207.582Z" transform="translate(532.38 870.362)" fill="#a4a4a1" style="mix-blend-mode: multiply;isolation: isolate"/>
    <path id="Trazado_215216" data-name="Trazado 215216" d="M708,186.654H581.017A21.643,21.643,0,0,0,559.373,208.3V355.963a21.643,21.643,0,0,0,21.644,21.644h42.724l17.318,28c1.8,2.905,5.1,2.905,6.9,0l17.318-28H708a21.643,21.643,0,0,0,21.644-21.644V208.3A21.643,21.643,0,0,0,708,186.654Z" transform="translate(532.38 857.683)" fill="#fff"/>
    <g id="Grupo_142816" data-name="Grupo 142816" transform="translate(672.037 1285.706)">
      <path id="Trazado_215217" data-name="Trazado 215217" d="M304.6,381.695l73.058-44.6-17.075-.135H298.01V378A4.332,4.332,0,0,0,304.6,381.695Z" transform="translate(-298.01 -336.958)" fill="#1b3f5e"/>
    </g>
    <path id="Trazado_215218" data-name="Trazado 215218" d="M357.7,228.155h-9.088V337.716H357.7l29.771-50.4a8.825,8.825,0,0,0,0-8.768Z" transform="translate(404.688 882.827)" fill="#d84318"/>
    <path id="Trazado_215219" data-name="Trazado 215219" d="M354.139,238.379l22.055,37.333a2.411,2.411,0,0,1,0,2.056L354.139,315.1Z" transform="translate(408.034 889.021)" fill="url(#linear-gradient-3)"/>
    <path id="Trazado_218357" data-name="Trazado 218357" d="M17.3,0H201.461a17.3,17.3,0,0,1,17.3,17.3V257.5a17.3,17.3,0,0,1-17.3,17.3H17.3A17.3,17.3,0,0,1,0,257.5V17.3A17.3,17.3,0,0,1,17.3,0Z" transform="translate(545.835 1012.916)" fill="#1b3f5e"/>
    <path id="Trazado_215220" data-name="Trazado 215220" d="M234.522,207.582v76.294a21.644,21.644,0,0,0,21.644,21.644H298.89l17.318,28c1.8,2.9,5.1,2.9,6.9,0l17.318-28h42.724a21.644,21.644,0,0,0,21.644-21.644V207.582Z" transform="translate(335.561 870.362)" fill="#a4a4a1" style="mix-blend-mode: multiply;isolation: isolate"/>
    <path id="Trazado_215221" data-name="Trazado 215221" d="M383.146,186.654H256.166A21.643,21.643,0,0,0,234.522,208.3V355.963a21.643,21.643,0,0,0,21.644,21.644H298.89l17.318,28c1.8,2.905,5.1,2.905,6.9,0l17.318-28h42.724a21.643,21.643,0,0,0,21.644-21.644V208.3A21.643,21.643,0,0,0,383.146,186.654Z" transform="translate(335.561 857.683)" fill="#fff"/>
    <g id="Grupo_142817" data-name="Grupo 142817" transform="translate(933.081 1285.706)">
      <path id="Trazado_215222" data-name="Trazado 215222" d="M467.155,381.695l73.058-44.6-17.075-.135H460.566V378A4.331,4.331,0,0,0,467.155,381.695Z" transform="translate(-460.566 -336.958)" fill="#1b3f5e"/>
    </g>
    <path id="Trazado_215223" data-name="Trazado 215223" d="M520.13,228.155h-9.089V337.716h9.089l29.77-50.4a8.818,8.818,0,0,0,0-8.768Z" transform="translate(503.097 882.827)" fill="#d84318"/>
    <path id="Trazado_215224" data-name="Trazado 215224" d="M516.565,238.379l22.055,37.333a2.417,2.417,0,0,1,0,2.056L516.565,315.1Z" transform="translate(506.443 889.021)" fill="url(#linear-gradient-3)"/>
    <path id="Trazado_218354" data-name="Trazado 218354" d="M17.3,0H201.461a17.3,17.3,0,0,1,17.3,17.3V257.5a17.3,17.3,0,0,1-17.3,17.3H17.3A17.3,17.3,0,0,1,0,257.5V17.3A17.3,17.3,0,0,1,17.3,0Z" transform="translate(806.671 1012.916)" fill="#fff59d"/>
    <g id="Grupo_142818" data-name="Grupo 142818" transform="translate(831 1038.916)">
      <path id="Trazado_215225" data-name="Trazado 215225" d="M396.947,244.576V320.87a21.645,21.645,0,0,0,21.646,21.644h42.724l17.316,28c1.8,2.9,5.1,2.9,6.9,0l17.318-28h42.724a21.645,21.645,0,0,0,21.646-21.644V244.576Z" transform="translate(-396.947 -145.93)" fill="#a4a4a1" style="mix-blend-mode: multiply;isolation: isolate"/>
      <path id="Trazado_215226" data-name="Trazado 215226" d="M545.571,183.148H418.593a21.645,21.645,0,0,0-21.646,21.644V352.457A21.646,21.646,0,0,0,418.593,374.1h42.724l17.316,28c1.8,2.905,5.1,2.905,6.9,0l17.318-28h42.724a21.646,21.646,0,0,0,21.646-21.646V204.792A21.645,21.645,0,0,0,545.571,183.148Z" transform="translate(-396.947 -183.148)" fill="#fff"/>
    </g>
    <path id="Trazado_218360" data-name="Trazado 218360" d="M-44.481-8.49a8.181,8.181,0,0,1-.409,2.837,5.511,5.511,0,0,1-1.457,2.059,15.366,15.366,0,0,0-1.424,1.452,3.786,3.786,0,0,0-.567.964,2.911,2.911,0,0,0-.191,1.07A1.814,1.814,0,0,0-46.5,1.964a2.193,2.193,0,0,0,1.615-.595A2.325,2.325,0,0,0-44.257-.3h3.81a5.09,5.09,0,0,1-1.622,3.952,6.333,6.333,0,0,1-4.364,1.419A6.482,6.482,0,0,1-50.8,3.736a4.767,4.767,0,0,1-1.556-3.82A5.882,5.882,0,0,1-50.335-4.2l1.279-1.227a3.381,3.381,0,0,0,.916-1.24,5.439,5.439,0,0,0,.283-1.821Zm.475-4.028a1.888,1.888,0,0,1-.606,1.445,2.156,2.156,0,0,1-1.529.565,2.156,2.156,0,0,1-1.529-.565,1.888,1.888,0,0,1-.606-1.445,1.919,1.919,0,0,1,.587-1.445,2.139,2.139,0,0,1,1.549-.565,2.139,2.139,0,0,1,1.549.565A1.919,1.919,0,0,1-44.007-12.518Zm20.962,6.124a6.792,6.792,0,0,1-2.287,4.878A8.033,8.033,0,0,1-30.771.264a7.223,7.223,0,0,1-5.807-2.485,10.19,10.19,0,0,1-2.116-6.823v-1.173a11.507,11.507,0,0,1,.976-4.878,7.311,7.311,0,0,1,2.788-3.237,7.811,7.811,0,0,1,4.212-1.127,7.826,7.826,0,0,1,5.353,1.78,7.3,7.3,0,0,1,2.347,5h-3.955a4.009,4.009,0,0,0-1.035-2.7,3.832,3.832,0,0,0-2.709-.837,3.36,3.36,0,0,0-2.96,1.417,7.943,7.943,0,0,0-1.009,4.4v1.45A8.5,8.5,0,0,0-33.743-4.4a3.3,3.3,0,0,0,2.973,1.437A3.9,3.9,0,0,0-28.035-3.8,3.781,3.781,0,0,0-27-6.394Zm10.89,4.944a4.778,4.778,0,0,1-3.9,1.714,4.506,4.506,0,0,1-3.5-1.318,5.628,5.628,0,0,1-1.233-3.863v-9.347h3.81v9.226q0,2.23,2.03,2.23a2.751,2.751,0,0,0,2.663-1.346v-10.11h3.823V0H-12.05ZM2.676,0a4.231,4.231,0,0,1-.382-1.279A4.61,4.61,0,0,1-1.305.264,5.065,5.065,0,0,1-4.779-.949,3.9,3.9,0,0,1-6.157-4.008a4.031,4.031,0,0,1,1.681-3.48A8.294,8.294,0,0,1,.382-8.714H2.136v-.817a2.351,2.351,0,0,0-.508-1.582,2,2,0,0,0-1.6-.593,2.27,2.27,0,0,0-1.51.461A1.568,1.568,0,0,0-2.03-9.98H-5.84a3.827,3.827,0,0,1,.765-2.294,5.054,5.054,0,0,1,2.162-1.655,7.88,7.88,0,0,1,3.138-.6A6.225,6.225,0,0,1,4.41-13.2,4.635,4.635,0,0,1,5.959-9.479V-3.3A6.82,6.82,0,0,0,6.526-.224V0ZM-.475-2.65a3.281,3.281,0,0,0,1.556-.376A2.468,2.468,0,0,0,2.136-4.034V-6.486H.712q-2.861,0-3.045,1.978l-.013.224a1.525,1.525,0,0,0,.5,1.173A1.946,1.946,0,0,0-.475-2.65Zm1.45-17.6H5.128L1.477-16.163h-3.1Zm11.417,5.985.119,1.648a4.98,4.98,0,0,1,4.1-1.912A4.139,4.139,0,0,1,19.986-13.2,6.213,6.213,0,0,1,21.12-9.215V0H17.31V-9.123a2.472,2.472,0,0,0-.527-1.76,2.361,2.361,0,0,0-1.753-.547,2.621,2.621,0,0,0-2.413,1.371V0H8.807V-14.265Zm16.176-3.507v3.507h2.439v2.795H28.569v7.119a1.7,1.7,0,0,0,.3,1.134,1.523,1.523,0,0,0,1.16.343,6.076,6.076,0,0,0,1.121-.092V-.079a7.844,7.844,0,0,1-2.307.343q-4.008,0-4.087-4.047V-11.47H22.676v-2.795h2.083v-3.507ZM32.142-7.264a8.46,8.46,0,0,1,.817-3.784,5.984,5.984,0,0,1,2.353-2.571,6.866,6.866,0,0,1,3.566-.91,6.5,6.5,0,0,1,4.713,1.767,7.09,7.09,0,0,1,2.037,4.8l.026.976A7.456,7.456,0,0,1,43.822-1.72,6.37,6.37,0,0,1,38.9.264a6.4,6.4,0,0,1-4.924-1.978,7.587,7.587,0,0,1-1.839-5.379Zm3.81.27a5.332,5.332,0,0,0,.765,3.109A2.522,2.522,0,0,0,38.9-2.808a2.528,2.528,0,0,0,2.162-1.063,5.834,5.834,0,0,0,.778-3.4,5.279,5.279,0,0,0-.778-3.09,2.528,2.528,0,0,0-2.188-1.1,2.487,2.487,0,0,0-2.162,1.089A5.933,5.933,0,0,0,35.952-6.994ZM-50.17,25.192a2.5,2.5,0,0,0,1.714-.58,2.032,2.032,0,0,0,.686-1.542H-44.2a4.887,4.887,0,0,1-.791,2.656A5.219,5.219,0,0,1-47.118,27.6a6.664,6.664,0,0,1-2.986.666,6.193,6.193,0,0,1-4.825-1.945A7.7,7.7,0,0,1-56.7,20.947V20.7a7.607,7.607,0,0,1,1.753-5.26,6.121,6.121,0,0,1,4.812-1.964,6,6,0,0,1,4.291,1.523A5.391,5.391,0,0,1-44.2,19.048h-3.573a2.618,2.618,0,0,0-.686-1.809,2.286,2.286,0,0,0-1.74-.7,2.3,2.3,0,0,0-2.01.97,5.624,5.624,0,0,0-.679,3.149v.4a5.7,5.7,0,0,0,.672,3.169A2.324,2.324,0,0,0-50.17,25.192Zm7.554-4.456a8.46,8.46,0,0,1,.817-3.784,5.984,5.984,0,0,1,2.353-2.571,6.866,6.866,0,0,1,3.566-.91,6.5,6.5,0,0,1,4.713,1.767,7.09,7.09,0,0,1,2.037,4.8l.026.976a7.456,7.456,0,0,1-1.833,5.267,6.37,6.37,0,0,1-4.917,1.984,6.4,6.4,0,0,1-4.924-1.978,7.587,7.587,0,0,1-1.839-5.379Zm3.81.27a5.332,5.332,0,0,0,.765,3.109,2.522,2.522,0,0,0,2.188,1.076,2.528,2.528,0,0,0,2.162-1.063,5.834,5.834,0,0,0,.778-3.4,5.279,5.279,0,0,0-.778-3.09,2.528,2.528,0,0,0-2.188-1.1,2.487,2.487,0,0,0-2.162,1.089A5.933,5.933,0,0,0-38.806,21.006Zm15.623-7.271.119,1.6a5.013,5.013,0,0,1,4.1-1.859,3.8,3.8,0,0,1,3.784,2.175A4.9,4.9,0,0,1-10.9,13.472a4.255,4.255,0,0,1,3.454,1.351A6.211,6.211,0,0,1-6.308,18.89V28h-3.823V18.9a2.716,2.716,0,0,0-.475-1.773,2.1,2.1,0,0,0-1.674-.56A2.378,2.378,0,0,0-14.654,18.2l.013,9.8h-3.81V18.917a2.683,2.683,0,0,0-.488-1.793A2.124,2.124,0,0,0-20.6,16.57a2.469,2.469,0,0,0-2.347,1.345V28h-3.81V13.735ZM9.459,21a8.555,8.555,0,0,1-1.5,5.28,4.8,4.8,0,0,1-4.041,1.984,4.444,4.444,0,0,1-3.494-1.5v6.724h-3.81V13.735H.152l.132,1.4A4.478,4.478,0,0,1,3.9,13.472,4.83,4.83,0,0,1,8,15.423,8.787,8.787,0,0,1,9.459,20.8Zm-3.81-.277a5.614,5.614,0,0,0-.705-3.072,2.3,2.3,0,0,0-2.05-1.081A2.5,2.5,0,0,0,.428,17.941v5.84A2.537,2.537,0,0,0,2.92,25.192Q5.649,25.192,5.649,20.723Zm14.186-3.415a10.351,10.351,0,0,0-1.371-.105,2.791,2.791,0,0,0-2.834,1.463V28h-3.81V13.735h3.6l.105,1.7A3.53,3.53,0,0,1,18.7,13.472a3.992,3.992,0,0,1,1.187.171ZM29.538,28a4.231,4.231,0,0,1-.382-1.279,4.61,4.61,0,0,1-3.6,1.542,5.065,5.065,0,0,1-3.474-1.213A3.9,3.9,0,0,1,20.7,23.992a4.031,4.031,0,0,1,1.681-3.48,8.294,8.294,0,0,1,4.858-1.226H29v-.817a2.351,2.351,0,0,0-.508-1.582,2,2,0,0,0-1.6-.593,2.27,2.27,0,0,0-1.51.461,1.568,1.568,0,0,0-.547,1.266h-3.81a3.827,3.827,0,0,1,.765-2.294,5.054,5.054,0,0,1,2.162-1.655,7.88,7.88,0,0,1,3.138-.6A6.225,6.225,0,0,1,31.271,14.8a4.635,4.635,0,0,1,1.549,3.724V24.7a6.82,6.82,0,0,0,.567,3.072V28Zm-3.151-2.65a3.281,3.281,0,0,0,1.556-.376A2.468,2.468,0,0,0,29,23.966V21.514H27.573q-2.861,0-3.045,1.978l-.013.224a1.525,1.525,0,0,0,.5,1.173A1.946,1.946,0,0,0,26.387,25.35Zm17.376-8.042a10.351,10.351,0,0,0-1.371-.105,2.791,2.791,0,0,0-2.834,1.463V28h-3.81V13.735h3.6l.105,1.7a3.53,3.53,0,0,1,3.177-1.964,3.992,3.992,0,0,1,1.187.171Zm4.944,4.812a7.931,7.931,0,0,1,.448-2.943A6.037,6.037,0,0,1,50.8,17.02a8.392,8.392,0,0,0,1.589-1.729,2.715,2.715,0,0,0,.4-1.406q0-2.232-2.057-2.232a2.083,2.083,0,0,0-1.562.6,2.362,2.362,0,0,0-.613,1.658H44.725a5.085,5.085,0,0,1,1.628-3.946,6.339,6.339,0,0,1,4.37-1.425,6.366,6.366,0,0,1,4.337,1.353,4.812,4.812,0,0,1,1.542,3.82,4.651,4.651,0,0,1-.5,2.118,8.726,8.726,0,0,1-1.753,2.21l-1.068,1.016a3.62,3.62,0,0,0-1.147,2.256l-.053.805Zm-.382,4.041a1.919,1.919,0,0,1,.6-1.452,2.349,2.349,0,0,1,3.072,0,2.05,2.05,0,0,1,.013,2.884,2.406,2.406,0,0,1-3.1,0A1.9,1.9,0,0,1,48.324,26.161Z" transform="translate(394 1123.915)" fill="#1b3f5e"/>
    <path id="Trazado_218358" data-name="Trazado 218358" d="M-37.085-8.49a8.181,8.181,0,0,1-.409,2.837,5.511,5.511,0,0,1-1.457,2.059,15.366,15.366,0,0,0-1.424,1.452,3.786,3.786,0,0,0-.567.964,2.911,2.911,0,0,0-.191,1.07A1.814,1.814,0,0,0-39.1,1.964a2.193,2.193,0,0,0,1.615-.595A2.325,2.325,0,0,0-36.861-.3h3.81a5.09,5.09,0,0,1-1.622,3.952,6.333,6.333,0,0,1-4.364,1.419A6.482,6.482,0,0,1-43.4,3.736a4.767,4.767,0,0,1-1.556-3.82A5.882,5.882,0,0,1-42.939-4.2l1.279-1.227a3.381,3.381,0,0,0,.916-1.24A5.439,5.439,0,0,0-40.46-8.49Zm.475-4.028a1.888,1.888,0,0,1-.606,1.445,2.156,2.156,0,0,1-1.529.565,2.156,2.156,0,0,1-1.529-.565,1.888,1.888,0,0,1-.606-1.445,1.919,1.919,0,0,1,.587-1.445,2.139,2.139,0,0,1,1.549-.565,2.139,2.139,0,0,1,1.549.565A1.919,1.919,0,0,1-36.611-12.518Zm20.962,6.124a6.792,6.792,0,0,1-2.287,4.878A8.033,8.033,0,0,1-23.375.264a7.223,7.223,0,0,1-5.807-2.485A10.19,10.19,0,0,1-31.3-9.044v-1.173a11.507,11.507,0,0,1,.976-4.878,7.311,7.311,0,0,1,2.788-3.237,7.811,7.811,0,0,1,4.212-1.127,7.826,7.826,0,0,1,5.353,1.78,7.3,7.3,0,0,1,2.347,5h-3.955a4.009,4.009,0,0,0-1.035-2.7,3.832,3.832,0,0,0-2.709-.837,3.36,3.36,0,0,0-2.96,1.417,7.943,7.943,0,0,0-1.009,4.4v1.45A8.5,8.5,0,0,0-26.347-4.4a3.3,3.3,0,0,0,2.973,1.437A3.9,3.9,0,0,0-20.639-3.8,3.781,3.781,0,0,0-19.6-6.394Zm1.753-.87a8.46,8.46,0,0,1,.817-3.784,5.984,5.984,0,0,1,2.353-2.571,6.866,6.866,0,0,1,3.566-.91,6.5,6.5,0,0,1,4.713,1.767,7.09,7.09,0,0,1,2.037,4.8l.026.976A7.456,7.456,0,0,1-2.215-1.72,6.37,6.37,0,0,1-7.132.264a6.4,6.4,0,0,1-4.924-1.978A7.587,7.587,0,0,1-13.9-7.093Zm3.81.27a5.332,5.332,0,0,0,.765,3.109A2.522,2.522,0,0,0-7.132-2.808,2.528,2.528,0,0,0-4.97-3.871a5.834,5.834,0,0,0,.778-3.4,5.279,5.279,0,0,0-.778-3.09,2.528,2.528,0,0,0-2.188-1.1,2.487,2.487,0,0,0-2.162,1.089A5.933,5.933,0,0,0-10.085-6.994ZM-6.407-20.25h4.153l-3.652,4.087H-9ZM5.537-14.265l.119,1.6a5.013,5.013,0,0,1,4.1-1.859,3.8,3.8,0,0,1,3.784,2.175,4.9,4.9,0,0,1,4.285-2.175,4.255,4.255,0,0,1,3.454,1.351A6.211,6.211,0,0,1,22.412-9.11V0H18.589V-9.1a2.716,2.716,0,0,0-.475-1.773,2.1,2.1,0,0,0-1.674-.56A2.378,2.378,0,0,0,14.067-9.8L14.08,0H10.27V-9.083a2.683,2.683,0,0,0-.488-1.793,2.124,2.124,0,0,0-1.661-.554,2.469,2.469,0,0,0-2.347,1.345V0H1.964V-14.265Zm19.208,7a8.46,8.46,0,0,1,.817-3.784,5.984,5.984,0,0,1,2.353-2.571,6.866,6.866,0,0,1,3.566-.91A6.5,6.5,0,0,1,36.2-12.762a7.09,7.09,0,0,1,2.037,4.8l.026.976A7.456,7.456,0,0,1,36.426-1.72,6.37,6.37,0,0,1,31.509.264a6.4,6.4,0,0,1-4.924-1.978,7.587,7.587,0,0,1-1.839-5.379Zm3.81.27a5.332,5.332,0,0,0,.765,3.109,2.522,2.522,0,0,0,2.188,1.076,2.528,2.528,0,0,0,2.162-1.063,5.834,5.834,0,0,0,.778-3.4,5.279,5.279,0,0,0-.778-3.09,2.528,2.528,0,0,0-2.188-1.1,2.487,2.487,0,0,0-2.162,1.089A5.933,5.933,0,0,0,28.556-6.994ZM-50.17,25.192a2.5,2.5,0,0,0,1.714-.58,2.032,2.032,0,0,0,.686-1.542H-44.2a4.887,4.887,0,0,1-.791,2.656A5.219,5.219,0,0,1-47.118,27.6a6.664,6.664,0,0,1-2.986.666,6.193,6.193,0,0,1-4.825-1.945A7.7,7.7,0,0,1-56.7,20.947V20.7a7.607,7.607,0,0,1,1.753-5.26,6.121,6.121,0,0,1,4.812-1.964,6,6,0,0,1,4.291,1.523A5.391,5.391,0,0,1-44.2,19.048h-3.573a2.618,2.618,0,0,0-.686-1.809,2.286,2.286,0,0,0-1.74-.7,2.3,2.3,0,0,0-2.01.97,5.624,5.624,0,0,0-.679,3.149v.4a5.7,5.7,0,0,0,.672,3.169A2.324,2.324,0,0,0-50.17,25.192Zm7.554-4.456a8.46,8.46,0,0,1,.817-3.784,5.984,5.984,0,0,1,2.353-2.571,6.866,6.866,0,0,1,3.566-.91,6.5,6.5,0,0,1,4.713,1.767,7.09,7.09,0,0,1,2.037,4.8l.026.976a7.456,7.456,0,0,1-1.833,5.267,6.37,6.37,0,0,1-4.917,1.984,6.4,6.4,0,0,1-4.924-1.978,7.587,7.587,0,0,1-1.839-5.379Zm3.81.27a5.332,5.332,0,0,0,.765,3.109,2.522,2.522,0,0,0,2.188,1.076,2.528,2.528,0,0,0,2.162-1.063,5.834,5.834,0,0,0,.778-3.4,5.279,5.279,0,0,0-.778-3.09,2.528,2.528,0,0,0-2.188-1.1,2.487,2.487,0,0,0-2.162,1.089A5.933,5.933,0,0,0-38.806,21.006Zm15.623-7.271.119,1.6a5.013,5.013,0,0,1,4.1-1.859,3.8,3.8,0,0,1,3.784,2.175A4.9,4.9,0,0,1-10.9,13.472a4.255,4.255,0,0,1,3.454,1.351A6.211,6.211,0,0,1-6.308,18.89V28h-3.823V18.9a2.716,2.716,0,0,0-.475-1.773,2.1,2.1,0,0,0-1.674-.56A2.378,2.378,0,0,0-14.654,18.2l.013,9.8h-3.81V18.917a2.683,2.683,0,0,0-.488-1.793A2.124,2.124,0,0,0-20.6,16.57a2.469,2.469,0,0,0-2.347,1.345V28h-3.81V13.735ZM9.459,21a8.555,8.555,0,0,1-1.5,5.28,4.8,4.8,0,0,1-4.041,1.984,4.444,4.444,0,0,1-3.494-1.5v6.724h-3.81V13.735H.152l.132,1.4A4.478,4.478,0,0,1,3.9,13.472,4.83,4.83,0,0,1,8,15.423,8.787,8.787,0,0,1,9.459,20.8Zm-3.81-.277a5.614,5.614,0,0,0-.705-3.072,2.3,2.3,0,0,0-2.05-1.081A2.5,2.5,0,0,0,.428,17.941v5.84A2.537,2.537,0,0,0,2.92,25.192Q5.649,25.192,5.649,20.723Zm14.186-3.415a10.351,10.351,0,0,0-1.371-.105,2.791,2.791,0,0,0-2.834,1.463V28h-3.81V13.735h3.6l.105,1.7A3.53,3.53,0,0,1,18.7,13.472a3.992,3.992,0,0,1,1.187.171ZM29.538,28a4.231,4.231,0,0,1-.382-1.279,4.61,4.61,0,0,1-3.6,1.542,5.065,5.065,0,0,1-3.474-1.213A3.9,3.9,0,0,1,20.7,23.992a4.031,4.031,0,0,1,1.681-3.48,8.294,8.294,0,0,1,4.858-1.226H29v-.817a2.351,2.351,0,0,0-.508-1.582,2,2,0,0,0-1.6-.593,2.27,2.27,0,0,0-1.51.461,1.568,1.568,0,0,0-.547,1.266h-3.81a3.827,3.827,0,0,1,.765-2.294,5.054,5.054,0,0,1,2.162-1.655,7.88,7.88,0,0,1,3.138-.6A6.225,6.225,0,0,1,31.271,14.8a4.635,4.635,0,0,1,1.549,3.724V24.7a6.82,6.82,0,0,0,.567,3.072V28Zm-3.151-2.65a3.281,3.281,0,0,0,1.556-.376A2.468,2.468,0,0,0,29,23.966V21.514H27.573q-2.861,0-3.045,1.978l-.013.224a1.525,1.525,0,0,0,.5,1.173A1.946,1.946,0,0,0,26.387,25.35Zm17.376-8.042a10.351,10.351,0,0,0-1.371-.105,2.791,2.791,0,0,0-2.834,1.463V28h-3.81V13.735h3.6l.105,1.7a3.53,3.53,0,0,1,3.177-1.964,3.992,3.992,0,0,1,1.187.171Zm4.944,4.812a7.931,7.931,0,0,1,.448-2.943A6.037,6.037,0,0,1,50.8,17.02a8.392,8.392,0,0,0,1.589-1.729,2.715,2.715,0,0,0,.4-1.406q0-2.232-2.057-2.232a2.083,2.083,0,0,0-1.562.6,2.362,2.362,0,0,0-.613,1.658H44.725a5.085,5.085,0,0,1,1.628-3.946,6.339,6.339,0,0,1,4.37-1.425,6.366,6.366,0,0,1,4.337,1.353,4.812,4.812,0,0,1,1.542,3.82,4.651,4.651,0,0,1-.5,2.118,8.726,8.726,0,0,1-1.753,2.21l-1.068,1.016a3.62,3.62,0,0,0-1.147,2.256l-.053.805Zm-.382,4.041a1.919,1.919,0,0,1,.6-1.452,2.349,2.349,0,0,1,3.072,0,2.05,2.05,0,0,1,.013,2.884,2.406,2.406,0,0,1-3.1,0A1.9,1.9,0,0,1,48.324,26.161Z" transform="translate(657 1123.915)" fill="#1b3f5e"/>
    <path id="Trazado_218355" data-name="Trazado 218355" d="M-36.222-8.49a8.181,8.181,0,0,1-.409,2.837,5.511,5.511,0,0,1-1.457,2.059,15.366,15.366,0,0,0-1.424,1.452,3.786,3.786,0,0,0-.567.964,2.911,2.911,0,0,0-.191,1.07,1.814,1.814,0,0,0,2.03,2.073,2.193,2.193,0,0,0,1.615-.595A2.325,2.325,0,0,0-36-.3h3.81a5.09,5.09,0,0,1-1.622,3.952,6.333,6.333,0,0,1-4.364,1.419,6.482,6.482,0,0,1-4.364-1.339,4.767,4.767,0,0,1-1.556-3.82A5.882,5.882,0,0,1-42.075-4.2L-40.8-5.429a3.381,3.381,0,0,0,.916-1.24A5.439,5.439,0,0,0-39.6-8.49Zm.475-4.028a1.888,1.888,0,0,1-.606,1.445,2.156,2.156,0,0,1-1.529.565,2.156,2.156,0,0,1-1.529-.565,1.888,1.888,0,0,1-.606-1.445,1.919,1.919,0,0,1,.587-1.445,2.139,2.139,0,0,1,1.549-.565,2.139,2.139,0,0,1,1.549.565A1.919,1.919,0,0,1-35.747-12.518Zm16.73,8.563h-6.935L-27.27,0h-4.206l7.146-19.2h3.665L-13.48,0h-4.206Zm-5.867-3.2h4.8L-22.5-14.344Zm19.077-.105a8.527,8.527,0,0,1,1.5-5.313A4.892,4.892,0,0,1-.2-14.528a4.38,4.38,0,0,1,3.652,1.753l.25-1.49H7.047V5.484H3.223v-6.71A4.392,4.392,0,0,1-.231.264,4.856,4.856,0,0,1-4.291-1.714,8.945,8.945,0,0,1-5.807-7.264Zm3.81.27a5.593,5.593,0,0,0,.719,3.116A2.3,2.3,0,0,0,.745-2.808a2.562,2.562,0,0,0,2.479-1.4v-5.9A2.541,2.541,0,0,0,.771-11.457a2.328,2.328,0,0,0-2.043,1.07A6.177,6.177,0,0,0-2-6.994ZM18.582-1.45A4.778,4.778,0,0,1,14.68.264a4.506,4.506,0,0,1-3.5-1.318A5.628,5.628,0,0,1,9.947-4.917v-9.347h3.81v9.226q0,2.23,2.03,2.23A2.751,2.751,0,0,0,18.45-4.154v-10.11h3.823V0H18.688ZM31.713.264A7,7,0,0,1,26.6-1.661,6.842,6.842,0,0,1,24.634-6.79v-.369A8.617,8.617,0,0,1,25.464-11a6.1,6.1,0,0,1,2.353-2.61,6.605,6.605,0,0,1,3.474-.916A5.92,5.92,0,0,1,35.9-12.683,7.5,7.5,0,0,1,37.58-7.449v1.556H28.5A3.539,3.539,0,0,0,29.61-3.652a3.368,3.368,0,0,0,2.353.844A4.113,4.113,0,0,0,35.4-4.4l1.872,2.1a5.72,5.72,0,0,1-2.32,1.892A7.613,7.613,0,0,1,31.713.264Zm-.435-11.72a2.381,2.381,0,0,0-1.839.768,3.977,3.977,0,0,0-.9,2.2h5.3v-.3a2.837,2.837,0,0,0-.686-1.966A2.456,2.456,0,0,0,31.278-11.457Zm.343-8.793h4.153l-3.652,4.087h-3.1ZM-23.77,21a8.555,8.555,0,0,1-1.5,5.28,4.8,4.8,0,0,1-4.041,1.984,4.444,4.444,0,0,1-3.494-1.5v6.724h-3.81V13.735h3.533l.132,1.4a4.478,4.478,0,0,1,3.612-1.661,4.83,4.83,0,0,1,4.1,1.951A8.787,8.787,0,0,1-23.77,20.8Zm-3.81-.277a5.614,5.614,0,0,0-.705-3.072,2.3,2.3,0,0,0-2.05-1.081A2.5,2.5,0,0,0-32.8,17.941v5.84a2.537,2.537,0,0,0,2.492,1.411Q-27.58,25.192-27.58,20.723Zm14.186-3.415a10.351,10.351,0,0,0-1.371-.105A2.791,2.791,0,0,0-17.6,18.666V28h-3.81V13.735h3.6l.105,1.7a3.53,3.53,0,0,1,3.177-1.964,3.992,3.992,0,0,1,1.187.171ZM-5,28.264a7,7,0,0,1-5.109-1.925,6.842,6.842,0,0,1-1.971-5.128v-.369A8.617,8.617,0,0,1-11.246,17a6.1,6.1,0,0,1,2.353-2.61,6.605,6.605,0,0,1,3.474-.916A5.92,5.92,0,0,1-.811,15.317,7.5,7.5,0,0,1,.87,20.551v1.556H-8.213A3.539,3.539,0,0,0-7.1,24.348a3.368,3.368,0,0,0,2.353.844,4.113,4.113,0,0,0,3.441-1.6l1.872,2.1a5.72,5.72,0,0,1-2.32,1.892A7.613,7.613,0,0,1-5,28.264Zm-.435-11.72a2.381,2.381,0,0,0-1.839.768,3.977,3.977,0,0,0-.9,2.2h5.3v-.3a2.837,2.837,0,0,0-.686-1.966A2.456,2.456,0,0,0-5.432,16.543Zm14.4,8.648a2.5,2.5,0,0,0,1.714-.58,2.032,2.032,0,0,0,.686-1.542h3.573a4.887,4.887,0,0,1-.791,2.656A5.219,5.219,0,0,1,12.017,27.6a6.664,6.664,0,0,1-2.986.666,6.193,6.193,0,0,1-4.825-1.945,7.7,7.7,0,0,1-1.767-5.372V20.7a7.607,7.607,0,0,1,1.753-5.26A6.121,6.121,0,0,1,9,13.472,6,6,0,0,1,13.3,14.994a5.391,5.391,0,0,1,1.641,4.054H11.364a2.618,2.618,0,0,0-.686-1.809,2.286,2.286,0,0,0-1.74-.7,2.3,2.3,0,0,0-2.01.97,5.624,5.624,0,0,0-.679,3.149v.4a5.7,5.7,0,0,0,.672,3.169A2.324,2.324,0,0,0,8.965,25.192ZM21.133,28H17.31V13.735h3.823ZM17.086,10.044a1.876,1.876,0,0,1,.573-1.411,2.154,2.154,0,0,1,1.562-.554,2.159,2.159,0,0,1,1.556.554,1.865,1.865,0,0,1,.58,1.411,1.871,1.871,0,0,1-.587,1.424,2.165,2.165,0,0,1-1.549.554,2.165,2.165,0,0,1-1.549-.554A1.871,1.871,0,0,1,17.086,10.044Zm6.592,10.692a8.46,8.46,0,0,1,.817-3.784,5.984,5.984,0,0,1,2.353-2.571,6.866,6.866,0,0,1,3.566-.91,6.5,6.5,0,0,1,4.713,1.767,7.09,7.09,0,0,1,2.037,4.8l.026.976a7.456,7.456,0,0,1-1.833,5.267,6.37,6.37,0,0,1-4.917,1.984,6.4,6.4,0,0,1-4.924-1.978,7.587,7.587,0,0,1-1.839-5.379Zm3.81.27a5.332,5.332,0,0,0,.765,3.109,2.747,2.747,0,0,0,4.351.013,5.834,5.834,0,0,0,.778-3.4,5.279,5.279,0,0,0-.778-3.09,2.528,2.528,0,0,0-2.188-1.1,2.487,2.487,0,0,0-2.162,1.089A5.933,5.933,0,0,0,27.488,21.006Zm-74.3,32.186a2.5,2.5,0,0,0,1.714-.58,2.032,2.032,0,0,0,.686-1.542h3.573a4.887,4.887,0,0,1-.791,2.656A5.219,5.219,0,0,1-43.756,55.6a6.664,6.664,0,0,1-2.986.666,6.193,6.193,0,0,1-4.825-1.945,7.7,7.7,0,0,1-1.767-5.372V48.7a7.607,7.607,0,0,1,1.753-5.26,6.121,6.121,0,0,1,4.812-1.964,6,6,0,0,1,4.291,1.523,5.391,5.391,0,0,1,1.641,4.054h-3.573a2.618,2.618,0,0,0-.686-1.809,2.286,2.286,0,0,0-1.74-.7,2.3,2.3,0,0,0-2.01.97,5.624,5.624,0,0,0-.679,3.149v.4a5.7,5.7,0,0,0,.672,3.169A2.324,2.324,0,0,0-46.808,53.192Zm7.554-4.456a8.46,8.46,0,0,1,.817-3.784,5.984,5.984,0,0,1,2.353-2.571,6.866,6.866,0,0,1,3.566-.91A6.5,6.5,0,0,1-27.8,43.238a7.09,7.09,0,0,1,2.037,4.8l.026.976a7.456,7.456,0,0,1-1.833,5.267,6.37,6.37,0,0,1-4.917,1.984,6.4,6.4,0,0,1-4.924-1.978,7.587,7.587,0,0,1-1.839-5.379Zm3.81.27a5.332,5.332,0,0,0,.765,3.109,2.522,2.522,0,0,0,2.188,1.076,2.528,2.528,0,0,0,2.162-1.063,5.834,5.834,0,0,0,.778-3.4,5.279,5.279,0,0,0-.778-3.09,2.528,2.528,0,0,0-2.188-1.1,2.487,2.487,0,0,0-2.162,1.089A5.933,5.933,0,0,0-35.444,49.006Zm15.623-7.271.119,1.6a5.013,5.013,0,0,1,4.1-1.859,3.8,3.8,0,0,1,3.784,2.175,4.9,4.9,0,0,1,4.285-2.175A4.255,4.255,0,0,1-4.08,42.823,6.211,6.211,0,0,1-2.947,46.89V56H-6.77V46.9a2.716,2.716,0,0,0-.475-1.773,2.1,2.1,0,0,0-1.674-.56A2.378,2.378,0,0,0-11.292,46.2l.013,9.8h-3.81V46.917a2.683,2.683,0,0,0-.488-1.793,2.124,2.124,0,0,0-1.661-.554,2.469,2.469,0,0,0-2.347,1.345V56h-3.81V41.735ZM12.821,49a8.555,8.555,0,0,1-1.5,5.28,4.8,4.8,0,0,1-4.041,1.984,4.444,4.444,0,0,1-3.494-1.5v6.724H-.02V41.735H3.513l.132,1.4a4.478,4.478,0,0,1,3.612-1.661,4.83,4.83,0,0,1,4.1,1.951A8.787,8.787,0,0,1,12.821,48.8Zm-3.81-.277a5.614,5.614,0,0,0-.705-3.072,2.3,2.3,0,0,0-2.05-1.081A2.5,2.5,0,0,0,3.79,45.941v5.84a2.537,2.537,0,0,0,2.492,1.411Q9.011,53.192,9.011,48.723ZM23.2,45.308a10.351,10.351,0,0,0-1.371-.105,2.791,2.791,0,0,0-2.834,1.463V56h-3.81V41.735h3.6l.105,1.7a3.53,3.53,0,0,1,3.177-1.964,3.992,3.992,0,0,1,1.187.171ZM32.9,56a4.231,4.231,0,0,1-.382-1.279,4.61,4.61,0,0,1-3.6,1.542,5.065,5.065,0,0,1-3.474-1.213,3.9,3.9,0,0,1-1.378-3.059,4.031,4.031,0,0,1,1.681-3.48,8.294,8.294,0,0,1,4.858-1.226h1.753v-.817a2.351,2.351,0,0,0-.508-1.582,2,2,0,0,0-1.6-.593,2.27,2.27,0,0,0-1.51.461,1.568,1.568,0,0,0-.547,1.266h-3.81a3.827,3.827,0,0,1,.765-2.294,5.054,5.054,0,0,1,2.162-1.655,7.88,7.88,0,0,1,3.138-.6A6.225,6.225,0,0,1,34.633,42.8a4.635,4.635,0,0,1,1.549,3.724V52.7a6.82,6.82,0,0,0,.567,3.072V56Zm-3.151-2.65a3.281,3.281,0,0,0,1.556-.376,2.468,2.468,0,0,0,1.055-1.009V49.514H30.935q-2.861,0-3.045,1.978l-.013.224a1.525,1.525,0,0,0,.5,1.173A1.946,1.946,0,0,0,29.749,53.35Zm17.376-8.042a10.351,10.351,0,0,0-1.371-.105,2.791,2.791,0,0,0-2.834,1.463V56h-3.81V41.735h3.6l.105,1.7a3.53,3.53,0,0,1,3.177-1.964,3.992,3.992,0,0,1,1.187.171Zm4.944,4.812a7.931,7.931,0,0,1,.448-2.943,6.037,6.037,0,0,1,1.641-2.158,8.392,8.392,0,0,0,1.589-1.729,2.715,2.715,0,0,0,.4-1.406q0-2.232-2.057-2.232a2.083,2.083,0,0,0-1.562.6,2.362,2.362,0,0,0-.613,1.658H48.087a5.085,5.085,0,0,1,1.628-3.946,6.339,6.339,0,0,1,4.37-1.425,6.366,6.366,0,0,1,4.337,1.353,4.812,4.812,0,0,1,1.542,3.82,4.651,4.651,0,0,1-.5,2.118,8.726,8.726,0,0,1-1.753,2.21l-1.068,1.016A3.62,3.62,0,0,0,55.5,49.315l-.053.805Zm-.382,4.041a1.919,1.919,0,0,1,.6-1.452,2.349,2.349,0,0,1,3.072,0,2.05,2.05,0,0,1,.013,2.884,2.406,2.406,0,0,1-3.1,0A1.9,1.9,0,0,1,51.686,54.161Z" transform="translate(916 1110.916)" fill="#1b3f5e"/>
    <path id="Trazado_218356" data-name="Trazado 218356" d="M-47.362-8.49a8.181,8.181,0,0,1-.409,2.837,5.511,5.511,0,0,1-1.457,2.059,15.366,15.366,0,0,0-1.424,1.452,3.786,3.786,0,0,0-.567.964,2.911,2.911,0,0,0-.191,1.07,1.814,1.814,0,0,0,2.03,2.073,2.193,2.193,0,0,0,1.615-.595A2.325,2.325,0,0,0-47.138-.3h3.81a5.09,5.09,0,0,1-1.622,3.952,6.333,6.333,0,0,1-4.364,1.419,6.482,6.482,0,0,1-4.364-1.339,4.767,4.767,0,0,1-1.556-3.82A5.882,5.882,0,0,1-53.216-4.2l1.279-1.227a3.381,3.381,0,0,0,.916-1.24,5.439,5.439,0,0,0,.283-1.821Zm.475-4.028a1.888,1.888,0,0,1-.606,1.445,2.156,2.156,0,0,1-1.529.565,2.156,2.156,0,0,1-1.529-.565,1.888,1.888,0,0,1-.606-1.445,1.919,1.919,0,0,1,.587-1.445,2.139,2.139,0,0,1,1.549-.565,2.139,2.139,0,0,1,1.549.565A1.919,1.919,0,0,1-46.887-12.518Zm16.73,8.563h-6.935L-38.41,0h-4.206l7.146-19.2h3.665L-24.62,0h-4.206Zm-5.867-3.2h4.8l-2.413-7.185Zm19.077-.105a8.527,8.527,0,0,1,1.5-5.313,4.892,4.892,0,0,1,4.107-1.951,4.38,4.38,0,0,1,3.652,1.753l.25-1.49h3.349V5.484H-7.917v-6.71A4.392,4.392,0,0,1-11.371.264a4.856,4.856,0,0,1-4.061-1.978A8.945,8.945,0,0,1-16.948-7.264Zm3.81.27a5.593,5.593,0,0,0,.719,3.116A2.3,2.3,0,0,0-10.4-2.808a2.562,2.562,0,0,0,2.479-1.4v-5.9a2.541,2.541,0,0,0-2.452-1.347,2.328,2.328,0,0,0-2.043,1.07A6.177,6.177,0,0,0-13.137-6.994ZM7.442-1.45A4.778,4.778,0,0,1,3.54.264,4.506,4.506,0,0,1,.04-1.055,5.628,5.628,0,0,1-1.193-4.917v-9.347h3.81v9.226q0,2.23,2.03,2.23A2.751,2.751,0,0,0,7.31-4.154v-10.11h3.823V0H7.548ZM18.029,0H14.205V-14.265h3.823ZM13.981-17.956a1.876,1.876,0,0,1,.573-1.411,2.154,2.154,0,0,1,1.562-.554,2.159,2.159,0,0,1,1.556.554,1.865,1.865,0,0,1,.58,1.411,1.871,1.871,0,0,1-.587,1.424,2.165,2.165,0,0,1-1.549.554,2.165,2.165,0,0,1-1.549-.554A1.871,1.871,0,0,1,13.981-17.956ZM27.732.264a7,7,0,0,1-5.109-1.925A6.842,6.842,0,0,1,20.652-6.79v-.369A8.617,8.617,0,0,1,21.483-11a6.1,6.1,0,0,1,2.353-2.61,6.605,6.605,0,0,1,3.474-.916,5.92,5.92,0,0,1,4.608,1.846A7.5,7.5,0,0,1,33.6-7.449v1.556H24.515a3.539,3.539,0,0,0,1.114,2.241,3.368,3.368,0,0,0,2.353.844,4.113,4.113,0,0,0,3.441-1.6l1.872,2.1a5.72,5.72,0,0,1-2.32,1.892A7.613,7.613,0,0,1,27.732.264ZM27.3-11.457a2.381,2.381,0,0,0-1.839.768,3.977,3.977,0,0,0-.9,2.2h5.3v-.3a2.837,2.837,0,0,0-.686-1.966A2.456,2.456,0,0,0,27.3-11.457Zm.343-8.793h4.153L28.14-16.163h-3.1Zm11.628,5.985.119,1.648a4.98,4.98,0,0,1,4.1-1.912A4.139,4.139,0,0,1,46.861-13.2a6.213,6.213,0,0,1,1.134,3.981V0h-3.81V-9.123a2.472,2.472,0,0,0-.527-1.76A2.361,2.361,0,0,0,41.9-11.43a2.621,2.621,0,0,0-2.413,1.371V0h-3.81V-14.265ZM-50.17,25.192a2.5,2.5,0,0,0,1.714-.58,2.032,2.032,0,0,0,.686-1.542H-44.2a4.887,4.887,0,0,1-.791,2.656A5.219,5.219,0,0,1-47.118,27.6a6.664,6.664,0,0,1-2.986.666,6.193,6.193,0,0,1-4.825-1.945A7.7,7.7,0,0,1-56.7,20.947V20.7a7.607,7.607,0,0,1,1.753-5.26,6.121,6.121,0,0,1,4.812-1.964,6,6,0,0,1,4.291,1.523A5.391,5.391,0,0,1-44.2,19.048h-3.573a2.618,2.618,0,0,0-.686-1.809,2.286,2.286,0,0,0-1.74-.7,2.3,2.3,0,0,0-2.01.97,5.624,5.624,0,0,0-.679,3.149v.4a5.7,5.7,0,0,0,.672,3.169A2.324,2.324,0,0,0-50.17,25.192Zm7.554-4.456a8.46,8.46,0,0,1,.817-3.784,5.984,5.984,0,0,1,2.353-2.571,6.866,6.866,0,0,1,3.566-.91,6.5,6.5,0,0,1,4.713,1.767,7.09,7.09,0,0,1,2.037,4.8l.026.976a7.456,7.456,0,0,1-1.833,5.267,6.37,6.37,0,0,1-4.917,1.984,6.4,6.4,0,0,1-4.924-1.978,7.587,7.587,0,0,1-1.839-5.379Zm3.81.27a5.332,5.332,0,0,0,.765,3.109,2.522,2.522,0,0,0,2.188,1.076,2.528,2.528,0,0,0,2.162-1.063,5.834,5.834,0,0,0,.778-3.4,5.279,5.279,0,0,0-.778-3.09,2.528,2.528,0,0,0-2.188-1.1,2.487,2.487,0,0,0-2.162,1.089A5.933,5.933,0,0,0-38.806,21.006Zm15.623-7.271.119,1.6a5.013,5.013,0,0,1,4.1-1.859,3.8,3.8,0,0,1,3.784,2.175A4.9,4.9,0,0,1-10.9,13.472a4.255,4.255,0,0,1,3.454,1.351A6.211,6.211,0,0,1-6.308,18.89V28h-3.823V18.9a2.716,2.716,0,0,0-.475-1.773,2.1,2.1,0,0,0-1.674-.56A2.378,2.378,0,0,0-14.654,18.2l.013,9.8h-3.81V18.917a2.683,2.683,0,0,0-.488-1.793A2.124,2.124,0,0,0-20.6,16.57a2.469,2.469,0,0,0-2.347,1.345V28h-3.81V13.735ZM9.459,21a8.555,8.555,0,0,1-1.5,5.28,4.8,4.8,0,0,1-4.041,1.984,4.444,4.444,0,0,1-3.494-1.5v6.724h-3.81V13.735H.152l.132,1.4A4.478,4.478,0,0,1,3.9,13.472,4.83,4.83,0,0,1,8,15.423,8.787,8.787,0,0,1,9.459,20.8Zm-3.81-.277a5.614,5.614,0,0,0-.705-3.072,2.3,2.3,0,0,0-2.05-1.081A2.5,2.5,0,0,0,.428,17.941v5.84A2.537,2.537,0,0,0,2.92,25.192Q5.649,25.192,5.649,20.723Zm14.186-3.415a10.351,10.351,0,0,0-1.371-.105,2.791,2.791,0,0,0-2.834,1.463V28h-3.81V13.735h3.6l.105,1.7A3.53,3.53,0,0,1,18.7,13.472a3.992,3.992,0,0,1,1.187.171ZM29.538,28a4.231,4.231,0,0,1-.382-1.279,4.61,4.61,0,0,1-3.6,1.542,5.065,5.065,0,0,1-3.474-1.213A3.9,3.9,0,0,1,20.7,23.992a4.031,4.031,0,0,1,1.681-3.48,8.294,8.294,0,0,1,4.858-1.226H29v-.817a2.351,2.351,0,0,0-.508-1.582,2,2,0,0,0-1.6-.593,2.27,2.27,0,0,0-1.51.461,1.568,1.568,0,0,0-.547,1.266h-3.81a3.827,3.827,0,0,1,.765-2.294,5.054,5.054,0,0,1,2.162-1.655,7.88,7.88,0,0,1,3.138-.6A6.225,6.225,0,0,1,31.271,14.8a4.635,4.635,0,0,1,1.549,3.724V24.7a6.82,6.82,0,0,0,.567,3.072V28Zm-3.151-2.65a3.281,3.281,0,0,0,1.556-.376A2.468,2.468,0,0,0,29,23.966V21.514H27.573q-2.861,0-3.045,1.978l-.013.224a1.525,1.525,0,0,0,.5,1.173A1.946,1.946,0,0,0,26.387,25.35Zm17.376-8.042a10.351,10.351,0,0,0-1.371-.105,2.791,2.791,0,0,0-2.834,1.463V28h-3.81V13.735h3.6l.105,1.7a3.53,3.53,0,0,1,3.177-1.964,3.992,3.992,0,0,1,1.187.171Zm4.944,4.812a7.931,7.931,0,0,1,.448-2.943A6.037,6.037,0,0,1,50.8,17.02a8.392,8.392,0,0,0,1.589-1.729,2.715,2.715,0,0,0,.4-1.406q0-2.232-2.057-2.232a2.083,2.083,0,0,0-1.562.6,2.362,2.362,0,0,0-.613,1.658H44.725a5.085,5.085,0,0,1,1.628-3.946,6.339,6.339,0,0,1,4.37-1.425,6.366,6.366,0,0,1,4.337,1.353,4.812,4.812,0,0,1,1.542,3.82,4.651,4.651,0,0,1-.5,2.118,8.726,8.726,0,0,1-1.753,2.21l-1.068,1.016a3.62,3.62,0,0,0-1.147,2.256l-.053.805Zm-.382,4.041a1.919,1.919,0,0,1,.6-1.452,2.349,2.349,0,0,1,3.072,0,2.05,2.05,0,0,1,.013,2.884,2.406,2.406,0,0,1-3.1,0A1.9,1.9,0,0,1,48.324,26.161Z" transform="translate(1173 1113.915)" fill="#1b3f5e"/>
  </g>
</svg>
