<svg xmlns="http://www.w3.org/2000/svg" xmlns:xlink="http://www.w3.org/1999/xlink" width="400" height="301.944" viewBox="0 0 400 301.944">
  <defs>
    <linearGradient id="linear-gradient" x1="-7.073" y1="0.5" x2="20.349" y2="0.5" gradientUnits="objectBoundingBox">
      <stop offset="0" stop-color="#aa80f9"/>
      <stop offset="0.996" stop-color="#6165d7"/>
    </linearGradient>
    <linearGradient id="linear-gradient-4" x1="338.806" y1="-22.665" x2="339.802" y2="-22.665" gradientUnits="objectBoundingBox">
      <stop offset="0" stop-color="#444b8c"/>
      <stop offset="0.996" stop-color="#26264f"/>
    </linearGradient>
    <linearGradient id="linear-gradient-5" x1="870.09" y1="0.5" x2="871.09" y2="0.5" gradientUnits="objectBoundingBox">
      <stop offset="0" stop-color="#ffc444"/>
      <stop offset="0.996" stop-color="#f36f56"/>
    </linearGradient>
    <linearGradient id="linear-gradient-6" x1="348.724" y1="-262.901" x2="349.687" y2="-262.901" xlink:href="#linear-gradient-4"/>
    <linearGradient id="linear-gradient-7" x1="690.342" y1="0.5" x2="691.342" y2="0.5" xlink:href="#linear-gradient-5"/>
    <linearGradient id="linear-gradient-8" x1="-113.301" y1="0.836" x2="-114.102" y2="0.171" gradientUnits="objectBoundingBox">
      <stop offset="0" stop-color="#40447e"/>
      <stop offset="0.996" stop-color="#3c3b6b"/>
    </linearGradient>
    <linearGradient id="linear-gradient-9" x1="-174.555" y1="-3.744" x2="-175.689" y2="-4.392" xlink:href="#linear-gradient-8"/>
    <linearGradient id="linear-gradient-10" x1="-89.769" y1="3.338" x2="-89.89" y2="0.667" gradientUnits="objectBoundingBox">
      <stop offset="0" stop-color="#311944"/>
      <stop offset="1" stop-color="#893976"/>
    </linearGradient>
    <linearGradient id="linear-gradient-11" x1="-258.33" y1="-0.345" x2="-258.204" y2="1.229" xlink:href="#linear-gradient-10"/>
    <linearGradient id="linear-gradient-12" x1="278.2" y1="0.5" x2="279.199" y2="0.5" xlink:href="#linear-gradient-5"/>
    <linearGradient id="linear-gradient-13" x1="-71.988" y1="0.691" x2="-72.177" y2="0.249" xlink:href="#linear-gradient-4"/>
    <linearGradient id="linear-gradient-14" x1="-73.695" y1="1.422" x2="-73.274" y2="0.015" xlink:href="#linear-gradient-10"/>
    <linearGradient id="linear-gradient-15" x1="-79.945" y1="0.5" x2="-78.945" y2="0.5" xlink:href="#linear-gradient-10"/>
    <linearGradient id="linear-gradient-16" x1="399.149" y1="0.5" x2="400.149" y2="0.5" xlink:href="#linear-gradient-5"/>
    <linearGradient id="linear-gradient-17" x1="156.329" y1="0.002" x2="156.233" y2="1.962" xlink:href="#linear-gradient-5"/>
    <linearGradient id="linear-gradient-18" x1="321.526" y1="0.5" x2="322.526" y2="0.5" xlink:href="#linear-gradient-5"/>
    <linearGradient id="linear-gradient-19" x1="1460.459" y1="0.5" x2="1461.46" y2="0.5" xlink:href="#linear-gradient-5"/>
  </defs>
  <g id="Grupo_145081" data-name="Grupo 145081" transform="translate(-285 -2090.999)">
    <path id="Trazado_215227" data-name="Trazado 215227" d="M96.729,401.862s-36.757-58.4.526-130.978c34.572-67.3,88.086-35.013,121.826-96.795,85.481-156.529,267.953-36.2,240.576,96.836C446.408,335.3,499.978,337.644,472.682,402Z" transform="translate(204.452 1990.943)" fill="#f0f8ff"/>
    <g id="Grupo_142855" data-name="Grupo 142855" transform="translate(125.42 1990.719)">
      <g id="Grupo_142844" data-name="Grupo 142844">
        <path id="Trazado_215229" data-name="Trazado 215229" d="M407.535,113.586l-171.933-5.3c-8.332-.257-15.126,5.816-15.126,13.565V366.837c0,7.748,6.794,13.518,15.126,12.889l171.933-12.973a14.216,14.216,0,0,0,13.009-13.919V126.925A13.457,13.457,0,0,0,407.535,113.586Z" fill="#d84318"/>
        <path id="Trazado_215230" data-name="Trazado 215230" d="M225.325,367.955V120.519c0-4.46,3.907-7.961,8.71-7.822L408.9,117.78a7.757,7.757,0,0,1,7.51,7.691v229a8.2,8.2,0,0,1-7.51,8.026L234.035,375.388C229.232,375.742,225.325,372.414,225.325,367.955Z" fill="#d84318"/>
        <path id="Trazado_215231" data-name="Trazado 215231" d="M407.535,113.586l-171.933-5.3c-8.332-.257-15.126,5.816-15.126,13.565v10.064l200.068,4.289v-9.282A13.457,13.457,0,0,0,407.535,113.586Z" fill="#1b3f5e"/>
        <path id="Trazado_215232" data-name="Trazado 215232" d="M247.334,121.189a4.588,4.588,0,0,1-4.885,4.427,4.885,4.885,0,0,1-4.9-4.68,4.589,4.589,0,0,1,4.9-4.426A4.884,4.884,0,0,1,247.334,121.189Z" fill="#fff"/>
        <path id="Trazado_215233" data-name="Trazado 215233" d="M264.346,121.63a4.541,4.541,0,0,1-4.821,4.4,4.832,4.832,0,0,1-4.838-4.647,4.54,4.54,0,0,1,4.838-4.4A4.832,4.832,0,0,1,264.346,121.63Z" fill="#fff"/>
        <path id="Trazado_215234" data-name="Trazado 215234" d="M281.131,122.064a4.493,4.493,0,0,1-4.756,4.369,4.783,4.783,0,0,1-4.775-4.616,4.494,4.494,0,0,1,4.775-4.368A4.782,4.782,0,0,1,281.131,122.064Z" fill="#fff"/>
        <g id="Grupo_142843" data-name="Grupo 142843">
          <g id="Grupo_142842" data-name="Grupo 142842">
            <g id="Grupo_142841" data-name="Grupo 142841">
              <g id="Grupo_142835" data-name="Grupo 142835">
                <path id="Trazado_215235" data-name="Trazado 215235" d="M318.175,183.084l-70.767-.113a2.011,2.011,0,0,1-2.09-1.918v-4.5a1.994,1.994,0,0,1,2.09-1.9l70.767.4a1.91,1.91,0,0,1,1.945,1.857v4.34A1.894,1.894,0,0,1,318.175,183.084Z" fill="#fff"/>
                <path id="Trazado_215236" data-name="Trazado 215236" d="M250.152,184.668l6.084,22.312a3.362,3.362,0,0,0,3.344,2.369l47.109-.529a3.3,3.3,0,0,0,3.182-2.38l5.737-21.722Zm17.464,21a1.693,1.693,0,0,1-1.733,1.621l-1.654.017a1.657,1.657,0,0,1-1.739-1.589V188.427a1.678,1.678,0,0,1,1.739-1.608h1.654a1.671,1.671,0,0,1,1.733,1.6Zm9.194-.087a1.68,1.68,0,0,1-1.718,1.613l-1.639.017a1.644,1.644,0,0,1-1.723-1.582V188.417a1.665,1.665,0,0,1,1.723-1.6h1.639a1.66,1.66,0,0,1,1.718,1.6Zm9.112-.086a1.669,1.669,0,0,1-1.7,1.606l-1.624.016a1.633,1.633,0,0,1-1.708-1.575V188.407a1.655,1.655,0,0,1,1.708-1.593h1.624a1.647,1.647,0,0,1,1.7,1.588Zm9.03-.086a1.658,1.658,0,0,1-1.687,1.6l-1.61.016a1.621,1.621,0,0,1-1.692-1.568V188.4a1.642,1.642,0,0,1,1.692-1.586h1.61a1.636,1.636,0,0,1,1.687,1.581Zm8.951-.085a1.646,1.646,0,0,1-1.672,1.592l-1.6.016a1.609,1.609,0,0,1-1.677-1.561V188.388a1.63,1.63,0,0,1,1.677-1.579h1.6a1.624,1.624,0,0,1,1.672,1.574Z" fill="#fff"/>
                <g id="Grupo_142834" data-name="Grupo 142834">
                  <g id="Grupo_142832" data-name="Grupo 142832">
                    <path id="Trazado_215237" data-name="Trazado 215237" d="M258.1,172.436a2.746,2.746,0,0,1-3.647-.255,2.247,2.247,0,0,1,.251-3.358,2.745,2.745,0,0,1,3.646.261A2.248,2.248,0,0,1,258.1,172.436Z" fill="#fff"/>
                    <path id="Trazado_215238" data-name="Trazado 215238" d="M280.812,151.235a1.249,1.249,0,0,0-1.637.094l-22.408,17.794c-.562.446-.724,1.122-.361,1.508a1.289,1.289,0,0,0,1.674-.11l22.379-17.8C281.009,152.286,281.166,151.62,280.812,151.235Z" fill="#fff"/>
                  </g>
                  <g id="Grupo_142833" data-name="Grupo 142833">
                    <path id="Trazado_215239" data-name="Trazado 215239" d="M308.1,172.772a2.551,2.551,0,0,0,3.46-.2,2.234,2.234,0,0,0-.237-3.269,2.55,2.55,0,0,0-3.461.195A2.234,2.234,0,0,0,308.1,172.772Z" fill="#fff"/>
                    <path id="Trazado_215240" data-name="Trazado 215240" d="M286,151.325a1.244,1.244,0,0,1,1.627.149l21.744,18.086c.534.444.687,1.1.343,1.475a1.206,1.206,0,0,1-1.592-.131L286.347,152.82C285.8,152.366,285.643,151.7,286,151.325Z" fill="#fff"/>
                  </g>
                </g>
              </g>
              <g id="Grupo_142836" data-name="Grupo 142836">
                <path id="Trazado_215241" data-name="Trazado 215241" d="M400.576,161.809l-72.974-.932v-9.083l72.974,1.265Z" fill="#fff"/>
                <path id="Trazado_215242" data-name="Trazado 215242" d="M400.576,177.128,327.6,176.78V167.7l72.974.681Z" fill="#fff"/>
                <path id="Trazado_215243" data-name="Trazado 215243" d="M400.576,192.446l-72.974.236V183.6l72.974.1Z" fill="#fff"/>
                <path id="Trazado_215244" data-name="Trazado 215244" d="M400.576,207.765l-72.974.82V199.5l72.974-.486Z" fill="#fff"/>
              </g>
              <g id="Grupo_142837" data-name="Grupo 142837">
                <path id="Trazado_215245" data-name="Trazado 215245" d="M374.709,233l-129.39,3.116v-9.459l129.39-2.525Z" fill="#fff"/>
                <path id="Trazado_215246" data-name="Trazado 215246" d="M374.709,248.521l-129.39,4.152v-9.459l129.39-3.56Z" fill="#fff"/>
                <path id="Trazado_215247" data-name="Trazado 215247" d="M374.709,264.046l-129.39,5.187v-9.459l129.39-4.6Z" fill="#fff"/>
                <path id="Trazado_215248" data-name="Trazado 215248" d="M374.709,279.572l-129.39,6.222v-9.459l129.39-5.631Z" fill="#fff"/>
              </g>
              <g id="Grupo_142838" data-name="Grupo 142838">
                <path id="Trazado_215249" data-name="Trazado 215249" d="M400.576,232.372l-17.021.41v-8.827l17.021-.332Z" fill="#fff"/>
                <path id="Trazado_215250" data-name="Trazado 215250" d="M400.576,247.691l-17.021.546v-8.827l17.021-.468Z" fill="#fff"/>
                <path id="Trazado_215251" data-name="Trazado 215251" d="M400.576,263.009l-17.021.682v-8.827l17.021-.6Z" fill="#fff"/>
                <path id="Trazado_215252" data-name="Trazado 215252" d="M400.576,278.328l-17.021.818v-8.827l17.021-.741Z" fill="#fff"/>
              </g>
              <g id="Grupo_142839" data-name="Grupo 142839">
                <path id="Trazado_215253" data-name="Trazado 215253" d="M374.709,304.766l-129.39,7.9v-9.459l129.39-7.31Z" fill="#fff"/>
                <path id="Trazado_215254" data-name="Trazado 215254" d="M374.709,320.292l-129.39,8.937V319.77l129.39-8.346Z" fill="#fff"/>
                <path id="Trazado_215255" data-name="Trazado 215255" d="M374.709,335.818l-129.39,9.972V336.33l129.39-9.381Z" fill="#fff"/>
                <path id="Trazado_215256" data-name="Trazado 215256" d="M374.709,351.343,245.318,362.35v-9.459l129.39-10.416Z" fill="#fff"/>
              </g>
              <g id="Grupo_142840" data-name="Grupo 142840">
                <path id="Trazado_215257" data-name="Trazado 215257" d="M400.576,303.187l-17.021,1.039V295.4l17.021-.962Z" fill="#fff"/>
                <path id="Trazado_215258" data-name="Trazado 215258" d="M400.576,318.505l-17.021,1.176v-8.827l17.021-1.1Z" fill="url(#linear-gradient)"/>
                <path id="Trazado_215259" data-name="Trazado 215259" d="M400.576,333.824l-17.021,1.312v-8.827l17.021-1.234Z" fill="url(#linear-gradient)"/>
                <path id="Trazado_215260" data-name="Trazado 215260" d="M400.576,349.143l-17.021,1.448v-8.827l17.021-1.37Z" fill="url(#linear-gradient)"/>
              </g>
            </g>
          </g>
        </g>
      </g>
      <path id="Trazado_215261" data-name="Trazado 215261" d="M430.227,311.638l-38.809-4.745V249.656l38.809-7.351Z" fill="#fff59d"/>
      <path id="Trazado_215262" data-name="Trazado 215262" d="M477.565,308.623l-47.338,3.016V242.305l47.338,6.535Z" fill="#d84318"/>
      <path id="Trazado_215263" data-name="Trazado 215263" d="M448.071,244.768v28.27l15.759,1.256v-27.35Z" fill="#1b3f5e"/>
      <path id="Trazado_215264" data-name="Trazado 215264" d="M494.572,394.347l-71.994,5.064V293.965l71.994,5.064Z" fill="#d84318"/>
      <path id="Trazado_215265" data-name="Trazado 215265" d="M422.578,399.411l-59.023-7.216V300.7l59.023-6.732Z" fill="#fff59d"/>
      <path id="Trazado_215266" data-name="Trazado 215266" d="M448.064,295.758v42.786h24.122V297.454Z" fill="#1b3f5e"/>
      <g id="Grupo_142851" data-name="Grupo 142851">
        <path id="Trazado_215267" data-name="Trazado 215267" d="M313.853,260c3.325-3.55-5.879-16.887-10.806-22.73-4.3-5.106-8.727-10.353-14.16-9.689-4.769.584-9.41,5.613-9.688,10.434C278.451,250.987,309.127,265.051,313.853,260Z" fill="#1b3f5e"/>
        <path id="Trazado_215268" data-name="Trazado 215268" d="M273.932,397.049c-.626.508-.741,1.779-.816,2.609a2.033,2.033,0,0,0-.009.688c.3.956,2.156,1.056,5.063,1.353,4.593.469,5.96.831,6.32.147.337-.64-.479-1.689-.571-1.805a4.21,4.21,0,0,0-2.27-1.233c-2.167-.713-3.632-1.1-4.075-1.222C274.806,396.847,274.343,396.715,273.932,397.049Z" fill="url(#linear-gradient-4)"/>
        <path id="Trazado_215269" data-name="Trazado 215269" d="M276.664,392.852l.46,5.235a2.844,2.844,0,0,1-2.923.36L273.02,393.3Z" fill="url(#linear-gradient-5)"/>
        <path id="Trazado_215270" data-name="Trazado 215270" d="M310.361,396.376a2.584,2.584,0,0,0-.268,3.1c.641.739,1.605.185,4.339.266,2.929.088,3.694.78,5.684.231.8-.223,2.225-.762,2.2-1.336-.019-.4-.742-.612-3.157-1.421a31.3,31.3,0,0,0-4.141-1.332C313.188,395.586,311.352,395.282,310.361,396.376Z" fill="url(#linear-gradient-6)"/>
        <path id="Trazado_215271" data-name="Trazado 215271" d="M312.238,391.6l1.469,4.886a2.839,2.839,0,0,1-2.886.583l-2.182-4.743Z" fill="url(#linear-gradient-7)"/>
        <path id="Trazado_215272" data-name="Trazado 215272" d="M299.185,284.575A457.751,457.751,0,0,0,313.65,393.021l-5.623,1.513a47.689,47.689,0,0,1-13.648-21.277c-1.8-6.122-1.2-9.268-2.337-16.8-1.815-11.989-5.49-18.27-9.288-27.938a159.083,159.083,0,0,1-9.612-38.481Z" fill="url(#linear-gradient-8)"/>
        <path id="Trazado_215273" data-name="Trazado 215273" d="M282.267,283.008q-1.722,31.329-2.806,63.815-.805,24.372-1.193,48.12l-5.743.71a66.9,66.9,0,0,1-5.991-15.46c-2.044-8.2-1.571-13.066-2.467-21.562-1.006-9.528-2.467-11.6-5.056-23.625-5.254-24.4-7.88-36.593-2.02-44.18C258.893,288.362,264.857,282.183,282.267,283.008Z" fill="url(#linear-gradient-9)"/>
        <path id="Trazado_215274" data-name="Trazado 215274" d="M254.363,230.513a89.187,89.187,0,0,1,19.1-3.19c11.478-.649,17.217-.973,21.284,1.76,9.393,6.313,2.121,20.884,5.966,57,.549,5.158.672,10.353,1.07,15.525.658,8.563.808,9.028.212,9.9-3.736,5.442-17.676-2.766-38.109.478-11.432,1.816-16.617,6-19.749,2.981-3.653-3.517-.519-12.979,2.178-21.124,3.1-9.349,5.008-9.47,6.765-16.511,1.837-7.359.726-11.149.44-22.754A205.551,205.551,0,0,1,254.363,230.513Z" fill="#1b3f5e"/>
        <g id="Grupo_142845" data-name="Grupo 142845">
          <path id="Trazado_215275" data-name="Trazado 215275" d="M282.148,298.322c-5.34-.417-8.805,2.6-13.415.249-6.321-3.227-8.352-13.265-7.949-20.37.612-10.8,6.776-13.641,5.714-20.619-.575-3.774-3.269-8.784-12.943-13.9-.129,4.308-.1,7.98-.032,10.9.286,11.605,1.4,15.395-.44,22.754-1.757,7.041-3.67,7.162-6.765,16.511-2.7,8.145-5.831,17.607-2.178,21.124,3.132,3.017,8.317-1.165,19.749-2.981,17.606-2.795,30.384,2.905,35.975,1.056C293.108,301.877,286.981,298.7,282.148,298.322Z" fill="#1b3f5e"/>
        </g>
        <path id="Trazado_215276" data-name="Trazado 215276" d="M261.648,231.254c-3.814-3.134-11.483.414-13.533,1.362-11.432,5.288-21.7,19.538-19.154,34.6.382,2.258,2.151,12.822,11.1,17.94,8.071,4.619,18.969,3.431,27.7-3.11l3.58-3.177q1.761-1.9,3.522-3.807a28.264,28.264,0,0,0-9.385-5.171c-5.806-1.873-10.033,1.489-12.727-1.067-1.859-1.764-1.863-4.879-1.4-6.768.926-3.805,4.28-4.875,7.08-7.576C265,248.131,266.214,235.006,261.648,231.254Z" fill="#1b3f5e"/>
        <g id="Grupo_142846" data-name="Grupo 142846">
          <path id="Trazado_215277" data-name="Trazado 215277" d="M316.459,280.415l-51.122-.763,13.594,6.561,37.659-2.465Z" fill="url(#linear-gradient-10)"/>
          <path id="Trazado_215278" data-name="Trazado 215278" d="M263.532,281.011h0a2.276,2.276,0,0,0,1.5,2.138l16.335,6.4.075-4.44-16.1-5.461A1.414,1.414,0,0,0,263.532,281.011Z" fill="url(#linear-gradient-11)"/>
        </g>
        <path id="Trazado_215279" data-name="Trazado 215279" d="M271.4,277.986c-.313-.07,1.529-3.741,2.975-3.318s8.52,4.524,9.163,6.211l.643,1.688a15.815,15.815,0,0,1-5-.4C277.272,281.523,273.956,278.555,271.4,277.986Z" fill="url(#linear-gradient-12)"/>
        <g id="Grupo_142848" data-name="Grupo 142848">
          <g id="Grupo_142847" data-name="Grupo 142847">
            <path id="Trazado_215280" data-name="Trazado 215280" d="M282.8,253.962l-3.6,32.811a3.1,3.1,0,0,0,2.6,2.764l52.863-3.245a1.852,1.852,0,0,0,1.739-1.537l6.635-31.689c.2-1.153-1.875-2.344-3.045-2.312l-55.4,1.558A1.853,1.853,0,0,0,282.8,253.962Z" fill="url(#linear-gradient-13)"/>
            <path id="Trazado_215281" data-name="Trazado 215281" d="M284,254.919l-3.6,32.81a1.852,1.852,0,0,0,1.929,2.054l53.532-2.534a1.853,1.853,0,0,0,1.739-1.538l5.469-31.833a1.853,1.853,0,0,0-1.878-2.167l-55.4,1.558A1.853,1.853,0,0,0,284,254.919Z" fill="url(#linear-gradient-14)"/>
          </g>
          <path id="Trazado_215282" data-name="Trazado 215282" d="M315.438,279.561c-4.674-1.981-3.024-5.759-8.544-10.467-7.282-6.21-14.7-3.517-17.3-8.33-.809-1.5-1.2-3.832.214-7.608l-4.012.113a1.853,1.853,0,0,0-1.79,1.65l-3.6,32.81a1.853,1.853,0,0,0,1.929,2.054l53.532-2.534a1.853,1.853,0,0,0,1.739-1.538l.755-4.392a20.23,20.23,0,0,0-5.83-2.186C324.673,277.54,320.819,281.841,315.438,279.561Z" opacity="0.3" fill="url(#linear-gradient-15)" style="mix-blend-mode: multiply;isolation: isolate"/>
        </g>
        <path id="Trazado_215283" data-name="Trazado 215283" d="M339.235,282.66a.418.418,0,0,0-.376-.551c-1.131-.058-3.755-.081-5.2.806-1.882,1.153-4.315,3.256-2.266,4.317l1.914.992a.411.411,0,0,0,.28.038c.68-.149,3.541-.784,3.854-.942C337.722,287.177,338.813,283.939,339.235,282.66Z" fill="url(#linear-gradient-16)"/>
        <g id="Grupo_142850" data-name="Grupo 142850">
          <path id="Trazado_215284" data-name="Trazado 215284" d="M274.323,214.782a39.824,39.824,0,0,1-.71,7.95c-.412,2.118-.708,2.665-1.087,3.108-.569.669-1.432,1.229-6.308,2.438-2.654.658-2.995.64-3.054.9-.285,1.284,6.95,5.662,14.425,4.607,4.575-.646,8.738-3.256,8.482-4.627s-4.827-.639-6.189-3.134c-.947-1.736.115-4.2,1.37-6.242C280.036,217.508,275.539,217.061,274.323,214.782Z" fill="url(#linear-gradient-17)"/>
          <g id="Grupo_142849" data-name="Grupo 142849">
            <path id="Trazado_215285" data-name="Trazado 215285" d="M282.814,216.128a4.812,4.812,0,0,0-.1-5.521,5.241,5.241,0,0,0-3.765-1.673c-2.922-.338-6.61.882-7.893,3.573-.76,1.594.884,4.906,1.142,5.5.291.673.82.9,1.309,1.413.677.706,1.738,1.829,3.47,3.706a12.062,12.062,0,0,1,.664-1.983,10.675,10.675,0,0,1,1.388-2.33C280.556,216.957,281.791,217.487,282.814,216.128Z"/>
            <path id="Trazado_215286" data-name="Trazado 215286" d="M274.51,221.549a6.529,6.529,0,0,0,5.747,2.9c3.425-.223,3.927-7.9,1.739-9.534a4.322,4.322,0,0,0-3.38-.437c-.7.2-.94.488-2.093.788-1.064.276-1.364.158-1.686.428-.4.338-.7,1.167-.025,3.412a1.864,1.864,0,0,0-1.993-.653,1.174,1.174,0,0,0-.457.444C271.884,219.779,272.685,220.9,274.51,221.549Z" fill="url(#linear-gradient-18)"/>
            <path id="Trazado_215287" data-name="Trazado 215287" d="M274.683,215.238c.165.124-.34.74-.378,1.612a4.194,4.194,0,0,0,3.389,3.9c1.034.1,1.318-.521,3.026-.7a7.852,7.852,0,0,1,2.493.144A4.12,4.12,0,0,1,282,224.758c-1.337.924-3.044.363-3.757.129a4.9,4.9,0,0,1-2.807-2.06c-.833-1.462-.016-2.343-.971-3.332-.483-.5-1.116-.715-1.732-1.68a4.833,4.833,0,0,1-.348-.651C273.273,216.228,274.443,215.06,274.683,215.238Z"/>
            <path id="Trazado_215288" data-name="Trazado 215288" d="M281.97,220.879a4.174,4.174,0,0,1-2.018.314c-.063,0-.131.015-.139.047a1.572,1.572,0,0,0,1.546.453c.537-.151.954-.659.882-.788C282.21,220.85,282.089,220.857,281.97,220.879Z" fill="url(#linear-gradient-19)"/>
          </g>
        </g>
      </g>
      <g id="Grupo_142853" data-name="Grupo 142853">
        <g id="Grupo_142852" data-name="Grupo 142852">
          <path id="Trazado_215289" data-name="Trazado 215289" d="M358.225,398.059a20.327,20.327,0,0,1-9.572-3.166c-3.626-2.37-8.348-7.241-7.115-10.311a3.278,3.278,0,0,1,2.949-2.034c1.721.138,1.921,2.528,4.909,5.128.552.48,3.407,2.964,4.826,2.127a2.557,2.557,0,0,0,.8-2.446c-.337-2.563-3.466-2.956-6.475-5.731-3.05-2.813-5.593-7.721-4.139-11.039.835-1.906,3.044-3.412,4.5-2.989.621.181,1.014.688,2.9,4.759,1.546,3.341,1.89,4.315,2.887,4.632a3.027,3.027,0,0,0,3.229-1.094c1.58-2.634-5.247-6.522-5.867-13.892-.278-3.3.615-8.2,3.606-9.247a5.407,5.407,0,0,1,5.944,2.229c.939,1.672-.2,2.93.515,6.686.217,1.14.664,3.486,1.608,3.609,1.108.145,2.348-2.846,2.634-3.575,2.157-5.484-.316-8.3,1.718-10.966,1.586-2.076,5.037-2.91,7.771-1.861a6.956,6.956,0,0,1,4.434,5.776c.13,2.516-1.986,5.021-6.218,10.03-2.007,2.375-3.6,3.98-3.513,6.341.044,1.151.5,2.77,1.325,2.918,1.819.326,2.715-7,7.027-8.132a5.885,5.885,0,0,1,6.156,2.549c1.476,2.437.487,5.893-1.368,7.709-2.421,2.371-4.9.569-9.458,3.116-2.021,1.129-5.2,3.532-4.731,5.519a2.58,2.58,0,0,0,2.1,1.825c2.231.254,2.968-3.4,6.554-5.009,2.584-1.158,6.157-1.033,7.005.424,1.2,2.057-3.057,6.728-5.319,8.791C377.111,393.23,370.661,397.961,358.225,398.059Z" fill="#1b3f5e"/>
          <path id="Trazado_215290" data-name="Trazado 215290" d="M359.45,396.887c-.36-6.114,3.69-18.568,6.636-24.456a117.584,117.584,0,0,0,5.669-14.967l.18.054a118.2,118.2,0,0,1-5.681,15c-2.937,5.869-6.975,18.278-6.617,24.361Z" fill="#fff" opacity="0.5"/>
        </g>
        <path id="Trazado_215291" data-name="Trazado 215291" d="M351.792,398.856a29.577,29.577,0,0,1-5.61-14.887c-.222-2.838-.657-8.381,2.733-13.162,1.69-2.383,5.274-5.908,7.7-4.891,1.558.654,2.526,3.142,2.086,5.035s-2.056,2.084-3.812,5.322c-.65,1.2-1.392,2.6-.822,3.4a2.513,2.513,0,0,0,2.766.386c2.026-.822,1.393-3.345,3.584-5.155,1.558-1.286,4.155-1.891,5.275-.837.973.915.8,3.053-.056,4.478-1.377,2.282-3.845,1.612-5.455,4.107-.714,1.107-1.222,2.779-.6,3.439.712.754,2.808.1,4.151-.73,1.773-1.1,1.839-2.269,3.007-2.416a3.246,3.246,0,0,1,3.185,2.45c.357,1.922-2,3.995-3.868,4.895-2.391,1.153-4.167.477-5.335,2.052-.428.578-.821,1.522-.47,2.1.5.817,2.314.547,3.517.368,2.928-.436,3.734-1.5,4.783-.982a3.056,3.056,0,0,1,1.151,3.524c-.255.688-1.022,1.753-4.823,2.42A28.828,28.828,0,0,1,351.792,398.856Z" fill="#1b3f5e"/>
      </g>
      <g id="Grupo_142854" data-name="Grupo 142854">
        <path id="Trazado_215292" data-name="Trazado 215292" d="M498.686,186.688c0,25.238-20.337,47.057-45.5,48.739-25.25,1.688-45.782-17.526-45.782-42.92s20.532-47.225,45.782-48.756C478.349,142.225,498.686,161.45,498.686,186.688Z" fill="#1b3f5e"/>
        <path id="Trazado_215293" data-name="Trazado 215293" d="M451.578,214.393a5.244,5.244,0,0,1-4.845-2.436l-17.2-27.628a5.9,5.9,0,0,1,1.94-7.92,5.476,5.476,0,0,1,7.77,1.456l11.933,19.178,15.744-32.065a5.9,5.9,0,0,1,7.58-2.95,5.435,5.435,0,0,1,2.464,7.466l-20.346,41.471a6.135,6.135,0,0,1-4.836,3.412C451.711,214.383,451.644,214.389,451.578,214.393Z" fill="#fff"/>
      </g>
    </g>
  </g>
</svg>
