<svg xmlns="http://www.w3.org/2000/svg" xmlns:xlink="http://www.w3.org/1999/xlink" width="400" height="292.435" viewBox="0 0 400 292.435">
  <defs>
    <linearGradient id="linear-gradient" x1="3.909" y1="-0.166" x2="-14.136" y2="3.358" gradientUnits="objectBoundingBox">
      <stop offset="0" stop-color="#09005d"/>
      <stop offset="1" stop-color="#1a0f91"/>
    </linearGradient>
    <linearGradient id="linear-gradient-2" x1="4.356" y1="-0.086" x2="-18.41" y2="3.376" xlink:href="#linear-gradient"/>
    <linearGradient id="linear-gradient-3" x1="3.51" y1="-0.015" x2="-16.712" y2="3.448" xlink:href="#linear-gradient"/>
    <linearGradient id="linear-gradient-4" x1="2.086" y1="0.121" x2="-11.608" y2="3.397" xlink:href="#linear-gradient"/>
    <linearGradient id="linear-gradient-5" x1="3.456" y1="0.175" x2="-28.547" y2="3.699" xlink:href="#linear-gradient"/>
    <linearGradient id="linear-gradient-6" x1="2.067" y1="0.227" x2="-18.148" y2="3.744" xlink:href="#linear-gradient"/>
    <linearGradient id="linear-gradient-7" x1="3.137" y1="-0.19" x2="-8.859" y2="2.95" xlink:href="#linear-gradient"/>
    <linearGradient id="linear-gradient-8" x1="3.532" y1="-0.165" x2="-12.52" y2="3.355" xlink:href="#linear-gradient"/>
    <linearGradient id="linear-gradient-9" x1="3.939" y1="-0.087" x2="-16.365" y2="3.38" xlink:href="#linear-gradient"/>
    <linearGradient id="linear-gradient-10" x1="3.181" y1="-0.015" x2="-14.832" y2="3.448" xlink:href="#linear-gradient"/>
    <linearGradient id="linear-gradient-11" x1="1.92" y1="0.119" x2="-10.337" y2="3.411" xlink:href="#linear-gradient"/>
    <linearGradient id="linear-gradient-12" x1="3.142" y1="0.173" x2="-25.469" y2="3.711" xlink:href="#linear-gradient"/>
    <linearGradient id="linear-gradient-13" x1="1.896" y1="0.227" x2="-16.111" y2="3.744" xlink:href="#linear-gradient"/>
    <linearGradient id="linear-gradient-14" x1="2.855" y1="-0.192" x2="-7.858" y2="2.957" xlink:href="#linear-gradient"/>
    <linearGradient id="linear-gradient-15" x1="-1742.396" y1="-0.843" x2="-1742.902" y2="2.39" gradientUnits="objectBoundingBox">
      <stop offset="0" stop-color="#febbba"/>
      <stop offset="1" stop-color="#ff928e"/>
    </linearGradient>
    <linearGradient id="linear-gradient-16" x1="-1613.586" y1="-34.99" x2="-1614.066" y2="-32.275" xlink:href="#linear-gradient-15"/>
    <linearGradient id="linear-gradient-17" x1="-304.28" y1="0.5" x2="-303.28" y2="0.5" xlink:href="#linear-gradient-15"/>
    <linearGradient id="linear-gradient-18" x1="0.144" y1="-0.404" x2="0.723" y2="1.085" xlink:href="#linear-gradient-15"/>
    <linearGradient id="linear-gradient-19" x1="-803.075" y1="-1.182" x2="-803.686" y2="0.558" xlink:href="#linear-gradient-15"/>
    <linearGradient id="linear-gradient-20" x1="0.45" y1="0.138" x2="1.422" y2="5.009" xlink:href="#linear-gradient-15"/>
    <linearGradient id="linear-gradient-21" x1="-576.489" y1="1.219" x2="-576.098" y2="0.33" xlink:href="#linear-gradient-15"/>
    <linearGradient id="linear-gradient-22" x1="-175.678" y1="0.45" x2="-176.57" y2="4.043" xlink:href="#linear-gradient-15"/>
    <linearGradient id="linear-gradient-23" x1="-558.522" y1="0.277" x2="-560.781" y2="1.877" xlink:href="#linear-gradient-15"/>
    <linearGradient id="linear-gradient-24" x1="-404.997" y1="0.152" x2="-404.248" y2="1.129" xlink:href="#linear-gradient"/>
    <linearGradient id="linear-gradient-25" x1="-2289.832" y1="-0.685" x2="-2294.383" y2="1.784" xlink:href="#linear-gradient-15"/>
    <linearGradient id="linear-gradient-26" x1="-1237.858" y1="0.5" x2="-1236.858" y2="0.5" xlink:href="#linear-gradient-15"/>
    <linearGradient id="linear-gradient-27" x1="-524.198" y1="0.833" x2="-524.478" y2="-0.234" xlink:href="#linear-gradient-15"/>
    <linearGradient id="linear-gradient-28" x1="1.284" y1="-1.094" x2="0.987" y2="-0.496" xlink:href="#linear-gradient"/>
    <linearGradient id="linear-gradient-29" x1="-280.819" y1="-51.045" x2="-281.786" y2="-50.511" gradientUnits="objectBoundingBox">
      <stop offset="0" stop-color="#ff928e"/>
      <stop offset="1" stop-color="#fe7062"/>
    </linearGradient>
    <linearGradient id="linear-gradient-30" x1="0.488" y1="0.003" x2="0.512" y2="0.997" gradientUnits="objectBoundingBox">
      <stop offset="0" stop-color="#e1473d"/>
      <stop offset="1" stop-color="#e9605a"/>
    </linearGradient>
    <linearGradient id="linear-gradient-31" x1="-426.587" y1="0.148" x2="-427.331" y2="1.392" xlink:href="#linear-gradient-15"/>
    <linearGradient id="linear-gradient-32" x1="205.941" y1="475.889" x2="204.868" y2="477.17" xlink:href="#linear-gradient-15"/>
    <linearGradient id="linear-gradient-33" x1="145.385" y1="315.602" x2="146.292" y2="315.602" xlink:href="#linear-gradient"/>
    <linearGradient id="linear-gradient-34" x1="584.204" y1="1581.826" x2="586.662" y2="1579.177" xlink:href="#linear-gradient-15"/>
    <linearGradient id="linear-gradient-35" x1="453.783" y1="0.5" x2="454.783" y2="0.5" xlink:href="#linear-gradient-15"/>
    <linearGradient id="linear-gradient-36" x1="379.74" y1="0.5" x2="380.74" y2="0.5" xlink:href="#linear-gradient-15"/>
    <linearGradient id="linear-gradient-37" x1="0" y1="0.5" x2="1" y2="0.5" xlink:href="#linear-gradient"/>
    <linearGradient id="linear-gradient-44" x1="1.488" y1="-2.975" x2="0.995" y2="-1.43" xlink:href="#linear-gradient"/>
    <linearGradient id="linear-gradient-45" x1="1.346" y1="-16.302" x2="0.907" y2="-7.585" xlink:href="#linear-gradient"/>
    <linearGradient id="linear-gradient-46" x1="0.605" y1="-1.097" x2="0.443" y2="1.088" xlink:href="#linear-gradient-30"/>
    <linearGradient id="linear-gradient-47" x1="0.743" y1="-2.784" x2="0.633" y2="-1.29" xlink:href="#linear-gradient-29"/>
    <linearGradient id="linear-gradient-48" x1="0.606" y1="-1.097" x2="0.443" y2="1.088" xlink:href="#linear-gradient-30"/>
    <linearGradient id="linear-gradient-49" x1="0.945" y1="-1.388" x2="0.669" y2="-0.215" xlink:href="#linear-gradient-29"/>
    <linearGradient id="linear-gradient-50" x1="0.462" y1="0.044" x2="0.676" y2="2.642" xlink:href="#linear-gradient-29"/>
    <linearGradient id="linear-gradient-51" x1="0.606" y1="-1.097" x2="0.443" y2="1.088" xlink:href="#linear-gradient-30"/>
    <linearGradient id="linear-gradient-52" x1="0.439" y1="-1.443" x2="0.552" y2="2.145" xlink:href="#linear-gradient-29"/>
    <linearGradient id="linear-gradient-53" x1="0.606" y1="-1.097" x2="0.443" y2="1.088" xlink:href="#linear-gradient-30"/>
    <linearGradient id="linear-gradient-54" x1="1.365" y1="-1.835" x2="1.144" y2="-1.238" xlink:href="#linear-gradient-29"/>
    <linearGradient id="linear-gradient-55" x1="0.548" y1="-1.432" x2="0.526" y2="-0.535" xlink:href="#linear-gradient-29"/>
  </defs>
  <g id="Grupo_145084" data-name="Grupo 145084" transform="translate(-10944.5 9609)">
    <g id="Grupo_145083" data-name="Grupo 145083">
      <g id="Grupo_142827" data-name="Grupo 142827" transform="translate(-1512.5 0.999)">
        <g id="Grupo_145082" data-name="Grupo 145082">
          <path id="Trazado_215228" data-name="Trazado 215228" d="M96.729,391.358s-36.757-56.366.526-126.42c34.572-64.961,88.086-33.794,121.826-93.426,85.481-151.082,267.953-34.938,240.576,93.465-13.248,62.139,40.322,64.4,13.026,126.512Z" transform="translate(12376.452 -9709.055)" fill="#f0f8ff"/>
        </g>
      </g>
    </g>
    <g id="Grupo_142928" data-name="Grupo 142928" transform="translate(10819.323 -9712.457)">
      <g id="Grupo_142856" data-name="Grupo 142856">
        <path id="Trazado_215294" data-name="Trazado 215294" d="M257.382,105.058a1.577,1.577,0,0,1,2.842-.963c9.274,12.438,30.457,48.515,14.051,102.053-20.585,67.172-10.741,94.771,4.343,113.222,0,0-23.171-11.538-34.029-39.7C217.928,210.533,258.035,132.218,257.382,105.058Z" fill="#1b3f5e"/>
        <path id="Trazado_215295" data-name="Trazado 215295" d="M262.04,128.012c.033,7.891-.09,15.779-.5,23.652q-.555,11.81-1.83,23.559c-.882,7.824-1.911,15.63-3.27,23.381-1.324,7.757-2.979,15.448-4.669,23.164-1.645,7.722-3.346,15.491-4.257,23.457a80.045,80.045,0,0,0,.614,24.077c.379,1.979.8,3.959,1.325,5.895.494,1.946,1.074,3.872,1.688,5.786a83.033,83.033,0,0,0,18.158,31,1.526,1.526,0,0,0,2.283-2.024l0,0c-1.272-1.475-2.526-2.962-3.709-4.5-.6-.76-1.173-1.545-1.756-2.319-.554-.8-1.139-1.569-1.667-2.38a80.407,80.407,0,0,1-5.789-10.05,88.139,88.139,0,0,1-7.228-22.013,76.758,76.758,0,0,1-1.2-11.509,86.95,86.95,0,0,1,.5-11.61c.825-7.743,2.446-15.447,4.035-23.179s3.115-15.522,4.327-23.358q.924-5.874,1.637-11.777c.249-1.965.46-3.936.675-5.9q.293-2.958.548-5.917.988-11.844,1.245-23.722c.13-7.914.049-15.83-.336-23.729a.409.409,0,0,0-.818.022Z" fill="#1b3f5e" style="mix-blend-mode: soft-light;isolation: isolate"/>
      </g>
      <g id="Grupo_142858" data-name="Grupo 142858">
        <g id="Grupo_142857" data-name="Grupo 142857">
          <path id="Trazado_215296" data-name="Trazado 215296" d="M251.363,321.671a3.965,3.965,0,0,1-6.439,1.365c-11.175-10.791-40.012-44.157-35.434-97.589,3.866-45.121,1.675-69.954-.1-81.159a2.486,2.486,0,0,1,4.2-2.158C232.448,160.7,289.035,226.865,251.363,321.671Z" fill="#1b3f5e"/>
          <path id="Trazado_215297" data-name="Trazado 215297" d="M247.552,321.576a1.1,1.1,0,0,1-1.608-.544c-.244-.644-24.357-65.074-21.815-128.054a1.1,1.1,0,1,1,2.2.089C223.8,255.589,247.757,319.613,248,320.253A1.1,1.1,0,0,1,247.552,321.576Z" fill="#1b3f5e" style="mix-blend-mode: soft-light;isolation: isolate"/>
        </g>
      </g>
      <g id="Grupo_142861" data-name="Grupo 142861">
        <ellipse id="Elipse_5481" data-name="Elipse 5481" cx="126.659" cy="136.716" rx="126.659" ry="136.716" transform="translate(217.102 375.174) rotate(-87.486)" fill="#b0c0d2"/>
        <path id="Trazado_215298" data-name="Trazado 215298" d="M256.105,170.72c-3,4.817-5.314,10.241-4.88,15.9.5,6.553,3.82,12.689,3.99,19.259.288,11.142-8.313,20.468-11,31.286-3,12.092,8.308,25.869,12.813,32.618s2.569-5.476,5.3-10.243,8.622,20.058,17.823,25.507c4.937,2.923,10.729,4.869,14.279,9.376,5.179,6.573,3.744,15.926,2.966,24.258s.387,18.485,7.891,22.189c4.418,2.18,10.034,1.442,14.021,4.337,7,5.084,3.657,16.167,6.431,24.363,3.018,8.913,9,9.03,18.257,10.92s-1.167-18.446,3.17-25.553c2.279-3.736,5.758-6.709,7.556-10.7,2.493-5.533,1.791-12.926,6.627-16.593,3.625-2.748,8.669-2,13.218-2.045s10.082-2.014,10.6-6.533c.458-4.011-3.557-7.209-7.485-8.138s-8.113-.486-11.971-1.674c-11.034-3.4-16.181-18.838-27.7-19.56-9.85-.618-18.1,10.438-27.777,8.507-5.4-1.077-9.089-5.855-13.094-9.627-5.145-4.846-11.53-8.483-15.614-14.251s-4.78-14.987,1.031-19.01c4.316-2.988,10.45-1.775,14.714,1.287s7.169,7.607,10.3,11.82a7.827,7.827,0,0,0,3.61,3.135c4.164,1.3,7.2-4.555,6.206-8.8s-4-7.985-4.138-12.346c-.249-7.686,8.028-12.563,15.289-15.1s15.819-5.552,17.954-12.94c.754-2.61.556-5.481,1.707-7.942,3.814-8.154,23.939-12.225,19.129-16.953s-20.079-5.756-23.053-15.279c-1.064-3.409-2.16-7.916-5.716-8.245-5.793-.537-9.1,6.633-13.956,7.863-2.307.585-2.529,4.5-2.439,9.32a6.334,6.334,0,0,1-12.665.24,9.781,9.781,0,0,1,.736-3.919,17.712,17.712,0,0,1,4.5-5.836c7.473-7.136,29.772-14.976,25.1-18.013s-27.08-11.42-30.423-6.794,2.186.709,3.534,6.195-16.578,4.751-24.867,7.126c-1.369.392-2.887.774-4.168.154-1.433-.694-2.036-2.361-2.813-3.749-4.163-7.438-18.01-2.61-18.01-2.61A22.534,22.534,0,0,0,256.105,170.72Z" fill="#1b3f5e"/>
        <path id="Trazado_215299" data-name="Trazado 215299" d="M318.734,136.968c-2.012,3.752,3.973,3.691,4.568,7.907,5.388.587,7.6-7.908,12.93-8.9,3.007-.56,5.923,1.6,7.557,4.181s2.4,5.621,3.781,8.348a20.556,20.556,0,0,0,16.342,10.968,5.655,5.655,0,0,0,4.243-.959c3.247-2.862-1.4-8.238-.192-12.4,1.38-4.75,8.229-4.029,12.858-5.771,1.277-.481,11.1-3.1,11.255-4.456.28-2.4-4.276-3.932-9.372-5.243-8.635-2.22-23.829-2.128-31.255-1.456-9.881.894-26.342.172-32.715,7.775Z" fill="#1b3f5e"/>
        <g id="Grupo_142859" data-name="Grupo 142859">
          <path id="Trazado_215300" data-name="Trazado 215300" d="M483.505,298.328a124.538,124.538,0,0,0-.548-42.367c-.694-3.722-2.318-8.159-6.066-8.695-4.335-.619-9.643,4.361-12.357.923-1.2-1.517-.719-3.726-.041-5.536a36.689,36.689,0,0,1,8.167-12.8c2.221-2.258,4.762-4.26,6.472-6.926,3.657-5.7,1.09-14.033-4.087-18.4s-11.855,3.466-17.3.356-5.611-10.655-6.634-16.839c-.757-4.581-4.132-16.99-7.86-10.947s4.973,30.1,14.765,41.635c1.182,1.391,2.486,2.949,2.386,4.771-.238,4.352-6.579,4.158-10.845,5.049-5.28,1.1-13.373-1.725-8.907,7.476,2.356,4.853,13.608,11.494,10.584,14.742s-12.318,12.654-16.679,20.261-6.475,17.081-3.186,25.21,13.178,13.741,21.25,10.317c3.779-1.6,7.9-4.935,11.409-2.812,3.18,1.923,2.711,6.539,2.554,10.252s1.983,8.643,5.6,7.77a5.994,5.994,0,0,0,2.926-2.111C480.19,313.814,482.284,305.974,483.505,298.328Z" fill="#1b3f5e"/>
        </g>
        <g id="Grupo_142860" data-name="Grupo 142860" opacity="0.68">
          <path id="Trazado_215301" data-name="Trazado 215301" d="M397.389,256.807a384.01,384.01,0,0,1-5.476,66.723c-.992,5.5-2.142,10.972-3.514,16.393a158.044,158.044,0,0,1-4.911,16.04c-.976,2.623-2.043,5.216-3.244,7.75a60.1,60.1,0,0,1-4.085,7.36,30.114,30.114,0,0,1-5.494,6.418,15.647,15.647,0,0,1-3.589,2.317,10.734,10.734,0,0,1-4.182.989,10.534,10.534,0,0,1-4.227-.78A14.644,14.644,0,0,1,355,377.828a28.57,28.57,0,0,1-5.613-6.318,58.125,58.125,0,0,1-4.151-7.324c-1.216-2.527-2.3-5.113-3.284-7.733a154.279,154.279,0,0,1-4.964-16.023c-1.386-5.417-2.548-10.888-3.548-16.385-2-11-3.356-22.1-4.27-33.235s-1.359-22.306-1.407-33.478c-.023-5.585.116-11.17.311-16.752s.505-11.159.91-16.729c.814-11.139,2.036-22.255,3.859-33.278.915-5.511,1.982-11,3.267-16.437a158,158,0,0,1,4.646-16.106c.934-2.636,1.956-5.243,3.122-7.789a56.819,56.819,0,0,1,4-7.388,27.473,27.473,0,0,1,5.494-6.366,14.025,14.025,0,0,1,3.629-2.18,10.229,10.229,0,0,1,4.171-.745,11.041,11.041,0,0,1,4.122.97,16.11,16.11,0,0,1,3.585,2.243,30.653,30.653,0,0,1,5.615,6.258,59.975,59.975,0,0,1,4.265,7.234c1.266,2.5,2.394,5.06,3.435,7.656a152.407,152.407,0,0,1,5.274,15.912c1.485,5.389,2.741,10.837,3.827,16.318A351.494,351.494,0,0,1,397.389,256.807Zm-1.334,0q.025-16.7-1.341-33.369a320.728,320.728,0,0,0-4.383-33.1c-1.034-5.469-2.237-10.907-3.668-16.286a152.158,152.158,0,0,0-5.108-15.879c-1.013-2.589-2.111-5.145-3.345-7.633a59.327,59.327,0,0,0-4.161-7.2,30.179,30.179,0,0,0-5.467-6.205,15.679,15.679,0,0,0-3.466-2.213,10.409,10.409,0,0,0-3.962-.962,9.737,9.737,0,0,0-4,.748,13.568,13.568,0,0,0-3.5,2.143,26.989,26.989,0,0,0-5.336,6.3,56.415,56.415,0,0,0-3.893,7.347c-1.134,2.536-2.126,5.135-3.032,7.763a156.953,156.953,0,0,0-4.482,16.069c-1.232,5.427-2.247,10.9-3.11,16.4-1.72,11-2.841,22.1-3.555,33.209s-.983,22.256-.965,33.392q-.031,16.7,1.2,33.377c.843,11.1,2.129,22.176,4.049,33.142.963,5.481,2.086,10.935,3.431,16.333a153.644,153.644,0,0,0,4.834,15.954c.962,2.605,2.018,5.175,3.206,7.681a57.327,57.327,0,0,0,4.045,7.244,27.831,27.831,0,0,0,5.416,6.18,13.986,13.986,0,0,0,3.474,2.1,9.64,9.64,0,0,0,3.936.746,10.02,10.02,0,0,0,3.9-.95,14.927,14.927,0,0,0,3.4-2.229,29.356,29.356,0,0,0,5.306-6.286,59.4,59.4,0,0,0,3.98-7.283c1.171-2.513,2.212-5.09,3.164-7.7a157.08,157.08,0,0,0,4.777-15.971c1.33-5.4,2.44-10.858,3.394-16.341,1.9-10.968,3.176-22.043,4.019-33.146S396.058,267.944,396.055,256.807Z" fill="#fff" style="mix-blend-mode: soft-light;isolation: isolate"/>
          <path id="Trazado_215302" data-name="Trazado 215302" d="M453.72,256.807a165.654,165.654,0,0,1-1.44,21.5,157.146,157.146,0,0,1-4.317,21.109,136.865,136.865,0,0,1-17.773,39.1,112.258,112.258,0,0,1-13.607,16.683,95.456,95.456,0,0,1-16.759,13.493,80.863,80.863,0,0,1-19.54,8.978,73.79,73.79,0,0,1-42.53.015,80.886,80.886,0,0,1-19.552-8.966,95.532,95.532,0,0,1-16.778-13.485A112.212,112.212,0,0,1,287.8,338.547a137.005,137.005,0,0,1-17.811-39.107,155.864,155.864,0,0,1-4.339-21.119,162.088,162.088,0,0,1,.01-43.026,156.119,156.119,0,0,1,4.351-21.115A137,137,0,0,1,287.838,175.1a112.226,112.226,0,0,1,13.629-16.665,95.209,95.209,0,0,1,16.774-13.466,81.128,81.128,0,0,1,19.54-8.939,73.364,73.364,0,0,1,42.477.013,81.118,81.118,0,0,1,19.526,8.953,95.194,95.194,0,0,1,16.756,13.474,112.1,112.1,0,0,1,13.607,16.668,136.813,136.813,0,0,1,17.794,39.074,157.068,157.068,0,0,1,4.327,21.1A165.819,165.819,0,0,1,453.72,256.807Zm-1.528,0a164.45,164.45,0,0,0-1.36-21.306,155.62,155.62,0,0,0-4.21-20.928,136.381,136.381,0,0,0-17.317-38.88,111.121,111.121,0,0,0-13.358-16.643,93.333,93.333,0,0,0-16.518-13.5,79.813,79.813,0,0,0-19.338-8.965,71.895,71.895,0,0,0-42.135.014,79.813,79.813,0,0,0-19.326,8.978,93.3,93.3,0,0,0-16.5,13.505,111.107,111.107,0,0,0-13.337,16.646A136.193,136.193,0,0,0,271.515,214.6a162.668,162.668,0,0,0,.023,84.41,136.17,136.17,0,0,0,17.3,38.847,111.068,111.068,0,0,0,13.338,16.631,93.087,93.087,0,0,0,16.5,13.486,80.06,80.06,0,0,0,19.313,8.95,71.488,71.488,0,0,0,42.081.015A80.054,80.054,0,0,0,399.39,368,93.18,93.18,0,0,0,415.9,354.522a111.149,111.149,0,0,0,13.359-16.629A136.345,136.345,0,0,0,446.6,299.036a155.757,155.757,0,0,0,4.221-20.924A164.423,164.423,0,0,0,452.192,256.807Z" fill="#fff" style="mix-blend-mode: soft-light;isolation: isolate"/>
          <path id="Trazado_215303" data-name="Trazado 215303" d="M248.3,207.733l28.494-.185,28.495-.106,56.989-.085,56.988.094,28.495.115,28.494.2a.068.068,0,0,1,.067.068.067.067,0,0,1-.067.067l-28.494.2-28.495.115-56.988.094-56.989-.085-28.495-.106-28.494-.185a.1.1,0,0,1,0-.2Z" fill="#fff" style="mix-blend-mode: soft-light;isolation: isolate"/>
          <path id="Trazado_215304" data-name="Trazado 215304" d="M281.358,160.007l20.23-.185,20.23-.106c6.744-.044,13.487-.04,20.23-.053l20.231-.032,40.46.094,20.23.115,20.23.2a.069.069,0,0,1,.067.068.067.067,0,0,1-.067.067l-20.23.2-20.23.115-40.46.093-20.231-.031c-6.743-.014-13.486-.009-20.23-.054l-20.23-.1-20.23-.186a.1.1,0,0,1,0-.2Z" fill="#fff" style="mix-blend-mode: soft-light;isolation: isolate"/>
          <path id="Trazado_215305" data-name="Trazado 215305" d="M238.4,255.458l30.97-.184,30.97-.106,61.94-.085,61.939.093,30.97.115,30.97.2a.066.066,0,0,1,.067.067.069.069,0,0,1-.067.068l-30.97.2-30.97.115-61.939.093-61.94-.085-30.97-.1-30.97-.185a.1.1,0,0,1-.1-.1A.1.1,0,0,1,238.4,255.458Z" fill="#fff" style="mix-blend-mode: soft-light;isolation: isolate"/>
          <path id="Trazado_215306" data-name="Trazado 215306" d="M248.3,303.184,276.8,303l28.495-.106,56.989-.085,56.988.094,28.495.115,28.494.2a.068.068,0,0,1,.067.068.067.067,0,0,1-.067.067l-28.494.2-28.495.114-56.988.094-56.989-.085L276.8,303.57l-28.494-.185a.1.1,0,0,1-.1-.1A.1.1,0,0,1,248.3,303.184Z" fill="#fff" style="mix-blend-mode: soft-light;isolation: isolate"/>
          <path id="Trazado_215307" data-name="Trazado 215307" d="M447.277,351.363H285.435a.353.353,0,0,1,0-.705H447.277a.353.353,0,0,1,0,.705Z" fill="#fff" style="mix-blend-mode: soft-light;isolation: isolate"/>
        </g>
      </g>
      <g id="Grupo_142866" data-name="Grupo 142866">
        <g id="Grupo_142863" data-name="Grupo 142863">
          <path id="Trazado_215308" data-name="Trazado 215308" d="M350.17,377.84V312.991a15.539,15.539,0,0,1,15.367-15.546c25.57-.278,78.306-.292,121.455,3.344a11.681,11.681,0,0,1,10.682,11.228l4.033,62.7a14.846,14.846,0,0,1-14.554,15.379l-122.131,2.321A14.576,14.576,0,0,1,350.17,377.84Z" fill="#d84318"/>
          <path id="Trazado_215309" data-name="Trazado 215309" d="M361.456,310.141c-.108,5.518.055,14.273.19,19.929a4.994,4.994,0,0,0,5.577,4.843l21.043-2.466a5,5,0,0,0,4.36-5.7l-2.583-17.231a5,5,0,0,0-4.942-4.256H366.452A4.991,4.991,0,0,0,361.456,310.141Z" fill="#fff59d"/>
          <path id="Trazado_215310" data-name="Trazado 215310" d="M419.972,352.662l17.554,1.894a3.958,3.958,0,0,0,4.371-4.225l-3.838-52.216c-7.358-.234-14.616-.4-21.62-.523v51.135A3.957,3.957,0,0,0,419.972,352.662Z" fill="#fff" opacity="0.37"/>
          <path id="Trazado_215311" data-name="Trazado 215311" d="M427.167,343.612a1.764,1.764,0,0,0,1.761,1.663l.1,0a1.763,1.763,0,0,0,1.66-1.865l-2.646-45.573c-1.187-.029-2.365-.055-3.542-.082Z" fill="#fff"/>
          <g id="Grupo_142862" data-name="Grupo 142862">
            <path id="Trazado_215312" data-name="Trazado 215312" d="M371.188,326.59a.589.589,0,0,1-.588-.552l-.91-14.354a.587.587,0,0,1,.551-.624.575.575,0,0,1,.624.55l.91,14.355a.588.588,0,0,1-.55.624Z" fill="url(#linear-gradient)"/>
            <path id="Trazado_215313" data-name="Trazado 215313" d="M373.062,326.59a.589.589,0,0,1-.589-.569L372,311.392a.589.589,0,0,1,.569-.608.556.556,0,0,1,.608.569l.477,14.629a.589.589,0,0,1-.569.608Z" fill="url(#linear-gradient-2)"/>
            <path id="Trazado_215314" data-name="Trazado 215314" d="M375.575,326.59a.588.588,0,0,1-.588-.561c-.115-2.4-.687-14.414-.687-14.657a.589.589,0,0,1,1.177-.005c.007.319.452,9.692.685,14.607a.587.587,0,0,1-.56.615Zm-.1-15.218h0Z" fill="url(#linear-gradient-3)"/>
            <path id="Trazado_215315" data-name="Trazado 215315" d="M379.5,327.178a1.176,1.176,0,0,1-1.175-1.135c-.5-14.174-.41-14.494-.353-14.7a1.177,1.177,0,0,1,2.3.465c-.038.852.225,9.1.4,14.157a1.176,1.176,0,0,1-1.135,1.217Z" fill="url(#linear-gradient-4)"/>
            <path id="Trazado_215316" data-name="Trazado 215316" d="M382.049,326.59a.588.588,0,0,1-.589-.589V311.647a.589.589,0,1,1,1.177,0V326A.588.588,0,0,1,382.049,326.59Z" fill="url(#linear-gradient-5)"/>
            <path id="Trazado_215317" data-name="Trazado 215317" d="M384.109,326.59a.589.589,0,0,1-.589-.575c-.113-4.988-.376-13.135-.611-14.114a.588.588,0,0,1,.836-.779c.321.21.626.409.952,14.865a.59.59,0,0,1-.575.6Z" fill="url(#linear-gradient-6)"/>
            <path id="Trazado_215318" data-name="Trazado 215318" d="M368.021,327.9a1.178,1.178,0,0,1-1.175-1.116l-.785-15.073a1.179,1.179,0,0,1,1.115-1.237,1.192,1.192,0,0,1,1.237,1.115l.785,15.073a1.179,1.179,0,0,1-1.115,1.237Z" fill="url(#linear-gradient-7)"/>
          </g>
        </g>
        <g id="Grupo_142865" data-name="Grupo 142865">
          <path id="Trazado_215319" data-name="Trazado 215319" d="M370.67,289.024V243.482c0-5.984,5.4-10.852,12.116-10.917,20.16-.2,61.739-.206,95.76,2.348,4.642.348,8.254,3.738,8.422,7.885l3.18,44.029c.236,5.824-4.933,10.69-11.475,10.8l-96.293,1.63C375.949,299.366,370.67,294.753,370.67,289.024Z" fill="#d84318"/>
          <path id="Trazado_215320" data-name="Trazado 215320" d="M376.413,241.714c-.086,3.875.043,10.024.149,14a3.812,3.812,0,0,0,4.4,3.4l16.591-1.732a3.608,3.608,0,0,0,3.438-4.005l-2.037-12.1a3.826,3.826,0,0,0-3.9-2.989h-14.7A3.749,3.749,0,0,0,376.413,241.714Z" fill="#fff59d"/>
          <path id="Trazado_215321" data-name="Trazado 215321" d="M425.7,271.342l13.84,1.33a2.976,2.976,0,0,0,3.446-2.967l-3.025-36.67c-5.8-.164-11.525-.284-17.047-.368v35.912A2.92,2.92,0,0,0,425.7,271.342Z" fill="#fff" opacity="0.37"/>
          <path id="Trazado_215322" data-name="Trazado 215322" d="M431.377,264.986a1.334,1.334,0,0,0,1.389,1.168c.027,0,.054,0,.081,0a1.3,1.3,0,0,0,1.309-1.309l-2.087-32c-.935-.021-1.864-.039-2.792-.058Z" fill="#fff"/>
          <g id="Grupo_142864" data-name="Grupo 142864">
            <path id="Trazado_215323" data-name="Trazado 215323" d="M384.086,253.266a.446.446,0,0,1-.464-.388L382.9,242.8a.431.431,0,0,1,.434-.438.437.437,0,0,1,.492.386l.718,10.081a.433.433,0,0,1-.434.438Z" fill="url(#linear-gradient-8)"/>
            <path id="Trazado_215324" data-name="Trazado 215324" d="M385.563,253.266a.443.443,0,0,1-.464-.4l-.376-10.273a.437.437,0,0,1,.448-.427.42.42,0,0,1,.48.4l.376,10.274a.438.438,0,0,1-.449.427Z" fill="url(#linear-gradient-9)"/>
            <path id="Trazado_215325" data-name="Trazado 215325" d="M387.544,253.266a.444.444,0,0,1-.463-.394c-.091-1.689-.542-10.123-.542-10.293a.467.467,0,0,1,.928,0c.006.224.356,6.807.54,10.258a.433.433,0,0,1-.441.432Zm-.077-10.687h0Z" fill="url(#linear-gradient-10)"/>
            <path id="Trazado_215326" data-name="Trazado 215326" d="M390.637,253.679a.885.885,0,0,1-.926-.8c-.392-9.954-.323-10.179-.278-10.327a.946.946,0,0,1,1.139-.581.834.834,0,0,1,.676.908c-.03.6.178,6.389.318,9.942a.872.872,0,0,1-.9.854Z" fill="url(#linear-gradient-11)"/>
            <path id="Trazado_215327" data-name="Trazado 215327" d="M392.649,253.266a.44.44,0,0,1-.464-.413V242.772a.467.467,0,0,1,.928,0v10.081A.441.441,0,0,1,392.649,253.266Z" fill="url(#linear-gradient-12)"/>
            <path id="Trazado_215328" data-name="Trazado 215328" d="M394.273,253.266a.442.442,0,0,1-.464-.4c-.089-3.5-.3-9.224-.482-9.912a.374.374,0,0,1,.017-.428.5.5,0,0,1,.642-.119c.253.148.493.288.751,10.44a.44.44,0,0,1-.453.423Z" fill="url(#linear-gradient-13)"/>
            <path id="Trazado_215329" data-name="Trazado 215329" d="M381.589,254.184a.89.89,0,0,1-.927-.784l-.619-10.585a.87.87,0,0,1,.879-.869.907.907,0,0,1,.976.783l.619,10.585a.87.87,0,0,1-.879.869Z" fill="url(#linear-gradient-14)"/>
          </g>
        </g>
      </g>
      <g id="Grupo_142875" data-name="Grupo 142875">
        <g id="Grupo_142867" data-name="Grupo 142867">
          <path id="Trazado_215330" data-name="Trazado 215330" d="M339.949,394.645a.921.921,0,0,1,.024-.238c1.184-4.693,7.059-7.615,7.059-7.615l2.328.182c1.338,4.136,1.166,6.673.951,7.8-.006.031-.015.061-.024.092A55.21,55.21,0,0,1,339.949,394.645Z" fill="#1b3f5e"/>
          <path id="Trazado_215331" data-name="Trazado 215331" d="M350.287,394.869a1.009,1.009,0,0,1-.738.746c-2.732.575-7.074.112-8.9-.126a.849.849,0,0,1-.7-.844A55.21,55.21,0,0,0,350.287,394.869Z" fill="#7d97f4"/>
          <path id="Trazado_215332" data-name="Trazado 215332" d="M350.3,383.507l-.986,4.746a.777.777,0,0,1-.663.639,6.564,6.564,0,0,1-1.528-.025.974.974,0,0,1-.772-1.146l.685-4.214Z" fill="url(#linear-gradient-15)"/>
          <path id="Trazado_215333" data-name="Trazado 215333" d="M329.867,394.809a13.906,13.906,0,0,0,4.589-.656c0,.256,0,.516-.009.786a.506.506,0,0,1-.484.516l-14.117-.091a.645.645,0,0,1-.518-.939C321.179,394.578,325.893,394.92,329.867,394.809Z" fill="#7d97f4"/>
          <path id="Trazado_215334" data-name="Trazado 215334" d="M319.328,394.425a.6.6,0,0,1,.056-.106,17.99,17.99,0,0,1,10.7-6.716l3.01-.1a14.454,14.454,0,0,1,1.366,6.645,13.906,13.906,0,0,1-4.589.656C325.893,394.92,321.179,394.578,319.328,394.425Z" fill="#1b3f5e"/>
          <path id="Trazado_215335" data-name="Trazado 215335" d="M333.782,383.087c-.047.222-.674,3.6-.916,4.908a.655.655,0,0,1-.589.556,6.891,6.891,0,0,1-2.061-.162.89.89,0,0,1-.617-.934l.336-5.342Z" fill="url(#linear-gradient-16)"/>
          <path id="Trazado_215336" data-name="Trazado 215336" d="M336.063,320.728s-4.141,28.452-7.129,62.31a1.291,1.291,0,0,0,1.067,1.31,15.673,15.673,0,0,0,3.365.389,1.247,1.247,0,0,0,1.189-1.041c1.017-5.97,8.281-38.008,10.188-45.059,0,0,2.19,29.952,1.49,45.492a.736.736,0,0,0,.649.766,12.407,12.407,0,0,0,2.7-.008.985.985,0,0,0,.878-.837c.725-5.052,4.9-35.125,4.721-56.789C355.173,326.04,353.75,316,353.75,316Z" fill="#1b3f5e"/>
        </g>
        <g id="Grupo_142868" data-name="Grupo 142868">
          <path id="Trazado_215337" data-name="Trazado 215337" d="M300.571,293.526s1.159-3.052,2.513-2.772a9.249,9.249,0,0,1,2.835,1.319l2.175,2.942s-6.106,2.4-8.253,1.027a47.009,47.009,0,0,1-14.113-.215,30.883,30.883,0,0,0,2.219-6.687A32.863,32.863,0,0,0,300.571,293.526Z" fill="url(#linear-gradient-17)"/>
          <path id="Trazado_215338" data-name="Trazado 215338" d="M267.535,271.393s8.929,11.247,20.412,17.747a30.883,30.883,0,0,1-2.219,6.687,36.859,36.859,0,0,1-18.7-8.494Z" fill="#d84318"/>
        </g>
        <path id="Trazado_215339" data-name="Trazado 215339" d="M334.459,272.881l-.555,14.888a40.878,40.878,0,0,1-4.5,1.278,44.989,44.989,0,0,0-4.469-9.026A22.077,22.077,0,0,0,334.459,272.881Z" fill="#bdd0fb"/>
        <path id="Trazado_215340" data-name="Trazado 215340" d="M304.927,272.627c8.114,8.761,14.681,9.277,20.007,7.394a44.989,44.989,0,0,1,4.469,9.026c-21.668,4.777-26.771-15.143-26.771-15.143Z" fill="url(#linear-gradient-18)"/>
        <path id="Trazado_215341" data-name="Trazado 215341" d="M303.281,271.7a2.973,2.973,0,0,0-2.664-.689c-1.73.316-3.27.917-4.348,0s-1.457.314-1.457.314l3.228,2.453Z" fill="url(#linear-gradient-19)"/>
        <path id="Trazado_215342" data-name="Trazado 215342" d="M305.211,273.413s-.64-2.678-2.57-2.311-6.312,2.75-7.441,2.311-2.573-1.49-3.314-1.119l1.305,1.623s-3.354-1.936-3.932-.746l5.582,3.141S303.007,275.494,305.211,273.413Z" fill="url(#linear-gradient-20)"/>
        <path id="Trazado_215343" data-name="Trazado 215343" d="M354.372,322.368a1.17,1.17,0,0,0,.769-.987c.551-5.342,3.217-38.465-13.614-52.09,0,0-.966-2.525-8.9,3.683s-3.686,12.714-1.786,21.689c2.3,10.86,6.331,19.737,4.547,26.421a.926.926,0,0,0,.567,1.11A26.275,26.275,0,0,0,354.372,322.368Z" fill="#fff"/>
        <path id="Trazado_215344" data-name="Trazado 215344" d="M334.961,259.367c.005.471,6.726,10.017,6.726,10.017s-1.206,2.376-6.965,4.3l-4.971-10.221Z" fill="url(#linear-gradient-21)"/>
        <path id="Trazado_215345" data-name="Trazado 215345" d="M337.6,292.142s-12.751,10.68-26.52,6.02a3.279,3.279,0,0,0-2.585.2l-3.959,2.09a3.533,3.533,0,0,1-4.683-1.311,7.433,7.433,0,0,1-1.113-2.977l7.746-3.136-.571-.95s3.782-.32,4.771,2.39c0,0,7.2,3,19.352-10.365C330.042,284.1,335.554,288.785,337.6,292.142Z" fill="url(#linear-gradient-22)"/>
        <path id="Trazado_215346" data-name="Trazado 215346" d="M338.291,292.032a.214.214,0,0,0,.122-.038,24.526,24.526,0,0,0,7.919-9.541.218.218,0,0,0-.4-.171,24.057,24.057,0,0,1-7.762,9.351.218.218,0,0,0,.123.4Z" fill="#bdd0fb"/>
        <path id="Trazado_215347" data-name="Trazado 215347" d="M330.293,283.917a.219.219,0,0,0,.184-.1c.016-.025,1.656-2.578,4.781-8.172a6.3,6.3,0,0,1,3.752-3.238,7.332,7.332,0,0,1,5,.664.22.22,0,0,0,.3-.082.218.218,0,0,0-.082-.3,7.618,7.618,0,0,0-5.327-.706,6.715,6.715,0,0,0-4.021,3.446c-3.116,5.58-4.75,8.124-4.766,8.149a.219.219,0,0,0,.065.3A.225.225,0,0,0,330.293,283.917Z" fill="#bdd0fb"/>
        <g id="Grupo_142869" data-name="Grupo 142869">
          <path id="Trazado_215348" data-name="Trazado 215348" d="M329.67,253.9s-2.392,5.493-2.552,8.377-.782,4.754,2.552,5.335a7.09,7.09,0,0,0,7.664-3.953s2.384-4.425,1.849-6.238S329.67,253.9,329.67,253.9Z" fill="url(#linear-gradient-23)"/>
          <path id="Trazado_215349" data-name="Trazado 215349" d="M336.194,261.591l-.189-.083a.459.459,0,0,1-.224-.629c.47-.908,1.387-2.99.2-3.476-1.526-.625-7.57-1.858-8.874-4a3.989,3.989,0,0,1,1.526-5.478.228.228,0,0,1,.3.1l.139.263a.227.227,0,0,0,.418-.043h0a.225.225,0,0,1,.408-.058c.4.641,1.483,1.681,4.377,2.216,4.113.759,6.833,2.423,6.9,5.265a.227.227,0,0,0,.351.187c.3-.185.79-.272,1.439.274,1.13.95.667,3.414-1.809,5.441a.224.224,0,0,0,.011.362c.449.293,1.118.988-.616,1.915a5.839,5.839,0,0,1-3.649.795.227.227,0,0,1-.183-.273l.551-2.5a.227.227,0,0,0-.221-.275Z" fill="url(#linear-gradient-24)"/>
          <path id="Trazado_215350" data-name="Trazado 215350" d="M336.091,262.118s.912-3.509,2.485-2.525-.816,3.932-2.081,4.063Z" fill="url(#linear-gradient-25)"/>
        </g>
        <path id="Trazado_215351" data-name="Trazado 215351" d="M308.5,298.357s-3.241,3.169-3.866,2.708a11.409,11.409,0,0,1-1.329-1.425A1.39,1.39,0,0,1,303.21,298l.764-1.179a2.21,2.21,0,0,1,3.3-.48A4,4,0,0,1,308.5,298.357Z" fill="url(#linear-gradient-26)"/>
        <path id="Trazado_215352" data-name="Trazado 215352" d="M256.4,321.241c1.746-8.295,3.492-13.1,9.339-28.819,1.84-4.947,3.511-9.953,2.7-15.17l-.907-5.859a43.88,43.88,0,0,0-23.959-.162s-17.185,7.466-5.512,44.335C243.325,321.452,249.482,323.129,256.4,321.241Z" fill="#d84318"/>
        <path id="Trazado_215353" data-name="Trazado 215353" d="M265.6,263.916l-2.946,7.078a1.409,1.409,0,0,1-1.066.848c-1.7.291-5.807.746-8.505-1.028a.685.685,0,0,1-.184-.964l5.444-7.815Z" fill="url(#linear-gradient-27)"/>
        <g id="Grupo_142870" data-name="Grupo 142870">
          <path id="Trazado_215354" data-name="Trazado 215354" d="M258.333,297.182a.654.654,0,0,1,.414.935l-8.525,16.345a.654.654,0,0,1-.761.326l-27.883-8.05a.655.655,0,0,1-.447-.811l4.8-16.627a.654.654,0,0,1,.795-.451Z" fill="#91b3fa"/>
          <path id="Trazado_215355" data-name="Trazado 215355" d="M256.535,295.261a.686.686,0,0,1,.484.9L250.2,314.7a.684.684,0,0,1-.832.422l-27.8-8.026a.686.686,0,0,1-.48-.8l3.853-17.839a.685.685,0,0,1,.828-.522Z" fill="#bdd0fb"/>
          <path id="Trazado_215356" data-name="Trazado 215356" d="M254.114,293.391a.846.846,0,0,1,.7,1.027l-4.634,20.01a.848.848,0,0,1-1.06.622l-27.378-7.9a.846.846,0,0,1-.585-1.024l4.211-16.333a.846.846,0,0,1,.947-.626Z" fill="url(#linear-gradient-28)"/>
        </g>
        <path id="Trazado_215357" data-name="Trazado 215357" d="M231.951,301.021c-2.124-16.051,10.245-28.394,10.245-28.394l7.36,8.58a47.174,47.174,0,0,0-9.457,18.359C238.49,299.1,234.616,298.358,231.951,301.021Z" fill="url(#linear-gradient-29)"/>
        <path id="Trazado_215358" data-name="Trazado 215358" d="M240.27,299.608l-.342-.083a47.537,47.537,0,0,1,9.491-18.428l.274.22A47.22,47.22,0,0,0,240.27,299.608Z" fill="url(#linear-gradient-30)"/>
        <path id="Trazado_215359" data-name="Trazado 215359" d="M240.1,299.566a29.5,29.5,0,0,0-.838,9.795,1.293,1.293,0,0,0,1.195,1.158c.713.05,1.683.115,2.55.165a4.76,4.76,0,0,0,2.718-1.05.425.425,0,0,1,.626.537,7.516,7.516,0,0,1-2.79,2.493.441.441,0,0,0,.1.8l3.949,1.119c-6.489,6.113-10.772-.726-10.772-.726a30.955,30.955,0,0,1-4.887-12.841C234.616,298.358,238.49,299.1,240.1,299.566Z" fill="url(#linear-gradient-31)"/>
        <g id="Grupo_142871" data-name="Grupo 142871">
          <path id="Trazado_215360" data-name="Trazado 215360" d="M262.553,253.086c.124.116,5.223,10.129,5.223,10.129L262,266.005l-6.243-8.772S260.482,251.136,262.553,253.086Z" fill="url(#linear-gradient-32)"/>
          <path id="Trazado_215361" data-name="Trazado 215361" d="M258.381,258.285l2.882,4.8a.912.912,0,0,0,.158.2,1.512,1.512,0,0,0,2.424-.017,8.141,8.141,0,0,1,2.277-2.462.922.922,0,0,1,1.244.409,34.317,34.317,0,0,1,1.972,4.68.917.917,0,0,1-.534,1.125,25.543,25.543,0,0,1-5.535,1.614.919.919,0,0,1-.871-.37c-.883-1.21-3.372-4.59-4.221-5.436-.789-.786-2.246-.49-2.9-.3a.927.927,0,0,1-.736-.1,2.03,2.03,0,0,1-.765-3.09.924.924,0,0,0-.285-1.254,2.039,2.039,0,0,1-.782-2.893,2.874,2.874,0,0,1,3.114-1.524.957.957,0,0,0,1-.558.608.608,0,0,1,.476-.375.9.9,0,0,0,.724-1.051,2.362,2.362,0,0,1,1.318-2.705c2.494-1.371,4.678.863,5.233,2.749s-2.233,3.218-3.986,3.44c-1.288.164-1.995,1.57-2.279,2.305A.92.92,0,0,0,258.381,258.285Z" fill="url(#linear-gradient-33)"/>
          <path id="Trazado_215362" data-name="Trazado 215362" d="M259.259,264.594s-1.108-3.244-2.528-3.125-2.536,1.533-.777,3.123C258.142,266.569,259.259,264.594,259.259,264.594Z" fill="url(#linear-gradient-34)"/>
        </g>
        <g id="Grupo_142872" data-name="Grupo 142872">
          <path id="Trazado_215363" data-name="Trazado 215363" d="M257.518,394.342c-2.745.237-7.508.622-11.263.787a10.824,10.824,0,0,1-4.305-.421c0,.085,0,.164.007.238a.777.777,0,0,0,.738.734,132.014,132.014,0,0,0,14.747.015.553.553,0,0,0,.45-.831A4.534,4.534,0,0,0,257.518,394.342Z" fill="#7d97f4"/>
          <path id="Trazado_215364" data-name="Trazado 215364" d="M246.255,395.129c3.755-.165,8.518-.55,11.263-.787-2.7-3.311-11.263-5.542-11.263-5.542h-2.419a10.149,10.149,0,0,0-1.886,5.908A10.824,10.824,0,0,0,246.255,395.129Z" fill="#1b3f5e"/>
          <path id="Trazado_215365" data-name="Trazado 215365" d="M243.429,384.851l.226,4.479a1.024,1.024,0,0,0,.874.963,3.975,3.975,0,0,0,1.817-.151,1.21,1.21,0,0,0,.813-.93l.783-4.361Z" fill="url(#linear-gradient-35)"/>
        </g>
        <g id="Grupo_142874" data-name="Grupo 142874">
          <g id="Grupo_142873" data-name="Grupo 142873">
            <path id="Trazado_215366" data-name="Trazado 215366" d="M212.012,395.1a2.171,2.171,0,0,1-1.954-1.445l-.005.018a1.547,1.547,0,0,0,1.042,1.763,6.823,6.823,0,0,0,2.886.452,2.869,2.869,0,0,0,2.164-1l.007-.009C215.255,395.321,214,395.373,212.012,395.1Z" fill="#7d97f4"/>
            <path id="Trazado_215367" data-name="Trazado 215367" d="M217.623,384.823h-1.994c-3.039-.063-4.947,6.346-5.571,8.828a2.171,2.171,0,0,0,1.954,1.445c1.985.277,3.243.225,4.14-.219a19.064,19.064,0,0,0,2.847-7.17A2.518,2.518,0,0,0,217.623,384.823Z" fill="#1b3f5e"/>
          </g>
          <path id="Trazado_215368" data-name="Trazado 215368" d="M215.885,380.665l-1.108,4.406a1.2,1.2,0,0,0,.622,1.355,4.243,4.243,0,0,0,2.294.555,1,1,0,0,0,.815-.666l1.626-4.635Z" fill="url(#linear-gradient-36)"/>
        </g>
        <path id="Trazado_215369" data-name="Trazado 215369" d="M214.564,381.939c1.378,1.222,5.86,1.383,5.86,1.383C236.571,344.569,243.3,333.9,243.3,333.9c-2.331,14.627-.5,52.173-.5,52.173,2.664,1.175,6.1,0,6.1,0,.217-23.947,3.588-49.678,7.936-66.143-10.913-.245-16.843-2.624-18.738-4.123C229,330.474,214.564,381.939,214.564,381.939Z" fill="#1b3f5e"/>
      </g>
      <g id="Grupo_142891" data-name="Grupo 142891">
        <rect id="Rectángulo_42199" data-name="Rectángulo 42199" width="2.318" height="40.466" transform="translate(442.426 301.059)" fill="#f0f8ff"/>
        <g id="Grupo_142890" data-name="Grupo 142890">
          <g id="Grupo_142876" data-name="Grupo 142876">
            <path id="Trazado_215370" data-name="Trazado 215370" d="M412.673,324.241c5.518-5.286,18.336-16.07,30.913-15.911,0,0-6.994,14.176-29.752,18.184A1.333,1.333,0,0,1,412.673,324.241Z" fill="url(#linear-gradient-37)"/>
          </g>
          <g id="Grupo_142877" data-name="Grupo 142877">
            <path id="Trazado_215371" data-name="Trazado 215371" d="M386.968,292.063c9.725-.474,37.872-.243,56.618,16.267,0,0-32.269,6.886-57.452-13.75A1.421,1.421,0,0,1,386.968,292.063Z" fill="url(#linear-gradient-37)"/>
          </g>
          <g id="Grupo_142878" data-name="Grupo 142878">
            <path id="Trazado_215372" data-name="Trazado 215372" d="M399.35,252.859c10.36,5.97,44.236,27.62,44.236,55.471,0,0-35.943-21.131-46.273-53.835A1.4,1.4,0,0,1,399.35,252.859Z" fill="url(#linear-gradient-37)"/>
          </g>
          <g id="Grupo_142879" data-name="Grupo 142879" opacity="0.48">
            <path id="Trazado_215373" data-name="Trazado 215373" d="M403.546,259.882c3.5,3.659,6.9,7.408,10.259,11.192.845.941,1.674,1.9,2.509,2.846l2.5,2.856c1.646,1.919,3.31,3.824,4.942,5.756,3.274,3.855,6.531,7.725,9.735,11.64s6.386,7.849,9.47,11.866a.284.284,0,0,1-.431.368c-3.485-3.675-6.875-7.431-10.236-11.212s-6.677-7.6-9.971-11.438c-1.653-1.914-3.273-3.856-4.911-5.783l-2.43-2.913c-.807-.974-1.62-1.942-2.417-2.924-3.212-3.909-6.382-7.853-9.447-11.886a.284.284,0,0,1,.431-.368Z" fill="#f0f8ff"/>
          </g>
          <g id="Grupo_142880" data-name="Grupo 142880" opacity="0.48">
            <path id="Trazado_215374" data-name="Trazado 215374" d="M390.525,294.637c4.269.746,8.5,1.629,12.728,2.559s8.434,1.915,12.633,2.945,8.387,2.107,12.557,3.257,8.33,2.334,12.453,3.673a.212.212,0,0,1-.1.41c-4.272-.733-8.509-1.612-12.732-2.545s-8.433-1.919-12.63-2.96-8.383-2.121-12.552-3.272-8.332-2.332-12.457-3.658a.211.211,0,0,1,.1-.409Z" fill="#f0f8ff"/>
          </g>
          <g id="Grupo_142881" data-name="Grupo 142881" opacity="0.48">
            <path id="Trazado_215375" data-name="Trazado 215375" d="M415.449,324.376c2.131-1.377,4.292-2.7,6.46-4.013q1.627-.982,3.263-1.949t3.279-1.921l1.643-.955,1.652-.94c1.1-.632,2.209-1.24,3.315-1.858,2.224-1.215,4.455-2.419,6.733-3.539a.211.211,0,0,1,.211.365c-2.113,1.409-4.273,2.735-6.44,4.049-1.089.646-2.173,1.3-3.27,1.936l-1.642.956-1.651.942q-1.647.945-3.307,1.873c-1.1.623-2.212,1.235-3.323,1.845-2.222,1.217-4.452,2.422-6.712,3.574a.211.211,0,0,1-.211-.365Z" fill="#f0f8ff"/>
          </g>
          <g id="Grupo_142882" data-name="Grupo 142882">
            <path id="Trazado_215376" data-name="Trazado 215376" d="M475.117,324.241c-5.518-5.286-18.335-16.07-30.912-15.911,0,0,6.993,14.176,29.751,18.184A1.333,1.333,0,0,0,475.117,324.241Z" fill="url(#linear-gradient-37)"/>
          </g>
          <g id="Grupo_142883" data-name="Grupo 142883">
            <path id="Trazado_215377" data-name="Trazado 215377" d="M500.822,292.063c-9.725-.474-37.872-.243-56.617,16.267,0,0,32.268,6.886,57.451-13.75A1.421,1.421,0,0,0,500.822,292.063Z" fill="url(#linear-gradient-37)"/>
          </g>
          <g id="Grupo_142884" data-name="Grupo 142884">
            <path id="Trazado_215378" data-name="Trazado 215378" d="M488.44,252.859c-10.36,5.97-44.235,27.62-44.235,55.471,0,0,35.942-21.131,46.272-53.835A1.4,1.4,0,0,0,488.44,252.859Z" fill="url(#linear-gradient-37)"/>
          </g>
          <g id="Grupo_142885" data-name="Grupo 142885" opacity="0.48">
            <path id="Trazado_215379" data-name="Trazado 215379" d="M484.675,260.25c-3.065,4.033-6.235,7.977-9.447,11.886-.8.982-1.61,1.95-2.417,2.924l-2.43,2.913c-1.638,1.927-3.258,3.869-4.911,5.783q-4.941,5.757-9.971,11.438c-3.361,3.781-6.751,7.537-10.236,11.212a.283.283,0,0,1-.4.011.286.286,0,0,1-.03-.379c3.084-4.017,6.262-7.954,9.47-11.866s6.461-7.785,9.735-11.64c1.632-1.932,3.3-3.837,4.942-5.756l2.5-2.856c.835-.95,1.664-1.9,2.509-2.846,3.357-3.784,6.756-7.533,10.259-11.192a.284.284,0,0,1,.431.368Z" fill="#f0f8ff"/>
          </g>
          <g id="Grupo_142886" data-name="Grupo 142886" opacity="0.48">
            <path id="Trazado_215380" data-name="Trazado 215380" d="M497.367,295.046c-4.126,1.326-8.286,2.515-12.458,3.658s-8.356,2.23-12.552,3.272-8.4,2.038-12.63,2.96-8.46,1.812-12.732,2.545a.212.212,0,0,1-.1-.41c4.123-1.339,8.281-2.533,12.453-3.673s8.358-2.225,12.557-3.257,8.407-2.023,12.633-2.945,8.459-1.813,12.729-2.559a.211.211,0,0,1,.1.409Z" fill="#f0f8ff"/>
          </g>
          <g id="Grupo_142887" data-name="Grupo 142887" opacity="0.48">
            <path id="Trazado_215381" data-name="Trazado 215381" d="M472.13,324.741c-2.26-1.152-4.49-2.357-6.712-3.574-1.111-.61-2.22-1.222-3.323-1.845s-2.208-1.243-3.307-1.873l-1.651-.942-1.641-.956c-1.1-.633-2.182-1.29-3.271-1.936-2.167-1.314-4.327-2.64-6.44-4.049A.211.211,0,0,1,446,309.2c2.278,1.12,4.509,2.324,6.733,3.539,1.106.618,2.218,1.226,3.315,1.858l1.652.94,1.643.955q1.644.951,3.279,1.921t3.263,1.949c2.168,1.311,4.329,2.636,6.46,4.013a.21.21,0,0,1,.063.291A.213.213,0,0,1,472.13,324.741Z" fill="#f0f8ff"/>
          </g>
          <g id="Grupo_142888" data-name="Grupo 142888">
            <path id="Trazado_215382" data-name="Trazado 215382" d="M442.425,227.215c-3.154,10.219-11.06,42.346-.026,80.018a1.316,1.316,0,0,0,2.536.052c3.818-11.231,13.442-46.049,0-80.171A1.315,1.315,0,0,0,442.425,227.215Z" fill="url(#linear-gradient-37)"/>
          </g>
          <g id="Grupo_142889" data-name="Grupo 142889" opacity="0.48">
            <path id="Trazado_215383" data-name="Trazado 215383" d="M444.429,235.2c.216,3,.347,6.007.466,9.01.049,1.5.116,3,.151,4.505l.115,4.505q.18,9.01.126,18.02l-.026,4.505-.053,4.505-.058,4.505-.09,4.505c-.136,6.007-.309,12.013-.631,18.02a.211.211,0,0,1-.422,0c-.323-6.007-.495-12.013-.631-18.02l-.09-4.505-.059-4.505-.052-4.505-.026-4.505q-.043-9.01.125-18.02l.116-4.505c.034-1.5.1-3,.151-4.505.118-3,.25-6.006.466-9.01a.212.212,0,0,1,.422,0Z" fill="#f0f8ff"/>
          </g>
        </g>
        <path id="Trazado_215384" data-name="Trazado 215384" d="M476.036,343.632H411.754a45.766,45.766,0,0,0,2.861,15.926l11.234,30.265a5.767,5.767,0,0,0,5.406,3.759h25.28a5.767,5.767,0,0,0,5.406-3.759l11.234-30.265a45.766,45.766,0,0,0,2.861-15.926Z" fill="url(#linear-gradient-44)"/>
        <path id="Trazado_215385" data-name="Trazado 215385" d="M475.614,347.215H412.176a4.426,4.426,0,0,1-4.426-4.426h0a4.426,4.426,0,0,1,4.426-4.426h63.438a4.426,4.426,0,0,1,4.426,4.426h0A4.426,4.426,0,0,1,475.614,347.215Z" fill="url(#linear-gradient-45)"/>
      </g>
      <circle id="Elipse_5482" data-name="Elipse 5482" cx="17.947" cy="17.947" r="17.947" transform="translate(425.948 352.538)" fill="#f0f8ff"/>
      <path id="Trazado_215386" data-name="Trazado 215386" d="M454.226,366.377H448v-6.223a1.9,1.9,0,0,0-1.9-1.9h-4.41a1.9,1.9,0,0,0-1.9,1.9v6.223h-6.223a1.9,1.9,0,0,0-1.9,1.9v4.409a1.9,1.9,0,0,0,1.9,1.9h6.223v6.224a1.9,1.9,0,0,0,1.9,1.9h4.41a1.9,1.9,0,0,0,1.9-1.9v-6.224h6.223a1.9,1.9,0,0,0,1.9-1.9V368.28A1.9,1.9,0,0,0,454.226,366.377Z" fill="#fff59d"/>
      <g id="Grupo_142898" data-name="Grupo 142898">
        <g id="Grupo_142895" data-name="Grupo 142895">
          <g id="Grupo_142892" data-name="Grupo 142892">
            <circle id="Elipse_5483" data-name="Elipse 5483" cx="13.053" cy="13.053" r="13.053" transform="translate(235.181 187.326)" fill="#d84318"/>
            <path id="Trazado_215387" data-name="Trazado 215387" d="M261.263,199.268H235.181s-1.039,7.451,10.61,27.294a2.917,2.917,0,0,0,2.441,1.486,2.961,2.961,0,0,0,2.443-1.528C262.323,206.675,261.263,199.268,261.263,199.268Z" fill="#d84318"/>
          </g>
          <g id="Grupo_142893" data-name="Grupo 142893">
            <path id="Trazado_215388" data-name="Trazado 215388" d="M248.461,228.575v-.06h-.229a3.175,3.175,0,0,1-2.767-1.531c-6.81-11.6-9.3-18.9-10.2-23a12.992,12.992,0,0,1-.447-2.8,6.489,6.489,0,0,1-.012-1.414l.035-.205a13.431,13.431,0,0,1,26.8.137,5.965,5.965,0,0,1,.022.72v.048a13.454,13.454,0,0,1-.538,3.774c-.925,4.1-3.318,11.363-10.012,22.766A3.116,3.116,0,0,1,248.461,228.575Zm-12.923-28.6s0,.622.037,1.043v.072a12.644,12.644,0,0,0,.424,2.7l.005.033c.88,4.048,3.349,11.3,10.113,22.821a2.655,2.655,0,0,0,2.228,1.207l.115.383v-.379a3.15,3.15,0,0,0,2.02-1.213c6.651-11.331,9.256-18.531,9.961-22.577v-.023a12.184,12.184,0,0,0,.432-3.573l-.08-.053v0c0-.378.045-.583.039-.636l.026-.022a12.666,12.666,0,0,0-25.284-.015l-.013.239Z" fill="url(#linear-gradient-46)"/>
          </g>
          <circle id="Elipse_5484" data-name="Elipse 5484" cx="7.537" cy="7.537" r="7.537" transform="translate(240.739 192.8)" fill="#fff59d"/>
          <g id="Grupo_142894" data-name="Grupo 142894">
            <path id="Trazado_215389" data-name="Trazado 215389" d="M248.276,208.295a7.958,7.958,0,1,1,7.958-7.958A7.967,7.967,0,0,1,248.276,208.295Zm0-15.074a7.116,7.116,0,1,0,7.116,7.116A7.124,7.124,0,0,0,248.276,193.221Z" fill="url(#linear-gradient-47)"/>
          </g>
        </g>
        <g id="Grupo_142896" data-name="Grupo 142896">
          <path id="Trazado_215390" data-name="Trazado 215390" d="M241.127,192.49a.126.126,0,0,1-.083-.222,11.694,11.694,0,0,1,7.617-2.82.127.127,0,0,1,0,.253,11.442,11.442,0,0,0-7.452,2.758A.124.124,0,0,1,241.127,192.49Z" fill="#fff" opacity="0.7"/>
        </g>
        <g id="Grupo_142897" data-name="Grupo 142897">
          <path id="Trazado_215391" data-name="Trazado 215391" d="M237.091,201.271a.126.126,0,0,1-.127-.126,11.664,11.664,0,0,1,1.75-6.157.126.126,0,0,1,.215.133,11.413,11.413,0,0,0-1.712,6.024A.126.126,0,0,1,237.091,201.271Z" fill="#fff" opacity="0.7"/>
        </g>
      </g>
      <g id="Grupo_142905" data-name="Grupo 142905">
        <g id="Grupo_142902" data-name="Grupo 142902">
          <g id="Grupo_142899" data-name="Grupo 142899">
            <circle id="Elipse_5485" data-name="Elipse 5485" cx="13.053" cy="13.053" r="13.053" transform="translate(290.294 133.924) rotate(-16.845)" fill="#d84318"/>
            <path id="Trazado_215392" data-name="Trazado 215392" d="M319.6,141.48H293.517s-1.039,7.472,10.61,27.315a2.93,2.93,0,0,0,2.441,1.5,2.978,2.978,0,0,0,2.442-1.545C320.658,148.9,319.6,141.48,319.6,141.48Z" fill="#d84318"/>
          </g>
          <g id="Grupo_142900" data-name="Grupo 142900">
            <path id="Trazado_215393" data-name="Trazado 215393" d="M306.955,170.83v.249h-.388a3.323,3.323,0,0,1-2.767-1.685c-6.809-11.6-9.3-18.978-10.2-23.082a13.336,13.336,0,0,1-.448-2.84,6.656,6.656,0,0,1-.011-1.433l.034-.215a13.431,13.431,0,0,1,26.8.129,6.063,6.063,0,0,1,.021.719v.048a13.418,13.418,0,0,1-.539,3.774c-.924,4.1-3.239,11.362-9.932,22.766A2.994,2.994,0,0,1,306.955,170.83Zm-13.082-28.646s0,.644.037,1.065v.083a12.637,12.637,0,0,0,.425,2.7l0,.036c.881,4.048,3.35,11.3,10.114,22.822a2.8,2.8,0,0,0,2.307,1.208l.194.383V170.1a3.153,3.153,0,0,0,2.02-1.213c6.65-11.33,9.256-18.531,9.96-22.576v-.024c0-1.157.256-2.359.256-3.573l-.256-.053v0a1.986,1.986,0,0,1,.136-.636l.075-.022a12.647,12.647,0,0,0-25.248-.036v.216Z" fill="url(#linear-gradient-48)"/>
          </g>
          <circle id="Elipse_5486" data-name="Elipse 5486" cx="7.537" cy="7.537" r="7.537" transform="translate(299.074 135.055)" fill="#fff59d"/>
          <g id="Grupo_142901" data-name="Grupo 142901">
            <path id="Trazado_215394" data-name="Trazado 215394" d="M306.611,150.55a7.958,7.958,0,1,1,7.958-7.958A7.967,7.967,0,0,1,306.611,150.55Zm0-15.074a7.116,7.116,0,1,0,7.116,7.116A7.124,7.124,0,0,0,306.611,135.476Z" fill="url(#linear-gradient-49)"/>
          </g>
        </g>
        <g id="Grupo_142903" data-name="Grupo 142903">
          <path id="Trazado_215395" data-name="Trazado 215395" d="M299.462,134.745a.126.126,0,0,1-.082-.222A11.7,11.7,0,0,1,307,131.7a.126.126,0,0,1,0,.253,11.445,11.445,0,0,0-7.453,2.759A.128.128,0,0,1,299.462,134.745Z" fill="#fff" opacity="0.7"/>
        </g>
        <g id="Grupo_142904" data-name="Grupo 142904">
          <path id="Trazado_215396" data-name="Trazado 215396" d="M295.426,143.526a.125.125,0,0,1-.126-.126,11.667,11.667,0,0,1,1.75-6.157.126.126,0,1,1,.214.133,11.419,11.419,0,0,0-1.712,6.024A.125.125,0,0,1,295.426,143.526Z" fill="#fff" opacity="0.7"/>
        </g>
      </g>
      <g id="Grupo_142912" data-name="Grupo 142912">
        <g id="Grupo_142909" data-name="Grupo 142909">
          <g id="Grupo_142906" data-name="Grupo 142906">
            <ellipse id="Elipse_5487" data-name="Elipse 5487" cx="13.053" cy="13.126" rx="13.053" ry="13.126" transform="translate(273.476 199.175)" fill="url(#linear-gradient-50)"/>
            <path id="Trazado_215397" data-name="Trazado 215397" d="M299.557,211.249H273.476s-1.039,7.46,10.61,27.415a2.9,2.9,0,0,0,2.441,1.478,2.936,2.936,0,0,0,2.443-1.512C300.618,218.673,299.557,211.249,299.557,211.249Z" fill="#d84318"/>
          </g>
          <g id="Grupo_142907" data-name="Grupo 142907">
            <path id="Trazado_215398" data-name="Trazado 215398" d="M286.87,240.655v.193h-.343a3.292,3.292,0,0,1-2.768-1.666c-6.809-11.664-9.3-19.07-10.2-23.2a13.422,13.422,0,0,1-.447-2.85,6.753,6.753,0,0,1-.012-1.438l.035-.213a13.426,13.426,0,0,1,26.8.131,6.011,6.011,0,0,1,.022.723v.048a13.6,13.6,0,0,1-.538,3.8c-.925,4.124-3.262,11.426-9.955,22.894A3.025,3.025,0,0,1,286.87,240.655Zm-13.038-28.7s0,.6.038,1.018v.057a12.764,12.764,0,0,0,.425,2.7l0,.03c.88,4.071,3.349,11.362,10.113,22.948a2.749,2.749,0,0,0,2.285,1.212l.172.384v-.381a3.148,3.148,0,0,0,2.02-1.219c6.65-11.4,9.255-18.636,9.96-22.7v-.024a12.279,12.279,0,0,0,.432-3.592l-.079-.054v0c0-.38-.013-.586-.019-.64l0-.022a12.672,12.672,0,0,0-25.3.016l-.02.271Z" fill="url(#linear-gradient-51)"/>
          </g>
          <ellipse id="Elipse_5488" data-name="Elipse 5488" cx="7.537" cy="7.579" rx="7.537" ry="7.579" transform="translate(279.034 204.679)" fill="#fff59d"/>
          <g id="Grupo_142908" data-name="Grupo 142908">
            <path id="Trazado_215399" data-name="Trazado 215399" d="M286.571,220.261a8,8,0,1,1,7.958-8A7.989,7.989,0,0,1,286.571,220.261Zm0-15.158a7.156,7.156,0,1,0,7.116,7.156A7.144,7.144,0,0,0,286.571,205.1Z" fill="url(#linear-gradient-52)"/>
          </g>
        </g>
        <g id="Grupo_142910" data-name="Grupo 142910">
          <path id="Trazado_215400" data-name="Trazado 215400" d="M279.421,204.368a.128.128,0,0,1-.082-.224,11.659,11.659,0,0,1,7.617-2.835.127.127,0,0,1,0,.254,11.4,11.4,0,0,0-7.452,2.774A.13.13,0,0,1,279.421,204.368Z" fill="#fff" opacity="0.7"/>
        </g>
        <g id="Grupo_142911" data-name="Grupo 142911">
          <path id="Trazado_215401" data-name="Trazado 215401" d="M275.386,213.2a.127.127,0,0,1-.127-.127,11.782,11.782,0,0,1,1.75-6.192.127.127,0,1,1,.215.134,11.531,11.531,0,0,0-1.712,6.058A.127.127,0,0,1,275.386,213.2Z" fill="#fff" opacity="0.7"/>
        </g>
      </g>
      <g id="Grupo_142919" data-name="Grupo 142919">
        <g id="Grupo_142916" data-name="Grupo 142916">
          <g id="Grupo_142913" data-name="Grupo 142913">
            <circle id="Elipse_5489" data-name="Elipse 5489" cx="13.053" cy="13.053" r="13.053" transform="translate(450.398 181.396)" fill="#d84318"/>
            <path id="Trazado_215402" data-name="Trazado 215402" d="M476.479,193.278H450.4s-1.039,7.48,10.61,27.324a2.935,2.935,0,0,0,2.441,1.5,2.985,2.985,0,0,0,2.442-1.551C477.539,200.707,476.479,193.278,476.479,193.278Z" fill="#d84318"/>
          </g>
          <g id="Grupo_142914" data-name="Grupo 142914">
            <path id="Trazado_215403" data-name="Trazado 215403" d="M463.759,222.644v.233h-.31a3.317,3.317,0,0,1-2.768-1.677c-6.809-11.6-9.3-18.973-10.2-23.077a13.323,13.323,0,0,1-.447-2.839,6.7,6.7,0,0,1-.012-1.432l.035-.214a13.431,13.431,0,0,1,26.8.129,5.96,5.96,0,0,1,.022.719v.048a13.454,13.454,0,0,1-.538,3.774c-.925,4.1-3.278,11.362-9.971,22.766A3.055,3.055,0,0,1,463.759,222.644Zm-13.005-28.661s0,.652.037,1.072v.087a12.783,12.783,0,0,0,.425,2.705l0,.037c.88,4.048,3.349,11.3,10.113,22.823a2.727,2.727,0,0,0,2.269,1.207l.155.384v-.379a3.15,3.15,0,0,0,2.02-1.213c6.651-11.33,9.256-18.531,9.961-22.576v-.024a12.178,12.178,0,0,0,.432-3.572l-.08-.054v0c0-.378,0-.582,0-.636l.006-.022a12.675,12.675,0,0,0-25.3-.044l-.018.209Z" fill="url(#linear-gradient-53)"/>
          </g>
          <circle id="Elipse_5490" data-name="Elipse 5490" cx="7.537" cy="7.537" r="7.537" transform="translate(455.956 186.869)" fill="#fff59d"/>
          <g id="Grupo_142915" data-name="Grupo 142915">
            <path id="Trazado_215404" data-name="Trazado 215404" d="M463.493,202.364a7.958,7.958,0,1,1,7.958-7.958A7.967,7.967,0,0,1,463.493,202.364Zm0-15.073a7.116,7.116,0,1,0,7.115,7.115A7.124,7.124,0,0,0,463.493,187.291Z" fill="url(#linear-gradient-54)"/>
          </g>
        </g>
        <g id="Grupo_142917" data-name="Grupo 142917">
          <path id="Trazado_215405" data-name="Trazado 215405" d="M456.343,186.559a.126.126,0,0,1-.082-.222,11.7,11.7,0,0,1,7.617-2.82.127.127,0,0,1,0,.253,11.443,11.443,0,0,0-7.452,2.759A.13.13,0,0,1,456.343,186.559Z" fill="#fff" opacity="0.7"/>
        </g>
        <g id="Grupo_142918" data-name="Grupo 142918">
          <path id="Trazado_215406" data-name="Trazado 215406" d="M452.307,195.34a.126.126,0,0,1-.126-.126,11.669,11.669,0,0,1,1.75-6.157.126.126,0,1,1,.215.133,11.419,11.419,0,0,0-1.712,6.024A.126.126,0,0,1,452.307,195.34Z" fill="#fff" opacity="0.7"/>
        </g>
      </g>
      <g id="Grupo_142926" data-name="Grupo 142926">
        <g id="Grupo_142923" data-name="Grupo 142923">
          <g id="Grupo_142920" data-name="Grupo 142920">
            <circle id="Elipse_5491" data-name="Elipse 5491" cx="13.053" cy="13.053" r="13.053" transform="translate(349.447 159.89)" fill="#d84318"/>
            <path id="Trazado_215407" data-name="Trazado 215407" d="M375.528,171.784H349.447s-1.039,7.474,10.61,27.318a2.93,2.93,0,0,0,2.441,1.5,2.979,2.979,0,0,0,2.442-1.546C376.588,179.208,375.528,171.784,375.528,171.784Z" fill="#d84318"/>
          </g>
          <g id="Grupo_142921" data-name="Grupo 142921">
            <path id="Trazado_215408" data-name="Trazado 215408" d="M362.982,201.139v.244H362.5a3.323,3.323,0,0,1-2.768-1.683c-6.809-11.6-9.3-18.976-10.2-23.08a13.334,13.334,0,0,1-.447-2.84,6.713,6.713,0,0,1-.012-1.433l.034-.214a13.431,13.431,0,0,1,26.8.129,5.814,5.814,0,0,1,.021.719v.048a13.459,13.459,0,0,1-.538,3.774c-.925,4.1-3.191,11.362-9.885,22.765A3.415,3.415,0,0,1,362.982,201.139ZM349.8,172.488s0,.647.037,1.067v.085a12.775,12.775,0,0,0,.425,2.7l.005.036c.88,4.048,3.349,11.3,10.113,22.823a2.884,2.884,0,0,0,2.355,1.207l.243.384v-.379a4.018,4.018,0,0,0,1.843-1.213c6.651-11.331,9.08-18.531,9.785-22.577V176.6a12.184,12.184,0,0,0,.432-3.573l-.08-.053v0a3.1,3.1,0,0,1,.087-.636l.051-.022a12.657,12.657,0,0,0-25.265-.039l-.008.214Z" fill="#d84318"/>
          </g>
          <circle id="Elipse_5492" data-name="Elipse 5492" cx="7.537" cy="7.537" r="7.537" transform="translate(355.005 165.364)" fill="#fff59d"/>
          <g id="Grupo_142922" data-name="Grupo 142922">
            <path id="Trazado_215409" data-name="Trazado 215409" d="M362.542,180.859A7.958,7.958,0,1,1,370.5,172.9,7.967,7.967,0,0,1,362.542,180.859Zm0-15.074a7.116,7.116,0,1,0,7.115,7.116A7.124,7.124,0,0,0,362.542,165.785Z" fill="url(#linear-gradient-55)"/>
          </g>
        </g>
        <g id="Grupo_142924" data-name="Grupo 142924">
          <path id="Trazado_215410" data-name="Trazado 215410" d="M355.392,165.054a.126.126,0,0,1-.082-.222,11.692,11.692,0,0,1,7.617-2.82.127.127,0,0,1,0,.253,11.446,11.446,0,0,0-7.453,2.758A.122.122,0,0,1,355.392,165.054Z" fill="#fff" opacity="0.7"/>
        </g>
        <g id="Grupo_142925" data-name="Grupo 142925">
          <path id="Trazado_215411" data-name="Trazado 215411" d="M351.356,173.835a.127.127,0,0,1-.126-.126,11.664,11.664,0,0,1,1.75-6.157.126.126,0,0,1,.174-.041.128.128,0,0,1,.041.174,11.413,11.413,0,0,0-1.712,6.024A.127.127,0,0,1,351.356,173.835Z" fill="#fff" opacity="0.7"/>
        </g>
      </g>
      <g id="Grupo_142927" data-name="Grupo 142927">
        <rect id="Rectángulo_42200" data-name="Rectángulo 42200" width="25.518" height="45.98" rx="12.759" transform="translate(398.709 349.245)" fill="url(#linear-gradient-37)"/>
        <path id="Trazado_215412" data-name="Trazado 215412" d="M420.5,349.486H402.441v-3.759a4.666,4.666,0,0,1,4.667-4.667h8.721a4.667,4.667,0,0,1,4.667,4.667Z" fill="#fff59d"/>
        <path id="Trazado_215413" data-name="Trazado 215413" d="M415.922,339.856H407.5V321.922a4.213,4.213,0,0,1,4.213-4.213h0a4.213,4.213,0,0,1,4.213,4.213Z" fill="url(#linear-gradient-37)"/>
        <rect id="Rectángulo_42201" data-name="Rectángulo 42201" width="12.518" height="2.167" transform="translate(405.39 333.597)" fill="#fff59d"/>
        <path id="Trazado_215414" data-name="Trazado 215414" d="M407.566,345.892l-.2,35.173a3.961,3.961,0,0,0,1.7,3.279,1.886,1.886,0,0,1,.832,1.55v.1a1.124,1.124,0,0,0,1.118,1.13l.772,0a1.123,1.123,0,0,0,1.13-1.117v-.231a1.833,1.833,0,0,1,.754-1.473,3.965,3.965,0,0,0,1.644-3.2l.2-35.173Z" fill="#fff59d"/>
        <path id="Rectángulo_42202" data-name="Rectángulo 42202" d="M6.926,0h7.333a6.926,6.926,0,0,1,6.926,6.926v0A4.389,4.389,0,0,1,16.8,11.314H4.389A4.389,4.389,0,0,1,0,6.926v0A6.926,6.926,0,0,1,6.926,0Z" transform="translate(400.876 335.764)" fill="url(#linear-gradient-37)"/>
      </g>
    </g>
  </g>
</svg>
