<svg xmlns="http://www.w3.org/2000/svg" width="400" height="304.418" viewBox="0 0 400 304.418">
  <g id="Grupo_145084" data-name="Grupo 145084" transform="translate(-10944.5 9051)">
    <g id="Grupo_142828" data-name="Grupo 142828" transform="translate(-1512.5 557.999)">
      <path id="Trazado_215228" data-name="Trazado 215228" d="M96.729,383.695s-36.757-54.883.526-123.094c34.572-63.252,88.086-32.905,121.826-90.968,85.481-147.107,267.953-34.019,240.576,91.007-13.248,60.5,40.322,62.7,13.026,123.184Z" transform="translate(12376.452 -9709.055)" fill="#f0f8ff"/>
    </g>
    <g id="Grupo_143196" data-name="Grupo 143196" transform="translate(-1523.167 -27)">
      <g id="Grupo_143195" data-name="Grupo 143195" transform="translate(12498.667 -9024)">
        <g id="Grupo_143145" data-name="Grupo 143145" transform="translate(9.468 103.974)">
          <path id="Trazado_215961" data-name="Trazado 215961" d="M184.888,269.43a51.858,51.858,0,0,0,3.692,9.167L176.45,290.5a.027.027,0,0,0,0,.038l21.477,21.882a.027.027,0,0,0,.038,0L210.1,300.518a52.189,52.189,0,0,0,9.095,3.868h0l-.158,17a.027.027,0,0,0,.027.027l30.66.286a.027.027,0,0,0,.028-.027l.158-17.011h0a51.685,51.685,0,0,0,9.172-3.678l11.9,12.125a.027.027,0,0,0,.038,0L292.9,291.629a.027.027,0,0,0,0-.038L281,279.462a52.357,52.357,0,0,0,3.864-9.1h0l17,.158a.027.027,0,0,0,.028-.027l.286-30.66a.027.027,0,0,0-.027-.027l-17.009-.159h0a51.473,51.473,0,0,0-3.681-9.17l12.127-11.9a.027.027,0,0,0,0-.038l-21.478-21.882a.027.027,0,0,0-.038,0l-12.134,11.909a51.851,51.851,0,0,0-9.093-3.87h0l.158-17a.027.027,0,0,0-.027-.027l-30.66-.286a.027.027,0,0,0-.027.027l-.159,17a51.923,51.923,0,0,0-9.166,3.694l-11.907-12.131a.027.027,0,0,0-.038,0L177.131,217.45a.027.027,0,0,0,0,.038l11.9,12.128a51.807,51.807,0,0,0-3.855,9.1h0l-17.006-.159a.027.027,0,0,0-.027.027l-.286,30.66a.027.027,0,0,0,.027.028l17,.158Zm43.1-47.044a33.574,33.574,0,1,1-25.634,39.967A33.575,33.575,0,0,1,227.991,222.386Z" transform="translate(-167.86 -187.383)" fill="#fff"/>
        </g>
        <g id="Grupo_143160" data-name="Grupo 143160" transform="translate(227.97 76.903)">
          <path id="Trazado_215962" data-name="Trazado 215962" d="M418.852,156.287v160.7h8.273V275.166h99.63v41.823h6.393v-160.7Zm8.273,65.032h99.63v42.142h-99.63Zm0-53.847h99.63v42.142h-99.63Z" transform="translate(-418.852 -156.287)" fill="#1b3f5e"/>
          <g id="Grupo_143147" data-name="Grupo 143147" transform="translate(89.105 11.186)">
            <rect id="Rectángulo_42621" data-name="Rectángulo 42621" width="14.568" height="42.089" transform="translate(14.568 42.089) rotate(180)" fill="#1b3f5e"/>
            <path id="Trazado_215963" data-name="Trazado 215963" d="M525.041,206.832a3.945,3.945,0,1,0,3.945-3.945A3.945,3.945,0,0,0,525.041,206.832Z" transform="translate(-521.703 -173.505)" fill="#fff"/>
            <circle id="Elipse_5507" data-name="Elipse 5507" cx="3.094" cy="3.094" r="3.094" transform="translate(4.19 30.233)" fill="#ddf2fe"/>
            <rect id="Rectángulo_42622" data-name="Rectángulo 42622" width="9.257" height="20.031" transform="translate(11.836 25.386) rotate(180)" fill="#d84318"/>
            <g id="Grupo_143146" data-name="Grupo 143146" transform="translate(3.304 8.693)">
              <rect id="Rectángulo_42623" data-name="Rectángulo 42623" width="7.809" height="0.326" transform="translate(7.809 14.568) rotate(180)" fill="#ddf2fe"/>
              <rect id="Rectángulo_42624" data-name="Rectángulo 42624" width="7.809" height="0.326" transform="translate(7.809 11.72) rotate(180)" fill="#ddf2fe"/>
              <rect id="Rectángulo_42625" data-name="Rectángulo 42625" width="7.809" height="0.326" transform="translate(7.809 8.871) rotate(180)" fill="#ddf2fe"/>
              <rect id="Rectángulo_42626" data-name="Rectángulo 42626" width="7.809" height="0.326" transform="translate(7.809 3.174) rotate(180)" fill="#ddf2fe"/>
              <rect id="Rectángulo_42627" data-name="Rectángulo 42627" width="7.809" height="0.326" transform="translate(7.809 0.326) rotate(180)" fill="#ddf2fe"/>
              <rect id="Rectángulo_42628" data-name="Rectángulo 42628" width="7.809" height="0.326" transform="translate(7.809 6.023) rotate(180)" fill="#ddf2fe"/>
            </g>
          </g>
          <g id="Grupo_143149" data-name="Grupo 143149" transform="translate(59.969 11.186)">
            <rect id="Rectángulo_42629" data-name="Rectángulo 42629" width="14.568" height="42.089" transform="translate(14.568 42.089) rotate(180)" fill="#1b3f5e"/>
            <path id="Trazado_215964" data-name="Trazado 215964" d="M491.573,206.832a3.945,3.945,0,1,0,3.945-3.945A3.945,3.945,0,0,0,491.573,206.832Z" transform="translate(-488.234 -173.505)" fill="#fff"/>
            <circle id="Elipse_5508" data-name="Elipse 5508" cx="3.094" cy="3.094" r="3.094" transform="translate(4.19 30.233)" fill="#ddf2fe"/>
            <rect id="Rectángulo_42630" data-name="Rectángulo 42630" width="9.257" height="20.031" transform="translate(11.836 25.386) rotate(180)" fill="#d84318"/>
            <g id="Grupo_143148" data-name="Grupo 143148" transform="translate(3.304 8.693)">
              <rect id="Rectángulo_42631" data-name="Rectángulo 42631" width="7.809" height="0.326" transform="translate(7.809 14.568) rotate(180)" fill="#72b1eb"/>
              <rect id="Rectángulo_42632" data-name="Rectángulo 42632" width="7.809" height="0.326" transform="translate(7.809 11.72) rotate(180)" fill="#72b1eb"/>
              <rect id="Rectángulo_42633" data-name="Rectángulo 42633" width="7.809" height="0.326" transform="translate(7.809 8.871) rotate(180)" fill="#72b1eb"/>
              <rect id="Rectángulo_42634" data-name="Rectángulo 42634" width="7.809" height="0.326" transform="translate(7.809 3.174) rotate(180)" fill="#72b1eb"/>
              <rect id="Rectángulo_42635" data-name="Rectángulo 42635" width="7.809" height="0.326" transform="translate(7.809 0.326) rotate(180)" fill="#72b1eb"/>
              <rect id="Rectángulo_42636" data-name="Rectángulo 42636" width="7.809" height="0.326" transform="translate(7.809 6.023) rotate(180)" fill="#72b1eb"/>
            </g>
          </g>
          <g id="Grupo_143151" data-name="Grupo 143151" transform="translate(74.537 11.186)">
            <rect id="Rectángulo_42637" data-name="Rectángulo 42637" width="14.568" height="42.089" transform="translate(14.568 42.089) rotate(180)" fill="#1b3f5e"/>
            <path id="Trazado_215965" data-name="Trazado 215965" d="M508.307,206.832a3.945,3.945,0,1,0,3.945-3.945A3.945,3.945,0,0,0,508.307,206.832Z" transform="translate(-504.969 -173.505)" fill="#fff"/>
            <circle id="Elipse_5509" data-name="Elipse 5509" cx="3.094" cy="3.094" r="3.094" transform="translate(4.19 30.233)" fill="#ddf2fe"/>
            <rect id="Rectángulo_42638" data-name="Rectángulo 42638" width="9.257" height="20.031" transform="translate(11.836 25.386) rotate(180)" fill="#d84318"/>
            <g id="Grupo_143150" data-name="Grupo 143150" transform="translate(3.304 8.693)">
              <rect id="Rectángulo_42639" data-name="Rectángulo 42639" width="7.809" height="0.326" transform="translate(7.809 14.568) rotate(180)" fill="#ddf2fe"/>
              <rect id="Rectángulo_42640" data-name="Rectángulo 42640" width="7.809" height="0.326" transform="translate(7.809 11.72) rotate(180)" fill="#ddf2fe"/>
              <rect id="Rectángulo_42641" data-name="Rectángulo 42641" width="7.809" height="0.326" transform="translate(7.809 8.871) rotate(180)" fill="#ddf2fe"/>
              <rect id="Rectángulo_42642" data-name="Rectángulo 42642" width="7.809" height="0.326" transform="translate(7.809 3.174) rotate(180)" fill="#ddf2fe"/>
              <rect id="Rectángulo_42643" data-name="Rectángulo 42643" width="7.809" height="0.326" transform="translate(7.809 0.326) rotate(180)" fill="#ddf2fe"/>
              <rect id="Rectángulo_42644" data-name="Rectángulo 42644" width="7.809" height="0.326" transform="translate(7.809 6.023) rotate(180)" fill="#ddf2fe"/>
            </g>
          </g>
          <g id="Grupo_143153" data-name="Grupo 143153" transform="translate(62.148 65.058)">
            <rect id="Rectángulo_42645" data-name="Rectángulo 42645" width="14.568" height="42.089" fill="#d84318"/>
            <path id="Trazado_215966" data-name="Trazado 215966" d="M501.967,268.715a3.945,3.945,0,1,1-3.945-3.945A3.945,3.945,0,0,1,501.967,268.715Z" transform="translate(-490.737 -235.388)" fill="#fff"/>
            <circle id="Elipse_5510" data-name="Elipse 5510" cx="3.094" cy="3.094" r="3.094" transform="translate(4.19 30.233)" fill="#ddf2fe"/>
            <rect id="Rectángulo_42646" data-name="Rectángulo 42646" width="9.257" height="20.031" transform="translate(2.731 5.355)" fill="#164767"/>
            <g id="Grupo_143152" data-name="Grupo 143152" transform="translate(3.455 8.693)">
              <rect id="Rectángulo_42647" data-name="Rectángulo 42647" width="7.809" height="0.326" transform="translate(0 14.242)" fill="#ddf2fe"/>
              <rect id="Rectángulo_42648" data-name="Rectángulo 42648" width="7.809" height="0.326" transform="translate(0 11.394)" fill="#ddf2fe"/>
              <rect id="Rectángulo_42649" data-name="Rectángulo 42649" width="7.809" height="0.326" transform="translate(0 8.545)" fill="#ddf2fe"/>
              <rect id="Rectángulo_42650" data-name="Rectángulo 42650" width="7.809" height="0.326" transform="translate(0 2.848)" fill="#ddf2fe"/>
              <rect id="Rectángulo_42651" data-name="Rectángulo 42651" width="7.809" height="0.326" fill="#ddf2fe"/>
              <rect id="Rectángulo_42652" data-name="Rectángulo 42652" width="7.809" height="0.326" transform="translate(0 5.697)" fill="#ddf2fe"/>
            </g>
          </g>
          <g id="Grupo_143155" data-name="Grupo 143155" transform="translate(41.681 11.212)">
            <rect id="Rectángulo_42653" data-name="Rectángulo 42653" width="14.568" height="42.089" fill="#1b3f5e"/>
            <path id="Trazado_215967" data-name="Trazado 215967" d="M478.457,206.862a3.946,3.946,0,1,1-3.945-3.945A3.945,3.945,0,0,1,478.457,206.862Z" transform="translate(-467.227 -173.535)" fill="#fff"/>
            <circle id="Elipse_5511" data-name="Elipse 5511" cx="3.094" cy="3.094" r="3.094" transform="translate(4.19 30.233)" fill="#ddf2fe"/>
            <rect id="Rectángulo_42654" data-name="Rectángulo 42654" width="9.257" height="20.031" transform="translate(2.732 5.355)" fill="#d84318"/>
            <g id="Grupo_143154" data-name="Grupo 143154" transform="translate(3.455 8.693)">
              <rect id="Rectángulo_42655" data-name="Rectángulo 42655" width="7.809" height="0.326" transform="translate(0 14.242)" fill="#ddf2fe"/>
              <rect id="Rectángulo_42656" data-name="Rectángulo 42656" width="7.809" height="0.326" transform="translate(0 11.394)" fill="#ddf2fe"/>
              <rect id="Rectángulo_42657" data-name="Rectángulo 42657" width="7.809" height="0.326" transform="translate(0 8.545)" fill="#ddf2fe"/>
              <rect id="Rectángulo_42658" data-name="Rectángulo 42658" width="7.809" height="0.326" transform="translate(0 2.848)" fill="#ddf2fe"/>
              <rect id="Rectángulo_42659" data-name="Rectángulo 42659" width="7.809" height="0.326" fill="#ddf2fe"/>
              <rect id="Rectángulo_42660" data-name="Rectángulo 42660" width="7.809" height="0.326" transform="translate(0 5.697)" fill="#ddf2fe"/>
            </g>
          </g>
          <g id="Grupo_143157" data-name="Grupo 143157" transform="translate(76.595 64.926)">
            <rect id="Rectángulo_42661" data-name="Rectángulo 42661" width="14.568" height="39.79" transform="translate(0 3.945) rotate(-15.712)" fill="#d84318"/>
            <path id="Trazado_215968" data-name="Trazado 215968" d="M527.754,265.787a3.946,3.946,0,1,1-4.867-2.73A3.946,3.946,0,0,1,527.754,265.787Z" transform="translate(-508.541 -235.014)" fill="#fff"/>
            <path id="Trazado_215969" data-name="Trazado 215969" d="M524.92,269.961a3.094,3.094,0,1,1,2.141-3.816A3.1,3.1,0,0,1,524.92,269.961Z" transform="translate(-508.668 -235.141)" fill="#ddf2fe"/>
            <rect id="Rectángulo_42662" data-name="Rectángulo 42662" width="9.257" height="19.278" transform="translate(3.831 7.476) rotate(-15.712)" fill="#fff"/>
            <g id="Grupo_143156" data-name="Grupo 143156" transform="translate(5.398 8.258)">
              <rect id="Rectángulo_42663" data-name="Rectángulo 42663" width="7.809" height="0.314" transform="translate(3.712 15.309) rotate(-15.712)" fill="#72b1eb"/>
              <rect id="Rectángulo_42664" data-name="Rectángulo 42664" width="7.809" height="0.314" transform="translate(2.969 12.67) rotate(-15.712)" fill="#72b1eb"/>
              <rect id="Rectángulo_42665" data-name="Rectángulo 42665" width="7.809" height="0.314" transform="translate(2.227 10.031) rotate(-15.712)" fill="#72b1eb"/>
              <rect id="Rectángulo_42666" data-name="Rectángulo 42666" width="7.809" height="0.314" transform="translate(0.742 4.754) rotate(-15.712)" fill="#72b1eb"/>
              <rect id="Rectángulo_42667" data-name="Rectángulo 42667" width="7.809" height="0.314" transform="translate(0 2.115) rotate(-15.712)" fill="#72b1eb"/>
              <rect id="Rectángulo_42668" data-name="Rectángulo 42668" width="7.809" height="0.314" transform="translate(1.485 7.392) rotate(-15.712)" fill="#72b1eb"/>
            </g>
          </g>
          <g id="Grupo_143159" data-name="Grupo 143159" transform="translate(47.576 65.058)">
            <rect id="Rectángulo_42669" data-name="Rectángulo 42669" width="14.568" height="42.089" fill="#d84318"/>
            <path id="Trazado_215970" data-name="Trazado 215970" d="M485.229,268.715a3.946,3.946,0,1,1-3.945-3.945A3.945,3.945,0,0,1,485.229,268.715Z" transform="translate(-473.999 -235.388)" fill="#fff"/>
            <circle id="Elipse_5512" data-name="Elipse 5512" cx="3.094" cy="3.094" r="3.094" transform="translate(4.19 30.233)" fill="#ddf2fe"/>
            <rect id="Rectángulo_42670" data-name="Rectángulo 42670" width="9.257" height="20.031" transform="translate(2.732 5.355)" fill="#fff"/>
            <g id="Grupo_143158" data-name="Grupo 143158" transform="translate(3.455 8.693)">
              <rect id="Rectángulo_42671" data-name="Rectángulo 42671" width="7.809" height="0.326" transform="translate(0 14.242)" fill="#72b1eb"/>
              <rect id="Rectángulo_42672" data-name="Rectángulo 42672" width="7.809" height="0.326" transform="translate(0 11.394)" fill="#72b1eb"/>
              <rect id="Rectángulo_42673" data-name="Rectángulo 42673" width="7.809" height="0.326" transform="translate(0 8.545)" fill="#72b1eb"/>
              <rect id="Rectángulo_42674" data-name="Rectángulo 42674" width="7.809" height="0.326" transform="translate(0 2.848)" fill="#72b1eb"/>
              <rect id="Rectángulo_42675" data-name="Rectángulo 42675" width="7.809" height="0.326" fill="#72b1eb"/>
              <rect id="Rectángulo_42676" data-name="Rectángulo 42676" width="7.809" height="0.326" transform="translate(0 5.697)" fill="#72b1eb"/>
            </g>
          </g>
        </g>
        <g id="Grupo_143161" data-name="Grupo 143161" transform="translate(122.427 0)">
          <path id="Trazado_215971" data-name="Trazado 215971" d="M380.556,114.882H298.5l-.808-8.706a14.911,14.911,0,0,1,15.094-16.639h48.783a18.648,18.648,0,0,1,18.183,16.639Z" transform="translate(-297.616 -70.743)" fill="#eaa813"/>
          <path id="Trazado_215972" data-name="Trazado 215972" d="M337.354,67.949a11.522,11.522,0,0,0-11.664,12.857,14.409,14.409,0,0,0,14.051,12.857,11.522,11.522,0,0,0,11.664-12.857A14.409,14.409,0,0,0,337.354,67.949ZM339.1,86.762a6.684,6.684,0,0,1-6.509-5.955A5.344,5.344,0,0,1,338,74.85a6.682,6.682,0,0,1,6.508,5.956A5.343,5.343,0,0,1,339.1,86.762Z" transform="translate(-301.242 -67.949)" fill="#eaa813"/>
        </g>
        <path id="Trazado_215973" data-name="Trazado 215973" d="M417.072,309.544H284.139A10.7,10.7,0,0,1,273.71,300L255.917,108.314a8.552,8.552,0,0,1,8.658-9.543H397.508a10.7,10.7,0,0,1,10.429,9.543L425.73,300A8.553,8.553,0,0,1,417.072,309.544Z" transform="translate(-169.785 -71.939)" fill="#1b3f5e"/>
        <path id="Trazado_215974" data-name="Trazado 215974" d="M420.756,309.544H287.823A10.7,10.7,0,0,1,277.394,300L259.6,108.314a8.553,8.553,0,0,1,8.658-9.543H401.191a10.7,10.7,0,0,1,10.429,9.543L429.414,300A8.552,8.552,0,0,1,420.756,309.544Z" transform="translate(-170.262 -71.939)" fill="#1b3f5e"/>
        <path id="Trazado_215975" data-name="Trazado 215975" d="M414.447,288.061H294.69L278.47,113.32H398.227Z" transform="translate(-172.71 -73.822)" fill="#d84318"/>
        <path id="Trazado_215976" data-name="Trazado 215976" d="M303.627,275.934,289.9,128.036a4.227,4.227,0,0,1,4.279-4.717H387.09a5.286,5.286,0,0,1,5.154,4.717l13.729,147.9a4.227,4.227,0,0,1-4.279,4.717H308.78A5.286,5.286,0,0,1,303.627,275.934Z" transform="translate(-174.187 -75.116)" fill="#fff"/>
        <g id="Grupo_143162" data-name="Grupo 143162" transform="translate(127.751 0)">
          <path id="Trazado_215977" data-name="Trazado 215977" d="M386.672,114.882H304.611l-.808-8.706A14.911,14.911,0,0,1,318.9,89.537H367.68a18.646,18.646,0,0,1,18.183,16.639Z" transform="translate(-303.731 -70.743)" fill="#fff59d"/>
          <path id="Trazado_215978" data-name="Trazado 215978" d="M343.469,67.949a11.522,11.522,0,0,0-11.664,12.857,14.409,14.409,0,0,0,14.051,12.857,11.523,11.523,0,0,0,11.665-12.857A14.41,14.41,0,0,0,343.469,67.949Zm1.747,18.813a6.683,6.683,0,0,1-6.509-5.955,5.343,5.343,0,0,1,5.4-5.956,6.683,6.683,0,0,1,6.508,5.956A5.343,5.343,0,0,1,345.217,86.762Z" transform="translate(-307.357 -67.949)" fill="#fff59d"/>
        </g>
        <path id="Trazado_215979" data-name="Trazado 215979" d="M386.683,117.356H304.622l-.808-8.706h82.061Z" transform="translate(-175.991 -73.217)" fill="#fff59d"/>
        <g id="Grupo_143173" data-name="Grupo 143173" transform="translate(130.189 89.982)">
          <g id="Grupo_143163" data-name="Grupo 143163" transform="translate(0)">
            <path id="Trazado_215980" data-name="Trazado 215980" d="M382.551,174.43H308.243a1.748,1.748,0,0,1-1.7-1.56h0a1.4,1.4,0,0,1,1.415-1.56h74.309a1.749,1.749,0,0,1,1.7,1.56h0A1.4,1.4,0,0,1,382.551,174.43Z" transform="translate(-306.531 -171.31)" fill="#1b3f5e"/>
            <path id="Trazado_215981" data-name="Trazado 215981" d="M383.3,182.466H308.989a1.748,1.748,0,0,1-1.7-1.56h0a1.4,1.4,0,0,1,1.415-1.559h74.309a1.748,1.748,0,0,1,1.7,1.559h0A1.4,1.4,0,0,1,383.3,182.466Z" transform="translate(-306.628 -172.35)" fill="#1b3f5e"/>
            <path id="Trazado_215982" data-name="Trazado 215982" d="M331.807,190.5H309.735a1.748,1.748,0,0,1-1.7-1.559h0a1.4,1.4,0,0,1,1.415-1.56h22.072a1.748,1.748,0,0,1,1.7,1.56h0A1.4,1.4,0,0,1,331.807,190.5Z" transform="translate(-306.724 -173.391)" fill="#1b3f5e"/>
          </g>
          <g id="Grupo_143166" data-name="Grupo 143166" transform="translate(2.695 25.318)">
            <g id="Grupo_143164" data-name="Grupo 143164" transform="translate(27.081 5.309)">
              <path id="Trazado_215983" data-name="Trazado 215983" d="M389.821,209.61H342.446a1.748,1.748,0,0,1-1.7-1.56h0a1.4,1.4,0,0,1,1.415-1.559h47.376a1.748,1.748,0,0,1,1.705,1.559h0A1.4,1.4,0,0,1,389.821,209.61Z" transform="translate(-340.734 -206.491)" fill="#1b3f5e"/>
              <path id="Trazado_215984" data-name="Trazado 215984" d="M390.567,217.646H343.192a1.748,1.748,0,0,1-1.7-1.559h0a1.4,1.4,0,0,1,1.415-1.56h47.376a1.747,1.747,0,0,1,1.7,1.56h0A1.4,1.4,0,0,1,390.567,217.646Z" transform="translate(-340.831 -207.531)" fill="#1b3f5e"/>
              <path id="Trazado_215985" data-name="Trazado 215985" d="M366.009,225.683H343.938a1.748,1.748,0,0,1-1.7-1.56h0a1.4,1.4,0,0,1,1.415-1.56H365.72a1.748,1.748,0,0,1,1.7,1.56h0A1.4,1.4,0,0,1,366.009,225.683Z" transform="translate(-340.927 -208.571)" fill="#1b3f5e"/>
            </g>
            <g id="Grupo_143165" data-name="Grupo 143165">
              <path id="Trazado_215986" data-name="Trazado 215986" d="M328.19,204.716H311a1.348,1.348,0,0,0-1.365,1.505l1.6,17.192a1.686,1.686,0,0,0,1.644,1.5h17.192a1.349,1.349,0,0,0,1.365-1.5l-1.6-17.192A1.686,1.686,0,0,0,328.19,204.716Zm1.131,18.052a.089.089,0,0,1-.091.1h-15.9a.112.112,0,0,1-.11-.1l-1.476-15.9a.09.09,0,0,1,.091-.1h15.9a.113.113,0,0,1,.11.1Z" transform="translate(-309.626 -200.952)" fill="#d84318"/>
              <path id="Trazado_215987" data-name="Trazado 215987" d="M324.271,220.085l-8.339-6.049,2.265-3.306,4.829,3.5,9.707-13.841,3.521,2.6Z" transform="translate(-310.443 -200.392)" fill="#fff59d"/>
            </g>
          </g>
          <g id="Grupo_143169" data-name="Grupo 143169" transform="translate(5.284 53.216)">
            <g id="Grupo_143167" data-name="Grupo 143167" transform="translate(27.081 5.309)">
              <path id="Trazado_215988" data-name="Trazado 215988" d="M392.8,241.657H345.421a1.747,1.747,0,0,1-1.7-1.56h0a1.4,1.4,0,0,1,1.415-1.559h47.376a1.748,1.748,0,0,1,1.7,1.559h0A1.4,1.4,0,0,1,392.8,241.657Z" transform="translate(-343.709 -238.538)" fill="#1b3f5e"/>
              <path id="Trazado_215989" data-name="Trazado 215989" d="M393.542,249.693H346.167a1.747,1.747,0,0,1-1.7-1.559h0a1.4,1.4,0,0,1,1.415-1.56h47.376a1.748,1.748,0,0,1,1.7,1.56h0A1.4,1.4,0,0,1,393.542,249.693Z" transform="translate(-343.806 -239.578)" fill="#1b3f5e"/>
              <path id="Trazado_215990" data-name="Trazado 215990" d="M368.984,257.73H346.912a1.749,1.749,0,0,1-1.705-1.56h0a1.4,1.4,0,0,1,1.416-1.56h22.072a1.748,1.748,0,0,1,1.7,1.56h0A1.4,1.4,0,0,1,368.984,257.73Z" transform="translate(-343.902 -240.618)" fill="#1b3f5e"/>
            </g>
            <g id="Grupo_143168" data-name="Grupo 143168">
              <path id="Trazado_215991" data-name="Trazado 215991" d="M331.165,236.763H313.972a1.348,1.348,0,0,0-1.364,1.505l1.6,17.192a1.686,1.686,0,0,0,1.644,1.5h17.192a1.348,1.348,0,0,0,1.365-1.5l-1.6-17.192A1.686,1.686,0,0,0,331.165,236.763Zm1.131,18.052a.091.091,0,0,1-.091.1H316.3a.113.113,0,0,1-.11-.1l-1.476-15.9a.09.09,0,0,1,.091-.1h15.9a.113.113,0,0,1,.11.1Z" transform="translate(-312.601 -232.999)" fill="#d84318"/>
              <path id="Trazado_215992" data-name="Trazado 215992" d="M327.246,252.132l-8.339-6.049,2.265-3.306,4.829,3.5,9.707-13.841,3.522,2.6Z" transform="translate(-313.418 -232.439)" fill="#fff59d"/>
            </g>
          </g>
          <g id="Grupo_143172" data-name="Grupo 143172" transform="translate(7.874 81.115)">
            <g id="Grupo_143170" data-name="Grupo 143170" transform="translate(27.081 5.309)">
              <path id="Trazado_215993" data-name="Trazado 215993" d="M395.77,273.7H348.395a1.748,1.748,0,0,1-1.7-1.56h0a1.4,1.4,0,0,1,1.415-1.559h47.376a1.748,1.748,0,0,1,1.7,1.559h0A1.4,1.4,0,0,1,395.77,273.7Z" transform="translate(-346.683 -270.585)" fill="#1b3f5e"/>
              <path id="Trazado_215994" data-name="Trazado 215994" d="M396.516,281.74H349.141a1.748,1.748,0,0,1-1.7-1.559h0a1.4,1.4,0,0,1,1.415-1.56h47.376a1.748,1.748,0,0,1,1.7,1.56h0A1.4,1.4,0,0,1,396.516,281.74Z" transform="translate(-346.78 -271.625)" fill="#1b3f5e"/>
              <path id="Trazado_215995" data-name="Trazado 215995" d="M371.959,289.777H349.887a1.749,1.749,0,0,1-1.7-1.56h0a1.4,1.4,0,0,1,1.415-1.56h22.071a1.747,1.747,0,0,1,1.7,1.56h0A1.4,1.4,0,0,1,371.959,289.777Z" transform="translate(-346.876 -272.665)" fill="#1b3f5e"/>
            </g>
            <g id="Grupo_143171" data-name="Grupo 143171">
              <path id="Trazado_215996" data-name="Trazado 215996" d="M334.139,268.81H316.947a1.349,1.349,0,0,0-1.365,1.505l1.6,17.192a1.686,1.686,0,0,0,1.644,1.5h17.192a1.348,1.348,0,0,0,1.365-1.5l-1.6-17.192A1.686,1.686,0,0,0,334.139,268.81Zm1.131,18.052a.09.09,0,0,1-.091.1h-15.9a.112.112,0,0,1-.109-.1l-1.476-15.9a.09.09,0,0,1,.091-.1h15.9a.113.113,0,0,1,.11.1Z" transform="translate(-315.576 -265.046)" fill="#d84318"/>
              <path id="Trazado_215997" data-name="Trazado 215997" d="M330.221,284.179l-8.339-6.049,2.265-3.306,4.829,3.5,9.707-13.841,3.521,2.6Z" transform="translate(-316.392 -264.486)" fill="#fff59d"/>
            </g>
          </g>
        </g>
        <g id="Grupo_143174" data-name="Grupo 143174" transform="translate(127.688 59.116)">
          <path id="Trazado_215998" data-name="Trazado 215998" d="M303.659,136.128l1.892,20.893h3.973l-1.892-20.893Z" transform="translate(-303.659 -135.89)" fill="#1b3f5e"/>
          <path id="Trazado_215999" data-name="Trazado 215999" d="M320.109,148.051a12.44,12.44,0,0,0-2.192-2.818l-1.808-1.783a8.96,8.96,0,0,1-1.212-1.373,2.881,2.881,0,0,1-.381-1.307,2.036,2.036,0,0,1,.124-1.16c.037-.066.135-.24.573-.24a.591.591,0,0,1,.6.367,5.874,5.874,0,0,1,.393,1.92l.168,1.853h3.734l-.158-1.743a9.1,9.1,0,0,0-1.27-4.308,4.112,4.112,0,0,0-3.66-1.6c-1.7,0-2.9.471-3.549,1.4a5.912,5.912,0,0,0-.7,3.984,6.855,6.855,0,0,0,.877,2.87,10.835,10.835,0,0,0,1.89,2.338l1.611,1.519a8.456,8.456,0,0,1,1.534,1.85,4.887,4.887,0,0,1,.592,2.006,4.034,4.034,0,0,1-.063,1.611c-.03.083-.094.253-.553.253a.711.711,0,0,1-.714-.422,6.43,6.43,0,0,1-.446-2.173l-.22-2.431h-3.814l.207,2.287a9.39,9.39,0,0,0,1.4,4.578,4.351,4.351,0,0,0,3.792,1.686c1.733,0,2.935-.524,3.57-1.559a7.267,7.267,0,0,0,.634-4.426A8.1,8.1,0,0,0,320.109,148.051Z" transform="translate(-304.572 -135.855)" fill="#1b3f5e"/>
          <path id="Trazado_216000" data-name="Trazado 216000" d="M332.568,141.768a7.907,7.907,0,0,0-1.49-4.348,4.66,4.66,0,0,0-3.815-1.565,4.342,4.342,0,0,0-3.36,1.255c-.914,1-1.28,2.6-1.086,4.741l.826,9.13a8.33,8.33,0,0,0,1.572,4.617,4.752,4.752,0,0,0,3.857,1.614,3.944,3.944,0,0,0,3.6-1.657,7.427,7.427,0,0,0,.718-4.657Zm-4.933,9.165-.843-9.313a4.332,4.332,0,0,1,.1-1.849c.071-.185.192-.355.6-.355a.676.676,0,0,1,.687.394,5.849,5.849,0,0,1,.407,1.906l.841,9.3a7.109,7.109,0,0,1-.024,2.267c-.064.228-.182.368-.577.368a.712.712,0,0,1-.737-.426h0A7.347,7.347,0,0,1,327.635,150.933Z" transform="translate(-306.132 -135.855)" fill="#1b3f5e"/>
          <path id="Trazado_216001" data-name="Trazado 216001" d="M349.625,142.494a18.23,18.23,0,0,0-.605-3.507,4.391,4.391,0,0,0-1.541-2.295,5.247,5.247,0,0,0-3.195-.837,4.161,4.161,0,0,0-3.227,1.2c-.877.964-1.187,2.716-.948,5.357l.065.726a10.018,10.018,0,0,0,1.324,4.651,3.8,3.8,0,0,0,3.382,1.67,4.782,4.782,0,0,0,1.408-.18l.21,2.321a8.4,8.4,0,0,1,.075,1.591c-.045.155-.107.313-.15.427a.9.9,0,0,1-.43.061.555.555,0,0,1-.562-.356,7.77,7.77,0,0,1-.434-2.306l-.077-.843h-3.8l.145,1.6a6.849,6.849,0,0,0,1.47,4.131,4.661,4.661,0,0,0,3.564,1.315,3.706,3.706,0,0,0,3.409-1.644c.647-1.046.857-2.715.641-5.1Zm-3.674,2.991c-.021.286-.092.544-.73.544a.67.67,0,0,1-.681-.39,6.442,6.442,0,0,1-.428-2.136l-.161-1.78a5.342,5.342,0,0,1,.057-1.959c.067-.208.178-.337.526-.337a.657.657,0,0,1,.663.389,5.777,5.777,0,0,1,.411,1.955Z" transform="translate(-308.367 -135.855)" fill="#1b3f5e"/>
          <path id="Trazado_216002" data-name="Trazado 216002" d="M362.849,141.552a7.094,7.094,0,0,0-1.561-4.224,5.017,5.017,0,0,0-3.894-1.473,4.277,4.277,0,0,0-3.688,1.513,6.237,6.237,0,0,0-.812,4.267l.864,9.539a7.938,7.938,0,0,0,1.558,4.455,4.859,4.859,0,0,0,3.928,1.595,4.114,4.114,0,0,0,3.7-1.638,7.01,7.01,0,0,0,.768-4.495Zm-5.133,9.6-.88-9.732c-.125-1.37.077-1.686.117-1.733.237-.279.411-.279.467-.279a3.27,3.27,0,0,1,.54.03c.6.158.83,1.218.912,2.076l.879,9.721a4,4,0,0,1-.111,2.105.693.693,0,0,1-.662.338.9.9,0,0,1-.77-.362A4.687,4.687,0,0,1,357.716,151.148Z" transform="translate(-310.026 -135.855)" fill="#1b3f5e"/>
          <path id="Trazado_216003" data-name="Trazado 216003" d="M376.009,141.552a7.1,7.1,0,0,0-1.561-4.224,5.019,5.019,0,0,0-3.894-1.473,4.28,4.28,0,0,0-3.689,1.513,6.237,6.237,0,0,0-.811,4.267l.864,9.539a7.939,7.939,0,0,0,1.558,4.455,4.859,4.859,0,0,0,3.928,1.595,4.114,4.114,0,0,0,3.7-1.638,7.01,7.01,0,0,0,.768-4.495Zm-5.133,9.6-.88-9.732c-.124-1.37.077-1.686.117-1.733.237-.279.411-.279.467-.279a3.27,3.27,0,0,1,.54.03c.6.158.83,1.218.912,2.076l.879,9.721a4,4,0,0,1-.111,2.105.693.693,0,0,1-.662.338.9.9,0,0,1-.77-.362A4.689,4.689,0,0,1,370.876,151.148Z" transform="translate(-311.729 -135.855)" fill="#1b3f5e"/>
          <path id="Trazado_216004" data-name="Trazado 216004" d="M384.3,136.116h-3.119l-.106.318a3.1,3.1,0,0,1-1.015,1.5,3.169,3.169,0,0,1-1.537.687l-.436.062.282,3.119h.424a4.327,4.327,0,0,0,1.524-.285,3.27,3.27,0,0,0,.478-.223l1.424,15.73h3.973Z" transform="translate(-313.293 -135.889)" fill="#1b3f5e"/>
        </g>
        <g id="Grupo_143177" data-name="Grupo 143177" transform="translate(190.872 140.635)">
          <ellipse id="Elipse_5513" data-name="Elipse 5513" cx="53.697" cy="6.454" rx="53.697" ry="6.454" transform="translate(34.521 143.4)" fill="#ddf2fe"/>
          <g id="Grupo_143176" data-name="Grupo 143176" transform="translate(0 0)">
            <path id="Trazado_216005" data-name="Trazado 216005" d="M452.5,278.322l5.389,4.254c2.072-2,15.8-9.111,16.31-14.334a6.4,6.4,0,0,0-1.508-5.268c-2.819-2.768-6.035-2.136-8.556.24C461.391,265.805,452.5,278.322,452.5,278.322Z" transform="translate(-386.109 -233.593)" fill="#164767"/>
            <path id="Trazado_216006" data-name="Trazado 216006" d="M464.95,396.069h-4.305l-.377-4.5h4.305Z" transform="translate(-387.114 -250.474)" fill="#e7afa7"/>
            <path id="Trazado_216007" data-name="Trazado 216007" d="M511.169,396.069h-4.305l-1.684-4.5h4.3Z" transform="translate(-392.928 -250.474)" fill="#e7afa7"/>
            <path id="Trazado_216008" data-name="Trazado 216008" d="M477.572,260.708l8.127-.1-3.419-9.276-4.557,1.16Z" transform="translate(-389.354 -232.321)" fill="#f79889"/>
            <path id="Trazado_216009" data-name="Trazado 216009" d="M490.749,298.271l3.513-35.382a3.462,3.462,0,0,0-3.149-3.679l-21.1,1.723a2.962,2.962,0,0,0-3.078,3.166l2.888,34.172Z" transform="translate(-387.976 -233.341)" fill="#164767"/>
            <path id="Trazado_216010" data-name="Trazado 216010" d="M489.571,304.079l-8.053,10.66L465.93,381.7h-8.037l10.63-77.624Z" transform="translate(-386.807 -239.149)" fill="#f0f8ff"/>
            <path id="Trazado_216011" data-name="Trazado 216011" d="M474.563,304.079l1.915,9a5.029,5.029,0,0,0,4.946,4.118h0l18.135,64.5h7.849L491.73,304.079Z" transform="translate(-388.965 -239.149)" fill="#1b3f5e"/>
            <path id="Trazado_216012" data-name="Trazado 216012" d="M485.036,245.188a1.472,1.472,0,1,0,1.395-1.545A1.472,1.472,0,0,0,485.036,245.188Z" transform="translate(-390.32 -231.326)" fill="#f79889"/>
            <path id="Trazado_216013" data-name="Trazado 216013" d="M476.677,236.143a4.6,4.6,0,0,0-2.818,1.826,4.472,4.472,0,0,0-.817,2.8h0l.175,5.4a6.124,6.124,0,0,0,6.027,6.031,5.959,5.959,0,0,0,5.575-6.406l-.153-4.978,0-.006S484.328,234.949,476.677,236.143Z" transform="translate(-388.767 -230.335)" fill="#f79889"/>
            <path id="Trazado_216014" data-name="Trazado 216014" d="M484.792,245.3c-2.343,4.594-4.4,1.686-6.881,1.9-2.055.176-3.474,3.049-4.669-.958-.178,6.239,2.825,7.277,6.027,7.165C482.515,253.294,485.658,252.145,484.792,245.3Z" transform="translate(-388.793 -231.541)" fill="#164767"/>
            <path id="Trazado_216015" data-name="Trazado 216015" d="M458.61,394.395l2.371,1.04,2.2-1.04,1.976,6.449H446.84c0-3.225,6.886-3.225,6.886-3.225Z" transform="translate(-385.376 -250.84)" fill="#164767"/>
            <path id="Trazado_216016" data-name="Trazado 216016" d="M504.591,394.395l2.371,1.04,2.2-1.04,1.975,6.449H492.82c0-3.225,6.887-3.225,6.887-3.225Z" transform="translate(-391.328 -250.84)" fill="#164767"/>
            <g id="Grupo_143175" data-name="Grupo 143175">
              <path id="Trazado_216017" data-name="Trazado 216017" d="M379.676,244.946a29.178,29.178,0,1,0,39.475-12.013A29.177,29.177,0,0,0,379.676,244.946ZM424.208,268.7a21.293,21.293,0,1,1-8.767-28.808A21.317,21.317,0,0,1,424.208,268.7Z" transform="translate(-376.237 -229.495)" fill="#fff59d"/>
              <rect id="Rectángulo_42677" data-name="Rectángulo 42677" width="8.156" height="52.758" transform="matrix(0.471, -0.882, 0.882, 0.471, 48.143, 43.899)" fill="#fff59d"/>
              <path id="Trazado_216018" data-name="Trazado 216018" d="M494.477,307.4h0a8.156,8.156,0,0,1-11.034,3.358l-25.426-13.561,7.677-14.393,25.426,13.562A8.156,8.156,0,0,1,494.477,307.4Z" transform="translate(-386.823 -236.395)" fill="#d84318"/>
            </g>
            <path id="Trazado_216019" data-name="Trazado 216019" d="M484.187,305.925h0a1.927,1.927,0,0,0,2.76-.208l2.439-3.266,2.363-1.171-2.938-2.664-1.1.428a5.555,5.555,0,0,0-2.88,2.5l-1.162,2.122A1.82,1.82,0,0,0,484.187,305.925Z" transform="translate(-390.117 -238.442)" fill="#f79889"/>
            <path id="Trazado_216020" data-name="Trazado 216020" d="M493.725,300.82l14.835-12.272-6.44-5.057-13.406,12.742Z" transform="translate(-390.797 -236.484)" fill="#164767"/>
            <path id="Trazado_216021" data-name="Trazado 216021" d="M503.255,284.973A4.678,4.678,0,1,0,507,279.519,4.678,4.678,0,0,0,503.255,284.973Z" transform="translate(-392.668 -235.96)" fill="#164767"/>
            <path id="Trazado_216022" data-name="Trazado 216022" d="M501.823,281.509l8.42-1.853c-1.389-2.522-8.413-17.937-13.32-19.8a6.4,6.4,0,0,0-5.479.079c-3.408,2-3.638,5.266-2,8.321C491.223,271.586,501.823,281.509,501.823,281.509Z" transform="translate(-390.763 -233.351)" fill="#164767"/>
            <path id="Trazado_216023" data-name="Trazado 216023" d="M438.386,283.454l.13.411a8.425,8.425,0,0,0,10.815,5.418h0Z" transform="translate(-384.282 -236.48)" fill="#164767"/>
            <path id="Trazado_216024" data-name="Trazado 216024" d="M441.887,282.448a3.418,3.418,0,0,0-3.359.6.592.592,0,0,0,.088.977l4.286,2.329a.584.584,0,0,0,.842-.336A2.947,2.947,0,0,0,441.887,282.448Z" transform="translate(-384.272 -236.323)" fill="#f79889"/>
            <path id="Trazado_216025" data-name="Trazado 216025" d="M439.49,284.414l-1.416-.767a.516.516,0,0,1-.271-.462l.019-1.076a.833.833,0,0,1,.833-.819h0a.834.834,0,0,1,.834.833Z" transform="translate(-384.206 -236.2)" fill="#f79889"/>
            <path id="Trazado_216026" data-name="Trazado 216026" d="M485.119,234.646a1.85,1.85,0,0,0-.192-.118c-.747-.4-1.211.033-1.94.05a3.717,3.717,0,0,1-2.163-.836,8,8,0,0,0-2.583-1.584,2.939,2.939,0,0,0-2.8.868c-.592.635-.636,1.586-1.192,2.248-.27.322-.7.37-1.045.609a2.5,2.5,0,0,0-.934,2.9c.069.2.356,1.434.661,1.274.457-.24.46-.887.723-1.331a1.866,1.866,0,0,1,1.939-.653,19.638,19.638,0,0,0,2.121.466,11.161,11.161,0,0,0,2.919-.635,2.387,2.387,0,0,1,2.67.815,2.594,2.594,0,0,1,.1,1.732,3.047,3.047,0,0,0-.03,2.162,1.642,1.642,0,0,0,2.823-.284,4.151,4.151,0,0,0,.456-1.8,11.591,11.591,0,0,0-.433-4.045A3.316,3.316,0,0,0,485.119,234.646Z" transform="translate(-388.65 -229.83)" fill="#164767"/>
          </g>
        </g>
        <g id="Grupo_143184" data-name="Grupo 143184" transform="translate(21.164 148.053)">
          <ellipse id="Elipse_5514" data-name="Elipse 5514" cx="53.697" cy="6.454" rx="53.697" ry="6.454" transform="translate(0 143.456)" fill="#ddf2fe"/>
          <g id="Grupo_143183" data-name="Grupo 143183" transform="translate(25.714 0)">
            <path id="Trazado_216027" data-name="Trazado 216027" d="M235.625,238.251a8.238,8.238,0,0,0-7.053,1.463c-1.2.985-2.09,2.357-3.46,3.085s-3.108.73-4.348,1.679a5.03,5.03,0,0,0-1.628,4.231c.058,1.57.525,3.093.73,4.651.467,3.557-1.6,5.659-3.725,8.214a11.426,11.426,0,0,0-2.855,5.908,5.794,5.794,0,0,0,2.63,5.7,5.59,5.59,0,0,0,2.516.629c2.132.059,4.161-.814,6.223-1.356s4.451-.7,6.142.6c.488.374.891.855,1.4,1.2,1.8,1.2,4.4.238,5.67-1.513s1.529-4.02,1.641-6.18a48.635,48.635,0,0,0-.055-5.855,12.489,12.489,0,0,1,1.228-5.43c.547-1.4,1.426-2.558,1.987-3.948,1.88-4.664-.5-9.931-4.854-12.261A8.861,8.861,0,0,0,235.625,238.251Z" transform="translate(-211.145 -238.017)" fill="#164767"/>
            <path id="Trazado_216028" data-name="Trazado 216028" d="M249,287.375l6.176-3.736-9.261-17.676a4.028,4.028,0,0,0-5.833-1.734h0c-2.067,1.318-2.922,5.781-1.563,9.156S249,287.375,249,287.375Z" transform="translate(-214.33 -241.328)" fill="#1b3f5e"/>
            <path id="Trazado_216029" data-name="Trazado 216029" d="M236.642,266.507l-4.952-.811,1.253-8.6,4.952.811Z" transform="translate(-213.532 -240.486)" fill="#f79889"/>
            <path id="Trazado_216030" data-name="Trazado 216030" d="M239.357,245.519c.582,2.022,2.492,3.555,2.429,5.166l-.155.692c-.012.03-.023.059-.037.089l.021-.016-.472,2.1a4.927,4.927,0,0,1-9.614-2.163l.531-2.361C233.237,246.881,237.415,248.389,239.357,245.519Z" transform="translate(-213.496 -238.988)" fill="#f79889"/>
            <g id="Grupo_143178" data-name="Grupo 143178" transform="translate(7.884 22.228)">
              <path id="Trazado_216031" data-name="Trazado 216031" d="M228.57,292.647l-5.451-23.563a3.237,3.237,0,0,1,3.058-3.732l13.6-1.8a3.237,3.237,0,0,1,3.369,3.454l2.283,25.64Z" transform="translate(-220.301 -263.55)" fill="#fff59d"/>
              <path id="Trazado_216032" data-name="Trazado 216032" d="M239.791,296.974l-8.538,13.762,23.8,77.348h4.921s-11.056-79.921-13.594-91.11Z" transform="translate(-221.359 -267.877)" fill="#1b3f5e"/>
              <path id="Trazado_216033" data-name="Trazado 216033" d="M238.319,296.974c-1.281,37.528-13.707,91.11-13.707,91.11H219.9c-.092-11.569.687-67.156,1.456-72.061a43.415,43.415,0,0,1,3.062-10.569c1.368-3.151,1.709-5.727,3.743-8.479h10.163Z" transform="translate(-219.888 -267.877)" fill="#1b3f5e"/>
            </g>
            <path id="Trazado_216034" data-name="Trazado 216034" d="M260.74,405.67h3.073l-.915-4.038h-3.682Z" transform="translate(-217.095 -259.196)" fill="#f79889"/>
            <path id="Trazado_216035" data-name="Trazado 216035" d="M221.03,405.67H224.1l.2-4.038H220.62Z" transform="translate(-212.099 -259.196)" fill="#f79889"/>
            <path id="Trazado_216036" data-name="Trazado 216036" d="M240.013,277.164a4.224,4.224,0,1,0,4.593-3.821A4.225,4.225,0,0,0,240.013,277.164Z" transform="translate(-214.607 -242.587)" fill="#9ce5e5"/>
            <path id="Trazado_216037" data-name="Trazado 216037" d="M240.459,263.643l-1.361,8.984-7.708-7.81Z" transform="translate(-213.493 -241.334)" fill="#f79889"/>
            <path id="Trazado_216038" data-name="Trazado 216038" d="M232.8,251.184a1.763,1.763,0,1,1-1.717-1.809A1.763,1.763,0,0,1,232.8,251.184Z" transform="translate(-213.22 -239.487)" fill="#f79889"/>
            <path id="Trazado_216039" data-name="Trazado 216039" d="M264.2,404.388l-1.566.687-2.47-.687-1.3,4.261h13.117c0-2.13-4.549-2.13-4.549-2.13Z" transform="translate(-217.048 -259.553)" fill="#164767"/>
            <path id="Trazado_216040" data-name="Trazado 216040" d="M224.321,404.388l-1.566.687-2.47-.687-1.3,4.261H232.1c0-2.13-4.549-2.13-4.549-2.13Z" transform="translate(-211.887 -259.553)" fill="#164767"/>
            <path id="Trazado_216041" data-name="Trazado 216041" d="M259.674,280.8l.159.426a8.859,8.859,0,0,1-5.45,11.493h0Z" transform="translate(-216.47 -243.555)" fill="#1b3f5e"/>
            <g id="Grupo_143179" data-name="Grupo 143179" transform="translate(20.732 32.838)">
              <path id="Trazado_216042" data-name="Trazado 216042" d="M249.41,297.584l-14.763-1.354,9.371-20.491,14.763,1.354Z" transform="translate(-234.647 -275.738)" fill="#d84318"/>
            </g>
            <g id="Grupo_143180" data-name="Grupo 143180" transform="translate(39.902 35.74)">
              <path id="Trazado_216043" data-name="Trazado 216043" d="M257.071,281.827a3,3,0,0,1,2.647-1.4.52.52,0,0,1,.467.723l-1.7,3.925a.512.512,0,0,1-.764.223A2.585,2.585,0,0,1,257.071,281.827Z" transform="translate(-256.667 -279.246)" fill="#f79889"/>
              <path id="Trazado_216044" data-name="Trazado 216044" d="M260.073,281.836l.564-1.3a.452.452,0,0,0-.064-.465l-.595-.734a.731.731,0,0,0-1.019-.116h0a.731.731,0,0,0-.125,1.026Z" transform="translate(-256.928 -279.071)" fill="#f79889"/>
            </g>
            <g id="Grupo_143181" data-name="Grupo 143181" transform="translate(20.336 38.191)">
              <path id="Trazado_216045" data-name="Trazado 216045" d="M243.468,285.323h0a1.71,1.71,0,0,1-1.732,1.817l-3.923-.057-3.225,1.262-.4-3.493,1.93-.782a5.652,5.652,0,0,1,3.576-.665l2.307.333A1.711,1.711,0,0,1,243.468,285.323Z" transform="translate(-234.192 -282.075)" fill="#f79889"/>
              <path id="Trazado_216046" data-name="Trazado 216046" d="M237.78,283.382l2.207.536a.452.452,0,0,0,.47,0l1.1-.675a.732.732,0,0,0,.245-1h0a.733.733,0,0,0-1-.255Z" transform="translate(-234.656 -281.886)" fill="#f79889"/>
            </g>
            <g id="Grupo_143182" data-name="Grupo 143182" transform="translate(0 24.202)">
              <path id="Trazado_216047" data-name="Trazado 216047" d="M232.359,288.839l-14.866,6.53-.524-8.751,15.091-1.947Z" transform="translate(-211.627 -268.258)" fill="#1b3f5e"/>
              <path id="Trazado_216048" data-name="Trazado 216048" d="M218.361,289.751l-7.2-2.164,9.772-19.315a4.026,4.026,0,0,1,5.789-1.873h0c2.1,1.267,3.059,5.709,1.78,9.116S218.361,289.751,218.361,289.751Z" transform="translate(-210.875 -265.817)" fill="#1b3f5e"/>
              <circle id="Elipse_5515" data-name="Elipse 5515" cx="4.174" cy="4.174" r="4.174" transform="translate(0 19.123)" fill="#1b3f5e"/>
            </g>
          </g>
        </g>
        <g id="Grupo_143185" data-name="Grupo 143185" transform="translate(265.372 37.848)">
          <path id="Trazado_216049" data-name="Trazado 216049" d="M472.7,111.424l2.941,7.4,7.947.511-6.129,5.084,1.97,7.716-6.729-4.258-6.729,4.258,1.97-7.716-6.129-5.084,7.947-.511Z" transform="translate(-461.815 -111.424)" fill="#fff59d"/>
          <path id="Trazado_216050" data-name="Trazado 216050" d="M505.356,111.424l2.941,7.4,7.947.511-6.129,5.084,1.97,7.716-6.729-4.258-6.729,4.258,1.97-7.716-6.129-5.084,7.947-.511Z" transform="translate(-466.042 -111.424)" fill="#fff59d"/>
          <path id="Trazado_216051" data-name="Trazado 216051" d="M538.008,111.424l2.941,7.4,7.947.511-6.129,5.084,1.97,7.716-6.729-4.258-6.729,4.258,1.97-7.716-6.129-5.084,7.947-.511Z" transform="translate(-470.269 -111.424)" fill="#fff59d"/>
        </g>
        <g id="Grupo_143191" data-name="Grupo 143191" transform="translate(0 42.131)">
          <g id="Grupo_143187" data-name="Grupo 143187" transform="translate(42.858 37.357)">
            <rect id="Rectángulo_42678" data-name="Rectángulo 42678" width="58.575" height="51.44" rx="2.678" fill="#d84318"/>
            <g id="Grupo_143186" data-name="Grupo 143186" transform="translate(10.748 8.017)">
              <rect id="Rectángulo_42679" data-name="Rectángulo 42679" width="8.897" height="21.337" rx="2.368" transform="translate(0 12.985)" fill="#fff"/>
              <path id="Trazado_216052" data-name="Trazado 216052" d="M226.184,187.361a1.436,1.436,0,1,1-1.436-1.436A1.437,1.437,0,0,1,226.184,187.361Z" transform="translate(-219.176 -170.726)" fill="#9ce5e5"/>
              <path id="Trazado_216053" data-name="Trazado 216053" d="M258.134,189.3a2.591,2.591,0,0,0-1.784-2.374,3.53,3.53,0,0,0,1.767-2.879c0-1.92-1.9-3.419-3.933-3.419h-7.345a1.2,1.2,0,0,1-1.135-1.59c.548-1.585,1.638-3.677,1.638-5.15,0-1.928-.264-3.621-1.864-4.906a2.009,2.009,0,0,0-1.832-.437,2.15,2.15,0,0,0-1.259,1.47,13.26,13.26,0,0,0-.313,1.984,8.121,8.121,0,0,1-1.286,3.3,16.016,16.016,0,0,1-2.613,2.513,8.972,8.972,0,0,0-1.927,2.983,4.047,4.047,0,0,1-3.738,2.507H231.1v18.438h20.521c1.642,0,3.417-1.066,3.417-2.635a2.733,2.733,0,0,0-1.074-2.265s2.666-.618,2.666-2.216a2.764,2.764,0,0,0-1.156-2.31S258.134,191.113,258.134,189.3Z" transform="translate(-220.184 -168.466)" fill="#fff"/>
            </g>
          </g>
          <g id="Grupo_143190" data-name="Grupo 143190">
            <rect id="Rectángulo_42680" data-name="Rectángulo 42680" width="67.281" height="29.628" rx="2.678" fill="#d84318"/>
            <g id="Grupo_143189" data-name="Grupo 143189" transform="translate(10.422 5.738)">
              <g id="Grupo_143188" data-name="Grupo 143188" transform="translate(9.871 0.521)">
                <path id="Trazado_216054" data-name="Trazado 216054" d="M215.3,126.652H181.855a1.56,1.56,0,0,1-1.56-1.559h0a1.56,1.56,0,0,1,1.56-1.56H215.3a1.56,1.56,0,0,1,1.56,1.56h0A1.56,1.56,0,0,1,215.3,126.652Z" transform="translate(-180.295 -123.533)" fill="#fff"/>
                <path id="Trazado_216055" data-name="Trazado 216055" d="M215.3,134.689H181.855a1.56,1.56,0,0,1-1.56-1.56h0a1.56,1.56,0,0,1,1.56-1.56H215.3a1.56,1.56,0,0,1,1.56,1.56h0A1.56,1.56,0,0,1,215.3,134.689Z" transform="translate(-180.295 -124.573)" fill="#fff"/>
                <path id="Trazado_216056" data-name="Trazado 216056" d="M203.927,142.725H181.855a1.56,1.56,0,0,1-1.56-1.56h0a1.56,1.56,0,0,1,1.56-1.56h22.072a1.56,1.56,0,0,1,1.559,1.56h0A1.56,1.56,0,0,1,203.927,142.725Z" transform="translate(-180.295 -125.613)" fill="#fff"/>
              </g>
              <path id="Trazado_216057" data-name="Trazado 216057" d="M173.116,125.016a2.08,2.08,0,1,1-2.08-2.081A2.08,2.08,0,0,1,173.116,125.016Z" transform="translate(-168.956 -122.935)" fill="#fff"/>
              <path id="Trazado_216058" data-name="Trazado 216058" d="M173.116,133.052a2.08,2.08,0,1,1-2.08-2.08A2.08,2.08,0,0,1,173.116,133.052Z" transform="translate(-168.956 -123.975)" fill="#fff"/>
              <path id="Trazado_216059" data-name="Trazado 216059" d="M173.116,141.088a2.08,2.08,0,1,1-2.08-2.08A2.08,2.08,0,0,1,173.116,141.088Z" transform="translate(-168.956 -125.016)" fill="#fff"/>
            </g>
          </g>
        </g>
        <g id="Grupo_143194" data-name="Grupo 143194" transform="translate(205.317 42.415)">
          <g id="Grupo_143193" data-name="Grupo 143193">
            <g id="Grupo_143192" data-name="Grupo 143192" transform="translate(0 30.115)">
              <path id="Trazado_216060" data-name="Trazado 216060" d="M409.16,201.406l-4.336-12.444-11.994,5.459,18.46-43.158,16.33,6.985Z" transform="translate(-392.83 -151.264)" fill="#fff59d"/>
              <path id="Trazado_216061" data-name="Trazado 216061" d="M444.313,201.406l4.336-12.444,11.994,5.459-18.46-43.158-16.33,6.985Z" transform="translate(-397.105 -151.264)" fill="#fff59d"/>
            </g>
            <path id="Trazado_216062" data-name="Trazado 216062" d="M423.409,116.67l3.638,3.526,4.55-2.229,2.371,4.478,5.016-.714.871,4.991,4.991.871-.714,5.016,4.478,2.371-2.229,4.55,3.526,3.638-3.526,3.638,2.229,4.55-4.478,2.371.714,5.016-4.991.871-.871,4.991-5.016-.714-2.371,4.478-4.55-2.229-3.638,3.526-3.638-3.526-4.55,2.229-2.371-4.478-5.016.714-.871-4.991-4.991-.871.714-5.016-4.478-2.371,2.229-4.55-3.526-3.638,3.526-3.638-2.229-4.55,4.478-2.371-.714-5.016,4.991-.871.871-4.991,5.016.714,2.371-4.478,4.55,2.229Z" transform="translate(-393.358 -116.67)" fill="#164767"/>
            <circle id="Elipse_5516" data-name="Elipse 5516" cx="17.877" cy="17.877" r="17.877" transform="translate(12.174 8.62)" fill="#fff"/>
          </g>
          <path id="Trazado_216063" data-name="Trazado 216063" d="M424.015,155.489l-8.339-6.049,2.265-3.306,4.829,3.5,9.707-13.841L436,138.4Z" transform="translate(-395.787 -119.146)" fill="#fff59d"/>
        </g>
      </g>
    </g>
  </g>
</svg>
