<svg xmlns="http://www.w3.org/2000/svg" width="400" height="298.181" viewBox="0 0 400 298.181">
  <g id="Grupo_145084" data-name="Grupo 145084" transform="translate(-10944.5 7961)">
    <g id="Grupo_142830" data-name="Grupo 142830" transform="translate(-1512.5 1647.999)">
      <path id="Trazado_215228" data-name="Trazado 215228" d="M96.729,397.556s-36.757-57.566.526-129.11c34.572-66.343,88.086-34.513,121.826-95.414,85.481-154.3,267.953-35.682,240.576,95.454-13.248,63.461,40.322,65.768,13.026,129.2Z" transform="translate(12376.452 -9709.055)" fill="#f0f8ff"/>
    </g>
    <g id="Grupo_143144" data-name="Grupo 143144" transform="translate(-1491.728 -11)">
      <g id="Grupo_143143" data-name="Grupo 143143" transform="translate(12482.895 -7950)">
        <g id="Grupo_143130" data-name="Grupo 143130" transform="translate(30.85 0)">
          <path id="Rectángulo_42613" data-name="Rectángulo 42613" d="M8.951,0H158.819a8.951,8.951,0,0,1,8.951,8.951V90.865a8.951,8.951,0,0,1-8.951,8.951H8.95A8.95,8.95,0,0,1,0,90.865V8.951A8.951,8.951,0,0,1,8.951,0Z" transform="translate(0 18.24)" fill="#fff"/>
          <path id="Trazado_215846" data-name="Trazado 215846" d="M401.574,70.555v2.6H233.8v-2.6a6.564,6.564,0,0,1,6.565-6.565h154.64A6.564,6.564,0,0,1,401.574,70.555Z" transform="translate(-233.804 -45.75)" fill="#fff59d"/>
          <path id="Rectángulo_42614" data-name="Rectángulo 42614" d="M8.951,0H158.819a8.951,8.951,0,0,1,8.951,8.951V90.865a8.951,8.951,0,0,1-8.951,8.951H8.95A8.95,8.95,0,0,1,0,90.865V8.951A8.951,8.951,0,0,1,8.951,0Z" transform="translate(0 18.24)" fill="none" stroke="#1a2e35" stroke-linecap="round" stroke-linejoin="round" stroke-width="1"/>
          <path id="Trazado_215847" data-name="Trazado 215847" d="M401.574,70.555v2.6H233.8v-2.6a6.564,6.564,0,0,1,6.565-6.565h154.64A6.564,6.564,0,0,1,401.574,70.555Z" transform="translate(-233.804 -45.75)" fill="none" stroke="#1a2e35" stroke-linecap="round" stroke-linejoin="round" stroke-width="1"/>
          <path id="Trazado_215848" data-name="Trazado 215848" d="M258.273,69.628a1.676,1.676,0,1,1-1.676-1.676A1.676,1.676,0,0,1,258.273,69.628Z" transform="translate(-239.432 -46.806)" fill="#1b3f5e"/>
          <path id="Trazado_215849" data-name="Trazado 215849" d="M270.224,69.628a1.676,1.676,0,1,1-1.676-1.676A1.676,1.676,0,0,1,270.224,69.628Z" transform="translate(-242.617 -46.806)" fill="#1b3f5e"/>
          <circle id="Elipse_5505" data-name="Elipse 5505" cx="1.676" cy="1.676" r="1.676" transform="translate(33.02 21.146)" fill="#1b3f5e"/>
          <g id="Grupo_143122" data-name="Grupo 143122" transform="translate(9.949 34.67)">
            <rect id="Rectángulo_42615" data-name="Rectángulo 42615" width="52.846" height="28.231" rx="3.69" fill="none" stroke="#1a2e35" stroke-linecap="round" stroke-linejoin="round" stroke-width="1"/>
            <g id="Grupo_143121" data-name="Grupo 143121" transform="translate(3.108 4.097)">
              <line id="Línea_208" data-name="Línea 208" x2="45.822" transform="translate(0 20.585)" fill="none" stroke="#1a2e35" stroke-linecap="round" stroke-linejoin="round" stroke-width="1"/>
              <rect id="Rectángulo_42616" data-name="Rectángulo 42616" width="5.316" height="5.316" transform="translate(3.401 15.195)" fill="#fff59d"/>
              <rect id="Rectángulo_42617" data-name="Rectángulo 42617" width="5.316" height="12.38" transform="translate(11.185 8.205)" fill="#fff59d"/>
              <rect id="Rectángulo_42618" data-name="Rectángulo 42618" width="5.316" height="10.376" transform="translate(19.95 10.334)" fill="#fff59d"/>
              <rect id="Rectángulo_42619" data-name="Rectángulo 42619" width="5.316" height="20.355" transform="translate(29.159)" fill="#fff59d"/>
              <rect id="Rectángulo_42620" data-name="Rectángulo 42620" width="5.316" height="20.355" transform="translate(38.367 0.157)" fill="#fff59d"/>
            </g>
          </g>
          <g id="Grupo_143124" data-name="Grupo 143124" transform="translate(113.443 34.628)">
            <circle id="Elipse_5506" data-name="Elipse 5506" cx="14.867" cy="14.867" r="14.867" fill="#fff59d"/>
            <g id="Grupo_143123" data-name="Grupo 143123" transform="translate(10.133 4.07)">
              <path id="Trazado_215850" data-name="Trazado 215850" d="M408.237,111.953v1.523h-2.492v-1.523a4.54,4.54,0,0,1-3.461-4.623v-.692l2.824-.3v.72c0,1.412.72,2.271,1.883,2.271a1.738,1.738,0,0,0,1.883-1.855c0-1.357-1.273-2.519-2.769-3.766-1.772-1.468-3.543-3.212-3.543-5.676,0-2.409,1.163-4.125,3.184-4.624V91.881h2.492V93.4c2.049.471,3.239,2.187,3.239,4.652v.5l-2.824.3V98.3c0-1.495-.582-2.27-1.606-2.27s-1.606.637-1.606,1.855c0,1.357,1.3,2.492,2.769,3.766,1.744,1.495,3.544,3.211,3.544,5.676A4.516,4.516,0,0,1,408.237,111.953Z" transform="translate(-402.284 -91.881)" fill="#1a2e35"/>
            </g>
          </g>
          <g id="Grupo_143129" data-name="Grupo 143129" transform="translate(8.712)">
            <g id="Grupo_143125" data-name="Grupo 143125" transform="translate(0 77.327)">
              <line id="Línea_209" data-name="Línea 209" x2="4.345" fill="none" stroke="#1a2e35" stroke-linecap="round" stroke-linejoin="round" stroke-width="1"/>
              <line id="Línea_210" data-name="Línea 210" x2="4.345" transform="translate(0 8.392)" fill="none" stroke="#1a2e35" stroke-linecap="round" stroke-linejoin="round" stroke-width="1"/>
              <line id="Línea_211" data-name="Línea 211" x2="4.345" transform="translate(0 16.784)" fill="none" stroke="#1a2e35" stroke-linecap="round" stroke-linejoin="round" stroke-width="1"/>
              <line id="Línea_212" data-name="Línea 212" x2="4.345" transform="translate(0 25.175)" fill="none" stroke="#1a2e35" stroke-linecap="round" stroke-linejoin="round" stroke-width="1"/>
            </g>
            <g id="Grupo_143126" data-name="Grupo 143126" transform="translate(13.914 105.471)">
              <line id="Línea_213" data-name="Línea 213" y1="3.373" fill="none" stroke="#1a2e35" stroke-linecap="round" stroke-linejoin="round" stroke-width="1"/>
              <line id="Línea_214" data-name="Línea 214" y1="3.373" transform="translate(6.882)" fill="none" stroke="#1a2e35" stroke-linecap="round" stroke-linejoin="round" stroke-width="1"/>
              <line id="Línea_215" data-name="Línea 215" y1="3.373" transform="translate(13.764)" fill="none" stroke="#1a2e35" stroke-linecap="round" stroke-linejoin="round" stroke-width="1"/>
              <line id="Línea_216" data-name="Línea 216" y1="3.373" transform="translate(20.646)" fill="none" stroke="#1a2e35" stroke-linecap="round" stroke-linejoin="round" stroke-width="1"/>
              <line id="Línea_217" data-name="Línea 217" y1="3.373" transform="translate(27.528)" fill="none" stroke="#1a2e35" stroke-linecap="round" stroke-linejoin="round" stroke-width="1"/>
              <line id="Línea_218" data-name="Línea 218" y1="3.373" transform="translate(34.409)" fill="none" stroke="#1a2e35" stroke-linecap="round" stroke-linejoin="round" stroke-width="1"/>
              <line id="Línea_219" data-name="Línea 219" y1="3.373" transform="translate(41.291)" fill="none" stroke="#1a2e35" stroke-linecap="round" stroke-linejoin="round" stroke-width="1"/>
              <line id="Línea_220" data-name="Línea 220" y1="3.373" transform="translate(48.173)" fill="none" stroke="#1a2e35" stroke-linecap="round" stroke-linejoin="round" stroke-width="1"/>
              <line id="Línea_221" data-name="Línea 221" y1="3.373" transform="translate(55.055)" fill="none" stroke="#1a2e35" stroke-linecap="round" stroke-linejoin="round" stroke-width="1"/>
              <line id="Línea_222" data-name="Línea 222" y1="3.373" transform="translate(61.937)" fill="none" stroke="#1a2e35" stroke-linecap="round" stroke-linejoin="round" stroke-width="1"/>
              <line id="Línea_223" data-name="Línea 223" y1="3.373" transform="translate(68.819)" fill="none" stroke="#1a2e35" stroke-linecap="round" stroke-linejoin="round" stroke-width="1"/>
              <line id="Línea_224" data-name="Línea 224" y1="3.373" transform="translate(75.701)" fill="none" stroke="#1a2e35" stroke-linecap="round" stroke-linejoin="round" stroke-width="1"/>
              <line id="Línea_225" data-name="Línea 225" y1="3.373" transform="translate(82.583)" fill="none" stroke="#1a2e35" stroke-linecap="round" stroke-linejoin="round" stroke-width="1"/>
              <line id="Línea_226" data-name="Línea 226" y1="3.373" transform="translate(89.464)" fill="none" stroke="#1a2e35" stroke-linecap="round" stroke-linejoin="round" stroke-width="1"/>
              <line id="Línea_227" data-name="Línea 227" y1="3.373" transform="translate(96.346)" fill="none" stroke="#1a2e35" stroke-linecap="round" stroke-linejoin="round" stroke-width="1"/>
              <line id="Línea_228" data-name="Línea 228" y1="3.373" transform="translate(102.967)" fill="none" stroke="#1a2e35" stroke-linecap="round" stroke-linejoin="round" stroke-width="1"/>
              <line id="Línea_229" data-name="Línea 229" y1="3.373" transform="translate(109.588)" fill="none" stroke="#1a2e35" stroke-linecap="round" stroke-linejoin="round" stroke-width="1"/>
              <line id="Línea_230" data-name="Línea 230" y1="3.373" transform="translate(116.209)" fill="none" stroke="#1a2e35" stroke-linecap="round" stroke-linejoin="round" stroke-width="1"/>
            </g>
            <path id="Trazado_215851" data-name="Trazado 215851" d="M393.32,136.072v32.613c0,2.233-2.274,4.042-5.08,4.042H250.761a5.42,5.42,0,0,1-4.378-1.993,3.429,3.429,0,0,1-.7-2.049V136.072c0-2.233,2.273-4.042,5.079-4.042H388.24C391.047,132.03,393.32,133.839,393.32,136.072Z" transform="translate(-245.682 -63.884)" fill="none" stroke="#5ae4a7" stroke-linecap="round" stroke-linejoin="round" stroke-width="1"/>
            <g id="Grupo_143128" data-name="Grupo 143128" transform="translate(0.559)">
              <g id="Grupo_143127" data-name="Grupo 143127" transform="translate(0 6.508)">
                <path id="Trazado_215852" data-name="Trazado 215852" d="M351.683,50.518,307.8,109.633l-16.784,22.606-18.331-11.674-22.43,29.765h-.325a4.03,4.03,0,0,1-3.484-1.993l25.207-33.455,18.317,11.661,12.551-16.911L348.277,48Z" transform="translate(-246.443 -47.995)" fill="#1b3f5e"/>
              </g>
              <path id="Trazado_215853" data-name="Trazado 215853" d="M374.741,48.9l16.134-9.781-4.463,16.914-2.843-7.824Z" transform="translate(-280.637 -39.122)" fill="#1b3f5e"/>
            </g>
          </g>
        </g>
        <g id="Grupo_143133" data-name="Grupo 143133" transform="translate(0 60.401)">
          <g id="Grupo_143132" data-name="Grupo 143132" transform="translate(0 67.516)">
            <path id="Trazado_215854" data-name="Trazado 215854" d="M478.61,306.215H220.655L191.743,331.92" transform="translate(-191.743 -238.226)" fill="none" stroke="#1a2e35" stroke-linecap="round" stroke-linejoin="round" stroke-width="1"/>
            <g id="Grupo_143131" data-name="Grupo 143131" transform="translate(29.075)">
              <line id="Línea_231" data-name="Línea 231" y1="49.987" fill="none" stroke="#1a2e35" stroke-linecap="round" stroke-linejoin="round" stroke-width="1"/>
              <line id="Línea_232" data-name="Línea 232" y1="9.669" transform="translate(0 55.418)" fill="none" stroke="#1a2e35" stroke-linecap="round" stroke-linejoin="round" stroke-width="1"/>
            </g>
          </g>
          <g id="freepik--Plants--inject-120" transform="translate(235.107)">
            <path id="Trazado_215855" data-name="Trazado 215855" d="M557.412,135.366s0-3.02-4.231-7.251-6.945-6.644-6.945-6.644-2.116,6.945,1.809,11.177a74.276,74.276,0,0,0,9.367,8.176Z" transform="translate(-521.179 -121.471)" fill="#fff59d"/>
            <path id="Trazado_215856" data-name="Trazado 215856" d="M549.044,161.09s0-3.02-4.231-7.252-6.945-6.644-6.945-6.644-2.116,6.945,1.809,11.177a74.774,74.774,0,0,0,9.367,8.177Z" transform="translate(-518.949 -128.327)" fill="#fff59d"/>
            <path id="Trazado_215857" data-name="Trazado 215857" d="M561.108,142.839s.317-3,4.972-6.766,7.609-5.872,7.609-5.872,1.37,7.154-2.985,10.921a74.154,74.154,0,0,1-10.174,7.124Z" transform="translate(-525.141 -123.798)" fill="#fff59d"/>
            <path id="Trazado_215858" data-name="Trazado 215858" d="M550.8,173.722s.634-2.954,5.652-6.2,8.177-5.043,8.177-5.043.613,7.236-4.088,10.553a74.238,74.238,0,0,1-10.865,6.01Z" transform="translate(-522.248 -132.399)" fill="#fff59d"/>
            <path id="Trazado_215859" data-name="Trazado 215859" d="M553.11,205.877s0-3.02,4.226-7.246,6.95-6.644,6.95-6.644,2.115,6.95-1.815,11.177a73.958,73.958,0,0,1-9.362,8.176Z" transform="translate(-523.163 -140.265)" fill="#fff59d"/>
            <path id="Trazado_215860" data-name="Trazado 215860" d="M549.236,213.437s.429-2.99-3.158-7.778-5.933-7.568-5.933-7.568-3.066,6.576.21,11.324a74.377,74.377,0,0,0,8.11,9.4Z" transform="translate(-519.361 -141.892)" fill="#fff59d"/>
            <path id="Trazado_215861" data-name="Trazado 215861" d="M547.327,237.92s0-3.02,4.226-7.247,6.95-6.643,6.95-6.643,2.115,6.95-1.814,11.176a73.958,73.958,0,0,1-9.363,8.177Z" transform="translate(-521.622 -148.805)" fill="#fff59d"/>
            <path id="Trazado_215862" data-name="Trazado 215862" d="M551.142,258.778s-.761-2.923,2.264-8.095,5.039-8.177,5.039-8.177,3.8,6.188,1.078,11.274a74.376,74.376,0,0,1-7,10.261Z" transform="translate(-522.616 -153.73)" fill="#fff59d"/>
            <path id="Trazado_215863" data-name="Trazado 215863" d="M558.163,139.391a86.487,86.487,0,0,1-1.16,9.377c-1.671,8.637-5.851,14.212-7.523,22.01s3.128,17.856,1.845,27.877-5.186,15.592-4.088,22.281,6.965,24.8,6.965,24.8" transform="translate(-521.547 -126.247)" fill="none" stroke="#1a2e35" stroke-linecap="round" stroke-linejoin="round" stroke-width="1.177"/>
            <line id="Línea_233" data-name="Línea 233" y1="3.501" x2="4.558" transform="translate(35.926 17.549)" fill="none" stroke="#1a2e35" stroke-linecap="round" stroke-linejoin="round" stroke-width="1.177"/>
            <line id="Línea_234" data-name="Línea 234" x1="1.906" y1="3.393" transform="translate(34.229 13.629)" fill="none" stroke="#1a2e35" stroke-linecap="round" stroke-linejoin="round" stroke-width="1.177"/>
            <path id="Trazado_215864" data-name="Trazado 215864" d="M550.714,179.589s3.812-2.862,7.737-5.724" transform="translate(-522.525 -135.435)" fill="none" stroke="#1a2e35" stroke-linecap="round" stroke-linejoin="round" stroke-width="1.177"/>
            <path id="Trazado_215865" data-name="Trazado 215865" d="M550.848,169.763a60.828,60.828,0,0,0-6.781-10.369" transform="translate(-520.753 -131.578)" fill="none" stroke="#1a2e35" stroke-linecap="round" stroke-linejoin="round" stroke-width="1.177"/>
            <path id="Trazado_215866" data-name="Trazado 215866" d="M553.312,212.818a47.321,47.321,0,0,1,8.177-10.916" transform="translate(-523.217 -142.908)" fill="none" stroke="#1a2e35" stroke-linecap="round" stroke-linejoin="round" stroke-width="1.177"/>
            <path id="Trazado_215867" data-name="Trazado 215867" d="M549.871,218.363a53.726,53.726,0,0,0-4.134-7.86c-2.228-3.286-2.555-3.71-2.555-3.71" transform="translate(-520.517 -144.211)" fill="none" stroke="#1a2e35" stroke-linecap="round" stroke-linejoin="round" stroke-width="1.177"/>
            <path id="Trazado_215868" data-name="Trazado 215868" d="M547.327,245.9a50.666,50.666,0,0,1,3.435-6.95,44.648,44.648,0,0,1,4.451-5.831" transform="translate(-521.622 -151.227)" fill="none" stroke="#1a2e35" stroke-linecap="round" stroke-linejoin="round" stroke-width="1.177"/>
            <path id="Trazado_215869" data-name="Trazado 215869" d="M553.034,266.273a12.951,12.951,0,0,1,1.144-6.689c1.589-3.071,3.389-7.1,4.135-8.687" transform="translate(-523.128 -155.966)" fill="none" stroke="#1a2e35" stroke-linecap="round" stroke-linejoin="round" stroke-width="1.177"/>
            <path id="Trazado_215870" data-name="Trazado 215870" d="M523.917,191.826s-.332-1.891,1.865-5,3.634-4.931,3.634-4.931,2.08,4.124.077,7.2a47.2,47.2,0,0,1-4.988,6.133Z" transform="translate(-515.378 -137.575)" fill="#fff59d"/>
            <path id="Trazado_215871" data-name="Trazado 215871" d="M531.958,207.052s-.332-1.9,1.86-5.008,3.638-4.922,3.638-4.922,2.08,4.129.077,7.206a47.023,47.023,0,0,1-4.988,6.133Z" transform="translate(-517.521 -141.634)" fill="#fff59d"/>
            <path id="Trazado_215872" data-name="Trazado 215872" d="M521.547,197.414s-.511-1.851-3.854-3.7-5.412-2.861-5.412-2.861-.082,4.6,3.066,6.531a47.58,47.58,0,0,0,7.155,3.357Z" transform="translate(-512.282 -139.963)" fill="#fff59d"/>
            <path id="Trazado_215873" data-name="Trazado 215873" d="M530.95,215.73s-.72-1.783-4.221-3.276-5.682-2.269-5.682-2.269.4,4.6,3.725,6.168a47.473,47.473,0,0,0,7.466,2.591Z" transform="translate(-514.618 -145.116)" fill="#fff59d"/>
            <path id="Trazado_215874" data-name="Trazado 215874" d="M533.841,236s-.327-1.9-3.439-4.088-5.079-3.414-5.079-3.414-.573,4.6,2.351,6.812a47.177,47.177,0,0,0,6.755,4.088Z" transform="translate(-515.745 -149.996)" fill="#fff59d"/>
            <path id="Trazado_215875" data-name="Trazado 215875" d="M537.851,239.927s-.593-1.829,1.135-5.218,2.9-5.391,2.9-5.391,2.642,3.792,1.1,7.124a47.4,47.4,0,0,1-4.088,6.777Z" transform="translate(-519.07 -150.215)" fill="#fff59d"/>
            <path id="Trazado_215876" data-name="Trazado 215876" d="M544.983,261.717s.219-1.911,3.2-4.277,4.875-3.7,4.875-3.7.833,4.543-1.957,6.935a47.552,47.552,0,0,1-6.511,4.476Z" transform="translate(-520.892 -156.725)" fill="#fff59d"/>
            <path id="Trazado_215877" data-name="Trazado 215877" d="M540.943,255.464s-.327-1.9-3.439-4.088-5.075-3.414-5.075-3.414-.572,4.6,2.346,6.813a47.135,47.135,0,0,0,6.761,4.088Z" transform="translate(-517.639 -155.184)" fill="#fff59d"/>
            <path id="Trazado_215878" data-name="Trazado 215878" d="M541.468,268.806s.164-1.917-2.289-4.825-4.047-4.6-4.047-4.6-1.717,4.292.546,7.185a47.572,47.572,0,0,0,5.5,5.688Z" transform="translate(-518.205 -158.228)" fill="#fff59d"/>
            <path id="Trazado_215879" data-name="Trazado 215879" d="M523.478,194.83a54.521,54.521,0,0,0,1.748,5.759c1.983,5.233,5.208,8.274,7.1,12.985s0,11.534,1.87,17.677,4.947,9.2,4.972,13.532-1.676,16.307-1.676,16.307" transform="translate(-515.266 -141.023)" fill="none" stroke="#1a2e35" stroke-linecap="round" stroke-linejoin="round" stroke-width="1.177"/>
            <line id="Línea_235" data-name="Línea 235" x1="3.235" y1="1.697" transform="translate(6.271 57.006)" fill="none" stroke="#1a2e35" stroke-linecap="round" stroke-linejoin="round" stroke-width="1.177"/>
            <line id="Línea_236" data-name="Línea 236" y1="2.335" x2="0.828" transform="translate(8.938 53.868)" fill="none" stroke="#1a2e35" stroke-linecap="round" stroke-linejoin="round" stroke-width="1.177"/>
            <path id="Trazado_215880" data-name="Trazado 215880" d="M533.292,219.115s-2.7-1.38-5.473-2.749" transform="translate(-516.423 -146.763)" fill="none" stroke="#1a2e35" stroke-linecap="round" stroke-linejoin="round" stroke-width="1.177"/>
            <path id="Trazado_215881" data-name="Trazado 215881" d="M532.766,212.705a38.859,38.859,0,0,1,3.128-7.236" transform="translate(-517.741 -143.858)" fill="none" stroke="#1a2e35" stroke-linecap="round" stroke-linejoin="round" stroke-width="1.177"/>
            <path id="Trazado_215882" data-name="Trazado 215882" d="M535.17,240.252a30.026,30.026,0,0,0-6.306-5.959" transform="translate(-516.701 -151.541)" fill="none" stroke="#1a2e35" stroke-linecap="round" stroke-linejoin="round" stroke-width="1.177"/>
            <path id="Trazado_215883" data-name="Trazado 215883" d="M538.723,243.038a33.868,33.868,0,0,1,1.738-5.366c1.022-2.3,1.2-2.606,1.2-2.606" transform="translate(-519.329 -151.747)" fill="none" stroke="#1a2e35" stroke-linecap="round" stroke-linejoin="round" stroke-width="1.177"/>
            <path id="Trazado_215884" data-name="Trazado 215884" d="M544.68,265.366a28.2,28.2,0,0,1,3.48-3.613,18.7,18.7,0,0,0,2.258-1.967" transform="translate(-520.917 -158.335)" fill="none" stroke="#1a2e35" stroke-linecap="round" stroke-linejoin="round" stroke-width="1.177"/>
            <path id="Trazado_215885" data-name="Trazado 215885" d="M542.574,260.333a32.527,32.527,0,0,0-2.908-3.986,28.556,28.556,0,0,0-3.424-3.174" transform="translate(-518.668 -156.573)" fill="none" stroke="#1a2e35" stroke-linecap="round" stroke-linejoin="round" stroke-width="1.177"/>
            <path id="Trazado_215886" data-name="Trazado 215886" d="M541.791,273.629a8.24,8.24,0,0,0-1.441-4.088c-1.333-1.758-2.9-4.088-3.536-5" transform="translate(-518.82 -159.602)" fill="none" stroke="#1a2e35" stroke-linecap="round" stroke-linejoin="round" stroke-width="1.177"/>
            <path id="Trazado_215887" data-name="Trazado 215887" d="M554.277,305.07H535.016a1.437,1.437,0,0,1-1.436-1.436l-2.764-21.316h27.662l-2.764,21.316A1.437,1.437,0,0,1,554.277,305.07Z" transform="translate(-517.221 -164.341)" fill="#000202"/>
            <path id="Trazado_215888" data-name="Trazado 215888" d="M557.445,285.672H530.028a2.166,2.166,0,0,1-2.167-2.146h0a2.161,2.161,0,0,1,2.162-2.162h27.422a2.162,2.162,0,0,1,2.167,2.156v.005h0A2.167,2.167,0,0,1,557.445,285.672Z" transform="translate(-516.434 -164.086)" fill="#000202"/>
          </g>
        </g>
        <g id="Grupo_143135" data-name="Grupo 143135" transform="translate(161.033 70.094)">
          <path id="Trazado_215889" data-name="Trazado 215889" d="M464.563,161.327A26.633,26.633,0,0,1,443.93,187.27c-.029.01-.048.01-.078.019-.7.156-1.4.291-2.115.4a27.341,27.341,0,0,1-3.8.271,26.63,26.63,0,0,1-.981-53.243c.243-.02.5-.02.747-.02a1.91,1.91,0,0,1,.233-.01,2.585,2.585,0,0,1,.271.01,26.222,26.222,0,0,1,10.434,2.242A26.631,26.631,0,0,1,464.563,161.327Z" transform="translate(-411.291 -134.686)" fill="#fff59d"/>
          <path id="Trazado_215890" data-name="Trazado 215890" d="M464.563,161.327a26.636,26.636,0,1,1-27.612-26.612c.321-.02.651-.029.981-.029A26.639,26.639,0,0,1,464.563,161.327Z" transform="translate(-411.291 -134.686)" fill="none" stroke="#1a2e35" stroke-linecap="round" stroke-linejoin="round" stroke-width="1"/>
          <path id="Trazado_215891" data-name="Trazado 215891" d="M466.362,161.327a26.632,26.632,0,0,1-20.711,25.961c-.32.02-.65.029-.98.029a26.635,26.635,0,0,1-5.921-52.6c.321-.02.651-.029.981-.029A26.639,26.639,0,0,1,466.362,161.327Z" transform="translate(-413.089 -134.686)" fill="none" stroke="#1a2e35" stroke-linecap="round" stroke-linejoin="round" stroke-width="1"/>
          <g id="Grupo_143134" data-name="Grupo 143134" transform="translate(18.656 6.229)">
            <path id="Trazado_215892" data-name="Trazado 215892" d="M453.888,180.259l.69,2.813-4.6,1.129-.689-2.813a8.637,8.637,0,0,1-8.489-6.973l-.313-1.278,5.079-1.842.326,1.329c.64,2.61,2.358,3.868,4.507,3.341a3.306,3.306,0,0,0,2.638-4.28c-.615-2.5-3.494-4.077-6.821-5.7-3.938-1.908-8-4.328-9.118-8.879-1.091-4.45.279-8.148,3.788-9.984l-.69-2.813,4.6-1.129.69,2.813c4-.059,6.975,2.573,8.091,7.124l.226.92-5.079,1.842-.251-1.022c-.678-2.762-2.1-3.931-4-3.466s-2.679,1.9-2.126,4.154c.614,2.506,3.532,4.013,6.82,5.7,3.9,1.973,8,4.329,9.119,8.88A8.59,8.59,0,0,1,453.888,180.259Z" transform="translate(-436.727 -143.179)" fill="none" stroke="#1a2e35" stroke-miterlimit="10" stroke-width="1"/>
            <path id="Trazado_215893" data-name="Trazado 215893" d="M453.888,180.259l.69,2.813-4.6,1.129-.689-2.813a8.637,8.637,0,0,1-8.489-6.973l-.313-1.278,5.079-1.842.326,1.329c.64,2.61,2.358,3.868,4.507,3.341a3.306,3.306,0,0,0,2.638-4.28c-.615-2.5-3.494-4.077-6.821-5.7-3.938-1.908-8-4.328-9.118-8.879-1.091-4.45.279-8.148,3.788-9.984l-.69-2.813,4.6-1.129.69,2.813c4-.059,6.975,2.573,8.091,7.124l.226.92-5.079,1.842-.251-1.022c-.678-2.762-2.1-3.931-4-3.466s-2.679,1.9-2.126,4.154c.614,2.506,3.532,4.013,6.82,5.7,3.9,1.973,8,4.329,9.119,8.88A8.59,8.59,0,0,1,453.888,180.259Z" transform="translate(-436.727 -143.179)" fill="#1b3f5e"/>
          </g>
          <line id="Línea_237" data-name="Línea 237" y1="0.258" x2="5.627" transform="translate(13.03 49.278)" fill="none" stroke="#1a2e35" stroke-linecap="round" stroke-linejoin="round" stroke-width="1"/>
          <line id="Línea_238" data-name="Línea 238" y1="0.416" x2="4.911" transform="translate(10.322 47.251)" fill="none" stroke="#1a2e35" stroke-linecap="round" stroke-linejoin="round" stroke-width="1"/>
          <line id="Línea_239" data-name="Línea 239" y1="0.416" x2="4.911" transform="translate(8.119 45.276)" fill="none" stroke="#1a2e35" stroke-linecap="round" stroke-linejoin="round" stroke-width="1"/>
          <line id="Línea_240" data-name="Línea 240" x2="4.204" transform="translate(7.448 8.168)" fill="none" stroke="#1a2e35" stroke-linecap="round" stroke-linejoin="round" stroke-width="1"/>
          <line id="Línea_241" data-name="Línea 241" y1="0.19" x2="4.186" transform="translate(9.524 6.039)" fill="none" stroke="#1a2e35" stroke-linecap="round" stroke-linejoin="round" stroke-width="1"/>
          <line id="Línea_242" data-name="Línea 242" y1="0.416" x2="4.418" transform="translate(12.145 3.874)" fill="none" stroke="#1a2e35" stroke-linecap="round" stroke-linejoin="round" stroke-width="1"/>
          <path id="Trazado_215894" data-name="Trazado 215894" d="M443.93,187.273c-.029.01-.048.01-.078.019a26.63,26.63,0,1,1-6.9-52.573c.243-.02.5-.02.747-.02-6.493,2.048-17.382,7.279-20.294,18.188C413.271,168.377,422.568,185.973,443.93,187.273Z" transform="translate(-411.291 -134.689)" fill="#1b3f5e"/>
        </g>
        <g id="Grupo_143137" data-name="Grupo 143137" transform="translate(200.148 29.402)">
          <path id="Trazado_215895" data-name="Trazado 215895" d="M493.89,104.614a16.108,16.108,0,0,1-19.295,5.6c-.029-.01-.067-.029-.1-.039a16.348,16.348,0,0,1-1.5-.728,15.367,15.367,0,0,1-1.553-.97,16.1,16.1,0,0,1,17.741-26.864c.126.067.243.145.359.223.165.1.329.213.494.33q.378.262.728.553A16.1,16.1,0,0,1,493.89,104.614Z" transform="translate(-464.621 -79.208)" fill="#fff59d"/>
          <path id="Trazado_215896" data-name="Trazado 215896" d="M493.886,104.618a16.111,16.111,0,1,1-4.348-22.784c.165.1.332.213.494.328A16.113,16.113,0,0,1,493.886,104.618Z" transform="translate(-464.619 -79.207)" fill="none" stroke="#1a2e35" stroke-linecap="round" stroke-linejoin="round" stroke-width="1"/>
          <path id="Trazado_215897" data-name="Trazado 215897" d="M494.856,105.13a16.11,16.11,0,0,1-19.293,5.593c-.165-.1-.332-.213-.494-.328a16.11,16.11,0,0,1,15.44-28.05c.165.1.332.213.494.328A16.112,16.112,0,0,1,494.856,105.13Z" transform="translate(-465.589 -79.72)" fill="none" stroke="#1a2e35" stroke-linecap="round" stroke-linejoin="round" stroke-width="1"/>
          <g id="Grupo_143136" data-name="Grupo 143136" transform="translate(9.964 5.01)">
            <path id="Trazado_215898" data-name="Trazado 215898" d="M483.066,108.578l-.641,1.631-2.668-1.05.641-1.631a5.222,5.222,0,0,1-1.758-6.408l.291-.741,3.152.863-.3.77c-.595,1.512-.186,2.734,1.06,3.224a2,2,0,0,0,2.8-1.193c.571-1.452-.3-3.234-1.379-5.2-1.279-2.317-2.442-4.931-1.4-7.569,1.014-2.579,2.982-3.928,5.356-3.609l.641-1.631,2.668,1.05-.641,1.63c2,1.366,2.547,3.706,1.509,6.344l-.21.533-3.152-.863.233-.593c.629-1.6.333-2.676-.764-3.106s-1.988.005-2.5,1.31c-.571,1.452.344,3.215,1.379,5.2,1.237,2.336,2.442,4.931,1.4,7.569A5.2,5.2,0,0,1,483.066,108.578Z" transform="translate(-478.204 -86.038)" fill="none" stroke="#1a2e35" stroke-miterlimit="10" stroke-width="1"/>
            <path id="Trazado_215899" data-name="Trazado 215899" d="M483.066,108.578l-.641,1.631-2.668-1.05.641-1.631a5.222,5.222,0,0,1-1.758-6.408l.291-.741,3.152.863-.3.77c-.595,1.512-.186,2.734,1.06,3.224a2,2,0,0,0,2.8-1.193c.571-1.452-.3-3.234-1.379-5.2-1.279-2.317-2.442-4.931-1.4-7.569,1.014-2.579,2.982-3.928,5.356-3.609l.641-1.631,2.668,1.05-.641,1.63c2,1.366,2.547,3.706,1.509,6.344l-.21.533-3.152-.863.233-.593c.629-1.6.333-2.676-.764-3.106s-1.988.005-2.5,1.31c-.571,1.452.344,3.215,1.379,5.2,1.237,2.336,2.442,4.931,1.4,7.569A5.2,5.2,0,0,1,483.066,108.578Z" transform="translate(-478.204 -86.038)" fill="#1b3f5e"/>
          </g>
          <path id="Trazado_215900" data-name="Trazado 215900" d="M489.182,81.613c-4.426-.786-9.977-1.223-12.985.709-5.522,3.542-8.959,8.007-8.91,15.247s6.813,12.317,6.813,12.317l.4.29a16.107,16.107,0,1,1,14.684-28.562Z" transform="translate(-464.621 -79.208)" fill="#1b3f5e"/>
        </g>
        <g id="Grupo_143142" data-name="Grupo 143142" transform="translate(45.741 71.601)">
          <g id="Grupo_143139" data-name="Grupo 143139" transform="translate(0 49.662)">
            <g id="Grupo_143138" data-name="Grupo 143138">
              <path id="Trazado_215901" data-name="Trazado 215901" d="M429.479,344.546a96.851,96.851,0,0,1-24.09,20.794,85,85,0,0,1-8.8,4.591c-20.838,9.369-44.588,9.977-66.8,4.591-46.7-11.317-71.474-52.537-74.618-98.3-.849-12.372-2.742-25.724,2.269-37.488,4.966-11.665,15.14-19.061,26.6-24.152,8.315-3.7,17.3-6.19,25.465-8.218a65.508,65.508,0,0,1,44.071,4.547c9.6,4.555,16.444,12.442,24.518,19.132.857.706,1.715,1.411,2.582,2.108a240.8,240.8,0,0,0,25.689,18.052c13.577,8.28,27.475,16.1,36.148,30C456.337,302.369,444.663,326.5,429.479,344.546Z" transform="translate(-254.106 -204.448)" fill="#d84318"/>
              <path id="Trazado_215902" data-name="Trazado 215902" d="M380.675,232.152q-1.3-1.045-2.581-2.107c-8.077-6.687-14.918-14.576-24.518-19.131a65.508,65.508,0,0,0-44.072-4.546c-19.413,4.818-43.5,12.237-52.065,32.37-5.007,11.765-3.116,25.116-2.266,37.484,3.145,45.762,27.916,86.984,74.615,98.3,25.413,6.159,52.826,4.475,75.6-9.185a96.71,96.71,0,0,0,24.082-20.793c15.185-18.041,26.866-42.177,13.04-64.338-8.675-13.9-22.572-21.718-36.153-30A241.349,241.349,0,0,1,380.675,232.152Z" transform="translate(-254.106 -204.448)" fill="none" stroke="#1a2e35" stroke-miterlimit="10" stroke-width="1"/>
              <path id="Trazado_215903" data-name="Trazado 215903" d="M326.079,353.473a67.041,67.041,0,0,0-11.271,4.534" transform="translate(-270.284 -244.167)" fill="none" stroke="#1a2e35" stroke-linecap="round" stroke-linejoin="round" stroke-width="1"/>
              <path id="Trazado_215904" data-name="Trazado 215904" d="M356.52,347.3a119.623,119.623,0,0,0-16.91,2.671" transform="translate(-276.894 -242.521)" fill="none" stroke="#1a2e35" stroke-linecap="round" stroke-linejoin="round" stroke-width="1"/>
              <path id="Trazado_215905" data-name="Trazado 215905" d="M338.3,343.329a59.624,59.624,0,0,0-48.37-2.53" transform="translate(-263.653 -239.731)" fill="none" stroke="#1a2e35" stroke-linecap="round" stroke-linejoin="round" stroke-width="1"/>
            </g>
          </g>
          <path id="Trazado_215906" data-name="Trazado 215906" d="M499.514,394.715a141.7,141.7,0,0,0,12.883,9.5c8.723.586,4.812,11.13,4.812,11.13l-7.467,4.8S496.988,410,490.028,406.71,499.514,394.715,499.514,394.715Z" transform="translate(-316.527 -205.497)" fill="#fff"/>
          <g id="Grupo_143141" data-name="Grupo 143141" transform="translate(26.216)">
            <path id="Trazado_215907" data-name="Trazado 215907" d="M384.676,232.3s-1.2-11.832-3.1-15.157l-28.959-5.918v-2.241s.668-3.905-5.787-6.346-19.9.733-23.372,3.357-2.2,7.143-2.2,7.143-11.668,5.912-16.915,8.161a132.944,132.944,0,0,0-12.527,6.6s-2.371,27.191-1.908,33.507-.377,12.256.163,15.757.968,5.489,4.64,8.466,7,7.371,16.619,3.012l-1.342-1.061,63.329-21.294Z" transform="translate(-289.847 -154.071)" opacity="0.3"/>
            <path id="Trazado_215908" data-name="Trazado 215908" d="M384.676,232.3s-1.2-11.832-3.1-15.157l-28.959-5.918v-2.241s.668-3.905-5.787-6.346-19.9.733-23.372,3.357-2.2,7.143-2.2,7.143-11.668,5.912-16.915,8.161a132.944,132.944,0,0,0-12.527,6.6s-2.371,27.191-1.908,33.507-.377,12.256.163,15.757.968,5.489,4.64,8.466,7,7.371,16.619,3.012l-1.342-1.061,63.329-21.294Z" transform="translate(-289.847 -154.071)" fill="#5ae4a7"/>
            <path id="Trazado_215909" data-name="Trazado 215909" d="M384.676,232.3s-1.2-11.832-3.1-15.157l-28.959-5.918v-2.241s.668-3.905-5.787-6.346-19.9.733-23.372,3.357-2.2,7.143-2.2,7.143-11.668,5.912-16.915,8.161a132.944,132.944,0,0,0-12.527,6.6s-2.371,27.191-1.908,33.507-.377,12.256.163,15.757.968,5.489,4.64,8.466,7,7.371,16.619,3.012l-1.342-1.061,63.329-21.294Z" transform="translate(-289.847 -154.071)" fill="#fff59d"/>
            <path id="Trazado_215910" data-name="Trazado 215910" d="M383.1,224.678H370.988a4.813,4.813,0,0,0-4.748,4.024l-5.972,35.966s-8.22.684-14.044,4.935-20.148-26.053-42.787-26.068c0,0,6.515,14.887,7.96,26.769,0,0-14.149-1.54-16.5,4s1.068,15.916,7.049,11.9,11.587-10.737,15.62-6.521,21.856,6.521,21.856,6.521l27.484-13.808,10.659-5.01Z" transform="translate(-290.994 -160.178)" fill="#fff59d"/>
            <path id="Trazado_215911" data-name="Trazado 215911" d="M354.746,200.4s6.883,1.909,8,4.216,1,8.156,1,8.156a28.286,28.286,0,0,1-7.4,10.181L351.2,212.776l.46,11.549s-9.739-1.621-13.872-4.737l-4.132-3.115s-1.779-5.847-1.527-7.852,7.707-6.027,7.707-6.027Z" transform="translate(-301.11 -153.709)" fill="#fff" opacity="0.4"/>
            <path id="Trazado_215912" data-name="Trazado 215912" d="M506.5,432.567c-.188-.423,2.826-5.743.466-11.166s-6.125-3.333-6.125-3.333-10.715-6.818-15.22-8.973a77.43,77.43,0,0,1-9.351-5.56l-4.759,6.408,4.4,13.616Z" transform="translate(-338.264 -207.848)" fill="#5ae4a7"/>
            <path id="Trazado_215913" data-name="Trazado 215913" d="M510.96,413l13.761,8.411s9.672-6.207,14.29-10.492,14.94-13.4,14.94-13.4l6.59-8.885s-4.58-5.662-12.208-1.111c-9.858,5.882-21.879,14.386-29.9,14.305,0,0,1.582,9.851-7.473,11.176" transform="translate(-348.779 -203.106)" fill="#5ae4a7"/>
            <path id="Trazado_215914" data-name="Trazado 215914" d="M351.1,151.919s6.246,9.446,7.382,12.506,2.053,7.587,1.822,9.763-2.51,13.847-3.689,14.188l-1.108,1.252.71,4.944s-4.884,8.447-19.247,2.255c0,0-.56-9.863-2.306-12.956s-4.358.587-6.972-8.354,5.72-18.3,5.72-18.3Z" transform="translate(-299.799 -140.786)" fill="#fff"/>
            <path id="Trazado_215915" data-name="Trazado 215915" d="M558.994,385.916s-7.071,1.227-9.369,5.415-6.7,11.974-8.207,15.738-13.948,12.851-13.948,12.851l1.652,1.531s10.125-6.259,16.231-12.207,19.587-20.911,19.587-20.911S563.977,387.372,558.994,385.916Z" transform="translate(-353.179 -203.152)" fill="#fff" opacity="0.5"/>
            <path id="Trazado_215916" data-name="Trazado 215916" d="M473.254,409.066l-1.746,2.352,5.381,11.166L506.5,433.226l1.373-4.338s.458-4.416-9.936-7.742-16.73-5.552-19.686-7.852S473.254,409.066,473.254,409.066Z" transform="translate(-338.264 -209.322)" fill="#fff" opacity="0.5"/>
            <path id="Trazado_215917" data-name="Trazado 215917" d="M334.4,292.523s-9.067-1.361-13.3,6.055-3.8,10.627-3.8,10.627,5.988,5.443,14.225,5.164,20.242-9.771,24.15-12.842,13.768-11.866,20.495-10.051l.742-6.36s-.654-2.852-6.408-2.085-8.01,4.051-9.861,4.051-3.609-1.785-7.36,4.585C353.285,291.667,340.206,293.988,334.4,292.523Z" transform="translate(-297.161 -175.696)" fill="#fff"/>
            <path id="Trazado_215918" data-name="Trazado 215918" d="M356.688,170.446a24.85,24.85,0,0,0,.822,3.51,4,4,0,0,0,.767,1.548,4.591,4.591,0,0,0,2.82,1.081.707.707,0,0,1,.458.191.673.673,0,0,1,.109.438,5.853,5.853,0,0,1-.994,3.24" transform="translate(-307.662 -145.724)" fill="none" stroke="#1a2e35" stroke-linecap="round" stroke-linejoin="round" stroke-width="1"/>
            <path id="Trazado_215919" data-name="Trazado 215919" d="M479.975,398.734l-6.086,7.578s6.678,6.166,13.589,8.453,19,6.618,21.027,9.928l-.778-3.984s-18.913-11.6-23.26-14.373A10.023,10.023,0,0,1,479.975,398.734Z" transform="translate(-338.899 -206.568)" fill="#1b3f5e"/>
            <path id="Trazado_215920" data-name="Trazado 215920" d="M510.96,413.041l12.11,6.879a75.1,75.1,0,0,0,8.91-7.113c2.949-3.037,6.545-6.353,8.768-13.112,3.072-9.34,11.876-13.781,11.876-13.781s-12.242,5.761-18.616,10.288-12.585,6.408-16.192,6.1C517.816,402.306,520.714,411.478,510.96,413.041Z" transform="translate(-348.779 -203.152)" fill="#1b3f5e"/>
            <path id="Trazado_215921" data-name="Trazado 215921" d="M350.861,186.362s4.759,3.733,9.706,2.332C360.567,188.694,355.9,197.934,350.861,186.362Z" transform="translate(-306.109 -149.966)" fill="#fff" stroke="#1a2e35" stroke-linecap="round" stroke-linejoin="round" stroke-width="1"/>
            <path id="Trazado_215922" data-name="Trazado 215922" d="M349.968,174.729c.137,1.028-.172,1.917-.69,1.986s-1.05-.707-1.188-1.735.172-1.918.69-1.987S349.83,173.7,349.968,174.729Z" transform="translate(-305.361 -146.402)" fill="#1a2e35"/>
            <path id="Trazado_215923" data-name="Trazado 215923" d="M364.057,172.186c.138,1.028-.171,1.917-.689,1.986s-1.05-.707-1.188-1.735.172-1.917.69-1.986S363.92,171.158,364.057,172.186Z" transform="translate(-309.117 -145.724)" fill="#1a2e35"/>
            <path id="Trazado_215924" data-name="Trazado 215924" d="M347.912,169.3a3.632,3.632,0,0,0-4.749,1.633" transform="translate(-304.057 -145.331)" fill="none" stroke="#1a2e35" stroke-linecap="round" stroke-linejoin="round" stroke-width="1"/>
            <path id="Trazado_215925" data-name="Trazado 215925" d="M359.314,166.418s2.927-2.519,4.63,0" transform="translate(-308.362 -144.352)" fill="none" stroke="#1a2e35" stroke-linecap="round" stroke-linejoin="round" stroke-width="1"/>
            <path id="Trazado_215926" data-name="Trazado 215926" d="M334.658,181.365s-1.785-2.635-3.655-2.55-2.635,2.72-1.955,5.269,3.485,6.119,5.61,5.779a4.71,4.71,0,0,0,3.059-1.7" transform="translate(-300.23 -147.954)" fill="none" stroke="#1a2e35" stroke-linecap="round" stroke-linejoin="round" stroke-width="1"/>
            <path id="Trazado_215927" data-name="Trazado 215927" d="M356.658,154.827c2.007,1.66,4.123,3.477,5.172,5.924.893,2.084,1.1,4.388,1.915,6.5a21.8,21.8,0,0,1,1.9,7.068,30.079,30.079,0,0,1-.888,6.74,37.212,37.212,0,0,1-1.36,5.637,9.979,9.979,0,0,1-5.267,5.5c-1.783.91-4.754,2.217-6.68.984a22.45,22.45,0,0,1-4.211-4.761" transform="translate(-305.145 -141.561)" fill="none" stroke="#1a2e35" stroke-linecap="round" stroke-linejoin="round" stroke-width="1"/>
            <path id="Trazado_215928" data-name="Trazado 215928" d="M336.785,193.879s3.152,7.733,2.387,13.172" transform="translate(-302.357 -151.97)" fill="none" stroke="#1a2e35" stroke-linecap="round" stroke-linejoin="round" stroke-width="1"/>
            <path id="Trazado_215929" data-name="Trazado 215929" d="M330.8,168.852a3.051,3.051,0,0,0,1.223-2.72c-.119-1.19-.944-2.288-.78-3.472a6.324,6.324,0,0,1,.63-1.635,6.826,6.826,0,0,0-.378-6.171s10.017.469,14.714-2.518,8.269-10.618,5.432-14.268-8.367,1.328-12.46,1.881-18.692,2.875-21.014,8.516,1.216,7.636,1.327,13,.1,15.517,8.126,14.587c0,0-3-3.88-.917-7.88C328.125,166.467,330.8,168.852,330.8,168.852Z" transform="translate(-297.186 -136.741)" fill="#1a2e35"/>
            <path id="Trazado_215930" data-name="Trazado 215930" d="M360.69,147.192a12.569,12.569,0,0,1,4.8,8.808c.447,4.021,7.58,11.831,2.44,16.287,0,0-1.2-4.735-1.9-7.068s-1.6-6.59-2.785-8.078-7.448-6.572-7.448-6.572Z" transform="translate(-307.423 -139.526)" fill="#1a2e35"/>
            <path id="Trazado_215931" data-name="Trazado 215931" d="M336.439,209.9s4.944,3.251,14.127,3.389l1.072,12.315s-10.321-.788-18-7.852c0,0-2.074-5.493-1.527-7.852s5.467-4.7,5.467-4.7" transform="translate(-301.086 -154.986)" fill="none" stroke="#1a2e35" stroke-linecap="round" stroke-linejoin="round" stroke-width="1"/>
            <path id="Trazado_215932" data-name="Trazado 215932" d="M363.951,203.765l.3,4.383a18.212,18.212,0,0,1-6.939,4.516l5.75,10.947s6.854-5.337,7.538-10.947c0,0,.056-5.748-1.135-7.39s-5.552-2.416-5.552-2.416" transform="translate(-307.827 -154.363)" fill="none" stroke="#1a2e35" stroke-linecap="round" stroke-linejoin="round" stroke-width="1"/>
            <path id="Trazado_215933" data-name="Trazado 215933" d="M328.426,153.335a5.963,5.963,0,0,1,4.7-3.232,42.587,42.587,0,0,1,5.952-.137,15.28,15.28,0,0,0,7.772-2.184,10.431,10.431,0,0,0,4.7-6.425" transform="translate(-300.129 -137.971)" fill="none" stroke="#fff" stroke-linecap="round" stroke-linejoin="round" stroke-width="1" opacity="0.8"/>
            <path id="Trazado_215934" data-name="Trazado 215934" d="M321.971,153.825c1.244-3.766,5.262-6.088,9.215-6.423,1.958-.167,3.937.065,5.888-.165a6.6,6.6,0,0,0,5-2.715" transform="translate(-298.409 -138.815)" fill="none" stroke="#fff" stroke-linecap="round" stroke-linejoin="round" stroke-width="1" opacity="0.8"/>
            <path id="Trazado_215935" data-name="Trazado 215935" d="M311.351,292.774c-9.52,4.944-12.924-.141-18.233-4.352s-1.831-11.717-2.93-23.8,1.648-32.588,1.648-32.588,2.379-.549,8.97-4.581,20.472-10.181,20.472-10.181" transform="translate(-289.869 -158.204)" fill="none" stroke="#1a2e35" stroke-linecap="round" stroke-linejoin="round" stroke-width="1"/>
            <path id="Trazado_215936" data-name="Trazado 215936" d="M324.174,293.527s-1.512-4.79-5.784-4.919-11,1.8-15.794,10.875" transform="translate(-293.245 -177.215)" fill="none" stroke="#1a2e35" stroke-linecap="round" stroke-linejoin="round" stroke-width="1"/>
            <path id="Trazado_215937" data-name="Trazado 215937" d="M318.541,287.757a2.2,2.2,0,0,1-.77-.183,18.547,18.547,0,0,0-10.959-.5" transform="translate(-294.369 -176.65)" fill="none" stroke="#1a2e35" stroke-linecap="round" stroke-linejoin="round" stroke-width="1"/>
            <path id="Trazado_215938" data-name="Trazado 215938" d="M303.468,246.323c7.762,8.581,11.549,19.935,15.136,30.935" transform="translate(-293.477 -165.947)" fill="none" stroke="#1a2e35" stroke-linecap="round" stroke-linejoin="round" stroke-width="1"/>
            <path id="Trazado_215939" data-name="Trazado 215939" d="M375.423,214.663s14.085,3.359,20.963,4.158,8,1.76,8,1.76l1.279,4.8" transform="translate(-312.655 -157.509)" fill="none" stroke="#1a2e35" stroke-linecap="round" stroke-linejoin="round" stroke-width="1"/>
            <path id="Trazado_215940" data-name="Trazado 215940" d="M446.046,226.069l-47.965,1.844-3.919,49.328h8.217l41.645-9.328,5.239-40.658Z" transform="translate(-317.65 -160.549)" fill="#fff"/>
            <g id="Grupo_143140" data-name="Grupo 143140" transform="translate(79.011 67.869)">
              <path id="Trazado_215941" data-name="Trazado 215941" d="M397.568,279.556l52.454-50.284-5.09,39.5Z" transform="translate(-397.568 -229.272)" fill="#5ae4a7"/>
              <path id="Trazado_215942" data-name="Trazado 215942" d="M397.568,279.556l52.454-50.284-5.09,39.5Z" transform="translate(-397.568 -229.272)" fill="#f0f8ff"/>
            </g>
            <path id="Trazado_215943" data-name="Trazado 215943" d="M397.568,277.807l4.192-47.579,48.412-2.541-5.239,40.658Z" transform="translate(-318.557 -160.98)" fill="none" stroke="#1a2e35" stroke-linecap="round" stroke-linejoin="round" stroke-width="1"/>
            <path id="Trazado_215944" data-name="Trazado 215944" d="M439.362,257.082c-.327,2.9-1.875,5.1-3.456,4.922s-2.6-2.671-2.271-5.569,1.875-5.1,3.456-4.922S439.689,254.185,439.362,257.082Z" transform="translate(-328.154 -167.328)" fill="#1a2e35"/>
            <path id="Trazado_215945" data-name="Trazado 215945" d="M447.68,283.108s22.166-.63,29.1,3.946,11,27.528,10.041,39.721S477.5,366.94,477.5,366.94l-16.018-18.17s-7.89-28.69-3.587-39.926c0,0-21.277,1.2-29.646-1.435,0,0-7.5-12.284-20.368-16.351Z" transform="translate(-321.305 -175.743)" fill="#1b3f5e"/>
            <path id="Trazado_215946" data-name="Trazado 215946" d="M462.951,369.88a109.515,109.515,0,0,1-15.238-17.569A144.436,144.436,0,0,0,418.22,319.87c-8.888-7.209-10.9-18.945-21.857-24.831-18.15-9.736-33.843,9.611-39.712,13.523s-16.032,8.324-16.032,8.324,3.706,13.907,14.6,15.586,21.928-5.868,27.171-2.233,9.075,19.838,26.3,29.341c14.077,7.762,33.254,15.336,43.15,20.437,2.216,1.143,3.845,2.348,5.092,3.028,3.418,1.864,7.07,4.062,10.516,6.231l11.874,7.233s11.917-7.049,16.494-13.549c.615-.873,1.88-3.2,3.068-5.445,2.593-4.9,5.854-9.3,10.408-11.75,3.142-1.689,5.938-2.207,5.848-2.374-.3-.56-5.991-3.469-9.86-1.876-8.185,3.377-24.546,16.369-32.246,15.407A57.755,57.755,0,0,1,462.951,369.88Z" transform="translate(-303.379 -178.209)" fill="none" stroke="#1a2e35" stroke-miterlimit="10" stroke-width="1"/>
            <path id="Trazado_215947" data-name="Trazado 215947" d="M462.952,369.88c-7.137,2.886-10.013,7.325-11.111,10.138-9.9-5.1-29.074-12.674-43.15-20.437-17.221-9.5-21.052-25.715-26.3-29.341s-16.274,3.912-27.171,2.233-14.6-15.59-14.6-15.59,10.164-4.406,16.032-8.318,19.4-23.264,39.708-13.525c11.219,5.379,12.969,17.622,21.857,24.831a144.437,144.437,0,0,1,29.493,32.441A107.585,107.585,0,0,0,462.952,369.88Z" transform="translate(-303.38 -178.209)" fill="#1b3f5e"/>
            <path id="Trazado_215948" data-name="Trazado 215948" d="M429.088,308.442s-5.493-11.165-14.306-13.331" transform="translate(-323.145 -178.95)" fill="none" stroke="#fff" stroke-linecap="round" stroke-linejoin="round" stroke-width="1"/>
            <path id="Trazado_215949" data-name="Trazado 215949" d="M374.313,282.919c-6.061-1.322-12.713,5.376-15.515,4.122-2.084-.932-5.509,4.585-5.509,4.585a91.79,91.79,0,0,1-17.033.855c-8.162-.515-12.031,1.07-14.919,5.44L317.306,308.6s10.638,9.548,22.007,3.985,26.462-22.3,36.863-22.242" transform="translate(-297.165 -175.654)" fill="none" stroke="#1a2e35" stroke-linecap="round" stroke-linejoin="round" stroke-width="1"/>
            <path id="Trazado_215950" data-name="Trazado 215950" d="M510.33,418.489s9.952.818,7.616-11.067" transform="translate(-348.611 -208.884)" fill="none" stroke="#1a2e35" stroke-miterlimit="10" stroke-width="1"/>
            <path id="Trazado_215951" data-name="Trazado 215951" d="M567.8,395.227c-.753,1.5-9.854,9.226-17.711,16.012.023-.106,2.172-4.246,3.116-6.014,2.085-3.9,7.483-14.606,17.763-16.013C572.427,390.091,567.8,395.227,567.8,395.227Z" transform="translate(-359.208 -204.031)" fill="#1a2e35"/>
            <path id="Trazado_215952" data-name="Trazado 215952" d="M557.86,386.019c-10.391,2.074-12.752,15.388-16.442,21.078s-13.948,13.376-13.948,13.376" transform="translate(-353.179 -203.179)" fill="none" stroke="#1a2e35" stroke-miterlimit="10" stroke-width="1"/>
            <path id="Trazado_215953" data-name="Trazado 215953" d="M506.963,421.27c1.689,3.1.891,6.691,0,8.942a18.485,18.485,0,0,1-1.631,3.2c-14.713-2.418-29.426-10.323-29.426-10.323l-3.794-11.739-.605-1.877,5.711-7.691" transform="translate(-338.264 -207.382)" fill="none" stroke="#1a2e35" stroke-miterlimit="10" stroke-width="1"/>
            <path id="Trazado_215954" data-name="Trazado 215954" d="M507.183,433.688a18.487,18.487,0,0,1-1.631,3.2c-14.713-2.418-29.426-10.323-29.426-10.323l-3.794-11.739a21.016,21.016,0,0,0,10.7,7.6C490.2,424.462,503.429,426.84,507.183,433.688Z" transform="translate(-338.484 -210.858)" fill="#1a2e35"/>
            <path id="Trazado_215955" data-name="Trazado 215955" d="M394.163,275.525l3.919-47.612,47.965-1.844,3.218,1.186" transform="translate(-317.65 -160.549)" fill="none" stroke="#1a2e35" stroke-linecap="round" stroke-linejoin="round" stroke-width="1"/>
            <path id="Trazado_215956" data-name="Trazado 215956" d="M520.573,408.818s6.56,1.169,11.6-2.942,13.159-13.4,13.159-13.4" transform="translate(-351.341 -204.9)" fill="none" stroke="#1a2e35" stroke-miterlimit="10" stroke-width="1"/>
            <path id="Trazado_215957" data-name="Trazado 215957" d="M529.467,406.669s-1.581,2.385,0,7.172" transform="translate(-353.524 -208.683)" fill="none" stroke="#1a2e35" stroke-linecap="round" stroke-linejoin="round" stroke-width="1"/>
            <path id="Trazado_215958" data-name="Trazado 215958" d="M535.91,403.581a9.785,9.785,0,0,0,.592,7.17" transform="translate(-355.316 -207.86)" fill="none" stroke="#1a2e35" stroke-linecap="round" stroke-linejoin="round" stroke-width="1"/>
            <path id="Trazado_215959" data-name="Trazado 215959" d="M543.4,399.2a12.7,12.7,0,0,0,0,7.5" transform="translate(-357.268 -206.692)" fill="none" stroke="#1a2e35" stroke-linecap="round" stroke-linejoin="round" stroke-width="1"/>
            <path id="Trazado_215960" data-name="Trazado 215960" d="M479.152,400.435l-5.263,6.331a33.35,33.35,0,0,0,12.771,8.189c7.468,2.405,20.829,6.491,21.932,10.84" transform="translate(-338.899 -207.022)" fill="none" stroke="#1a2e35" stroke-miterlimit="10" stroke-width="1"/>
          </g>
        </g>
      </g>
    </g>
  </g>
</svg>
