<svg xmlns="http://www.w3.org/2000/svg" width="400" height="283.767" viewBox="0 0 400 283.767">
  <g id="Grupo_145084" data-name="Grupo 145084" transform="translate(-10944.5 7416)">
    <g id="Grupo_142831" data-name="Grupo 142831" transform="translate(-1512.5 2192.999)">
      <path id="Trazado_215228" data-name="Trazado 215228" d="M96.729,383.694s-36.757-54.883.526-123.094c34.572-63.252,88.086-32.905,121.826-90.968,85.481-147.107,267.953-34.019,240.576,91.007-13.248,60.5,40.322,62.7,13.026,123.184Z" transform="translate(12376.452 -9709.055)" fill="#f0f8ff"/>
    </g>
    <g id="Grupo_142948" data-name="Grupo 142948" transform="translate(10818.281 -7505.625)">
      <g id="Grupo_142932" data-name="Grupo 142932" transform="translate(224.506 103.019)">
        <g id="Grupo_142929" data-name="Grupo 142929" transform="translate(26.638 60.575)">
          <path id="Trazado_215415" data-name="Trazado 215415" d="M347.8,254.279S310.62,299.4,297.47,298.222s-22.161-23.167-22.161-23.167.451-.242,1.216-.7c3.849-2.271,15.687-9.792,18.457-17.82,2.682-4.356,22.185-35.979,28.12-44.048,6.386-8.673,13.9-9.011,13.9-9.011,4.236,6.966,9.583,12.264,16.21,13.263a26.2,26.2,0,0,0,2.641.266c.4,2.835,3.068,17.3,16.057,24.7,0,0,.5-10.074,7.159-10.968,0,0,7.054-3.865,12.876,1.788,0,0,9.228-9.9,0-37.719l-6.587-5.959-.008-.008-3.02-7.183s33.7-1.683,41.5,5.54,57.657,73.2,57.657,73.2L408.951,316.7S364.975,273.09,347.8,254.279Z" transform="translate(-275.309 -181.482)" fill="#d84318"/>
          <path id="Trazado_215416" data-name="Trazado 215416" d="M417.035,196.582c9.228,27.814,0,37.719,0,37.719-5.822-5.653-12.876-1.788-12.876-1.788l9.405-34.481-3.116-7.408Z" transform="translate(-300.401 -183.262)" fill="#d84318"/>
          <path id="Trazado_215417" data-name="Trazado 215417" d="M388.793,232.885l9.752,6.434c-6.66.894-7.159,10.968-7.159,10.968-12.989-7.4-15.654-21.863-16.057-24.7a21.142,21.142,0,0,0,2.376-.016Z" transform="translate(-294.786 -190.068)" fill="#d84318"/>
          <path id="Trazado_215418" data-name="Trazado 215418" d="M361.944,267.767l-12.171-15.021c-.326-.4-.893.17-.569.569l12.171,15.021C361.7,268.74,362.267,268.167,361.944,267.767Z" transform="translate(-289.68 -195.333)" fill="#2e303d"/>
          <path id="Trazado_215419" data-name="Trazado 215419" d="M358.4,271.755l-8.616-3.7c-.471-.2-.882.491-.406.7l8.616,3.7C358.465,272.652,358.876,271.958,358.4,271.755Z" transform="translate(-289.691 -198.334)" fill="#2e303d"/>
          <path id="Trazado_215420" data-name="Trazado 215420" d="M433.286,289.917,422.33,271.794l-10.9-18.036q-3.09-5.111-6.179-10.22a.4.4,0,0,0-.695.406l10.955,18.122,10.9,18.036,6.179,10.221A.4.4,0,0,0,433.286,289.917Z" transform="translate(-300.465 -193.529)" fill="#2e303d"/>
        </g>
        <g id="Grupo_142930" data-name="Grupo 142930" transform="translate(0 112.097)">
          <path id="Trazado_215421" data-name="Trazado 215421" d="M289.128,266.021a10.242,10.242,0,0,1-.588,2.971c-2.77,8.029-14.608,15.55-18.457,17.82l-1.216-4.453s-6.241,1.4-10.807-2.553a1.574,1.574,0,0,1-.54.588,3.638,3.638,0,0,1-2.214.33,18.122,18.122,0,0,1-9.47-3.736,8.936,8.936,0,0,1-3.487-4.848,4.646,4.646,0,0,1,1.957-5.025,5.747,5.747,0,0,1-.121-.91,6.366,6.366,0,0,1,2.094-4.646,17.082,17.082,0,0,1,4-2.73c.016-.072.032-.137.048-.2a5.9,5.9,0,0,1,2.263-3.036,16.569,16.569,0,0,1,3.06-1.675c-5.162-2.657-10.114-5.6-9.615-6.925,1.007-2.682,11.58-1.731,22.274,2.013s14.181,9.341,14.181,9.341C285.818,256.874,289.458,257.164,289.128,266.021Z" transform="translate(-242.229 -245.463)" fill="#ff9971"/>
          <path id="Trazado_215422" data-name="Trazado 215422" d="M291.574,270.587l-7.475,3.207-3.784,1.623c-1.036.445-2.3,1.17-3.463.809-1.253-.387-1.266-1.791-.786-2.8a14.987,14.987,0,0,1,1.924-2.787A31.607,31.607,0,0,1,289,261.9c.466-.225.059-.92-.407-.7a32.431,32.431,0,0,0-11.381,9.126c-1.183,1.505-3.414,4.159-1.636,6.044a3.069,3.069,0,0,0,3.166.537,39.687,39.687,0,0,0,3.821-1.592l9.414-4.039C292.456,271.078,292.046,270.385,291.574,270.587Z" transform="translate(-248.594 -248.52)" fill="#2e303d"/>
          <path id="Trazado_215423" data-name="Trazado 215423" d="M268.8,261.514l-9.372-5.6a.4.4,0,0,0-.406.695l9.372,5.6A.4.4,0,0,0,268.8,261.514Z" transform="translate(-245.461 -247.487)" fill="#2e303d"/>
          <path id="Trazado_215424" data-name="Trazado 215424" d="M268.948,277.888a8.1,8.1,0,0,0-.723-2.165l-.964-2.308q-2.219-5.308-4.436-10.615c-.2-.471-.977-.264-.777.214l3.587,8.584,1.813,4.339c.366.878,1.5,3.187-.134,3.56-1.142.262-2.475-.879-3.341-1.489a28.6,28.6,0,0,1-2.855-2.3,29.594,29.594,0,0,1-4.712-5.535,29.2,29.2,0,0,1-3.5-7.417c-.152-.494-.93-.283-.776.214A30.09,30.09,0,0,0,263.568,278.7c1,.705,2.2,1.647,3.494,1.627A2.041,2.041,0,0,0,268.948,277.888Z" transform="translate(-244.153 -248.775)" fill="#2e303d"/>
          <path id="Trazado_215425" data-name="Trazado 215425" d="M260.77,280.135c-.309-.408-1.008-.007-.7.407a1.831,1.831,0,0,1-.039,2.391,2.033,2.033,0,0,1-2.387.332,11.04,11.04,0,0,1-2.252-1.532q-1.1-.865-2.16-1.779a61.855,61.855,0,0,1-7.709-7.971c-.325-.4-.892.17-.569.57a61.975,61.975,0,0,0,7.029,7.376c1.239,1.1,2.52,2.157,3.848,3.15,1.166.872,2.69,1.7,4.124.92A2.62,2.62,0,0,0,260.77,280.135Z" transform="translate(-242.742 -250.601)" fill="#2e303d"/>
        </g>
        <g id="Grupo_142931" data-name="Grupo 142931" transform="translate(54.664)">
          <path id="Trazado_215426" data-name="Trazado 215426" d="M400.106,189.066,390.7,223.548l-9.752-6.434c10.034-14.253,8.077-31.18,8.077-31.18s-1.562,22.8-19.165,23.868a21.142,21.142,0,0,1-2.376.016,26.2,26.2,0,0,1-2.641-.266c-6.627-1-11.974-6.3-16.21-13.263-8.415-13.834-12.482-34.208-13.585-40.465,9.913-1.3,19.544-5.46,28.949-9.212,2.907-1.16,5.975-2.311,9.091-1.965a13.292,13.292,0,0,1,8.19,4.638,35.06,35.06,0,0,1,4.6,7.054c.37-2.271,1.908-9.083,7.062-7.119a4.505,4.505,0,0,1,1.586,1.047c4.276,4.316,2.706,17.716-2.142,20.446l1.578,3.753,3.02,7.183.008.008Z" transform="translate(-314.968 -113.721)" fill="#ff9971"/>
          <path id="Trazado_215427" data-name="Trazado 215427" d="M397.444,195.933s1.957,16.927-8.077,31.18L378.279,219.8C395.882,218.73,397.444,195.933,397.444,195.933Z" transform="translate(-323.386 -123.72)" fill="#2e303d"/>
          <path id="Trazado_215428" data-name="Trazado 215428" d="M388.8,130.654c-.475-3.028-1.216-6.176-3.237-8.479-1.811-2.055-4.942-3.149-7.4-2.136a10.8,10.8,0,0,0-7.722-13.251c-6.828-1.778-13.064,2.715-18.608,6a33.686,33.686,0,0,1-9.418,3.951,30.38,30.38,0,0,1-15.056-.243,27.9,27.9,0,0,0-5-1.087c-2.842-.225-5.737.852-6.88,3.629-1.065,2.587-.519,5.607.519,8.109a16.808,16.808,0,0,0,3.029,4.793,8.005,8.005,0,0,0-6.494,13.738c2.215,2.118,5.419,2.794,8.471,3.02a44.3,44.3,0,0,0,9.188-.306c9.913-1.3,19.544-5.46,28.949-9.212,2.907-1.16,5.975-2.311,9.091-1.965a13.292,13.292,0,0,1,8.19,4.638,35.061,35.061,0,0,1,4.6,7.054c.37-2.271,1.908-9.083,7.062-7.119a4.505,4.505,0,0,1,1.586,1.047A71.737,71.737,0,0,0,388.8,130.654ZM371.7,110.9c-3.849-1.385-8.165-.483-11.918,1.143s-7.183,3.922-10.952,5.492a31.169,31.169,0,0,1-21.847.676c-2.609-.9-5.46-2.158-8-1.079a5.924,5.924,0,0,0-3.27,5.064,8.571,8.571,0,0,1,.1-1.45,5.411,5.411,0,0,1,1.814-3.357,6.264,6.264,0,0,1,4.013-1.212,19,19,0,0,1,4.861.916,35.349,35.349,0,0,0,4.692.992,31.475,31.475,0,0,0,18.139-3.012c5.713-2.855,10.94-7.639,17.637-7.852a10.453,10.453,0,0,1,7.969,3.123,10.058,10.058,0,0,1,2.682,8.3c-.014.1-.044.2-.062.308C377.722,115.514,375.043,112.112,371.7,110.9Z" transform="translate(-310.112 -106.282)" fill="#2e303d"/>
          <path id="Trazado_215429" data-name="Trazado 215429" d="M383.4,196.273s4.477,8.182-2.351,12.933-11.644-2-11.644-2Z" transform="translate(-321.659 -123.787)" fill="#fff"/>
          <path id="Trazado_215430" data-name="Trazado 215430" d="M357.692,177.863l9.285,18.473s-7.553,4.252-9.285,1.788S357.692,177.863,357.692,177.863Z" transform="translate(-319.227 -120.202)" fill="#f9785a"/>
          <path id="Trazado_215431" data-name="Trazado 215431" d="M352.1,182.182c.712,2.41-.068,4.766-1.743,5.261s-3.61-1.059-4.323-3.469.068-4.766,1.743-5.262S351.391,179.771,352.1,182.182Z" transform="translate(-317.057 -120.349)" fill="#2e303d"/>
          <path id="Trazado_215432" data-name="Trazado 215432" d="M376.436,173.974c.713,2.41-.068,4.766-1.743,5.261s-3.61-1.059-4.322-3.469.068-4.766,1.743-5.262S375.724,171.563,376.436,173.974Z" transform="translate(-321.795 -118.751)" fill="#2e303d"/>
          <path id="Trazado_215433" data-name="Trazado 215433" d="M347.337,170.915a17.379,17.379,0,0,0-4.37,1.72,1.624,1.624,0,0,0-.517,2.219,1.647,1.647,0,0,0,2.219.517c.34-.188.689-.357,1.041-.52a15.752,15.752,0,0,1,2.541-.846,1.622,1.622,0,0,0,1.088-2A1.647,1.647,0,0,0,347.337,170.915Z" transform="translate(-316.362 -118.839)" fill="#2e303d"/>
          <path id="Trazado_215434" data-name="Trazado 215434" d="M375.122,164.084a1.874,1.874,0,0,0-1.133-.437,12.357,12.357,0,0,0-5.8.856,1.743,1.743,0,0,0-.958.775,1.611,1.611,0,0,0,1.871,2.314,9.881,9.881,0,0,1,4.944-.724,1.612,1.612,0,0,0,1.144-.507,1.61,1.61,0,0,0-.07-2.276Z" transform="translate(-321.197 -117.423)" fill="#2e303d"/>
          <path id="Trazado_215435" data-name="Trazado 215435" d="M394.176,106.469c-.2-.475-.9-.065-.695.406a27.058,27.058,0,0,1,2.2,11,.4.4,0,0,0,.805,0A28.02,28.02,0,0,0,394.176,106.469Z" transform="translate(-326.34 -106.258)" fill="#2e303d"/>
          <path id="Trazado_215436" data-name="Trazado 215436" d="M398.681,115.074q-.515,2.123-1.031,4.248c-.122.5.655.718.777.214q.515-2.125,1.031-4.248C399.579,114.784,398.8,114.569,398.681,115.074Z" transform="translate(-327.156 -107.918)" fill="#2e303d"/>
        </g>
      </g>
      <g id="Grupo_142939" data-name="Grupo 142939" transform="translate(218.61 319.412)">
        <g id="Grupo_142933" data-name="Grupo 142933" transform="translate(0)">
          <path id="Trazado_215437" data-name="Trazado 215437" d="M361.519,404.236v5.146H289.673l-54.766-29.771v-4.63l55.813,29.255Z" transform="translate(-234.907 -374.98)" fill="#8e8e8e"/>
          <path id="Trazado_215438" data-name="Trazado 215438" d="M361.519,404.236h-70.8L234.907,374.98h70.8Z" transform="translate(-234.907 -374.98)" fill="#afafaf"/>
          <path id="Trazado_215439" data-name="Trazado 215439" d="M309.752,407.646h-8.719l-6.873-3.6h8.719Z" transform="translate(-246.446 -380.64)" fill="#8e8e8e"/>
          <path id="Trazado_215440" data-name="Trazado 215440" d="M298.31,401.668h-8.719l-6.873-3.6h8.719Z" transform="translate(-244.218 -379.476)" fill="#8e8e8e"/>
          <path id="Trazado_215441" data-name="Trazado 215441" d="M288.629,395.924H279.91l-6.873-3.6h8.719Z" transform="translate(-242.332 -378.357)" fill="#8e8e8e"/>
          <path id="Trazado_215442" data-name="Trazado 215442" d="M277.187,389.947h-8.719l-6.873-3.6h8.719Z" transform="translate(-240.104 -377.193)" fill="#8e8e8e"/>
          <path id="Trazado_215443" data-name="Trazado 215443" d="M322.818,406.777H314.1l-6.873-3.6h8.719Z" transform="translate(-248.99 -380.471)" fill="#8e8e8e"/>
          <path id="Trazado_215444" data-name="Trazado 215444" d="M313.137,401.033h-8.719l-6.873-3.6h8.719Z" transform="translate(-247.105 -379.352)" fill="#8e8e8e"/>
          <path id="Trazado_215445" data-name="Trazado 215445" d="M301.7,395.055h-8.719l-6.873-3.6h8.719Z" transform="translate(-244.877 -378.188)" fill="#8e8e8e"/>
          <path id="Trazado_215446" data-name="Trazado 215446" d="M325.181,399.967h-8.719l-6.873-3.6h8.719Z" transform="translate(-249.45 -379.145)" fill="#8e8e8e"/>
          <path id="Trazado_215447" data-name="Trazado 215447" d="M315.5,394.224h-8.719l-6.873-3.6h8.719Z" transform="translate(-247.565 -378.026)" fill="#8e8e8e"/>
          <path id="Trazado_215448" data-name="Trazado 215448" d="M304.059,388.246H295.34l-6.873-3.6h8.719Z" transform="translate(-245.337 -376.862)" fill="#8e8e8e"/>
          <path id="Trazado_215449" data-name="Trazado 215449" d="M365.064,408.186h-8.719l-6.873-3.6h8.719Z" transform="translate(-257.217 -380.745)" fill="#8e8e8e"/>
          <path id="Trazado_215450" data-name="Trazado 215450" d="M353.622,402.208H344.9l-6.873-3.6h8.719Z" transform="translate(-254.989 -379.581)" fill="#8e8e8e"/>
          <path id="Trazado_215451" data-name="Trazado 215451" d="M343.941,396.465h-8.719l-6.873-3.6h8.719Z" transform="translate(-253.104 -378.463)" fill="#8e8e8e"/>
          <path id="Trazado_215452" data-name="Trazado 215452" d="M332.5,390.487h-8.719l-6.873-3.6h8.719Z" transform="translate(-250.876 -377.298)" fill="#8e8e8e"/>
          <path id="Trazado_215453" data-name="Trazado 215453" d="M378.131,407.317h-8.719l-6.873-3.6h8.719Z" transform="translate(-259.761 -380.576)" fill="#8e8e8e"/>
          <path id="Trazado_215454" data-name="Trazado 215454" d="M368.45,401.573h-8.719l-6.873-3.6h8.719Z" transform="translate(-257.876 -379.457)" fill="#8e8e8e"/>
          <path id="Trazado_215455" data-name="Trazado 215455" d="M357.008,395.6h-8.719l-6.873-3.6h8.719Z" transform="translate(-255.648 -378.293)" fill="#8e8e8e"/>
        </g>
        <g id="Grupo_142938" data-name="Grupo 142938" transform="translate(64.895 34.994)">
          <path id="Trazado_215456" data-name="Trazado 215456" d="M422.444,437.423h-70.8L315.5,418.436h70.8Z" transform="translate(-315.496 -418.436)" fill="#636363"/>
          <path id="Trazado_215457" data-name="Trazado 215457" d="M379.8,437.847H359.2l-10.521-5.526h20.6Z" transform="translate(-321.958 -421.14)" fill="#27c8cc"/>
          <g id="Grupo_142934" data-name="Grupo 142934" transform="translate(39.043 1.917)">
            <path id="Trazado_215458" data-name="Trazado 215458" d="M389.217,435.259a.813.813,0,0,1-.374-.092l-24.433-12.833a.805.805,0,0,1,.749-1.426l24.433,12.832a.805.805,0,0,1-.375,1.519Z" transform="translate(-363.98 -420.817)" fill="#b7b7b7"/>
          </g>
          <g id="Grupo_142935" data-name="Grupo 142935" transform="translate(47.262 1.444)">
            <path id="Trazado_215459" data-name="Trazado 215459" d="M399.425,434.672a.808.808,0,0,1-.374-.092l-24.433-12.833a.805.805,0,1,1,.749-1.426L399.8,433.153a.805.805,0,0,1-.374,1.519Z" transform="translate(-374.187 -420.229)" fill="#b7b7b7"/>
          </g>
          <g id="Grupo_142936" data-name="Grupo 142936" transform="translate(58.437 2.154)">
            <path id="Trazado_215460" data-name="Trazado 215460" d="M413.3,435.553a.811.811,0,0,1-.374-.092L388.5,422.629a.805.805,0,1,1,.749-1.426l24.433,12.832a.805.805,0,0,1-.375,1.519Z" transform="translate(-388.064 -421.111)" fill="#b7b7b7"/>
          </g>
          <g id="Grupo_142937" data-name="Grupo 142937" transform="translate(66.657 1.681)">
            <path id="Trazado_215461" data-name="Trazado 215461" d="M423.509,434.965a.813.813,0,0,1-.374-.092L398.7,422.041a.805.805,0,0,1,.748-1.426l24.433,12.832a.805.805,0,0,1-.375,1.519Z" transform="translate(-398.272 -420.523)" fill="#b7b7b7"/>
          </g>
        </g>
      </g>
      <g id="Grupo_142941" data-name="Grupo 142941" transform="translate(440.154 89.625)">
        <path id="Trazado_215462" data-name="Trazado 215462" d="M519.091,156.88l13.779-7.174a30.506,30.506,0,1,0-14.01-8.07Z" transform="translate(-510.026 -89.625)" fill="#1b3f5e"/>
        <g id="Grupo_142940" data-name="Grupo 142940" transform="translate(13.868 4.464)">
          <path id="Trazado_215463" data-name="Trazado 215463" d="M554.961,152.958v2H539.813v-5.713Z" transform="translate(-529.694 -105.699)" fill="#fff59d"/>
          <path id="Trazado_215464" data-name="Trazado 215464" d="M542.036,156.338H553.67s-.275,2.407-5.854,2.407S542.036,156.338,542.036,156.338Z" transform="translate(-530.127 -107.081)" fill="#fff59d"/>
          <path id="Trazado_215465" data-name="Trazado 215465" d="M554.961,147.1v5.438l-15.149-3.715V147.1h15.149Z" transform="translate(-529.694 -105.282)" fill="#fff59d"/>
          <path id="Trazado_215466" data-name="Trazado 215466" d="M562.975,113.029a17.857,17.857,0,0,1-8.864,15.439l-2.34,8.521H538.451l-2.333-8.521a17.864,17.864,0,1,1,26.857-15.439Z" transform="translate(-527.247 -95.169)" fill="#f0f8ff"/>
          <path id="Trazado_215467" data-name="Trazado 215467" d="M540.369,122.434c-.066-.426-.714-.245-.648.179q1.5,9.6,2.994,19.2c.067.426.715.245.648-.179Q541.866,132.037,540.369,122.434Z" transform="translate(-529.675 -100.431)" fill="#fff"/>
          <path id="Trazado_215468" data-name="Trazado 215468" d="M557.338,121.626q-1.616,10.109-3.232,20.216c-.068.424.58.606.648.179q1.616-10.108,3.232-20.216C558.054,121.382,557.406,121.2,557.338,121.626Z" transform="translate(-532.477 -100.274)" fill="#fff"/>
          <path id="Trazado_215469" data-name="Trazado 215469" d="M556.044,125.817a3.248,3.248,0,0,1-3.538,2.053,4.463,4.463,0,0,1-2.839-2.221,8.7,8.7,0,0,0,1.265-2.825,8.045,8.045,0,0,0,.163-3.035c-.109-.771-.47-1.753-1.358-1.872-1.038-.14-1.571.905-1.739,1.761a9.1,9.1,0,0,0-.018,3.351,8.925,8.925,0,0,0,.864,2.541c-.089.109-.176.219-.271.323a3.367,3.367,0,0,1-2.2,1.263,2.114,2.114,0,0,1-1.874-1.139,6.038,6.038,0,0,0,.921-2.169,13.187,13.187,0,0,0,.259-3.5c-.06-.886-.672-1.927-1.711-1.628-1.068.307-1.247,1.608-1.317,2.544a8.451,8.451,0,0,0,.38,3.188,8.637,8.637,0,0,0,.656,1.546,2.867,2.867,0,0,1-1.735,1c-2.024.337-2.786-1.735-3.18-3.308a.336.336,0,0,0-.648.179c.437,1.746,1.287,3.844,3.418,3.835a3.416,3.416,0,0,0,2.507-1.131,3.877,3.877,0,0,0,.543.606,2.616,2.616,0,0,0,2.776.43,4.915,4.915,0,0,0,1.85-1.384,5.318,5.318,0,0,0,2.517,2.126A3.907,3.907,0,0,0,556.692,126C556.839,125.589,556.19,125.413,556.044,125.817Zm-12.665-5.03a2.026,2.026,0,0,1,.485-1.25c.411-.37.874-.128,1.054.331a3.578,3.578,0,0,1,.086,1.383c-.015.474-.034.947-.079,1.419a6.927,6.927,0,0,1-.788,2.7A7.8,7.8,0,0,1,543.379,120.787Zm5.855,4.055a8.229,8.229,0,0,1-.53-5.256,1.243,1.243,0,0,1,.7-.981c.412-.125.691.226.84.564a4.952,4.952,0,0,1,.229,2.312,7.547,7.547,0,0,1-1.184,3.476C549.273,124.919,549.251,124.881,549.234,124.841Z" transform="translate(-529.364 -99.596)" fill="#fff"/>
        </g>
      </g>
      <g id="Grupo_142942" data-name="Grupo 142942" transform="translate(211.922 117.124)">
        <path id="Trazado_215470" data-name="Trazado 215470" d="M291.572,168.043l-14.335,2.223a28.489,28.489,0,1,1,6.077-13.82Z" transform="translate(-226.602 -123.773)" fill="#fff"/>
        <path id="Trazado_215471" data-name="Trazado 215471" d="M280.177,146.123l-26.692,26.692L238.973,158.3l7.036-7.036,7.476,7.476,19.648-19.648Z" transform="translate(-229.011 -126.756)" fill="#1b3f5e"/>
      </g>
      <g id="Grupo_142946" data-name="Grupo 142946" transform="translate(270.986 128.276)">
        <g id="Grupo_142943" data-name="Grupo 142943" transform="translate(98.414)">
          <path id="Trazado_215472" data-name="Trazado 215472" d="M484.453,238.958,466.27,259.363,461.624,271.9l-.95-11.757-1.909-14.326.193-2.649,1.087-14.97a32.287,32.287,0,0,1-8.721-.3c-10.871-1.933-19.165-10.235-20.2-28.2-.636-10.944.717-19.189,2.545-25.132,2.682-8.729,6.41-12.474,6.41-12.474s13.6,22.781,31.623,25.3c0,0,3.3-7.787,8.447-5.492s5.154,17.788-3.012,19.818a67.326,67.326,0,0,0,4.518,31.7A31.367,31.367,0,0,0,484.453,238.958Z" transform="translate(-423.875 -142.388)" fill="#ff9971"/>
          <circle id="Elipse_5493" data-name="Elipse 5493" cx="7.288" cy="7.288" r="7.288" transform="translate(35.51 51.499)" fill="#f9785a"/>
          <path id="Trazado_215473" data-name="Trazado 215473" d="M476.016,241.955l-9.647,9.631.572-7.835A46.623,46.623,0,0,0,476.016,241.955Z" transform="translate(-430.771 -157.94)" fill="#2e303d"/>
          <path id="Trazado_215474" data-name="Trazado 215474" d="M462.374,251.948l-.515,7.135s-10.452,4.687-15.244,15.759a20.886,20.886,0,0,1-.177-10.5,57.74,57.74,0,0,1,4.05-11.113,77.319,77.319,0,0,0,3.736-9.414,32.287,32.287,0,0,0,8.721.3Z" transform="translate(-426.776 -158.302)" fill="#2e303d"/>
          <path id="Trazado_215475" data-name="Trazado 215475" d="M443.916,197.815l4.147,17.466s-7.223,2.182-8.173.443S443.916,197.815,443.916,197.815Z" transform="translate(-425.591 -149.344)" fill="#f9785a"/>
          <path id="Trazado_215476" data-name="Trazado 215476" d="M542.123,238c-2.159-8.831-7.4-16.473-13.371-23.18-4.834-5.43-10.205-10.341-15.3-15.519-1.6-2.6-3.089-5.258-4.421-8.009-4.993-10.3-7.61-21.629-12.747-31.848s-13.77-19.745-25.076-21.509c-16.6-2.593-32.452,12.127-48.968,9.027a27.988,27.988,0,0,0,9.091,22.652l.62.193c2.3-7.489,5.365-11.3,6.191-12.234.993,4.945,4.427,9.013,7.825,12.6,3.973,4.2,8.446,8.106,13.878,10.274a22.4,22.4,0,0,0,7.354,1.617,25,25,0,0,0,2.785.566s3.3-7.787,8.447-5.492,5.154,17.788-3.012,19.818a67.326,67.326,0,0,0,4.518,31.7,31.369,31.369,0,0,0,2.8,5.54,16.021,16.021,0,0,0,2.424,2.931v.008c.33.306.676.6,1.047.886,7.078,5.4,17.507,2.166,25.841,5.3,7.714,2.9,12.5,11.016,13.754,19.165s-.378,16.435-2.005,24.52l.145.048c.161-.483.314-.974.467-1.458,10.818-3.829,17.228-15.559,17.742-27.1A44.437,44.437,0,0,0,542.123,238ZM453.679,176.07A49.814,49.814,0,0,1,447.4,170.5a50.623,50.623,0,0,1-5.363-6.25,19.747,19.747,0,0,1-2.777-5.516c2.779,4.207,11.819,16.758,23.757,21.892A27.8,27.8,0,0,1,453.679,176.07Zm88.407,78.372c-.783-11.666-6.428-22.553-12.939-32.32-4.436-6.645-9.341-13.014-13.7-19.694,3.1,3.071,6.258,6.1,9.284,9.236,6.394,6.634,12.448,14.041,15.527,22.849A42.532,42.532,0,0,1,542.086,254.441Z" transform="translate(-422.162 -137.623)" fill="#2e303d"/>
          <path id="Trazado_215477" data-name="Trazado 215477" d="M439.617,196.9c0,2.513-1.416,4.551-3.162,4.551s-3.161-2.038-3.161-4.551,1.416-4.552,3.161-4.552S439.617,194.39,439.617,196.9Z" transform="translate(-424.329 -148.28)" fill="#2e303d"/>
          <path id="Trazado_215478" data-name="Trazado 215478" d="M459.968,196.093c0,2.514-1.416,4.551-3.161,4.551s-3.162-2.037-3.162-4.551,1.416-4.552,3.162-4.552S459.968,193.579,459.968,196.093Z" transform="translate(-428.293 -148.122)" fill="#2e303d"/>
          <path id="Trazado_215479" data-name="Trazado 215479" d="M438.31,184.949a17.379,17.379,0,0,0-4.679.411,1.624,1.624,0,0,0-1.125,1.981,1.648,1.648,0,0,0,1.982,1.125c.378-.085.762-.147,1.146-.2a15.8,15.8,0,0,1,2.676-.093,1.62,1.62,0,0,0,1.611-1.611A1.646,1.646,0,0,0,438.31,184.949Z" transform="translate(-424.164 -146.834)" fill="#2e303d"/>
          <path id="Trazado_215480" data-name="Trazado 215480" d="M461.631,186.354a1.872,1.872,0,0,0-.962-.74,12.354,12.354,0,0,0-5.8-.822,1.741,1.741,0,0,0-1.139.472,1.611,1.611,0,0,0,1.139,2.749,9.878,9.878,0,0,1,4.946.707,1.616,1.616,0,0,0,1.242-.163,1.61,1.61,0,0,0,.577-2.2Z" transform="translate(-428.217 -146.796)" fill="#2e303d"/>
          <path id="Trazado_215481" data-name="Trazado 215481" d="M462.853,225.952c1.167,2.885.069,6.051-2.452,7.071s-5.512-.491-6.68-3.376-.07-6.052,2.452-7.072S461.685,223.067,462.853,225.952Z" transform="translate(-428.217 -154.104)" fill="#e56b45"/>
          <path id="Trazado_215482" data-name="Trazado 215482" d="M463.067,221.865s2.408,6.885-4.534,9.18c-5.653,1.868-8.029-1.844-8.665-3.116Z" transform="translate(-427.557 -154.027)" fill="#fff"/>
        </g>
        <g id="Grupo_142945" data-name="Grupo 142945" transform="translate(0 96.569)">
          <path id="Trazado_215483" data-name="Trazado 215483" d="M526.306,311.065l.145.048c-2.239,6.949-4.783,13.923-7.352,20.5v.008c-7.94,20.325-16.121,36.905-16.371,37.4-7.843-10.831-22.451-18.022-27.194-20.156-.974-.435-1.53-.66-1.53-.66l-2.988,8.955c.25.234.507.467.749.693l-27.081,3.608V350.3s-.668-1.449-1.659-3.753c-1.353-3.141-3.31-7.875-4.944-12.643-1.8-5.234-3.2-10.509-3.036-13.754.451-8.359,18.763-40.593,18.763-40.593a35.986,35.986,0,0,0,1.055,8.4,5.436,5.436,0,0,1,.54-1.57c.081.346,2.673,11.04,7.513,19.141l10.307-17.571c.427,1.1.846,2.335,1.224,3.688,0,0,11.435-18.489,13.222-30.447.33.306.676.6,1.047.886,7.078,5.4,17.507,2.166,25.841,5.3,7.714,2.9,12.5,11.016,13.754,19.165S527.933,302.98,526.306,311.065Z" transform="translate(-326.254 -258.256)" fill="#fff59d"/>
          <path id="Trazado_215484" data-name="Trazado 215484" d="M535.342,348.655l4.824,42.4H518.439l1.8-3.132c-.395-.636-.821-1.256-1.272-1.868C519.22,385.56,527.4,368.98,535.342,348.655Z" transform="translate(-342.496 -275.287)" fill="#fff59d"/>
          <path id="Trazado_215485" data-name="Trazado 215485" d="M511.43,390.061c.451.612.878,1.232,1.272,1.868l-1.8,3.133-9.091,15.823s-3.2-15.034-21.34-31.993c-.242-.225-.5-.459-.749-.693l2.988-8.955s.556.225,1.53.66C488.98,372.039,503.587,379.23,511.43,390.061Z" transform="translate(-334.956 -279.297)" fill="#fff59d"/>
          <path id="Trazado_215486" data-name="Trazado 215486" d="M478.669,413.218s-20.8.37-78.948-2.988c0,0-13.585,9.406-19.1,8.81s-16.419-10.823-19.109-15.075,4.332-10.6,4.332-10.6.073-3.2,4.477-5.073c1.965-.829,7.352-.717,12.731-.338,6.7.483,13.383,1.385,13.383,1.385l16.178-2.158,17.635-2.351,27.081-3.608C475.472,398.184,478.669,413.218,478.669,413.218Z" transform="translate(-311.818 -281.63)" fill="#ff9971"/>
          <path id="Trazado_215487" data-name="Trazado 215487" d="M495.416,260.476v.008c-1.788,11.958-13.222,30.447-13.222,30.447-.378-1.353-.8-2.585-1.224-3.688-2.762-7.151-6.16-9.293-6.16-9.293l18.183-20.405A16.021,16.021,0,0,0,495.416,260.476Z" transform="translate(-334 -257.545)" fill="#fff"/>
          <path id="Trazado_215488" data-name="Trazado 215488" d="M478.15,292.178l-10.307,17.571c-4.84-8.1-7.433-18.795-7.513-19.141V290.6c1.619-3.269,6.064-6.933,6.064-6.933l.95,11.757,4.646-12.538S475.387,285.027,478.15,292.178Z" transform="translate(-331.18 -262.48)" fill="#d7f2ed"/>
          <path id="Trazado_215489" data-name="Trazado 215489" d="M456.884,347.105h12.562l.5,25.736H451.367l-.378-25.736Zm8.632,14.559V349.577h-10.1v12.087Z" transform="translate(-329.361 -274.985)" fill="#fff"/>
          <rect id="Rectángulo_42203" data-name="Rectángulo 42203" width="10.098" height="12.087" transform="translate(126.057 74.592)" fill="#d84318"/>
          <path id="Trazado_215490" data-name="Trazado 215490" d="M464.1,266.065l1.908,14.326s-4.445,3.664-6.064,6.933v.008a5.437,5.437,0,0,0-.54,1.57,35.986,35.986,0,0,1-1.055-8.4C458.325,275.567,459.428,269.608,464.1,266.065Z" transform="translate(-330.794 -259.204)" fill="#fff"/>
          <path id="Trazado_215491" data-name="Trazado 215491" d="M461.546,342.235l3.1,3.922h-6.337Z" transform="translate(-330.787 -274.037)" fill="#b7b7b7"/>
          <path id="Trazado_215492" data-name="Trazado 215492" d="M443.08,278.534c4.791-11.072,15.244-15.759,15.244-15.759l-.193,2.649c-4.671,3.543-5.774,9.5-5.75,14.438,0,0-18.312,32.235-18.763,40.593-.169,3.245,1.24,8.52,3.036,13.754l-1.1.274-7.859-3.817.25-.507s10-35.448,14.028-48.654A25.437,25.437,0,0,1,443.08,278.534Z" transform="translate(-324.826 -258.563)" fill="#fff59d"/>
          <path id="Trazado_215493" data-name="Trazado 215493" d="M418.379,369.824v11.161l-17.635,2.351-53.673-.111c-9.083,3.906-13.781,4.116-17.291,2.368-1.433.1-6.809.69-8.242.779-.137,1.546-.612,2.923-1.892,2.923-2.907,0-6.152-6.49-6.152-6.49s-.894,6.49-3.809,4.928-2.126-10.452-2.126-10.452-6.6,6.474-7.5,4.034,3.471-14.068,14.326-15.075,35.367,3.358,35.367,3.358l48.614-8.133,18.352,4.606C417.711,368.374,418.379,369.824,418.379,369.824Z" transform="translate(-299.948 -277.782)" fill="#ff9971"/>
          <path id="Trazado_215494" data-name="Trazado 215494" d="M440.46,362.967l-18.352-4.606c-1.127-9.027,1.868-12.836,1.868-12.836l2.585,1.256,8.955,3.543h0C437.15,355.092,439.107,359.827,440.46,362.967Z" transform="translate(-323.688 -274.678)" fill="#fff59d"/>
          <g id="Grupo_142944" data-name="Grupo 142944" transform="translate(62.686 86.679)">
            <path id="Trazado_215495" data-name="Trazado 215495" d="M397.569,366.7a2.7,2.7,0,0,1,.765,3.575c-5.677-.733-7.03-3.318-7.03-3.318a3.441,3.441,0,0,1,2.3-1.772A7.237,7.237,0,0,1,397.569,366.7Z" transform="translate(-380.425 -365.186)" fill="#ed694f"/>
            <path id="Trazado_215496" data-name="Trazado 215496" d="M397.528,370.707l-3.43,5.919a11.545,11.545,0,0,1-6.933-3.64l3.334-5.6S391.851,369.974,397.528,370.707Z" transform="translate(-379.619 -365.615)" fill="#ff9076"/>
            <path id="Trazado_215497" data-name="Trazado 215497" d="M392.273,377.979l-5.347,9.228-9.132-.193,7.545-12.675A11.545,11.545,0,0,0,392.273,377.979Z" transform="translate(-377.794 -366.968)" fill="#d84318"/>
          </g>
          <path id="Trazado_215498" data-name="Trazado 215498" d="M500.924,299.864q-3.316,10.439-6.631,20.878l-6.6,20.782-3.74,11.78c-.157.5.62.707.776.214l6.631-20.879q3.3-10.39,6.6-20.782,1.871-5.89,3.741-11.78C501.857,299.583,501.08,299.371,500.924,299.864Z" transform="translate(-335.776 -265.731)" fill="#2e303d"/>
          <path id="Trazado_215499" data-name="Trazado 215499" d="M535.075,350.028q-6.944,13.81-12.747,28.155-1.634,4.043-3.175,8.121c-.184.486.6.7.776.214q5.43-14.362,12.013-28.25,1.869-3.939,3.829-7.834C536,349.972,535.308,349.564,535.075,350.028Z" transform="translate(-342.629 -275.515)" fill="#2e303d"/>
          <path id="Trazado_215500" data-name="Trazado 215500" d="M452.691,285.107c-3.829,7.1-7.752,14.157-11.469,21.316-3.355,6.458-6.316,13.388-6.29,20.794a22.515,22.515,0,0,0,2.762,11.065.4.4,0,0,0,.7-.406c-3.476-6.122-3.162-13.581-1.16-20.127a62.814,62.814,0,0,1,4.3-10.179c1.754-3.428,3.622-6.8,5.45-10.189l6.4-11.868C453.633,285.057,452.938,284.65,452.691,285.107Z" transform="translate(-326.234 -262.873)" fill="#2e303d"/>
          <path id="Trazado_215501" data-name="Trazado 215501" d="M477.78,295.058q-6.526,14.762-13.052,29.525-1.591,3.6-3.18,7.193a155.588,155.588,0,0,1-2.056-29.707q.121-4.426.494-8.839c.043-.516-.763-.514-.805,0a156.043,156.043,0,0,0,.533,31.421q.509,4.278,1.25,8.524a.406.406,0,0,0,.047.2.312.312,0,0,0,.246.222.318.318,0,0,0,.438-.176l.009-.02a.381.381,0,0,0,.057-.129L474.746,303.9q1.864-4.218,3.729-8.435C478.683,294.994,477.989,294.584,477.78,295.058Z" transform="translate(-330.849 -264.419)" fill="#2e303d"/>
          <path id="Trazado_215502" data-name="Trazado 215502" d="M442.078,385.943l-17.126,1.679c-.511.05-.516.856,0,.805l17.126-1.679C442.59,386.7,442.595,385.893,442.078,385.943Z" transform="translate(-324.216 -282.548)" fill="#2e303d"/>
          <path id="Trazado_215503" data-name="Trazado 215503" d="M342.7,385.907a69.293,69.293,0,0,1-14.778,2.976q-.864.077-1.728.132a5.54,5.54,0,0,1-1.465-.011c-.367-.076-.777-.252-.752-.695.031-.549.73-1.063,1.093-1.406a43.772,43.772,0,0,1,5.3-4.29,44.9,44.9,0,0,1,6.7-3.8c.47-.216.061-.91-.407-.695a45.057,45.057,0,0,0-12.353,8.4c-.677.65-1.564,1.613-.914,2.591a2.47,2.47,0,0,0,2.221.75,63.226,63.226,0,0,0,8.139-.931,70.038,70.038,0,0,0,9.159-2.241C343.411,386.527,343.2,385.75,342.7,385.907Z" transform="translate(-304.471 -281.016)" fill="#2e303d"/>
          <path id="Trazado_215504" data-name="Trazado 215504" d="M316.887,385.082a19.327,19.327,0,0,1-.039-10.9.4.4,0,0,0-.776-.214,20.123,20.123,0,0,0,.039,11.332A.4.4,0,0,0,316.887,385.082Z" transform="translate(-302.933 -280.161)" fill="#2e303d"/>
          <path id="Trazado_215505" data-name="Trazado 215505" d="M312.659,372.67a.412.412,0,0,0-.551.144,15.78,15.78,0,0,0-2.973,6.688c-.094.507.681.724.776.214a15.26,15.26,0,0,1,2.892-6.5A.4.4,0,0,0,312.659,372.67Z" transform="translate(-301.736 -279.953)" fill="#2e303d"/>
          <path id="Trazado_215506" data-name="Trazado 215506" d="M465.848,283.8a80.654,80.654,0,0,0-6.54,7.313c-.318.4.248.976.569.57a80.673,80.673,0,0,1,6.54-7.313A.4.4,0,0,0,465.848,283.8Z" transform="translate(-330.963 -262.634)" fill="#2e303d"/>
          <path id="Trazado_215507" data-name="Trazado 215507" d="M482.293,294.943a32.617,32.617,0,0,0-6.933-12.422c-.345-.387-.914.184-.569.569a31.691,31.691,0,0,1,6.726,12.066A.4.4,0,0,0,482.293,294.943Z" transform="translate(-333.975 -262.384)" fill="#2e303d"/>
          <path id="Trazado_215508" data-name="Trazado 215508" d="M469.641,299.2c-.022-.516-.827-.519-.805,0q.23,5.353.458,10.708c.022.516.827.519.805,0Q469.87,304.549,469.641,299.2Z" transform="translate(-332.836 -265.58)" fill="#2e303d"/>
          <path id="Trazado_215509" data-name="Trazado 215509" d="M472.968,301.7a1.074,1.074,0,0,0-1.3-.523,1.239,1.239,0,0,0-.387.248.308.308,0,0,0-.043.031c-.023.027-.034.06-.055.089a.9.9,0,0,0-.114.139c-.015.028-.015.061-.028.092s-.015.054-.024.081a1.073,1.073,0,0,0-.058.3c0,.011-.006.022-.006.033,0,.029.014.055.015.084a1.078,1.078,0,0,0,.016.2c.007.026.026.046.035.071a.986.986,0,0,0,.065.134,1.062,1.062,0,0,0,.126.2c.011.014.016.032.028.045a.881.881,0,0,0,.1.072.988.988,0,0,0,.117.108c.018.011.041.011.06.021a1.032,1.032,0,0,0,.163.059,1.1,1.1,0,0,0,.2.06,1.006,1.006,0,0,0,.728-.159,1.137,1.137,0,0,0,.441-.617A1.067,1.067,0,0,0,472.968,301.7Z" transform="translate(-333.249 -266.029)" fill="#2e303d"/>
        </g>
      </g>
      <g id="Grupo_142947" data-name="Grupo 142947" transform="translate(151.219 182.795)">
        <path id="Trazado_215510" data-name="Trazado 215510" d="M209.35,380.687,206.958,400.4l41.189-2.537v8.214l-59.992,6.716L171.889,400.4l18.553-43.911,6.668-15.783,16.564,4.332L211.6,362.2Z" transform="translate(-155.244 -231.689)" fill="#1b3f5e"/>
        <path id="Trazado_215511" data-name="Trazado 215511" d="M242.816,205.325l27.838,145.061H258.712L230.729,205.325Z" transform="translate(-166.702 -205.325)" fill="#afafaf"/>
        <path id="Trazado_215512" data-name="Trazado 215512" d="M256.628,407.532l-41.189,2.537,2.392-19.713Z" transform="translate(-163.725 -241.357)" fill="#b7b7b7"/>
        <path id="Trazado_215513" data-name="Trazado 215513" d="M215.245,205.325l27.983,145.061-35.657-14.551,2.078-17.16-16.564-4.332-6.668,15.783-2.955-1.256L151.219,205.325Z" transform="translate(-151.219 -205.325)" fill="#1b3f5e"/>
        <path id="Trazado_215514" data-name="Trazado 215514" d="M252.865,318.247q-2.317-13.623-4.754-27.224-2.45-13.67-5.022-27.317-2.56-13.579-5.241-27.135t-5.482-27.088q-.35-1.692-.7-3.383c-.105-.507-.882-.292-.776.214Q233.7,219.843,236.4,233.4t5.271,27.13q2.587,13.643,5.052,27.311,2.453,13.6,4.784,27.219t4.541,27.261q.277,1.706.551,3.41c.082.511.858.294.776-.214Q255.18,331.87,252.865,318.247Z" transform="translate(-166.731 -205.42)" fill="#2e303d"/>
        <path id="Trazado_215515" data-name="Trazado 215515" d="M212.576,345.588q-3.674,13.1-7.645,26.112-3.958,12.963-8.211,25.835-2.4,7.281-4.9,14.53c-.169.491.609.7.776.214q4.434-12.862,8.574-25.822,4.124-12.911,7.952-25.916,2.166-7.356,4.237-14.74A.4.4,0,0,0,212.576,345.588Z" transform="translate(-159.119 -232.584)" fill="#2e303d"/>
      </g>
    </g>
  </g>
</svg>
