<svg xmlns="http://www.w3.org/2000/svg" width="773.258" height="559.51" viewBox="0 0 773.258 559.51">
  <g id="Grupo_145094" data-name="Grupo 145094" transform="translate(-390 -2093.327)">
    <g id="Grupo_144003" data-name="Grupo 144003" transform="translate(522.928 2110.123)">
      <path id="Trazado_217000" data-name="Trazado 217000" d="M612.733,725.252a265.659,265.659,0,1,1,187.852-77.81A263.924,263.924,0,0,1,612.733,725.252Zm0-504.923c-131.928,0-239.261,107.332-239.261,239.261S480.805,698.851,612.733,698.851,851.994,591.519,851.994,459.59,744.662,220.329,612.733,220.329Z" transform="translate(-347.071 -193.928)" fill="#fff59d"/>
    </g>
    <g id="Grupo_145023" data-name="Grupo 145023" transform="translate(-39.258 -2.673)">
      <rect id="Rectángulo_42872" data-name="Rectángulo 42872" width="248.258" height="80.673" rx="6" transform="translate(677 2096)" fill="#1b3f5e"/>
      <text id="Documento_de_requerimientos_términos_de_referencia" data-name="Documento 
de requerimientos/términos
de referencia" transform="translate(801 2123)" fill="#fff" font-size="17" font-family="Roboto-Bold, Roboto" font-weight="700"><tspan x="-45.903" y="0">Documento </tspan><tspan x="-106.806" y="20">de requerimientos/términos</tspan><tspan x="-50.278" y="40">de referencia</tspan></text>
    </g>
    <g id="Grupo_145024" data-name="Grupo 145024" transform="translate(-85.258 79.039)">
      <rect id="Rectángulo_42872-2" data-name="Rectángulo 42872" width="248.258" height="80.673" rx="6" transform="translate(962 2125)" fill="#1b3f5e"/>
      <text id="Comité_de_compras:_Evaluación" data-name="Comité de compras:
Evaluación" transform="translate(1086 2162)" fill="#fff" font-size="17" font-family="Roboto-Bold, Roboto" font-weight="700"><tspan x="-76.749" y="0">Comité de compras:</tspan><tspan x="-41.284" y="20">Evaluación</tspan></text>
    </g>
    <g id="Grupo_145021" data-name="Grupo 145021" transform="translate(-46 -13.836)">
      <rect id="Rectángulo_42873" data-name="Rectángulo 42873" width="248.258" height="80.673" rx="6" transform="translate(626 2586)" fill="#1b3f5e"/>
      <text id="Proceso_de_entrega" data-name="Proceso 
de entrega" transform="translate(750 2623)" fill="#fff" font-size="17" font-family="Roboto-Bold, Roboto" font-weight="700"><tspan x="-33.56" y="0">Proceso </tspan><tspan x="-40.753" y="20">de entrega</tspan></text>
    </g>
    <g id="Grupo_145022" data-name="Grupo 145022" transform="translate(-47 89.752)">
      <rect id="Rectángulo_42874" data-name="Rectángulo 42874" width="248.258" height="80.673" rx="6" transform="translate(962 2252)" fill="#1b3f5e"/>
      <text id="Negociación" transform="translate(1086 2299)" fill="#fff" font-size="17" font-family="Roboto-Bold, Roboto" font-weight="700"><tspan x="-47.75" y="0">Negociación</tspan></text>
    </g>
    <g id="Grupo_145025" data-name="Grupo 145025">
      <rect id="Rectángulo_42875" data-name="Rectángulo 42875" width="248.258" height="80.673" rx="6" transform="translate(392 2244.375)" fill="#1b3f5e"/>
      <text id="Proceso_de_facturación" data-name="Proceso 
de facturación" transform="translate(516 2280.375)" fill="#fff" font-size="17" font-family="Roboto-Bold, Roboto" font-weight="700"><tspan x="-33.56" y="0">Proceso </tspan><tspan x="-54.951" y="20">de facturación</tspan></text>
    </g>
    <g id="Grupo_145020" data-name="Grupo 145020" transform="translate(-65.258 66.849)">
      <rect id="Rectángulo_42876" data-name="Rectángulo 42876" width="248.258" height="80.673" rx="6" transform="translate(922 2457)" fill="#1b3f5e"/>
      <text id="Contratación" transform="translate(1046 2503)" fill="#fff" font-size="17" font-family="Roboto-Bold, Roboto" font-weight="700"><tspan x="-49.215" y="0">Contratación</tspan></text>
    </g>
    <g id="Grupo_145026" data-name="Grupo 145026" transform="translate(0 -31.911)">
      <rect id="Rectángulo_42877" data-name="Rectángulo 42877" width="248.258" height="80.673" rx="6" transform="translate(390 2414)" fill="#1b3f5e"/>
      <text id="Proceso_de_recepción" data-name="Proceso 
de recepción" transform="translate(514 2451)" fill="#fff" font-size="17" font-family="Roboto-Bold, Roboto" font-weight="700"><tspan x="-33.56" y="0">Proceso </tspan><tspan x="-49.182" y="20">de recepción</tspan></text>
    </g>
    <path id="Trazado_217001" data-name="Trazado 217001" d="M766.4,290.22H698.5l67.9-67.9Z" transform="matrix(0.978, -0.208, 0.208, 0.978, 145.275, 2052.003)" fill="#fff59d"/>
    <path id="Trazado_217002" data-name="Trazado 217002" d="M47.463,48.554,0,0,96.017,1.091Z" transform="matrix(0.951, 0.309, -0.309, 0.951, 976.902, 2456.49)" fill="#fff59d"/>
    <path id="Trazado_217003" data-name="Trazado 217003" d="M398.267,567.056l66.514,13.64L384.627,633.57Z" transform="translate(166.934 1936.117)" fill="#fff59d"/>
    <path id="Trazado_217005" data-name="Trazado 217005" d="M463.468,236.642l.281,67.9-68.179-67.616Z" transform="translate(161.979 1939.835)" fill="#fff59d"/>
  </g>
</svg>
