<svg xmlns="http://www.w3.org/2000/svg" width="1240.25" height="237.006" viewBox="0 0 1240.25 237.006">
  <g id="Grupo_145092" data-name="Grupo 145092" transform="translate(-16499 12367.991)">
    <g id="Grupo_145090" data-name="Grupo 145090" transform="translate(16499 -12224.669)">
      <path id="Trazado_114972" data-name="Trazado 114972" d="M20.455,93.684H.864S.155,74.838.341,75s-.175,0-.175,0L13.414,46.842,0,18.333H.341L.181,0H20.455l22.04,46.842Z" transform="translate(0 0)" fill="#fffcdd"/>
      <path id="Trazado_114973" data-name="Trazado 114973" d="M29.081,93.684H0L22.04,46.842,0,0H29.081l22.04,46.842Z" transform="translate(42.495)" fill="#fffcdd"/>
      <path id="Trazado_114974" data-name="Trazado 114974" d="M29.081,93.684H0L22.04,46.842,0,0H29.081l22.04,46.842Z" transform="translate(93.616)" fill="#fffcdd"/>
      <path id="Trazado_114975" data-name="Trazado 114975" d="M29.081,93.684H0L22.04,46.842,0,0H29.081l22.04,46.842Z" transform="translate(144.737)" fill="#fffcdd"/>
      <path id="Trazado_114976" data-name="Trazado 114976" d="M29.081,93.684H0L22.04,46.842,0,0H29.081l22.04,46.842Z" transform="translate(195.857)" fill="#fffcdd"/>
      <path id="Trazado_114977" data-name="Trazado 114977" d="M29.081,93.684H0L22.04,46.842,0,0H29.081l22.04,46.842Z" transform="translate(246.978)" fill="#fffcdd"/>
      <path id="Trazado_114978" data-name="Trazado 114978" d="M29.082,93.684H0L22.04,46.842,0,0H29.082l22.04,46.842Z" transform="translate(298.099 0)" fill="#fffcdd"/>
      <path id="Trazado_114979" data-name="Trazado 114979" d="M29.081,93.684H0L22.04,46.842,0,0H29.081l22.04,46.842Z" transform="translate(349.22 0)" fill="#fffcdd"/>
    </g>
    <g id="Grupo_145091" data-name="Grupo 145091" transform="translate(17338.91 -12367.991)">
      <path id="Trazado_114972-2" data-name="Trazado 114972" d="M22.04,93.684H41.631S42.34,74.838,42.154,75s.175,0,.175,0L29.081,46.842,42.495,18.333h-.341L42.314,0H22.04L0,46.842Z" transform="translate(357.846 0)" fill="#fffcdd"/>
      <path id="Trazado_114973-2" data-name="Trazado 114973" d="M22.04,93.684H51.12L29.081,46.842,51.121,0H22.04L0,46.842Z" transform="translate(306.725 0)" fill="#fffcdd"/>
      <path id="Trazado_114974-2" data-name="Trazado 114974" d="M22.04,93.684H51.121L29.081,46.842,51.121,0H22.04L0,46.842Z" transform="translate(255.604 0)" fill="#fffcdd"/>
      <path id="Trazado_114975-2" data-name="Trazado 114975" d="M22.04,93.684H51.121L29.081,46.842,51.121,0H22.04L0,46.842Z" transform="translate(204.483 0)" fill="#fffcdd"/>
      <path id="Trazado_114976-2" data-name="Trazado 114976" d="M22.04,93.684H51.121L29.081,46.842,51.121,0H22.04L0,46.842Z" transform="translate(153.363 0)" fill="#fffcdd"/>
      <path id="Trazado_114977-2" data-name="Trazado 114977" d="M22.04,93.684H51.121L29.081,46.842,51.121,0H22.04L0,46.842Z" transform="translate(102.242 0)" fill="#fffcdd"/>
      <path id="Trazado_114978-2" data-name="Trazado 114978" d="M22.04,93.684H51.122L29.082,46.842,51.122,0H22.04L0,46.842Z" transform="translate(51.12 0)" fill="#fffcdd"/>
      <path id="Trazado_114979-2" data-name="Trazado 114979" d="M22.04,93.684H51.121L29.081,46.842,51.121,0H22.04L0,46.842Z" transform="translate(0 0)" fill="#fffcdd"/>
    </g>
  </g>
</svg>
