<svg xmlns="http://www.w3.org/2000/svg" width="122.767" height="122.767" viewBox="0 0 122.767 122.767">
  <g id="Grupo_145096" data-name="Grupo 145096" transform="translate(-517.001 -1137.493)">
    <g id="Grupo_144501" data-name="Grupo 144501" transform="translate(523 1143.492)">
      <ellipse id="Elipse_5577" data-name="Elipse 5577" cx="55.384" cy="55.384" rx="55.384" ry="55.384" transform="translate(0.001 0)" fill="#1b3f5e" stroke="#fff59d" stroke-miterlimit="10" stroke-width="12"/>
      <g id="Grupo_144500" data-name="Grupo 144500" transform="translate(19.625 38.583)">
        <path id="Trazado_217510" data-name="Trazado 217510" d="M365.367,391.871c-15.264,0-28.587,10.266-35.76,18.1,7.172,7.832,21.661,17.445,36.924,17.445s27.422-9.613,34.594-17.445C393.953,402.137,380.63,391.871,365.367,391.871Zm0,29.5a12.643,12.643,0,1,1,12.643-12.643A12.643,12.643,0,0,1,365.367,421.372Z" transform="translate(-329.607 -391.871)" fill="#fff"/>
        <ellipse id="Elipse_5578" data-name="Elipse 5578" cx="8.538" cy="8.538" rx="8.538" ry="8.538" transform="translate(27.221 8.32)" fill="#fff"/>
      </g>
    </g>
  </g>
</svg>
