<svg xmlns="http://www.w3.org/2000/svg" width="294.999" height="211.358" viewBox="0 0 294.999 211.358">
  <g id="Grupo_144887" data-name="Grupo 144887" transform="translate(-274.874 -198.989)">
    <g id="Grupo_144835" data-name="Grupo 144835" transform="translate(274.874 198.989)">
      <g id="Grupo_144724" data-name="Grupo 144724" transform="translate(89.915)">
        <g id="Grupo_144719" data-name="Grupo 144719">
          <g id="Grupo_144666" data-name="Grupo 144666">
            <g id="Grupo_144522" data-name="Grupo 144522">
              <g id="Grupo_144521" data-name="Grupo 144521">
                <g id="Grupo_144520" data-name="Grupo 144520">
                  <path id="Trazado_217518" data-name="Trazado 217518" d="M554.974,204.477c-5.878-1.8-12,3.463-18.037,2.282-3.663-.718-6.429-3.644-9.688-5.465-4.873-2.722-11.764-3.161-16.742-.635s-8.184,5.226-8.863,10.766c-4.53-2.6-12.088,3.1-14.662,8.6s-1.928,11.19-.467,17.086a80.167,80.167,0,0,0,13.257,28.215c.55.745,1.428,1.57,2.266,1.176a2.023,2.023,0,0,0,.872-1.625c.866-5.392.182-10.895-.284-16.336s-.7-11.051,1.022-16.235,5.774-9.912,11.132-10.971c3.958-.782,8.068.506,11.586,2.481s6.609,4.617,9.959,6.865,7.111,4.143,11.141,4.318,8.353-1.725,10.07-5.376-.209-8.836-4.155-9.673a7.929,7.929,0,0,0,1.593-15.478Z" transform="translate(-485.236 -198.989)"/>
                </g>
              </g>
            </g>
            <g id="Grupo_144637" data-name="Grupo 144637" transform="translate(9.456 7.737)">
              <g id="Grupo_144636" data-name="Grupo 144636">
                <g id="Grupo_144635" data-name="Grupo 144635">
                  <g id="Grupo_144547" data-name="Grupo 144547">
                    <g id="Grupo_144546" data-name="Grupo 144546">
                      <g id="Grupo_144545" data-name="Grupo 144545">
                        <g id="Grupo_144533" data-name="Grupo 144533">
                          <g id="Grupo_144532" data-name="Grupo 144532">
                            <g id="Grupo_144531" data-name="Grupo 144531">
                              <g id="Grupo_144530" data-name="Grupo 144530">
                                <g id="Grupo_144529" data-name="Grupo 144529">
                                  <g id="Grupo_144528" data-name="Grupo 144528">
                                    <g id="Grupo_144527" data-name="Grupo 144527">
                                      <g id="Grupo_144526" data-name="Grupo 144526">
                                        <g id="Grupo_144525" data-name="Grupo 144525">
                                          <g id="Grupo_144524" data-name="Grupo 144524">
                                            <g id="Grupo_144523" data-name="Grupo 144523">
                                              <path id="Trazado_217519" data-name="Trazado 217519" d="M549.511,309.376l-.57-11.669s15.379-2.947,15.027-18.414c-.17-7.469-1.77-22.818-3.38-36.7a28.828,28.828,0,0,0-29.646-25.491l-1.492.052c-16.052,1.5-23.742,15.977-21.795,31.981l3.7,62.3a19.105,19.105,0,0,0,20.082,17.945h0A19.105,19.105,0,0,0,549.511,309.376Z" transform="translate(-507.36 -217.089)" fill="#ffbf9d"/>
                                            </g>
                                          </g>
                                        </g>
                                      </g>
                                    </g>
                                  </g>
                                </g>
                              </g>
                            </g>
                          </g>
                        </g>
                        <g id="Grupo_144544" data-name="Grupo 144544" transform="translate(21.244 75.586)">
                          <g id="Grupo_144543" data-name="Grupo 144543">
                            <g id="Grupo_144542" data-name="Grupo 144542">
                              <g id="Grupo_144541" data-name="Grupo 144541">
                                <g id="Grupo_144540" data-name="Grupo 144540">
                                  <g id="Grupo_144539" data-name="Grupo 144539">
                                    <g id="Grupo_144538" data-name="Grupo 144538">
                                      <g id="Grupo_144537" data-name="Grupo 144537">
                                        <g id="Grupo_144536" data-name="Grupo 144536">
                                          <g id="Grupo_144535" data-name="Grupo 144535">
                                            <g id="Grupo_144534" data-name="Grupo 144534">
                                              <path id="Trazado_217520" data-name="Trazado 217520" d="M577.417,398.948a35.974,35.974,0,0,1-20.356-5.021s5.154,10.959,20.533,9.026Z" transform="translate(-557.061 -393.927)" fill="#ff9a6c"/>
                                            </g>
                                          </g>
                                        </g>
                                      </g>
                                    </g>
                                  </g>
                                </g>
                              </g>
                            </g>
                          </g>
                        </g>
                      </g>
                    </g>
                  </g>
                  <g id="Grupo_144634" data-name="Grupo 144634" transform="translate(16.194 26.665)">
                    <g id="Grupo_144633" data-name="Grupo 144633">
                      <g id="Grupo_144610" data-name="Grupo 144610" transform="translate(1.907 4.367)">
                        <g id="Grupo_144609" data-name="Grupo 144609">
                          <g id="Grupo_144608" data-name="Grupo 144608">
                            <g id="Grupo_144571" data-name="Grupo 144571" transform="translate(22.324)">
                              <g id="Grupo_144558" data-name="Grupo 144558" transform="translate(1.918 4.757)">
                                <g id="Grupo_144557" data-name="Grupo 144557">
                                  <g id="Grupo_144556" data-name="Grupo 144556">
                                    <g id="Grupo_144555" data-name="Grupo 144555">
                                      <g id="Grupo_144554" data-name="Grupo 144554">
                                        <g id="Grupo_144553" data-name="Grupo 144553">
                                          <g id="Grupo_144552" data-name="Grupo 144552">
                                            <g id="Grupo_144551" data-name="Grupo 144551">
                                              <g id="Grupo_144550" data-name="Grupo 144550">
                                                <g id="Grupo_144549" data-name="Grupo 144549">
                                                  <g id="Grupo_144548" data-name="Grupo 144548">
                                                    <path id="Trazado_217521" data-name="Trazado 217521" d="M610.823,302.741a2.209,2.209,0,0,1-2.05,2.3,2.113,2.113,0,0,1-2.346-1.911,2.209,2.209,0,0,1,2.048-2.3A2.114,2.114,0,0,1,610.823,302.741Z" transform="translate(-606.422 -300.819)" fill="#1a2e35"/>
                                                  </g>
                                                </g>
                                              </g>
                                            </g>
                                          </g>
                                        </g>
                                      </g>
                                    </g>
                                  </g>
                                </g>
                              </g>
                              <g id="Grupo_144570" data-name="Grupo 144570">
                                <g id="Grupo_144569" data-name="Grupo 144569">
                                  <g id="Grupo_144568" data-name="Grupo 144568">
                                    <g id="Grupo_144567" data-name="Grupo 144567">
                                      <g id="Grupo_144566" data-name="Grupo 144566">
                                        <g id="Grupo_144565" data-name="Grupo 144565">
                                          <g id="Grupo_144564" data-name="Grupo 144564">
                                            <g id="Grupo_144563" data-name="Grupo 144563">
                                              <g id="Grupo_144562" data-name="Grupo 144562">
                                                <g id="Grupo_144561" data-name="Grupo 144561">
                                                  <g id="Grupo_144560" data-name="Grupo 144560">
                                                    <g id="Grupo_144559" data-name="Grupo 144559">
                                                      <path id="Trazado_217522" data-name="Trazado 217522" d="M610.667,291.863c-.264.3-1.979-.882-4.355-.792-2.374.056-4.075,1.339-4.343,1.057-.131-.124.13-.654.869-1.233a6.058,6.058,0,0,1,3.464-1.2,5.821,5.821,0,0,1,3.479.99C610.531,291.217,610.8,291.729,610.667,291.863Z" transform="translate(-601.936 -289.69)" fill="#1a2e35"/>
                                                    </g>
                                                  </g>
                                                </g>
                                              </g>
                                            </g>
                                          </g>
                                        </g>
                                      </g>
                                    </g>
                                  </g>
                                </g>
                              </g>
                            </g>
                            <g id="Grupo_144595" data-name="Grupo 144595" transform="translate(0 1.239)">
                              <g id="Grupo_144582" data-name="Grupo 144582" transform="translate(1.576 4.954)">
                                <g id="Grupo_144581" data-name="Grupo 144581">
                                  <g id="Grupo_144580" data-name="Grupo 144580">
                                    <g id="Grupo_144579" data-name="Grupo 144579">
                                      <g id="Grupo_144578" data-name="Grupo 144578">
                                        <g id="Grupo_144577" data-name="Grupo 144577">
                                          <g id="Grupo_144576" data-name="Grupo 144576">
                                            <g id="Grupo_144575" data-name="Grupo 144575">
                                              <g id="Grupo_144574" data-name="Grupo 144574">
                                                <g id="Grupo_144573" data-name="Grupo 144573">
                                                  <g id="Grupo_144572" data-name="Grupo 144572">
                                                    <path id="Trazado_217523" data-name="Trazado 217523" d="M557.8,306.1a2.209,2.209,0,0,1-2.051,2.3,2.112,2.112,0,0,1-2.346-1.911,2.211,2.211,0,0,1,2.049-2.3A2.114,2.114,0,0,1,557.8,306.1Z" transform="translate(-553.395 -304.18)" fill="#1a2e35"/>
                                                  </g>
                                                </g>
                                              </g>
                                            </g>
                                          </g>
                                        </g>
                                      </g>
                                    </g>
                                  </g>
                                </g>
                              </g>
                              <g id="Grupo_144594" data-name="Grupo 144594">
                                <g id="Grupo_144593" data-name="Grupo 144593">
                                  <g id="Grupo_144592" data-name="Grupo 144592">
                                    <g id="Grupo_144591" data-name="Grupo 144591">
                                      <g id="Grupo_144590" data-name="Grupo 144590">
                                        <g id="Grupo_144589" data-name="Grupo 144589">
                                          <g id="Grupo_144588" data-name="Grupo 144588">
                                            <g id="Grupo_144587" data-name="Grupo 144587">
                                              <g id="Grupo_144586" data-name="Grupo 144586">
                                                <g id="Grupo_144585" data-name="Grupo 144585">
                                                  <g id="Grupo_144584" data-name="Grupo 144584">
                                                    <g id="Grupo_144583" data-name="Grupo 144583">
                                                      <path id="Trazado_217524" data-name="Trazado 217524" d="M558.44,294.762c-.264.3-1.982-.881-4.356-.792-2.374.056-4.075,1.339-4.343,1.057-.131-.124.127-.654.87-1.233a6.061,6.061,0,0,1,3.464-1.2,5.831,5.831,0,0,1,3.48.99C558.3,294.117,558.569,294.629,558.44,294.762Z" transform="translate(-549.708 -292.589)" fill="#1a2e35"/>
                                                    </g>
                                                  </g>
                                                </g>
                                              </g>
                                            </g>
                                          </g>
                                        </g>
                                      </g>
                                    </g>
                                  </g>
                                </g>
                              </g>
                            </g>
                            <g id="Grupo_144607" data-name="Grupo 144607" transform="translate(16.168 0.971)">
                              <g id="Grupo_144606" data-name="Grupo 144606">
                                <g id="Grupo_144605" data-name="Grupo 144605">
                                  <g id="Grupo_144604" data-name="Grupo 144604">
                                    <g id="Grupo_144603" data-name="Grupo 144603">
                                      <g id="Grupo_144602" data-name="Grupo 144602">
                                        <g id="Grupo_144601" data-name="Grupo 144601">
                                          <g id="Grupo_144600" data-name="Grupo 144600">
                                            <g id="Grupo_144599" data-name="Grupo 144599">
                                              <g id="Grupo_144598" data-name="Grupo 144598">
                                                <g id="Grupo_144597" data-name="Grupo 144597">
                                                  <g id="Grupo_144596" data-name="Grupo 144596">
                                                    <path id="Trazado_217525" data-name="Trazado 217525" d="M589.338,311.72a15.7,15.7,0,0,1,3.834-.831c.6-.084,1.175-.225,1.262-.642a3.092,3.092,0,0,0-.468-1.784q-.933-2.172-1.956-4.557c-2.723-6.49-4.715-11.835-4.453-11.942s2.682,5.066,5.4,11.556q.985,2.4,1.882,4.587a3.515,3.515,0,0,1,.4,2.37,1.524,1.524,0,0,1-.966.922,4.137,4.137,0,0,1-1.025.18C590.845,311.791,589.352,311.854,589.338,311.72Z" transform="translate(-587.534 -291.961)" fill="#1a2e35"/>
                                                  </g>
                                                </g>
                                              </g>
                                            </g>
                                          </g>
                                        </g>
                                      </g>
                                    </g>
                                  </g>
                                </g>
                              </g>
                            </g>
                          </g>
                        </g>
                      </g>
                      <g id="Grupo_144621" data-name="Grupo 144621" transform="translate(0 1.103)">
                        <g id="Grupo_144620" data-name="Grupo 144620">
                          <g id="Grupo_144619" data-name="Grupo 144619">
                            <g id="Grupo_144618" data-name="Grupo 144618">
                              <g id="Grupo_144617" data-name="Grupo 144617">
                                <g id="Grupo_144616" data-name="Grupo 144616">
                                  <g id="Grupo_144615" data-name="Grupo 144615">
                                    <g id="Grupo_144614" data-name="Grupo 144614">
                                      <g id="Grupo_144613" data-name="Grupo 144613">
                                        <g id="Grupo_144612" data-name="Grupo 144612">
                                          <g id="Grupo_144611" data-name="Grupo 144611">
                                            <path id="Trazado_217526" data-name="Trazado 217526" d="M556.084,283.786c-.227.649-2.6.369-5.389.736-2.793.311-5.033,1.152-5.409.577-.168-.276.217-.888,1.12-1.524a9.455,9.455,0,0,1,8.226-1C555.66,282.976,556.182,283.478,556.084,283.786Z" transform="translate(-545.247 -282.054)" fill="#1a2e35"/>
                                          </g>
                                        </g>
                                      </g>
                                    </g>
                                  </g>
                                </g>
                              </g>
                            </g>
                          </g>
                        </g>
                      </g>
                      <g id="Grupo_144632" data-name="Grupo 144632" transform="translate(25.401)">
                        <g id="Grupo_144631" data-name="Grupo 144631">
                          <g id="Grupo_144630" data-name="Grupo 144630">
                            <g id="Grupo_144629" data-name="Grupo 144629">
                              <g id="Grupo_144628" data-name="Grupo 144628">
                                <g id="Grupo_144627" data-name="Grupo 144627">
                                  <g id="Grupo_144626" data-name="Grupo 144626">
                                    <g id="Grupo_144625" data-name="Grupo 144625">
                                      <g id="Grupo_144624" data-name="Grupo 144624">
                                        <g id="Grupo_144623" data-name="Grupo 144623">
                                          <g id="Grupo_144622" data-name="Grupo 144622">
                                            <path id="Trazado_217527" data-name="Trazado 217527" d="M612.665,282.452c-.479.487-2.039-.264-3.991-.524-1.943-.328-3.654-.071-3.968-.677-.135-.292.19-.8.974-1.219a5.83,5.83,0,0,1,6.414.968C612.718,281.633,612.879,282.213,612.665,282.452Z" transform="translate(-604.676 -279.474)" fill="#1a2e35"/>
                                          </g>
                                        </g>
                                      </g>
                                    </g>
                                  </g>
                                </g>
                              </g>
                            </g>
                          </g>
                        </g>
                      </g>
                    </g>
                  </g>
                </g>
              </g>
            </g>
            <g id="Grupo_144661" data-name="Grupo 144661" transform="translate(1.358 50.817)">
              <g id="Grupo_144648" data-name="Grupo 144648">
                <g id="Grupo_144647" data-name="Grupo 144647">
                  <g id="Grupo_144646" data-name="Grupo 144646">
                    <g id="Grupo_144645" data-name="Grupo 144645">
                      <g id="Grupo_144644" data-name="Grupo 144644">
                        <g id="Grupo_144643" data-name="Grupo 144643">
                          <g id="Grupo_144642" data-name="Grupo 144642">
                            <g id="Grupo_144641" data-name="Grupo 144641">
                              <g id="Grupo_144640" data-name="Grupo 144640">
                                <g id="Grupo_144639" data-name="Grupo 144639">
                                  <g id="Grupo_144638" data-name="Grupo 144638">
                                    <path id="Trazado_217528" data-name="Trazado 217528" d="M498.471,318.253c-.268-.1-10.733-2.769-10.024,7.789s11.162,7.668,11.16,7.365S498.471,318.253,498.471,318.253Z" transform="translate(-488.413 -317.878)" fill="#ffbf9d"/>
                                  </g>
                                </g>
                              </g>
                            </g>
                          </g>
                        </g>
                      </g>
                    </g>
                  </g>
                </g>
              </g>
              <g id="Grupo_144660" data-name="Grupo 144660" transform="translate(2.709 3.521)">
                <g id="Grupo_144659" data-name="Grupo 144659">
                  <g id="Grupo_144658" data-name="Grupo 144658">
                    <g id="Grupo_144657" data-name="Grupo 144657">
                      <g id="Grupo_144656" data-name="Grupo 144656">
                        <g id="Grupo_144655" data-name="Grupo 144655">
                          <g id="Grupo_144654" data-name="Grupo 144654">
                            <g id="Grupo_144653" data-name="Grupo 144653">
                              <g id="Grupo_144652" data-name="Grupo 144652">
                                <g id="Grupo_144651" data-name="Grupo 144651">
                                  <g id="Grupo_144650" data-name="Grupo 144650">
                                    <g id="Grupo_144649" data-name="Grupo 144649">
                                      <path id="Trazado_217529" data-name="Trazado 217529" d="M499.742,334.339c-.049-.03-.175.141-.477.3a1.845,1.845,0,0,1-1.373.12c-1.143-.334-2.2-2.042-2.38-3.942a6.088,6.088,0,0,1,.338-2.668,2.13,2.13,0,0,1,1.289-1.5.938.938,0,0,1,1.119.431c.162.286.109.5.166.515.031.024.215-.192.1-.623a1.176,1.176,0,0,0-.46-.633,1.39,1.39,0,0,0-1.035-.2,2.59,2.59,0,0,0-1.811,1.766,6.249,6.249,0,0,0-.44,2.986c.21,2.123,1.433,4.04,2.989,4.379a1.974,1.974,0,0,0,1.664-.392C499.74,334.595,499.78,334.355,499.742,334.339Z" transform="translate(-494.75 -326.115)" fill="#ff9a6c"/>
                                    </g>
                                  </g>
                                </g>
                              </g>
                            </g>
                          </g>
                        </g>
                      </g>
                    </g>
                  </g>
                </g>
              </g>
            </g>
            <g id="Grupo_144665" data-name="Grupo 144665" transform="translate(7.732 5.113)">
              <g id="Grupo_144664" data-name="Grupo 144664">
                <g id="Grupo_144663" data-name="Grupo 144663">
                  <g id="Grupo_144662" data-name="Grupo 144662">
                    <path id="Trazado_217530" data-name="Trazado 217530" d="M561.437,235.728a22.342,22.342,0,0,1-19.992-3.772c-3.872-3.057-6.935-7.539-11.7-8.825a12.569,12.569,0,0,0-9.557,1.65,24.281,24.281,0,0,0-7.045,6.947c3.263,7.752,1.564,16.593-.185,24.82a4.206,4.206,0,0,1-1.145,2.482c-1.216,1.005-3.115.32-4.245-.782-1.808-1.765-2.576-4.321-3.109-6.791a43.508,43.508,0,0,1-.5-17.148,29.621,29.621,0,0,1,7.611-15.226,28.063,28.063,0,0,1,19.409-8.124A34.465,34.465,0,0,1,551.2,217.4a20.19,20.19,0,0,1,6.753,7.25" transform="translate(-503.327 -210.952)"/>
                  </g>
                </g>
              </g>
            </g>
          </g>
          <g id="Grupo_144670" data-name="Grupo 144670" transform="translate(18.099 5.702)">
            <g id="Grupo_144669" data-name="Grupo 144669">
              <g id="Grupo_144668" data-name="Grupo 144668">
                <g id="Grupo_144667" data-name="Grupo 144667">
                  <path id="Trazado_217531" data-name="Trazado 217531" d="M583.788,215.684a2.26,2.26,0,0,1-.063.92,4.288,4.288,0,0,1-1.4,2.231,6.73,6.73,0,0,1-3.9,1.456,11.278,11.278,0,0,1-2.628-.07,5.617,5.617,0,0,1-2.738-1.154,3.731,3.731,0,0,1-1.425-2.938,3.286,3.286,0,0,1,2.15-2.777,4.066,4.066,0,0,1,1.893-.309,3.448,3.448,0,0,1,1.844.751,4.808,4.808,0,0,1,1.7,3.64,5.573,5.573,0,0,1-1.531,3.937,8.483,8.483,0,0,1-3.754,2.307,13.922,13.922,0,0,1-9.066-.666,39.793,39.793,0,0,1-7.982-4.433,50.441,50.441,0,0,0-7.248-4.278,15.682,15.682,0,0,0-7.325-1.512,14.978,14.978,0,0,0-6.266,1.846,18.711,18.711,0,0,0-6.789,6.619A24.394,24.394,0,0,0,528,223.549a7.31,7.31,0,0,1-.415.818.8.8,0,0,1,.067-.225c.054-.144.13-.361.252-.637a19.7,19.7,0,0,1,1.185-2.354,18.489,18.489,0,0,1,6.784-6.838,15.263,15.263,0,0,1,6.42-1.955,16.041,16.041,0,0,1,7.547,1.5,50.131,50.131,0,0,1,7.337,4.291,39.711,39.711,0,0,0,7.884,4.371,13.458,13.458,0,0,0,8.728.665,8,8,0,0,0,3.535-2.154,5.082,5.082,0,0,0,1.418-3.587,4.349,4.349,0,0,0-1.508-3.292,3.184,3.184,0,0,0-3.284-.4,2.872,2.872,0,0,0-1.912,2.394,3.357,3.357,0,0,0,1.26,2.636,5.3,5.3,0,0,0,2.553,1.108,11.128,11.128,0,0,0,2.55.107,6.59,6.59,0,0,0,3.795-1.32,4.322,4.322,0,0,0,1.43-2.1A7.2,7.2,0,0,0,583.788,215.684Z" transform="translate(-527.579 -212.328)" fill="#375a64"/>
                </g>
              </g>
            </g>
          </g>
          <g id="Grupo_144674" data-name="Grupo 144674" transform="translate(0.183 18.637)">
            <g id="Grupo_144673" data-name="Grupo 144673">
              <g id="Grupo_144672" data-name="Grupo 144672">
                <g id="Grupo_144671" data-name="Grupo 144671">
                  <path id="Trazado_217532" data-name="Trazado 217532" d="M485.665,254.166a17.485,17.485,0,0,0,3.257.725,9.087,9.087,0,0,0,3.529-.492,15.275,15.275,0,0,0,3.9-2.046,12.358,12.358,0,0,0,4.488-6.462,25.473,25.473,0,0,0,.588-3.3,2.72,2.72,0,0,1,.087.913,10.509,10.509,0,0,1-.317,2.482,12.058,12.058,0,0,1-4.538,6.789,14.81,14.81,0,0,1-4.056,2.082,8.963,8.963,0,0,1-3.71.4,8.348,8.348,0,0,1-2.424-.648A2.673,2.673,0,0,1,485.665,254.166Z" transform="translate(-485.665 -242.592)" fill="#375a64"/>
                </g>
              </g>
            </g>
          </g>
          <g id="Grupo_144678" data-name="Grupo 144678" transform="translate(0.914 26.16)">
            <g id="Grupo_144677" data-name="Grupo 144677">
              <g id="Grupo_144676" data-name="Grupo 144676">
                <g id="Grupo_144675" data-name="Grupo 144675">
                  <path id="Trazado_217533" data-name="Trazado 217533" d="M487.374,271.877c.011-.1,1.254.135,3.244-.047a14.506,14.506,0,0,0,12.048-8.586c.822-1.822,1.009-3.071,1.1-3.051a2.581,2.581,0,0,1-.082.881,12.055,12.055,0,0,1-.681,2.315,14,14,0,0,1-12.362,8.811,12.106,12.106,0,0,1-2.411-.112A2.575,2.575,0,0,1,487.374,271.877Z" transform="translate(-487.374 -260.192)" fill="#375a64"/>
                </g>
              </g>
            </g>
          </g>
          <g id="Grupo_144682" data-name="Grupo 144682" transform="translate(28.419 51.994)">
            <g id="Grupo_144681" data-name="Grupo 144681">
              <g id="Grupo_144680" data-name="Grupo 144680">
                <g id="Grupo_144679" data-name="Grupo 144679">
                  <path id="Trazado_217534" data-name="Trazado 217534" d="M552.055,321.2a.288.288,0,1,1,.188-.339A.276.276,0,0,1,552.055,321.2Z" transform="translate(-551.725 -320.632)" fill="#ff9a6c"/>
                </g>
              </g>
            </g>
          </g>
          <g id="Grupo_144686" data-name="Grupo 144686" transform="translate(32.91 50.724)">
            <g id="Grupo_144685" data-name="Grupo 144685">
              <g id="Grupo_144684" data-name="Grupo 144684">
                <g id="Grupo_144683" data-name="Grupo 144683">
                  <path id="Trazado_217535" data-name="Trazado 217535" d="M562.574,318.306a.337.337,0,1,1,.18-.38A.3.3,0,0,1,562.574,318.306Z" transform="translate(-562.232 -317.661)" fill="#ff9a6c"/>
                </g>
              </g>
            </g>
          </g>
          <g id="Grupo_144690" data-name="Grupo 144690" transform="translate(35.97 50.338)">
            <g id="Grupo_144689" data-name="Grupo 144689">
              <g id="Grupo_144688" data-name="Grupo 144688">
                <g id="Grupo_144687" data-name="Grupo 144687">
                  <path id="Trazado_217536" data-name="Trazado 217536" d="M569.726,317.607c-.143.023-.289-.147-.327-.381s.047-.442.191-.465.289.148.327.382S569.869,317.584,569.726,317.607Z" transform="translate(-569.39 -316.759)" fill="#ff9a6c"/>
                </g>
              </g>
            </g>
          </g>
          <g id="Grupo_144694" data-name="Grupo 144694" transform="translate(30.812 54.994)">
            <g id="Grupo_144693" data-name="Grupo 144693">
              <g id="Grupo_144692" data-name="Grupo 144692">
                <g id="Grupo_144691" data-name="Grupo 144691">
                  <path id="Trazado_217537" data-name="Trazado 217537" d="M557.592,327.987c-.145.005-.265-.066-.268-.159s.112-.171.256-.177.264.066.268.158S557.736,327.982,557.592,327.987Z" transform="translate(-557.324 -327.651)" fill="#ff9a6c"/>
                </g>
              </g>
            </g>
          </g>
          <g id="Grupo_144698" data-name="Grupo 144698" transform="translate(34.911 53.625)">
            <g id="Grupo_144697" data-name="Grupo 144697">
              <g id="Grupo_144696" data-name="Grupo 144696">
                <g id="Grupo_144695" data-name="Grupo 144695">
                  <path id="Trazado_217538" data-name="Trazado 217538" d="M567.211,325.04a.3.3,0,1,1,.224-.327A.281.281,0,0,1,567.211,325.04Z" transform="translate(-566.912 -324.448)" fill="#ff9a6c"/>
                </g>
              </g>
            </g>
          </g>
          <g id="Grupo_144702" data-name="Grupo 144702" transform="translate(56.452 50.289)">
            <g id="Grupo_144701" data-name="Grupo 144701">
              <g id="Grupo_144700" data-name="Grupo 144700">
                <g id="Grupo_144699" data-name="Grupo 144699">
                  <path id="Trazado_217539" data-name="Trazado 217539" d="M617.642,317.226a.3.3,0,1,1,.187-.348A.281.281,0,0,1,617.642,317.226Z" transform="translate(-617.31 -316.643)" fill="#ff9a6c"/>
                </g>
              </g>
            </g>
          </g>
          <g id="Grupo_144706" data-name="Grupo 144706" transform="translate(59.56 49.823)">
            <g id="Grupo_144705" data-name="Grupo 144705">
              <g id="Grupo_144704" data-name="Grupo 144704">
                <g id="Grupo_144703" data-name="Grupo 144703">
                  <path id="Trazado_217540" data-name="Trazado 217540" d="M624.889,316.209a.339.339,0,1,1,.216-.362A.3.3,0,0,1,624.889,316.209Z" transform="translate(-624.581 -315.553)" fill="#ff9a6c"/>
                </g>
              </g>
            </g>
          </g>
          <g id="Grupo_144710" data-name="Grupo 144710" transform="translate(53.741 50.588)">
            <g id="Grupo_144709" data-name="Grupo 144709">
              <g id="Grupo_144708" data-name="Grupo 144708">
                <g id="Grupo_144707" data-name="Grupo 144707">
                  <path id="Trazado_217541" data-name="Trazado 217541" d="M611.281,317.8a.232.232,0,1,1,.2-.285A.248.248,0,0,1,611.281,317.8Z" transform="translate(-610.967 -317.343)" fill="#ff9a6c"/>
                </g>
              </g>
            </g>
          </g>
          <g id="Grupo_144714" data-name="Grupo 144714" transform="translate(56.054 53.488)">
            <g id="Grupo_144713" data-name="Grupo 144713">
              <g id="Grupo_144712" data-name="Grupo 144712">
                <g id="Grupo_144711" data-name="Grupo 144711">
                  <path id="Trazado_217542" data-name="Trazado 217542" d="M616.781,324.7a.306.306,0,1,1,.1-.387A.284.284,0,0,1,616.781,324.7Z" transform="translate(-616.379 -324.128)" fill="#ff9a6c"/>
                </g>
              </g>
            </g>
          </g>
          <g id="Grupo_144718" data-name="Grupo 144718" transform="translate(58.871 52.999)">
            <g id="Grupo_144717" data-name="Grupo 144717">
              <g id="Grupo_144716" data-name="Grupo 144716">
                <g id="Grupo_144715" data-name="Grupo 144715">
                  <path id="Trazado_217543" data-name="Trazado 217543" d="M623.178,323.421a.224.224,0,1,1,.306-.155A.244.244,0,0,1,623.178,323.421Z" transform="translate(-622.968 -322.983)" fill="#ff9a6c"/>
                </g>
              </g>
            </g>
          </g>
        </g>
        <g id="Grupo_144723" data-name="Grupo 144723" transform="translate(37.672 65.779)">
          <g id="Grupo_144720" data-name="Grupo 144720" transform="translate(0.626 0.443)">
            <path id="Trazado_217544" data-name="Trazado 217544" d="M582.372,355.451a10.857,10.857,0,0,1-.835,2.977,3.66,3.66,0,0,1-2.253,1.993,3.283,3.283,0,0,1-3.021-.938,5.245,5.245,0,0,1-1.381-2.943c-.152-.985.061-2.24,1.008-2.55a2.493,2.493,0,0,1,1.231.024l5.515,1.044" transform="translate(-574.838 -353.921)" fill="#ff9a6c"/>
          </g>
          <g id="Grupo_144722" data-name="Grupo 144722">
            <g id="Grupo_144721" data-name="Grupo 144721">
              <path id="Trazado_217545" data-name="Trazado 217545" d="M580.339,359.463a7.529,7.529,0,0,1-2.787.21,3.963,3.963,0,0,1-2.432-1.455,4.176,4.176,0,0,1-.737-3.322,3.729,3.729,0,0,1,.291-.851c.159-.253.124-.236.351-.247.219.014.586.1.881.156l.906.173c1.18.222,2.246.409,3.143.553a9.459,9.459,0,0,0,2.945.278,9.479,9.479,0,0,0-2.811-.921c-.88-.227-1.932-.48-3.1-.748l-.9-.2a9.292,9.292,0,0,0-1.009-.2,1.217,1.217,0,0,0-.752.174,1.432,1.432,0,0,0-.473.558,4.463,4.463,0,0,0-.379,1.082,4.875,4.875,0,0,0,.975,4.049,4.449,4.449,0,0,0,3.009,1.573,4.193,4.193,0,0,0,2.226-.358C580.166,359.73,580.369,359.509,580.339,359.463Z" transform="translate(-573.373 -352.884)" fill="#1a2e35"/>
            </g>
          </g>
        </g>
      </g>
      <g id="Grupo_144787" data-name="Grupo 144787" transform="translate(0 91.717)">
        <g id="Grupo_144725" data-name="Grupo 144725" transform="translate(85.248)">
          <path id="Trazado_217546" data-name="Trazado 217546" d="M489.5,420.672l2.211-5.926,19.006,20.49,19.8-21.668,5.3,7.3s5.835,28.5,5.3,29.037-28.255,17.655-28.255,17.655l-23.022-.807-15.522-29.572Z" transform="translate(-474.317 -413.568)" fill="#1b3f5e"/>
        </g>
        <g id="Grupo_144726" data-name="Grupo 144726" transform="translate(15.261 5.693)">
          <path id="Trazado_217547" data-name="Trazado 217547" d="M310.792,532.24l-.214-39.673s23.1-34.681,27.412-39c6.1-6.1,10.213-10.337,12.966-12.477a4.526,4.526,0,0,1,5.552-.014h0l39.6-13.767s-6.056,9.955,3.094,22.345a207.5,207.5,0,0,1,15.743,25.263s9.361-15.316,12.982-18.366,16.118-23.567,13.259-29.667l32.837,14.255s1.584-2.376,3.564-1.387,16.836,7.143,22.578,18.034,34.554,52.791,34.554,52.791l-31.4,27.547Z" transform="translate(-310.578 -426.887)" fill="#d84318"/>
        </g>
        <g id="Grupo_144728" data-name="Grupo 144728" transform="translate(63.235 21.737)">
          <g id="Grupo_144727" data-name="Grupo 144727">
            <path id="Trazado_217548" data-name="Trazado 217548" d="M436.318,498.758a1.46,1.46,0,0,1-.281-.263l-.75-.807c-.325-.351-.718-.786-1.142-1.317s-.939-1.112-1.436-1.809-1.077-1.435-1.625-2.281c-.578-.826-1.129-1.751-1.713-2.722a52.537,52.537,0,0,1-3.232-6.62,51.178,51.178,0,0,1-2.179-7.04c-.233-1.109-.462-2.161-.6-3.161-.174-.993-.264-1.928-.349-2.78-.106-.851-.115-1.627-.156-2.305s-.042-1.264-.035-1.743c.008-.442.014-.806.019-1.1a.194.194,0,1,1,.077,0c.014.294.032.657.053,1.1.015.477.034,1.06.1,1.734s.089,1.445.212,2.289c.1.845.207,1.773.393,2.757.147.991.387,2.034.627,3.133a53.974,53.974,0,0,0,2.191,6.978,55.656,55.656,0,0,0,3.182,6.586c.572.969,1.11,1.894,1.673,2.723.533.848,1.082,1.6,1.578,2.3s.978,1.3,1.385,1.836.781.989,1.088,1.354l.695.853A1.494,1.494,0,0,1,436.318,498.758Z" transform="translate(-422.818 -464.424)" fill="#1a2e35"/>
          </g>
        </g>
        <g id="Grupo_144730" data-name="Grupo 144730" transform="translate(59.559 33.315)">
          <g id="Grupo_144729" data-name="Grupo 144729">
            <path id="Trazado_217549" data-name="Trazado 217549" d="M414.251,504.086a7.378,7.378,0,0,1,.085-2.039,19.061,19.061,0,0,1,3.742-9.033,7.37,7.37,0,0,1,1.381-1.5,19.913,19.913,0,0,1-1.163,1.661,22.727,22.727,0,0,0-3.693,8.916A20,20,0,0,1,414.251,504.086Z" transform="translate(-414.217 -491.51)" fill="#1a2e35"/>
          </g>
        </g>
        <g id="Grupo_144732" data-name="Grupo 144732" transform="translate(50.546 24.262)">
          <g id="Grupo_144731" data-name="Grupo 144731">
            <path id="Trazado_217550" data-name="Trazado 217550" d="M396.991,526.606a3.869,3.869,0,0,1-.194-.59c-.112-.391-.284-.965-.477-1.713-.392-1.494-.914-3.668-1.427-6.383a102.778,102.778,0,0,1-1.729-21.486,55.875,55.875,0,0,1,1.31-11.814,24.049,24.049,0,0,1,4.006-8.821,16.969,16.969,0,0,1,4.8-4.431,12.361,12.361,0,0,1,1.583-.818,3.7,3.7,0,0,1,.581-.219,3.807,3.807,0,0,1-.549.289,15.4,15.4,0,0,0-1.537.875,17.473,17.473,0,0,0-4.663,4.466,24.154,24.154,0,0,0-3.881,8.743,56.966,56.966,0,0,0-1.27,11.741,108.578,108.578,0,0,0,1.613,21.427c.477,2.714.958,4.893,1.3,6.4l.407,1.729A3.775,3.775,0,0,1,396.991,526.606Z" transform="translate(-393.13 -470.33)" fill="#1a2e35"/>
          </g>
        </g>
        <g id="Grupo_144734" data-name="Grupo 144734" transform="translate(62.336 46.088)">
          <g id="Grupo_144733" data-name="Grupo 144733">
            <path id="Trazado_217551" data-name="Trazado 217551" d="M421.127,542.578a3.971,3.971,0,0,1-.179-.875,19.246,19.246,0,0,1-.218-2.427,25.456,25.456,0,0,1,.132-3.617,26.46,26.46,0,0,1,2.4-8.5,25.5,25.5,0,0,1,1.78-3.151,19.32,19.32,0,0,1,1.455-1.954,3.985,3.985,0,0,1,.61-.653c.057.046-.761,1.019-1.838,2.753a29.149,29.149,0,0,0-1.688,3.154,28.4,28.4,0,0,0-2.372,8.4A29.042,29.042,0,0,0,421,539.27C421.011,541.311,421.2,542.569,421.127,542.578Z" transform="translate(-420.712 -521.395)" fill="#1a2e35"/>
          </g>
        </g>
        <g id="Grupo_144736" data-name="Grupo 144736" transform="translate(66.656 51.4)">
          <g id="Grupo_144735" data-name="Grupo 144735">
            <path id="Trazado_217552" data-name="Trazado 217552" d="M431.117,559.267a5.116,5.116,0,0,1-.124-1c-.058-.648-.109-1.587-.144-2.75a75.041,75.041,0,0,1,1.708-18.055c.252-1.135.479-2.049.657-2.674a5.111,5.111,0,0,1,.31-.963,5.088,5.088,0,0,1-.165,1c-.141.709-.321,1.612-.537,2.693-.437,2.276-.95,5.438-1.286,8.958s-.419,6.721-.417,9.039c.009,1.1.017,2.024.022,2.746A5.152,5.152,0,0,1,431.117,559.267Z" transform="translate(-430.82 -533.822)" fill="#1a2e35"/>
          </g>
        </g>
        <g id="Grupo_144738" data-name="Grupo 144738" transform="translate(73.04 50.933)">
          <g id="Grupo_144737" data-name="Grupo 144737">
            <path id="Trazado_217553" data-name="Trazado 217553" d="M490.773,532.92c0,.106-10.078.192-22.507.192s-22.509-.086-22.509-.192,10.076-.191,22.509-.191S490.773,532.815,490.773,532.92Z" transform="translate(-445.757 -532.729)" fill="#1a2e35"/>
          </g>
        </g>
        <g id="Grupo_144740" data-name="Grupo 144740" transform="translate(80.797 53.666)">
          <g id="Grupo_144739" data-name="Grupo 144739">
            <path id="Trazado_217554" data-name="Trazado 217554" d="M463.977,598.5c-.106,0-.1-13.294.022-29.687s.3-29.687.4-29.687.1,13.29-.022,29.69S464.082,598.5,463.977,598.5Z" transform="translate(-463.903 -539.123)" fill="#1a2e35"/>
          </g>
        </g>
        <g id="Grupo_144742" data-name="Grupo 144742" transform="translate(94.546 52.167)">
          <g id="Grupo_144741" data-name="Grupo 144741">
            <path id="Trazado_217555" data-name="Trazado 217555" d="M496.082,597.662a3.907,3.907,0,0,1,0-.633q.026-.672.071-1.811c.08-1.608.194-3.871.333-6.652.32-5.647.758-13.387,1.243-21.937.528-8.551,1.006-16.289,1.355-21.934.19-2.778.344-5.039.454-6.645q.09-1.135.143-1.805a3.911,3.911,0,0,1,.076-.629,3.9,3.9,0,0,1,0,.632q-.026.671-.071,1.809c-.08,1.608-.194,3.87-.333,6.651-.32,5.647-.759,13.389-1.243,21.943-.528,8.549-1.006,16.288-1.355,21.933-.19,2.778-.345,5.039-.454,6.644q-.09,1.135-.143,1.805A3.89,3.89,0,0,1,496.082,597.662Z" transform="translate(-496.072 -535.616)" fill="#1a2e35"/>
          </g>
        </g>
        <g id="Grupo_144744" data-name="Grupo 144744" transform="translate(113.817 51.887)">
          <g id="Grupo_144743" data-name="Grupo 144743">
            <path id="Trazado_217556" data-name="Trazado 217556" d="M541.166,594.315c-.105-.009.9-13.3,2.244-29.691s2.521-29.671,2.626-29.663-.9,13.3-2.244,29.694S541.271,594.324,541.166,594.315Z" transform="translate(-541.158 -534.962)" fill="#1a2e35"/>
          </g>
        </g>
        <g id="Grupo_144746" data-name="Grupo 144746" transform="translate(121.944 51.232)">
          <g id="Grupo_144745" data-name="Grupo 144745">
            <path id="Trazado_217557" data-name="Trazado 217557" d="M608.029,533.619c0,.106-10.714.191-23.927.191s-23.93-.086-23.93-.191,10.712-.191,23.93-.191S608.029,533.514,608.029,533.619Z" transform="translate(-560.172 -533.428)" fill="#1a2e35"/>
          </g>
        </g>
        <g id="Grupo_144748" data-name="Grupo 144748" transform="translate(133.001 53.989)">
          <g id="Grupo_144747" data-name="Grupo 144747">
            <path id="Trazado_217558" data-name="Trazado 217558" d="M586.584,597.886a3.422,3.422,0,0,1-.068-.589q-.046-.634-.121-1.695c-.1-1.472-.2-3.605-.276-6.243-.154-5.274-.121-12.574.418-20.611s1.5-15.278,2.36-20.483c.429-2.6.813-4.7,1.113-6.149q.217-1.042.347-1.663a3.415,3.415,0,0,1,.147-.574,3.5,3.5,0,0,1-.071.589q-.1.627-.277,1.675c-.254,1.452-.6,3.558-.992,6.164-.793,5.211-1.7,12.441-2.245,20.467s-.615,15.309-.53,20.579c.04,2.635.1,4.768.154,6.241q.031,1.064.049,1.7A3.455,3.455,0,0,1,586.584,597.886Z" transform="translate(-586.04 -539.879)" fill="#1a2e35"/>
          </g>
        </g>
        <g id="Grupo_144750" data-name="Grupo 144750" transform="translate(150.984 54.135)">
          <g id="Grupo_144749" data-name="Grupo 144749">
            <path id="Trazado_217559" data-name="Trazado 217559" d="M628.6,605.726a.549.549,0,0,1-.026-.168l-.036-.5q-.039-.7-.1-1.91c-.086-1.659-.169-4.062-.236-7.032-.136-5.94-.135-14.152.247-23.211s1.085-17.245,1.725-23.151c.319-2.954.606-5.34.832-6.986q.167-1.2.265-1.894c.032-.2.057-.358.079-.492a.553.553,0,0,1,.04-.166.59.59,0,0,1,0,.171c-.011.135-.025.3-.041.5q-.071.7-.193,1.9c-.181,1.651-.427,4.04-.711,7-.571,5.909-1.224,14.088-1.612,23.14s-.426,17.254-.359,23.19c.032,2.968.074,5.371.114,7.031q.02,1.207.031,1.912c0,.2,0,.363,0,.5A.6.6,0,0,1,628.6,605.726Z" transform="translate(-628.113 -540.22)" fill="#1a2e35"/>
          </g>
        </g>
        <g id="Grupo_144752" data-name="Grupo 144752" transform="translate(169.191 21.438)">
          <g id="Grupo_144751" data-name="Grupo 144751">
            <path id="Trazado_217560" data-name="Trazado 217560" d="M670.712,493.708a7.942,7.942,0,0,1,.437-1.179l1.284-3.172c1.075-2.683,2.481-6.417,3.932-10.581l3.7-10.675c.485-1.363.886-2.462,1.176-3.217a7.926,7.926,0,0,1,.485-1.16,7.886,7.886,0,0,1-.345,1.21c-.27.83-.628,1.928-1.061,3.255-.907,2.745-2.143,6.544-3.595,10.714s-2.9,7.9-4.043,10.557c-.571,1.33-1.048,2.4-1.4,3.129A7.87,7.87,0,0,1,670.712,493.708Z" transform="translate(-670.709 -463.723)" fill="#1a2e35"/>
          </g>
        </g>
        <g id="Grupo_144754" data-name="Grupo 144754" transform="translate(167.019 51.423)">
          <g id="Grupo_144753" data-name="Grupo 144753">
            <path id="Trazado_217561" data-name="Trazado 217561" d="M669.822,558.375a4.872,4.872,0,0,1-.435-.887c-.261-.579-.6-1.433-.992-2.5a47.892,47.892,0,0,1-2.235-8.592,42.085,42.085,0,0,1-.47-8.867c.067-1.135.156-2.052.253-2.68a4.854,4.854,0,0,1,.179-.972,4.91,4.91,0,0,1-.03.987c-.051.631-.1,1.546-.131,2.676a48.4,48.4,0,0,0,.577,8.8,56.307,56.307,0,0,0,2.113,8.564c.354,1.074.656,1.94.874,2.535A4.9,4.9,0,0,1,669.822,558.375Z" transform="translate(-665.627 -533.876)" fill="#1a2e35"/>
          </g>
        </g>
        <g id="Grupo_144756" data-name="Grupo 144756" transform="translate(169.781 51.423)">
          <g id="Grupo_144755" data-name="Grupo 144755">
            <path id="Trazado_217562" data-name="Trazado 217562" d="M680.766,575.915a1.9,1.9,0,0,1-.166-.406l-.406-1.187c-.333-1.037-.791-2.545-1.317-4.419-1.052-3.749-2.367-8.966-3.64-14.768-1.256-5.808-2.22-11.105-2.706-14.972-.243-1.933-.371-3.507-.424-4.595-.007-.511-.012-.927-.016-1.256a1.858,1.858,0,0,1,.021-.437,1.918,1.918,0,0,1,.056.436c.023.327.052.74.088,1.248.1,1.082.268,2.644.544,4.567.554,3.847,1.558,9.126,2.812,14.927,1.272,5.8,2.544,11.016,3.528,14.778l1.2,4.447.336,1.207A1.874,1.874,0,0,1,680.766,575.915Z" transform="translate(-672.089 -533.876)" fill="#1a2e35"/>
          </g>
        </g>
        <g id="Grupo_144758" data-name="Grupo 144758" transform="translate(177.135 30.97)">
          <g id="Grupo_144757" data-name="Grupo 144757">
            <path id="Trazado_217563" data-name="Trazado 217563" d="M696.881,492.885c-.06.021-.27-.533-.773-1.333a13.925,13.925,0,0,0-5.414-4.872c-.848-.417-1.417-.584-1.4-.646a3.961,3.961,0,0,1,1.511.4,11.682,11.682,0,0,1,5.537,4.983A3.7,3.7,0,0,1,696.881,492.885Z" transform="translate(-689.294 -486.024)" fill="#1a2e35"/>
          </g>
        </g>
        <g id="Grupo_144760" data-name="Grupo 144760" transform="translate(178.42 26.585)">
          <g id="Grupo_144759" data-name="Grupo 144759">
            <path id="Trazado_217564" data-name="Trazado 217564" d="M700.433,481.611c-.059.027-.31-.5-.88-1.223a12.14,12.14,0,0,0-2.634-2.438,18,18,0,0,0-4.619-2.166,3.911,3.911,0,0,1,1.511.242,11.649,11.649,0,0,1,3.326,1.609,10.147,10.147,0,0,1,2.635,2.593A3.5,3.5,0,0,1,700.433,481.611Z" transform="translate(-692.3 -475.767)" fill="#1a2e35"/>
          </g>
        </g>
        <g id="Grupo_144761" data-name="Grupo 144761" transform="translate(0 69.314)">
          <path id="Trazado_217565" data-name="Trazado 217565" d="M294.528,575.734a18.743,18.743,0,0,0-6.722,4.493c-3.943,4.445-11.363,17.547-11.363,17.547s-2.215,25.877-1.381,25.676,39.408,0,39.408,0h46.774s-10.112-22.543-27.495-26.7l-12.331-2.426s-1.045-5.328-2.447-5.532S294.528,575.734,294.528,575.734Z" transform="translate(-274.874 -575.734)" fill="#d84318"/>
        </g>
        <g id="Grupo_144762" data-name="Grupo 144762" transform="translate(180.371 73.374)">
          <path id="Trazado_217566" data-name="Trazado 217566" d="M699.484,603.9a5.187,5.187,0,0,1,4.1-2.1c2.69,0,12.654-.961,12.654-.961s7.333-5.766,10.985-6.919a7.051,7.051,0,0,1,4.036-5.766c3.025-1.361,11.341-2.484,14.749-2.9a3.441,3.441,0,0,1,2.642.786c3.325,2.8,13.011,11.281,18.355,19.219,5.631,8.365.733,22.089-3.687,23.626H696.866Z" transform="translate(-696.866 -585.233)" fill="#d84318"/>
        </g>
        <g id="Grupo_144764" data-name="Grupo 144764" transform="translate(24.602 72.061)" opacity="0.3">
          <g id="Grupo_144763" data-name="Grupo 144763">
            <path id="Trazado_217567" data-name="Trazado 217567" d="M332.433,582.159c5.977.338,11.4.9,16.365,4.244a32.284,32.284,0,0,0,4.75,3.183c1.746.768,3.7.908,5.5,1.534,3.2,1.11,5.656,3.643,7.99,6.093.728.765,5.872,5.025,5.46,5.357s-5.845-2.356-6.367-2.436l-7.442-1.127c-1.861-.281-3.926-.683-5.022-2.212-.582-.812-.8-1.836-1.337-2.677a8.11,8.11,0,0,0-3.362-2.538c-6.017-3.06-10.522-6.363-16.539-9.422" transform="translate(-332.433 -582.159)"/>
          </g>
        </g>
        <g id="Grupo_144766" data-name="Grupo 144766" transform="translate(186.549 72.794)" opacity="0.3">
          <g id="Grupo_144765" data-name="Grupo 144765">
            <path id="Trazado_217568" data-name="Trazado 217568" d="M711.319,601.056c.957-1.649,4.678-3.066,6.582-3.169s3.9.066,5.628-.746c2.506-1.179,3.671-4.02,5.4-6.182a17.221,17.221,0,0,1,9.479-5.567c3.625-.886,10.575-3.012,15.826.181,0,0-6.995-.576-8.544-.41a31.748,31.748,0,0,0-4.613,1.157,9.446,9.446,0,0,0-6.456,7.538v.2a85.4,85.4,0,0,0-10.113,6.007c-.147.062-8.749.917-13.19.99" transform="translate(-711.319 -583.875)"/>
          </g>
        </g>
        <g id="Grupo_144768" data-name="Grupo 144768" transform="translate(50.192 26.468)" opacity="0.3">
          <g id="Grupo_144767" data-name="Grupo 144767">
            <path id="Trazado_217569" data-name="Trazado 217569" d="M400.753,475.63a28.075,28.075,0,0,0-4.508,22.1c.65,2.934,1.775,5.75,2.374,8.7s.625,6.157-.823,8.79a3.547,3.547,0,0,1-1.29,1.451,1.656,1.656,0,0,1-1.845-.081,2.572,2.572,0,0,1-.664-1.618c-1.084-6.921-2.171-13.932-1.478-20.9s3.375-14.012,8.7-18.569" transform="translate(-392.301 -475.493)"/>
          </g>
        </g>
        <g id="Grupo_144770" data-name="Grupo 144770" transform="translate(177.311 31.029)" opacity="0.3">
          <g id="Grupo_144769" data-name="Grupo 144769">
            <path id="Trazado_217570" data-name="Trazado 217570" d="M689.706,486.162a19.039,19.039,0,0,1,4.664,8.525c.392,2.421.478,4.917,1.305,7.226.405,1.132,1.287,2.373,2.48,2.22s1.739-1.594,1.812-2.8a13.573,13.573,0,0,0-2.427-8.082,22.074,22.074,0,0,0-5.737-6.355" transform="translate(-689.706 -486.162)"/>
          </g>
        </g>
        <g id="Grupo_144772" data-name="Grupo 144772" transform="translate(51.284 92.456)" opacity="0.3">
          <g id="Grupo_144771" data-name="Grupo 144771">
            <path id="Trazado_217571" data-name="Trazado 217571" d="M429.374,653.206a3.158,3.158,0,0,1,.339,1.246l-29.3-.07a6.8,6.8,0,0,1-3.92-1.119c-1.306-1.074-1.623-2.935-1.634-4.625a20.327,20.327,0,0,1,11.883-18.3s.978-1.437,3.641.752S429.374,653.206,429.374,653.206Z" transform="translate(-394.856 -629.876)"/>
          </g>
        </g>
        <g id="Grupo_144774" data-name="Grupo 144774" transform="translate(23.929 71.687)">
          <g id="Grupo_144773" data-name="Grupo 144773">
            <path id="Trazado_217572" data-name="Trazado 217572" d="M371.056,602.054a2.215,2.215,0,0,1-.434-.191l-1.214-.6a22.785,22.785,0,0,0-4.636-1.724c-2.035-.5-4.525-.675-7.3-1.062a18.19,18.19,0,0,1-2.086-.545,12.578,12.578,0,0,1-2.1-.842,4.415,4.415,0,0,1-1.4-1.933,10.658,10.658,0,0,0-1.091-2.045l-.02-.025.045.038-14.153-8.306-4.267-2.555-1.151-.712a2.19,2.19,0,0,1-.388-.271,2.156,2.156,0,0,1,.426.2l1.186.649,4.328,2.45,14.215,8.212.029.017.017.021.023.029A10.67,10.67,0,0,1,352.227,595a4.165,4.165,0,0,0,1.244,1.77,12.4,12.4,0,0,0,2.026.819,18.092,18.092,0,0,0,2.04.546c2.725.4,5.249.61,7.3,1.146a21.014,21.014,0,0,1,4.638,1.853c.521.275.919.5,1.184.662A2.19,2.19,0,0,1,371.056,602.054Z" transform="translate(-330.857 -581.285)" fill="#1a2e35"/>
          </g>
        </g>
        <g id="Grupo_144776" data-name="Grupo 144776" transform="translate(44.454 59.998)">
          <g id="Grupo_144775" data-name="Grupo 144775">
            <path id="Trazado_217573" data-name="Trazado 217573" d="M379.129,553.937a6.07,6.07,0,0,1,.033,1.1c0,.774,0,1.776,0,2.98.017,2.515.131,5.988.486,9.807s.893,7.254,1.343,9.728c.223,1.183.409,2.167.552,2.928a6.016,6.016,0,0,1,.171,1.082,6.013,6.013,0,0,1-.316-1.05c-.182-.681-.414-1.675-.672-2.909a89.3,89.3,0,0,1-1.835-19.587c.025-1.26.068-2.28.121-2.983A5.97,5.97,0,0,1,379.129,553.937Z" transform="translate(-378.877 -553.937)" fill="#1a2e35"/>
          </g>
        </g>
        <g id="Grupo_144778" data-name="Grupo 144778" transform="translate(180.371 93.453)" opacity="0.3">
          <g id="Grupo_144777" data-name="Grupo 144777">
            <path id="Trazado_217574" data-name="Trazado 217574" d="M706.321,656a12.443,12.443,0,0,0,1.5-2.544,12.3,12.3,0,0,0,.329-6.655,22.95,22.95,0,0,0-8.862-14.59l-2.426,23.579Z" transform="translate(-696.866 -632.208)"/>
          </g>
        </g>
        <g id="Grupo_144780" data-name="Grupo 144780" transform="translate(28.431 62.152)">
          <g id="Grupo_144779" data-name="Grupo 144779">
            <path id="Trazado_217575" data-name="Trazado 217575" d="M351.354,577.005a3.7,3.7,0,0,1-.18-.837l-.374-2.294a28.848,28.848,0,0,0-2.136-7.3,15.733,15.733,0,0,0-4.575-5.965,19.337,19.337,0,0,0-2.7-1.629,3.159,3.159,0,0,1,.818.262,10.293,10.293,0,0,1,2.043,1.151,15.057,15.057,0,0,1,4.761,6.023,25.954,25.954,0,0,1,2.055,7.417c.13.976.208,1.768.254,2.316A3.663,3.663,0,0,1,351.354,577.005Z" transform="translate(-341.39 -558.977)" fill="#1a2e35"/>
          </g>
        </g>
        <g id="Grupo_144782" data-name="Grupo 144782" transform="translate(179.942 81.198)">
          <g id="Grupo_144781" data-name="Grupo 144781">
            <path id="Trazado_217576" data-name="Trazado 217576" d="M735.536,603.651c0,.035-.6,0-1.685.033a22.842,22.842,0,0,0-4.526.623,21.678,21.678,0,0,0-6.23,2.579c-1.09.658-2.157,1.477-3.313,2.273a15.021,15.021,0,0,1-3.855,2.038,28.876,28.876,0,0,1-8.317.994,23.487,23.487,0,0,0-6.693.912,10.121,10.121,0,0,0-3.935,2.208c-.778.745-1.084,1.274-1.121,1.247a1.879,1.879,0,0,1,.221-.378,5.941,5.941,0,0,1,.795-.974,9.845,9.845,0,0,1,3.955-2.359,22.98,22.98,0,0,1,6.765-1.007,29.344,29.344,0,0,0,8.206-1c2.792-.924,4.879-2.945,7.107-4.25a21.305,21.305,0,0,1,6.352-2.541,20.7,20.7,0,0,1,4.585-.508c.545.012.967.026,1.253.058A1.847,1.847,0,0,1,735.536,603.651Z" transform="translate(-695.862 -603.536)" fill="#1a2e35"/>
          </g>
        </g>
        <g id="Grupo_144784" data-name="Grupo 144784" transform="translate(209.844 73.791)">
          <g id="Grupo_144783" data-name="Grupo 144783">
            <path id="Trazado_217577" data-name="Trazado 217577" d="M785.957,586.983a4.7,4.7,0,0,1-.953-.06c-.609-.062-1.49-.158-2.579-.245a24.18,24.18,0,0,0-8.431.565,12.24,12.24,0,0,0-6.777,4.742,11.441,11.441,0,0,0-1.389,3.208c-.013,0-.009-.087.011-.248a4.921,4.921,0,0,1,.124-.7,8.039,8.039,0,0,1,1.026-2.407,12.075,12.075,0,0,1,6.9-4.963,22.606,22.606,0,0,1,8.561-.467c1.092.123,1.97.26,2.574.367A4.433,4.433,0,0,1,785.957,586.983Z" transform="translate(-765.821 -586.207)" fill="#1a2e35"/>
          </g>
        </g>
        <g id="Grupo_144786" data-name="Grupo 144786" transform="translate(196.247 60.076)">
          <g id="Grupo_144785" data-name="Grupo 144785">
            <path id="Trazado_217578" data-name="Trazado 217578" d="M744.359,578.64a5.583,5.583,0,0,1-.4-.969l-.99-2.676c-.837-2.259-2.03-5.365-3.457-8.75s-2.824-6.407-3.858-8.583l-1.227-2.576a5.573,5.573,0,0,1-.413-.965,5.523,5.523,0,0,1,.546.9c.331.588.789,1.45,1.337,2.525,1.1,2.148,2.534,5.159,3.968,8.553s2.587,6.523,3.36,8.808c.387,1.143.686,2.073.876,2.72A5.5,5.5,0,0,1,744.359,578.64Z" transform="translate(-734.008 -554.12)" fill="#1a2e35"/>
          </g>
        </g>
      </g>
      <g id="Grupo_144806" data-name="Grupo 144806" transform="translate(98.934 91.717)">
        <g id="Grupo_144789" data-name="Grupo 144789" transform="translate(3.703 1.178)">
          <g id="Grupo_144788" data-name="Grupo 144788">
            <path id="Trazado_217579" data-name="Trazado 217579" d="M515,416.323a2.216,2.216,0,0,1,.353.32l.956.968,3.464,3.608,11.322,12,2.744,2.933.3.321-.439,0a15.207,15.207,0,0,0-11.9,5.652,15.957,15.957,0,0,0-2.119,3.428c-.392.865-.552,1.362-.582,1.352a1.609,1.609,0,0,1,.09-.371,10.429,10.429,0,0,1,.368-1.035,14.835,14.835,0,0,1,2.049-3.528,15.075,15.075,0,0,1,4.676-3.983,15.356,15.356,0,0,1,7.421-1.893l-.137.318-2.748-2.929L519.577,421.4l-3.375-3.691-.9-1.017A2.235,2.235,0,0,1,515,416.323Z" transform="translate(-515.002 -416.323)" fill="#1a2e35"/>
          </g>
        </g>
        <g id="Grupo_144790" data-name="Grupo 144790" transform="translate(11.365 21.449)">
          <path id="Trazado_217580" data-name="Trazado 217580" d="M532.926,468.1l5.064,9.923h9.355l5.4-7.378s-3.678-5.49-5.284-6.372l-6.775-.493C540.444,463.452,534.269,465.867,532.926,468.1Z" transform="translate(-532.926 -463.748)" fill="#ff4f5b"/>
        </g>
        <g id="Grupo_144791" data-name="Grupo 144791" transform="translate(14.057 35.721)">
          <path id="Trazado_217581" data-name="Trazado 217581" d="M541.6,497.14l-2.372,5.914s6.484,12.7,6.83,12.126,8.1-12.613,8.1-12.613l-3.2-5.428Z" transform="translate(-539.224 -497.14)" fill="#ff4f5b"/>
        </g>
        <g id="Grupo_144792" data-name="Grupo 144792" transform="translate(11.365 21.449)">
          <path id="Trazado_217582" data-name="Trazado 217582" d="M532.926,468.1l5.064,9.923h9.355l5.4-7.378s-3.678-5.49-5.284-6.372l-6.775-.493C540.444,463.452,534.269,465.867,532.926,468.1Z" transform="translate(-532.926 -463.748)" fill="#fff59d"/>
        </g>
        <g id="Grupo_144793" data-name="Grupo 144793" transform="translate(14.057 35.721)">
          <path id="Trazado_217583" data-name="Trazado 217583" d="M541.6,497.14l-2.372,5.914s6.484,12.7,6.83,12.126,8.1-12.613,8.1-12.613l-3.2-5.428Z" transform="translate(-539.224 -497.14)" fill="#fff59d"/>
        </g>
        <g id="Grupo_144795" data-name="Grupo 144795" transform="translate(16.392 35.171)">
          <g id="Grupo_144794" data-name="Grupo 144794">
            <path id="Trazado_217584" data-name="Trazado 217584" d="M553.776,496.888a23.659,23.659,0,0,0-9.088-.4,3.862,3.862,0,0,1,1.3-.391,14.3,14.3,0,0,1,6.52.285A3.844,3.844,0,0,1,553.776,496.888Z" transform="translate(-544.688 -495.854)" fill="#1a2e35"/>
          </g>
        </g>
        <g id="Grupo_144797" data-name="Grupo 144797" transform="translate(14.824 24.074)">
          <g id="Grupo_144796" data-name="Grupo 144796">
            <path id="Trazado_217585" data-name="Trazado 217585" d="M553.99,469.892c.021.016-.1.2-.327.525a14.106,14.106,0,0,1-1.067,1.3,20.608,20.608,0,0,1-9.325,5.834,14.17,14.17,0,0,1-1.637.39,1.944,1.944,0,0,1-.615.065c-.013-.063.841-.256,2.17-.712a23.854,23.854,0,0,0,9.211-5.763C553.392,470.536,553.939,469.853,553.99,469.892Z" transform="translate(-541.019 -469.89)" fill="#1a2e35"/>
          </g>
        </g>
        <g id="Grupo_144799" data-name="Grupo 144799" transform="translate(21.18 35.299)">
          <g id="Grupo_144798" data-name="Grupo 144798">
            <path id="Trazado_217586" data-name="Trazado 217586" d="M556.249,504.183a22.972,22.972,0,0,1-.012-8.031,279.568,279.568,0,0,1,.012,8.031Z" transform="translate(-555.89 -496.152)" fill="#1a2e35"/>
          </g>
        </g>
        <g id="Grupo_144801" data-name="Grupo 144801" transform="translate(22.379 35.768)">
          <g id="Grupo_144800" data-name="Grupo 144800">
            <path id="Trazado_217587" data-name="Trazado 217587" d="M559.477,506.608c-.11,0-.2-2.1-.407-4.677s-.458-4.665-.35-4.682a31.292,31.292,0,0,1,.757,9.359Z" transform="translate(-558.694 -497.249)" fill="#1a2e35"/>
          </g>
        </g>
        <g id="Grupo_144803" data-name="Grupo 144803" transform="translate(22.129)">
          <g id="Grupo_144802" data-name="Grupo 144802">
            <path id="Trazado_217588" data-name="Trazado 217588" d="M578.491,413.568a.5.5,0,0,1-.085.118l-.274.324-1.083,1.231-4.092,4.558-14.13,15.563-.189-.3a4.361,4.361,0,0,1,2.467-.1,5.264,5.264,0,0,1,2.076,1.444,19.919,19.919,0,0,1,3.259,3.978,19,19,0,0,1,2.617,7.387l-.314-.11A60.717,60.717,0,0,0,577,438.339a43.253,43.253,0,0,0,2.8-4.549,37.58,37.58,0,0,0,1.879-4.205,36.062,36.062,0,0,0,1.738-6.356c.145-.76.2-1.357.269-1.756l.073-.454a.541.541,0,0,1,.036-.153.55.55,0,0,1,0,.157c-.011.123-.023.274-.04.459-.048.4-.081,1-.207,1.769a33.756,33.756,0,0,1-1.64,6.42,36.869,36.869,0,0,1-1.851,4.255,42.653,42.653,0,0,1-2.784,4.6,59.986,59.986,0,0,1-8.269,9.4l-.263.247-.051-.358a18.7,18.7,0,0,0-2.571-7.239,19.624,19.624,0,0,0-3.2-3.9A4.925,4.925,0,0,0,561,435.317a4,4,0,0,0-2.254.1l-.633.181.445-.483,14.23-15.472,4.172-4.485,1.129-1.19.3-.3C578.45,413.6,578.487,413.564,578.491,413.568Z" transform="translate(-558.109 -413.567)" fill="#1a2e35"/>
          </g>
        </g>
        <g id="Grupo_144805" data-name="Grupo 144805" transform="translate(0 7.379)">
          <g id="Grupo_144804" data-name="Grupo 144804">
            <path id="Trazado_217589" data-name="Trazado 217589" d="M547.336,449.419a.682.682,0,0,1-.077.153l-.254.434c-.23.378-.581.931-1.06,1.631a64.956,64.956,0,0,1-4.444,5.713c-.505.581-1.042,1.187-1.62,1.8a22.151,22.151,0,0,0-1.716,1.982c-1.111,1.442-2.234,3.048-3.412,4.755-2.349,3.418-4.891,7.265-7.56,11.391l-.173.267-.15-.28c-1.344-2.511-2.736-5.117-4.226-7.749-1.473-2.6-2.97-5.1-4.543-7.426s-3.244-4.475-4.757-6.579a57.219,57.219,0,0,1-4-6.187,24.546,24.546,0,0,1-2.357-5.975,21.742,21.742,0,0,1-.284-9.244,16.86,16.86,0,0,1,.923-3.277,1.022,1.022,0,0,1-.049.219l-.179.63c-.154.554-.36,1.378-.549,2.453a22.1,22.1,0,0,0,.4,9.153,24.488,24.488,0,0,0,2.373,5.889,57.808,57.808,0,0,0,4.007,6.132c1.517,2.094,3.184,4.243,4.781,6.574s3.09,4.846,4.566,7.448c1.494,2.638,2.884,5.247,4.224,7.761l-.323-.013c2.679-4.125,5.236-7.963,7.607-11.374,1.189-1.7,2.323-3.3,3.453-4.747a22.315,22.315,0,0,1,1.749-1.986c.581-.609,1.121-1.207,1.631-1.781,2.034-2.3,3.531-4.256,4.519-5.628.495-.686.862-1.226,1.111-1.592l.282-.416A.641.641,0,0,1,547.336,449.419Z" transform="translate(-506.338 -430.831)" fill="#1a2e35"/>
          </g>
        </g>
      </g>
      <g id="Grupo_144834" data-name="Grupo 144834" transform="translate(51.028 148.398)">
        <g id="Grupo_144807" data-name="Grupo 144807" transform="translate(31.472)">
          <path id="Trazado_217590" data-name="Trazado 217590" d="M468.87,579.667l-.983-24.806.737-5.563s7.752,2.108,29.754,2.108a259.967,259.967,0,0,0,49.7-5.23l2.324,4.59h0l-7.757,58.37H472Z" transform="translate(-467.887 -546.176)" fill="#fff"/>
        </g>
        <g id="Grupo_144815" data-name="Grupo 144815" transform="translate(0.255 28.387)">
          <g id="Grupo_144808" data-name="Grupo 144808">
            <path id="Trazado_217591" data-name="Trazado 217591" d="M407.4,620.023l10.179,1.157,3.858-5.356,5.286-3.233.326,5.1a58.832,58.832,0,0,0,6.82,2.285c2.567.533,5.655.78,7.165,1.934,1.115.852,1.1,3.5-.423,3.966l-3.742.819s12.881.642,13.958.708c2.621.159,3.874,1.775,3.1,3.692-.475,1.17-2.321,1.564-2.905,1.8l-.585.234s2.722.521,2.808,2.193A2.337,2.337,0,0,1,451.038,638c-.733.153-1.067.158-3.757.509s-6.664.468-6.664.468a1.519,1.519,0,0,1,.146,2.224c-.951,1.156-8.2,1.564-8.2,1.564l-6.122,1.259a23.67,23.67,0,0,1-11.08-.371h0l-5.012-2.417-15.5-1.11s-.092-5.235,1.566-8.957C400.3,622.45,407.4,620.023,407.4,620.023Z" transform="translate(-394.854 -612.59)" fill="#ffbf9d"/>
          </g>
          <g id="Grupo_144810" data-name="Grupo 144810" transform="translate(36.128 13.5)">
            <g id="Grupo_144809" data-name="Grupo 144809">
              <path id="Trazado_217592" data-name="Trazado 217592" d="M487.594,644.2a17.086,17.086,0,0,1-4.083.637,15.817,15.817,0,0,1-4.133,0,38.449,38.449,0,0,1,4.1-.38A32.481,32.481,0,0,1,487.594,644.2Z" transform="translate(-479.378 -644.173)" fill="#ff9a6c"/>
            </g>
          </g>
          <g id="Grupo_144812" data-name="Grupo 144812" transform="translate(38.652 19.905)">
            <g id="Grupo_144811" data-name="Grupo 144811">
              <path id="Trazado_217593" data-name="Trazado 217593" d="M502.216,659.792a15.921,15.921,0,0,1-2.484.052c-1.533-.017-3.65-.067-5.988-.146s-4.454-.173-5.985-.26a15.47,15.47,0,0,1-2.475-.223,16.466,16.466,0,0,1,2.484-.047c1.533.018,3.651.068,5.989.148s4.453.172,5.984.258A15.976,15.976,0,0,1,502.216,659.792Z" transform="translate(-485.284 -659.16)" fill="#ff9a6c"/>
            </g>
          </g>
          <g id="Grupo_144814" data-name="Grupo 144814" transform="translate(33.994 25.685)">
            <g id="Grupo_144813" data-name="Grupo 144813">
              <path id="Trazado_217594" data-name="Trazado 217594" d="M488.267,673.3a9.655,9.655,0,0,1-2.038.1c-1.259,0-3-.062-4.912-.169l-4.9-.281a12.194,12.194,0,0,1-2.03-.171,9.622,9.622,0,0,1,2.038-.1c1.259,0,3,.063,4.913.17l4.9.281A12.221,12.221,0,0,1,488.267,673.3Z" transform="translate(-474.386 -672.681)" fill="#ff9a6c"/>
            </g>
          </g>
        </g>
        <g id="Grupo_144823" data-name="Grupo 144823" transform="translate(87.739 30.207)">
          <g id="Grupo_144816" data-name="Grupo 144816">
            <path id="Trazado_217595" data-name="Trazado 217595" d="M609.261,628.333s-1.168-3.016,1.344-3.895,11.054-3.894,11.431-4.02l.17-2.3,5.232.539a15,15,0,0,1,3.769-1.666c1.633-.344,2.638-.218,4.145,1.917a50.4,50.4,0,0,0,5.15,5.527l4.89.5s5.375,4.776,6.582,10.957a44.208,44.208,0,0,1,.63,6.289c-.766,1.514-3.524,2.088-7.078,2.229l-4.145.11a2.558,2.558,0,0,1-2.3,2.41c-1.664.245-6.26-.279-7.562.062a24.746,24.746,0,0,1-4.07,0c-3.431-.583-13.1-1.491-13.323-5.094l-10.445.218a3.51,3.51,0,0,1-3.239-1.886,1.657,1.657,0,0,1-.165-1.3,2.816,2.816,0,0,1,.445-.788A3.188,3.188,0,0,1,602.879,637l14.006-1.535h0a.793.793,0,0,0-.569-1.427c-4.92.64-14.092,1.77-15.007,1.427-1.256-.472-1.779-2.212-1.781-3.055,0-1.333,2.283-2.423,4.614-2.884C607.061,628.946,609.261,628.333,609.261,628.333Z" transform="translate(-599.528 -616.849)" fill="#ffbf9d"/>
          </g>
          <g id="Grupo_144818" data-name="Grupo 144818" transform="translate(7.187 8.128)">
            <g id="Grupo_144817" data-name="Grupo 144817">
              <path id="Trazado_217596" data-name="Trazado 217596" d="M633.228,635.875a17.47,17.47,0,0,1-2.454.679l-5.968,1.43-5.972,1.416a18.174,18.174,0,0,1-2.491.523,2.365,2.365,0,0,1,.639-.25c.418-.138,1.028-.32,1.784-.535,1.513-.428,3.616-.973,5.951-1.526s4.456-1.012,6-1.321A16.2,16.2,0,0,1,633.228,635.875Z" transform="translate(-616.343 -635.866)" fill="#ff9a6c"/>
            </g>
          </g>
          <g id="Grupo_144820" data-name="Grupo 144820" transform="translate(14.533 24.521)">
            <g id="Grupo_144819" data-name="Grupo 144819">
              <path id="Trazado_217597" data-name="Trazado 217597" d="M647.37,674.286a125.2,125.2,0,0,1-13.841.462,125.491,125.491,0,0,1,13.841-.462Z" transform="translate(-633.529 -674.217)" fill="#ff9a6c"/>
            </g>
          </g>
          <g id="Grupo_144822" data-name="Grupo 144822" transform="translate(21.383 1.283)">
            <g id="Grupo_144821" data-name="Grupo 144821">
              <path id="Trazado_217598" data-name="Trazado 217598" d="M657.616,619.862a47.482,47.482,0,0,1-8.061,2.734,47.4,47.4,0,0,1,8.061-2.734Z" transform="translate(-649.554 -619.85)" fill="#ff9a6c"/>
            </g>
          </g>
        </g>
        <g id="Grupo_144825" data-name="Grupo 144825" transform="translate(131.766 36.78)">
          <g id="Grupo_144824" data-name="Grupo 144824">
            <path id="Trazado_217599" data-name="Trazado 217599" d="M709.566,656.007a5.339,5.339,0,0,1,.526-.932c.177-.293.4-.651.62-1.078a5.953,5.953,0,0,0,.5-1.544,18.026,18.026,0,0,0-.958-9.351,23.74,23.74,0,0,0-4.856-8.13c-1.647-1.812-2.91-2.683-2.859-2.745a5.754,5.754,0,0,1,.888.6,20.218,20.218,0,0,1,2.169,1.959,22.6,22.6,0,0,1,5.02,8.189,17.5,17.5,0,0,1,.861,9.537,5.907,5.907,0,0,1-.572,1.585c-.246.43-.487.776-.684,1.059A6.2,6.2,0,0,1,709.566,656.007Z" transform="translate(-702.534 -632.226)" fill="#1a2e35"/>
          </g>
        </g>
        <g id="Grupo_144827" data-name="Grupo 144827" transform="translate(31.372 4.392)">
          <g id="Grupo_144826" data-name="Grupo 144826">
            <path id="Trazado_217600" data-name="Trazado 217600" d="M546.529,585.838s.007-.182.044-.533q.062-.55.175-1.549c.166-1.375.407-3.364.713-5.9.639-5.107,1.551-12.4,2.655-21.229l.188.174c-5.426,1.133-11.479,2.289-17.993,3.392-3.257.55-6.632,1.07-10.105,1.541s-7.045.883-10.707,1.082c-4.187.213-8.286.115-12.256-.006s-7.816-.329-11.5-.546c-7.373-.452-14.111-.978-19.943-1.505l.16-.152c.258,7.648.468,13.877.614,18.214.063,2.146.112,3.824.146,4.983q.017.836.027,1.3c0,.293-.006.444-.006.444s-.02-.15-.038-.442l-.07-1.3c-.053-1.158-.128-2.835-.225-4.98-.177-4.335-.431-10.564-.742-18.21l-.007-.166.167.014c5.83.5,12.568,1,19.937,1.44,3.685.21,7.528.4,11.494.528s8.06.212,12.224,0c3.643-.2,7.21-.611,10.677-1.075s6.84-.982,10.1-1.526c6.51-1.09,12.565-2.229,17.989-3.339l.217-.044-.029.218-2.788,21.212c-.343,2.528-.612,4.514-.8,5.886q-.142,1-.221,1.543C546.568,585.66,546.529,585.838,546.529,585.838Z" transform="translate(-467.655 -556.452)" fill="#1a2e35"/>
          </g>
        </g>
        <g id="Grupo_144829" data-name="Grupo 144829" transform="translate(31.684 3.656)">
          <g id="Grupo_144828" data-name="Grupo 144828">
            <path id="Trazado_217601" data-name="Trazado 217601" d="M550.51,554.732a.9.9,0,0,1-.205.061l-.61.141-2.353.508c-2.043.444-5.016,1.013-8.7,1.647-1.844.306-3.863.652-6.042.948-2.174.332-4.506.613-6.961.907-4.914.55-10.333,1.018-16.034,1.274-5.7.236-11.145.236-16.088.1-2.471-.085-4.82-.169-7.014-.32-2.2-.112-4.237-.293-6.1-.447-1.865-.137-3.544-.348-5.021-.495s-2.746-.312-3.782-.451l-2.386-.322-.619-.093a.862.862,0,0,1-.209-.045.914.914,0,0,1,.214.006l.624.056,2.393.251c1.038.115,2.308.26,3.787.386s3.157.318,5.021.438c1.863.136,3.9.3,6.1.4,2.192.137,4.537.208,7.005.284,4.936.112,10.368.1,16.062-.135,5.692-.256,11.1-.712,16.011-1.242,2.452-.284,4.783-.553,6.956-.871,2.178-.282,4.2-.612,6.042-.9,3.687-.6,6.664-1.127,8.715-1.526l2.367-.438.617-.1A.9.9,0,0,1,550.51,554.732Z" transform="translate(-468.385 -554.73)" fill="#1a2e35"/>
          </g>
        </g>
        <g id="Grupo_144831" data-name="Grupo 144831" transform="translate(31.944 1.399)">
          <g id="Grupo_144830" data-name="Grupo 144830">
            <path id="Trazado_217602" data-name="Trazado 217602" d="M550.88,549.451a.914.914,0,0,1-.192.1l-.576.244c-.5.222-1.264.507-2.251.852a54.545,54.545,0,0,1-8.592,2.113,123.546,123.546,0,0,1-13.056,1.314c-4.928.281-10.346.574-16.04.79A254.451,254.451,0,0,1,481,554.517c-3.725-.274-6.729-.62-8.8-.877l-2.382-.329-.618-.095a.892.892,0,0,1-.209-.045.872.872,0,0,1,.214.006l.623.057,2.389.258c2.076.211,5.08.516,8.8.755a275.178,275.178,0,0,0,29.14.23c5.688-.216,11.107-.5,16.034-.76a129.559,129.559,0,0,0,13.032-1.229,58.461,58.461,0,0,0,8.589-1.988c.991-.321,1.757-.584,2.27-.782l.589-.209A.9.9,0,0,1,550.88,549.451Z" transform="translate(-468.992 -549.45)" fill="#1a2e35"/>
          </g>
        </g>
        <g id="Grupo_144833" data-name="Grupo 144833" transform="translate(0 35.817)">
          <g id="Grupo_144832" data-name="Grupo 144832">
            <path id="Trazado_217603" data-name="Trazado 217603" d="M396.23,654.508c-.011.008-.078-.073-.2-.235a6.372,6.372,0,0,1-.485-.734,9.34,9.34,0,0,1-1.106-3.041,13.5,13.5,0,0,1,.062-4.8,24.4,24.4,0,0,1,1.8-5.588,20.074,20.074,0,0,1,6.888-8.025,21.928,21.928,0,0,1,2.778-1.643c.339-.174.615-.283.8-.365a.93.93,0,0,1,.29-.1,8.226,8.226,0,0,1-1.018.6,27.763,27.763,0,0,0-2.691,1.732,20.665,20.665,0,0,0-6.7,7.963,25.142,25.142,0,0,0-1.8,5.494,13.749,13.749,0,0,0-.142,4.689,10.056,10.056,0,0,0,.97,3.016C396.026,654.136,396.26,654.487,396.23,654.508Z" transform="translate(-394.257 -629.974)" fill="#1a2e35"/>
          </g>
        </g>
      </g>
    </g>
    <g id="Grupo_144848" data-name="Grupo 144848" transform="translate(519.403 400.306)">
      <g id="Grupo_144836" data-name="Grupo 144836" transform="translate(0 3.886)">
        <rect id="Rectngulo_42881" data-name="Rectngulo 42881" width="44.937" height="3.546" fill="#1b3f5e"/>
      </g>
      <g id="Grupo_144837" data-name="Grupo 144837" transform="translate(1.893)">
        <path id="Trazado_217604" data-name="Trazado 217604" d="M892.746,673.872H851.4a3.886,3.886,0,0,1,3.886-3.886H888.86a3.886,3.886,0,0,1,3.886,3.886Z" transform="translate(-851.396 -669.986)" fill="#1b3f5e"/>
      </g>
      <g id="Grupo_144839" data-name="Grupo 144839" transform="translate(0.299 4.194)">
        <g id="Grupo_144838" data-name="Grupo 144838">
          <path id="Trazado_217605" data-name="Trazado 217605" d="M859.366,679.884a9.7,9.7,0,0,0-1.775.08,16.079,16.079,0,0,0-4.058,1.379,17.425,17.425,0,0,1-4.076,1.438,6.715,6.715,0,0,1-1.31.109c-.155,0-.275-.016-.357-.021a.376.376,0,0,1-.123-.02,3.98,3.98,0,0,1,.479-.018,7.9,7.9,0,0,0,1.29-.155,19.121,19.121,0,0,0,4.033-1.471,14.9,14.9,0,0,1,4.1-1.347A5.248,5.248,0,0,1,859.366,679.884Z" transform="translate(-847.668 -679.799)" fill="#375a64"/>
        </g>
      </g>
      <g id="Grupo_144841" data-name="Grupo 144841" transform="translate(7.55 4.525)">
        <g id="Grupo_144840" data-name="Grupo 144840">
          <path id="Trazado_217606" data-name="Trazado 217606" d="M864.63,683.493a7.967,7.967,0,0,1,.8-.654,11.211,11.211,0,0,1,2.469-1.366,12.5,12.5,0,0,1,4.087-.887,11.643,11.643,0,0,1,2.475.137,10.613,10.613,0,0,1,1.282.284,3.416,3.416,0,0,1,.646.218.792.792,0,0,1,.475.544.59.59,0,0,1-.429.577c-.221.09-.435.133-.649.2-.428.115-.853.219-1.274.306a22.942,22.942,0,0,1-6.633.421.805.805,0,0,1-.75-.414.424.424,0,0,1,.057-.415.979.979,0,0,1,.292-.247,3.8,3.8,0,0,1,1.136-.445,2.935,2.935,0,0,1,1.033-.063c0,.007-.092,0-.267.012a4.064,4.064,0,0,0-.753.109,3.844,3.844,0,0,0-1.1.46c-.19.11-.406.317-.3.552a.708.708,0,0,0,.669.342,23.829,23.829,0,0,0,4.163-.071,23.5,23.5,0,0,0,2.43-.388c.418-.088.839-.192,1.265-.307.209-.063.434-.111.629-.191s.36-.228.336-.419-.209-.33-.392-.426a3.331,3.331,0,0,0-.617-.207,10.7,10.7,0,0,0-1.265-.283,11.658,11.658,0,0,0-2.445-.144,12.624,12.624,0,0,0-4.052.847,11.835,11.835,0,0,0-2.475,1.315c-.281.178-.475.349-.618.45S864.63,683.493,864.63,683.493Z" transform="translate(-864.63 -680.572)" fill="#375a64"/>
        </g>
      </g>
      <g id="Grupo_144843" data-name="Grupo 144843" transform="translate(20.035 3.822)">
        <g id="Grupo_144842" data-name="Grupo 144842">
          <path id="Trazado_217607" data-name="Trazado 217607" d="M902.832,678.963c0,.031-.556-.009-1.434.133a8.113,8.113,0,0,0-3.2,1.254,16.891,16.891,0,0,1-2.944,1.879,3.9,3.9,0,0,1-1.029.277,1.28,1.28,0,0,1-.39.008,5.274,5.274,0,0,0,1.377-.385,19.628,19.628,0,0,0,2.9-1.908,7.725,7.725,0,0,1,3.264-1.233,6.6,6.6,0,0,1,1.061-.06A1.62,1.62,0,0,1,902.832,678.963Z" transform="translate(-893.84 -678.927)" fill="#375a64"/>
        </g>
      </g>
      <g id="Grupo_144845" data-name="Grupo 144845" transform="translate(26.564 4.402)">
        <g id="Grupo_144844" data-name="Grupo 144844">
          <path id="Trazado_217608" data-name="Trazado 217608" d="M927.387,681.1a1.857,1.857,0,0,1-.7.268,4.5,4.5,0,0,1-2.041-.163,14.921,14.921,0,0,0-2.96-.607c-1.133-.11-2.391-.122-3.709-.156a22.187,22.187,0,0,0-3.7.179,10.411,10.411,0,0,0-2.889.84,7.635,7.635,0,0,0-1.716,1.084c-.366.312-.544.513-.556.5a4.2,4.2,0,0,1,.516-.548,7.191,7.191,0,0,1,1.708-1.137,10.234,10.234,0,0,1,2.914-.882,21.438,21.438,0,0,1,3.722-.193c1.319.033,2.577.05,3.72.168a14.417,14.417,0,0,1,2.973.643,4.628,4.628,0,0,0,2,.209A3.593,3.593,0,0,0,927.387,681.1Z" transform="translate(-909.115 -680.286)" fill="#375a64"/>
        </g>
      </g>
      <g id="Grupo_144847" data-name="Grupo 144847" transform="translate(31.701 5.679)">
        <g id="Grupo_144846" data-name="Grupo 144846">
          <path id="Trazado_217609" data-name="Trazado 217609" d="M934.217,684.453a3.137,3.137,0,0,1-.521.126,7.052,7.052,0,0,1-1.461.076,26.958,26.958,0,0,1-4.72-.916,11.728,11.728,0,0,0-2.6-.324,6.458,6.458,0,0,0-2.1.354,5.066,5.066,0,0,0-1.678,1.019,2.39,2.39,0,0,1,.375-.385,4.395,4.395,0,0,1,1.266-.735,6.34,6.34,0,0,1,2.135-.394,11.411,11.411,0,0,1,2.639.315,30.509,30.509,0,0,0,4.694.957,8.028,8.028,0,0,0,1.446-.027C934.028,684.48,934.214,684.439,934.217,684.453Z" transform="translate(-921.134 -683.272)" fill="#375a64"/>
        </g>
      </g>
    </g>
    <g id="Grupo_144886" data-name="Grupo 144886" transform="translate(484.542 360.674)">
      <g id="Grupo_144849" data-name="Grupo 144849" transform="translate(0 20.303)">
        <path id="Trazado_217610" data-name="Trazado 217610" d="M765.63,649.425a3.365,3.365,0,0,0,4.307,1.956l56.72-21-2.848-5.614L767.63,645.059A3.365,3.365,0,0,0,765.63,649.425Z" transform="translate(-765.407 -624.766)" fill="#1b3f5e"/>
      </g>
      <g id="Grupo_144850" data-name="Grupo 144850" transform="translate(53.789)">
        <path id="Trazado_217611" data-name="Trazado 217611" d="M891.451,588.369l2.138,6.968,21.8-7.467-1.91-7a4.1,4.1,0,0,0-2.432-2.724c-2.313-.931-5.771-1.441-11.011.136a14.107,14.107,0,0,0-8.266,6.838A4.04,4.04,0,0,0,891.451,588.369Z" transform="translate(-891.25 -577.265)" fill="#1b3f5e"/>
      </g>
      <g id="Grupo_144851" data-name="Grupo 144851" transform="translate(56.035 8.651)">
        <path id="Trazado_217612" data-name="Trazado 217612" d="M918.37,599.152c.777,2.176-3.466,5.681-9.479,7.828s-11.516,2.122-12.293-.055,3.466-5.681,9.479-7.828S917.592,596.975,918.37,599.152Z" transform="translate(-896.506 -597.504)" fill="#1a2e35"/>
      </g>
      <g id="Grupo_144852" data-name="Grupo 144852" transform="translate(58.362 10.94)">
        <path id="Trazado_217613" data-name="Trazado 217613" d="M921.909,605.422s-2.479-4.628-11.742-1.444c-7.543,2.594-8.225,6.431-8.219,7.766a2.6,2.6,0,0,0,.039.479l1.768,4.972a3.823,3.823,0,0,0,1.185,1.682l.352.287a3.825,3.825,0,0,0,3.924.552l12.4-5.313a3.824,3.824,0,0,0,2.318-3.515h0a3.819,3.819,0,0,0-.314-1.517Z" transform="translate(-901.949 -602.86)" fill="#1b3f5e"/>
      </g>
      <g id="Grupo_144855" data-name="Grupo 144855" transform="translate(60.483 19.31)">
        <g id="Grupo_144853" data-name="Grupo 144853">
          <path id="Trazado_217614" data-name="Trazado 217614" d="M909.616,640.294l-2.668-7.645s-1.16-5.978,9.568-9.319,13.025,3.814,13.025,3.814l2.174,6.411Z" transform="translate(-906.911 -622.441)" fill="#1b3f5e"/>
        </g>
        <g id="Grupo_144854" data-name="Grupo 144854" transform="translate(2.592 8.289)">
          <path id="Trazado_217615" data-name="Trazado 217615" d="M935.119,644.39c.869,2.731-3.359,6.513-9.443,8.448s-11.719,1.29-12.588-1.441,3.359-6.513,9.443-8.448S934.25,641.66,935.119,644.39Z" transform="translate(-912.975 -641.833)" fill="#1a2e35"/>
        </g>
      </g>
      <g id="Grupo_144857" data-name="Grupo 144857" transform="translate(60.593 19.178)">
        <g id="Grupo_144856" data-name="Grupo 144856">
          <path id="Trazado_217616" data-name="Trazado 217616" d="M927.055,623.71a10.993,10.993,0,0,0-3.394-1.135,19.55,19.55,0,0,0-8.539,1.122,14.95,14.95,0,0,0-4.22,2.17,9.84,9.84,0,0,0-2.582,2.86,9.161,9.161,0,0,0-1.128,3.384c-.013,0-.021-.087-.024-.254a4.744,4.744,0,0,1,.051-.727,7.371,7.371,0,0,1,.864-2.536,9.733,9.733,0,0,1,2.6-3.007A14.724,14.724,0,0,1,915,623.334a18.67,18.67,0,0,1,8.705-1.027,8.1,8.1,0,0,1,2.538.855,4.522,4.522,0,0,1,.618.385C927,623.643,927.063,623.7,927.055,623.71Z" transform="translate(-907.169 -622.133)" fill="#1a2e35"/>
        </g>
      </g>
      <g id="Grupo_144859" data-name="Grupo 144859" transform="translate(58.299 20.2)">
        <g id="Grupo_144858" data-name="Grupo 144858">
          <path id="Trazado_217617" data-name="Trazado 217617" d="M904.149,630.37a25.965,25.965,0,0,1-2.334-5.844,25.993,25.993,0,0,1,2.334,5.844Z" transform="translate(-901.801 -624.525)" fill="#1a2e35"/>
        </g>
      </g>
      <g id="Grupo_144861" data-name="Grupo 144861" transform="translate(1.03 36.008)">
        <g id="Grupo_144860" data-name="Grupo 144860">
          <path id="Trazado_217618" data-name="Trazado 217618" d="M782.078,661.509c.006.013-.22.112-.614.317a11.562,11.562,0,0,0-1.582,1.01,40.426,40.426,0,0,0-4.469,4.3,14.249,14.249,0,0,1-5.057,3.589,6.851,6.851,0,0,1-1.845.412,4.646,4.646,0,0,1-.693.006c0-.016.247-.017.687-.065a7.352,7.352,0,0,0,1.814-.454,14.674,14.674,0,0,0,4.985-3.595,36.6,36.6,0,0,1,4.514-4.283A8.635,8.635,0,0,1,782.078,661.509Z" transform="translate(-767.818 -661.509)" fill="#1a2e35"/>
        </g>
      </g>
      <g id="Grupo_144863" data-name="Grupo 144863" transform="translate(12.173 30.85)">
        <g id="Grupo_144862" data-name="Grupo 144862">
          <path id="Trazado_217619" data-name="Trazado 217619" d="M810.53,653.722s-.2.055-.569.148-.924.235-1.629.432a47.735,47.735,0,0,0-5.841,2.037,1.2,1.2,0,0,0-.657.665.591.591,0,0,0,.335.789,2.076,2.076,0,0,0,1.045-.077l1.1-.257c1.494-.362,3.072-.825,4.7-1.393a51.448,51.448,0,0,0,5.014-2.06q1.273-.607,2.555-1.3a4.351,4.351,0,0,0,1.148-.863,1.326,1.326,0,0,0,.367-1.292,1.473,1.473,0,0,0-1.032-.885,3.061,3.061,0,0,0-1.419.028c-.94.223-1.87.473-2.779.713-1.818.489-3.561,1-5.191,1.575a30.982,30.982,0,0,0-8.161,4.127,20.3,20.3,0,0,0-4.4,4.313c-.43.591-.735,1.071-.93,1.4s-.3.5-.3.5a13.575,13.575,0,0,1,1.185-1.941,19.954,19.954,0,0,1,4.386-4.365,30.8,30.8,0,0,1,8.178-4.173c1.633-.582,3.38-1.1,5.2-1.587.912-.242,1.834-.491,2.786-.717a3.2,3.2,0,0,1,1.492-.026,1.622,1.622,0,0,1,1.136.985,1.48,1.48,0,0,1-.4,1.44,4.5,4.5,0,0,1-1.189.895q-1.284.7-2.564,1.3a50.967,50.967,0,0,1-5.031,2.058c-1.638.565-3.222,1.025-4.721,1.383l-1.107.253a2.157,2.157,0,0,1-1.109.069.647.647,0,0,1-.407-.388.847.847,0,0,1,0-.547,1.311,1.311,0,0,1,.716-.727,45.323,45.323,0,0,1,5.875-2C809.733,653.869,810.53,653.722,810.53,653.722Z" transform="translate(-793.887 -649.44)" fill="#1a2e35"/>
        </g>
      </g>
      <g id="Grupo_144865" data-name="Grupo 144865" transform="translate(38.674 24.816)">
        <g id="Grupo_144864" data-name="Grupo 144864">
          <path id="Trazado_217620" data-name="Trazado 217620" d="M862.812,635.323a8.944,8.944,0,0,0-1.214,1.188,17.332,17.332,0,0,0-2.04,3.56,11.866,11.866,0,0,1-2.257,3.46,4.309,4.309,0,0,1-1.413.967,7.428,7.428,0,0,0,1.336-1.044,12.626,12.626,0,0,0,2.2-3.449,15.843,15.843,0,0,1,2.094-3.563A4.85,4.85,0,0,1,862.812,635.323Z" transform="translate(-855.887 -635.323)" fill="#1a2e35"/>
        </g>
      </g>
      <g id="Grupo_144867" data-name="Grupo 144867" transform="translate(44.18 23.4)">
        <g id="Grupo_144866" data-name="Grupo 144866">
          <path id="Trazado_217621" data-name="Trazado 217621" d="M868.77,640.758c-.018-.028.5-.316,1.217-.927a10.367,10.367,0,0,0,3.505-6.3c.14-.934.114-1.523.147-1.523a2.1,2.1,0,0,1,.026.412,7.379,7.379,0,0,1-.065,1.125,9.843,9.843,0,0,1-3.543,6.365,7.332,7.332,0,0,1-.922.648A2.119,2.119,0,0,1,868.77,640.758Z" transform="translate(-868.77 -632.011)" fill="#1a2e35"/>
        </g>
      </g>
      <g id="Grupo_144869" data-name="Grupo 144869" transform="translate(48.326 23.631)">
        <g id="Grupo_144868" data-name="Grupo 144868">
          <path id="Trazado_217622" data-name="Trazado 217622" d="M888.8,632.552a3.23,3.23,0,0,1-.5.072,11.51,11.51,0,0,0-1.361.235,12.737,12.737,0,0,0-7.445,4.9,11.547,11.547,0,0,0-.754,1.157,3.249,3.249,0,0,1-.266.434,8.963,8.963,0,0,1,.932-1.655,12.219,12.219,0,0,1,7.51-4.944A8.966,8.966,0,0,1,888.8,632.552Z" transform="translate(-878.469 -632.55)" fill="#1a2e35"/>
        </g>
      </g>
      <g id="Grupo_144871" data-name="Grupo 144871" transform="translate(59.399 15.211)">
        <g id="Grupo_144870" data-name="Grupo 144870">
          <path id="Trazado_217623" data-name="Trazado 217623" d="M916.694,614.548s-.124.033-.362.081l-1.045.2-1.655.312-1.033.192a6.489,6.489,0,0,0-1.136.265c-.366.127-.773.45-.66.884a1.029,1.029,0,0,0,1.057.638,19.807,19.807,0,0,0,3.065-.345,21.949,21.949,0,0,0,3.3-.885c.541-.2,1.182-.387,1.417-.933a1.389,1.389,0,0,0-.568-1.544,2.887,2.887,0,0,0-1.739-.41c-.607.017-1.213.072-1.8.127a22.555,22.555,0,0,0-3.367.562,11.916,11.916,0,0,0-5.111,2.563,8.552,8.552,0,0,0-2.262,3.127,7.708,7.708,0,0,0-.323,1.009c-.053.236-.089.36-.089.36a5.662,5.662,0,0,1,.357-1.391,8.447,8.447,0,0,1,2.246-3.186,11.921,11.921,0,0,1,5.148-2.619,22.313,22.313,0,0,1,3.388-.575c.594-.056,1.195-.112,1.815-.13a3.026,3.026,0,0,1,1.832.439,1.536,1.536,0,0,1,.618,1.726,1.405,1.405,0,0,1-.664.674,6.144,6.144,0,0,1-.843.343,21.887,21.887,0,0,1-3.32.882,19.62,19.62,0,0,1-3.095.333,1.146,1.146,0,0,1-1.168-.737.728.728,0,0,1,.18-.666,1.491,1.491,0,0,1,.554-.348,6.52,6.52,0,0,1,1.158-.26l1.036-.181,1.659-.286,1.05-.175C916.567,614.56,916.694,614.548,916.694,614.548Z" transform="translate(-904.376 -612.851)" fill="#1a2e35"/>
        </g>
      </g>
      <g id="Grupo_144873" data-name="Grupo 144873" transform="translate(64.764 12.178)">
        <g id="Grupo_144872" data-name="Grupo 144872">
          <path id="Trazado_217624" data-name="Trazado 217624" d="M930.937,608.056a5.528,5.528,0,0,1-.484-.3,10.732,10.732,0,0,0-1.367-.722,14.023,14.023,0,0,0-4.949-1.1,30.616,30.616,0,0,0-5.1.263l-1.541.19-.42.047a.546.546,0,0,1-.148.006.561.561,0,0,1,.144-.037l.415-.075c.362-.062.886-.147,1.536-.239a27.552,27.552,0,0,1,5.121-.308,13.433,13.433,0,0,1,4.986,1.157A7.726,7.726,0,0,1,930.937,608.056Z" transform="translate(-916.928 -605.756)" fill="#1a2e35"/>
        </g>
      </g>
      <g id="Grupo_144875" data-name="Grupo 144875" transform="translate(53.952 4.8)">
        <g id="Grupo_144874" data-name="Grupo 144874">
          <path id="Trazado_217625" data-name="Trazado 217625" d="M914.277,590.567c-.014.013-.223-.258-.7-.636a6.034,6.034,0,0,0-2.306-1.091,8.292,8.292,0,0,0-3.779,0,20.085,20.085,0,0,0-4.385,1.622,41.345,41.345,0,0,1-4.309,1.9,10.757,10.757,0,0,1-3.787.653,6.961,6.961,0,0,1-2.54-.506,4.311,4.311,0,0,1-.84-.446,1.464,1.464,0,0,1,.222.106,5.624,5.624,0,0,0,.64.285,7.2,7.2,0,0,0,2.52.453,10.851,10.851,0,0,0,3.739-.678,43.2,43.2,0,0,0,4.29-1.9,19.782,19.782,0,0,1,4.421-1.622,8.3,8.3,0,0,1,3.834.034,5.914,5.914,0,0,1,2.318,1.149A3.806,3.806,0,0,1,914.277,590.567Z" transform="translate(-891.631 -588.495)" fill="#1a2e35"/>
        </g>
      </g>
      <g id="Grupo_144877" data-name="Grupo 144877" transform="translate(55.737 0.55)">
        <g id="Grupo_144876" data-name="Grupo 144876">
          <path id="Trazado_217626" data-name="Trazado 217626" d="M909.458,578.553a12.7,12.7,0,0,1-1.561,1.616,17,17,0,0,1-9.844,4.18,12.7,12.7,0,0,1-2.246,0,.616.616,0,0,1,.156-.013l.446-.006c.386,0,.947-.023,1.635-.089a17.788,17.788,0,0,0,9.783-4.154c.525-.449.934-.833,1.2-1.114l.315-.317A.624.624,0,0,1,909.458,578.553Z" transform="translate(-895.807 -578.552)" fill="#1a2e35"/>
        </g>
      </g>
      <g id="Grupo_144879" data-name="Grupo 144879" transform="translate(54.235 6.738)">
        <g id="Grupo_144878" data-name="Grupo 144878">
          <path id="Trazado_217627" data-name="Trazado 217627" d="M914.3,594.644c-.01.016-.271-.174-.786-.44a9.279,9.279,0,0,0-2.306-.8,12.24,12.24,0,0,0-3.614-.179,20.138,20.138,0,0,0-4.338.964c-1.5.493-2.906,1.057-4.193,1.542s-2.458.893-3.462,1.172a18.84,18.84,0,0,1-2.41.518,8.364,8.364,0,0,1-.9.085,1.379,1.379,0,0,1,.23-.042l.66-.1a21.5,21.5,0,0,0,2.39-.562c1-.291,2.161-.7,3.442-1.2s2.684-1.061,4.2-1.555a19.783,19.783,0,0,1,4.373-.96,12.069,12.069,0,0,1,3.649.214,8.833,8.833,0,0,1,2.311.858A5.3,5.3,0,0,1,914.3,594.644Z" transform="translate(-892.294 -593.029)" fill="#1a2e35"/>
        </g>
      </g>
      <g id="Grupo_144881" data-name="Grupo 144881" transform="translate(60.757 23.013)">
        <g id="Grupo_144880" data-name="Grupo 144880">
          <path id="Trazado_217628" data-name="Trazado 217628" d="M930.18,632.908s-.131-.09-.371-.271a7.424,7.424,0,0,0-5.822-1.322,14.576,14.576,0,0,0-6.425,2.994,39.054,39.054,0,0,0-3.208,2.768l-1.629,1.548a6.021,6.021,0,0,1-1.923,1.312,2.65,2.65,0,0,1-2.3-.139,2.223,2.223,0,0,1-.948-2.005,4.673,4.673,0,0,1,.6-2.1,7.939,7.939,0,0,1,1.221-1.7,8.038,8.038,0,0,1,3.22-2.091,2.057,2.057,0,0,1,1.737.086.981.981,0,0,1,.4.74,1.616,1.616,0,0,1-.184.784,6.658,6.658,0,0,1-3.756,2.946,1.264,1.264,0,0,1-.762.057.452.452,0,0,1-.326-.433.351.351,0,0,1,.135-.312.191.191,0,0,1,.112-.037c.022,0-.23.023-.216.347a.415.415,0,0,0,.31.391,1.224,1.224,0,0,0,.73-.071,6.886,6.886,0,0,0,1.844-.935,6.2,6.2,0,0,0,1.833-2,1.518,1.518,0,0,0,.168-.73.862.862,0,0,0-.359-.651,1.948,1.948,0,0,0-1.629-.062,7.932,7.932,0,0,0-3.157,2.067,6.03,6.03,0,0,0-1.771,3.7,2.071,2.071,0,0,0,.88,1.873,2.5,2.5,0,0,0,2.164.124,5.892,5.892,0,0,0,1.873-1.28l1.629-1.546a38.737,38.737,0,0,1,3.226-2.771,14.588,14.588,0,0,1,6.494-2.989,7.784,7.784,0,0,1,4.745.691,7.231,7.231,0,0,1,1.112.713C930.062,632.8,930.18,632.908,930.18,632.908Z" transform="translate(-907.552 -631.105)" fill="#1a2e35"/>
        </g>
      </g>
      <g id="Grupo_144883" data-name="Grupo 144883" transform="translate(70.588 25.787)">
        <g id="Grupo_144882" data-name="Grupo 144882">
          <path id="Trazado_217629" data-name="Trazado 217629" d="M943.566,638.5a.5.5,0,0,1-.141-.035l-.391-.129a10.54,10.54,0,0,0-1.46-.383,11.91,11.91,0,0,0-2.223-.221,12.271,12.271,0,0,0-5.3,1.176,11.885,11.885,0,0,0-1.921,1.14,10.535,10.535,0,0,0-1.162.964l-.3.282c-.07.064-.109.1-.112.091a8.742,8.742,0,0,1,1.51-1.424,11.3,11.3,0,0,1,1.925-1.181,11.97,11.97,0,0,1,5.365-1.19,11.293,11.293,0,0,1,2.244.256A8.736,8.736,0,0,1,943.566,638.5Z" transform="translate(-930.552 -637.595)" fill="#1a2e35"/>
        </g>
      </g>
      <g id="Grupo_144885" data-name="Grupo 144885" transform="translate(68.206 20.752)">
        <g id="Grupo_144884" data-name="Grupo 144884">
          <path id="Trazado_217630" data-name="Trazado 217630" d="M924.98,625.943a2.981,2.981,0,0,1,.482.079c.307.063.754.144,1.307.233a25.408,25.408,0,0,0,8.7-.088c.551-.1,1-.191,1.3-.26a.245.245,0,1,1,.014.058c-.3.088-.745.194-1.3.309a22.837,22.837,0,0,1-8.743.088c-.553-.1-1-.2-1.3-.282A2.953,2.953,0,0,1,924.98,625.943Z" transform="translate(-924.98 -625.817)" fill="#1a2e35"/>
        </g>
      </g>
    </g>
  </g>
</svg>
